<?xml version="1.0" encoding="UTF-8" standalone="no"?>
<!DOCTYPE svg PUBLIC "-//W3C//DTD SVG 1.1//EN"
 "http://www.w3.org/Graphics/SVG/1.1/DTD/svg11.dtd">
<!-- Generated by graphviz version 12.1.2 (20240928.0832)
 -->
<!-- Title: _sqlx_migrations Pages: 1 -->
<svg width="309pt" height="321pt"
 viewBox="0.00 0.00 308.65 320.80" xmlns="http://www.w3.org/2000/svg" xmlns:xlink="http://www.w3.org/1999/xlink">
<g id="graph0" class="graph" transform="scale(1 1) rotate(0) translate(4 316.8)">
<title>_sqlx_migrations</title>
<polygon fill="white" stroke="none" points="-4,4 -4,-316.8 304.65,-316.8 304.65,4 -4,4"/>
<!-- _sqlx_migrations -->
<g id="node1" class="node">
<title>_sqlx_migrations</title>
<polygon fill="#efefef" stroke="none" points="46.2,-231 46.2,-266.6 254.45,-266.6 254.45,-231 46.2,-231"/>
<polygon fill="none" stroke="black" points="46.2,-231 46.2,-266.6 254.45,-266.6 254.45,-231 46.2,-231"/>
<text text-anchor="start" x="53.2" y="-244.4" font-family="Arial Bold" font-size="18.00">_sqlx_migrations</text>
<text text-anchor="start" x="178.2" y="-244.4" font-family="Arial" font-size="14.00">    </text>
<text text-anchor="start" x="209.32" y="-244.4" font-family="Arial" font-size="14.00" fill="#666666">[table]</text>
<polygon fill="none" stroke="black" points="46.2,-200.2 46.2,-231 254.45,-231 254.45,-200.2 46.2,-200.2"/>
<text text-anchor="start" x="53.2" y="-212.4" font-family="Arial" font-size="14.00">version </text>
<text text-anchor="start" x="102.22" y="-212.4" font-family="Arial" font-size="14.00" fill="#666666">[BIGINT]</text>
<polygon fill="none" stroke="black" points="46.2,-169.4 46.2,-200.2 254.45,-200.2 254.45,-169.4 46.2,-169.4"/>
<text text-anchor="start" x="53.2" y="-181.6" font-family="Arial" font-size="14.00">description </text>
<text text-anchor="start" x="124.79" y="-181.6" font-family="Arial" font-size="14.00" fill="#666666">[TEXT]</text>
<polygon fill="none" stroke="black" points="46.2,-138.6 46.2,-169.4 254.45,-169.4 254.45,-138.6 46.2,-138.6"/>
<text text-anchor="start" x="53.2" y="-150.8" font-family="Arial" font-size="14.00">installed_on </text>
<text text-anchor="start" x="131.81" y="-150.8" font-family="Arial" font-size="14.00" fill="#666666">[TIMESTAMP]</text>
<polygon fill="none" stroke="black" points="46.2,-107.8 46.2,-138.6 254.45,-138.6 254.45,-107.8 46.2,-107.8"/>
<text text-anchor="start" x="53.2" y="-120" font-family="Arial" font-size="14.00">success </text>
<text text-anchor="start" x="107.66" y="-120" font-family="Arial" font-size="14.00" fill="#666666">[BOOLEAN]</text>
<polygon fill="none" stroke="black" points="46.2,-77 46.2,-107.8 254.45,-107.8 254.45,-77 46.2,-77"/>
<text text-anchor="start" x="53.2" y="-89.2" font-family="Arial" font-size="14.00">checksum </text>
<text text-anchor="start" x="120.11" y="-89.2" font-family="Arial" font-size="14.00" fill="#666666">[BLOB]</text>
<polygon fill="none" stroke="black" points="46.2,-46.2 46.2,-77 254.45,-77 254.45,-46.2 46.2,-46.2"/>
<text text-anchor="start" x="53.2" y="-58.4" font-family="Arial" font-size="14.00">execution_time </text>
<text text-anchor="start" x="151.25" y="-58.4" font-family="Arial" font-size="14.00" fill="#666666">[BIGINT]</text>
<polygon fill="none" stroke="black" stroke-width="3" points="44.7,-44.7 44.7,-268.1 255.95,-268.1 255.95,-44.7 44.7,-44.7"/>
</g>
</g>
</svg>
