<?xml version="1.0" encoding="UTF-8" standalone="no"?>
<!DOCTYPE svg PUBLIC "-//W3C//DTD SVG 1.1//EN"
 "http://www.w3.org/Graphics/SVG/1.1/DTD/svg11.dtd">
<!-- Generated by graphviz version 12.1.2 (20240928.0832)
 -->
<!-- Title: dat_rom Pages: 1 -->
<svg width="809pt" height="1376pt"
 viewBox="0.00 0.00 809.29 1376.00" xmlns="http://www.w3.org/2000/svg" xmlns:xlink="http://www.w3.org/1999/xlink">
<g id="graph0" class="graph" transform="scale(1 1) rotate(0) translate(4 1372)">
<title>dat_rom</title>
<polygon fill="white" stroke="none" points="-4,4 -4,-1372 805.29,-1372 805.29,4 -4,4"/>
<!-- dat_rom -->
<g id="node1" class="node">
<title>dat_rom</title>
<polygon fill="#efefef" stroke="none" points="46.2,-1286.2 46.2,-1321.8 215.05,-1321.8 215.05,-1286.2 46.2,-1286.2"/>
<polygon fill="none" stroke="black" points="46.2,-1286.2 46.2,-1321.8 215.05,-1321.8 215.05,-1286.2 46.2,-1286.2"/>
<text text-anchor="start" x="66" y="-1299.6" font-family="Arial Bold" font-size="18.00">dat_rom</text>
<text text-anchor="start" x="125.99" y="-1299.6" font-family="Arial" font-size="14.00">    </text>
<text text-anchor="start" x="157.11" y="-1299.6" font-family="Arial" font-size="14.00" fill="#666666">[table]</text>
<polygon fill="none" stroke="black" points="46.2,-1255.4 46.2,-1286.2 215.05,-1286.2 215.05,-1255.4 46.2,-1255.4"/>
<text text-anchor="start" x="53.2" y="-1267.6" font-family="Arial" font-size="14.00">id </text>
<text text-anchor="start" x="67.99" y="-1267.6" font-family="Arial" font-size="14.00" fill="#666666">[INTEGER]</text>
<polygon fill="none" stroke="black" points="46.2,-1224.6 46.2,-1255.4 215.05,-1255.4 215.05,-1224.6 46.2,-1224.6"/>
<text text-anchor="start" x="53.2" y="-1236.8" font-family="Arial" font-size="14.00">dat_game_id </text>
<text text-anchor="start" x="138.04" y="-1236.8" font-family="Arial" font-size="14.00" fill="#666666">[INTEGER]</text>
<polygon fill="none" stroke="black" points="46.2,-1193.8 46.2,-1224.6 215.05,-1224.6 215.05,-1193.8 46.2,-1193.8"/>
<text text-anchor="start" x="53.2" y="-1206" font-family="Arial" font-size="14.00">name </text>
<text text-anchor="start" x="92.11" y="-1206" font-family="Arial" font-size="14.00" fill="#666666">[TEXT]</text>
<polygon fill="none" stroke="black" points="46.2,-1163 46.2,-1193.8 215.05,-1193.8 215.05,-1163 46.2,-1163"/>
<text text-anchor="start" x="53.2" y="-1175.2" font-family="Arial" font-size="14.00">size </text>
<text text-anchor="start" x="81.99" y="-1175.2" font-family="Arial" font-size="14.00" fill="#666666">[INTEGER]</text>
<polygon fill="none" stroke="black" points="46.2,-1132.2 46.2,-1163 215.05,-1163 215.05,-1132.2 46.2,-1132.2"/>
<text text-anchor="start" x="53.2" y="-1144.4" font-family="Arial" font-size="14.00">crc </text>
<text text-anchor="start" x="75.75" y="-1144.4" font-family="Arial" font-size="14.00" fill="#666666">[TEXT]</text>
<polygon fill="none" stroke="black" points="46.2,-1101.4 46.2,-1132.2 215.05,-1132.2 215.05,-1101.4 46.2,-1101.4"/>
<text text-anchor="start" x="53.2" y="-1113.6" font-family="Arial" font-size="14.00">md5 </text>
<text text-anchor="start" x="84.32" y="-1113.6" font-family="Arial" font-size="14.00" fill="#666666">[TEXT]</text>
<polygon fill="none" stroke="black" points="46.2,-1070.6 46.2,-1101.4 215.05,-1101.4 215.05,-1070.6 46.2,-1070.6"/>
<text text-anchor="start" x="53.2" y="-1082.8" font-family="Arial" font-size="14.00">sha1 </text>
<text text-anchor="start" x="87.45" y="-1082.8" font-family="Arial" font-size="14.00" fill="#666666">[TEXT]</text>
<polygon fill="none" stroke="black" points="46.2,-1039.8 46.2,-1070.6 215.05,-1070.6 215.05,-1039.8 46.2,-1039.8"/>
<text text-anchor="start" x="53.2" y="-1052" font-family="Arial" font-size="14.00">sha256 </text>
<text text-anchor="start" x="103.02" y="-1052" font-family="Arial" font-size="14.00" fill="#666666">[TEXT]</text>
<polygon fill="none" stroke="black" points="46.2,-1009 46.2,-1039.8 215.05,-1039.8 215.05,-1009 46.2,-1009"/>
<text text-anchor="start" x="53.2" y="-1021.2" font-family="Arial" font-size="14.00">status </text>
<text text-anchor="start" x="94.44" y="-1021.2" font-family="Arial" font-size="14.00" fill="#666666">[TEXT]</text>
<polygon fill="none" stroke="black" points="46.2,-978.2 46.2,-1009 215.05,-1009 215.05,-978.2 46.2,-978.2"/>
<text text-anchor="start" x="53.2" y="-990.4" font-family="Arial" font-size="14.00">serial </text>
<text text-anchor="start" x="90.54" y="-990.4" font-family="Arial" font-size="14.00" fill="#666666">[TEXT]</text>
<polygon fill="none" stroke="black" points="46.2,-947.4 46.2,-978.2 215.05,-978.2 215.05,-947.4 46.2,-947.4"/>
<text text-anchor="start" x="53.2" y="-959.6" font-family="Arial" font-size="14.00">header </text>
<text text-anchor="start" x="100.68" y="-959.6" font-family="Arial" font-size="14.00" fill="#666666">[TEXT]</text>
<polygon fill="none" stroke="black" stroke-width="3" points="44.7,-945.9 44.7,-1323.3 216.55,-1323.3 216.55,-945.9 44.7,-945.9"/>
</g>
<!-- dat_game -->
<g id="node2" class="node">
<title>dat_game</title>
<polygon fill="#efefef" stroke="none" points="54.01,-786.4 54.01,-822 207.24,-822 207.24,-786.4 54.01,-786.4"/>
<polygon fill="none" stroke="black" points="54.01,-786.4 54.01,-822 207.24,-822 207.24,-786.4 54.01,-786.4"/>
<text text-anchor="start" x="61.01" y="-799.8" font-family="Arial Bold" font-size="18.00">dat_game</text>
<text text-anchor="start" x="130.98" y="-799.8" font-family="Arial" font-size="14.00">    </text>
<text text-anchor="start" x="162.1" y="-799.8" font-family="Arial" font-size="14.00" fill="#666666">[table]</text>
<polygon fill="none" stroke="black" points="54.01,-755.6 54.01,-786.4 207.24,-786.4 207.24,-755.6 54.01,-755.6"/>
<text text-anchor="start" x="61.01" y="-767.8" font-family="Arial" font-size="14.00">id </text>
<text text-anchor="start" x="75.8" y="-767.8" font-family="Arial" font-size="14.00" fill="#666666">[INTEGER]</text>
<polygon fill="none" stroke="black" points="54.01,-724.8 54.01,-755.6 207.24,-755.6 207.24,-724.8 54.01,-724.8"/>
<text text-anchor="start" x="61.01" y="-737" font-family="Arial" font-size="14.00">dat_file_id </text>
<text text-anchor="start" x="128.73" y="-737" font-family="Arial" font-size="14.00" fill="#666666">[INTEGER]</text>
<polygon fill="none" stroke="black" points="54.01,-694 54.01,-724.8 207.24,-724.8 207.24,-694 54.01,-694"/>
<text text-anchor="start" x="61.01" y="-706.2" font-family="Arial" font-size="14.00">name </text>
<text text-anchor="start" x="99.92" y="-706.2" font-family="Arial" font-size="14.00" fill="#666666">[TEXT]</text>
<polygon fill="none" stroke="black" points="54.01,-663.2 54.01,-694 207.24,-694 207.24,-663.2 54.01,-663.2"/>
<text text-anchor="start" x="61.01" y="-675.4" font-family="Arial" font-size="14.00">game_id </text>
<text text-anchor="start" x="118.6" y="-675.4" font-family="Arial" font-size="14.00" fill="#666666">[TEXT]</text>
<polygon fill="none" stroke="black" points="54.01,-632.4 54.01,-663.2 207.24,-663.2 207.24,-632.4 54.01,-632.4"/>
<text text-anchor="start" x="61.01" y="-644.6" font-family="Arial" font-size="14.00">description </text>
<text text-anchor="start" x="132.6" y="-644.6" font-family="Arial" font-size="14.00" fill="#666666">[TEXT]</text>
<polygon fill="none" stroke="black" points="54.01,-601.6 54.01,-632.4 207.24,-632.4 207.24,-601.6 54.01,-601.6"/>
<text text-anchor="start" x="61.01" y="-613.8" font-family="Arial" font-size="14.00">cloneof </text>
<text text-anchor="start" x="110.05" y="-613.8" font-family="Arial" font-size="14.00" fill="#666666">[TEXT]</text>
<polygon fill="none" stroke="black" points="54.01,-570.8 54.01,-601.6 207.24,-601.6 207.24,-570.8 54.01,-570.8"/>
<text text-anchor="start" x="61.01" y="-583" font-family="Arial" font-size="14.00">cloneofid </text>
<text text-anchor="start" x="120.94" y="-583" font-family="Arial" font-size="14.00" fill="#666666">[TEXT]</text>
</g>
<!-- dat_rom&#45;&gt;dat_game -->
<g id="edge1" class="edge">
<title>dat_rom:dat_game_id&#45;&gt;dat_game:id</title>
<path fill="none" stroke="black" d="M226.34,-1238.39C319.64,-1208.49 308.91,-771 208.24,-771"/>
<polygon fill="black" stroke="black" points="226.26,-1238.41 215.68,-1235.5 220.99,-1239.23 216.71,-1239.9 216.71,-1239.9 216.71,-1239.9 220.99,-1239.23 217.07,-1244.39 226.26,-1238.41"/>
<text text-anchor="start" x="223.05" y="-1250" font-family="Arial" font-size="10.00">FOREIGN KEY (dat_game_id) REFERENCES dat_game (id) ON UPDATE NO ACTION ON DELETE CASCADE MATCH NONE</text>
</g>
<!-- dat_file -->
<g id="node3" class="node">
<title>dat_file</title>
<polygon fill="#efefef" stroke="none" points="55.17,-412.8 55.17,-448.4 206.08,-448.4 206.08,-412.8 55.17,-412.8"/>
<polygon fill="none" stroke="black" points="55.17,-412.8 55.17,-448.4 206.08,-448.4 206.08,-412.8 55.17,-412.8"/>
<text text-anchor="start" x="68.51" y="-426.2" font-family="Arial Bold" font-size="18.00">dat_file</text>
<text text-anchor="start" x="123.48" y="-426.2" font-family="Arial" font-size="14.00">    </text>
<text text-anchor="start" x="154.6" y="-426.2" font-family="Arial" font-size="14.00" fill="#666666">[table]</text>
<polygon fill="none" stroke="black" points="55.17,-382 55.17,-412.8 206.08,-412.8 206.08,-382 55.17,-382"/>
<text text-anchor="start" x="62.17" y="-394.2" font-family="Arial" font-size="14.00">id </text>
<text text-anchor="start" x="76.95" y="-394.2" font-family="Arial" font-size="14.00" fill="#666666">[INTEGER]</text>
<polygon fill="none" stroke="black" points="55.17,-351.2 55.17,-382 206.08,-382 206.08,-351.2 55.17,-351.2"/>
<text text-anchor="start" x="62.17" y="-363.4" font-family="Arial" font-size="14.00">dat_id </text>
<text text-anchor="start" x="104.2" y="-363.4" font-family="Arial" font-size="14.00" fill="#666666">[INTEGER]</text>
<polygon fill="none" stroke="black" points="55.17,-320.4 55.17,-351.2 206.08,-351.2 206.08,-320.4 55.17,-320.4"/>
<text text-anchor="start" x="62.17" y="-332.6" font-family="Arial" font-size="14.00">name </text>
<text text-anchor="start" x="101.08" y="-332.6" font-family="Arial" font-size="14.00" fill="#666666">[TEXT]</text>
<polygon fill="none" stroke="black" points="55.17,-289.6 55.17,-320.4 206.08,-320.4 206.08,-289.6 55.17,-289.6"/>
<text text-anchor="start" x="62.17" y="-301.8" font-family="Arial" font-size="14.00">description </text>
<text text-anchor="start" x="133.76" y="-301.8" font-family="Arial" font-size="14.00" fill="#666666">[TEXT]</text>
<polygon fill="none" stroke="black" points="55.17,-258.8 55.17,-289.6 206.08,-289.6 206.08,-258.8 55.17,-258.8"/>
<text text-anchor="start" x="62.17" y="-271" font-family="Arial" font-size="14.00">version </text>
<text text-anchor="start" x="111.19" y="-271" font-family="Arial" font-size="14.00" fill="#666666">[TEXT]</text>
<polygon fill="none" stroke="black" points="55.17,-228 55.17,-258.8 206.08,-258.8 206.08,-228 55.17,-228"/>
<text text-anchor="start" x="62.17" y="-240.2" font-family="Arial" font-size="14.00">date </text>
<text text-anchor="start" x="93.3" y="-240.2" font-family="Arial" font-size="14.00" fill="#666666">[TEXT]</text>
<polygon fill="none" stroke="black" points="55.17,-197.2 55.17,-228 206.08,-228 206.08,-197.2 55.17,-197.2"/>
<text text-anchor="start" x="62.17" y="-209.4" font-family="Arial" font-size="14.00">author </text>
<text text-anchor="start" x="105.75" y="-209.4" font-family="Arial" font-size="14.00" fill="#666666">[TEXT]</text>
<polygon fill="none" stroke="black" points="55.17,-166.4 55.17,-197.2 206.08,-197.2 206.08,-166.4 55.17,-166.4"/>
<text text-anchor="start" x="62.17" y="-178.6" font-family="Arial" font-size="14.00">homepage </text>
<text text-anchor="start" x="132.22" y="-178.6" font-family="Arial" font-size="14.00" fill="#666666">[TEXT]</text>
<polygon fill="none" stroke="black" points="55.17,-135.6 55.17,-166.4 206.08,-166.4 206.08,-135.6 55.17,-135.6"/>
<text text-anchor="start" x="62.17" y="-147.8" font-family="Arial" font-size="14.00">url </text>
<text text-anchor="start" x="81.61" y="-147.8" font-family="Arial" font-size="14.00" fill="#666666">[TEXT]</text>
<polygon fill="none" stroke="black" points="55.17,-104.8 55.17,-135.6 206.08,-135.6 206.08,-104.8 55.17,-104.8"/>
<text text-anchor="start" x="62.17" y="-117" font-family="Arial" font-size="14.00">subset </text>
<text text-anchor="start" x="107.3" y="-117" font-family="Arial" font-size="14.00" fill="#666666">[TEXT]</text>
<polygon fill="none" stroke="black" points="55.17,-74 55.17,-104.8 206.08,-104.8 206.08,-74 55.17,-74"/>
<text text-anchor="start" x="62.17" y="-86.2" font-family="Arial" font-size="14.00">imported_at </text>
<text text-anchor="start" x="139.99" y="-86.2" font-family="Arial" font-size="14.00" fill="#666666">[TEXT]</text>
<polygon fill="none" stroke="black" points="55.17,-43.2 55.17,-74 206.08,-74 206.08,-43.2 55.17,-43.2"/>
<text text-anchor="start" x="62.17" y="-55.4" font-family="Arial" font-size="14.00">system_id </text>
<text text-anchor="start" x="129.08" y="-55.4" font-family="Arial" font-size="14.00" fill="#666666">[INTEGER]</text>
</g>
<!-- dat_game&#45;&gt;dat_file -->
<g id="edge2" class="edge">
<title>dat_game:dat_file_id&#45;&gt;dat_file:id</title>
<path fill="none" stroke="black" d="M218.44,-738.01C284.14,-708.82 279.69,-397.4 207.08,-397.4"/>
<polygon fill="black" stroke="black" points="218.34,-738.03 207.62,-735.73 213.12,-739.15 208.89,-740.06 208.89,-740.06 208.89,-740.06 213.12,-739.15 209.51,-744.53 218.34,-738.03"/>
<text text-anchor="start" x="215.24" y="-750.2" font-family="Arial" font-size="10.00">FOREIGN KEY (dat_file_id) REFERENCES dat_file (id) ON UPDATE NO ACTION ON DELETE CASCADE MATCH NONE</text>
</g>
</g>
</svg>
