<?xml version="1.0" encoding="UTF-8" standalone="no"?>
<!DOCTYPE svg PUBLIC "-//W3C//DTD SVG 1.1//EN"
 "http://www.w3.org/Graphics/SVG/1.1/DTD/svg11.dtd">
<!-- Generated by graphviz version 12.1.2 (20240928.0832)
 -->
<!-- Title: dat_file Pages: 1 -->
<svg width="2353pt" height="1596pt"
 viewBox="0.00 0.00 2352.78 1595.60" xmlns="http://www.w3.org/2000/svg" xmlns:xlink="http://www.w3.org/1999/xlink">
<g id="graph0" class="graph" transform="scale(1 1) rotate(0) translate(4 1591.6)">
<title>dat_file</title>
<polygon fill="white" stroke="none" points="-4,4 -4,-1591.6 2348.78,-1591.6 2348.78,4 -4,4"/>
<!-- dat_file -->
<g id="node1" class="node">
<title>dat_file</title>
<polygon fill="#efefef" stroke="none" points="1314.06,-635.4 1314.06,-671 1464.98,-671 1464.98,-635.4 1314.06,-635.4"/>
<polygon fill="none" stroke="black" points="1314.06,-635.4 1314.06,-671 1464.98,-671 1464.98,-635.4 1314.06,-635.4"/>
<text text-anchor="start" x="1327.4" y="-648.8" font-family="Arial Bold" font-size="18.00">dat_file</text>
<text text-anchor="start" x="1382.38" y="-648.8" font-family="Arial" font-size="14.00">    </text>
<text text-anchor="start" x="1413.5" y="-648.8" font-family="Arial" font-size="14.00" fill="#666666">[table]</text>
<polygon fill="none" stroke="black" points="1314.06,-604.6 1314.06,-635.4 1464.98,-635.4 1464.98,-604.6 1314.06,-604.6"/>
<text text-anchor="start" x="1321.06" y="-616.8" font-family="Arial" font-size="14.00">id </text>
<text text-anchor="start" x="1335.85" y="-616.8" font-family="Arial" font-size="14.00" fill="#666666">[INTEGER]</text>
<polygon fill="none" stroke="black" points="1314.06,-573.8 1314.06,-604.6 1464.98,-604.6 1464.98,-573.8 1314.06,-573.8"/>
<text text-anchor="start" x="1321.06" y="-586" font-family="Arial" font-size="14.00">dat_id </text>
<text text-anchor="start" x="1363.09" y="-586" font-family="Arial" font-size="14.00" fill="#666666">[INTEGER]</text>
<polygon fill="none" stroke="black" points="1314.06,-543 1314.06,-573.8 1464.98,-573.8 1464.98,-543 1314.06,-543"/>
<text text-anchor="start" x="1321.06" y="-555.2" font-family="Arial" font-size="14.00">name </text>
<text text-anchor="start" x="1359.97" y="-555.2" font-family="Arial" font-size="14.00" fill="#666666">[TEXT]</text>
<polygon fill="none" stroke="black" points="1314.06,-512.2 1314.06,-543 1464.98,-543 1464.98,-512.2 1314.06,-512.2"/>
<text text-anchor="start" x="1321.06" y="-524.4" font-family="Arial" font-size="14.00">description </text>
<text text-anchor="start" x="1392.65" y="-524.4" font-family="Arial" font-size="14.00" fill="#666666">[TEXT]</text>
<polygon fill="none" stroke="black" points="1314.06,-481.4 1314.06,-512.2 1464.98,-512.2 1464.98,-481.4 1314.06,-481.4"/>
<text text-anchor="start" x="1321.06" y="-493.6" font-family="Arial" font-size="14.00">version </text>
<text text-anchor="start" x="1370.08" y="-493.6" font-family="Arial" font-size="14.00" fill="#666666">[TEXT]</text>
<polygon fill="none" stroke="black" points="1314.06,-450.6 1314.06,-481.4 1464.98,-481.4 1464.98,-450.6 1314.06,-450.6"/>
<text text-anchor="start" x="1321.06" y="-462.8" font-family="Arial" font-size="14.00">date </text>
<text text-anchor="start" x="1352.2" y="-462.8" font-family="Arial" font-size="14.00" fill="#666666">[TEXT]</text>
<polygon fill="none" stroke="black" points="1314.06,-419.8 1314.06,-450.6 1464.98,-450.6 1464.98,-419.8 1314.06,-419.8"/>
<text text-anchor="start" x="1321.06" y="-432" font-family="Arial" font-size="14.00">author </text>
<text text-anchor="start" x="1364.65" y="-432" font-family="Arial" font-size="14.00" fill="#666666">[TEXT]</text>
<polygon fill="none" stroke="black" points="1314.06,-389 1314.06,-419.8 1464.98,-419.8 1464.98,-389 1314.06,-389"/>
<text text-anchor="start" x="1321.06" y="-401.2" font-family="Arial" font-size="14.00">homepage </text>
<text text-anchor="start" x="1391.11" y="-401.2" font-family="Arial" font-size="14.00" fill="#666666">[TEXT]</text>
<polygon fill="none" stroke="black" points="1314.06,-358.2 1314.06,-389 1464.98,-389 1464.98,-358.2 1314.06,-358.2"/>
<text text-anchor="start" x="1321.06" y="-370.4" font-family="Arial" font-size="14.00">url </text>
<text text-anchor="start" x="1340.51" y="-370.4" font-family="Arial" font-size="14.00" fill="#666666">[TEXT]</text>
<polygon fill="none" stroke="black" points="1314.06,-327.4 1314.06,-358.2 1464.98,-358.2 1464.98,-327.4 1314.06,-327.4"/>
<text text-anchor="start" x="1321.06" y="-339.6" font-family="Arial" font-size="14.00">subset </text>
<text text-anchor="start" x="1366.2" y="-339.6" font-family="Arial" font-size="14.00" fill="#666666">[TEXT]</text>
<polygon fill="none" stroke="black" points="1314.06,-296.6 1314.06,-327.4 1464.98,-327.4 1464.98,-296.6 1314.06,-296.6"/>
<text text-anchor="start" x="1321.06" y="-308.8" font-family="Arial" font-size="14.00">imported_at </text>
<text text-anchor="start" x="1398.88" y="-308.8" font-family="Arial" font-size="14.00" fill="#666666">[TEXT]</text>
<polygon fill="none" stroke="black" points="1314.06,-265.8 1314.06,-296.6 1464.98,-296.6 1464.98,-265.8 1314.06,-265.8"/>
<text text-anchor="start" x="1321.06" y="-278" font-family="Arial" font-size="14.00">system_id </text>
<text text-anchor="start" x="1387.97" y="-278" font-family="Arial" font-size="14.00" fill="#666666">[INTEGER]</text>
<polygon fill="none" stroke="black" stroke-width="3" points="1312.56,-264.3 1312.56,-672.5 1466.48,-672.5 1466.48,-264.3 1312.56,-264.3"/>
</g>
<!-- system -->
<g id="node6" class="node">
<title>system</title>
<polygon fill="#efefef" stroke="none" points="698.89,-104.8 698.89,-140.4 832.15,-140.4 832.15,-104.8 698.89,-104.8"/>
<polygon fill="none" stroke="black" points="698.89,-104.8 698.89,-140.4 832.15,-140.4 832.15,-104.8 698.89,-104.8"/>
<text text-anchor="start" x="705.89" y="-118.2" font-family="Arial Bold" font-size="18.00">system</text>
<text text-anchor="start" x="755.89" y="-118.2" font-family="Arial" font-size="14.00">    </text>
<text text-anchor="start" x="787.01" y="-118.2" font-family="Arial" font-size="14.00" fill="#666666">[table]</text>
<polygon fill="none" stroke="black" points="698.89,-74 698.89,-104.8 832.15,-104.8 832.15,-74 698.89,-74"/>
<text text-anchor="start" x="705.89" y="-86.2" font-family="Arial" font-size="14.00">id </text>
<text text-anchor="start" x="720.68" y="-86.2" font-family="Arial" font-size="14.00" fill="#666666">[INTEGER]</text>
<polygon fill="none" stroke="black" points="698.89,-43.2 698.89,-74 832.15,-74 832.15,-43.2 698.89,-43.2"/>
<text text-anchor="start" x="705.89" y="-55.4" font-family="Arial" font-size="14.00">name </text>
<text text-anchor="start" x="744.8" y="-55.4" font-family="Arial" font-size="14.00" fill="#666666">[TEXT]</text>
</g>
<!-- dat_file&#45;&gt;system -->
<g id="edge5" class="edge">
<title>dat_file:system_id&#45;&gt;system:id</title>
<path fill="none" stroke="black" d="M1302.81,-279.78C1279.14,-272.31 1286.62,-237.19 1259.52,-219.6 1093.33,-111.71 1031.28,-89.4 833.15,-89.4"/>
<polygon fill="black" stroke="black" points="1302.82,-279.78 1312.11,-285.61 1308.11,-280.51 1312.4,-281.11 1312.4,-281.11 1312.4,-281.11 1308.11,-280.51 1313.35,-276.7 1302.82,-279.78"/>
<text text-anchor="start" x="760.44" y="-291.2" font-family="Arial" font-size="10.00">FOREIGN KEY (system_id) REFERENCES system (id) ON UPDATE NO ACTION ON DELETE CASCADE MATCH NONE</text>
</g>
<!-- dat_game -->
<g id="node2" class="node">
<title>dat_game</title>
<polygon fill="#efefef" stroke="none" points="1288.91,-1012 1288.91,-1047.6 1442.13,-1047.6 1442.13,-1012 1288.91,-1012"/>
<polygon fill="none" stroke="black" points="1288.91,-1012 1288.91,-1047.6 1442.13,-1047.6 1442.13,-1012 1288.91,-1012"/>
<text text-anchor="start" x="1295.91" y="-1025.4" font-family="Arial Bold" font-size="18.00">dat_game</text>
<text text-anchor="start" x="1365.88" y="-1025.4" font-family="Arial" font-size="14.00">    </text>
<text text-anchor="start" x="1396.99" y="-1025.4" font-family="Arial" font-size="14.00" fill="#666666">[table]</text>
<polygon fill="none" stroke="black" points="1288.91,-981.2 1288.91,-1012 1442.13,-1012 1442.13,-981.2 1288.91,-981.2"/>
<text text-anchor="start" x="1295.91" y="-993.4" font-family="Arial" font-size="14.00">id </text>
<text text-anchor="start" x="1310.69" y="-993.4" font-family="Arial" font-size="14.00" fill="#666666">[INTEGER]</text>
<polygon fill="none" stroke="black" points="1288.91,-950.4 1288.91,-981.2 1442.13,-981.2 1442.13,-950.4 1288.91,-950.4"/>
<text text-anchor="start" x="1295.91" y="-962.6" font-family="Arial" font-size="14.00">dat_file_id </text>
<text text-anchor="start" x="1363.62" y="-962.6" font-family="Arial" font-size="14.00" fill="#666666">[INTEGER]</text>
<polygon fill="none" stroke="black" points="1288.91,-919.6 1288.91,-950.4 1442.13,-950.4 1442.13,-919.6 1288.91,-919.6"/>
<text text-anchor="start" x="1295.91" y="-931.8" font-family="Arial" font-size="14.00">name </text>
<text text-anchor="start" x="1334.82" y="-931.8" font-family="Arial" font-size="14.00" fill="#666666">[TEXT]</text>
<polygon fill="none" stroke="black" points="1288.91,-888.8 1288.91,-919.6 1442.13,-919.6 1442.13,-888.8 1288.91,-888.8"/>
<text text-anchor="start" x="1295.91" y="-901" font-family="Arial" font-size="14.00">game_id </text>
<text text-anchor="start" x="1353.5" y="-901" font-family="Arial" font-size="14.00" fill="#666666">[TEXT]</text>
<polygon fill="none" stroke="black" points="1288.91,-858 1288.91,-888.8 1442.13,-888.8 1442.13,-858 1288.91,-858"/>
<text text-anchor="start" x="1295.91" y="-870.2" font-family="Arial" font-size="14.00">description </text>
<text text-anchor="start" x="1367.5" y="-870.2" font-family="Arial" font-size="14.00" fill="#666666">[TEXT]</text>
<polygon fill="none" stroke="black" points="1288.91,-827.2 1288.91,-858 1442.13,-858 1442.13,-827.2 1288.91,-827.2"/>
<text text-anchor="start" x="1295.91" y="-839.4" font-family="Arial" font-size="14.00">cloneof </text>
<text text-anchor="start" x="1344.94" y="-839.4" font-family="Arial" font-size="14.00" fill="#666666">[TEXT]</text>
<polygon fill="none" stroke="black" points="1288.91,-796.4 1288.91,-827.2 1442.13,-827.2 1442.13,-796.4 1288.91,-796.4"/>
<text text-anchor="start" x="1295.91" y="-808.6" font-family="Arial" font-size="14.00">cloneofid </text>
<text text-anchor="start" x="1355.84" y="-808.6" font-family="Arial" font-size="14.00" fill="#666666">[TEXT]</text>
</g>
<!-- dat_game&#45;&gt;dat_file -->
<g id="edge1" class="edge">
<title>dat_game:dat_file_id&#45;&gt;dat_file:id</title>
<path fill="none" stroke="black" d="M1453.01,-962.74C1487.25,-939.29 1468.51,-787.85 1442.13,-753.2 1406.31,-706.16 1350.01,-764.14 1314.06,-717.2 1287.79,-682.9 1269.86,-620 1313.06,-620"/>
<polygon fill="black" stroke="black" points="1453,-962.75 1442.12,-961.4 1447.91,-964.32 1443.77,-965.6 1443.77,-965.6 1443.77,-965.6 1447.91,-964.32 1444.78,-970 1453,-962.75"/>
<text text-anchor="start" x="889.35" y="-975.8" font-family="Arial" font-size="10.00">FOREIGN KEY (dat_file_id) REFERENCES dat_file (id) ON UPDATE NO ACTION ON DELETE CASCADE MATCH NONE</text>
</g>
<!-- dat_rom -->
<g id="node3" class="node">
<title>dat_rom</title>
<polygon fill="#efefef" stroke="none" points="1281.09,-1508.8 1281.09,-1544.4 1449.94,-1544.4 1449.94,-1508.8 1281.09,-1508.8"/>
<polygon fill="none" stroke="black" points="1281.09,-1508.8 1281.09,-1544.4 1449.94,-1544.4 1449.94,-1508.8 1281.09,-1508.8"/>
<text text-anchor="start" x="1300.9" y="-1522.2" font-family="Arial Bold" font-size="18.00">dat_rom</text>
<text text-anchor="start" x="1360.88" y="-1522.2" font-family="Arial" font-size="14.00">    </text>
<text text-anchor="start" x="1392" y="-1522.2" font-family="Arial" font-size="14.00" fill="#666666">[table]</text>
<polygon fill="none" stroke="black" points="1281.09,-1478 1281.09,-1508.8 1449.94,-1508.8 1449.94,-1478 1281.09,-1478"/>
<text text-anchor="start" x="1288.09" y="-1490.2" font-family="Arial" font-size="14.00">id </text>
<text text-anchor="start" x="1302.88" y="-1490.2" font-family="Arial" font-size="14.00" fill="#666666">[INTEGER]</text>
<polygon fill="none" stroke="black" points="1281.09,-1447.2 1281.09,-1478 1449.94,-1478 1449.94,-1447.2 1281.09,-1447.2"/>
<text text-anchor="start" x="1288.09" y="-1459.4" font-family="Arial" font-size="14.00">dat_game_id </text>
<text text-anchor="start" x="1372.94" y="-1459.4" font-family="Arial" font-size="14.00" fill="#666666">[INTEGER]</text>
<polygon fill="none" stroke="black" points="1281.09,-1416.4 1281.09,-1447.2 1449.94,-1447.2 1449.94,-1416.4 1281.09,-1416.4"/>
<text text-anchor="start" x="1288.09" y="-1428.6" font-family="Arial" font-size="14.00">name </text>
<text text-anchor="start" x="1327" y="-1428.6" font-family="Arial" font-size="14.00" fill="#666666">[TEXT]</text>
<polygon fill="none" stroke="black" points="1281.09,-1385.6 1281.09,-1416.4 1449.94,-1416.4 1449.94,-1385.6 1281.09,-1385.6"/>
<text text-anchor="start" x="1288.09" y="-1397.8" font-family="Arial" font-size="14.00">size </text>
<text text-anchor="start" x="1316.88" y="-1397.8" font-family="Arial" font-size="14.00" fill="#666666">[INTEGER]</text>
<polygon fill="none" stroke="black" points="1281.09,-1354.8 1281.09,-1385.6 1449.94,-1385.6 1449.94,-1354.8 1281.09,-1354.8"/>
<text text-anchor="start" x="1288.09" y="-1367" font-family="Arial" font-size="14.00">crc </text>
<text text-anchor="start" x="1310.65" y="-1367" font-family="Arial" font-size="14.00" fill="#666666">[TEXT]</text>
<polygon fill="none" stroke="black" points="1281.09,-1324 1281.09,-1354.8 1449.94,-1354.8 1449.94,-1324 1281.09,-1324"/>
<text text-anchor="start" x="1288.09" y="-1336.2" font-family="Arial" font-size="14.00">md5 </text>
<text text-anchor="start" x="1319.22" y="-1336.2" font-family="Arial" font-size="14.00" fill="#666666">[TEXT]</text>
<polygon fill="none" stroke="black" points="1281.09,-1293.2 1281.09,-1324 1449.94,-1324 1449.94,-1293.2 1281.09,-1293.2"/>
<text text-anchor="start" x="1288.09" y="-1305.4" font-family="Arial" font-size="14.00">sha1 </text>
<text text-anchor="start" x="1322.34" y="-1305.4" font-family="Arial" font-size="14.00" fill="#666666">[TEXT]</text>
<polygon fill="none" stroke="black" points="1281.09,-1262.4 1281.09,-1293.2 1449.94,-1293.2 1449.94,-1262.4 1281.09,-1262.4"/>
<text text-anchor="start" x="1288.09" y="-1274.6" font-family="Arial" font-size="14.00">sha256 </text>
<text text-anchor="start" x="1337.92" y="-1274.6" font-family="Arial" font-size="14.00" fill="#666666">[TEXT]</text>
<polygon fill="none" stroke="black" points="1281.09,-1231.6 1281.09,-1262.4 1449.94,-1262.4 1449.94,-1231.6 1281.09,-1231.6"/>
<text text-anchor="start" x="1288.09" y="-1243.8" font-family="Arial" font-size="14.00">status </text>
<text text-anchor="start" x="1329.34" y="-1243.8" font-family="Arial" font-size="14.00" fill="#666666">[TEXT]</text>
<polygon fill="none" stroke="black" points="1281.09,-1200.8 1281.09,-1231.6 1449.94,-1231.6 1449.94,-1200.8 1281.09,-1200.8"/>
<text text-anchor="start" x="1288.09" y="-1213" font-family="Arial" font-size="14.00">serial </text>
<text text-anchor="start" x="1325.44" y="-1213" font-family="Arial" font-size="14.00" fill="#666666">[TEXT]</text>
<polygon fill="none" stroke="black" points="1281.09,-1170 1281.09,-1200.8 1449.94,-1200.8 1449.94,-1170 1281.09,-1170"/>
<text text-anchor="start" x="1288.09" y="-1182.2" font-family="Arial" font-size="14.00">header </text>
<text text-anchor="start" x="1335.58" y="-1182.2" font-family="Arial" font-size="14.00" fill="#666666">[TEXT]</text>
</g>
<!-- dat_rom&#45;&gt;dat_game -->
<g id="edge2" class="edge">
<title>dat_rom:dat_game_id&#45;&gt;dat_game:id</title>
<path fill="none" stroke="black" d="M1459.96,-1457.37C1501.58,-1406.17 1491.68,-996.6 1443.13,-996.6"/>
<polygon fill="black" stroke="black" points="1459.88,-1457.41 1448.97,-1458.54 1455.27,-1460.09 1451.52,-1462.26 1451.52,-1462.26 1451.52,-1462.26 1455.27,-1460.09 1453.49,-1466.32 1459.88,-1457.41"/>
<text text-anchor="start" x="1457.94" y="-1472.6" font-family="Arial" font-size="10.00">FOREIGN KEY (dat_game_id) REFERENCES dat_game (id) ON UPDATE NO ACTION ON DELETE CASCADE MATCH NONE</text>
</g>
<!-- file_set_dat_file_link -->
<g id="node4" class="node">
<title>file_set_dat_file_link</title>
<polygon fill="#efefef" stroke="none" points="1546.91,-935 1546.91,-970.6 1784.12,-970.6 1784.12,-935 1546.91,-935"/>
<polygon fill="none" stroke="black" points="1546.91,-935 1546.91,-970.6 1784.12,-970.6 1784.12,-935 1546.91,-935"/>
<text text-anchor="start" x="1553.91" y="-948.4" font-family="Arial Bold" font-size="18.00">file_set_dat_file_link</text>
<text text-anchor="start" x="1707.87" y="-948.4" font-family="Arial" font-size="14.00">    </text>
<text text-anchor="start" x="1738.99" y="-948.4" font-family="Arial" font-size="14.00" fill="#666666">[table]</text>
<polygon fill="none" stroke="black" points="1546.91,-904.2 1546.91,-935 1784.12,-935 1784.12,-904.2 1546.91,-904.2"/>
<text text-anchor="start" x="1553.91" y="-916.4" font-family="Arial" font-size="14.00">file_set_id </text>
<text text-anchor="start" x="1620.84" y="-916.4" font-family="Arial" font-size="14.00" fill="#666666">[INTEGER]</text>
<polygon fill="none" stroke="black" points="1546.91,-873.4 1546.91,-904.2 1784.12,-904.2 1784.12,-873.4 1546.91,-873.4"/>
<text text-anchor="start" x="1553.91" y="-885.6" font-family="Arial" font-size="14.00">dat_file_id </text>
<text text-anchor="start" x="1621.63" y="-885.6" font-family="Arial" font-size="14.00" fill="#666666">[INTEGER]</text>
</g>
<!-- file_set_dat_file_link&#45;&gt;dat_file -->
<g id="edge3" class="edge">
<title>file_set_dat_file_link:dat_file_id&#45;&gt;dat_file:id</title>
<path fill="none" stroke="black" d="M1535.7,-888.12C1430.94,-873.28 1586.96,-620 1465.98,-620"/>
<polygon fill="black" stroke="black" points="1535.6,-888.11 1545.28,-893.27 1540.92,-888.47 1545.24,-888.76 1545.24,-888.76 1545.24,-888.76 1540.92,-888.47 1545.88,-884.29 1535.6,-888.11"/>
<text text-anchor="start" x="992.13" y="-898.8" font-family="Arial" font-size="10.00">FOREIGN KEY (dat_file_id) REFERENCES dat_file (id) ON UPDATE NO ACTION ON DELETE CASCADE MATCH NONE</text>
</g>
<!-- file_set -->
<g id="node5" class="node">
<title>file_set</title>
<polygon fill="#efefef" stroke="none" points="1595.5,-527.6 1595.5,-563.2 1735.54,-563.2 1735.54,-527.6 1595.5,-527.6"/>
<polygon fill="none" stroke="black" points="1595.5,-527.6 1595.5,-563.2 1735.54,-563.2 1735.54,-527.6 1595.5,-527.6"/>
<text text-anchor="start" x="1604.4" y="-541" font-family="Arial Bold" font-size="18.00">file_set</text>
<text text-anchor="start" x="1657.38" y="-541" font-family="Arial" font-size="14.00">    </text>
<text text-anchor="start" x="1688.5" y="-541" font-family="Arial" font-size="14.00" fill="#666666">[table]</text>
<polygon fill="none" stroke="black" points="1595.5,-496.8 1595.5,-527.6 1735.54,-527.6 1735.54,-496.8 1595.5,-496.8"/>
<text text-anchor="start" x="1602.5" y="-509" font-family="Arial" font-size="14.00">id </text>
<text text-anchor="start" x="1617.28" y="-509" font-family="Arial" font-size="14.00" fill="#666666">[INTEGER]</text>
<polygon fill="none" stroke="black" points="1595.5,-466 1595.5,-496.8 1735.54,-496.8 1735.54,-466 1595.5,-466"/>
<text text-anchor="start" x="1602.5" y="-478.2" font-family="Arial" font-size="14.00">file_name </text>
<text text-anchor="start" x="1667.09" y="-478.2" font-family="Arial" font-size="14.00" fill="#666666">[TEXT]</text>
<polygon fill="none" stroke="black" points="1595.5,-435.2 1595.5,-466 1735.54,-466 1735.54,-435.2 1595.5,-435.2"/>
<text text-anchor="start" x="1602.5" y="-447.4" font-family="Arial" font-size="14.00">file_type </text>
<text text-anchor="start" x="1658.53" y="-447.4" font-family="Arial" font-size="14.00" fill="#666666">[INTEGER]</text>
<polygon fill="none" stroke="black" points="1595.5,-404.4 1595.5,-435.2 1735.54,-435.2 1735.54,-404.4 1595.5,-404.4"/>
<text text-anchor="start" x="1602.5" y="-416.6" font-family="Arial" font-size="14.00">name </text>
<text text-anchor="start" x="1641.41" y="-416.6" font-family="Arial" font-size="14.00" fill="#666666">[TEXT]</text>
<polygon fill="none" stroke="black" points="1595.5,-373.6 1595.5,-404.4 1735.54,-404.4 1735.54,-373.6 1595.5,-373.6"/>
<text text-anchor="start" x="1602.5" y="-385.8" font-family="Arial" font-size="14.00">source </text>
<text text-anchor="start" x="1648.41" y="-385.8" font-family="Arial" font-size="14.00" fill="#666666">[TEXT]</text>
</g>
<!-- file_set_dat_file_link&#45;&gt;file_set -->
<g id="edge4" class="edge">
<title>file_set_dat_file_link:file_set_id&#45;&gt;file_set:id</title>
<path fill="none" stroke="black" d="M1795.18,-917.78C1872.44,-888.39 1824.15,-512.2 1736.54,-512.2"/>
<polygon fill="black" stroke="black" points="1795.29,-917.76 1784.65,-915.11 1790.05,-918.71 1785.78,-919.48 1785.78,-919.48 1785.78,-919.48 1790.05,-918.71 1786.25,-923.97 1795.29,-917.76"/>
<text text-anchor="start" x="1792.12" y="-929.6" font-family="Arial" font-size="10.00">FOREIGN KEY (file_set_id) REFERENCES file_set (id) ON UPDATE NO ACTION ON DELETE CASCADE MATCH NONE</text>
</g>
<!-- emulator -->
<g id="node7" class="node">
<title>emulator</title>
<polygon fill="#efefef" stroke="none" points="99.22,-543 99.22,-578.6 261.81,-578.6 261.81,-543 99.22,-543"/>
<polygon fill="none" stroke="black" points="99.22,-543 99.22,-578.6 261.81,-578.6 261.81,-543 99.22,-543"/>
<text text-anchor="start" x="113.9" y="-556.4" font-family="Arial Bold" font-size="18.00">emulator</text>
<text text-anchor="start" x="177.88" y="-556.4" font-family="Arial" font-size="14.00">    </text>
<text text-anchor="start" x="209" y="-556.4" font-family="Arial" font-size="14.00" fill="#666666">[table]</text>
<polygon fill="none" stroke="black" points="99.22,-512.2 99.22,-543 261.81,-543 261.81,-512.2 99.22,-512.2"/>
<text text-anchor="start" x="106.22" y="-524.4" font-family="Arial" font-size="14.00">id </text>
<text text-anchor="start" x="121.01" y="-524.4" font-family="Arial" font-size="14.00" fill="#666666">[INTEGER]</text>
<polygon fill="none" stroke="black" points="99.22,-481.4 99.22,-512.2 261.81,-512.2 261.81,-481.4 99.22,-481.4"/>
<text text-anchor="start" x="106.22" y="-493.6" font-family="Arial" font-size="14.00">name </text>
<text text-anchor="start" x="145.13" y="-493.6" font-family="Arial" font-size="14.00" fill="#666666">[TEXT]</text>
<polygon fill="none" stroke="black" points="99.22,-450.6 99.22,-481.4 261.81,-481.4 261.81,-450.6 99.22,-450.6"/>
<text text-anchor="start" x="106.22" y="-462.8" font-family="Arial" font-size="14.00">executable </text>
<text text-anchor="start" x="177.83" y="-462.8" font-family="Arial" font-size="14.00" fill="#666666">[TEXT]</text>
<polygon fill="none" stroke="black" points="99.22,-419.8 99.22,-450.6 261.81,-450.6 261.81,-419.8 99.22,-419.8"/>
<text text-anchor="start" x="106.22" y="-432" font-family="Arial" font-size="14.00">extract_files </text>
<text text-anchor="start" x="184.81" y="-432" font-family="Arial" font-size="14.00" fill="#666666">[INTEGER]</text>
<polygon fill="none" stroke="black" points="99.22,-389 99.22,-419.8 261.81,-419.8 261.81,-389 99.22,-389"/>
<text text-anchor="start" x="106.22" y="-401.2" font-family="Arial" font-size="14.00">arguments </text>
<text text-anchor="start" x="176.26" y="-401.2" font-family="Arial" font-size="14.00" fill="#666666">[TEXT]</text>
<polygon fill="none" stroke="black" points="99.22,-358.2 99.22,-389 261.81,-389 261.81,-358.2 99.22,-358.2"/>
<text text-anchor="start" x="106.22" y="-370.4" font-family="Arial" font-size="14.00">system_id </text>
<text text-anchor="start" x="173.13" y="-370.4" font-family="Arial" font-size="14.00" fill="#666666">[INTEGER]</text>
</g>
<!-- emulator&#45;&gt;system -->
<g id="edge6" class="edge">
<title>emulator:system_id&#45;&gt;system:id</title>
<path fill="none" stroke="black" d="M273.08,-372.76C327.82,-362.9 266.24,-268.04 314.52,-219.6 441.54,-92.14 517.94,-89.4 697.89,-89.4"/>
<polygon fill="black" stroke="black" points="273.12,-372.76 262.78,-369.09 267.8,-373.19 263.48,-373.55 263.48,-373.55 263.48,-373.55 267.8,-373.19 263.51,-378.06 273.12,-372.76"/>
<text text-anchor="start" x="269.81" y="-357.6" font-family="Arial" font-size="10.00">FOREIGN KEY (system_id) REFERENCES system (id) ON UPDATE NO ACTION ON DELETE CASCADE MATCH NONE</text>
</g>
<!-- release_system -->
<g id="node8" class="node">
<title>release_system</title>
<polygon fill="#efefef" stroke="none" points="366.41,-481.4 366.41,-517 558.62,-517 558.62,-481.4 366.41,-481.4"/>
<polygon fill="none" stroke="black" points="366.41,-481.4 366.41,-517 558.62,-517 558.62,-481.4 366.41,-481.4"/>
<text text-anchor="start" x="373.41" y="-494.8" font-family="Arial Bold" font-size="18.00">release_system</text>
<text text-anchor="start" x="482.37" y="-494.8" font-family="Arial" font-size="14.00">    </text>
<text text-anchor="start" x="513.49" y="-494.8" font-family="Arial" font-size="14.00" fill="#666666">[table]</text>
<polygon fill="none" stroke="black" points="366.41,-450.6 366.41,-481.4 558.62,-481.4 558.62,-450.6 366.41,-450.6"/>
<text text-anchor="start" x="373.41" y="-462.8" font-family="Arial" font-size="14.00">release_id </text>
<text text-anchor="start" x="441.9" y="-462.8" font-family="Arial" font-size="14.00" fill="#666666">[INTEGER]</text>
<polygon fill="none" stroke="black" points="366.41,-419.8 366.41,-450.6 558.62,-450.6 558.62,-419.8 366.41,-419.8"/>
<text text-anchor="start" x="373.41" y="-432" font-family="Arial" font-size="14.00">system_id </text>
<text text-anchor="start" x="440.32" y="-432" font-family="Arial" font-size="14.00" fill="#666666">[INTEGER]</text>
</g>
<!-- release_system&#45;&gt;system -->
<g id="edge7" class="edge">
<title>release_system:system_id&#45;&gt;system:id</title>
<path fill="none" stroke="black" d="M569.85,-434.69C651.97,-425.95 573.61,-306.6 611.52,-219.6 639.26,-155.94 628.45,-89.4 697.89,-89.4"/>
<polygon fill="black" stroke="black" points="569.95,-434.69 559.74,-430.69 564.62,-434.95 560.29,-435.17 560.29,-435.17 560.29,-435.17 564.62,-434.95 560.18,-439.68 569.95,-434.69"/>
<text text-anchor="start" x="7" y="-445.2" font-family="Arial" font-size="10.00">FOREIGN KEY (system_id) REFERENCES system (id) ON UPDATE NO ACTION ON DELETE CASCADE MATCH NONE</text>
</g>
<!-- file_info_system -->
<g id="node9" class="node">
<title>file_info_system</title>
<polygon fill="#efefef" stroke="none" points="663.4,-481.4 663.4,-517 867.64,-517 867.64,-481.4 663.4,-481.4"/>
<polygon fill="none" stroke="black" points="663.4,-481.4 663.4,-517 867.64,-517 867.64,-481.4 663.4,-481.4"/>
<text text-anchor="start" x="670.4" y="-494.8" font-family="Arial Bold" font-size="18.00">file_info_system</text>
<text text-anchor="start" x="791.38" y="-494.8" font-family="Arial" font-size="14.00">    </text>
<text text-anchor="start" x="822.5" y="-494.8" font-family="Arial" font-size="14.00" fill="#666666">[table]</text>
<polygon fill="none" stroke="black" points="663.4,-450.6 663.4,-481.4 867.64,-481.4 867.64,-450.6 663.4,-450.6"/>
<text text-anchor="start" x="670.4" y="-462.8" font-family="Arial" font-size="14.00">file_info_id </text>
<text text-anchor="start" x="741.23" y="-462.8" font-family="Arial" font-size="14.00" fill="#666666">[INTEGER]</text>
<polygon fill="none" stroke="black" points="663.4,-419.8 663.4,-450.6 867.64,-450.6 867.64,-419.8 663.4,-419.8"/>
<text text-anchor="start" x="670.4" y="-432" font-family="Arial" font-size="14.00">system_id </text>
<text text-anchor="start" x="737.31" y="-432" font-family="Arial" font-size="14.00" fill="#666666">[INTEGER]</text>
</g>
<!-- file_info_system&#45;&gt;system -->
<g id="edge8" class="edge">
<title>file_info_system:system_id&#45;&gt;system:id</title>
<path fill="none" stroke="black" d="M765.84,-408.69C775.09,-261.35 979.24,-89.4 833.15,-89.4"/>
<polygon fill="black" stroke="black" points="765.85,-408.47 761.03,-418.32 765.68,-413.8 765.54,-418.13 765.54,-418.13 765.54,-418.13 765.68,-413.8 770.03,-418.61 765.85,-408.47"/>
<text text-anchor="start" x="630.81" y="-402.8" font-family="Arial" font-size="10.00">FOREIGN KEY (system_id) REFERENCES system (id) ON UPDATE NO ACTION ON DELETE NO ACTION MATCH NONE</text>
</g>
<!-- system_libretro_core -->
<g id="node10" class="node">
<title>system_libretro_core</title>
<polygon fill="#efefef" stroke="none" points="971.91,-496.8 971.91,-532.4 1207.12,-532.4 1207.12,-496.8 971.91,-496.8"/>
<polygon fill="none" stroke="black" points="971.91,-496.8 971.91,-532.4 1207.12,-532.4 1207.12,-496.8 971.91,-496.8"/>
<text text-anchor="start" x="978.91" y="-510.2" font-family="Arial Bold" font-size="18.00">system_libretro_core</text>
<text text-anchor="start" x="1130.87" y="-510.2" font-family="Arial" font-size="14.00">    </text>
<text text-anchor="start" x="1161.99" y="-510.2" font-family="Arial" font-size="14.00" fill="#666666">[table]</text>
<polygon fill="none" stroke="black" points="971.91,-466 971.91,-496.8 1207.12,-496.8 1207.12,-466 971.91,-466"/>
<text text-anchor="start" x="978.91" y="-478.2" font-family="Arial" font-size="14.00">id </text>
<text text-anchor="start" x="993.7" y="-478.2" font-family="Arial" font-size="14.00" fill="#666666">[INTEGER]</text>
<polygon fill="none" stroke="black" points="971.91,-435.2 971.91,-466 1207.12,-466 1207.12,-435.2 971.91,-435.2"/>
<text text-anchor="start" x="978.91" y="-447.4" font-family="Arial" font-size="14.00">system_id </text>
<text text-anchor="start" x="1045.82" y="-447.4" font-family="Arial" font-size="14.00" fill="#666666">[INTEGER]</text>
<polygon fill="none" stroke="black" points="971.91,-404.4 971.91,-435.2 1207.12,-435.2 1207.12,-404.4 971.91,-404.4"/>
<text text-anchor="start" x="978.91" y="-416.6" font-family="Arial" font-size="14.00">core_name </text>
<text text-anchor="start" x="1052.84" y="-416.6" font-family="Arial" font-size="14.00" fill="#666666">[TEXT]</text>
</g>
<!-- system_libretro_core&#45;&gt;system -->
<g id="edge9" class="edge">
<title>system_libretro_core:system_id&#45;&gt;system:id</title>
<path fill="none" stroke="black" d="M960.88,-448C921.18,-425.58 938.66,-264.59 919.52,-219.6 892.33,-155.7 902.59,-89.4 833.15,-89.4"/>
<polygon fill="black" stroke="black" points="960.91,-448.01 969.46,-454.87 966.07,-449.35 970.27,-450.43 970.27,-450.43 970.27,-450.43 966.07,-449.35 971.72,-446.16 960.91,-448.01"/>
<text text-anchor="start" x="977.91" y="-460.6" font-family="Arial" font-size="10.00">FOREIGN KEY (system_id) REFERENCES system (id) ON UPDATE NO ACTION ON DELETE CASCADE MATCH NONE</text>
</g>
</g>
</svg>
