<?xml version="1.0" encoding="UTF-8" standalone="no"?>
<!DOCTYPE svg PUBLIC "-//W3C//DTD SVG 1.1//EN"
 "http://www.w3.org/Graphics/SVG/1.1/DTD/svg11.dtd">
<!-- Generated by graphviz version 12.1.2 (20240928.0832)
 -->
<!-- Title: dat_game Pages: 1 -->
<svg width="1423pt" height="1596pt"
 viewBox="0.00 0.00 1422.83 1595.60" xmlns="http://www.w3.org/2000/svg" xmlns:xlink="http://www.w3.org/1999/xlink">
<g id="graph0" class="graph" transform="scale(1 1) rotate(0) translate(4 1591.6)">
<title>dat_game</title>
<polygon fill="white" stroke="none" points="-4,4 -4,-1591.6 1418.83,-1591.6 1418.83,4 -4,4"/>
<!-- dat_game -->
<g id="node1" class="node">
<title>dat_game</title>
<polygon fill="#efefef" stroke="none" points="667.56,-1009 667.56,-1044.6 820.78,-1044.6 820.78,-1009 667.56,-1009"/>
<polygon fill="none" stroke="black" points="667.56,-1009 667.56,-1044.6 820.78,-1044.6 820.78,-1009 667.56,-1009"/>
<text text-anchor="start" x="674.56" y="-1022.4" font-family="Arial Bold" font-size="18.00">dat_game</text>
<text text-anchor="start" x="744.53" y="-1022.4" font-family="Arial" font-size="14.00">    </text>
<text text-anchor="start" x="775.65" y="-1022.4" font-family="Arial" font-size="14.00" fill="#666666">[table]</text>
<polygon fill="none" stroke="black" points="667.56,-978.2 667.56,-1009 820.78,-1009 820.78,-978.2 667.56,-978.2"/>
<text text-anchor="start" x="674.56" y="-990.4" font-family="Arial" font-size="14.00">id </text>
<text text-anchor="start" x="689.34" y="-990.4" font-family="Arial" font-size="14.00" fill="#666666">[INTEGER]</text>
<polygon fill="none" stroke="black" points="667.56,-947.4 667.56,-978.2 820.78,-978.2 820.78,-947.4 667.56,-947.4"/>
<text text-anchor="start" x="674.56" y="-959.6" font-family="Arial" font-size="14.00">dat_file_id </text>
<text text-anchor="start" x="742.28" y="-959.6" font-family="Arial" font-size="14.00" fill="#666666">[INTEGER]</text>
<polygon fill="none" stroke="black" points="667.56,-916.6 667.56,-947.4 820.78,-947.4 820.78,-916.6 667.56,-916.6"/>
<text text-anchor="start" x="674.56" y="-928.8" font-family="Arial" font-size="14.00">name </text>
<text text-anchor="start" x="713.47" y="-928.8" font-family="Arial" font-size="14.00" fill="#666666">[TEXT]</text>
<polygon fill="none" stroke="black" points="667.56,-885.8 667.56,-916.6 820.78,-916.6 820.78,-885.8 667.56,-885.8"/>
<text text-anchor="start" x="674.56" y="-898" font-family="Arial" font-size="14.00">game_id </text>
<text text-anchor="start" x="732.15" y="-898" font-family="Arial" font-size="14.00" fill="#666666">[TEXT]</text>
<polygon fill="none" stroke="black" points="667.56,-855 667.56,-885.8 820.78,-885.8 820.78,-855 667.56,-855"/>
<text text-anchor="start" x="674.56" y="-867.2" font-family="Arial" font-size="14.00">description </text>
<text text-anchor="start" x="746.15" y="-867.2" font-family="Arial" font-size="14.00" fill="#666666">[TEXT]</text>
<polygon fill="none" stroke="black" points="667.56,-824.2 667.56,-855 820.78,-855 820.78,-824.2 667.56,-824.2"/>
<text text-anchor="start" x="674.56" y="-836.4" font-family="Arial" font-size="14.00">cloneof </text>
<text text-anchor="start" x="723.59" y="-836.4" font-family="Arial" font-size="14.00" fill="#666666">[TEXT]</text>
<polygon fill="none" stroke="black" points="667.56,-793.4 667.56,-824.2 820.78,-824.2 820.78,-793.4 667.56,-793.4"/>
<text text-anchor="start" x="674.56" y="-805.6" font-family="Arial" font-size="14.00">cloneofid </text>
<text text-anchor="start" x="734.49" y="-805.6" font-family="Arial" font-size="14.00" fill="#666666">[TEXT]</text>
<polygon fill="none" stroke="black" stroke-width="3" points="666.06,-791.9 666.06,-1046.1 822.28,-1046.1 822.28,-791.9 666.06,-791.9"/>
</g>
<!-- dat_file -->
<g id="node3" class="node">
<title>dat_file</title>
<polygon fill="#efefef" stroke="none" points="516.71,-632.4 516.71,-668 667.63,-668 667.63,-632.4 516.71,-632.4"/>
<polygon fill="none" stroke="black" points="516.71,-632.4 516.71,-668 667.63,-668 667.63,-632.4 516.71,-632.4"/>
<text text-anchor="start" x="530.06" y="-645.8" font-family="Arial Bold" font-size="18.00">dat_file</text>
<text text-anchor="start" x="585.03" y="-645.8" font-family="Arial" font-size="14.00">    </text>
<text text-anchor="start" x="616.15" y="-645.8" font-family="Arial" font-size="14.00" fill="#666666">[table]</text>
<polygon fill="none" stroke="black" points="516.71,-601.6 516.71,-632.4 667.63,-632.4 667.63,-601.6 516.71,-601.6"/>
<text text-anchor="start" x="523.71" y="-613.8" font-family="Arial" font-size="14.00">id </text>
<text text-anchor="start" x="538.5" y="-613.8" font-family="Arial" font-size="14.00" fill="#666666">[INTEGER]</text>
<polygon fill="none" stroke="black" points="516.71,-570.8 516.71,-601.6 667.63,-601.6 667.63,-570.8 516.71,-570.8"/>
<text text-anchor="start" x="523.71" y="-583" font-family="Arial" font-size="14.00">dat_id </text>
<text text-anchor="start" x="565.75" y="-583" font-family="Arial" font-size="14.00" fill="#666666">[INTEGER]</text>
<polygon fill="none" stroke="black" points="516.71,-540 516.71,-570.8 667.63,-570.8 667.63,-540 516.71,-540"/>
<text text-anchor="start" x="523.71" y="-552.2" font-family="Arial" font-size="14.00">name </text>
<text text-anchor="start" x="562.62" y="-552.2" font-family="Arial" font-size="14.00" fill="#666666">[TEXT]</text>
<polygon fill="none" stroke="black" points="516.71,-509.2 516.71,-540 667.63,-540 667.63,-509.2 516.71,-509.2"/>
<text text-anchor="start" x="523.71" y="-521.4" font-family="Arial" font-size="14.00">description </text>
<text text-anchor="start" x="595.31" y="-521.4" font-family="Arial" font-size="14.00" fill="#666666">[TEXT]</text>
<polygon fill="none" stroke="black" points="516.71,-478.4 516.71,-509.2 667.63,-509.2 667.63,-478.4 516.71,-478.4"/>
<text text-anchor="start" x="523.71" y="-490.6" font-family="Arial" font-size="14.00">version </text>
<text text-anchor="start" x="572.73" y="-490.6" font-family="Arial" font-size="14.00" fill="#666666">[TEXT]</text>
<polygon fill="none" stroke="black" points="516.71,-447.6 516.71,-478.4 667.63,-478.4 667.63,-447.6 516.71,-447.6"/>
<text text-anchor="start" x="523.71" y="-459.8" font-family="Arial" font-size="14.00">date </text>
<text text-anchor="start" x="554.85" y="-459.8" font-family="Arial" font-size="14.00" fill="#666666">[TEXT]</text>
<polygon fill="none" stroke="black" points="516.71,-416.8 516.71,-447.6 667.63,-447.6 667.63,-416.8 516.71,-416.8"/>
<text text-anchor="start" x="523.71" y="-429" font-family="Arial" font-size="14.00">author </text>
<text text-anchor="start" x="567.3" y="-429" font-family="Arial" font-size="14.00" fill="#666666">[TEXT]</text>
<polygon fill="none" stroke="black" points="516.71,-386 516.71,-416.8 667.63,-416.8 667.63,-386 516.71,-386"/>
<text text-anchor="start" x="523.71" y="-398.2" font-family="Arial" font-size="14.00">homepage </text>
<text text-anchor="start" x="593.77" y="-398.2" font-family="Arial" font-size="14.00" fill="#666666">[TEXT]</text>
<polygon fill="none" stroke="black" points="516.71,-355.2 516.71,-386 667.63,-386 667.63,-355.2 516.71,-355.2"/>
<text text-anchor="start" x="523.71" y="-367.4" font-family="Arial" font-size="14.00">url </text>
<text text-anchor="start" x="543.16" y="-367.4" font-family="Arial" font-size="14.00" fill="#666666">[TEXT]</text>
<polygon fill="none" stroke="black" points="516.71,-324.4 516.71,-355.2 667.63,-355.2 667.63,-324.4 516.71,-324.4"/>
<text text-anchor="start" x="523.71" y="-336.6" font-family="Arial" font-size="14.00">subset </text>
<text text-anchor="start" x="568.85" y="-336.6" font-family="Arial" font-size="14.00" fill="#666666">[TEXT]</text>
<polygon fill="none" stroke="black" points="516.71,-293.6 516.71,-324.4 667.63,-324.4 667.63,-293.6 516.71,-293.6"/>
<text text-anchor="start" x="523.71" y="-305.8" font-family="Arial" font-size="14.00">imported_at </text>
<text text-anchor="start" x="601.53" y="-305.8" font-family="Arial" font-size="14.00" fill="#666666">[TEXT]</text>
<polygon fill="none" stroke="black" points="516.71,-262.8 516.71,-293.6 667.63,-293.6 667.63,-262.8 516.71,-262.8"/>
<text text-anchor="start" x="523.71" y="-275" font-family="Arial" font-size="14.00">system_id </text>
<text text-anchor="start" x="590.62" y="-275" font-family="Arial" font-size="14.00" fill="#666666">[INTEGER]</text>
</g>
<!-- dat_game&#45;&gt;dat_file -->
<g id="edge2" class="edge">
<title>dat_game:dat_file_id&#45;&gt;dat_file:id</title>
<path fill="none" stroke="black" d="M656.19,-962.26C578.11,-953.48 666.97,-839.28 667.56,-747.2 667.93,-689.33 726.5,-617 668.63,-617"/>
<polygon fill="black" stroke="black" points="656.24,-962.26 665.99,-967.28 661.57,-962.54 665.89,-962.77 665.89,-962.77 665.89,-962.77 661.57,-962.54 666.46,-958.29 656.24,-962.26"/>
<text text-anchor="start" x="673.56" y="-972.8" font-family="Arial" font-size="10.00">FOREIGN KEY (dat_file_id) REFERENCES dat_file (id) ON UPDATE NO ACTION ON DELETE CASCADE MATCH NONE</text>
</g>
<!-- dat_rom -->
<g id="node2" class="node">
<title>dat_rom</title>
<polygon fill="#efefef" stroke="none" points="659.75,-1508.8 659.75,-1544.4 828.59,-1544.4 828.59,-1508.8 659.75,-1508.8"/>
<polygon fill="none" stroke="black" points="659.75,-1508.8 659.75,-1544.4 828.59,-1544.4 828.59,-1508.8 659.75,-1508.8"/>
<text text-anchor="start" x="679.55" y="-1522.2" font-family="Arial Bold" font-size="18.00">dat_rom</text>
<text text-anchor="start" x="739.54" y="-1522.2" font-family="Arial" font-size="14.00">    </text>
<text text-anchor="start" x="770.65" y="-1522.2" font-family="Arial" font-size="14.00" fill="#666666">[table]</text>
<polygon fill="none" stroke="black" points="659.75,-1478 659.75,-1508.8 828.59,-1508.8 828.59,-1478 659.75,-1478"/>
<text text-anchor="start" x="666.75" y="-1490.2" font-family="Arial" font-size="14.00">id </text>
<text text-anchor="start" x="681.53" y="-1490.2" font-family="Arial" font-size="14.00" fill="#666666">[INTEGER]</text>
<polygon fill="none" stroke="black" points="659.75,-1447.2 659.75,-1478 828.59,-1478 828.59,-1447.2 659.75,-1447.2"/>
<text text-anchor="start" x="666.75" y="-1459.4" font-family="Arial" font-size="14.00">dat_game_id </text>
<text text-anchor="start" x="751.59" y="-1459.4" font-family="Arial" font-size="14.00" fill="#666666">[INTEGER]</text>
<polygon fill="none" stroke="black" points="659.75,-1416.4 659.75,-1447.2 828.59,-1447.2 828.59,-1416.4 659.75,-1416.4"/>
<text text-anchor="start" x="666.75" y="-1428.6" font-family="Arial" font-size="14.00">name </text>
<text text-anchor="start" x="705.66" y="-1428.6" font-family="Arial" font-size="14.00" fill="#666666">[TEXT]</text>
<polygon fill="none" stroke="black" points="659.75,-1385.6 659.75,-1416.4 828.59,-1416.4 828.59,-1385.6 659.75,-1385.6"/>
<text text-anchor="start" x="666.75" y="-1397.8" font-family="Arial" font-size="14.00">size </text>
<text text-anchor="start" x="695.53" y="-1397.8" font-family="Arial" font-size="14.00" fill="#666666">[INTEGER]</text>
<polygon fill="none" stroke="black" points="659.75,-1354.8 659.75,-1385.6 828.59,-1385.6 828.59,-1354.8 659.75,-1354.8"/>
<text text-anchor="start" x="666.75" y="-1367" font-family="Arial" font-size="14.00">crc </text>
<text text-anchor="start" x="689.3" y="-1367" font-family="Arial" font-size="14.00" fill="#666666">[TEXT]</text>
<polygon fill="none" stroke="black" points="659.75,-1324 659.75,-1354.8 828.59,-1354.8 828.59,-1324 659.75,-1324"/>
<text text-anchor="start" x="666.75" y="-1336.2" font-family="Arial" font-size="14.00">md5 </text>
<text text-anchor="start" x="697.87" y="-1336.2" font-family="Arial" font-size="14.00" fill="#666666">[TEXT]</text>
<polygon fill="none" stroke="black" points="659.75,-1293.2 659.75,-1324 828.59,-1324 828.59,-1293.2 659.75,-1293.2"/>
<text text-anchor="start" x="666.75" y="-1305.4" font-family="Arial" font-size="14.00">sha1 </text>
<text text-anchor="start" x="701" y="-1305.4" font-family="Arial" font-size="14.00" fill="#666666">[TEXT]</text>
<polygon fill="none" stroke="black" points="659.75,-1262.4 659.75,-1293.2 828.59,-1293.2 828.59,-1262.4 659.75,-1262.4"/>
<text text-anchor="start" x="666.75" y="-1274.6" font-family="Arial" font-size="14.00">sha256 </text>
<text text-anchor="start" x="716.57" y="-1274.6" font-family="Arial" font-size="14.00" fill="#666666">[TEXT]</text>
<polygon fill="none" stroke="black" points="659.75,-1231.6 659.75,-1262.4 828.59,-1262.4 828.59,-1231.6 659.75,-1231.6"/>
<text text-anchor="start" x="666.75" y="-1243.8" font-family="Arial" font-size="14.00">status </text>
<text text-anchor="start" x="707.99" y="-1243.8" font-family="Arial" font-size="14.00" fill="#666666">[TEXT]</text>
<polygon fill="none" stroke="black" points="659.75,-1200.8 659.75,-1231.6 828.59,-1231.6 828.59,-1200.8 659.75,-1200.8"/>
<text text-anchor="start" x="666.75" y="-1213" font-family="Arial" font-size="14.00">serial </text>
<text text-anchor="start" x="704.09" y="-1213" font-family="Arial" font-size="14.00" fill="#666666">[TEXT]</text>
<polygon fill="none" stroke="black" points="659.75,-1170 659.75,-1200.8 828.59,-1200.8 828.59,-1170 659.75,-1170"/>
<text text-anchor="start" x="666.75" y="-1182.2" font-family="Arial" font-size="14.00">header </text>
<text text-anchor="start" x="714.23" y="-1182.2" font-family="Arial" font-size="14.00" fill="#666666">[TEXT]</text>
</g>
<!-- dat_rom&#45;&gt;dat_game -->
<g id="edge1" class="edge">
<title>dat_rom:dat_game_id&#45;&gt;dat_game:id</title>
<path fill="none" stroke="black" d="M839.89,-1460.99C933.18,-1431.09 922.46,-993.6 821.78,-993.6"/>
<polygon fill="black" stroke="black" points="839.81,-1461.01 829.23,-1458.1 834.53,-1461.83 830.26,-1462.5 830.26,-1462.5 830.26,-1462.5 834.53,-1461.83 830.62,-1466.99 839.81,-1461.01"/>
<text text-anchor="start" x="836.59" y="-1472.6" font-family="Arial" font-size="10.00">FOREIGN KEY (dat_game_id) REFERENCES dat_game (id) ON UPDATE NO ACTION ON DELETE CASCADE MATCH NONE</text>
</g>
<!-- system -->
<g id="node5" class="node">
<title>system</title>
<polygon fill="#efefef" stroke="none" points="525.54,-104.8 525.54,-140.4 658.8,-140.4 658.8,-104.8 525.54,-104.8"/>
<polygon fill="none" stroke="black" points="525.54,-104.8 525.54,-140.4 658.8,-140.4 658.8,-104.8 525.54,-104.8"/>
<text text-anchor="start" x="532.54" y="-118.2" font-family="Arial Bold" font-size="18.00">system</text>
<text text-anchor="start" x="582.54" y="-118.2" font-family="Arial" font-size="14.00">    </text>
<text text-anchor="start" x="613.66" y="-118.2" font-family="Arial" font-size="14.00" fill="#666666">[table]</text>
<polygon fill="none" stroke="black" points="525.54,-74 525.54,-104.8 658.8,-104.8 658.8,-74 525.54,-74"/>
<text text-anchor="start" x="532.54" y="-86.2" font-family="Arial" font-size="14.00">id </text>
<text text-anchor="start" x="547.33" y="-86.2" font-family="Arial" font-size="14.00" fill="#666666">[INTEGER]</text>
<polygon fill="none" stroke="black" points="525.54,-43.2 525.54,-74 658.8,-74 658.8,-43.2 525.54,-43.2"/>
<text text-anchor="start" x="532.54" y="-55.4" font-family="Arial" font-size="14.00">name </text>
<text text-anchor="start" x="571.45" y="-55.4" font-family="Arial" font-size="14.00" fill="#666666">[TEXT]</text>
</g>
<!-- dat_file&#45;&gt;system -->
<g id="edge4" class="edge">
<title>dat_file:system_id&#45;&gt;system:id</title>
<path fill="none" stroke="black" d="M593.15,-251.63C600.24,-217.46 644.11,-222.86 658.8,-183.6 673.48,-144.39 701.67,-89.4 659.8,-89.4"/>
<polygon fill="black" stroke="black" points="593.16,-251.51 587.72,-261.04 592.65,-256.82 592.23,-261.13 592.23,-261.13 592.23,-261.13 592.65,-256.82 596.68,-261.9 593.16,-251.51"/>
<text text-anchor="start" x="599.17" y="-271.8" font-family="Arial" font-size="10.00">FOREIGN KEY (system_id) REFERENCES system (id) ON UPDATE NO ACTION ON DELETE CASCADE MATCH NONE</text>
</g>
<!-- file_set_dat_file_link -->
<g id="node4" class="node">
<title>file_set_dat_file_link</title>
<polygon fill="#efefef" stroke="none" points="322.56,-932 322.56,-967.6 559.78,-967.6 559.78,-932 322.56,-932"/>
<polygon fill="none" stroke="black" points="322.56,-932 322.56,-967.6 559.78,-967.6 559.78,-932 322.56,-932"/>
<text text-anchor="start" x="329.56" y="-945.4" font-family="Arial Bold" font-size="18.00">file_set_dat_file_link</text>
<text text-anchor="start" x="483.52" y="-945.4" font-family="Arial" font-size="14.00">    </text>
<text text-anchor="start" x="514.64" y="-945.4" font-family="Arial" font-size="14.00" fill="#666666">[table]</text>
<polygon fill="none" stroke="black" points="322.56,-901.2 322.56,-932 559.78,-932 559.78,-901.2 322.56,-901.2"/>
<text text-anchor="start" x="329.56" y="-913.4" font-family="Arial" font-size="14.00">file_set_id </text>
<text text-anchor="start" x="396.5" y="-913.4" font-family="Arial" font-size="14.00" fill="#666666">[INTEGER]</text>
<polygon fill="none" stroke="black" points="322.56,-870.4 322.56,-901.2 559.78,-901.2 559.78,-870.4 322.56,-870.4"/>
<text text-anchor="start" x="329.56" y="-882.6" font-family="Arial" font-size="14.00">dat_file_id </text>
<text text-anchor="start" x="397.28" y="-882.6" font-family="Arial" font-size="14.00" fill="#666666">[INTEGER]</text>
</g>
<!-- file_set_dat_file_link&#45;&gt;dat_file -->
<g id="edge3" class="edge">
<title>file_set_dat_file_link:dat_file_id&#45;&gt;dat_file:id</title>
<path fill="none" stroke="black" d="M570.96,-885.03C664.35,-869.26 398.36,-617 515.71,-617"/>
<polygon fill="black" stroke="black" points="571.08,-885.02 560.77,-881.29 565.76,-885.42 561.44,-885.75 561.44,-885.75 561.44,-885.75 565.76,-885.42 561.45,-890.26 571.08,-885.02"/>
<text text-anchor="start" x="7" y="-895.8" font-family="Arial" font-size="10.00">FOREIGN KEY (dat_file_id) REFERENCES dat_file (id) ON UPDATE NO ACTION ON DELETE CASCADE MATCH NONE</text>
</g>
</g>
</svg>
