<?xml version="1.0" encoding="UTF-8" standalone="no"?>
<!DOCTYPE svg PUBLIC "-//W3C//DTD SVG 1.1//EN"
 "http://www.w3.org/Graphics/SVG/1.1/DTD/svg11.dtd">
<!-- Generated by graphviz version 12.1.2 (20240928.0832)
 -->
<!-- Title: document_viewer Pages: 1 -->
<svg width="314pt" height="321pt"
 viewBox="0.00 0.00 314.39 320.80" xmlns="http://www.w3.org/2000/svg" xmlns:xlink="http://www.w3.org/1999/xlink">
<g id="graph0" class="graph" transform="scale(1 1) rotate(0) translate(4 316.8)">
<title>document_viewer</title>
<polygon fill="white" stroke="none" points="-4,4 -4,-316.8 310.39,-316.8 310.39,4 -4,4"/>
<!-- document_viewer -->
<g id="node1" class="node">
<title>document_viewer</title>
<polygon fill="#efefef" stroke="none" points="46.2,-231 46.2,-266.6 260.19,-266.6 260.19,-231 46.2,-231"/>
<polygon fill="none" stroke="black" points="46.2,-231 46.2,-266.6 260.19,-266.6 260.19,-231 46.2,-231"/>
<text text-anchor="start" x="54.09" y="-244.4" font-family="Arial Bold" font-size="18.00">document_viewer</text>
<text text-anchor="start" x="183.05" y="-244.4" font-family="Arial" font-size="14.00">    </text>
<text text-anchor="start" x="214.16" y="-244.4" font-family="Arial" font-size="14.00" fill="#666666">[table]</text>
<polygon fill="none" stroke="black" points="46.2,-200.2 46.2,-231 260.19,-231 260.19,-200.2 46.2,-200.2"/>
<text text-anchor="start" x="53.2" y="-212.4" font-family="Arial" font-size="14.00">id </text>
<text text-anchor="start" x="67.99" y="-212.4" font-family="Arial" font-size="14.00" fill="#666666">[INTEGER]</text>
<polygon fill="none" stroke="black" points="46.2,-169.4 46.2,-200.2 260.19,-200.2 260.19,-169.4 46.2,-169.4"/>
<text text-anchor="start" x="53.2" y="-181.6" font-family="Arial" font-size="14.00">name </text>
<text text-anchor="start" x="92.11" y="-181.6" font-family="Arial" font-size="14.00" fill="#666666">[TEXT]</text>
<polygon fill="none" stroke="black" points="46.2,-138.6 46.2,-169.4 260.19,-169.4 260.19,-138.6 46.2,-138.6"/>
<text text-anchor="start" x="53.2" y="-150.8" font-family="Arial" font-size="14.00">executable </text>
<text text-anchor="start" x="124.81" y="-150.8" font-family="Arial" font-size="14.00" fill="#666666">[TEXT]</text>
<polygon fill="none" stroke="black" points="46.2,-107.8 46.2,-138.6 260.19,-138.6 260.19,-107.8 46.2,-107.8"/>
<text text-anchor="start" x="53.2" y="-120" font-family="Arial" font-size="14.00">document_type </text>
<text text-anchor="start" x="152.82" y="-120" font-family="Arial" font-size="14.00" fill="#666666">[INTEGER]</text>
<polygon fill="none" stroke="black" points="46.2,-77 46.2,-107.8 260.19,-107.8 260.19,-77 46.2,-77"/>
<text text-anchor="start" x="53.2" y="-89.2" font-family="Arial" font-size="14.00">arguments </text>
<text text-anchor="start" x="123.23" y="-89.2" font-family="Arial" font-size="14.00" fill="#666666">[TEXT]</text>
<polygon fill="none" stroke="black" points="46.2,-46.2 46.2,-77 260.19,-77 260.19,-46.2 46.2,-46.2"/>
<text text-anchor="start" x="53.2" y="-58.4" font-family="Arial" font-size="14.00">cleanup_temp_files </text>
<text text-anchor="start" x="177.72" y="-58.4" font-family="Arial" font-size="14.00" fill="#666666">[BOOLEAN]</text>
<polygon fill="none" stroke="black" stroke-width="3" points="44.7,-44.7 44.7,-268.1 261.69,-268.1 261.69,-44.7 44.7,-44.7"/>
</g>
</g>
</svg>
