<?xml version="1.0" encoding="UTF-8" standalone="no"?>
<!DOCTYPE svg PUBLIC "-//W3C//DTD SVG 1.1//EN"
 "http://www.w3.org/Graphics/SVG/1.1/DTD/svg11.dtd">
<!-- Generated by graphviz version 12.1.2 (20240928.0832)
 -->
<!-- Title: emulator Pages: 1 -->
<svg width="1794pt" height="719pt"
 viewBox="0.00 0.00 1793.54 719.20" xmlns="http://www.w3.org/2000/svg" xmlns:xlink="http://www.w3.org/1999/xlink">
<g id="graph0" class="graph" transform="scale(1 1) rotate(0) translate(4 715.2)">
<title>emulator</title>
<polygon fill="white" stroke="none" points="-4,4 -4,-715.2 1789.54,-715.2 1789.54,4 -4,4"/>
<!-- emulator -->
<g id="node1" class="node">
<title>emulator</title>
<polygon fill="#efefef" stroke="none" points="96.22,-540 96.22,-575.6 258.81,-575.6 258.81,-540 96.22,-540"/>
<polygon fill="none" stroke="black" points="96.22,-540 96.22,-575.6 258.81,-575.6 258.81,-540 96.22,-540"/>
<text text-anchor="start" x="110.9" y="-553.4" font-family="Arial Bold" font-size="18.00">emulator</text>
<text text-anchor="start" x="174.88" y="-553.4" font-family="Arial" font-size="14.00">    </text>
<text text-anchor="start" x="206" y="-553.4" font-family="Arial" font-size="14.00" fill="#666666">[table]</text>
<polygon fill="none" stroke="black" points="96.22,-509.2 96.22,-540 258.81,-540 258.81,-509.2 96.22,-509.2"/>
<text text-anchor="start" x="103.22" y="-521.4" font-family="Arial" font-size="14.00">id </text>
<text text-anchor="start" x="118.01" y="-521.4" font-family="Arial" font-size="14.00" fill="#666666">[INTEGER]</text>
<polygon fill="none" stroke="black" points="96.22,-478.4 96.22,-509.2 258.81,-509.2 258.81,-478.4 96.22,-478.4"/>
<text text-anchor="start" x="103.22" y="-490.6" font-family="Arial" font-size="14.00">name </text>
<text text-anchor="start" x="142.13" y="-490.6" font-family="Arial" font-size="14.00" fill="#666666">[TEXT]</text>
<polygon fill="none" stroke="black" points="96.22,-447.6 96.22,-478.4 258.81,-478.4 258.81,-447.6 96.22,-447.6"/>
<text text-anchor="start" x="103.22" y="-459.8" font-family="Arial" font-size="14.00">executable </text>
<text text-anchor="start" x="174.83" y="-459.8" font-family="Arial" font-size="14.00" fill="#666666">[TEXT]</text>
<polygon fill="none" stroke="black" points="96.22,-416.8 96.22,-447.6 258.81,-447.6 258.81,-416.8 96.22,-416.8"/>
<text text-anchor="start" x="103.22" y="-429" font-family="Arial" font-size="14.00">extract_files </text>
<text text-anchor="start" x="181.81" y="-429" font-family="Arial" font-size="14.00" fill="#666666">[INTEGER]</text>
<polygon fill="none" stroke="black" points="96.22,-386 96.22,-416.8 258.81,-416.8 258.81,-386 96.22,-386"/>
<text text-anchor="start" x="103.22" y="-398.2" font-family="Arial" font-size="14.00">arguments </text>
<text text-anchor="start" x="173.26" y="-398.2" font-family="Arial" font-size="14.00" fill="#666666">[TEXT]</text>
<polygon fill="none" stroke="black" points="96.22,-355.2 96.22,-386 258.81,-386 258.81,-355.2 96.22,-355.2"/>
<text text-anchor="start" x="103.22" y="-367.4" font-family="Arial" font-size="14.00">system_id </text>
<text text-anchor="start" x="170.13" y="-367.4" font-family="Arial" font-size="14.00" fill="#666666">[INTEGER]</text>
<polygon fill="none" stroke="black" stroke-width="3" points="94.72,-353.7 94.72,-577.1 260.31,-577.1 260.31,-353.7 94.72,-353.7"/>
</g>
<!-- system -->
<g id="node2" class="node">
<title>system</title>
<polygon fill="#efefef" stroke="none" points="698.89,-104.8 698.89,-140.4 832.15,-140.4 832.15,-104.8 698.89,-104.8"/>
<polygon fill="none" stroke="black" points="698.89,-104.8 698.89,-140.4 832.15,-140.4 832.15,-104.8 698.89,-104.8"/>
<text text-anchor="start" x="705.89" y="-118.2" font-family="Arial Bold" font-size="18.00">system</text>
<text text-anchor="start" x="755.89" y="-118.2" font-family="Arial" font-size="14.00">    </text>
<text text-anchor="start" x="787.01" y="-118.2" font-family="Arial" font-size="14.00" fill="#666666">[table]</text>
<polygon fill="none" stroke="black" points="698.89,-74 698.89,-104.8 832.15,-104.8 832.15,-74 698.89,-74"/>
<text text-anchor="start" x="705.89" y="-86.2" font-family="Arial" font-size="14.00">id </text>
<text text-anchor="start" x="720.68" y="-86.2" font-family="Arial" font-size="14.00" fill="#666666">[INTEGER]</text>
<polygon fill="none" stroke="black" points="698.89,-43.2 698.89,-74 832.15,-74 832.15,-43.2 698.89,-43.2"/>
<text text-anchor="start" x="705.89" y="-55.4" font-family="Arial" font-size="14.00">name </text>
<text text-anchor="start" x="744.8" y="-55.4" font-family="Arial" font-size="14.00" fill="#666666">[TEXT]</text>
</g>
<!-- emulator&#45;&gt;system -->
<g id="edge1" class="edge">
<title>emulator:system_id&#45;&gt;system:id</title>
<path fill="none" stroke="black" d="M269.99,-369.78C324.39,-360.09 266.23,-266.93 314.52,-219.6 443.04,-93.65 517.94,-89.4 697.89,-89.4"/>
<polygon fill="black" stroke="black" points="270.12,-369.77 259.79,-366.09 264.8,-370.2 260.48,-370.55 260.48,-370.55 260.48,-370.55 264.8,-370.2 260.51,-375.06 270.12,-369.77"/>
<text text-anchor="start" x="266.81" y="-354.6" font-family="Arial" font-size="10.00">FOREIGN KEY (system_id) REFERENCES system (id) ON UPDATE NO ACTION ON DELETE CASCADE MATCH NONE</text>
</g>
<!-- release_system -->
<g id="node3" class="node">
<title>release_system</title>
<polygon fill="#efefef" stroke="none" points="366.41,-478.4 366.41,-514 558.62,-514 558.62,-478.4 366.41,-478.4"/>
<polygon fill="none" stroke="black" points="366.41,-478.4 366.41,-514 558.62,-514 558.62,-478.4 366.41,-478.4"/>
<text text-anchor="start" x="373.41" y="-491.8" font-family="Arial Bold" font-size="18.00">release_system</text>
<text text-anchor="start" x="482.37" y="-491.8" font-family="Arial" font-size="14.00">    </text>
<text text-anchor="start" x="513.49" y="-491.8" font-family="Arial" font-size="14.00" fill="#666666">[table]</text>
<polygon fill="none" stroke="black" points="366.41,-447.6 366.41,-478.4 558.62,-478.4 558.62,-447.6 366.41,-447.6"/>
<text text-anchor="start" x="373.41" y="-459.8" font-family="Arial" font-size="14.00">release_id </text>
<text text-anchor="start" x="441.9" y="-459.8" font-family="Arial" font-size="14.00" fill="#666666">[INTEGER]</text>
<polygon fill="none" stroke="black" points="366.41,-416.8 366.41,-447.6 558.62,-447.6 558.62,-416.8 366.41,-416.8"/>
<text text-anchor="start" x="373.41" y="-429" font-family="Arial" font-size="14.00">system_id </text>
<text text-anchor="start" x="440.32" y="-429" font-family="Arial" font-size="14.00" fill="#666666">[INTEGER]</text>
</g>
<!-- release_system&#45;&gt;system -->
<g id="edge2" class="edge">
<title>release_system:system_id&#45;&gt;system:id</title>
<path fill="none" stroke="black" d="M569.72,-431.7C650.8,-423.08 573.97,-305.4 611.52,-219.6 639.36,-155.98 628.45,-89.4 697.89,-89.4"/>
<polygon fill="black" stroke="black" points="569.95,-431.69 559.74,-427.69 564.62,-431.95 560.29,-432.17 560.29,-432.17 560.29,-432.17 564.62,-431.95 560.18,-436.68 569.95,-431.69"/>
<text text-anchor="start" x="7" y="-442.2" font-family="Arial" font-size="10.00">FOREIGN KEY (system_id) REFERENCES system (id) ON UPDATE NO ACTION ON DELETE CASCADE MATCH NONE</text>
</g>
<!-- file_info_system -->
<g id="node4" class="node">
<title>file_info_system</title>
<polygon fill="#efefef" stroke="none" points="663.4,-478.4 663.4,-514 867.64,-514 867.64,-478.4 663.4,-478.4"/>
<polygon fill="none" stroke="black" points="663.4,-478.4 663.4,-514 867.64,-514 867.64,-478.4 663.4,-478.4"/>
<text text-anchor="start" x="670.4" y="-491.8" font-family="Arial Bold" font-size="18.00">file_info_system</text>
<text text-anchor="start" x="791.38" y="-491.8" font-family="Arial" font-size="14.00">    </text>
<text text-anchor="start" x="822.5" y="-491.8" font-family="Arial" font-size="14.00" fill="#666666">[table]</text>
<polygon fill="none" stroke="black" points="663.4,-447.6 663.4,-478.4 867.64,-478.4 867.64,-447.6 663.4,-447.6"/>
<text text-anchor="start" x="670.4" y="-459.8" font-family="Arial" font-size="14.00">file_info_id </text>
<text text-anchor="start" x="741.23" y="-459.8" font-family="Arial" font-size="14.00" fill="#666666">[INTEGER]</text>
<polygon fill="none" stroke="black" points="663.4,-416.8 663.4,-447.6 867.64,-447.6 867.64,-416.8 663.4,-416.8"/>
<text text-anchor="start" x="670.4" y="-429" font-family="Arial" font-size="14.00">system_id </text>
<text text-anchor="start" x="737.31" y="-429" font-family="Arial" font-size="14.00" fill="#666666">[INTEGER]</text>
</g>
<!-- file_info_system&#45;&gt;system -->
<g id="edge3" class="edge">
<title>file_info_system:system_id&#45;&gt;system:id</title>
<path fill="none" stroke="black" d="M765.84,-405.77C775.03,-259.73 977.97,-89.4 833.15,-89.4"/>
<polygon fill="black" stroke="black" points="765.85,-405.47 761.03,-415.32 765.68,-410.8 765.54,-415.13 765.54,-415.13 765.54,-415.13 765.68,-410.8 770.03,-415.61 765.85,-405.47"/>
<text text-anchor="start" x="772.52" y="-425.8" font-family="Arial" font-size="10.00">FOREIGN KEY (system_id) REFERENCES system (id) ON UPDATE NO ACTION ON DELETE NO ACTION MATCH NONE</text>
</g>
<!-- dat_file -->
<g id="node5" class="node">
<title>dat_file</title>
<polygon fill="#efefef" stroke="none" points="972.06,-632.4 972.06,-668 1122.98,-668 1122.98,-632.4 972.06,-632.4"/>
<polygon fill="none" stroke="black" points="972.06,-632.4 972.06,-668 1122.98,-668 1122.98,-632.4 972.06,-632.4"/>
<text text-anchor="start" x="985.4" y="-645.8" font-family="Arial Bold" font-size="18.00">dat_file</text>
<text text-anchor="start" x="1040.38" y="-645.8" font-family="Arial" font-size="14.00">    </text>
<text text-anchor="start" x="1071.5" y="-645.8" font-family="Arial" font-size="14.00" fill="#666666">[table]</text>
<polygon fill="none" stroke="black" points="972.06,-601.6 972.06,-632.4 1122.98,-632.4 1122.98,-601.6 972.06,-601.6"/>
<text text-anchor="start" x="979.06" y="-613.8" font-family="Arial" font-size="14.00">id </text>
<text text-anchor="start" x="993.85" y="-613.8" font-family="Arial" font-size="14.00" fill="#666666">[INTEGER]</text>
<polygon fill="none" stroke="black" points="972.06,-570.8 972.06,-601.6 1122.98,-601.6 1122.98,-570.8 972.06,-570.8"/>
<text text-anchor="start" x="979.06" y="-583" font-family="Arial" font-size="14.00">dat_id </text>
<text text-anchor="start" x="1021.09" y="-583" font-family="Arial" font-size="14.00" fill="#666666">[INTEGER]</text>
<polygon fill="none" stroke="black" points="972.06,-540 972.06,-570.8 1122.98,-570.8 1122.98,-540 972.06,-540"/>
<text text-anchor="start" x="979.06" y="-552.2" font-family="Arial" font-size="14.00">name </text>
<text text-anchor="start" x="1017.97" y="-552.2" font-family="Arial" font-size="14.00" fill="#666666">[TEXT]</text>
<polygon fill="none" stroke="black" points="972.06,-509.2 972.06,-540 1122.98,-540 1122.98,-509.2 972.06,-509.2"/>
<text text-anchor="start" x="979.06" y="-521.4" font-family="Arial" font-size="14.00">description </text>
<text text-anchor="start" x="1050.65" y="-521.4" font-family="Arial" font-size="14.00" fill="#666666">[TEXT]</text>
<polygon fill="none" stroke="black" points="972.06,-478.4 972.06,-509.2 1122.98,-509.2 1122.98,-478.4 972.06,-478.4"/>
<text text-anchor="start" x="979.06" y="-490.6" font-family="Arial" font-size="14.00">version </text>
<text text-anchor="start" x="1028.08" y="-490.6" font-family="Arial" font-size="14.00" fill="#666666">[TEXT]</text>
<polygon fill="none" stroke="black" points="972.06,-447.6 972.06,-478.4 1122.98,-478.4 1122.98,-447.6 972.06,-447.6"/>
<text text-anchor="start" x="979.06" y="-459.8" font-family="Arial" font-size="14.00">date </text>
<text text-anchor="start" x="1010.2" y="-459.8" font-family="Arial" font-size="14.00" fill="#666666">[TEXT]</text>
<polygon fill="none" stroke="black" points="972.06,-416.8 972.06,-447.6 1122.98,-447.6 1122.98,-416.8 972.06,-416.8"/>
<text text-anchor="start" x="979.06" y="-429" font-family="Arial" font-size="14.00">author </text>
<text text-anchor="start" x="1022.65" y="-429" font-family="Arial" font-size="14.00" fill="#666666">[TEXT]</text>
<polygon fill="none" stroke="black" points="972.06,-386 972.06,-416.8 1122.98,-416.8 1122.98,-386 972.06,-386"/>
<text text-anchor="start" x="979.06" y="-398.2" font-family="Arial" font-size="14.00">homepage </text>
<text text-anchor="start" x="1049.11" y="-398.2" font-family="Arial" font-size="14.00" fill="#666666">[TEXT]</text>
<polygon fill="none" stroke="black" points="972.06,-355.2 972.06,-386 1122.98,-386 1122.98,-355.2 972.06,-355.2"/>
<text text-anchor="start" x="979.06" y="-367.4" font-family="Arial" font-size="14.00">url </text>
<text text-anchor="start" x="998.51" y="-367.4" font-family="Arial" font-size="14.00" fill="#666666">[TEXT]</text>
<polygon fill="none" stroke="black" points="972.06,-324.4 972.06,-355.2 1122.98,-355.2 1122.98,-324.4 972.06,-324.4"/>
<text text-anchor="start" x="979.06" y="-336.6" font-family="Arial" font-size="14.00">subset </text>
<text text-anchor="start" x="1024.2" y="-336.6" font-family="Arial" font-size="14.00" fill="#666666">[TEXT]</text>
<polygon fill="none" stroke="black" points="972.06,-293.6 972.06,-324.4 1122.98,-324.4 1122.98,-293.6 972.06,-293.6"/>
<text text-anchor="start" x="979.06" y="-305.8" font-family="Arial" font-size="14.00">imported_at </text>
<text text-anchor="start" x="1056.88" y="-305.8" font-family="Arial" font-size="14.00" fill="#666666">[TEXT]</text>
<polygon fill="none" stroke="black" points="972.06,-262.8 972.06,-293.6 1122.98,-293.6 1122.98,-262.8 972.06,-262.8"/>
<text text-anchor="start" x="979.06" y="-275" font-family="Arial" font-size="14.00">system_id </text>
<text text-anchor="start" x="1045.97" y="-275" font-family="Arial" font-size="14.00" fill="#666666">[INTEGER]</text>
</g>
<!-- dat_file&#45;&gt;system -->
<g id="edge4" class="edge">
<title>dat_file:system_id&#45;&gt;system:id</title>
<path fill="none" stroke="black" d="M962.27,-273.53C929.49,-244.46 856.69,-89.4 833.15,-89.4"/>
<polygon fill="black" stroke="black" points="961.93,-273.35 968.65,-282.02 966.64,-275.86 970.47,-277.89 970.47,-277.89 970.47,-277.89 966.64,-275.86 972.88,-274.07 961.93,-273.35"/>
<text text-anchor="start" x="418.44" y="-288.2" font-family="Arial" font-size="10.00">FOREIGN KEY (system_id) REFERENCES system (id) ON UPDATE NO ACTION ON DELETE CASCADE MATCH NONE</text>
</g>
<!-- system_libretro_core -->
<g id="node6" class="node">
<title>system_libretro_core</title>
<polygon fill="#efefef" stroke="none" points="1226.91,-493.8 1226.91,-529.4 1462.12,-529.4 1462.12,-493.8 1226.91,-493.8"/>
<polygon fill="none" stroke="black" points="1226.91,-493.8 1226.91,-529.4 1462.12,-529.4 1462.12,-493.8 1226.91,-493.8"/>
<text text-anchor="start" x="1233.91" y="-507.2" font-family="Arial Bold" font-size="18.00">system_libretro_core</text>
<text text-anchor="start" x="1385.87" y="-507.2" font-family="Arial" font-size="14.00">    </text>
<text text-anchor="start" x="1416.99" y="-507.2" font-family="Arial" font-size="14.00" fill="#666666">[table]</text>
<polygon fill="none" stroke="black" points="1226.91,-463 1226.91,-493.8 1462.12,-493.8 1462.12,-463 1226.91,-463"/>
<text text-anchor="start" x="1233.91" y="-475.2" font-family="Arial" font-size="14.00">id </text>
<text text-anchor="start" x="1248.7" y="-475.2" font-family="Arial" font-size="14.00" fill="#666666">[INTEGER]</text>
<polygon fill="none" stroke="black" points="1226.91,-432.2 1226.91,-463 1462.12,-463 1462.12,-432.2 1226.91,-432.2"/>
<text text-anchor="start" x="1233.91" y="-444.4" font-family="Arial" font-size="14.00">system_id </text>
<text text-anchor="start" x="1300.82" y="-444.4" font-family="Arial" font-size="14.00" fill="#666666">[INTEGER]</text>
<polygon fill="none" stroke="black" points="1226.91,-401.4 1226.91,-432.2 1462.12,-432.2 1462.12,-401.4 1226.91,-401.4"/>
<text text-anchor="start" x="1233.91" y="-413.6" font-family="Arial" font-size="14.00">core_name </text>
<text text-anchor="start" x="1307.84" y="-413.6" font-family="Arial" font-size="14.00" fill="#666666">[TEXT]</text>
</g>
<!-- system_libretro_core&#45;&gt;system -->
<g id="edge5" class="edge">
<title>system_libretro_core:system_id&#45;&gt;system:id</title>
<path fill="none" stroke="black" d="M1215.53,-447.02C1130.65,-436.89 1240.91,-295.3 1175.52,-219.6 1069.1,-96.4 995.94,-89.4 833.15,-89.4"/>
<polygon fill="black" stroke="black" points="1215.6,-447.03 1225.33,-452.07 1220.92,-447.32 1225.25,-447.56 1225.25,-447.56 1225.25,-447.56 1220.92,-447.32 1225.83,-443.09 1215.6,-447.03"/>
<text text-anchor="start" x="1232.91" y="-457.6" font-family="Arial" font-size="10.00">FOREIGN KEY (system_id) REFERENCES system (id) ON UPDATE NO ACTION ON DELETE CASCADE MATCH NONE</text>
</g>
</g>
</svg>
