<?xml version="1.0" encoding="UTF-8" standalone="no"?>
<!DOCTYPE svg PUBLIC "-//W3C//DTD SVG 1.1//EN"
 "http://www.w3.org/Graphics/SVG/1.1/DTD/svg11.dtd">
<!-- Generated by graphviz version 12.1.2 (20240928.0832)
 -->
<!-- Title: emulator Pages: 1 -->
<svg width="1187pt" height="540pt"
 viewBox="0.00 0.00 1187.22 540.40" xmlns="http://www.w3.org/2000/svg" xmlns:xlink="http://www.w3.org/1999/xlink">
<g id="graph0" class="graph" transform="scale(1 1) rotate(0) translate(4 536.4)">
<title>emulator</title>
<polygon fill="white" stroke="none" points="-4,4 -4,-536.4 1183.22,-536.4 1183.22,4 -4,4"/>
<!-- emulator -->
<g id="node1" class="node">
<title>emulator</title>
<polygon fill="#efefef" stroke="none" points="46.2,-450.6 46.2,-486.2 208.79,-486.2 208.79,-450.6 46.2,-450.6"/>
<polygon fill="none" stroke="black" points="46.2,-450.6 46.2,-486.2 208.79,-486.2 208.79,-450.6 46.2,-450.6"/>
<text text-anchor="start" x="60.88" y="-464" font-family="Arial Bold" font-size="18.00">emulator</text>
<text text-anchor="start" x="124.86" y="-464" font-family="Arial" font-size="14.00">    </text>
<text text-anchor="start" x="155.97" y="-464" font-family="Arial" font-size="14.00" fill="#666666">[table]</text>
<polygon fill="none" stroke="black" points="46.2,-419.8 46.2,-450.6 208.79,-450.6 208.79,-419.8 46.2,-419.8"/>
<text text-anchor="start" x="53.2" y="-432" font-family="Arial" font-size="14.00">id </text>
<text text-anchor="start" x="67.99" y="-432" font-family="Arial" font-size="14.00" fill="#666666">[INTEGER]</text>
<polygon fill="none" stroke="black" points="46.2,-389 46.2,-419.8 208.79,-419.8 208.79,-389 46.2,-389"/>
<text text-anchor="start" x="53.2" y="-401.2" font-family="Arial" font-size="14.00">name </text>
<text text-anchor="start" x="92.11" y="-401.2" font-family="Arial" font-size="14.00" fill="#666666">[TEXT]</text>
<polygon fill="none" stroke="black" points="46.2,-358.2 46.2,-389 208.79,-389 208.79,-358.2 46.2,-358.2"/>
<text text-anchor="start" x="53.2" y="-370.4" font-family="Arial" font-size="14.00">executable </text>
<text text-anchor="start" x="124.81" y="-370.4" font-family="Arial" font-size="14.00" fill="#666666">[TEXT]</text>
<polygon fill="none" stroke="black" points="46.2,-327.4 46.2,-358.2 208.79,-358.2 208.79,-327.4 46.2,-327.4"/>
<text text-anchor="start" x="53.2" y="-339.6" font-family="Arial" font-size="14.00">extract_files </text>
<text text-anchor="start" x="131.79" y="-339.6" font-family="Arial" font-size="14.00" fill="#666666">[INTEGER]</text>
<polygon fill="none" stroke="black" points="46.2,-296.6 46.2,-327.4 208.79,-327.4 208.79,-296.6 46.2,-296.6"/>
<text text-anchor="start" x="53.2" y="-308.8" font-family="Arial" font-size="14.00">arguments </text>
<text text-anchor="start" x="123.23" y="-308.8" font-family="Arial" font-size="14.00" fill="#666666">[TEXT]</text>
<polygon fill="none" stroke="black" points="46.2,-265.8 46.2,-296.6 208.79,-296.6 208.79,-265.8 46.2,-265.8"/>
<text text-anchor="start" x="53.2" y="-278" font-family="Arial" font-size="14.00">system_id </text>
<text text-anchor="start" x="120.11" y="-278" font-family="Arial" font-size="14.00" fill="#666666">[INTEGER]</text>
<polygon fill="none" stroke="black" stroke-width="3" points="44.7,-264.3 44.7,-487.7 210.29,-487.7 210.29,-264.3 44.7,-264.3"/>
</g>
<!-- system -->
<g id="node2" class="node">
<title>system</title>
<polygon fill="#efefef" stroke="none" points="345.87,-104.8 345.87,-140.4 479.12,-140.4 479.12,-104.8 345.87,-104.8"/>
<polygon fill="none" stroke="black" points="345.87,-104.8 345.87,-140.4 479.12,-140.4 479.12,-104.8 345.87,-104.8"/>
<text text-anchor="start" x="352.87" y="-118.2" font-family="Arial Bold" font-size="18.00">system</text>
<text text-anchor="start" x="402.87" y="-118.2" font-family="Arial" font-size="14.00">    </text>
<text text-anchor="start" x="433.99" y="-118.2" font-family="Arial" font-size="14.00" fill="#666666">[table]</text>
<polygon fill="none" stroke="black" points="345.87,-74 345.87,-104.8 479.12,-104.8 479.12,-74 345.87,-74"/>
<text text-anchor="start" x="352.87" y="-86.2" font-family="Arial" font-size="14.00">id </text>
<text text-anchor="start" x="367.65" y="-86.2" font-family="Arial" font-size="14.00" fill="#666666">[INTEGER]</text>
<polygon fill="none" stroke="black" points="345.87,-43.2 345.87,-74 479.12,-74 479.12,-43.2 345.87,-43.2"/>
<text text-anchor="start" x="352.87" y="-55.4" font-family="Arial" font-size="14.00">name </text>
<text text-anchor="start" x="391.78" y="-55.4" font-family="Arial" font-size="14.00" fill="#666666">[TEXT]</text>
</g>
<!-- emulator&#45;&gt;system -->
<g id="edge1" class="edge">
<title>emulator:system_id&#45;&gt;system:id</title>
<path fill="none" stroke="black" d="M219.91,-278.77C266.11,-256.57 296.2,-89.4 344.87,-89.4"/>
<polygon fill="black" stroke="black" points="219.84,-278.79 209.07,-276.75 214.66,-280.03 210.44,-281.04 210.44,-281.04 210.44,-281.04 214.66,-280.03 211.17,-285.5 219.84,-278.79"/>
<text text-anchor="start" x="216.79" y="-265.2" font-family="Arial" font-size="10.00">FOREIGN KEY (system_id) REFERENCES system (id) ON UPDATE NO ACTION ON DELETE CASCADE MATCH NONE</text>
</g>
<!-- release_system -->
<g id="node3" class="node">
<title>release_system</title>
<polygon fill="#efefef" stroke="none" points="316.39,-389 316.39,-424.6 508.6,-424.6 508.6,-389 316.39,-389"/>
<polygon fill="none" stroke="black" points="316.39,-389 316.39,-424.6 508.6,-424.6 508.6,-389 316.39,-389"/>
<text text-anchor="start" x="323.39" y="-402.4" font-family="Arial Bold" font-size="18.00">release_system</text>
<text text-anchor="start" x="432.35" y="-402.4" font-family="Arial" font-size="14.00">    </text>
<text text-anchor="start" x="463.47" y="-402.4" font-family="Arial" font-size="14.00" fill="#666666">[table]</text>
<polygon fill="none" stroke="black" points="316.39,-358.2 316.39,-389 508.6,-389 508.6,-358.2 316.39,-358.2"/>
<text text-anchor="start" x="323.39" y="-370.4" font-family="Arial" font-size="14.00">release_id </text>
<text text-anchor="start" x="391.88" y="-370.4" font-family="Arial" font-size="14.00" fill="#666666">[INTEGER]</text>
<polygon fill="none" stroke="black" points="316.39,-327.4 316.39,-358.2 508.6,-358.2 508.6,-327.4 316.39,-327.4"/>
<text text-anchor="start" x="323.39" y="-339.6" font-family="Arial" font-size="14.00">system_id </text>
<text text-anchor="start" x="390.3" y="-339.6" font-family="Arial" font-size="14.00" fill="#666666">[INTEGER]</text>
</g>
<!-- release_system&#45;&gt;system -->
<g id="edge2" class="edge">
<title>release_system:system_id&#45;&gt;system:id</title>
<path fill="none" stroke="black" d="M412.88,-316.22C417.59,-255.75 464.38,-248.42 479.12,-183.6 488.41,-142.77 521.99,-89.4 480.12,-89.4"/>
<polygon fill="black" stroke="black" points="412.89,-316.07 408.01,-325.9 412.68,-321.4 412.52,-325.73 412.52,-325.73 412.52,-325.73 412.68,-321.4 417.01,-326.24 412.89,-316.07"/>
<text text-anchor="start" x="419.5" y="-336.4" font-family="Arial" font-size="10.00">FOREIGN KEY (system_id) REFERENCES system (id) ON UPDATE NO ACTION ON DELETE CASCADE MATCH NONE</text>
</g>
<!-- file_info_system -->
<g id="node4" class="node">
<title>file_info_system</title>
<polygon fill="#efefef" stroke="none" points="613.38,-389 613.38,-424.6 817.61,-424.6 817.61,-389 613.38,-389"/>
<polygon fill="none" stroke="black" points="613.38,-389 613.38,-424.6 817.61,-424.6 817.61,-389 613.38,-389"/>
<text text-anchor="start" x="620.38" y="-402.4" font-family="Arial Bold" font-size="18.00">file_info_system</text>
<text text-anchor="start" x="741.36" y="-402.4" font-family="Arial" font-size="14.00">    </text>
<text text-anchor="start" x="772.48" y="-402.4" font-family="Arial" font-size="14.00" fill="#666666">[table]</text>
<polygon fill="none" stroke="black" points="613.38,-358.2 613.38,-389 817.61,-389 817.61,-358.2 613.38,-358.2"/>
<text text-anchor="start" x="620.38" y="-370.4" font-family="Arial" font-size="14.00">file_info_id </text>
<text text-anchor="start" x="691.21" y="-370.4" font-family="Arial" font-size="14.00" fill="#666666">[INTEGER]</text>
<polygon fill="none" stroke="black" points="613.38,-327.4 613.38,-358.2 817.61,-358.2 817.61,-327.4 613.38,-327.4"/>
<text text-anchor="start" x="620.38" y="-339.6" font-family="Arial" font-size="14.00">system_id </text>
<text text-anchor="start" x="687.29" y="-339.6" font-family="Arial" font-size="14.00" fill="#666666">[INTEGER]</text>
</g>
<!-- file_info_system&#45;&gt;system -->
<g id="edge3" class="edge">
<title>file_info_system:system_id&#45;&gt;system:id</title>
<path fill="none" stroke="black" d="M602.02,-341.95C557.19,-333.8 585.96,-269.01 560.5,-219.6 529.35,-159.15 548.13,-89.4 480.12,-89.4"/>
<polygon fill="black" stroke="black" points="602.08,-341.95 611.68,-347.26 607.4,-342.39 611.71,-342.75 611.71,-342.75 611.71,-342.75 607.4,-342.39 612.41,-338.29 602.08,-341.95"/>
<text text-anchor="start" x="619.38" y="-352.8" font-family="Arial" font-size="10.00">FOREIGN KEY (system_id) REFERENCES system (id) ON UPDATE NO ACTION ON DELETE NO ACTION MATCH NONE</text>
</g>
</g>
</svg>
