<?xml version="1.0" encoding="UTF-8" standalone="no"?>
<!DOCTYPE svg PUBLIC "-//W3C//DTD SVG 1.1//EN"
 "http://www.w3.org/Graphics/SVG/1.1/DTD/svg11.dtd">
<!-- Generated by graphviz version 12.1.2 (20240928.0832)
 -->
<!-- Title: file_info_system Pages: 1 -->
<svg width="2369pt" height="812pt"
 viewBox="0.00 0.00 2368.63 811.60" xmlns="http://www.w3.org/2000/svg" xmlns:xlink="http://www.w3.org/1999/xlink">
<g id="graph0" class="graph" transform="scale(1 1) rotate(0) translate(4 807.6)">
<title>file_info_system</title>
<polygon fill="white" stroke="none" points="-4,4 -4,-807.6 2364.63,-807.6 2364.63,4 -4,4"/>
<!-- file_info_system -->
<g id="node1" class="node">
<title>file_info_system</title>
<polygon fill="#efefef" stroke="none" points="671.49,-570.8 671.49,-606.4 875.73,-606.4 875.73,-570.8 671.49,-570.8"/>
<polygon fill="none" stroke="black" points="671.49,-570.8 671.49,-606.4 875.73,-606.4 875.73,-570.8 671.49,-570.8"/>
<text text-anchor="start" x="678.49" y="-584.2" font-family="Arial Bold" font-size="18.00">file_info_system</text>
<text text-anchor="start" x="799.48" y="-584.2" font-family="Arial" font-size="14.00">    </text>
<text text-anchor="start" x="830.59" y="-584.2" font-family="Arial" font-size="14.00" fill="#666666">[table]</text>
<polygon fill="none" stroke="black" points="671.49,-540 671.49,-570.8 875.73,-570.8 875.73,-540 671.49,-540"/>
<text text-anchor="start" x="678.49" y="-552.2" font-family="Arial" font-size="14.00">file_info_id </text>
<text text-anchor="start" x="749.32" y="-552.2" font-family="Arial" font-size="14.00" fill="#666666">[INTEGER]</text>
<polygon fill="none" stroke="black" points="671.49,-509.2 671.49,-540 875.73,-540 875.73,-509.2 671.49,-509.2"/>
<text text-anchor="start" x="678.49" y="-521.4" font-family="Arial" font-size="14.00">system_id </text>
<text text-anchor="start" x="745.4" y="-521.4" font-family="Arial" font-size="14.00" fill="#666666">[INTEGER]</text>
<polygon fill="none" stroke="black" stroke-width="3" points="669.99,-507.7 669.99,-607.9 877.23,-607.9 877.23,-507.7 669.99,-507.7"/>
</g>
<!-- file_info -->
<g id="node2" class="node">
<title>file_info</title>
<polygon fill="#efefef" stroke="none" points="530.08,-197.2 530.08,-232.8 705.15,-232.8 705.15,-197.2 530.08,-197.2"/>
<polygon fill="none" stroke="black" points="530.08,-197.2 530.08,-232.8 705.15,-232.8 705.15,-197.2 530.08,-197.2"/>
<text text-anchor="start" x="552" y="-210.6" font-family="Arial Bold" font-size="18.00">file_info</text>
<text text-anchor="start" x="613.98" y="-210.6" font-family="Arial" font-size="14.00">    </text>
<text text-anchor="start" x="645.09" y="-210.6" font-family="Arial" font-size="14.00" fill="#666666">[table]</text>
<polygon fill="none" stroke="black" points="530.08,-166.4 530.08,-197.2 705.15,-197.2 705.15,-166.4 530.08,-166.4"/>
<text text-anchor="start" x="537.08" y="-178.6" font-family="Arial" font-size="14.00">id </text>
<text text-anchor="start" x="551.86" y="-178.6" font-family="Arial" font-size="14.00" fill="#666666">[INTEGER]</text>
<polygon fill="none" stroke="black" points="530.08,-135.6 530.08,-166.4 705.15,-166.4 705.15,-135.6 530.08,-135.6"/>
<text text-anchor="start" x="537.08" y="-147.8" font-family="Arial" font-size="14.00">sha1_checksum </text>
<text text-anchor="start" x="642.13" y="-147.8" font-family="Arial" font-size="14.00" fill="#666666">[BLOB]</text>
<polygon fill="none" stroke="black" points="530.08,-104.8 530.08,-135.6 705.15,-135.6 705.15,-104.8 530.08,-104.8"/>
<text text-anchor="start" x="537.08" y="-117" font-family="Arial" font-size="14.00">file_size </text>
<text text-anchor="start" x="591.55" y="-117" font-family="Arial" font-size="14.00" fill="#666666">[INTEGER]</text>
<polygon fill="none" stroke="black" points="530.08,-74 530.08,-104.8 705.15,-104.8 705.15,-74 530.08,-74"/>
<text text-anchor="start" x="537.08" y="-86.2" font-family="Arial" font-size="14.00">archive_file_name </text>
<text text-anchor="start" x="654.59" y="-86.2" font-family="Arial" font-size="14.00" fill="#666666">[TEXT]</text>
<polygon fill="none" stroke="black" points="530.08,-43.2 530.08,-74 705.15,-74 705.15,-43.2 530.08,-43.2"/>
<text text-anchor="start" x="537.08" y="-55.4" font-family="Arial" font-size="14.00">file_type </text>
<text text-anchor="start" x="593.11" y="-55.4" font-family="Arial" font-size="14.00" fill="#666666">[INTEGER]</text>
</g>
<!-- file_info_system&#45;&gt;file_info -->
<g id="edge1" class="edge">
<title>file_info_system:file_info_id&#45;&gt;file_info:id</title>
<path fill="none" stroke="black" d="M660.48,-554.89C519.31,-539.52 869.36,-181.8 706.15,-181.8"/>
<polygon fill="black" stroke="black" points="660.17,-554.87 669.93,-559.88 665.5,-555.15 669.83,-555.37 669.83,-555.37 669.83,-555.37 665.5,-555.15 670.39,-550.89 660.17,-554.87"/>
<text text-anchor="start" x="112.27" y="-565.4" font-family="Arial" font-size="10.00">FOREIGN KEY (file_info_id) REFERENCES file_info (id) ON UPDATE NO ACTION ON DELETE CASCADE MATCH NONE</text>
</g>
<!-- system -->
<g id="node4" class="node">
<title>system</title>
<polygon fill="#efefef" stroke="none" points="1279.98,-151 1279.98,-186.6 1413.24,-186.6 1413.24,-151 1279.98,-151"/>
<polygon fill="none" stroke="black" points="1279.98,-151 1279.98,-186.6 1413.24,-186.6 1413.24,-151 1279.98,-151"/>
<text text-anchor="start" x="1286.98" y="-164.4" font-family="Arial Bold" font-size="18.00">system</text>
<text text-anchor="start" x="1336.99" y="-164.4" font-family="Arial" font-size="14.00">    </text>
<text text-anchor="start" x="1368.1" y="-164.4" font-family="Arial" font-size="14.00" fill="#666666">[table]</text>
<polygon fill="none" stroke="black" points="1279.98,-120.2 1279.98,-151 1413.24,-151 1413.24,-120.2 1279.98,-120.2"/>
<text text-anchor="start" x="1286.98" y="-132.4" font-family="Arial" font-size="14.00">id </text>
<text text-anchor="start" x="1301.77" y="-132.4" font-family="Arial" font-size="14.00" fill="#666666">[INTEGER]</text>
<polygon fill="none" stroke="black" points="1279.98,-89.4 1279.98,-120.2 1413.24,-120.2 1413.24,-89.4 1279.98,-89.4"/>
<text text-anchor="start" x="1286.98" y="-101.6" font-family="Arial" font-size="14.00">name </text>
<text text-anchor="start" x="1325.9" y="-101.6" font-family="Arial" font-size="14.00" fill="#666666">[TEXT]</text>
</g>
<!-- file_info_system&#45;&gt;system -->
<g id="edge3" class="edge">
<title>file_info_system:system_id&#45;&gt;system:id</title>
<path fill="none" stroke="black" d="M886.78,-524.05C966.84,-514.55 872.76,-385.25 931.61,-312 1040.06,-177.01 1105.83,-135.6 1278.98,-135.6"/>
<polygon fill="black" stroke="black" points="887.05,-524.03 876.82,-520.09 881.72,-524.32 877.4,-524.56 877.4,-524.56 877.4,-524.56 881.72,-524.32 877.31,-529.07 887.05,-524.03"/>
<text text-anchor="start" x="316.89" y="-534.6" font-family="Arial" font-size="10.00">FOREIGN KEY (system_id) REFERENCES system (id) ON UPDATE NO ACTION ON DELETE NO ACTION MATCH NONE</text>
</g>
<!-- file_set_file_info -->
<g id="node3" class="node">
<title>file_set_file_info</title>
<polygon fill="#efefef" stroke="none" points="357,-601.6 357,-637.2 564.22,-637.2 564.22,-601.6 357,-601.6"/>
<polygon fill="none" stroke="black" points="357,-601.6 357,-637.2 564.22,-637.2 564.22,-601.6 357,-601.6"/>
<text text-anchor="start" x="364" y="-615" font-family="Arial Bold" font-size="18.00">file_set_file_info</text>
<text text-anchor="start" x="487.97" y="-615" font-family="Arial" font-size="14.00">    </text>
<text text-anchor="start" x="519.08" y="-615" font-family="Arial" font-size="14.00" fill="#666666">[table]</text>
<polygon fill="none" stroke="black" points="357,-570.8 357,-601.6 564.22,-601.6 564.22,-570.8 357,-570.8"/>
<text text-anchor="start" x="364" y="-583" font-family="Arial" font-size="14.00">file_set_id </text>
<text text-anchor="start" x="430.94" y="-583" font-family="Arial" font-size="14.00" fill="#666666">[INTEGER]</text>
<polygon fill="none" stroke="black" points="357,-540 357,-570.8 564.22,-570.8 564.22,-540 357,-540"/>
<text text-anchor="start" x="364" y="-552.2" font-family="Arial" font-size="14.00">file_info_id </text>
<text text-anchor="start" x="434.83" y="-552.2" font-family="Arial" font-size="14.00" fill="#666666">[INTEGER]</text>
<polygon fill="none" stroke="black" points="357,-509.2 357,-540 564.22,-540 564.22,-509.2 357,-509.2"/>
<text text-anchor="start" x="364" y="-521.4" font-family="Arial" font-size="14.00">file_name </text>
<text text-anchor="start" x="428.6" y="-521.4" font-family="Arial" font-size="14.00" fill="#666666">[TEXT]</text>
<polygon fill="none" stroke="black" points="357,-478.4 357,-509.2 564.22,-509.2 564.22,-478.4 357,-478.4"/>
<text text-anchor="start" x="364" y="-490.6" font-family="Arial" font-size="14.00">sort_order </text>
<text text-anchor="start" x="431.7" y="-490.6" font-family="Arial" font-size="14.00" fill="#666666">[INTEGER]</text>
</g>
<!-- file_set_file_info&#45;&gt;file_info -->
<g id="edge2" class="edge">
<title>file_set_file_info:file_info_id&#45;&gt;file_info:id</title>
<path fill="none" stroke="black" d="M575.24,-554.89C716.4,-539.52 365.84,-181.8 529.08,-181.8"/>
<polygon fill="black" stroke="black" points="575.54,-554.87 565.33,-550.89 570.21,-555.15 565.89,-555.37 565.89,-555.37 565.89,-555.37 570.21,-555.15 565.78,-559.88 575.54,-554.87"/>
<text text-anchor="start" x="7" y="-539.4" font-family="Arial" font-size="10.00">FOREIGN KEY (file_info_id) REFERENCES file_info (id) ON UPDATE NO ACTION ON DELETE CASCADE MATCH NONE</text>
</g>
<!-- emulator -->
<g id="node5" class="node">
<title>emulator</title>
<polygon fill="#efefef" stroke="none" points="983.32,-632.4 983.32,-668 1145.91,-668 1145.91,-632.4 983.32,-632.4"/>
<polygon fill="none" stroke="black" points="983.32,-632.4 983.32,-668 1145.91,-668 1145.91,-632.4 983.32,-632.4"/>
<text text-anchor="start" x="998" y="-645.8" font-family="Arial Bold" font-size="18.00">emulator</text>
<text text-anchor="start" x="1061.97" y="-645.8" font-family="Arial" font-size="14.00">    </text>
<text text-anchor="start" x="1093.09" y="-645.8" font-family="Arial" font-size="14.00" fill="#666666">[table]</text>
<polygon fill="none" stroke="black" points="983.32,-601.6 983.32,-632.4 1145.91,-632.4 1145.91,-601.6 983.32,-601.6"/>
<text text-anchor="start" x="990.32" y="-613.8" font-family="Arial" font-size="14.00">id </text>
<text text-anchor="start" x="1005.1" y="-613.8" font-family="Arial" font-size="14.00" fill="#666666">[INTEGER]</text>
<polygon fill="none" stroke="black" points="983.32,-570.8 983.32,-601.6 1145.91,-601.6 1145.91,-570.8 983.32,-570.8"/>
<text text-anchor="start" x="990.32" y="-583" font-family="Arial" font-size="14.00">name </text>
<text text-anchor="start" x="1029.23" y="-583" font-family="Arial" font-size="14.00" fill="#666666">[TEXT]</text>
<polygon fill="none" stroke="black" points="983.32,-540 983.32,-570.8 1145.91,-570.8 1145.91,-540 983.32,-540"/>
<text text-anchor="start" x="990.32" y="-552.2" font-family="Arial" font-size="14.00">executable </text>
<text text-anchor="start" x="1061.92" y="-552.2" font-family="Arial" font-size="14.00" fill="#666666">[TEXT]</text>
<polygon fill="none" stroke="black" points="983.32,-509.2 983.32,-540 1145.91,-540 1145.91,-509.2 983.32,-509.2"/>
<text text-anchor="start" x="990.32" y="-521.4" font-family="Arial" font-size="14.00">extract_files </text>
<text text-anchor="start" x="1068.9" y="-521.4" font-family="Arial" font-size="14.00" fill="#666666">[INTEGER]</text>
<polygon fill="none" stroke="black" points="983.32,-478.4 983.32,-509.2 1145.91,-509.2 1145.91,-478.4 983.32,-478.4"/>
<text text-anchor="start" x="990.32" y="-490.6" font-family="Arial" font-size="14.00">arguments </text>
<text text-anchor="start" x="1060.35" y="-490.6" font-family="Arial" font-size="14.00" fill="#666666">[TEXT]</text>
<polygon fill="none" stroke="black" points="983.32,-447.6 983.32,-478.4 1145.91,-478.4 1145.91,-447.6 983.32,-447.6"/>
<text text-anchor="start" x="990.32" y="-459.8" font-family="Arial" font-size="14.00">system_id </text>
<text text-anchor="start" x="1057.23" y="-459.8" font-family="Arial" font-size="14.00" fill="#666666">[INTEGER]</text>
</g>
<!-- emulator&#45;&gt;system -->
<g id="edge4" class="edge">
<title>emulator:system_id&#45;&gt;system:id</title>
<path fill="none" stroke="black" d="M1157.19,-462.31C1213.25,-454.08 1173.77,-374.43 1198.61,-312 1230.47,-231.95 1192.83,-135.6 1278.98,-135.6"/>
<polygon fill="black" stroke="black" points="1157.22,-462.3 1146.94,-458.49 1151.9,-462.66 1147.58,-462.95 1147.58,-462.95 1147.58,-462.95 1151.9,-462.66 1147.55,-467.47 1157.22,-462.3"/>
<text text-anchor="start" x="1153.91" y="-447" font-family="Arial" font-size="10.00">FOREIGN KEY (system_id) REFERENCES system (id) ON UPDATE NO ACTION ON DELETE CASCADE MATCH NONE</text>
</g>
<!-- release_system -->
<g id="node6" class="node">
<title>release_system</title>
<polygon fill="#efefef" stroke="none" points="1250.51,-570.8 1250.51,-606.4 1442.72,-606.4 1442.72,-570.8 1250.51,-570.8"/>
<polygon fill="none" stroke="black" points="1250.51,-570.8 1250.51,-606.4 1442.72,-606.4 1442.72,-570.8 1250.51,-570.8"/>
<text text-anchor="start" x="1257.51" y="-584.2" font-family="Arial Bold" font-size="18.00">release_system</text>
<text text-anchor="start" x="1366.46" y="-584.2" font-family="Arial" font-size="14.00">    </text>
<text text-anchor="start" x="1397.58" y="-584.2" font-family="Arial" font-size="14.00" fill="#666666">[table]</text>
<polygon fill="none" stroke="black" points="1250.51,-540 1250.51,-570.8 1442.72,-570.8 1442.72,-540 1250.51,-540"/>
<text text-anchor="start" x="1257.51" y="-552.2" font-family="Arial" font-size="14.00">release_id </text>
<text text-anchor="start" x="1326" y="-552.2" font-family="Arial" font-size="14.00" fill="#666666">[INTEGER]</text>
<polygon fill="none" stroke="black" points="1250.51,-509.2 1250.51,-540 1442.72,-540 1442.72,-509.2 1250.51,-509.2"/>
<text text-anchor="start" x="1257.51" y="-521.4" font-family="Arial" font-size="14.00">system_id </text>
<text text-anchor="start" x="1324.42" y="-521.4" font-family="Arial" font-size="14.00" fill="#666666">[INTEGER]</text>
</g>
<!-- release_system&#45;&gt;system -->
<g id="edge5" class="edge">
<title>release_system:system_id&#45;&gt;system:id</title>
<path fill="none" stroke="black" d="M1346.9,-497.8C1356.12,-331.6 1579.09,-135.6 1414.24,-135.6"/>
<polygon fill="black" stroke="black" points="1346.9,-497.87 1342.12,-507.74 1346.75,-503.2 1346.63,-507.53 1346.63,-507.53 1346.63,-507.53 1346.75,-503.2 1351.12,-507.99 1346.9,-497.87"/>
<text text-anchor="start" x="933.89" y="-492.2" font-family="Arial" font-size="10.00">FOREIGN KEY (system_id) REFERENCES system (id) ON UPDATE NO ACTION ON DELETE CASCADE MATCH NONE</text>
</g>
<!-- dat_file -->
<g id="node7" class="node">
<title>dat_file</title>
<polygon fill="#efefef" stroke="none" points="1547.15,-724.8 1547.15,-760.4 1698.07,-760.4 1698.07,-724.8 1547.15,-724.8"/>
<polygon fill="none" stroke="black" points="1547.15,-724.8 1547.15,-760.4 1698.07,-760.4 1698.07,-724.8 1547.15,-724.8"/>
<text text-anchor="start" x="1560.5" y="-738.2" font-family="Arial Bold" font-size="18.00">dat_file</text>
<text text-anchor="start" x="1615.47" y="-738.2" font-family="Arial" font-size="14.00">    </text>
<text text-anchor="start" x="1646.59" y="-738.2" font-family="Arial" font-size="14.00" fill="#666666">[table]</text>
<polygon fill="none" stroke="black" points="1547.15,-694 1547.15,-724.8 1698.07,-724.8 1698.07,-694 1547.15,-694"/>
<text text-anchor="start" x="1554.15" y="-706.2" font-family="Arial" font-size="14.00">id </text>
<text text-anchor="start" x="1568.94" y="-706.2" font-family="Arial" font-size="14.00" fill="#666666">[INTEGER]</text>
<polygon fill="none" stroke="black" points="1547.15,-663.2 1547.15,-694 1698.07,-694 1698.07,-663.2 1547.15,-663.2"/>
<text text-anchor="start" x="1554.15" y="-675.4" font-family="Arial" font-size="14.00">dat_id </text>
<text text-anchor="start" x="1596.19" y="-675.4" font-family="Arial" font-size="14.00" fill="#666666">[INTEGER]</text>
<polygon fill="none" stroke="black" points="1547.15,-632.4 1547.15,-663.2 1698.07,-663.2 1698.07,-632.4 1547.15,-632.4"/>
<text text-anchor="start" x="1554.15" y="-644.6" font-family="Arial" font-size="14.00">name </text>
<text text-anchor="start" x="1593.06" y="-644.6" font-family="Arial" font-size="14.00" fill="#666666">[TEXT]</text>
<polygon fill="none" stroke="black" points="1547.15,-601.6 1547.15,-632.4 1698.07,-632.4 1698.07,-601.6 1547.15,-601.6"/>
<text text-anchor="start" x="1554.15" y="-613.8" font-family="Arial" font-size="14.00">description </text>
<text text-anchor="start" x="1625.75" y="-613.8" font-family="Arial" font-size="14.00" fill="#666666">[TEXT]</text>
<polygon fill="none" stroke="black" points="1547.15,-570.8 1547.15,-601.6 1698.07,-601.6 1698.07,-570.8 1547.15,-570.8"/>
<text text-anchor="start" x="1554.15" y="-583" font-family="Arial" font-size="14.00">version </text>
<text text-anchor="start" x="1603.17" y="-583" font-family="Arial" font-size="14.00" fill="#666666">[TEXT]</text>
<polygon fill="none" stroke="black" points="1547.15,-540 1547.15,-570.8 1698.07,-570.8 1698.07,-540 1547.15,-540"/>
<text text-anchor="start" x="1554.15" y="-552.2" font-family="Arial" font-size="14.00">date </text>
<text text-anchor="start" x="1585.29" y="-552.2" font-family="Arial" font-size="14.00" fill="#666666">[TEXT]</text>
<polygon fill="none" stroke="black" points="1547.15,-509.2 1547.15,-540 1698.07,-540 1698.07,-509.2 1547.15,-509.2"/>
<text text-anchor="start" x="1554.15" y="-521.4" font-family="Arial" font-size="14.00">author </text>
<text text-anchor="start" x="1597.74" y="-521.4" font-family="Arial" font-size="14.00" fill="#666666">[TEXT]</text>
<polygon fill="none" stroke="black" points="1547.15,-478.4 1547.15,-509.2 1698.07,-509.2 1698.07,-478.4 1547.15,-478.4"/>
<text text-anchor="start" x="1554.15" y="-490.6" font-family="Arial" font-size="14.00">homepage </text>
<text text-anchor="start" x="1624.21" y="-490.6" font-family="Arial" font-size="14.00" fill="#666666">[TEXT]</text>
<polygon fill="none" stroke="black" points="1547.15,-447.6 1547.15,-478.4 1698.07,-478.4 1698.07,-447.6 1547.15,-447.6"/>
<text text-anchor="start" x="1554.15" y="-459.8" font-family="Arial" font-size="14.00">url </text>
<text text-anchor="start" x="1573.6" y="-459.8" font-family="Arial" font-size="14.00" fill="#666666">[TEXT]</text>
<polygon fill="none" stroke="black" points="1547.15,-416.8 1547.15,-447.6 1698.07,-447.6 1698.07,-416.8 1547.15,-416.8"/>
<text text-anchor="start" x="1554.15" y="-429" font-family="Arial" font-size="14.00">subset </text>
<text text-anchor="start" x="1599.29" y="-429" font-family="Arial" font-size="14.00" fill="#666666">[TEXT]</text>
<polygon fill="none" stroke="black" points="1547.15,-386 1547.15,-416.8 1698.07,-416.8 1698.07,-386 1547.15,-386"/>
<text text-anchor="start" x="1554.15" y="-398.2" font-family="Arial" font-size="14.00">imported_at </text>
<text text-anchor="start" x="1631.97" y="-398.2" font-family="Arial" font-size="14.00" fill="#666666">[TEXT]</text>
<polygon fill="none" stroke="black" points="1547.15,-355.2 1547.15,-386 1698.07,-386 1698.07,-355.2 1547.15,-355.2"/>
<text text-anchor="start" x="1554.15" y="-367.4" font-family="Arial" font-size="14.00">system_id </text>
<text text-anchor="start" x="1621.06" y="-367.4" font-family="Arial" font-size="14.00" fill="#666666">[INTEGER]</text>
</g>
<!-- dat_file&#45;&gt;system -->
<g id="edge6" class="edge">
<title>dat_file:system_id&#45;&gt;system:id</title>
<path fill="none" stroke="black" d="M1536.1,-368.27C1484.68,-343.87 1470.62,-135.6 1414.24,-135.6"/>
<polygon fill="black" stroke="black" points="1536.09,-368.27 1544.81,-374.91 1541.28,-369.47 1545.5,-370.45 1545.5,-370.45 1545.5,-370.45 1541.28,-369.47 1546.84,-366.14 1536.09,-368.27"/>
<text text-anchor="start" x="993.53" y="-380.6" font-family="Arial" font-size="10.00">FOREIGN KEY (system_id) REFERENCES system (id) ON UPDATE NO ACTION ON DELETE CASCADE MATCH NONE</text>
</g>
<!-- system_libretro_core -->
<g id="node8" class="node">
<title>system_libretro_core</title>
<polygon fill="#efefef" stroke="none" points="1802.01,-586.2 1802.01,-621.8 2037.22,-621.8 2037.22,-586.2 1802.01,-586.2"/>
<polygon fill="none" stroke="black" points="1802.01,-586.2 1802.01,-621.8 2037.22,-621.8 2037.22,-586.2 1802.01,-586.2"/>
<text text-anchor="start" x="1809.01" y="-599.6" font-family="Arial Bold" font-size="18.00">system_libretro_core</text>
<text text-anchor="start" x="1960.96" y="-599.6" font-family="Arial" font-size="14.00">    </text>
<text text-anchor="start" x="1992.08" y="-599.6" font-family="Arial" font-size="14.00" fill="#666666">[table]</text>
<polygon fill="none" stroke="black" points="1802.01,-555.4 1802.01,-586.2 2037.22,-586.2 2037.22,-555.4 1802.01,-555.4"/>
<text text-anchor="start" x="1809.01" y="-567.6" font-family="Arial" font-size="14.00">id </text>
<text text-anchor="start" x="1823.79" y="-567.6" font-family="Arial" font-size="14.00" fill="#666666">[INTEGER]</text>
<polygon fill="none" stroke="black" points="1802.01,-524.6 1802.01,-555.4 2037.22,-555.4 2037.22,-524.6 1802.01,-524.6"/>
<text text-anchor="start" x="1809.01" y="-536.8" font-family="Arial" font-size="14.00">system_id </text>
<text text-anchor="start" x="1875.92" y="-536.8" font-family="Arial" font-size="14.00" fill="#666666">[INTEGER]</text>
<polygon fill="none" stroke="black" points="1802.01,-493.8 1802.01,-524.6 2037.22,-524.6 2037.22,-493.8 1802.01,-493.8"/>
<text text-anchor="start" x="1809.01" y="-506" font-family="Arial" font-size="14.00">core_name </text>
<text text-anchor="start" x="1882.94" y="-506" font-family="Arial" font-size="14.00" fill="#666666">[TEXT]</text>
</g>
<!-- system_libretro_core&#45;&gt;system -->
<g id="edge7" class="edge">
<title>system_libretro_core:system_id&#45;&gt;system:id</title>
<path fill="none" stroke="black" d="M1790.6,-539.44C1705.41,-529.56 1811.36,-391.47 1750.61,-312 1648.09,-177.89 1583.05,-135.6 1414.24,-135.6"/>
<polygon fill="black" stroke="black" points="1790.69,-539.44 1800.43,-544.48 1796.02,-539.73 1800.34,-539.96 1800.34,-539.96 1800.34,-539.96 1796.02,-539.73 1800.92,-535.49 1790.69,-539.44"/>
<text text-anchor="start" x="1808.01" y="-550" font-family="Arial" font-size="10.00">FOREIGN KEY (system_id) REFERENCES system (id) ON UPDATE NO ACTION ON DELETE CASCADE MATCH NONE</text>
</g>
</g>
</svg>
