<?xml version="1.0" encoding="UTF-8" standalone="no"?>
<!DOCTYPE svg PUBLIC "-//W3C//DTD SVG 1.1//EN"
 "http://www.w3.org/Graphics/SVG/1.1/DTD/svg11.dtd">
<!-- Generated by graphviz version 12.1.2 (20240928.0832)
 -->
<!-- Title: file_set Pages: 1 -->
<svg width="1703pt" height="540pt"
 viewBox="0.00 0.00 1702.52 540.40" xmlns="http://www.w3.org/2000/svg" xmlns:xlink="http://www.w3.org/1999/xlink">
<g id="graph0" class="graph" transform="scale(1 1) rotate(0) translate(4 536.4)">
<title>file_set</title>
<polygon fill="white" stroke="none" points="-4,4 -4,-536.4 1698.52,-536.4 1698.52,4 -4,4"/>
<!-- file_set -->
<g id="node1" class="node">
<title>file_set</title>
<polygon fill="#efefef" stroke="none" points="771.02,-200.2 771.02,-235.8 911.06,-235.8 911.06,-200.2 771.02,-200.2"/>
<polygon fill="none" stroke="black" points="771.02,-200.2 771.02,-235.8 911.06,-235.8 911.06,-200.2 771.02,-200.2"/>
<text text-anchor="start" x="779.92" y="-213.6" font-family="Arial Bold" font-size="18.00">file_set</text>
<text text-anchor="start" x="832.9" y="-213.6" font-family="Arial" font-size="14.00">    </text>
<text text-anchor="start" x="864.02" y="-213.6" font-family="Arial" font-size="14.00" fill="#666666">[table]</text>
<polygon fill="none" stroke="black" points="771.02,-169.4 771.02,-200.2 911.06,-200.2 911.06,-169.4 771.02,-169.4"/>
<text text-anchor="start" x="778.02" y="-181.6" font-family="Arial" font-size="14.00">id </text>
<text text-anchor="start" x="792.81" y="-181.6" font-family="Arial" font-size="14.00" fill="#666666">[INTEGER]</text>
<polygon fill="none" stroke="black" points="771.02,-138.6 771.02,-169.4 911.06,-169.4 911.06,-138.6 771.02,-138.6"/>
<text text-anchor="start" x="778.02" y="-150.8" font-family="Arial" font-size="14.00">file_name </text>
<text text-anchor="start" x="842.61" y="-150.8" font-family="Arial" font-size="14.00" fill="#666666">[TEXT]</text>
<polygon fill="none" stroke="black" points="771.02,-107.8 771.02,-138.6 911.06,-138.6 911.06,-107.8 771.02,-107.8"/>
<text text-anchor="start" x="778.02" y="-120" font-family="Arial" font-size="14.00">file_type </text>
<text text-anchor="start" x="834.05" y="-120" font-family="Arial" font-size="14.00" fill="#666666">[INTEGER]</text>
<polygon fill="none" stroke="black" points="771.02,-77 771.02,-107.8 911.06,-107.8 911.06,-77 771.02,-77"/>
<text text-anchor="start" x="778.02" y="-89.2" font-family="Arial" font-size="14.00">name </text>
<text text-anchor="start" x="816.93" y="-89.2" font-family="Arial" font-size="14.00" fill="#666666">[TEXT]</text>
<polygon fill="none" stroke="black" points="771.02,-46.2 771.02,-77 911.06,-77 911.06,-46.2 771.02,-46.2"/>
<text text-anchor="start" x="778.02" y="-58.4" font-family="Arial" font-size="14.00">source </text>
<text text-anchor="start" x="823.93" y="-58.4" font-family="Arial" font-size="14.00" fill="#666666">[TEXT]</text>
<polygon fill="none" stroke="black" stroke-width="3" points="769.52,-44.7 769.52,-237.3 912.56,-237.3 912.56,-44.7 769.52,-44.7"/>
</g>
<!-- file_set_file_info -->
<g id="node2" class="node">
<title>file_set_file_info</title>
<polygon fill="#efefef" stroke="none" points="573.43,-453.6 573.43,-489.2 780.65,-489.2 780.65,-453.6 573.43,-453.6"/>
<polygon fill="none" stroke="black" points="573.43,-453.6 573.43,-489.2 780.65,-489.2 780.65,-453.6 573.43,-453.6"/>
<text text-anchor="start" x="580.43" y="-467" font-family="Arial Bold" font-size="18.00">file_set_file_info</text>
<text text-anchor="start" x="704.39" y="-467" font-family="Arial" font-size="14.00">    </text>
<text text-anchor="start" x="735.51" y="-467" font-family="Arial" font-size="14.00" fill="#666666">[table]</text>
<polygon fill="none" stroke="black" points="573.43,-422.8 573.43,-453.6 780.65,-453.6 780.65,-422.8 573.43,-422.8"/>
<text text-anchor="start" x="580.43" y="-435" font-family="Arial" font-size="14.00">file_set_id </text>
<text text-anchor="start" x="647.36" y="-435" font-family="Arial" font-size="14.00" fill="#666666">[INTEGER]</text>
<polygon fill="none" stroke="black" points="573.43,-392 573.43,-422.8 780.65,-422.8 780.65,-392 573.43,-392"/>
<text text-anchor="start" x="580.43" y="-404.2" font-family="Arial" font-size="14.00">file_info_id </text>
<text text-anchor="start" x="651.26" y="-404.2" font-family="Arial" font-size="14.00" fill="#666666">[INTEGER]</text>
<polygon fill="none" stroke="black" points="573.43,-361.2 573.43,-392 780.65,-392 780.65,-361.2 573.43,-361.2"/>
<text text-anchor="start" x="580.43" y="-373.4" font-family="Arial" font-size="14.00">file_name </text>
<text text-anchor="start" x="645.03" y="-373.4" font-family="Arial" font-size="14.00" fill="#666666">[TEXT]</text>
</g>
<!-- file_set_file_info&#45;&gt;file_set -->
<g id="edge1" class="edge">
<title>file_set_file_info:file_set_id&#45;&gt;file_set:id</title>
<path fill="none" stroke="black" d="M791.94,-437.12C828.28,-428.29 787.3,-367.01 780.65,-318 778.42,-301.59 773.26,-298.41 771.02,-282 765.17,-239.2 726.82,-184.8 770.02,-184.8"/>
<polygon fill="black" stroke="black" points="791.93,-437.12 781.51,-433.69 786.62,-437.68 782.31,-438.13 782.31,-438.13 782.31,-438.13 786.62,-437.68 782.45,-442.64 791.93,-437.12"/>
<text text-anchor="start" x="221.78" y="-448.2" font-family="Arial" font-size="10.00">FOREIGN KEY (file_set_id) REFERENCES file_set (id) ON UPDATE NO ACTION ON DELETE NO ACTION MATCH NONE</text>
</g>
<!-- file_info -->
<g id="node3" class="node">
<title>file_info</title>
<polygon fill="#efefef" stroke="none" points="488.51,-200.2 488.51,-235.8 663.57,-235.8 663.57,-200.2 488.51,-200.2"/>
<polygon fill="none" stroke="black" points="488.51,-200.2 488.51,-235.8 663.57,-235.8 663.57,-200.2 488.51,-200.2"/>
<text text-anchor="start" x="510.42" y="-213.6" font-family="Arial Bold" font-size="18.00">file_info</text>
<text text-anchor="start" x="572.4" y="-213.6" font-family="Arial" font-size="14.00">    </text>
<text text-anchor="start" x="603.52" y="-213.6" font-family="Arial" font-size="14.00" fill="#666666">[table]</text>
<polygon fill="none" stroke="black" points="488.51,-169.4 488.51,-200.2 663.57,-200.2 663.57,-169.4 488.51,-169.4"/>
<text text-anchor="start" x="495.51" y="-181.6" font-family="Arial" font-size="14.00">id </text>
<text text-anchor="start" x="510.29" y="-181.6" font-family="Arial" font-size="14.00" fill="#666666">[INTEGER]</text>
<polygon fill="none" stroke="black" points="488.51,-138.6 488.51,-169.4 663.57,-169.4 663.57,-138.6 488.51,-138.6"/>
<text text-anchor="start" x="495.51" y="-150.8" font-family="Arial" font-size="14.00">sha1_checksum </text>
<text text-anchor="start" x="600.56" y="-150.8" font-family="Arial" font-size="14.00" fill="#666666">[BLOB]</text>
<polygon fill="none" stroke="black" points="488.51,-107.8 488.51,-138.6 663.57,-138.6 663.57,-107.8 488.51,-107.8"/>
<text text-anchor="start" x="495.51" y="-120" font-family="Arial" font-size="14.00">file_size </text>
<text text-anchor="start" x="549.98" y="-120" font-family="Arial" font-size="14.00" fill="#666666">[INTEGER]</text>
<polygon fill="none" stroke="black" points="488.51,-77 488.51,-107.8 663.57,-107.8 663.57,-77 488.51,-77"/>
<text text-anchor="start" x="495.51" y="-89.2" font-family="Arial" font-size="14.00">archive_file_name </text>
<text text-anchor="start" x="613.02" y="-89.2" font-family="Arial" font-size="14.00" fill="#666666">[TEXT]</text>
<polygon fill="none" stroke="black" points="488.51,-46.2 488.51,-77 663.57,-77 663.57,-46.2 488.51,-46.2"/>
<text text-anchor="start" x="495.51" y="-58.4" font-family="Arial" font-size="14.00">file_type </text>
<text text-anchor="start" x="551.54" y="-58.4" font-family="Arial" font-size="14.00" fill="#666666">[INTEGER]</text>
</g>
<!-- file_set_file_info&#45;&gt;file_info -->
<g id="edge2" class="edge">
<title>file_set_file_info:file_info_id&#45;&gt;file_info:id</title>
<path fill="none" stroke="black" d="M562.41,-405.86C536.39,-396.62 553.58,-347.86 573.43,-318 597.6,-281.65 639.41,-315.36 663.57,-279 686.75,-244.13 706.44,-184.8 664.57,-184.8"/>
<polygon fill="black" stroke="black" points="562.22,-405.83 571.42,-411.8 567.49,-406.64 571.77,-407.3 571.77,-407.3 571.77,-407.3 567.49,-406.64 572.78,-402.9 562.22,-405.83"/>
<text text-anchor="start" x="7" y="-417.4" font-family="Arial" font-size="10.00">FOREIGN KEY (file_info_id) REFERENCES file_info (id) ON UPDATE NO ACTION ON DELETE NO ACTION MATCH NONE</text>
</g>
<!-- release_file_set -->
<g id="node4" class="node">
<title>release_file_set</title>
<polygon fill="#efefef" stroke="none" points="936.44,-438.2 936.44,-473.8 1131.64,-473.8 1131.64,-438.2 936.44,-438.2"/>
<polygon fill="none" stroke="black" points="936.44,-438.2 936.44,-473.8 1131.64,-473.8 1131.64,-438.2 936.44,-438.2"/>
<text text-anchor="start" x="943.44" y="-451.6" font-family="Arial Bold" font-size="18.00">release_file_set</text>
<text text-anchor="start" x="1055.38" y="-451.6" font-family="Arial" font-size="14.00">    </text>
<text text-anchor="start" x="1086.5" y="-451.6" font-family="Arial" font-size="14.00" fill="#666666">[table]</text>
<polygon fill="none" stroke="black" points="936.44,-407.4 936.44,-438.2 1131.64,-438.2 1131.64,-407.4 936.44,-407.4"/>
<text text-anchor="start" x="943.44" y="-419.6" font-family="Arial" font-size="14.00">release_id </text>
<text text-anchor="start" x="1011.93" y="-419.6" font-family="Arial" font-size="14.00" fill="#666666">[INTEGER]</text>
<polygon fill="none" stroke="black" points="936.44,-376.6 936.44,-407.4 1131.64,-407.4 1131.64,-376.6 936.44,-376.6"/>
<text text-anchor="start" x="943.44" y="-388.8" font-family="Arial" font-size="14.00">file_set_id </text>
<text text-anchor="start" x="1010.38" y="-388.8" font-family="Arial" font-size="14.00" fill="#666666">[INTEGER]</text>
</g>
<!-- release_file_set&#45;&gt;file_set -->
<g id="edge3" class="edge">
<title>release_file_set:file_set_id&#45;&gt;file_set:id</title>
<path fill="none" stroke="black" d="M925.29,-390.98C855.63,-375.35 1000.93,-184.8 912.06,-184.8"/>
<polygon fill="black" stroke="black" points="925.16,-390.97 934.66,-396.44 930.47,-391.5 934.78,-391.93 934.78,-391.93 934.78,-391.93 930.47,-391.5 935.56,-387.49 925.16,-390.97"/>
<text text-anchor="start" x="942.44" y="-402" font-family="Arial" font-size="10.00">FOREIGN KEY (file_set_id) REFERENCES file_set (id) ON UPDATE NO ACTION ON DELETE CASCADE MATCH NONE</text>
</g>
<!-- release -->
<g id="node5" class="node">
<title>release</title>
<polygon fill="#efefef" stroke="none" points="1018.43,-154 1018.43,-189.6 1151.65,-189.6 1151.65,-154 1018.43,-154"/>
<polygon fill="none" stroke="black" points="1018.43,-154 1018.43,-189.6 1151.65,-189.6 1151.65,-154 1018.43,-154"/>
<text text-anchor="start" x="1025.43" y="-167.4" font-family="Arial Bold" font-size="18.00">release</text>
<text text-anchor="start" x="1075.39" y="-167.4" font-family="Arial" font-size="14.00">    </text>
<text text-anchor="start" x="1106.51" y="-167.4" font-family="Arial" font-size="14.00" fill="#666666">[table]</text>
<polygon fill="none" stroke="black" points="1018.43,-123.2 1018.43,-154 1151.65,-154 1151.65,-123.2 1018.43,-123.2"/>
<text text-anchor="start" x="1025.43" y="-135.4" font-family="Arial" font-size="14.00">id </text>
<text text-anchor="start" x="1040.22" y="-135.4" font-family="Arial" font-size="14.00" fill="#666666">[INTEGER]</text>
<polygon fill="none" stroke="black" points="1018.43,-92.4 1018.43,-123.2 1151.65,-123.2 1151.65,-92.4 1018.43,-92.4"/>
<text text-anchor="start" x="1025.43" y="-104.6" font-family="Arial" font-size="14.00">name </text>
<text text-anchor="start" x="1064.34" y="-104.6" font-family="Arial" font-size="14.00" fill="#666666">[TEXT]</text>
</g>
<!-- release_file_set&#45;&gt;release -->
<g id="edge4" class="edge">
<title>release_file_set:release_id&#45;&gt;release:id</title>
<path fill="none" stroke="black" d="M1142.84,-421.23C1167.53,-412.16 1146.45,-365.88 1131.64,-333.4 1103.72,-272.16 1046.34,-294.05 1018.43,-232.8 1001.08,-194.7 975.57,-138.6 1017.43,-138.6"/>
<polygon fill="black" stroke="black" points="1142.85,-421.22 1132.28,-418.3 1137.58,-422.04 1133.3,-422.7 1133.3,-422.7 1133.3,-422.7 1137.58,-422.04 1133.65,-427.2 1142.85,-421.22"/>
<text text-anchor="start" x="1139.64" y="-432.8" font-family="Arial" font-size="10.00">FOREIGN KEY (release_id) REFERENCES release (id) ON UPDATE NO ACTION ON DELETE CASCADE MATCH NONE</text>
</g>
</g>
</svg>
