<?xml version="1.0" encoding="UTF-8" standalone="no"?>
<!DOCTYPE svg PUBLIC "-//W3C//DTD SVG 1.1//EN"
 "http://www.w3.org/Graphics/SVG/1.1/DTD/svg11.dtd">
<!-- Generated by graphviz version 12.1.2 (20240928.0832)
 -->
<!-- Title: file_info Pages: 1 -->
<svg width="1639pt" height="633pt"
 viewBox="0.00 0.00 1638.66 632.80" xmlns="http://www.w3.org/2000/svg" xmlns:xlink="http://www.w3.org/1999/xlink">
<g id="graph0" class="graph" transform="scale(1 1) rotate(0) translate(4 628.8)">
<title>file_info</title>
<polygon fill="white" stroke="none" points="-4,4 -4,-628.8 1634.66,-628.8 1634.66,4 -4,4"/>
<!-- file_info -->
<g id="node1" class="node">
<title>file_info</title>
<polygon fill="#efefef" stroke="none" points="679.29,-200.2 679.29,-235.8 854.36,-235.8 854.36,-200.2 679.29,-200.2"/>
<polygon fill="none" stroke="black" points="679.29,-200.2 679.29,-235.8 854.36,-235.8 854.36,-200.2 679.29,-200.2"/>
<text text-anchor="start" x="701.21" y="-213.6" font-family="Arial Bold" font-size="18.00">file_info</text>
<text text-anchor="start" x="763.19" y="-213.6" font-family="Arial" font-size="14.00">    </text>
<text text-anchor="start" x="794.3" y="-213.6" font-family="Arial" font-size="14.00" fill="#666666">[table]</text>
<polygon fill="none" stroke="black" points="679.29,-169.4 679.29,-200.2 854.36,-200.2 854.36,-169.4 679.29,-169.4"/>
<text text-anchor="start" x="686.29" y="-181.6" font-family="Arial" font-size="14.00">id </text>
<text text-anchor="start" x="701.08" y="-181.6" font-family="Arial" font-size="14.00" fill="#666666">[INTEGER]</text>
<polygon fill="none" stroke="black" points="679.29,-138.6 679.29,-169.4 854.36,-169.4 854.36,-138.6 679.29,-138.6"/>
<text text-anchor="start" x="686.29" y="-150.8" font-family="Arial" font-size="14.00">sha1_checksum </text>
<text text-anchor="start" x="791.35" y="-150.8" font-family="Arial" font-size="14.00" fill="#666666">[BLOB]</text>
<polygon fill="none" stroke="black" points="679.29,-107.8 679.29,-138.6 854.36,-138.6 854.36,-107.8 679.29,-107.8"/>
<text text-anchor="start" x="686.29" y="-120" font-family="Arial" font-size="14.00">file_size </text>
<text text-anchor="start" x="740.76" y="-120" font-family="Arial" font-size="14.00" fill="#666666">[INTEGER]</text>
<polygon fill="none" stroke="black" points="679.29,-77 679.29,-107.8 854.36,-107.8 854.36,-77 679.29,-77"/>
<text text-anchor="start" x="686.29" y="-89.2" font-family="Arial" font-size="14.00">archive_file_name </text>
<text text-anchor="start" x="803.8" y="-89.2" font-family="Arial" font-size="14.00" fill="#666666">[TEXT]</text>
<polygon fill="none" stroke="black" points="679.29,-46.2 679.29,-77 854.36,-77 854.36,-46.2 679.29,-46.2"/>
<text text-anchor="start" x="686.29" y="-58.4" font-family="Arial" font-size="14.00">file_type </text>
<text text-anchor="start" x="742.32" y="-58.4" font-family="Arial" font-size="14.00" fill="#666666">[INTEGER]</text>
<polygon fill="none" stroke="black" stroke-width="3" points="677.79,-44.7 677.79,-237.3 855.86,-237.3 855.86,-44.7 677.79,-44.7"/>
</g>
<!-- file_set_file_info -->
<g id="node2" class="node">
<title>file_set_file_info</title>
<polygon fill="#efefef" stroke="none" points="364.22,-499.8 364.22,-535.4 571.43,-535.4 571.43,-499.8 364.22,-499.8"/>
<polygon fill="none" stroke="black" points="364.22,-499.8 364.22,-535.4 571.43,-535.4 571.43,-499.8 364.22,-499.8"/>
<text text-anchor="start" x="371.22" y="-513.2" font-family="Arial Bold" font-size="18.00">file_set_file_info</text>
<text text-anchor="start" x="495.18" y="-513.2" font-family="Arial" font-size="14.00">    </text>
<text text-anchor="start" x="526.29" y="-513.2" font-family="Arial" font-size="14.00" fill="#666666">[table]</text>
<polygon fill="none" stroke="black" points="364.22,-469 364.22,-499.8 571.43,-499.8 571.43,-469 364.22,-469"/>
<text text-anchor="start" x="371.22" y="-481.2" font-family="Arial" font-size="14.00">file_set_id </text>
<text text-anchor="start" x="438.15" y="-481.2" font-family="Arial" font-size="14.00" fill="#666666">[INTEGER]</text>
<polygon fill="none" stroke="black" points="364.22,-438.2 364.22,-469 571.43,-469 571.43,-438.2 364.22,-438.2"/>
<text text-anchor="start" x="371.22" y="-450.4" font-family="Arial" font-size="14.00">file_info_id </text>
<text text-anchor="start" x="442.04" y="-450.4" font-family="Arial" font-size="14.00" fill="#666666">[INTEGER]</text>
<polygon fill="none" stroke="black" points="364.22,-407.4 364.22,-438.2 571.43,-438.2 571.43,-407.4 364.22,-407.4"/>
<text text-anchor="start" x="371.22" y="-419.6" font-family="Arial" font-size="14.00">file_name </text>
<text text-anchor="start" x="435.81" y="-419.6" font-family="Arial" font-size="14.00" fill="#666666">[TEXT]</text>
</g>
<!-- file_set_file_info&#45;&gt;file_info -->
<g id="edge1" class="edge">
<title>file_set_file_info:file_info_id&#45;&gt;file_info:id</title>
<path fill="none" stroke="black" d="M582.75,-452.84C632.79,-444.79 601.59,-374.45 623.82,-318 647.26,-258.49 614.33,-184.8 678.29,-184.8"/>
<polygon fill="black" stroke="black" points="582.74,-452.84 572.44,-449.09 577.42,-453.23 573.1,-453.55 573.1,-453.55 573.1,-453.55 577.42,-453.23 573.1,-458.06 582.74,-452.84"/>
<text text-anchor="start" x="7" y="-463.6" font-family="Arial" font-size="10.00">FOREIGN KEY (file_info_id) REFERENCES file_info (id) ON UPDATE NO ACTION ON DELETE NO ACTION MATCH NONE</text>
</g>
<!-- file_set -->
<g id="node3" class="node">
<title>file_set</title>
<polygon fill="#efefef" stroke="none" points="397.8,-200.2 397.8,-235.8 537.85,-235.8 537.85,-200.2 397.8,-200.2"/>
<polygon fill="none" stroke="black" points="397.8,-200.2 397.8,-235.8 537.85,-235.8 537.85,-200.2 397.8,-200.2"/>
<text text-anchor="start" x="406.71" y="-213.6" font-family="Arial Bold" font-size="18.00">file_set</text>
<text text-anchor="start" x="459.69" y="-213.6" font-family="Arial" font-size="14.00">    </text>
<text text-anchor="start" x="490.8" y="-213.6" font-family="Arial" font-size="14.00" fill="#666666">[table]</text>
<polygon fill="none" stroke="black" points="397.8,-169.4 397.8,-200.2 537.85,-200.2 537.85,-169.4 397.8,-169.4"/>
<text text-anchor="start" x="404.8" y="-181.6" font-family="Arial" font-size="14.00">id </text>
<text text-anchor="start" x="419.59" y="-181.6" font-family="Arial" font-size="14.00" fill="#666666">[INTEGER]</text>
<polygon fill="none" stroke="black" points="397.8,-138.6 397.8,-169.4 537.85,-169.4 537.85,-138.6 397.8,-138.6"/>
<text text-anchor="start" x="404.8" y="-150.8" font-family="Arial" font-size="14.00">file_name </text>
<text text-anchor="start" x="469.4" y="-150.8" font-family="Arial" font-size="14.00" fill="#666666">[TEXT]</text>
<polygon fill="none" stroke="black" points="397.8,-107.8 397.8,-138.6 537.85,-138.6 537.85,-107.8 397.8,-107.8"/>
<text text-anchor="start" x="404.8" y="-120" font-family="Arial" font-size="14.00">file_type </text>
<text text-anchor="start" x="460.84" y="-120" font-family="Arial" font-size="14.00" fill="#666666">[INTEGER]</text>
<polygon fill="none" stroke="black" points="397.8,-77 397.8,-107.8 537.85,-107.8 537.85,-77 397.8,-77"/>
<text text-anchor="start" x="404.8" y="-89.2" font-family="Arial" font-size="14.00">name </text>
<text text-anchor="start" x="443.71" y="-89.2" font-family="Arial" font-size="14.00" fill="#666666">[TEXT]</text>
<polygon fill="none" stroke="black" points="397.8,-46.2 397.8,-77 537.85,-77 537.85,-46.2 397.8,-46.2"/>
<text text-anchor="start" x="404.8" y="-58.4" font-family="Arial" font-size="14.00">source </text>
<text text-anchor="start" x="450.71" y="-58.4" font-family="Arial" font-size="14.00" fill="#666666">[TEXT]</text>
</g>
<!-- file_set_file_info&#45;&gt;file_set -->
<g id="edge2" class="edge">
<title>file_set_file_info:file_set_id&#45;&gt;file_set:id</title>
<path fill="none" stroke="black" d="M582.53,-481.81C635.65,-452.53 602.18,-184.8 538.85,-184.8"/>
<polygon fill="black" stroke="black" points="582.44,-481.83 571.64,-479.96 577.28,-483.16 573.08,-484.23 573.08,-484.23 573.08,-484.23 577.28,-483.16 573.87,-488.68 582.44,-481.83"/>
<text text-anchor="start" x="12.57" y="-494.4" font-family="Arial" font-size="10.00">FOREIGN KEY (file_set_id) REFERENCES file_set (id) ON UPDATE NO ACTION ON DELETE NO ACTION MATCH NONE</text>
</g>
<!-- file_sync_log -->
<g id="node4" class="node">
<title>file_sync_log</title>
<polygon fill="#efefef" stroke="none" points="676.21,-546 676.21,-581.6 857.44,-581.6 857.44,-546 676.21,-546"/>
<polygon fill="none" stroke="black" points="676.21,-546 676.21,-581.6 857.44,-581.6 857.44,-546 676.21,-546"/>
<text text-anchor="start" x="683.21" y="-559.4" font-family="Arial Bold" font-size="18.00">file_sync_log</text>
<text text-anchor="start" x="781.19" y="-559.4" font-family="Arial" font-size="14.00">    </text>
<text text-anchor="start" x="812.3" y="-559.4" font-family="Arial" font-size="14.00" fill="#666666">[table]</text>
<polygon fill="none" stroke="black" points="676.21,-515.2 676.21,-546 857.44,-546 857.44,-515.2 676.21,-515.2"/>
<text text-anchor="start" x="683.21" y="-527.4" font-family="Arial" font-size="14.00">id </text>
<text text-anchor="start" x="697.99" y="-527.4" font-family="Arial" font-size="14.00" fill="#666666">[INTEGER]</text>
<polygon fill="none" stroke="black" points="676.21,-484.4 676.21,-515.2 857.44,-515.2 857.44,-484.4 676.21,-484.4"/>
<text text-anchor="start" x="683.21" y="-496.6" font-family="Arial" font-size="14.00">file_info_id </text>
<text text-anchor="start" x="754.03" y="-496.6" font-family="Arial" font-size="14.00" fill="#666666">[INTEGER]</text>
<polygon fill="none" stroke="black" points="676.21,-453.6 676.21,-484.4 857.44,-484.4 857.44,-453.6 676.21,-453.6"/>
<text text-anchor="start" x="683.21" y="-465.8" font-family="Arial" font-size="14.00">sync_time </text>
<text text-anchor="start" x="750.12" y="-465.8" font-family="Arial" font-size="14.00" fill="#666666">[TIMESTAMP]</text>
<polygon fill="none" stroke="black" points="676.21,-422.8 676.21,-453.6 857.44,-453.6 857.44,-422.8 676.21,-422.8"/>
<text text-anchor="start" x="683.21" y="-435" font-family="Arial" font-size="14.00">status </text>
<text text-anchor="start" x="724.45" y="-435" font-family="Arial" font-size="14.00" fill="#666666">[INTEGER]</text>
<polygon fill="none" stroke="black" points="676.21,-392 676.21,-422.8 857.44,-422.8 857.44,-392 676.21,-392"/>
<text text-anchor="start" x="683.21" y="-404.2" font-family="Arial" font-size="14.00">message </text>
<text text-anchor="start" x="743.9" y="-404.2" font-family="Arial" font-size="14.00" fill="#666666">[TEXT]</text>
<polygon fill="none" stroke="black" points="676.21,-361.2 676.21,-392 857.44,-392 857.44,-361.2 676.21,-361.2"/>
<text text-anchor="start" x="683.21" y="-373.4" font-family="Arial" font-size="14.00">cloud_key </text>
<text text-anchor="start" x="750.14" y="-373.4" font-family="Arial" font-size="14.00" fill="#666666">[TEXT]</text>
</g>
<!-- file_sync_log&#45;&gt;file_info -->
<g id="edge3" class="edge">
<title>file_sync_log:file_info_id&#45;&gt;file_info:id</title>
<path fill="none" stroke="black" d="M868.54,-497.45C927.96,-468.62 921.81,-184.8 855.36,-184.8"/>
<polygon fill="black" stroke="black" points="868.51,-497.45 857.75,-495.34 863.31,-498.66 859.09,-499.65 859.09,-499.65 859.09,-499.65 863.31,-498.66 859.79,-504.11 868.51,-497.45"/>
<text text-anchor="start" x="865.44" y="-509.8" font-family="Arial" font-size="10.00">FOREIGN KEY (file_info_id) REFERENCES file_info (id) ON UPDATE NO ACTION ON DELETE NO ACTION MATCH NONE</text>
</g>
<!-- file_info_system -->
<g id="node5" class="node">
<title>file_info_system</title>
<polygon fill="#efefef" stroke="none" points="961.71,-484.4 961.71,-520 1165.94,-520 1165.94,-484.4 961.71,-484.4"/>
<polygon fill="none" stroke="black" points="961.71,-484.4 961.71,-520 1165.94,-520 1165.94,-484.4 961.71,-484.4"/>
<text text-anchor="start" x="968.71" y="-497.8" font-family="Arial Bold" font-size="18.00">file_info_system</text>
<text text-anchor="start" x="1089.69" y="-497.8" font-family="Arial" font-size="14.00">    </text>
<text text-anchor="start" x="1120.81" y="-497.8" font-family="Arial" font-size="14.00" fill="#666666">[table]</text>
<polygon fill="none" stroke="black" points="961.71,-453.6 961.71,-484.4 1165.94,-484.4 1165.94,-453.6 961.71,-453.6"/>
<text text-anchor="start" x="968.71" y="-465.8" font-family="Arial" font-size="14.00">file_info_id </text>
<text text-anchor="start" x="1039.53" y="-465.8" font-family="Arial" font-size="14.00" fill="#666666">[INTEGER]</text>
<polygon fill="none" stroke="black" points="961.71,-422.8 961.71,-453.6 1165.94,-453.6 1165.94,-422.8 961.71,-422.8"/>
<text text-anchor="start" x="968.71" y="-435" font-family="Arial" font-size="14.00">system_id </text>
<text text-anchor="start" x="1035.62" y="-435" font-family="Arial" font-size="14.00" fill="#666666">[INTEGER]</text>
</g>
<!-- file_info_system&#45;&gt;file_info -->
<g id="edge4" class="edge">
<title>file_info_system:file_info_id&#45;&gt;file_info:id</title>
<path fill="none" stroke="black" d="M950.44,-468.31C894.4,-460.12 933.24,-380.86 909.82,-318 887.5,-258.07 919.32,-184.8 855.36,-184.8"/>
<polygon fill="black" stroke="black" points="950.4,-468.31 960.07,-473.47 955.72,-468.66 960.04,-468.96 960.04,-468.96 960.04,-468.96 955.72,-468.66 960.68,-464.49 950.4,-468.31"/>
<text text-anchor="start" x="967.71" y="-479" font-family="Arial" font-size="10.00">FOREIGN KEY (file_info_id) REFERENCES file_info (id) ON UPDATE NO ACTION ON DELETE CASCADE MATCH NONE</text>
</g>
<!-- system -->
<g id="node6" class="node">
<title>system</title>
<polygon fill="#efefef" stroke="none" points="997.2,-154 997.2,-189.6 1130.45,-189.6 1130.45,-154 997.2,-154"/>
<polygon fill="none" stroke="black" points="997.2,-154 997.2,-189.6 1130.45,-189.6 1130.45,-154 997.2,-154"/>
<text text-anchor="start" x="1004.2" y="-167.4" font-family="Arial Bold" font-size="18.00">system</text>
<text text-anchor="start" x="1054.2" y="-167.4" font-family="Arial" font-size="14.00">    </text>
<text text-anchor="start" x="1085.31" y="-167.4" font-family="Arial" font-size="14.00" fill="#666666">[table]</text>
<polygon fill="none" stroke="black" points="997.2,-123.2 997.2,-154 1130.45,-154 1130.45,-123.2 997.2,-123.2"/>
<text text-anchor="start" x="1004.2" y="-135.4" font-family="Arial" font-size="14.00">id </text>
<text text-anchor="start" x="1018.98" y="-135.4" font-family="Arial" font-size="14.00" fill="#666666">[INTEGER]</text>
<polygon fill="none" stroke="black" points="997.2,-92.4 997.2,-123.2 1130.45,-123.2 1130.45,-92.4 997.2,-92.4"/>
<text text-anchor="start" x="1004.2" y="-104.6" font-family="Arial" font-size="14.00">name </text>
<text text-anchor="start" x="1043.11" y="-104.6" font-family="Arial" font-size="14.00" fill="#666666">[TEXT]</text>
</g>
<!-- file_info_system&#45;&gt;system -->
<g id="edge5" class="edge">
<title>file_info_system:system_id&#45;&gt;system:id</title>
<path fill="none" stroke="black" d="M1064.23,-411.52C1073.99,-284.39 1257.45,-138.6 1131.45,-138.6"/>
<polygon fill="black" stroke="black" points="1064.23,-411.47 1059.34,-421.29 1064.02,-416.8 1063.85,-421.13 1063.85,-421.13 1063.85,-421.13 1064.02,-416.8 1068.33,-421.64 1064.23,-411.47"/>
<text text-anchor="start" x="1070.82" y="-431.8" font-family="Arial" font-size="10.00">FOREIGN KEY (system_id) REFERENCES system (id) ON UPDATE NO ACTION ON DELETE NO ACTION MATCH NONE</text>
</g>
</g>
</svg>
