<?xml version="1.0" encoding="UTF-8" standalone="no"?>
<!DOCTYPE svg PUBLIC "-//W3C//DTD SVG 1.1//EN"
 "http://www.w3.org/Graphics/SVG/1.1/DTD/svg11.dtd">
<!-- Generated by graphviz version 12.1.2 (20240928.0832)
 -->
<!-- Title: file_set_item_type Pages: 1 -->
<svg width="1845pt" height="565pt"
 viewBox="0.00 0.00 1844.61 565.20" xmlns="http://www.w3.org/2000/svg" xmlns:xlink="http://www.w3.org/1999/xlink">
<g id="graph0" class="graph" transform="scale(1 1) rotate(0) translate(4 561.2)">
<title>file_set_item_type</title>
<polygon fill="white" stroke="none" points="-4,4 -4,-561.2 1840.61,-561.2 1840.61,4 -4,4"/>
<!-- file_set_item_type -->
<g id="node1" class="node">
<title>file_set_item_type</title>
<polygon fill="#efefef" stroke="none" points="341.44,-447.6 341.44,-483.2 558.65,-483.2 558.65,-447.6 341.44,-447.6"/>
<polygon fill="none" stroke="black" points="341.44,-447.6 341.44,-483.2 558.65,-483.2 558.65,-447.6 341.44,-447.6"/>
<text text-anchor="start" x="348.44" y="-461" font-family="Arial Bold" font-size="18.00">file_set_item_type</text>
<text text-anchor="start" x="482.4" y="-461" font-family="Arial" font-size="14.00">    </text>
<text text-anchor="start" x="513.52" y="-461" font-family="Arial" font-size="14.00" fill="#666666">[table]</text>
<polygon fill="none" stroke="black" points="341.44,-416.8 341.44,-447.6 558.65,-447.6 558.65,-416.8 341.44,-416.8"/>
<text text-anchor="start" x="348.44" y="-429" font-family="Arial" font-size="14.00">file_set_id </text>
<text text-anchor="start" x="415.37" y="-429" font-family="Arial" font-size="14.00" fill="#666666">[INTEGER]</text>
<polygon fill="none" stroke="black" points="341.44,-386 341.44,-416.8 558.65,-416.8 558.65,-386 341.44,-386"/>
<text text-anchor="start" x="348.44" y="-398.2" font-family="Arial" font-size="14.00">item_type </text>
<text text-anchor="start" x="413.02" y="-398.2" font-family="Arial" font-size="14.00" fill="#666666">[INTEGER]</text>
<polygon fill="none" stroke="black" stroke-width="3" points="339.94,-384.5 339.94,-484.7 560.15,-484.7 560.15,-384.5 339.94,-384.5"/>
</g>
<!-- file_set -->
<g id="node2" class="node">
<title>file_set</title>
<polygon fill="#efefef" stroke="none" points="853.02,-197.2 853.02,-232.8 993.07,-232.8 993.07,-197.2 853.02,-197.2"/>
<polygon fill="none" stroke="black" points="853.02,-197.2 853.02,-232.8 993.07,-232.8 993.07,-197.2 853.02,-197.2"/>
<text text-anchor="start" x="861.93" y="-210.6" font-family="Arial Bold" font-size="18.00">file_set</text>
<text text-anchor="start" x="914.91" y="-210.6" font-family="Arial" font-size="14.00">    </text>
<text text-anchor="start" x="946.03" y="-210.6" font-family="Arial" font-size="14.00" fill="#666666">[table]</text>
<polygon fill="none" stroke="black" points="853.02,-166.4 853.02,-197.2 993.07,-197.2 993.07,-166.4 853.02,-166.4"/>
<text text-anchor="start" x="860.02" y="-178.6" font-family="Arial" font-size="14.00">id </text>
<text text-anchor="start" x="874.81" y="-178.6" font-family="Arial" font-size="14.00" fill="#666666">[INTEGER]</text>
<polygon fill="none" stroke="black" points="853.02,-135.6 853.02,-166.4 993.07,-166.4 993.07,-135.6 853.02,-135.6"/>
<text text-anchor="start" x="860.02" y="-147.8" font-family="Arial" font-size="14.00">file_name </text>
<text text-anchor="start" x="924.62" y="-147.8" font-family="Arial" font-size="14.00" fill="#666666">[TEXT]</text>
<polygon fill="none" stroke="black" points="853.02,-104.8 853.02,-135.6 993.07,-135.6 993.07,-104.8 853.02,-104.8"/>
<text text-anchor="start" x="860.02" y="-117" font-family="Arial" font-size="14.00">file_type </text>
<text text-anchor="start" x="916.06" y="-117" font-family="Arial" font-size="14.00" fill="#666666">[INTEGER]</text>
<polygon fill="none" stroke="black" points="853.02,-74 853.02,-104.8 993.07,-104.8 993.07,-74 853.02,-74"/>
<text text-anchor="start" x="860.02" y="-86.2" font-family="Arial" font-size="14.00">name </text>
<text text-anchor="start" x="898.94" y="-86.2" font-family="Arial" font-size="14.00" fill="#666666">[TEXT]</text>
<polygon fill="none" stroke="black" points="853.02,-43.2 853.02,-74 993.07,-74 993.07,-43.2 853.02,-43.2"/>
<text text-anchor="start" x="860.02" y="-55.4" font-family="Arial" font-size="14.00">source </text>
<text text-anchor="start" x="905.94" y="-55.4" font-family="Arial" font-size="14.00" fill="#666666">[TEXT]</text>
</g>
<!-- file_set_item_type&#45;&gt;file_set -->
<g id="edge1" class="edge">
<title>file_set_item_type:file_set_id&#45;&gt;file_set:id</title>
<path fill="none" stroke="black" d="M570.03,-431.21C612.8,-422.1 576.83,-352.15 614.05,-312 696.01,-223.58 731.46,-181.8 852.02,-181.8"/>
<polygon fill="black" stroke="black" points="569.94,-431.22 559.56,-427.69 564.63,-431.73 560.32,-432.14 560.32,-432.14 560.32,-432.14 564.63,-431.73 560.41,-436.65 569.94,-431.22"/>
<text text-anchor="start" x="7" y="-442.2" font-family="Arial" font-size="10.00">FOREIGN KEY (file_set_id) REFERENCES file_set (id) ON UPDATE NO ACTION ON DELETE CASCADE MATCH NONE</text>
</g>
<!-- file_set_file_info -->
<g id="node3" class="node">
<title>file_set_file_info</title>
<polygon fill="#efefef" stroke="none" points="666.44,-478.4 666.44,-514 873.65,-514 873.65,-478.4 666.44,-478.4"/>
<polygon fill="none" stroke="black" points="666.44,-478.4 666.44,-514 873.65,-514 873.65,-478.4 666.44,-478.4"/>
<text text-anchor="start" x="673.44" y="-491.8" font-family="Arial Bold" font-size="18.00">file_set_file_info</text>
<text text-anchor="start" x="797.4" y="-491.8" font-family="Arial" font-size="14.00">    </text>
<text text-anchor="start" x="828.52" y="-491.8" font-family="Arial" font-size="14.00" fill="#666666">[table]</text>
<polygon fill="none" stroke="black" points="666.44,-447.6 666.44,-478.4 873.65,-478.4 873.65,-447.6 666.44,-447.6"/>
<text text-anchor="start" x="673.44" y="-459.8" font-family="Arial" font-size="14.00">file_set_id </text>
<text text-anchor="start" x="740.37" y="-459.8" font-family="Arial" font-size="14.00" fill="#666666">[INTEGER]</text>
<polygon fill="none" stroke="black" points="666.44,-416.8 666.44,-447.6 873.65,-447.6 873.65,-416.8 666.44,-416.8"/>
<text text-anchor="start" x="673.44" y="-429" font-family="Arial" font-size="14.00">file_info_id </text>
<text text-anchor="start" x="744.26" y="-429" font-family="Arial" font-size="14.00" fill="#666666">[INTEGER]</text>
<polygon fill="none" stroke="black" points="666.44,-386 666.44,-416.8 873.65,-416.8 873.65,-386 666.44,-386"/>
<text text-anchor="start" x="673.44" y="-398.2" font-family="Arial" font-size="14.00">file_name </text>
<text text-anchor="start" x="738.03" y="-398.2" font-family="Arial" font-size="14.00" fill="#666666">[TEXT]</text>
<polygon fill="none" stroke="black" points="666.44,-355.2 666.44,-386 873.65,-386 873.65,-355.2 666.44,-355.2"/>
<text text-anchor="start" x="673.44" y="-367.4" font-family="Arial" font-size="14.00">sort_order </text>
<text text-anchor="start" x="741.13" y="-367.4" font-family="Arial" font-size="14.00" fill="#666666">[INTEGER]</text>
</g>
<!-- file_set_file_info&#45;&gt;file_set -->
<g id="edge2" class="edge">
<title>file_set_file_info:file_set_id&#45;&gt;file_set:id</title>
<path fill="none" stroke="black" d="M884.95,-462.19C936.14,-453.3 890.14,-373.13 873.65,-312 868.85,-294.2 857.86,-293.79 853.02,-276 842.04,-235.6 810.16,-181.8 852.02,-181.8"/>
<polygon fill="black" stroke="black" points="884.96,-462.19 874.63,-458.49 879.64,-462.61 875.32,-462.95 875.32,-462.95 875.32,-462.95 879.64,-462.61 875.34,-467.46 884.96,-462.19"/>
<text text-anchor="start" x="314.79" y="-473" font-family="Arial" font-size="10.00">FOREIGN KEY (file_set_id) REFERENCES file_set (id) ON UPDATE NO ACTION ON DELETE NO ACTION MATCH NONE</text>
</g>
<!-- release_file_set -->
<g id="node4" class="node">
<title>release_file_set</title>
<polygon fill="#efefef" stroke="none" points="978.45,-447.6 978.45,-483.2 1173.64,-483.2 1173.64,-447.6 978.45,-447.6"/>
<polygon fill="none" stroke="black" points="978.45,-447.6 978.45,-483.2 1173.64,-483.2 1173.64,-447.6 978.45,-447.6"/>
<text text-anchor="start" x="985.45" y="-461" font-family="Arial Bold" font-size="18.00">release_file_set</text>
<text text-anchor="start" x="1097.39" y="-461" font-family="Arial" font-size="14.00">    </text>
<text text-anchor="start" x="1128.5" y="-461" font-family="Arial" font-size="14.00" fill="#666666">[table]</text>
<polygon fill="none" stroke="black" points="978.45,-416.8 978.45,-447.6 1173.64,-447.6 1173.64,-416.8 978.45,-416.8"/>
<text text-anchor="start" x="985.45" y="-429" font-family="Arial" font-size="14.00">release_id </text>
<text text-anchor="start" x="1053.94" y="-429" font-family="Arial" font-size="14.00" fill="#666666">[INTEGER]</text>
<polygon fill="none" stroke="black" points="978.45,-386 978.45,-416.8 1173.64,-416.8 1173.64,-386 978.45,-386"/>
<text text-anchor="start" x="985.45" y="-398.2" font-family="Arial" font-size="14.00">file_set_id </text>
<text text-anchor="start" x="1052.38" y="-398.2" font-family="Arial" font-size="14.00" fill="#666666">[INTEGER]</text>
</g>
<!-- release_file_set&#45;&gt;file_set -->
<g id="edge3" class="edge">
<title>release_file_set:file_set_id&#45;&gt;file_set:id</title>
<path fill="none" stroke="black" d="M967.36,-400.42C895.69,-384.58 1088.12,-181.8 994.07,-181.8"/>
<polygon fill="black" stroke="black" points="967.16,-400.4 976.68,-405.85 972.47,-400.92 976.78,-401.34 976.78,-401.34 976.78,-401.34 972.47,-400.92 977.55,-396.89 967.16,-400.4"/>
<text text-anchor="start" x="984.45" y="-411.4" font-family="Arial" font-size="10.00">FOREIGN KEY (file_set_id) REFERENCES file_set (id) ON UPDATE NO ACTION ON DELETE CASCADE MATCH NONE</text>
</g>
<!-- release_item_file_set -->
<g id="node5" class="node">
<title>release_item_file_set</title>
<polygon fill="#efefef" stroke="none" points="1277.95,-447.6 1277.95,-483.2 1514.14,-483.2 1514.14,-447.6 1277.95,-447.6"/>
<polygon fill="none" stroke="black" points="1277.95,-447.6 1277.95,-483.2 1514.14,-483.2 1514.14,-447.6 1277.95,-447.6"/>
<text text-anchor="start" x="1284.95" y="-461" font-family="Arial Bold" font-size="18.00">release_item_file_set</text>
<text text-anchor="start" x="1437.88" y="-461" font-family="Arial" font-size="14.00">    </text>
<text text-anchor="start" x="1469" y="-461" font-family="Arial" font-size="14.00" fill="#666666">[table]</text>
<polygon fill="none" stroke="black" points="1277.95,-416.8 1277.95,-447.6 1514.14,-447.6 1514.14,-416.8 1277.95,-416.8"/>
<text text-anchor="start" x="1284.95" y="-429" font-family="Arial" font-size="14.00">release_item_id </text>
<text text-anchor="start" x="1387.68" y="-429" font-family="Arial" font-size="14.00" fill="#666666">[INTEGER]</text>
<polygon fill="none" stroke="black" points="1277.95,-386 1277.95,-416.8 1514.14,-416.8 1514.14,-386 1277.95,-386"/>
<text text-anchor="start" x="1284.95" y="-398.2" font-family="Arial" font-size="14.00">file_set_id </text>
<text text-anchor="start" x="1351.88" y="-398.2" font-family="Arial" font-size="14.00" fill="#666666">[INTEGER]</text>
</g>
<!-- release_item_file_set&#45;&gt;file_set -->
<g id="edge4" class="edge">
<title>release_item_file_set:file_set_id&#45;&gt;file_set:id</title>
<path fill="none" stroke="black" d="M1266.7,-400.19C1235.47,-391.76 1255.69,-341.46 1226.05,-312 1142.18,-228.66 1112.3,-181.8 994.07,-181.8"/>
<polygon fill="black" stroke="black" points="1266.69,-400.18 1276.09,-405.83 1271.99,-400.81 1276.29,-401.32 1276.29,-401.32 1276.29,-401.32 1271.99,-400.81 1277.15,-396.89 1266.69,-400.18"/>
<text text-anchor="start" x="1283.95" y="-385.4" font-family="Arial" font-size="10.00">FOREIGN KEY (file_set_id) REFERENCES file_set (id) ON UPDATE NO ACTION ON DELETE CASCADE MATCH NONE</text>
</g>
</g>
</svg>
