<?xml version="1.0" encoding="UTF-8" standalone="no"?>
<!DOCTYPE svg PUBLIC "-//W3C//DTD SVG 1.1//EN"
 "http://www.w3.org/Graphics/SVG/1.1/DTD/svg11.dtd">
<!-- Generated by graphviz version 12.1.2 (20240928.0832)
 -->
<!-- Title: file_info_system Pages: 1 -->
<svg width="1824pt" height="627pt"
 viewBox="0.00 0.00 1824.34 626.80" xmlns="http://www.w3.org/2000/svg" xmlns:xlink="http://www.w3.org/1999/xlink">
<g id="graph0" class="graph" transform="scale(1 1) rotate(0) translate(4 622.8)">
<title>file_info_system</title>
<polygon fill="white" stroke="none" points="-4,4 -4,-622.8 1820.34,-622.8 1820.34,4 -4,4"/>
<!-- file_info_system -->
<g id="node1" class="node">
<title>file_info_system</title>
<polygon fill="#efefef" stroke="none" points="678.71,-478.4 678.71,-514 882.94,-514 882.94,-478.4 678.71,-478.4"/>
<polygon fill="none" stroke="black" points="678.71,-478.4 678.71,-514 882.94,-514 882.94,-478.4 678.71,-478.4"/>
<text text-anchor="start" x="685.71" y="-491.8" font-family="Arial Bold" font-size="18.00">file_info_system</text>
<text text-anchor="start" x="806.69" y="-491.8" font-family="Arial" font-size="14.00">    </text>
<text text-anchor="start" x="837.81" y="-491.8" font-family="Arial" font-size="14.00" fill="#666666">[table]</text>
<polygon fill="none" stroke="black" points="678.71,-447.6 678.71,-478.4 882.94,-478.4 882.94,-447.6 678.71,-447.6"/>
<text text-anchor="start" x="685.71" y="-459.8" font-family="Arial" font-size="14.00">file_info_id </text>
<text text-anchor="start" x="756.53" y="-459.8" font-family="Arial" font-size="14.00" fill="#666666">[INTEGER]</text>
<polygon fill="none" stroke="black" points="678.71,-416.8 678.71,-447.6 882.94,-447.6 882.94,-416.8 678.71,-416.8"/>
<text text-anchor="start" x="685.71" y="-429" font-family="Arial" font-size="14.00">system_id </text>
<text text-anchor="start" x="752.62" y="-429" font-family="Arial" font-size="14.00" fill="#666666">[INTEGER]</text>
<polygon fill="none" stroke="black" stroke-width="3" points="677.21,-415.3 677.21,-515.5 884.44,-515.5 884.44,-415.3 677.21,-415.3"/>
</g>
<!-- file_info -->
<g id="node2" class="node">
<title>file_info</title>
<polygon fill="#efefef" stroke="none" points="537.29,-197.2 537.29,-232.8 712.36,-232.8 712.36,-197.2 537.29,-197.2"/>
<polygon fill="none" stroke="black" points="537.29,-197.2 537.29,-232.8 712.36,-232.8 712.36,-197.2 537.29,-197.2"/>
<text text-anchor="start" x="559.21" y="-210.6" font-family="Arial Bold" font-size="18.00">file_info</text>
<text text-anchor="start" x="621.19" y="-210.6" font-family="Arial" font-size="14.00">    </text>
<text text-anchor="start" x="652.3" y="-210.6" font-family="Arial" font-size="14.00" fill="#666666">[table]</text>
<polygon fill="none" stroke="black" points="537.29,-166.4 537.29,-197.2 712.36,-197.2 712.36,-166.4 537.29,-166.4"/>
<text text-anchor="start" x="544.29" y="-178.6" font-family="Arial" font-size="14.00">id </text>
<text text-anchor="start" x="559.08" y="-178.6" font-family="Arial" font-size="14.00" fill="#666666">[INTEGER]</text>
<polygon fill="none" stroke="black" points="537.29,-135.6 537.29,-166.4 712.36,-166.4 712.36,-135.6 537.29,-135.6"/>
<text text-anchor="start" x="544.29" y="-147.8" font-family="Arial" font-size="14.00">sha1_checksum </text>
<text text-anchor="start" x="649.35" y="-147.8" font-family="Arial" font-size="14.00" fill="#666666">[BLOB]</text>
<polygon fill="none" stroke="black" points="537.29,-104.8 537.29,-135.6 712.36,-135.6 712.36,-104.8 537.29,-104.8"/>
<text text-anchor="start" x="544.29" y="-117" font-family="Arial" font-size="14.00">file_size </text>
<text text-anchor="start" x="598.76" y="-117" font-family="Arial" font-size="14.00" fill="#666666">[INTEGER]</text>
<polygon fill="none" stroke="black" points="537.29,-74 537.29,-104.8 712.36,-104.8 712.36,-74 537.29,-74"/>
<text text-anchor="start" x="544.29" y="-86.2" font-family="Arial" font-size="14.00">archive_file_name </text>
<text text-anchor="start" x="661.8" y="-86.2" font-family="Arial" font-size="14.00" fill="#666666">[TEXT]</text>
<polygon fill="none" stroke="black" points="537.29,-43.2 537.29,-74 712.36,-74 712.36,-43.2 537.29,-43.2"/>
<text text-anchor="start" x="544.29" y="-55.4" font-family="Arial" font-size="14.00">file_type </text>
<text text-anchor="start" x="600.32" y="-55.4" font-family="Arial" font-size="14.00" fill="#666666">[INTEGER]</text>
</g>
<!-- file_info_system&#45;&gt;file_info -->
<g id="edge1" class="edge">
<title>file_info_system:file_info_id&#45;&gt;file_info:id</title>
<path fill="none" stroke="black" d="M667.38,-462.24C568.76,-446.23 835.52,-181.8 713.36,-181.8"/>
<polygon fill="black" stroke="black" points="667.4,-462.24 677.04,-467.46 672.72,-462.63 677.04,-462.95 677.04,-462.95 677.04,-462.95 672.72,-462.63 677.7,-458.49 667.4,-462.24"/>
<text text-anchor="start" x="684.71" y="-473" font-family="Arial" font-size="10.00">FOREIGN KEY (file_info_id) REFERENCES file_info (id) ON UPDATE NO ACTION ON DELETE CASCADE MATCH NONE</text>
</g>
<!-- system -->
<g id="node4" class="node">
<title>system</title>
<polygon fill="#efefef" stroke="none" points="1005.2,-151 1005.2,-186.6 1138.45,-186.6 1138.45,-151 1005.2,-151"/>
<polygon fill="none" stroke="black" points="1005.2,-151 1005.2,-186.6 1138.45,-186.6 1138.45,-151 1005.2,-151"/>
<text text-anchor="start" x="1012.2" y="-164.4" font-family="Arial Bold" font-size="18.00">system</text>
<text text-anchor="start" x="1062.2" y="-164.4" font-family="Arial" font-size="14.00">    </text>
<text text-anchor="start" x="1093.31" y="-164.4" font-family="Arial" font-size="14.00" fill="#666666">[table]</text>
<polygon fill="none" stroke="black" points="1005.2,-120.2 1005.2,-151 1138.45,-151 1138.45,-120.2 1005.2,-120.2"/>
<text text-anchor="start" x="1012.2" y="-132.4" font-family="Arial" font-size="14.00">id </text>
<text text-anchor="start" x="1026.98" y="-132.4" font-family="Arial" font-size="14.00" fill="#666666">[INTEGER]</text>
<polygon fill="none" stroke="black" points="1005.2,-89.4 1005.2,-120.2 1138.45,-120.2 1138.45,-89.4 1005.2,-89.4"/>
<text text-anchor="start" x="1012.2" y="-101.6" font-family="Arial" font-size="14.00">name </text>
<text text-anchor="start" x="1051.11" y="-101.6" font-family="Arial" font-size="14.00" fill="#666666">[TEXT]</text>
</g>
<!-- file_info_system&#45;&gt;system -->
<g id="edge3" class="edge">
<title>file_info_system:system_id&#45;&gt;system:id</title>
<path fill="none" stroke="black" d="M892.73,-426.8C927.29,-386.6 971.48,-135.6 1004.2,-135.6"/>
<polygon fill="black" stroke="black" points="892.75,-426.79 881.87,-428.19 888.2,-429.58 884.51,-431.85 884.51,-431.85 884.51,-431.85 888.2,-429.58 886.58,-435.86 892.75,-426.79"/>
<text text-anchor="start" x="324.11" y="-442.2" font-family="Arial" font-size="10.00">FOREIGN KEY (system_id) REFERENCES system (id) ON UPDATE NO ACTION ON DELETE NO ACTION MATCH NONE</text>
</g>
<!-- file_set_file_info -->
<g id="node3" class="node">
<title>file_set_file_info</title>
<polygon fill="#efefef" stroke="none" points="364.22,-509.2 364.22,-544.8 571.43,-544.8 571.43,-509.2 364.22,-509.2"/>
<polygon fill="none" stroke="black" points="364.22,-509.2 364.22,-544.8 571.43,-544.8 571.43,-509.2 364.22,-509.2"/>
<text text-anchor="start" x="371.22" y="-522.6" font-family="Arial Bold" font-size="18.00">file_set_file_info</text>
<text text-anchor="start" x="495.18" y="-522.6" font-family="Arial" font-size="14.00">    </text>
<text text-anchor="start" x="526.29" y="-522.6" font-family="Arial" font-size="14.00" fill="#666666">[table]</text>
<polygon fill="none" stroke="black" points="364.22,-478.4 364.22,-509.2 571.43,-509.2 571.43,-478.4 364.22,-478.4"/>
<text text-anchor="start" x="371.22" y="-490.6" font-family="Arial" font-size="14.00">file_set_id </text>
<text text-anchor="start" x="438.15" y="-490.6" font-family="Arial" font-size="14.00" fill="#666666">[INTEGER]</text>
<polygon fill="none" stroke="black" points="364.22,-447.6 364.22,-478.4 571.43,-478.4 571.43,-447.6 364.22,-447.6"/>
<text text-anchor="start" x="371.22" y="-459.8" font-family="Arial" font-size="14.00">file_info_id </text>
<text text-anchor="start" x="442.04" y="-459.8" font-family="Arial" font-size="14.00" fill="#666666">[INTEGER]</text>
<polygon fill="none" stroke="black" points="364.22,-416.8 364.22,-447.6 571.43,-447.6 571.43,-416.8 364.22,-416.8"/>
<text text-anchor="start" x="371.22" y="-429" font-family="Arial" font-size="14.00">file_name </text>
<text text-anchor="start" x="435.81" y="-429" font-family="Arial" font-size="14.00" fill="#666666">[TEXT]</text>
<polygon fill="none" stroke="black" points="364.22,-386 364.22,-416.8 571.43,-416.8 571.43,-386 364.22,-386"/>
<text text-anchor="start" x="371.22" y="-398.2" font-family="Arial" font-size="14.00">sort_order </text>
<text text-anchor="start" x="438.91" y="-398.2" font-family="Arial" font-size="14.00" fill="#666666">[INTEGER]</text>
</g>
<!-- file_set_file_info&#45;&gt;file_info -->
<g id="edge2" class="edge">
<title>file_set_file_info:file_info_id&#45;&gt;file_info:id</title>
<path fill="none" stroke="black" d="M582.81,-461.91C619.83,-452.95 583.21,-390.84 571.43,-342.8 563.49,-310.42 545.27,-308.37 537.29,-276 527.27,-235.35 494.42,-181.8 536.29,-181.8"/>
<polygon fill="black" stroke="black" points="582.71,-461.92 572.29,-458.49 577.41,-462.48 573.1,-462.93 573.1,-462.93 573.1,-462.93 577.41,-462.48 573.24,-467.44 582.71,-461.92"/>
<text text-anchor="start" x="7" y="-473" font-family="Arial" font-size="10.00">FOREIGN KEY (file_info_id) REFERENCES file_info (id) ON UPDATE NO ACTION ON DELETE NO ACTION MATCH NONE</text>
</g>
<!-- emulator -->
<g id="node5" class="node">
<title>emulator</title>
<polygon fill="#efefef" stroke="none" points="990.53,-540 990.53,-575.6 1153.12,-575.6 1153.12,-540 990.53,-540"/>
<polygon fill="none" stroke="black" points="990.53,-540 990.53,-575.6 1153.12,-575.6 1153.12,-540 990.53,-540"/>
<text text-anchor="start" x="1005.21" y="-553.4" font-family="Arial Bold" font-size="18.00">emulator</text>
<text text-anchor="start" x="1069.19" y="-553.4" font-family="Arial" font-size="14.00">    </text>
<text text-anchor="start" x="1100.3" y="-553.4" font-family="Arial" font-size="14.00" fill="#666666">[table]</text>
<polygon fill="none" stroke="black" points="990.53,-509.2 990.53,-540 1153.12,-540 1153.12,-509.2 990.53,-509.2"/>
<text text-anchor="start" x="997.53" y="-521.4" font-family="Arial" font-size="14.00">id </text>
<text text-anchor="start" x="1012.31" y="-521.4" font-family="Arial" font-size="14.00" fill="#666666">[INTEGER]</text>
<polygon fill="none" stroke="black" points="990.53,-478.4 990.53,-509.2 1153.12,-509.2 1153.12,-478.4 990.53,-478.4"/>
<text text-anchor="start" x="997.53" y="-490.6" font-family="Arial" font-size="14.00">name </text>
<text text-anchor="start" x="1036.44" y="-490.6" font-family="Arial" font-size="14.00" fill="#666666">[TEXT]</text>
<polygon fill="none" stroke="black" points="990.53,-447.6 990.53,-478.4 1153.12,-478.4 1153.12,-447.6 990.53,-447.6"/>
<text text-anchor="start" x="997.53" y="-459.8" font-family="Arial" font-size="14.00">executable </text>
<text text-anchor="start" x="1069.13" y="-459.8" font-family="Arial" font-size="14.00" fill="#666666">[TEXT]</text>
<polygon fill="none" stroke="black" points="990.53,-416.8 990.53,-447.6 1153.12,-447.6 1153.12,-416.8 990.53,-416.8"/>
<text text-anchor="start" x="997.53" y="-429" font-family="Arial" font-size="14.00">extract_files </text>
<text text-anchor="start" x="1076.11" y="-429" font-family="Arial" font-size="14.00" fill="#666666">[INTEGER]</text>
<polygon fill="none" stroke="black" points="990.53,-386 990.53,-416.8 1153.12,-416.8 1153.12,-386 990.53,-386"/>
<text text-anchor="start" x="997.53" y="-398.2" font-family="Arial" font-size="14.00">arguments </text>
<text text-anchor="start" x="1067.56" y="-398.2" font-family="Arial" font-size="14.00" fill="#666666">[TEXT]</text>
<polygon fill="none" stroke="black" points="990.53,-355.2 990.53,-386 1153.12,-386 1153.12,-355.2 990.53,-355.2"/>
<text text-anchor="start" x="997.53" y="-367.4" font-family="Arial" font-size="14.00">system_id </text>
<text text-anchor="start" x="1064.44" y="-367.4" font-family="Arial" font-size="14.00" fill="#666666">[INTEGER]</text>
</g>
<!-- emulator&#45;&gt;system -->
<g id="edge4" class="edge">
<title>emulator:system_id&#45;&gt;system:id</title>
<path fill="none" stroke="black" d="M1072.33,-343.79C1077.68,-291.17 1123.78,-286.99 1138.45,-229.8 1148.86,-189.24 1181.32,-135.6 1139.45,-135.6"/>
<polygon fill="black" stroke="black" points="1072.33,-343.88 1067.35,-353.65 1072.07,-349.21 1071.86,-353.53 1071.86,-353.53 1071.86,-353.53 1072.07,-349.21 1076.34,-354.09 1072.33,-343.88"/>
<text text-anchor="start" x="1078.82" y="-338.2" font-family="Arial" font-size="10.00">FOREIGN KEY (system_id) REFERENCES system (id) ON UPDATE NO ACTION ON DELETE CASCADE MATCH NONE</text>
</g>
<!-- release_system -->
<g id="node6" class="node">
<title>release_system</title>
<polygon fill="#efefef" stroke="none" points="1257.72,-478.4 1257.72,-514 1449.93,-514 1449.93,-478.4 1257.72,-478.4"/>
<polygon fill="none" stroke="black" points="1257.72,-478.4 1257.72,-514 1449.93,-514 1449.93,-478.4 1257.72,-478.4"/>
<text text-anchor="start" x="1264.72" y="-491.8" font-family="Arial Bold" font-size="18.00">release_system</text>
<text text-anchor="start" x="1373.68" y="-491.8" font-family="Arial" font-size="14.00">    </text>
<text text-anchor="start" x="1404.79" y="-491.8" font-family="Arial" font-size="14.00" fill="#666666">[table]</text>
<polygon fill="none" stroke="black" points="1257.72,-447.6 1257.72,-478.4 1449.93,-478.4 1449.93,-447.6 1257.72,-447.6"/>
<text text-anchor="start" x="1264.72" y="-459.8" font-family="Arial" font-size="14.00">release_id </text>
<text text-anchor="start" x="1333.21" y="-459.8" font-family="Arial" font-size="14.00" fill="#666666">[INTEGER]</text>
<polygon fill="none" stroke="black" points="1257.72,-416.8 1257.72,-447.6 1449.93,-447.6 1449.93,-416.8 1257.72,-416.8"/>
<text text-anchor="start" x="1264.72" y="-429" font-family="Arial" font-size="14.00">system_id </text>
<text text-anchor="start" x="1331.63" y="-429" font-family="Arial" font-size="14.00" fill="#666666">[INTEGER]</text>
</g>
<!-- release_system&#45;&gt;system -->
<g id="edge5" class="edge">
<title>release_system:system_id&#45;&gt;system:id</title>
<path fill="none" stroke="black" d="M1248.01,-426.8C1213.92,-386.6 1172.05,-135.6 1139.45,-135.6"/>
<polygon fill="black" stroke="black" points="1247.93,-426.75 1254.06,-435.85 1252.47,-429.57 1256.15,-431.85 1256.15,-431.85 1256.15,-431.85 1252.47,-429.57 1258.8,-428.2 1247.93,-426.75"/>
<text text-anchor="start" x="1263.72" y="-442.2" font-family="Arial" font-size="10.00">FOREIGN KEY (system_id) REFERENCES system (id) ON UPDATE NO ACTION ON DELETE CASCADE MATCH NONE</text>
</g>
</g>
</svg>
