<?xml version="1.0" encoding="UTF-8" standalone="no"?>
<!DOCTYPE svg PUBLIC "-//W3C//DTD SVG 1.1//EN"
 "http://www.w3.org/Graphics/SVG/1.1/DTD/svg11.dtd">
<!-- Generated by graphviz version 12.1.2 (20240928.0832)
 -->
<!-- Title: file_info Pages: 1 -->
<svg width="1713pt" height="602pt"
 viewBox="0.00 0.00 1713.22 602.00" xmlns="http://www.w3.org/2000/svg" xmlns:xlink="http://www.w3.org/1999/xlink">
<g id="graph0" class="graph" transform="scale(1 1) rotate(0) translate(4 598)">
<title>file_info</title>
<polygon fill="white" stroke="none" points="-4,4 -4,-598 1709.22,-598 1709.22,4 -4,4"/>
<!-- file_info -->
<g id="node1" class="node">
<title>file_info</title>
<polygon fill="#efefef" stroke="none" points="722.42,-231 722.42,-266.6 925.49,-266.6 925.49,-231 722.42,-231"/>
<polygon fill="none" stroke="black" points="722.42,-231 722.42,-266.6 925.49,-266.6 925.49,-231 722.42,-231"/>
<text text-anchor="start" x="758.34" y="-244.4" font-family="Arial Bold" font-size="18.00">file_info</text>
<text text-anchor="start" x="820.32" y="-244.4" font-family="Arial" font-size="14.00">    </text>
<text text-anchor="start" x="851.44" y="-244.4" font-family="Arial" font-size="14.00" fill="#666666">[table]</text>
<polygon fill="none" stroke="black" points="722.42,-200.2 722.42,-231 925.49,-231 925.49,-200.2 722.42,-200.2"/>
<text text-anchor="start" x="729.42" y="-212.4" font-family="Arial" font-size="14.00">id </text>
<text text-anchor="start" x="744.2" y="-212.4" font-family="Arial" font-size="14.00" fill="#666666">[INTEGER]</text>
<polygon fill="none" stroke="black" points="722.42,-169.4 722.42,-200.2 925.49,-200.2 925.49,-169.4 722.42,-169.4"/>
<text text-anchor="start" x="729.42" y="-181.6" font-family="Arial" font-size="14.00">sha1_checksum </text>
<text text-anchor="start" x="834.47" y="-181.6" font-family="Arial" font-size="14.00" fill="#666666">[BLOB]</text>
<polygon fill="none" stroke="black" points="722.42,-138.6 722.42,-169.4 925.49,-169.4 925.49,-138.6 722.42,-138.6"/>
<text text-anchor="start" x="729.42" y="-150.8" font-family="Arial" font-size="14.00">file_size </text>
<text text-anchor="start" x="783.89" y="-150.8" font-family="Arial" font-size="14.00" fill="#666666">[INTEGER]</text>
<polygon fill="none" stroke="black" points="722.42,-107.8 722.42,-138.6 925.49,-138.6 925.49,-107.8 722.42,-107.8"/>
<text text-anchor="start" x="729.42" y="-120" font-family="Arial" font-size="14.00">archive_file_name </text>
<text text-anchor="start" x="846.93" y="-120" font-family="Arial" font-size="14.00" fill="#666666">[TEXT]</text>
<polygon fill="none" stroke="black" points="722.42,-77 722.42,-107.8 925.49,-107.8 925.49,-77 722.42,-77"/>
<text text-anchor="start" x="729.42" y="-89.2" font-family="Arial" font-size="14.00">file_type </text>
<text text-anchor="start" x="785.45" y="-89.2" font-family="Arial" font-size="14.00" fill="#666666">[INTEGER]</text>
<polygon fill="none" stroke="black" points="722.42,-46.2 722.42,-77 925.49,-77 925.49,-46.2 722.42,-46.2"/>
<text text-anchor="start" x="729.42" y="-58.4" font-family="Arial" font-size="14.00">cloud_sync_status </text>
<text text-anchor="start" x="848.49" y="-58.4" font-family="Arial" font-size="14.00" fill="#666666">[INTEGER]</text>
<polygon fill="none" stroke="black" stroke-width="3" points="720.92,-44.7 720.92,-268.1 926.99,-268.1 926.99,-44.7 720.92,-44.7"/>
</g>
<!-- file_info_system -->
<g id="node2" class="node">
<title>file_info_system</title>
<polygon fill="#efefef" stroke="none" points="567.84,-484.4 567.84,-520 772.07,-520 772.07,-484.4 567.84,-484.4"/>
<polygon fill="none" stroke="black" points="567.84,-484.4 567.84,-520 772.07,-520 772.07,-484.4 567.84,-484.4"/>
<text text-anchor="start" x="574.84" y="-497.8" font-family="Arial Bold" font-size="18.00">file_info_system</text>
<text text-anchor="start" x="695.82" y="-497.8" font-family="Arial" font-size="14.00">    </text>
<text text-anchor="start" x="726.94" y="-497.8" font-family="Arial" font-size="14.00" fill="#666666">[table]</text>
<polygon fill="none" stroke="black" points="567.84,-453.6 567.84,-484.4 772.07,-484.4 772.07,-453.6 567.84,-453.6"/>
<text text-anchor="start" x="574.84" y="-465.8" font-family="Arial" font-size="14.00">file_info_id </text>
<text text-anchor="start" x="645.66" y="-465.8" font-family="Arial" font-size="14.00" fill="#666666">[INTEGER]</text>
<polygon fill="none" stroke="black" points="567.84,-422.8 567.84,-453.6 772.07,-453.6 772.07,-422.8 567.84,-422.8"/>
<text text-anchor="start" x="574.84" y="-435" font-family="Arial" font-size="14.00">system_id </text>
<text text-anchor="start" x="641.75" y="-435" font-family="Arial" font-size="14.00" fill="#666666">[INTEGER]</text>
</g>
<!-- file_info_system&#45;&gt;file_info -->
<g id="edge1" class="edge">
<title>file_info_system:file_info_id&#45;&gt;file_info:id</title>
<path fill="none" stroke="black" d="M783.17,-467.47C807.27,-458.63 783.48,-413.43 772.07,-379.6 760.25,-344.55 734.22,-347.86 722.42,-312.8 708.63,-271.86 678.22,-215.6 721.42,-215.6"/>
<polygon fill="black" stroke="black" points="783.29,-467.45 772.73,-464.5 778.02,-468.25 773.73,-468.9 773.73,-468.9 773.73,-468.9 778.02,-468.25 774.08,-473.4 783.29,-467.45"/>
<text text-anchor="start" x="214.85" y="-479" font-family="Arial" font-size="10.00">FOREIGN KEY (file_info_id) REFERENCES file_info (id) ON UPDATE NO ACTION ON DELETE CASCADE MATCH NONE</text>
</g>
<!-- system -->
<g id="node3" class="node">
<title>system</title>
<polygon fill="#efefef" stroke="none" points="481.33,-169.4 481.33,-205 614.58,-205 614.58,-169.4 481.33,-169.4"/>
<polygon fill="none" stroke="black" points="481.33,-169.4 481.33,-205 614.58,-205 614.58,-169.4 481.33,-169.4"/>
<text text-anchor="start" x="488.33" y="-182.8" font-family="Arial Bold" font-size="18.00">system</text>
<text text-anchor="start" x="538.33" y="-182.8" font-family="Arial" font-size="14.00">    </text>
<text text-anchor="start" x="569.45" y="-182.8" font-family="Arial" font-size="14.00" fill="#666666">[table]</text>
<polygon fill="none" stroke="black" points="481.33,-138.6 481.33,-169.4 614.58,-169.4 614.58,-138.6 481.33,-138.6"/>
<text text-anchor="start" x="488.33" y="-150.8" font-family="Arial" font-size="14.00">id </text>
<text text-anchor="start" x="503.11" y="-150.8" font-family="Arial" font-size="14.00" fill="#666666">[INTEGER]</text>
<polygon fill="none" stroke="black" points="481.33,-107.8 481.33,-138.6 614.58,-138.6 614.58,-107.8 481.33,-107.8"/>
<text text-anchor="start" x="488.33" y="-120" font-family="Arial" font-size="14.00">name </text>
<text text-anchor="start" x="527.24" y="-120" font-family="Arial" font-size="14.00" fill="#666666">[TEXT]</text>
</g>
<!-- file_info_system&#45;&gt;system -->
<g id="edge2" class="edge">
<title>file_info_system:system_id&#45;&gt;system:id</title>
<path fill="none" stroke="black" d="M556.67,-437.48C456.18,-421.79 739.98,-154 615.58,-154"/>
<polygon fill="black" stroke="black" points="556.53,-437.47 566.19,-442.67 561.85,-437.85 566.17,-438.15 566.17,-438.15 566.17,-438.15 561.85,-437.85 566.82,-433.69 556.53,-437.47"/>
<text text-anchor="start" x="7" y="-448.2" font-family="Arial" font-size="10.00">FOREIGN KEY (system_id) REFERENCES system (id) ON UPDATE NO ACTION ON DELETE NO ACTION MATCH NONE</text>
</g>
<!-- file_set_file_info -->
<g id="node4" class="node">
<title>file_set_file_info</title>
<polygon fill="#efefef" stroke="none" points="937.35,-515.2 937.35,-550.8 1144.56,-550.8 1144.56,-515.2 937.35,-515.2"/>
<polygon fill="none" stroke="black" points="937.35,-515.2 937.35,-550.8 1144.56,-550.8 1144.56,-515.2 937.35,-515.2"/>
<text text-anchor="start" x="944.35" y="-528.6" font-family="Arial Bold" font-size="18.00">file_set_file_info</text>
<text text-anchor="start" x="1068.31" y="-528.6" font-family="Arial" font-size="14.00">    </text>
<text text-anchor="start" x="1099.43" y="-528.6" font-family="Arial" font-size="14.00" fill="#666666">[table]</text>
<polygon fill="none" stroke="black" points="937.35,-484.4 937.35,-515.2 1144.56,-515.2 1144.56,-484.4 937.35,-484.4"/>
<text text-anchor="start" x="944.35" y="-496.6" font-family="Arial" font-size="14.00">file_set_id </text>
<text text-anchor="start" x="1011.28" y="-496.6" font-family="Arial" font-size="14.00" fill="#666666">[INTEGER]</text>
<polygon fill="none" stroke="black" points="937.35,-453.6 937.35,-484.4 1144.56,-484.4 1144.56,-453.6 937.35,-453.6"/>
<text text-anchor="start" x="944.35" y="-465.8" font-family="Arial" font-size="14.00">file_info_id </text>
<text text-anchor="start" x="1015.17" y="-465.8" font-family="Arial" font-size="14.00" fill="#666666">[INTEGER]</text>
<polygon fill="none" stroke="black" points="937.35,-422.8 937.35,-453.6 1144.56,-453.6 1144.56,-422.8 937.35,-422.8"/>
<text text-anchor="start" x="944.35" y="-435" font-family="Arial" font-size="14.00">file_name </text>
<text text-anchor="start" x="1008.94" y="-435" font-family="Arial" font-size="14.00" fill="#666666">[TEXT]</text>
<polygon fill="none" stroke="black" points="937.35,-392 937.35,-422.8 1144.56,-422.8 1144.56,-392 937.35,-392"/>
<text text-anchor="start" x="944.35" y="-404.2" font-family="Arial" font-size="14.00">sort_order </text>
<text text-anchor="start" x="1012.04" y="-404.2" font-family="Arial" font-size="14.00" fill="#666666">[INTEGER]</text>
</g>
<!-- file_set_file_info&#45;&gt;file_info -->
<g id="edge3" class="edge">
<title>file_set_file_info:file_info_id&#45;&gt;file_info:id</title>
<path fill="none" stroke="black" d="M926.18,-468.18C837.59,-452.45 1035.46,-215.6 926.49,-215.6"/>
<polygon fill="black" stroke="black" points="926.05,-468.17 935.65,-473.46 931.36,-468.6 935.68,-468.95 935.68,-468.95 935.68,-468.95 931.36,-468.6 936.38,-464.49 926.05,-468.17"/>
<text text-anchor="start" x="943.35" y="-479" font-family="Arial" font-size="10.00">FOREIGN KEY (file_info_id) REFERENCES file_info (id) ON UPDATE NO ACTION ON DELETE CASCADE MATCH NONE</text>
</g>
<!-- file_set -->
<g id="node5" class="node">
<title>file_set</title>
<polygon fill="#efefef" stroke="none" points="1032.93,-215.6 1032.93,-251.2 1172.98,-251.2 1172.98,-215.6 1032.93,-215.6"/>
<polygon fill="none" stroke="black" points="1032.93,-215.6 1032.93,-251.2 1172.98,-251.2 1172.98,-215.6 1032.93,-215.6"/>
<text text-anchor="start" x="1041.84" y="-229" font-family="Arial Bold" font-size="18.00">file_set</text>
<text text-anchor="start" x="1094.82" y="-229" font-family="Arial" font-size="14.00">    </text>
<text text-anchor="start" x="1125.94" y="-229" font-family="Arial" font-size="14.00" fill="#666666">[table]</text>
<polygon fill="none" stroke="black" points="1032.93,-184.8 1032.93,-215.6 1172.98,-215.6 1172.98,-184.8 1032.93,-184.8"/>
<text text-anchor="start" x="1039.93" y="-197" font-family="Arial" font-size="14.00">id </text>
<text text-anchor="start" x="1054.72" y="-197" font-family="Arial" font-size="14.00" fill="#666666">[INTEGER]</text>
<polygon fill="none" stroke="black" points="1032.93,-154 1032.93,-184.8 1172.98,-184.8 1172.98,-154 1032.93,-154"/>
<text text-anchor="start" x="1039.93" y="-166.2" font-family="Arial" font-size="14.00">file_name </text>
<text text-anchor="start" x="1104.53" y="-166.2" font-family="Arial" font-size="14.00" fill="#666666">[TEXT]</text>
<polygon fill="none" stroke="black" points="1032.93,-123.2 1032.93,-154 1172.98,-154 1172.98,-123.2 1032.93,-123.2"/>
<text text-anchor="start" x="1039.93" y="-135.4" font-family="Arial" font-size="14.00">file_type </text>
<text text-anchor="start" x="1095.97" y="-135.4" font-family="Arial" font-size="14.00" fill="#666666">[INTEGER]</text>
<polygon fill="none" stroke="black" points="1032.93,-92.4 1032.93,-123.2 1172.98,-123.2 1172.98,-92.4 1032.93,-92.4"/>
<text text-anchor="start" x="1039.93" y="-104.6" font-family="Arial" font-size="14.00">name </text>
<text text-anchor="start" x="1078.84" y="-104.6" font-family="Arial" font-size="14.00" fill="#666666">[TEXT]</text>
<polygon fill="none" stroke="black" points="1032.93,-61.6 1032.93,-92.4 1172.98,-92.4 1172.98,-61.6 1032.93,-61.6"/>
<text text-anchor="start" x="1039.93" y="-73.8" font-family="Arial" font-size="14.00">source </text>
<text text-anchor="start" x="1085.84" y="-73.8" font-family="Arial" font-size="14.00" fill="#666666">[TEXT]</text>
</g>
<!-- file_set_file_info&#45;&gt;file_set -->
<g id="edge4" class="edge">
<title>file_set_file_info:file_set_id&#45;&gt;file_set:id</title>
<path fill="none" stroke="black" d="M1155.7,-498.98C1209.13,-489.61 1178.37,-402.49 1144.56,-348.8 1115.15,-302.1 1062.44,-341.04 1032.93,-294.4 1010.55,-259.01 990.07,-200.2 1031.93,-200.2"/>
<polygon fill="black" stroke="black" points="1155.86,-498.96 1145.53,-495.29 1150.55,-499.39 1146.23,-499.75 1146.23,-499.75 1146.23,-499.75 1150.55,-499.39 1146.26,-504.26 1155.86,-498.96"/>
<text text-anchor="start" x="1152.56" y="-509.8" font-family="Arial" font-size="10.00">FOREIGN KEY (file_set_id) REFERENCES file_set (id) ON UPDATE NO ACTION ON DELETE CASCADE MATCH NONE</text>
</g>
</g>
</svg>
