<?xml version="1.0" encoding="UTF-8" standalone="no"?>
<!DOCTYPE svg PUBLIC "-//W3C//DTD SVG 1.1//EN"
 "http://www.w3.org/Graphics/SVG/1.1/DTD/svg11.dtd">
<!-- Generated by graphviz version 12.1.2 (20240928.0832)
 -->
<!-- Title: file_info Pages: 1 -->
<svg width="1706pt" height="571pt"
 viewBox="0.00 0.00 1706.22 571.20" xmlns="http://www.w3.org/2000/svg" xmlns:xlink="http://www.w3.org/1999/xlink">
<g id="graph0" class="graph" transform="scale(1 1) rotate(0) translate(4 567.2)">
<title>file_info</title>
<polygon fill="white" stroke="none" points="-4,4 -4,-567.2 1702.22,-567.2 1702.22,4 -4,4"/>
<!-- file_info -->
<g id="node1" class="node">
<title>file_info</title>
<polygon fill="#efefef" stroke="none" points="736.42,-200.2 736.42,-235.8 911.49,-235.8 911.49,-200.2 736.42,-200.2"/>
<polygon fill="none" stroke="black" points="736.42,-200.2 736.42,-235.8 911.49,-235.8 911.49,-200.2 736.42,-200.2"/>
<text text-anchor="start" x="758.34" y="-213.6" font-family="Arial Bold" font-size="18.00">file_info</text>
<text text-anchor="start" x="820.32" y="-213.6" font-family="Arial" font-size="14.00">    </text>
<text text-anchor="start" x="851.44" y="-213.6" font-family="Arial" font-size="14.00" fill="#666666">[table]</text>
<polygon fill="none" stroke="black" points="736.42,-169.4 736.42,-200.2 911.49,-200.2 911.49,-169.4 736.42,-169.4"/>
<text text-anchor="start" x="743.42" y="-181.6" font-family="Arial" font-size="14.00">id </text>
<text text-anchor="start" x="758.21" y="-181.6" font-family="Arial" font-size="14.00" fill="#666666">[INTEGER]</text>
<polygon fill="none" stroke="black" points="736.42,-138.6 736.42,-169.4 911.49,-169.4 911.49,-138.6 736.42,-138.6"/>
<text text-anchor="start" x="743.42" y="-150.8" font-family="Arial" font-size="14.00">sha1_checksum </text>
<text text-anchor="start" x="848.48" y="-150.8" font-family="Arial" font-size="14.00" fill="#666666">[BLOB]</text>
<polygon fill="none" stroke="black" points="736.42,-107.8 736.42,-138.6 911.49,-138.6 911.49,-107.8 736.42,-107.8"/>
<text text-anchor="start" x="743.42" y="-120" font-family="Arial" font-size="14.00">file_size </text>
<text text-anchor="start" x="797.89" y="-120" font-family="Arial" font-size="14.00" fill="#666666">[INTEGER]</text>
<polygon fill="none" stroke="black" points="736.42,-77 736.42,-107.8 911.49,-107.8 911.49,-77 736.42,-77"/>
<text text-anchor="start" x="743.42" y="-89.2" font-family="Arial" font-size="14.00">archive_file_name </text>
<text text-anchor="start" x="860.93" y="-89.2" font-family="Arial" font-size="14.00" fill="#666666">[TEXT]</text>
<polygon fill="none" stroke="black" points="736.42,-46.2 736.42,-77 911.49,-77 911.49,-46.2 736.42,-46.2"/>
<text text-anchor="start" x="743.42" y="-58.4" font-family="Arial" font-size="14.00">file_type </text>
<text text-anchor="start" x="799.46" y="-58.4" font-family="Arial" font-size="14.00" fill="#666666">[INTEGER]</text>
<polygon fill="none" stroke="black" stroke-width="3" points="734.92,-44.7 734.92,-237.3 912.99,-237.3 912.99,-44.7 734.92,-44.7"/>
</g>
<!-- file_info_system -->
<g id="node2" class="node">
<title>file_info_system</title>
<polygon fill="#efefef" stroke="none" points="567.84,-453.6 567.84,-489.2 772.07,-489.2 772.07,-453.6 567.84,-453.6"/>
<polygon fill="none" stroke="black" points="567.84,-453.6 567.84,-489.2 772.07,-489.2 772.07,-453.6 567.84,-453.6"/>
<text text-anchor="start" x="574.84" y="-467" font-family="Arial Bold" font-size="18.00">file_info_system</text>
<text text-anchor="start" x="695.82" y="-467" font-family="Arial" font-size="14.00">    </text>
<text text-anchor="start" x="726.94" y="-467" font-family="Arial" font-size="14.00" fill="#666666">[table]</text>
<polygon fill="none" stroke="black" points="567.84,-422.8 567.84,-453.6 772.07,-453.6 772.07,-422.8 567.84,-422.8"/>
<text text-anchor="start" x="574.84" y="-435" font-family="Arial" font-size="14.00">file_info_id </text>
<text text-anchor="start" x="645.66" y="-435" font-family="Arial" font-size="14.00" fill="#666666">[INTEGER]</text>
<polygon fill="none" stroke="black" points="567.84,-392 567.84,-422.8 772.07,-422.8 772.07,-392 567.84,-392"/>
<text text-anchor="start" x="574.84" y="-404.2" font-family="Arial" font-size="14.00">system_id </text>
<text text-anchor="start" x="641.75" y="-404.2" font-family="Arial" font-size="14.00" fill="#666666">[INTEGER]</text>
</g>
<!-- file_info_system&#45;&gt;file_info -->
<g id="edge1" class="edge">
<title>file_info_system:file_info_id&#45;&gt;file_info:id</title>
<path fill="none" stroke="black" d="M783.09,-436.69C806.75,-427.99 780.93,-383.38 772.07,-348.8 763.72,-316.2 744.76,-314.6 736.42,-282 725.72,-240.14 692.22,-184.8 735.42,-184.8"/>
<polygon fill="black" stroke="black" points="783.29,-436.66 772.73,-433.7 778.02,-437.46 773.73,-438.1 773.73,-438.1 773.73,-438.1 778.02,-437.46 774.07,-442.6 783.29,-436.66"/>
<text text-anchor="start" x="214.85" y="-448.2" font-family="Arial" font-size="10.00">FOREIGN KEY (file_info_id) REFERENCES file_info (id) ON UPDATE NO ACTION ON DELETE CASCADE MATCH NONE</text>
</g>
<!-- system -->
<g id="node3" class="node">
<title>system</title>
<polygon fill="#efefef" stroke="none" points="495.33,-154 495.33,-189.6 628.58,-189.6 628.58,-154 495.33,-154"/>
<polygon fill="none" stroke="black" points="495.33,-154 495.33,-189.6 628.58,-189.6 628.58,-154 495.33,-154"/>
<text text-anchor="start" x="502.33" y="-167.4" font-family="Arial Bold" font-size="18.00">system</text>
<text text-anchor="start" x="552.33" y="-167.4" font-family="Arial" font-size="14.00">    </text>
<text text-anchor="start" x="583.45" y="-167.4" font-family="Arial" font-size="14.00" fill="#666666">[table]</text>
<polygon fill="none" stroke="black" points="495.33,-123.2 495.33,-154 628.58,-154 628.58,-123.2 495.33,-123.2"/>
<text text-anchor="start" x="502.33" y="-135.4" font-family="Arial" font-size="14.00">id </text>
<text text-anchor="start" x="517.11" y="-135.4" font-family="Arial" font-size="14.00" fill="#666666">[INTEGER]</text>
<polygon fill="none" stroke="black" points="495.33,-92.4 495.33,-123.2 628.58,-123.2 628.58,-92.4 495.33,-92.4"/>
<text text-anchor="start" x="502.33" y="-104.6" font-family="Arial" font-size="14.00">name </text>
<text text-anchor="start" x="541.24" y="-104.6" font-family="Arial" font-size="14.00" fill="#666666">[TEXT]</text>
</g>
<!-- file_info_system&#45;&gt;system -->
<g id="edge2" class="edge">
<title>file_info_system:system_id&#45;&gt;system:id</title>
<path fill="none" stroke="black" d="M556.96,-404.41C547.74,-395.67 562.56,-369.5 567.84,-348.8 591.9,-254.45 726.95,-138.6 629.58,-138.6"/>
<polygon fill="black" stroke="black" points="556.95,-404.4 565.21,-411.61 562.05,-405.95 566.2,-407.21 566.2,-407.21 566.2,-407.21 562.05,-405.95 567.82,-403 556.95,-404.4"/>
<text text-anchor="start" x="7" y="-417.4" font-family="Arial" font-size="10.00">FOREIGN KEY (system_id) REFERENCES system (id) ON UPDATE NO ACTION ON DELETE NO ACTION MATCH NONE</text>
</g>
<!-- file_set_file_info -->
<g id="node4" class="node">
<title>file_set_file_info</title>
<polygon fill="#efefef" stroke="none" points="930.35,-484.4 930.35,-520 1137.56,-520 1137.56,-484.4 930.35,-484.4"/>
<polygon fill="none" stroke="black" points="930.35,-484.4 930.35,-520 1137.56,-520 1137.56,-484.4 930.35,-484.4"/>
<text text-anchor="start" x="937.35" y="-497.8" font-family="Arial Bold" font-size="18.00">file_set_file_info</text>
<text text-anchor="start" x="1061.31" y="-497.8" font-family="Arial" font-size="14.00">    </text>
<text text-anchor="start" x="1092.43" y="-497.8" font-family="Arial" font-size="14.00" fill="#666666">[table]</text>
<polygon fill="none" stroke="black" points="930.35,-453.6 930.35,-484.4 1137.56,-484.4 1137.56,-453.6 930.35,-453.6"/>
<text text-anchor="start" x="937.35" y="-465.8" font-family="Arial" font-size="14.00">file_set_id </text>
<text text-anchor="start" x="1004.28" y="-465.8" font-family="Arial" font-size="14.00" fill="#666666">[INTEGER]</text>
<polygon fill="none" stroke="black" points="930.35,-422.8 930.35,-453.6 1137.56,-453.6 1137.56,-422.8 930.35,-422.8"/>
<text text-anchor="start" x="937.35" y="-435" font-family="Arial" font-size="14.00">file_info_id </text>
<text text-anchor="start" x="1008.17" y="-435" font-family="Arial" font-size="14.00" fill="#666666">[INTEGER]</text>
<polygon fill="none" stroke="black" points="930.35,-392 930.35,-422.8 1137.56,-422.8 1137.56,-392 930.35,-392"/>
<text text-anchor="start" x="937.35" y="-404.2" font-family="Arial" font-size="14.00">file_name </text>
<text text-anchor="start" x="1001.94" y="-404.2" font-family="Arial" font-size="14.00" fill="#666666">[TEXT]</text>
<polygon fill="none" stroke="black" points="930.35,-361.2 930.35,-392 1137.56,-392 1137.56,-361.2 930.35,-361.2"/>
<text text-anchor="start" x="937.35" y="-373.4" font-family="Arial" font-size="14.00">sort_order </text>
<text text-anchor="start" x="1005.04" y="-373.4" font-family="Arial" font-size="14.00" fill="#666666">[INTEGER]</text>
</g>
<!-- file_set_file_info&#45;&gt;file_info -->
<g id="edge3" class="edge">
<title>file_set_file_info:file_info_id&#45;&gt;file_info:id</title>
<path fill="none" stroke="black" d="M919.14,-437.38C829.99,-421.65 1021.61,-184.8 912.49,-184.8"/>
<polygon fill="black" stroke="black" points="919.05,-437.37 928.65,-442.66 924.36,-437.8 928.68,-438.15 928.68,-438.15 928.68,-438.15 924.36,-437.8 929.37,-433.69 919.05,-437.37"/>
<text text-anchor="start" x="936.35" y="-448.2" font-family="Arial" font-size="10.00">FOREIGN KEY (file_info_id) REFERENCES file_info (id) ON UPDATE NO ACTION ON DELETE CASCADE MATCH NONE</text>
</g>
<!-- file_set -->
<g id="node5" class="node">
<title>file_set</title>
<polygon fill="#efefef" stroke="none" points="1018.93,-200.2 1018.93,-235.8 1158.98,-235.8 1158.98,-200.2 1018.93,-200.2"/>
<polygon fill="none" stroke="black" points="1018.93,-200.2 1018.93,-235.8 1158.98,-235.8 1158.98,-200.2 1018.93,-200.2"/>
<text text-anchor="start" x="1027.84" y="-213.6" font-family="Arial Bold" font-size="18.00">file_set</text>
<text text-anchor="start" x="1080.82" y="-213.6" font-family="Arial" font-size="14.00">    </text>
<text text-anchor="start" x="1111.94" y="-213.6" font-family="Arial" font-size="14.00" fill="#666666">[table]</text>
<polygon fill="none" stroke="black" points="1018.93,-169.4 1018.93,-200.2 1158.98,-200.2 1158.98,-169.4 1018.93,-169.4"/>
<text text-anchor="start" x="1025.93" y="-181.6" font-family="Arial" font-size="14.00">id </text>
<text text-anchor="start" x="1040.72" y="-181.6" font-family="Arial" font-size="14.00" fill="#666666">[INTEGER]</text>
<polygon fill="none" stroke="black" points="1018.93,-138.6 1018.93,-169.4 1158.98,-169.4 1158.98,-138.6 1018.93,-138.6"/>
<text text-anchor="start" x="1025.93" y="-150.8" font-family="Arial" font-size="14.00">file_name </text>
<text text-anchor="start" x="1090.53" y="-150.8" font-family="Arial" font-size="14.00" fill="#666666">[TEXT]</text>
<polygon fill="none" stroke="black" points="1018.93,-107.8 1018.93,-138.6 1158.98,-138.6 1158.98,-107.8 1018.93,-107.8"/>
<text text-anchor="start" x="1025.93" y="-120" font-family="Arial" font-size="14.00">file_type </text>
<text text-anchor="start" x="1081.97" y="-120" font-family="Arial" font-size="14.00" fill="#666666">[INTEGER]</text>
<polygon fill="none" stroke="black" points="1018.93,-77 1018.93,-107.8 1158.98,-107.8 1158.98,-77 1018.93,-77"/>
<text text-anchor="start" x="1025.93" y="-89.2" font-family="Arial" font-size="14.00">name </text>
<text text-anchor="start" x="1064.84" y="-89.2" font-family="Arial" font-size="14.00" fill="#666666">[TEXT]</text>
<polygon fill="none" stroke="black" points="1018.93,-46.2 1018.93,-77 1158.98,-77 1158.98,-46.2 1018.93,-46.2"/>
<text text-anchor="start" x="1025.93" y="-58.4" font-family="Arial" font-size="14.00">source </text>
<text text-anchor="start" x="1071.84" y="-58.4" font-family="Arial" font-size="14.00" fill="#666666">[TEXT]</text>
</g>
<!-- file_set_file_info&#45;&gt;file_set -->
<g id="edge4" class="edge">
<title>file_set_file_info:file_set_id&#45;&gt;file_set:id</title>
<path fill="none" stroke="black" d="M1148.73,-468.15C1202.52,-458.54 1174.93,-369.27 1137.56,-318 1104.87,-273.15 1051.72,-323.78 1018.93,-279 994.2,-245.22 976.07,-184.8 1017.93,-184.8"/>
<polygon fill="black" stroke="black" points="1148.86,-468.14 1138.52,-464.49 1143.55,-468.59 1139.23,-468.94 1139.23,-468.94 1139.23,-468.94 1143.55,-468.59 1139.27,-473.46 1148.86,-468.14"/>
<text text-anchor="start" x="1145.56" y="-479" font-family="Arial" font-size="10.00">FOREIGN KEY (file_set_id) REFERENCES file_set (id) ON UPDATE NO ACTION ON DELETE CASCADE MATCH NONE</text>
</g>
</g>
</svg>
