<?xml version="1.0" encoding="UTF-8" standalone="no"?>
<!DOCTYPE svg PUBLIC "-//W3C//DTD SVG 1.1//EN"
 "http://www.w3.org/Graphics/SVG/1.1/DTD/svg11.dtd">
<!-- Generated by graphviz version 12.1.2 (20240928.0832)
 -->
<!-- Title: file_info Pages: 1 -->
<svg width="1706pt" height="602pt"
 viewBox="0.00 0.00 1706.22 602.00" xmlns="http://www.w3.org/2000/svg" xmlns:xlink="http://www.w3.org/1999/xlink">
<g id="graph0" class="graph" transform="scale(1 1) rotate(0) translate(4 598)">
<title>file_info</title>
<polygon fill="white" stroke="none" points="-4,4 -4,-598 1702.22,-598 1702.22,4 -4,4"/>
<!-- file_info -->
<g id="node1" class="node">
<title>file_info</title>
<polygon fill="#efefef" stroke="none" points="736.42,-231 736.42,-266.6 911.49,-266.6 911.49,-231 736.42,-231"/>
<polygon fill="none" stroke="black" points="736.42,-231 736.42,-266.6 911.49,-266.6 911.49,-231 736.42,-231"/>
<text text-anchor="start" x="758.34" y="-244.4" font-family="Arial Bold" font-size="18.00">file_info</text>
<text text-anchor="start" x="820.32" y="-244.4" font-family="Arial" font-size="14.00">    </text>
<text text-anchor="start" x="851.44" y="-244.4" font-family="Arial" font-size="14.00" fill="#666666">[table]</text>
<polygon fill="none" stroke="black" points="736.42,-200.2 736.42,-231 911.49,-231 911.49,-200.2 736.42,-200.2"/>
<text text-anchor="start" x="743.42" y="-212.4" font-family="Arial" font-size="14.00">id </text>
<text text-anchor="start" x="758.21" y="-212.4" font-family="Arial" font-size="14.00" fill="#666666">[INTEGER]</text>
<polygon fill="none" stroke="black" points="736.42,-169.4 736.42,-200.2 911.49,-200.2 911.49,-169.4 736.42,-169.4"/>
<text text-anchor="start" x="743.42" y="-181.6" font-family="Arial" font-size="14.00">sha1_checksum </text>
<text text-anchor="start" x="848.48" y="-181.6" font-family="Arial" font-size="14.00" fill="#666666">[BLOB]</text>
<polygon fill="none" stroke="black" points="736.42,-138.6 736.42,-169.4 911.49,-169.4 911.49,-138.6 736.42,-138.6"/>
<text text-anchor="start" x="743.42" y="-150.8" font-family="Arial" font-size="14.00">file_size </text>
<text text-anchor="start" x="797.89" y="-150.8" font-family="Arial" font-size="14.00" fill="#666666">[INTEGER]</text>
<polygon fill="none" stroke="black" points="736.42,-107.8 736.42,-138.6 911.49,-138.6 911.49,-107.8 736.42,-107.8"/>
<text text-anchor="start" x="743.42" y="-120" font-family="Arial" font-size="14.00">archive_file_name </text>
<text text-anchor="start" x="860.93" y="-120" font-family="Arial" font-size="14.00" fill="#666666">[TEXT]</text>
<polygon fill="none" stroke="black" points="736.42,-77 736.42,-107.8 911.49,-107.8 911.49,-77 736.42,-77"/>
<text text-anchor="start" x="743.42" y="-89.2" font-family="Arial" font-size="14.00">file_type </text>
<text text-anchor="start" x="799.46" y="-89.2" font-family="Arial" font-size="14.00" fill="#666666">[INTEGER]</text>
<polygon fill="none" stroke="black" points="736.42,-46.2 736.42,-77 911.49,-77 911.49,-46.2 736.42,-46.2"/>
<text text-anchor="start" x="743.42" y="-58.4" font-family="Arial" font-size="14.00">is_available </text>
<text text-anchor="start" x="820.47" y="-58.4" font-family="Arial" font-size="14.00" fill="#666666">[INTEGER]</text>
<polygon fill="none" stroke="black" stroke-width="3" points="734.92,-44.7 734.92,-268.1 912.99,-268.1 912.99,-44.7 734.92,-44.7"/>
</g>
<!-- file_info_system -->
<g id="node2" class="node">
<title>file_info_system</title>
<polygon fill="#efefef" stroke="none" points="567.84,-484.4 567.84,-520 772.07,-520 772.07,-484.4 567.84,-484.4"/>
<polygon fill="none" stroke="black" points="567.84,-484.4 567.84,-520 772.07,-520 772.07,-484.4 567.84,-484.4"/>
<text text-anchor="start" x="574.84" y="-497.8" font-family="Arial Bold" font-size="18.00">file_info_system</text>
<text text-anchor="start" x="695.82" y="-497.8" font-family="Arial" font-size="14.00">    </text>
<text text-anchor="start" x="726.94" y="-497.8" font-family="Arial" font-size="14.00" fill="#666666">[table]</text>
<polygon fill="none" stroke="black" points="567.84,-453.6 567.84,-484.4 772.07,-484.4 772.07,-453.6 567.84,-453.6"/>
<text text-anchor="start" x="574.84" y="-465.8" font-family="Arial" font-size="14.00">file_info_id </text>
<text text-anchor="start" x="645.66" y="-465.8" font-family="Arial" font-size="14.00" fill="#666666">[INTEGER]</text>
<polygon fill="none" stroke="black" points="567.84,-422.8 567.84,-453.6 772.07,-453.6 772.07,-422.8 567.84,-422.8"/>
<text text-anchor="start" x="574.84" y="-435" font-family="Arial" font-size="14.00">system_id </text>
<text text-anchor="start" x="641.75" y="-435" font-family="Arial" font-size="14.00" fill="#666666">[INTEGER]</text>
</g>
<!-- file_info_system&#45;&gt;file_info -->
<g id="edge1" class="edge">
<title>file_info_system:file_info_id&#45;&gt;file_info:id</title>
<path fill="none" stroke="black" d="M783.09,-467.49C806.75,-458.79 780.93,-414.18 772.07,-379.6 763.72,-347 744.76,-345.4 736.42,-312.8 725.72,-270.94 692.22,-215.6 735.42,-215.6"/>
<polygon fill="black" stroke="black" points="783.29,-467.46 772.73,-464.5 778.02,-468.26 773.73,-468.9 773.73,-468.9 773.73,-468.9 778.02,-468.26 774.07,-473.4 783.29,-467.46"/>
<text text-anchor="start" x="214.85" y="-479" font-family="Arial" font-size="10.00">FOREIGN KEY (file_info_id) REFERENCES file_info (id) ON UPDATE NO ACTION ON DELETE CASCADE MATCH NONE</text>
</g>
<!-- system -->
<g id="node3" class="node">
<title>system</title>
<polygon fill="#efefef" stroke="none" points="495.33,-169.4 495.33,-205 628.58,-205 628.58,-169.4 495.33,-169.4"/>
<polygon fill="none" stroke="black" points="495.33,-169.4 495.33,-205 628.58,-205 628.58,-169.4 495.33,-169.4"/>
<text text-anchor="start" x="502.33" y="-182.8" font-family="Arial Bold" font-size="18.00">system</text>
<text text-anchor="start" x="552.33" y="-182.8" font-family="Arial" font-size="14.00">    </text>
<text text-anchor="start" x="583.45" y="-182.8" font-family="Arial" font-size="14.00" fill="#666666">[table]</text>
<polygon fill="none" stroke="black" points="495.33,-138.6 495.33,-169.4 628.58,-169.4 628.58,-138.6 495.33,-138.6"/>
<text text-anchor="start" x="502.33" y="-150.8" font-family="Arial" font-size="14.00">id </text>
<text text-anchor="start" x="517.11" y="-150.8" font-family="Arial" font-size="14.00" fill="#666666">[INTEGER]</text>
<polygon fill="none" stroke="black" points="495.33,-107.8 495.33,-138.6 628.58,-138.6 628.58,-107.8 495.33,-107.8"/>
<text text-anchor="start" x="502.33" y="-120" font-family="Arial" font-size="14.00">name </text>
<text text-anchor="start" x="541.24" y="-120" font-family="Arial" font-size="14.00" fill="#666666">[TEXT]</text>
</g>
<!-- file_info_system&#45;&gt;system -->
<g id="edge2" class="edge">
<title>file_info_system:system_id&#45;&gt;system:id</title>
<path fill="none" stroke="black" d="M556.61,-437.48C455.93,-421.79 755.15,-154 629.58,-154"/>
<polygon fill="black" stroke="black" points="556.53,-437.48 566.19,-442.67 561.85,-437.85 566.17,-438.15 566.17,-438.15 566.17,-438.15 561.85,-437.85 566.82,-433.69 556.53,-437.48"/>
<text text-anchor="start" x="7" y="-448.2" font-family="Arial" font-size="10.00">FOREIGN KEY (system_id) REFERENCES system (id) ON UPDATE NO ACTION ON DELETE NO ACTION MATCH NONE</text>
</g>
<!-- file_set_file_info -->
<g id="node4" class="node">
<title>file_set_file_info</title>
<polygon fill="#efefef" stroke="none" points="930.35,-515.2 930.35,-550.8 1137.56,-550.8 1137.56,-515.2 930.35,-515.2"/>
<polygon fill="none" stroke="black" points="930.35,-515.2 930.35,-550.8 1137.56,-550.8 1137.56,-515.2 930.35,-515.2"/>
<text text-anchor="start" x="937.35" y="-528.6" font-family="Arial Bold" font-size="18.00">file_set_file_info</text>
<text text-anchor="start" x="1061.31" y="-528.6" font-family="Arial" font-size="14.00">    </text>
<text text-anchor="start" x="1092.43" y="-528.6" font-family="Arial" font-size="14.00" fill="#666666">[table]</text>
<polygon fill="none" stroke="black" points="930.35,-484.4 930.35,-515.2 1137.56,-515.2 1137.56,-484.4 930.35,-484.4"/>
<text text-anchor="start" x="937.35" y="-496.6" font-family="Arial" font-size="14.00">file_set_id </text>
<text text-anchor="start" x="1004.28" y="-496.6" font-family="Arial" font-size="14.00" fill="#666666">[INTEGER]</text>
<polygon fill="none" stroke="black" points="930.35,-453.6 930.35,-484.4 1137.56,-484.4 1137.56,-453.6 930.35,-453.6"/>
<text text-anchor="start" x="937.35" y="-465.8" font-family="Arial" font-size="14.00">file_info_id </text>
<text text-anchor="start" x="1008.17" y="-465.8" font-family="Arial" font-size="14.00" fill="#666666">[INTEGER]</text>
<polygon fill="none" stroke="black" points="930.35,-422.8 930.35,-453.6 1137.56,-453.6 1137.56,-422.8 930.35,-422.8"/>
<text text-anchor="start" x="937.35" y="-435" font-family="Arial" font-size="14.00">file_name </text>
<text text-anchor="start" x="1001.94" y="-435" font-family="Arial" font-size="14.00" fill="#666666">[TEXT]</text>
<polygon fill="none" stroke="black" points="930.35,-392 930.35,-422.8 1137.56,-422.8 1137.56,-392 930.35,-392"/>
<text text-anchor="start" x="937.35" y="-404.2" font-family="Arial" font-size="14.00">sort_order </text>
<text text-anchor="start" x="1005.04" y="-404.2" font-family="Arial" font-size="14.00" fill="#666666">[INTEGER]</text>
</g>
<!-- file_set_file_info&#45;&gt;file_info -->
<g id="edge3" class="edge">
<title>file_set_file_info:file_info_id&#45;&gt;file_info:id</title>
<path fill="none" stroke="black" d="M919.14,-468.18C829.99,-452.45 1021.61,-215.6 912.49,-215.6"/>
<polygon fill="black" stroke="black" points="919.05,-468.17 928.65,-473.46 924.36,-468.6 928.68,-468.95 928.68,-468.95 928.68,-468.95 924.36,-468.6 929.37,-464.49 919.05,-468.17"/>
<text text-anchor="start" x="936.35" y="-479" font-family="Arial" font-size="10.00">FOREIGN KEY (file_info_id) REFERENCES file_info (id) ON UPDATE NO ACTION ON DELETE CASCADE MATCH NONE</text>
</g>
<!-- file_set -->
<g id="node5" class="node">
<title>file_set</title>
<polygon fill="#efefef" stroke="none" points="1018.93,-215.6 1018.93,-251.2 1158.98,-251.2 1158.98,-215.6 1018.93,-215.6"/>
<polygon fill="none" stroke="black" points="1018.93,-215.6 1018.93,-251.2 1158.98,-251.2 1158.98,-215.6 1018.93,-215.6"/>
<text text-anchor="start" x="1027.84" y="-229" font-family="Arial Bold" font-size="18.00">file_set</text>
<text text-anchor="start" x="1080.82" y="-229" font-family="Arial" font-size="14.00">    </text>
<text text-anchor="start" x="1111.94" y="-229" font-family="Arial" font-size="14.00" fill="#666666">[table]</text>
<polygon fill="none" stroke="black" points="1018.93,-184.8 1018.93,-215.6 1158.98,-215.6 1158.98,-184.8 1018.93,-184.8"/>
<text text-anchor="start" x="1025.93" y="-197" font-family="Arial" font-size="14.00">id </text>
<text text-anchor="start" x="1040.72" y="-197" font-family="Arial" font-size="14.00" fill="#666666">[INTEGER]</text>
<polygon fill="none" stroke="black" points="1018.93,-154 1018.93,-184.8 1158.98,-184.8 1158.98,-154 1018.93,-154"/>
<text text-anchor="start" x="1025.93" y="-166.2" font-family="Arial" font-size="14.00">file_name </text>
<text text-anchor="start" x="1090.53" y="-166.2" font-family="Arial" font-size="14.00" fill="#666666">[TEXT]</text>
<polygon fill="none" stroke="black" points="1018.93,-123.2 1018.93,-154 1158.98,-154 1158.98,-123.2 1018.93,-123.2"/>
<text text-anchor="start" x="1025.93" y="-135.4" font-family="Arial" font-size="14.00">file_type </text>
<text text-anchor="start" x="1081.97" y="-135.4" font-family="Arial" font-size="14.00" fill="#666666">[INTEGER]</text>
<polygon fill="none" stroke="black" points="1018.93,-92.4 1018.93,-123.2 1158.98,-123.2 1158.98,-92.4 1018.93,-92.4"/>
<text text-anchor="start" x="1025.93" y="-104.6" font-family="Arial" font-size="14.00">name </text>
<text text-anchor="start" x="1064.84" y="-104.6" font-family="Arial" font-size="14.00" fill="#666666">[TEXT]</text>
<polygon fill="none" stroke="black" points="1018.93,-61.6 1018.93,-92.4 1158.98,-92.4 1158.98,-61.6 1018.93,-61.6"/>
<text text-anchor="start" x="1025.93" y="-73.8" font-family="Arial" font-size="14.00">source </text>
<text text-anchor="start" x="1071.84" y="-73.8" font-family="Arial" font-size="14.00" fill="#666666">[TEXT]</text>
</g>
<!-- file_set_file_info&#45;&gt;file_set -->
<g id="edge4" class="edge">
<title>file_set_file_info:file_set_id&#45;&gt;file_set:id</title>
<path fill="none" stroke="black" d="M1148.7,-498.97C1202.2,-489.56 1172,-402.08 1137.56,-348.8 1106.08,-300.08 1050.51,-343.05 1018.93,-294.4 996.14,-259.28 976.07,-200.2 1017.93,-200.2"/>
<polygon fill="black" stroke="black" points="1148.86,-498.96 1138.53,-495.29 1143.55,-499.39 1139.23,-499.75 1139.23,-499.75 1139.23,-499.75 1143.55,-499.39 1139.26,-504.26 1148.86,-498.96"/>
<text text-anchor="start" x="1145.56" y="-509.8" font-family="Arial" font-size="10.00">FOREIGN KEY (file_set_id) REFERENCES file_set (id) ON UPDATE NO ACTION ON DELETE CASCADE MATCH NONE</text>
</g>
</g>
</svg>
