<?xml version="1.0" encoding="UTF-8" standalone="no"?>
<!DOCTYPE svg PUBLIC "-//W3C//DTD SVG 1.1//EN"
 "http://www.w3.org/Graphics/SVG/1.1/DTD/svg11.dtd">
<!-- Generated by graphviz version 12.1.2 (20240928.0832)
 -->
<!-- Title: file_sync_log Pages: 1 -->
<svg width="1563pt" height="633pt"
 viewBox="0.00 0.00 1562.92 632.80" xmlns="http://www.w3.org/2000/svg" xmlns:xlink="http://www.w3.org/1999/xlink">
<g id="graph0" class="graph" transform="scale(1 1) rotate(0) translate(4 628.8)">
<title>file_sync_log</title>
<polygon fill="white" stroke="none" points="-4,4 -4,-628.8 1558.92,-628.8 1558.92,4 -4,4"/>
<!-- file_sync_log -->
<g id="node1" class="node">
<title>file_sync_log</title>
<polygon fill="#efefef" stroke="none" points="390.2,-543 390.2,-578.6 571.43,-578.6 571.43,-543 390.2,-543"/>
<polygon fill="none" stroke="black" points="390.2,-543 390.2,-578.6 571.43,-578.6 571.43,-543 390.2,-543"/>
<text text-anchor="start" x="397.2" y="-556.4" font-family="Arial Bold" font-size="18.00">file_sync_log</text>
<text text-anchor="start" x="495.18" y="-556.4" font-family="Arial" font-size="14.00">    </text>
<text text-anchor="start" x="526.29" y="-556.4" font-family="Arial" font-size="14.00" fill="#666666">[table]</text>
<polygon fill="none" stroke="black" points="390.2,-512.2 390.2,-543 571.43,-543 571.43,-512.2 390.2,-512.2"/>
<text text-anchor="start" x="397.2" y="-524.4" font-family="Arial" font-size="14.00">id </text>
<text text-anchor="start" x="411.98" y="-524.4" font-family="Arial" font-size="14.00" fill="#666666">[INTEGER]</text>
<polygon fill="none" stroke="black" points="390.2,-481.4 390.2,-512.2 571.43,-512.2 571.43,-481.4 390.2,-481.4"/>
<text text-anchor="start" x="397.2" y="-493.6" font-family="Arial" font-size="14.00">file_info_id </text>
<text text-anchor="start" x="468.02" y="-493.6" font-family="Arial" font-size="14.00" fill="#666666">[INTEGER]</text>
<polygon fill="none" stroke="black" points="390.2,-450.6 390.2,-481.4 571.43,-481.4 571.43,-450.6 390.2,-450.6"/>
<text text-anchor="start" x="397.2" y="-462.8" font-family="Arial" font-size="14.00">sync_time </text>
<text text-anchor="start" x="464.11" y="-462.8" font-family="Arial" font-size="14.00" fill="#666666">[TIMESTAMP]</text>
<polygon fill="none" stroke="black" points="390.2,-419.8 390.2,-450.6 571.43,-450.6 571.43,-419.8 390.2,-419.8"/>
<text text-anchor="start" x="397.2" y="-432" font-family="Arial" font-size="14.00">status </text>
<text text-anchor="start" x="438.44" y="-432" font-family="Arial" font-size="14.00" fill="#666666">[INTEGER]</text>
<polygon fill="none" stroke="black" points="390.2,-389 390.2,-419.8 571.43,-419.8 571.43,-389 390.2,-389"/>
<text text-anchor="start" x="397.2" y="-401.2" font-family="Arial" font-size="14.00">message </text>
<text text-anchor="start" x="457.89" y="-401.2" font-family="Arial" font-size="14.00" fill="#666666">[TEXT]</text>
<polygon fill="none" stroke="black" points="390.2,-358.2 390.2,-389 571.43,-389 571.43,-358.2 390.2,-358.2"/>
<text text-anchor="start" x="397.2" y="-370.4" font-family="Arial" font-size="14.00">cloud_key </text>
<text text-anchor="start" x="464.13" y="-370.4" font-family="Arial" font-size="14.00" fill="#666666">[TEXT]</text>
<polygon fill="none" stroke="black" stroke-width="3" points="388.7,-356.7 388.7,-580.1 572.93,-580.1 572.93,-356.7 388.7,-356.7"/>
</g>
<!-- file_info -->
<g id="node2" class="node">
<title>file_info</title>
<polygon fill="#efefef" stroke="none" points="695.28,-197.2 695.28,-232.8 870.35,-232.8 870.35,-197.2 695.28,-197.2"/>
<polygon fill="none" stroke="black" points="695.28,-197.2 695.28,-232.8 870.35,-232.8 870.35,-197.2 695.28,-197.2"/>
<text text-anchor="start" x="717.2" y="-210.6" font-family="Arial Bold" font-size="18.00">file_info</text>
<text text-anchor="start" x="779.18" y="-210.6" font-family="Arial" font-size="14.00">    </text>
<text text-anchor="start" x="810.29" y="-210.6" font-family="Arial" font-size="14.00" fill="#666666">[table]</text>
<polygon fill="none" stroke="black" points="695.28,-166.4 695.28,-197.2 870.35,-197.2 870.35,-166.4 695.28,-166.4"/>
<text text-anchor="start" x="702.28" y="-178.6" font-family="Arial" font-size="14.00">id </text>
<text text-anchor="start" x="717.07" y="-178.6" font-family="Arial" font-size="14.00" fill="#666666">[INTEGER]</text>
<polygon fill="none" stroke="black" points="695.28,-135.6 695.28,-166.4 870.35,-166.4 870.35,-135.6 695.28,-135.6"/>
<text text-anchor="start" x="702.28" y="-147.8" font-family="Arial" font-size="14.00">sha1_checksum </text>
<text text-anchor="start" x="807.34" y="-147.8" font-family="Arial" font-size="14.00" fill="#666666">[BLOB]</text>
<polygon fill="none" stroke="black" points="695.28,-104.8 695.28,-135.6 870.35,-135.6 870.35,-104.8 695.28,-104.8"/>
<text text-anchor="start" x="702.28" y="-117" font-family="Arial" font-size="14.00">file_size </text>
<text text-anchor="start" x="756.75" y="-117" font-family="Arial" font-size="14.00" fill="#666666">[INTEGER]</text>
<polygon fill="none" stroke="black" points="695.28,-74 695.28,-104.8 870.35,-104.8 870.35,-74 695.28,-74"/>
<text text-anchor="start" x="702.28" y="-86.2" font-family="Arial" font-size="14.00">archive_file_name </text>
<text text-anchor="start" x="819.79" y="-86.2" font-family="Arial" font-size="14.00" fill="#666666">[TEXT]</text>
<polygon fill="none" stroke="black" points="695.28,-43.2 695.28,-74 870.35,-74 870.35,-43.2 695.28,-43.2"/>
<text text-anchor="start" x="702.28" y="-55.4" font-family="Arial" font-size="14.00">file_type </text>
<text text-anchor="start" x="758.31" y="-55.4" font-family="Arial" font-size="14.00" fill="#666666">[INTEGER]</text>
</g>
<!-- file_sync_log&#45;&gt;file_info -->
<g id="edge1" class="edge">
<title>file_sync_log:file_info_id&#45;&gt;file_info:id</title>
<path fill="none" stroke="black" d="M582.66,-496.23C652.8,-487.79 596.26,-388.03 626.81,-312 651.12,-251.53 629.11,-181.8 694.28,-181.8"/>
<polygon fill="black" stroke="black" points="582.75,-496.22 572.51,-492.29 577.42,-496.52 573.1,-496.76 573.1,-496.76 573.1,-496.76 577.42,-496.52 573.02,-501.27 582.75,-496.22"/>
<text text-anchor="start" x="7" y="-506.8" font-family="Arial" font-size="10.00">FOREIGN KEY (file_info_id) REFERENCES file_info (id) ON UPDATE NO ACTION ON DELETE NO ACTION MATCH NONE</text>
</g>
<!-- file_set_file_info -->
<g id="node3" class="node">
<title>file_set_file_info</title>
<polygon fill="#efefef" stroke="none" points="679.21,-496.8 679.21,-532.4 886.42,-532.4 886.42,-496.8 679.21,-496.8"/>
<polygon fill="none" stroke="black" points="679.21,-496.8 679.21,-532.4 886.42,-532.4 886.42,-496.8 679.21,-496.8"/>
<text text-anchor="start" x="686.21" y="-510.2" font-family="Arial Bold" font-size="18.00">file_set_file_info</text>
<text text-anchor="start" x="810.17" y="-510.2" font-family="Arial" font-size="14.00">    </text>
<text text-anchor="start" x="841.29" y="-510.2" font-family="Arial" font-size="14.00" fill="#666666">[table]</text>
<polygon fill="none" stroke="black" points="679.21,-466 679.21,-496.8 886.42,-496.8 886.42,-466 679.21,-466"/>
<text text-anchor="start" x="686.21" y="-478.2" font-family="Arial" font-size="14.00">file_set_id </text>
<text text-anchor="start" x="753.14" y="-478.2" font-family="Arial" font-size="14.00" fill="#666666">[INTEGER]</text>
<polygon fill="none" stroke="black" points="679.21,-435.2 679.21,-466 886.42,-466 886.42,-435.2 679.21,-435.2"/>
<text text-anchor="start" x="686.21" y="-447.4" font-family="Arial" font-size="14.00">file_info_id </text>
<text text-anchor="start" x="757.03" y="-447.4" font-family="Arial" font-size="14.00" fill="#666666">[INTEGER]</text>
<polygon fill="none" stroke="black" points="679.21,-404.4 679.21,-435.2 886.42,-435.2 886.42,-404.4 679.21,-404.4"/>
<text text-anchor="start" x="686.21" y="-416.6" font-family="Arial" font-size="14.00">file_name </text>
<text text-anchor="start" x="750.8" y="-416.6" font-family="Arial" font-size="14.00" fill="#666666">[TEXT]</text>
</g>
<!-- file_set_file_info&#45;&gt;file_info -->
<g id="edge2" class="edge">
<title>file_set_file_info:file_info_id&#45;&gt;file_info:id</title>
<path fill="none" stroke="black" d="M897.46,-447.76C945.16,-419.04 927.57,-181.8 871.35,-181.8"/>
<polygon fill="black" stroke="black" points="897.37,-447.79 886.52,-446.18 892.23,-449.24 888.07,-450.42 888.07,-450.42 888.07,-450.42 892.23,-449.24 888.97,-454.84 897.37,-447.79"/>
<text text-anchor="start" x="894.42" y="-460.6" font-family="Arial" font-size="10.00">FOREIGN KEY (file_info_id) REFERENCES file_info (id) ON UPDATE NO ACTION ON DELETE NO ACTION MATCH NONE</text>
</g>
<!-- file_info_system -->
<g id="node4" class="node">
<title>file_info_system</title>
<polygon fill="#efefef" stroke="none" points="990.7,-481.4 990.7,-517 1194.93,-517 1194.93,-481.4 990.7,-481.4"/>
<polygon fill="none" stroke="black" points="990.7,-481.4 990.7,-517 1194.93,-517 1194.93,-481.4 990.7,-481.4"/>
<text text-anchor="start" x="997.7" y="-494.8" font-family="Arial Bold" font-size="18.00">file_info_system</text>
<text text-anchor="start" x="1118.68" y="-494.8" font-family="Arial" font-size="14.00">    </text>
<text text-anchor="start" x="1149.8" y="-494.8" font-family="Arial" font-size="14.00" fill="#666666">[table]</text>
<polygon fill="none" stroke="black" points="990.7,-450.6 990.7,-481.4 1194.93,-481.4 1194.93,-450.6 990.7,-450.6"/>
<text text-anchor="start" x="997.7" y="-462.8" font-family="Arial" font-size="14.00">file_info_id </text>
<text text-anchor="start" x="1068.52" y="-462.8" font-family="Arial" font-size="14.00" fill="#666666">[INTEGER]</text>
<polygon fill="none" stroke="black" points="990.7,-419.8 990.7,-450.6 1194.93,-450.6 1194.93,-419.8 990.7,-419.8"/>
<text text-anchor="start" x="997.7" y="-432" font-family="Arial" font-size="14.00">system_id </text>
<text text-anchor="start" x="1064.61" y="-432" font-family="Arial" font-size="14.00" fill="#666666">[INTEGER]</text>
</g>
<!-- file_info_system&#45;&gt;file_info -->
<g id="edge3" class="edge">
<title>file_info_system:file_info_id&#45;&gt;file_info:id</title>
<path fill="none" stroke="black" d="M979.63,-465.34C922.41,-457.16 965.37,-375.06 938.81,-312 913.52,-251.94 936.52,-181.8 871.35,-181.8"/>
<polygon fill="black" stroke="black" points="979.38,-465.32 989.07,-470.47 984.71,-465.67 989.03,-465.96 989.03,-465.96 989.03,-465.96 984.71,-465.67 989.66,-461.49 979.38,-465.32"/>
<text text-anchor="start" x="996.7" y="-476" font-family="Arial" font-size="10.00">FOREIGN KEY (file_info_id) REFERENCES file_info (id) ON UPDATE NO ACTION ON DELETE CASCADE MATCH NONE</text>
</g>
</g>
</svg>
