<?xml version="1.0" encoding="UTF-8" standalone="no"?>
<!DOCTYPE svg PUBLIC "-//W3C//DTD SVG 1.1//EN"
 "http://www.w3.org/Graphics/SVG/1.1/DTD/svg11.dtd">
<!-- Generated by graphviz version 12.1.2 (20240928.0832)
 -->
<!-- Title: file_set_file_info Pages: 1 -->
<svg width="1893pt" height="571pt"
 viewBox="0.00 0.00 1893.16 571.20" xmlns="http://www.w3.org/2000/svg" xmlns:xlink="http://www.w3.org/1999/xlink">
<g id="graph0" class="graph" transform="scale(1 1) rotate(0) translate(4 567.2)">
<title>file_set_file_info</title>
<polygon fill="white" stroke="none" points="-4,4 -4,-567.2 1889.16,-567.2 1889.16,4 -4,4"/>
<!-- file_set_file_info -->
<g id="node1" class="node">
<title>file_set_file_info</title>
<polygon fill="#efefef" stroke="none" points="1006.45,-481.4 1006.45,-517 1213.67,-517 1213.67,-481.4 1006.45,-481.4"/>
<polygon fill="none" stroke="black" points="1006.45,-481.4 1006.45,-517 1213.67,-517 1213.67,-481.4 1006.45,-481.4"/>
<text text-anchor="start" x="1013.45" y="-494.8" font-family="Arial Bold" font-size="18.00">file_set_file_info</text>
<text text-anchor="start" x="1137.41" y="-494.8" font-family="Arial" font-size="14.00">    </text>
<text text-anchor="start" x="1168.53" y="-494.8" font-family="Arial" font-size="14.00" fill="#666666">[table]</text>
<polygon fill="none" stroke="black" points="1006.45,-450.6 1006.45,-481.4 1213.67,-481.4 1213.67,-450.6 1006.45,-450.6"/>
<text text-anchor="start" x="1013.45" y="-462.8" font-family="Arial" font-size="14.00">file_set_id </text>
<text text-anchor="start" x="1080.38" y="-462.8" font-family="Arial" font-size="14.00" fill="#666666">[INTEGER]</text>
<polygon fill="none" stroke="black" points="1006.45,-419.8 1006.45,-450.6 1213.67,-450.6 1213.67,-419.8 1006.45,-419.8"/>
<text text-anchor="start" x="1013.45" y="-432" font-family="Arial" font-size="14.00">file_info_id </text>
<text text-anchor="start" x="1084.28" y="-432" font-family="Arial" font-size="14.00" fill="#666666">[INTEGER]</text>
<polygon fill="none" stroke="black" points="1006.45,-389 1006.45,-419.8 1213.67,-419.8 1213.67,-389 1006.45,-389"/>
<text text-anchor="start" x="1013.45" y="-401.2" font-family="Arial" font-size="14.00">file_name </text>
<text text-anchor="start" x="1078.04" y="-401.2" font-family="Arial" font-size="14.00" fill="#666666">[TEXT]</text>
<polygon fill="none" stroke="black" points="1006.45,-358.2 1006.45,-389 1213.67,-389 1213.67,-358.2 1006.45,-358.2"/>
<text text-anchor="start" x="1013.45" y="-370.4" font-family="Arial" font-size="14.00">sort_order </text>
<text text-anchor="start" x="1081.15" y="-370.4" font-family="Arial" font-size="14.00" fill="#666666">[INTEGER]</text>
<polygon fill="none" stroke="black" stroke-width="3" points="1004.95,-356.7 1004.95,-518.5 1215.17,-518.5 1215.17,-356.7 1004.95,-356.7"/>
</g>
<!-- file_set -->
<g id="node2" class="node">
<title>file_set</title>
<polygon fill="#efefef" stroke="none" points="711.04,-197.2 711.04,-232.8 851.08,-232.8 851.08,-197.2 711.04,-197.2"/>
<polygon fill="none" stroke="black" points="711.04,-197.2 711.04,-232.8 851.08,-232.8 851.08,-197.2 711.04,-197.2"/>
<text text-anchor="start" x="719.94" y="-210.6" font-family="Arial Bold" font-size="18.00">file_set</text>
<text text-anchor="start" x="772.92" y="-210.6" font-family="Arial" font-size="14.00">    </text>
<text text-anchor="start" x="804.04" y="-210.6" font-family="Arial" font-size="14.00" fill="#666666">[table]</text>
<polygon fill="none" stroke="black" points="711.04,-166.4 711.04,-197.2 851.08,-197.2 851.08,-166.4 711.04,-166.4"/>
<text text-anchor="start" x="718.04" y="-178.6" font-family="Arial" font-size="14.00">id </text>
<text text-anchor="start" x="732.82" y="-178.6" font-family="Arial" font-size="14.00" fill="#666666">[INTEGER]</text>
<polygon fill="none" stroke="black" points="711.04,-135.6 711.04,-166.4 851.08,-166.4 851.08,-135.6 711.04,-135.6"/>
<text text-anchor="start" x="718.04" y="-147.8" font-family="Arial" font-size="14.00">file_name </text>
<text text-anchor="start" x="782.63" y="-147.8" font-family="Arial" font-size="14.00" fill="#666666">[TEXT]</text>
<polygon fill="none" stroke="black" points="711.04,-104.8 711.04,-135.6 851.08,-135.6 851.08,-104.8 711.04,-104.8"/>
<text text-anchor="start" x="718.04" y="-117" font-family="Arial" font-size="14.00">file_type </text>
<text text-anchor="start" x="774.07" y="-117" font-family="Arial" font-size="14.00" fill="#666666">[INTEGER]</text>
<polygon fill="none" stroke="black" points="711.04,-74 711.04,-104.8 851.08,-104.8 851.08,-74 711.04,-74"/>
<text text-anchor="start" x="718.04" y="-86.2" font-family="Arial" font-size="14.00">name </text>
<text text-anchor="start" x="756.95" y="-86.2" font-family="Arial" font-size="14.00" fill="#666666">[TEXT]</text>
<polygon fill="none" stroke="black" points="711.04,-43.2 711.04,-74 851.08,-74 851.08,-43.2 711.04,-43.2"/>
<text text-anchor="start" x="718.04" y="-55.4" font-family="Arial" font-size="14.00">source </text>
<text text-anchor="start" x="763.95" y="-55.4" font-family="Arial" font-size="14.00" fill="#666666">[TEXT]</text>
</g>
<!-- file_set_file_info&#45;&gt;file_set -->
<g id="edge1" class="edge">
<title>file_set_file_info:file_set_id&#45;&gt;file_set:id</title>
<path fill="none" stroke="black" d="M995.33,-465.32C937.99,-456.92 983.77,-372.64 951.06,-312 916.54,-248.03 924.77,-181.8 852.08,-181.8"/>
<polygon fill="black" stroke="black" points="995.14,-465.3 1004.81,-470.47 1000.46,-465.66 1004.78,-465.96 1004.78,-465.96 1004.78,-465.96 1000.46,-465.66 1005.42,-461.49 995.14,-465.3"/>
<text text-anchor="start" x="1012.45" y="-476" font-family="Arial" font-size="10.00">FOREIGN KEY (file_set_id) REFERENCES file_set (id) ON UPDATE NO ACTION ON DELETE NO ACTION MATCH NONE</text>
</g>
<!-- file_info -->
<g id="node5" class="node">
<title>file_info</title>
<polygon fill="#efefef" stroke="none" points="1178.52,-197.2 1178.52,-232.8 1353.59,-232.8 1353.59,-197.2 1178.52,-197.2"/>
<polygon fill="none" stroke="black" points="1178.52,-197.2 1178.52,-232.8 1353.59,-232.8 1353.59,-197.2 1178.52,-197.2"/>
<text text-anchor="start" x="1200.44" y="-210.6" font-family="Arial Bold" font-size="18.00">file_info</text>
<text text-anchor="start" x="1262.42" y="-210.6" font-family="Arial" font-size="14.00">    </text>
<text text-anchor="start" x="1293.54" y="-210.6" font-family="Arial" font-size="14.00" fill="#666666">[table]</text>
<polygon fill="none" stroke="black" points="1178.52,-166.4 1178.52,-197.2 1353.59,-197.2 1353.59,-166.4 1178.52,-166.4"/>
<text text-anchor="start" x="1185.52" y="-178.6" font-family="Arial" font-size="14.00">id </text>
<text text-anchor="start" x="1200.31" y="-178.6" font-family="Arial" font-size="14.00" fill="#666666">[INTEGER]</text>
<polygon fill="none" stroke="black" points="1178.52,-135.6 1178.52,-166.4 1353.59,-166.4 1353.59,-135.6 1178.52,-135.6"/>
<text text-anchor="start" x="1185.52" y="-147.8" font-family="Arial" font-size="14.00">sha1_checksum </text>
<text text-anchor="start" x="1290.58" y="-147.8" font-family="Arial" font-size="14.00" fill="#666666">[BLOB]</text>
<polygon fill="none" stroke="black" points="1178.52,-104.8 1178.52,-135.6 1353.59,-135.6 1353.59,-104.8 1178.52,-104.8"/>
<text text-anchor="start" x="1185.52" y="-117" font-family="Arial" font-size="14.00">file_size </text>
<text text-anchor="start" x="1239.99" y="-117" font-family="Arial" font-size="14.00" fill="#666666">[INTEGER]</text>
<polygon fill="none" stroke="black" points="1178.52,-74 1178.52,-104.8 1353.59,-104.8 1353.59,-74 1178.52,-74"/>
<text text-anchor="start" x="1185.52" y="-86.2" font-family="Arial" font-size="14.00">archive_file_name </text>
<text text-anchor="start" x="1303.03" y="-86.2" font-family="Arial" font-size="14.00" fill="#666666">[TEXT]</text>
<polygon fill="none" stroke="black" points="1178.52,-43.2 1178.52,-74 1353.59,-74 1353.59,-43.2 1178.52,-43.2"/>
<text text-anchor="start" x="1185.52" y="-55.4" font-family="Arial" font-size="14.00">file_type </text>
<text text-anchor="start" x="1241.56" y="-55.4" font-family="Arial" font-size="14.00" fill="#666666">[INTEGER]</text>
</g>
<!-- file_set_file_info&#45;&gt;file_info -->
<g id="edge4" class="edge">
<title>file_set_file_info:file_info_id&#45;&gt;file_info:id</title>
<path fill="none" stroke="black" d="M1224.92,-434.16C1264.58,-425.1 1233.05,-359.07 1213.67,-312 1205.15,-291.33 1187.07,-296.66 1178.52,-276 1162.53,-237.31 1135.65,-181.8 1177.52,-181.8"/>
<polygon fill="black" stroke="black" points="1224.95,-434.15 1214.54,-430.69 1219.64,-434.69 1215.33,-435.13 1215.33,-435.13 1215.33,-435.13 1219.64,-434.69 1215.45,-439.64 1224.95,-434.15"/>
<text text-anchor="start" x="1221.67" y="-445.2" font-family="Arial" font-size="10.00">FOREIGN KEY (file_info_id) REFERENCES file_info (id) ON UPDATE NO ACTION ON DELETE NO ACTION MATCH NONE</text>
</g>
<!-- release_file_set -->
<g id="node3" class="node">
<title>release_file_set</title>
<polygon fill="#efefef" stroke="none" points="363.46,-450.6 363.46,-486.2 558.65,-486.2 558.65,-450.6 363.46,-450.6"/>
<polygon fill="none" stroke="black" points="363.46,-450.6 363.46,-486.2 558.65,-486.2 558.65,-450.6 363.46,-450.6"/>
<text text-anchor="start" x="370.46" y="-464" font-family="Arial Bold" font-size="18.00">release_file_set</text>
<text text-anchor="start" x="482.4" y="-464" font-family="Arial" font-size="14.00">    </text>
<text text-anchor="start" x="513.52" y="-464" font-family="Arial" font-size="14.00" fill="#666666">[table]</text>
<polygon fill="none" stroke="black" points="363.46,-419.8 363.46,-450.6 558.65,-450.6 558.65,-419.8 363.46,-419.8"/>
<text text-anchor="start" x="370.46" y="-432" font-family="Arial" font-size="14.00">release_id </text>
<text text-anchor="start" x="438.95" y="-432" font-family="Arial" font-size="14.00" fill="#666666">[INTEGER]</text>
<polygon fill="none" stroke="black" points="363.46,-389 363.46,-419.8 558.65,-419.8 558.65,-389 363.46,-389"/>
<text text-anchor="start" x="370.46" y="-401.2" font-family="Arial" font-size="14.00">file_set_id </text>
<text text-anchor="start" x="437.39" y="-401.2" font-family="Arial" font-size="14.00" fill="#666666">[INTEGER]</text>
</g>
<!-- release_file_set&#45;&gt;file_set -->
<g id="edge2" class="edge">
<title>release_file_set:file_set_id&#45;&gt;file_set:id</title>
<path fill="none" stroke="black" d="M569.9,-403.37C603.47,-395.79 587.46,-348.11 611.06,-312 650.82,-251.15 637.35,-181.8 710.04,-181.8"/>
<polygon fill="black" stroke="black" points="569.94,-403.36 559.54,-399.89 564.63,-403.9 560.32,-404.33 560.32,-404.33 560.32,-404.33 564.63,-403.9 560.44,-408.84 569.94,-403.36"/>
<text text-anchor="start" x="7" y="-414.4" font-family="Arial" font-size="10.00">FOREIGN KEY (file_set_id) REFERENCES file_set (id) ON UPDATE NO ACTION ON DELETE CASCADE MATCH NONE</text>
</g>
<!-- release_item_file_set -->
<g id="node4" class="node">
<title>release_item_file_set</title>
<polygon fill="#efefef" stroke="none" points="662.97,-450.6 662.97,-486.2 899.15,-486.2 899.15,-450.6 662.97,-450.6"/>
<polygon fill="none" stroke="black" points="662.97,-450.6 662.97,-486.2 899.15,-486.2 899.15,-450.6 662.97,-450.6"/>
<text text-anchor="start" x="669.97" y="-464" font-family="Arial Bold" font-size="18.00">release_item_file_set</text>
<text text-anchor="start" x="822.9" y="-464" font-family="Arial" font-size="14.00">    </text>
<text text-anchor="start" x="854.01" y="-464" font-family="Arial" font-size="14.00" fill="#666666">[table]</text>
<polygon fill="none" stroke="black" points="662.97,-419.8 662.97,-450.6 899.15,-450.6 899.15,-419.8 662.97,-419.8"/>
<text text-anchor="start" x="669.97" y="-432" font-family="Arial" font-size="14.00">release_item_id </text>
<text text-anchor="start" x="772.69" y="-432" font-family="Arial" font-size="14.00" fill="#666666">[INTEGER]</text>
<polygon fill="none" stroke="black" points="662.97,-389 662.97,-419.8 899.15,-419.8 899.15,-389 662.97,-389"/>
<text text-anchor="start" x="669.97" y="-401.2" font-family="Arial" font-size="14.00">file_set_id </text>
<text text-anchor="start" x="736.9" y="-401.2" font-family="Arial" font-size="14.00" fill="#666666">[INTEGER]</text>
</g>
<!-- release_item_file_set&#45;&gt;file_set -->
<g id="edge3" class="edge">
<title>release_item_file_set:file_set_id&#45;&gt;file_set:id</title>
<path fill="none" stroke="black" d="M781.66,-377.69C787.61,-329.44 835.62,-328.82 851.08,-276 862.84,-235.82 893.95,-181.8 852.08,-181.8"/>
<polygon fill="black" stroke="black" points="781.66,-377.68 776.59,-387.4 781.35,-383.01 781.1,-387.33 781.1,-387.33 781.1,-387.33 781.35,-383.01 785.57,-387.93 781.66,-377.68"/>
<text text-anchor="start" x="228.4" y="-372" font-family="Arial" font-size="10.00">FOREIGN KEY (file_set_id) REFERENCES file_set (id) ON UPDATE NO ACTION ON DELETE CASCADE MATCH NONE</text>
</g>
<!-- file_info_system -->
<g id="node6" class="node">
<title>file_info_system</title>
<polygon fill="#efefef" stroke="none" points="1320.94,-450.6 1320.94,-486.2 1525.18,-486.2 1525.18,-450.6 1320.94,-450.6"/>
<polygon fill="none" stroke="black" points="1320.94,-450.6 1320.94,-486.2 1525.18,-486.2 1525.18,-450.6 1320.94,-450.6"/>
<text text-anchor="start" x="1327.94" y="-464" font-family="Arial Bold" font-size="18.00">file_info_system</text>
<text text-anchor="start" x="1448.92" y="-464" font-family="Arial" font-size="14.00">    </text>
<text text-anchor="start" x="1480.04" y="-464" font-family="Arial" font-size="14.00" fill="#666666">[table]</text>
<polygon fill="none" stroke="black" points="1320.94,-419.8 1320.94,-450.6 1525.18,-450.6 1525.18,-419.8 1320.94,-419.8"/>
<text text-anchor="start" x="1327.94" y="-432" font-family="Arial" font-size="14.00">file_info_id </text>
<text text-anchor="start" x="1398.77" y="-432" font-family="Arial" font-size="14.00" fill="#666666">[INTEGER]</text>
<polygon fill="none" stroke="black" points="1320.94,-389 1320.94,-419.8 1525.18,-419.8 1525.18,-389 1320.94,-389"/>
<text text-anchor="start" x="1327.94" y="-401.2" font-family="Arial" font-size="14.00">system_id </text>
<text text-anchor="start" x="1394.85" y="-401.2" font-family="Arial" font-size="14.00" fill="#666666">[INTEGER]</text>
</g>
<!-- file_info_system&#45;&gt;file_info -->
<g id="edge5" class="edge">
<title>file_info_system:file_info_id&#45;&gt;file_info:id</title>
<path fill="none" stroke="black" d="M1309.57,-434.33C1223.74,-418.17 1464.38,-181.8 1354.59,-181.8"/>
<polygon fill="black" stroke="black" points="1309.64,-434.34 1319.23,-439.66 1314.96,-434.78 1319.27,-435.14 1319.27,-435.14 1319.27,-435.14 1314.96,-434.78 1319.98,-430.69 1309.64,-434.34"/>
<text text-anchor="start" x="1326.94" y="-419.2" font-family="Arial" font-size="10.00">FOREIGN KEY (file_info_id) REFERENCES file_info (id) ON UPDATE NO ACTION ON DELETE CASCADE MATCH NONE</text>
</g>
</g>
</svg>
