<?xml version="1.0" encoding="UTF-8" standalone="no"?>
<!DOCTYPE svg PUBLIC "-//W3C//DTD SVG 1.1//EN"
 "http://www.w3.org/Graphics/SVG/1.1/DTD/svg11.dtd">
<!-- Generated by graphviz version 12.1.2 (20240928.0832)
 -->
<!-- Title: file_set_file_info Pages: 1 -->
<svg width="2557pt" height="571pt"
 viewBox="0.00 0.00 2557.16 571.20" xmlns="http://www.w3.org/2000/svg" xmlns:xlink="http://www.w3.org/1999/xlink">
<g id="graph0" class="graph" transform="scale(1 1) rotate(0) translate(4 567.2)">
<title>file_set_file_info</title>
<polygon fill="white" stroke="none" points="-4,4 -4,-567.2 2553.16,-567.2 2553.16,4 -4,4"/>
<!-- file_set_file_info -->
<g id="node1" class="node">
<title>file_set_file_info</title>
<polygon fill="#efefef" stroke="none" points="1670.45,-481.4 1670.45,-517 1877.67,-517 1877.67,-481.4 1670.45,-481.4"/>
<polygon fill="none" stroke="black" points="1670.45,-481.4 1670.45,-517 1877.67,-517 1877.67,-481.4 1670.45,-481.4"/>
<text text-anchor="start" x="1677.45" y="-494.8" font-family="Arial Bold" font-size="18.00">file_set_file_info</text>
<text text-anchor="start" x="1801.41" y="-494.8" font-family="Arial" font-size="14.00">    </text>
<text text-anchor="start" x="1832.53" y="-494.8" font-family="Arial" font-size="14.00" fill="#666666">[table]</text>
<polygon fill="none" stroke="black" points="1670.45,-450.6 1670.45,-481.4 1877.67,-481.4 1877.67,-450.6 1670.45,-450.6"/>
<text text-anchor="start" x="1677.45" y="-462.8" font-family="Arial" font-size="14.00">file_set_id </text>
<text text-anchor="start" x="1744.38" y="-462.8" font-family="Arial" font-size="14.00" fill="#666666">[INTEGER]</text>
<polygon fill="none" stroke="black" points="1670.45,-419.8 1670.45,-450.6 1877.67,-450.6 1877.67,-419.8 1670.45,-419.8"/>
<text text-anchor="start" x="1677.45" y="-432" font-family="Arial" font-size="14.00">file_info_id </text>
<text text-anchor="start" x="1748.28" y="-432" font-family="Arial" font-size="14.00" fill="#666666">[INTEGER]</text>
<polygon fill="none" stroke="black" points="1670.45,-389 1670.45,-419.8 1877.67,-419.8 1877.67,-389 1670.45,-389"/>
<text text-anchor="start" x="1677.45" y="-401.2" font-family="Arial" font-size="14.00">file_name </text>
<text text-anchor="start" x="1742.04" y="-401.2" font-family="Arial" font-size="14.00" fill="#666666">[TEXT]</text>
<polygon fill="none" stroke="black" points="1670.45,-358.2 1670.45,-389 1877.67,-389 1877.67,-358.2 1670.45,-358.2"/>
<text text-anchor="start" x="1677.45" y="-370.4" font-family="Arial" font-size="14.00">sort_order </text>
<text text-anchor="start" x="1745.15" y="-370.4" font-family="Arial" font-size="14.00" fill="#666666">[INTEGER]</text>
<polygon fill="none" stroke="black" stroke-width="3" points="1668.95,-356.7 1668.95,-518.5 1879.17,-518.5 1879.17,-356.7 1668.95,-356.7"/>
</g>
<!-- file_set -->
<g id="node2" class="node">
<title>file_set</title>
<polygon fill="#efefef" stroke="none" points="1042.04,-197.2 1042.04,-232.8 1182.08,-232.8 1182.08,-197.2 1042.04,-197.2"/>
<polygon fill="none" stroke="black" points="1042.04,-197.2 1042.04,-232.8 1182.08,-232.8 1182.08,-197.2 1042.04,-197.2"/>
<text text-anchor="start" x="1050.94" y="-210.6" font-family="Arial Bold" font-size="18.00">file_set</text>
<text text-anchor="start" x="1103.92" y="-210.6" font-family="Arial" font-size="14.00">    </text>
<text text-anchor="start" x="1135.04" y="-210.6" font-family="Arial" font-size="14.00" fill="#666666">[table]</text>
<polygon fill="none" stroke="black" points="1042.04,-166.4 1042.04,-197.2 1182.08,-197.2 1182.08,-166.4 1042.04,-166.4"/>
<text text-anchor="start" x="1049.04" y="-178.6" font-family="Arial" font-size="14.00">id </text>
<text text-anchor="start" x="1063.82" y="-178.6" font-family="Arial" font-size="14.00" fill="#666666">[INTEGER]</text>
<polygon fill="none" stroke="black" points="1042.04,-135.6 1042.04,-166.4 1182.08,-166.4 1182.08,-135.6 1042.04,-135.6"/>
<text text-anchor="start" x="1049.04" y="-147.8" font-family="Arial" font-size="14.00">file_name </text>
<text text-anchor="start" x="1113.63" y="-147.8" font-family="Arial" font-size="14.00" fill="#666666">[TEXT]</text>
<polygon fill="none" stroke="black" points="1042.04,-104.8 1042.04,-135.6 1182.08,-135.6 1182.08,-104.8 1042.04,-104.8"/>
<text text-anchor="start" x="1049.04" y="-117" font-family="Arial" font-size="14.00">file_type </text>
<text text-anchor="start" x="1105.07" y="-117" font-family="Arial" font-size="14.00" fill="#666666">[INTEGER]</text>
<polygon fill="none" stroke="black" points="1042.04,-74 1042.04,-104.8 1182.08,-104.8 1182.08,-74 1042.04,-74"/>
<text text-anchor="start" x="1049.04" y="-86.2" font-family="Arial" font-size="14.00">name </text>
<text text-anchor="start" x="1087.95" y="-86.2" font-family="Arial" font-size="14.00" fill="#666666">[TEXT]</text>
<polygon fill="none" stroke="black" points="1042.04,-43.2 1042.04,-74 1182.08,-74 1182.08,-43.2 1042.04,-43.2"/>
<text text-anchor="start" x="1049.04" y="-55.4" font-family="Arial" font-size="14.00">source </text>
<text text-anchor="start" x="1094.95" y="-55.4" font-family="Arial" font-size="14.00" fill="#666666">[TEXT]</text>
</g>
<!-- file_set_file_info&#45;&gt;file_set -->
<g id="edge1" class="edge">
<title>file_set_file_info:file_set_id&#45;&gt;file_set:id</title>
<path fill="none" stroke="black" d="M1659.12,-465.16C1603.98,-455.19 1664.8,-359.47 1615.06,-312 1542.52,-242.78 1283.34,-181.8 1183.08,-181.8"/>
<polygon fill="black" stroke="black" points="1659.15,-465.16 1668.75,-470.46 1664.47,-465.59 1668.78,-465.95 1668.78,-465.95 1668.78,-465.95 1664.47,-465.59 1669.48,-461.49 1659.15,-465.16"/>
<text text-anchor="start" x="1676.45" y="-476" font-family="Arial" font-size="10.00">FOREIGN KEY (file_set_id) REFERENCES file_set (id) ON UPDATE NO ACTION ON DELETE CASCADE MATCH NONE</text>
</g>
<!-- file_info -->
<g id="node7" class="node">
<title>file_info</title>
<polygon fill="#efefef" stroke="none" points="1842.52,-197.2 1842.52,-232.8 2017.59,-232.8 2017.59,-197.2 1842.52,-197.2"/>
<polygon fill="none" stroke="black" points="1842.52,-197.2 1842.52,-232.8 2017.59,-232.8 2017.59,-197.2 1842.52,-197.2"/>
<text text-anchor="start" x="1864.44" y="-210.6" font-family="Arial Bold" font-size="18.00">file_info</text>
<text text-anchor="start" x="1926.42" y="-210.6" font-family="Arial" font-size="14.00">    </text>
<text text-anchor="start" x="1957.54" y="-210.6" font-family="Arial" font-size="14.00" fill="#666666">[table]</text>
<polygon fill="none" stroke="black" points="1842.52,-166.4 1842.52,-197.2 2017.59,-197.2 2017.59,-166.4 1842.52,-166.4"/>
<text text-anchor="start" x="1849.52" y="-178.6" font-family="Arial" font-size="14.00">id </text>
<text text-anchor="start" x="1864.31" y="-178.6" font-family="Arial" font-size="14.00" fill="#666666">[INTEGER]</text>
<polygon fill="none" stroke="black" points="1842.52,-135.6 1842.52,-166.4 2017.59,-166.4 2017.59,-135.6 1842.52,-135.6"/>
<text text-anchor="start" x="1849.52" y="-147.8" font-family="Arial" font-size="14.00">sha1_checksum </text>
<text text-anchor="start" x="1954.58" y="-147.8" font-family="Arial" font-size="14.00" fill="#666666">[BLOB]</text>
<polygon fill="none" stroke="black" points="1842.52,-104.8 1842.52,-135.6 2017.59,-135.6 2017.59,-104.8 1842.52,-104.8"/>
<text text-anchor="start" x="1849.52" y="-117" font-family="Arial" font-size="14.00">file_size </text>
<text text-anchor="start" x="1903.99" y="-117" font-family="Arial" font-size="14.00" fill="#666666">[INTEGER]</text>
<polygon fill="none" stroke="black" points="1842.52,-74 1842.52,-104.8 2017.59,-104.8 2017.59,-74 1842.52,-74"/>
<text text-anchor="start" x="1849.52" y="-86.2" font-family="Arial" font-size="14.00">archive_file_name </text>
<text text-anchor="start" x="1967.03" y="-86.2" font-family="Arial" font-size="14.00" fill="#666666">[TEXT]</text>
<polygon fill="none" stroke="black" points="1842.52,-43.2 1842.52,-74 2017.59,-74 2017.59,-43.2 1842.52,-43.2"/>
<text text-anchor="start" x="1849.52" y="-55.4" font-family="Arial" font-size="14.00">file_type </text>
<text text-anchor="start" x="1905.56" y="-55.4" font-family="Arial" font-size="14.00" fill="#666666">[INTEGER]</text>
</g>
<!-- file_set_file_info&#45;&gt;file_info -->
<g id="edge6" class="edge">
<title>file_set_file_info:file_info_id&#45;&gt;file_info:id</title>
<path fill="none" stroke="black" d="M1888.92,-434.16C1928.58,-425.1 1897.05,-359.07 1877.67,-312 1869.15,-291.33 1851.07,-296.66 1842.52,-276 1826.53,-237.31 1799.65,-181.8 1841.52,-181.8"/>
<polygon fill="black" stroke="black" points="1888.95,-434.15 1878.54,-430.69 1883.64,-434.69 1879.33,-435.13 1879.33,-435.13 1879.33,-435.13 1883.64,-434.69 1879.45,-439.64 1888.95,-434.15"/>
<text text-anchor="start" x="1885.67" y="-445.2" font-family="Arial" font-size="10.00">FOREIGN KEY (file_info_id) REFERENCES file_info (id) ON UPDATE NO ACTION ON DELETE CASCADE MATCH NONE</text>
</g>
<!-- release_file_set -->
<g id="node3" class="node">
<title>release_file_set</title>
<polygon fill="#efefef" stroke="none" points="363.46,-450.6 363.46,-486.2 558.65,-486.2 558.65,-450.6 363.46,-450.6"/>
<polygon fill="none" stroke="black" points="363.46,-450.6 363.46,-486.2 558.65,-486.2 558.65,-450.6 363.46,-450.6"/>
<text text-anchor="start" x="370.46" y="-464" font-family="Arial Bold" font-size="18.00">release_file_set</text>
<text text-anchor="start" x="482.4" y="-464" font-family="Arial" font-size="14.00">    </text>
<text text-anchor="start" x="513.52" y="-464" font-family="Arial" font-size="14.00" fill="#666666">[table]</text>
<polygon fill="none" stroke="black" points="363.46,-419.8 363.46,-450.6 558.65,-450.6 558.65,-419.8 363.46,-419.8"/>
<text text-anchor="start" x="370.46" y="-432" font-family="Arial" font-size="14.00">release_id </text>
<text text-anchor="start" x="438.95" y="-432" font-family="Arial" font-size="14.00" fill="#666666">[INTEGER]</text>
<polygon fill="none" stroke="black" points="363.46,-389 363.46,-419.8 558.65,-419.8 558.65,-389 363.46,-389"/>
<text text-anchor="start" x="370.46" y="-401.2" font-family="Arial" font-size="14.00">file_set_id </text>
<text text-anchor="start" x="437.39" y="-401.2" font-family="Arial" font-size="14.00" fill="#666666">[INTEGER]</text>
</g>
<!-- release_file_set&#45;&gt;file_set -->
<g id="edge2" class="edge">
<title>release_file_set:file_set_id&#45;&gt;file_set:id</title>
<path fill="none" stroke="black" d="M569.7,-403.18C601.83,-394.3 577.48,-339.08 611.06,-312 766.5,-186.67 841.37,-181.8 1041.04,-181.8"/>
<polygon fill="black" stroke="black" points="569.91,-403.16 559.45,-399.89 564.62,-403.8 560.32,-404.32 560.32,-404.32 560.32,-404.32 564.62,-403.8 560.53,-408.83 569.91,-403.16"/>
<text text-anchor="start" x="7" y="-414.4" font-family="Arial" font-size="10.00">FOREIGN KEY (file_set_id) REFERENCES file_set (id) ON UPDATE NO ACTION ON DELETE CASCADE MATCH NONE</text>
</g>
<!-- release_item_file_set -->
<g id="node4" class="node">
<title>release_item_file_set</title>
<polygon fill="#efefef" stroke="none" points="662.97,-450.6 662.97,-486.2 899.15,-486.2 899.15,-450.6 662.97,-450.6"/>
<polygon fill="none" stroke="black" points="662.97,-450.6 662.97,-486.2 899.15,-486.2 899.15,-450.6 662.97,-450.6"/>
<text text-anchor="start" x="669.97" y="-464" font-family="Arial Bold" font-size="18.00">release_item_file_set</text>
<text text-anchor="start" x="822.9" y="-464" font-family="Arial" font-size="14.00">    </text>
<text text-anchor="start" x="854.01" y="-464" font-family="Arial" font-size="14.00" fill="#666666">[table]</text>
<polygon fill="none" stroke="black" points="662.97,-419.8 662.97,-450.6 899.15,-450.6 899.15,-419.8 662.97,-419.8"/>
<text text-anchor="start" x="669.97" y="-432" font-family="Arial" font-size="14.00">release_item_id </text>
<text text-anchor="start" x="772.69" y="-432" font-family="Arial" font-size="14.00" fill="#666666">[INTEGER]</text>
<polygon fill="none" stroke="black" points="662.97,-389 662.97,-419.8 899.15,-419.8 899.15,-389 662.97,-389"/>
<text text-anchor="start" x="669.97" y="-401.2" font-family="Arial" font-size="14.00">file_set_id </text>
<text text-anchor="start" x="736.9" y="-401.2" font-family="Arial" font-size="14.00" fill="#666666">[INTEGER]</text>
</g>
<!-- release_item_file_set&#45;&gt;file_set -->
<g id="edge3" class="edge">
<title>release_item_file_set:file_set_id&#45;&gt;file_set:id</title>
<path fill="none" stroke="black" d="M910.39,-403.38C943.95,-395.87 928.41,-348.6 951.06,-312 988.07,-252.19 970.7,-181.8 1041.04,-181.8"/>
<polygon fill="black" stroke="black" points="910.43,-403.37 900.04,-399.89 905.13,-403.9 900.82,-404.33 900.82,-404.33 900.82,-404.33 905.13,-403.9 900.93,-408.84 910.43,-403.37"/>
<text text-anchor="start" x="347.5" y="-388.4" font-family="Arial" font-size="10.00">FOREIGN KEY (file_set_id) REFERENCES file_set (id) ON UPDATE NO ACTION ON DELETE CASCADE MATCH NONE</text>
</g>
<!-- file_set_item_type -->
<g id="node5" class="node">
<title>file_set_item_type</title>
<polygon fill="#efefef" stroke="none" points="1003.45,-450.6 1003.45,-486.2 1220.67,-486.2 1220.67,-450.6 1003.45,-450.6"/>
<polygon fill="none" stroke="black" points="1003.45,-450.6 1003.45,-486.2 1220.67,-486.2 1220.67,-450.6 1003.45,-450.6"/>
<text text-anchor="start" x="1010.45" y="-464" font-family="Arial Bold" font-size="18.00">file_set_item_type</text>
<text text-anchor="start" x="1144.41" y="-464" font-family="Arial" font-size="14.00">    </text>
<text text-anchor="start" x="1175.53" y="-464" font-family="Arial" font-size="14.00" fill="#666666">[table]</text>
<polygon fill="none" stroke="black" points="1003.45,-419.8 1003.45,-450.6 1220.67,-450.6 1220.67,-419.8 1003.45,-419.8"/>
<text text-anchor="start" x="1010.45" y="-432" font-family="Arial" font-size="14.00">file_set_id </text>
<text text-anchor="start" x="1077.38" y="-432" font-family="Arial" font-size="14.00" fill="#666666">[INTEGER]</text>
<polygon fill="none" stroke="black" points="1003.45,-389 1003.45,-419.8 1220.67,-419.8 1220.67,-389 1003.45,-389"/>
<text text-anchor="start" x="1010.45" y="-401.2" font-family="Arial" font-size="14.00">item_type </text>
<text text-anchor="start" x="1075.04" y="-401.2" font-family="Arial" font-size="14.00" fill="#666666">[INTEGER]</text>
</g>
<!-- file_set_item_type&#45;&gt;file_set -->
<g id="edge4" class="edge">
<title>file_set_item_type:file_set_id&#45;&gt;file_set:id</title>
<path fill="none" stroke="black" d="M1231.51,-432.18C1273.58,-403.59 1236.37,-181.8 1183.08,-181.8"/>
<polygon fill="black" stroke="black" points="1231.55,-432.17 1220.67,-430.8 1226.45,-433.73 1222.31,-435 1222.31,-435 1222.31,-435 1226.45,-433.73 1223.31,-439.4 1231.55,-432.17"/>
<text text-anchor="start" x="669.01" y="-445.2" font-family="Arial" font-size="10.00">FOREIGN KEY (file_set_id) REFERENCES file_set (id) ON UPDATE NO ACTION ON DELETE CASCADE MATCH NONE</text>
</g>
<!-- file_set_dat_file_link -->
<g id="node6" class="node">
<title>file_set_dat_file_link</title>
<polygon fill="#efefef" stroke="none" points="1325.45,-450.6 1325.45,-486.2 1562.66,-486.2 1562.66,-450.6 1325.45,-450.6"/>
<polygon fill="none" stroke="black" points="1325.45,-450.6 1325.45,-486.2 1562.66,-486.2 1562.66,-450.6 1325.45,-450.6"/>
<text text-anchor="start" x="1332.45" y="-464" font-family="Arial Bold" font-size="18.00">file_set_dat_file_link</text>
<text text-anchor="start" x="1486.41" y="-464" font-family="Arial" font-size="14.00">    </text>
<text text-anchor="start" x="1517.53" y="-464" font-family="Arial" font-size="14.00" fill="#666666">[table]</text>
<polygon fill="none" stroke="black" points="1325.45,-419.8 1325.45,-450.6 1562.66,-450.6 1562.66,-419.8 1325.45,-419.8"/>
<text text-anchor="start" x="1332.45" y="-432" font-family="Arial" font-size="14.00">file_set_id </text>
<text text-anchor="start" x="1399.38" y="-432" font-family="Arial" font-size="14.00" fill="#666666">[INTEGER]</text>
<polygon fill="none" stroke="black" points="1325.45,-389 1325.45,-419.8 1562.66,-419.8 1562.66,-389 1325.45,-389"/>
<text text-anchor="start" x="1332.45" y="-401.2" font-family="Arial" font-size="14.00">dat_file_id </text>
<text text-anchor="start" x="1400.17" y="-401.2" font-family="Arial" font-size="14.00" fill="#666666">[INTEGER]</text>
</g>
<!-- file_set_dat_file_link&#45;&gt;file_set -->
<g id="edge5" class="edge">
<title>file_set_dat_file_link:file_set_id&#45;&gt;file_set:id</title>
<path fill="none" stroke="black" d="M1314.13,-434.34C1269.54,-426.11 1299.67,-360.71 1273.06,-312 1239.34,-250.27 1253.42,-181.8 1183.08,-181.8"/>
<polygon fill="black" stroke="black" points="1314.15,-434.34 1323.74,-439.66 1319.47,-434.78 1323.79,-435.14 1323.79,-435.14 1323.79,-435.14 1319.47,-434.78 1324.49,-430.69 1314.15,-434.34"/>
<text text-anchor="start" x="771.8" y="-419.2" font-family="Arial" font-size="10.00">FOREIGN KEY (file_set_id) REFERENCES file_set (id) ON UPDATE NO ACTION ON DELETE CASCADE MATCH NONE</text>
</g>
<!-- file_info_system -->
<g id="node8" class="node">
<title>file_info_system</title>
<polygon fill="#efefef" stroke="none" points="1984.94,-450.6 1984.94,-486.2 2189.18,-486.2 2189.18,-450.6 1984.94,-450.6"/>
<polygon fill="none" stroke="black" points="1984.94,-450.6 1984.94,-486.2 2189.18,-486.2 2189.18,-450.6 1984.94,-450.6"/>
<text text-anchor="start" x="1991.94" y="-464" font-family="Arial Bold" font-size="18.00">file_info_system</text>
<text text-anchor="start" x="2112.92" y="-464" font-family="Arial" font-size="14.00">    </text>
<text text-anchor="start" x="2144.04" y="-464" font-family="Arial" font-size="14.00" fill="#666666">[table]</text>
<polygon fill="none" stroke="black" points="1984.94,-419.8 1984.94,-450.6 2189.18,-450.6 2189.18,-419.8 1984.94,-419.8"/>
<text text-anchor="start" x="1991.94" y="-432" font-family="Arial" font-size="14.00">file_info_id </text>
<text text-anchor="start" x="2062.77" y="-432" font-family="Arial" font-size="14.00" fill="#666666">[INTEGER]</text>
<polygon fill="none" stroke="black" points="1984.94,-389 1984.94,-419.8 2189.18,-419.8 2189.18,-389 1984.94,-389"/>
<text text-anchor="start" x="1991.94" y="-401.2" font-family="Arial" font-size="14.00">system_id </text>
<text text-anchor="start" x="2058.85" y="-401.2" font-family="Arial" font-size="14.00" fill="#666666">[INTEGER]</text>
</g>
<!-- file_info_system&#45;&gt;file_info -->
<g id="edge7" class="edge">
<title>file_info_system:file_info_id&#45;&gt;file_info:id</title>
<path fill="none" stroke="black" d="M1973.57,-434.33C1887.74,-418.17 2128.38,-181.8 2018.59,-181.8"/>
<polygon fill="black" stroke="black" points="1973.64,-434.34 1983.23,-439.66 1978.96,-434.78 1983.27,-435.14 1983.27,-435.14 1983.27,-435.14 1978.96,-434.78 1983.98,-430.69 1973.64,-434.34"/>
<text text-anchor="start" x="1990.94" y="-419.2" font-family="Arial" font-size="10.00">FOREIGN KEY (file_info_id) REFERENCES file_info (id) ON UPDATE NO ACTION ON DELETE CASCADE MATCH NONE</text>
</g>
</g>
</svg>
