<?xml version="1.0" encoding="UTF-8" standalone="no"?>
<!DOCTYPE svg PUBLIC "-//W3C//DTD SVG 1.1//EN"
 "http://www.w3.org/Graphics/SVG/1.1/DTD/svg11.dtd">
<!-- Generated by graphviz version 12.1.2 (20240928.0832)
 -->
<!-- Title: file_info_system Pages: 1 -->
<svg width="2369pt" height="873pt"
 viewBox="0.00 0.00 2368.63 873.20" xmlns="http://www.w3.org/2000/svg" xmlns:xlink="http://www.w3.org/1999/xlink">
<g id="graph0" class="graph" transform="scale(1 1) rotate(0) translate(4 869.2)">
<title>file_info_system</title>
<polygon fill="white" stroke="none" points="-4,4 -4,-869.2 2364.63,-869.2 2364.63,4 -4,4"/>
<!-- file_info_system -->
<g id="node1" class="node">
<title>file_info_system</title>
<polygon fill="#efefef" stroke="none" points="671.49,-632.4 671.49,-668 875.73,-668 875.73,-632.4 671.49,-632.4"/>
<polygon fill="none" stroke="black" points="671.49,-632.4 671.49,-668 875.73,-668 875.73,-632.4 671.49,-632.4"/>
<text text-anchor="start" x="678.49" y="-645.8" font-family="Arial Bold" font-size="18.00">file_info_system</text>
<text text-anchor="start" x="799.48" y="-645.8" font-family="Arial" font-size="14.00">    </text>
<text text-anchor="start" x="830.59" y="-645.8" font-family="Arial" font-size="14.00" fill="#666666">[table]</text>
<polygon fill="none" stroke="black" points="671.49,-601.6 671.49,-632.4 875.73,-632.4 875.73,-601.6 671.49,-601.6"/>
<text text-anchor="start" x="678.49" y="-613.8" font-family="Arial" font-size="14.00">file_info_id </text>
<text text-anchor="start" x="749.32" y="-613.8" font-family="Arial" font-size="14.00" fill="#666666">[INTEGER]</text>
<polygon fill="none" stroke="black" points="671.49,-570.8 671.49,-601.6 875.73,-601.6 875.73,-570.8 671.49,-570.8"/>
<text text-anchor="start" x="678.49" y="-583" font-family="Arial" font-size="14.00">system_id </text>
<text text-anchor="start" x="745.4" y="-583" font-family="Arial" font-size="14.00" fill="#666666">[INTEGER]</text>
<polygon fill="none" stroke="black" stroke-width="3" points="669.99,-569.3 669.99,-669.5 877.23,-669.5 877.23,-569.3 669.99,-569.3"/>
</g>
<!-- file_info -->
<g id="node2" class="node">
<title>file_info</title>
<polygon fill="#efefef" stroke="none" points="516.08,-258.8 516.08,-294.4 719.15,-294.4 719.15,-258.8 516.08,-258.8"/>
<polygon fill="none" stroke="black" points="516.08,-258.8 516.08,-294.4 719.15,-294.4 719.15,-258.8 516.08,-258.8"/>
<text text-anchor="start" x="552" y="-272.2" font-family="Arial Bold" font-size="18.00">file_info</text>
<text text-anchor="start" x="613.98" y="-272.2" font-family="Arial" font-size="14.00">    </text>
<text text-anchor="start" x="645.09" y="-272.2" font-family="Arial" font-size="14.00" fill="#666666">[table]</text>
<polygon fill="none" stroke="black" points="516.08,-228 516.08,-258.8 719.15,-258.8 719.15,-228 516.08,-228"/>
<text text-anchor="start" x="523.08" y="-240.2" font-family="Arial" font-size="14.00">id </text>
<text text-anchor="start" x="537.86" y="-240.2" font-family="Arial" font-size="14.00" fill="#666666">[INTEGER]</text>
<polygon fill="none" stroke="black" points="516.08,-197.2 516.08,-228 719.15,-228 719.15,-197.2 516.08,-197.2"/>
<text text-anchor="start" x="523.08" y="-209.4" font-family="Arial" font-size="14.00">sha1_checksum </text>
<text text-anchor="start" x="628.13" y="-209.4" font-family="Arial" font-size="14.00" fill="#666666">[BLOB]</text>
<polygon fill="none" stroke="black" points="516.08,-166.4 516.08,-197.2 719.15,-197.2 719.15,-166.4 516.08,-166.4"/>
<text text-anchor="start" x="523.08" y="-178.6" font-family="Arial" font-size="14.00">file_size </text>
<text text-anchor="start" x="577.54" y="-178.6" font-family="Arial" font-size="14.00" fill="#666666">[INTEGER]</text>
<polygon fill="none" stroke="black" points="516.08,-135.6 516.08,-166.4 719.15,-166.4 719.15,-135.6 516.08,-135.6"/>
<text text-anchor="start" x="523.08" y="-147.8" font-family="Arial" font-size="14.00">archive_file_name </text>
<text text-anchor="start" x="640.58" y="-147.8" font-family="Arial" font-size="14.00" fill="#666666">[TEXT]</text>
<polygon fill="none" stroke="black" points="516.08,-104.8 516.08,-135.6 719.15,-135.6 719.15,-104.8 516.08,-104.8"/>
<text text-anchor="start" x="523.08" y="-117" font-family="Arial" font-size="14.00">file_type </text>
<text text-anchor="start" x="579.11" y="-117" font-family="Arial" font-size="14.00" fill="#666666">[INTEGER]</text>
<polygon fill="none" stroke="black" points="516.08,-74 516.08,-104.8 719.15,-104.8 719.15,-74 516.08,-74"/>
<text text-anchor="start" x="523.08" y="-86.2" font-family="Arial" font-size="14.00">is_available </text>
<text text-anchor="start" x="600.12" y="-86.2" font-family="Arial" font-size="14.00" fill="#666666">[INTEGER]</text>
<polygon fill="none" stroke="black" points="516.08,-43.2 516.08,-74 719.15,-74 719.15,-43.2 516.08,-43.2"/>
<text text-anchor="start" x="523.08" y="-55.4" font-family="Arial" font-size="14.00">cloud_sync_status </text>
<text text-anchor="start" x="642.14" y="-55.4" font-family="Arial" font-size="14.00" fill="#666666">[INTEGER]</text>
</g>
<!-- file_info_system&#45;&gt;file_info -->
<g id="edge1" class="edge">
<title>file_info_system:file_info_id&#45;&gt;file_info:id</title>
<path fill="none" stroke="black" d="M660.45,-616.49C519.26,-601.12 884.06,-243.4 720.15,-243.4"/>
<polygon fill="black" stroke="black" points="660.17,-616.48 669.93,-621.48 665.5,-616.75 669.83,-616.97 669.83,-616.97 669.83,-616.97 665.5,-616.75 670.39,-612.49 660.17,-616.48"/>
<text text-anchor="start" x="112.27" y="-627" font-family="Arial" font-size="10.00">FOREIGN KEY (file_info_id) REFERENCES file_info (id) ON UPDATE NO ACTION ON DELETE CASCADE MATCH NONE</text>
</g>
<!-- system -->
<g id="node4" class="node">
<title>system</title>
<polygon fill="#efefef" stroke="none" points="1279.98,-181.8 1279.98,-217.4 1413.24,-217.4 1413.24,-181.8 1279.98,-181.8"/>
<polygon fill="none" stroke="black" points="1279.98,-181.8 1279.98,-217.4 1413.24,-217.4 1413.24,-181.8 1279.98,-181.8"/>
<text text-anchor="start" x="1286.98" y="-195.2" font-family="Arial Bold" font-size="18.00">system</text>
<text text-anchor="start" x="1336.99" y="-195.2" font-family="Arial" font-size="14.00">    </text>
<text text-anchor="start" x="1368.1" y="-195.2" font-family="Arial" font-size="14.00" fill="#666666">[table]</text>
<polygon fill="none" stroke="black" points="1279.98,-151 1279.98,-181.8 1413.24,-181.8 1413.24,-151 1279.98,-151"/>
<text text-anchor="start" x="1286.98" y="-163.2" font-family="Arial" font-size="14.00">id </text>
<text text-anchor="start" x="1301.77" y="-163.2" font-family="Arial" font-size="14.00" fill="#666666">[INTEGER]</text>
<polygon fill="none" stroke="black" points="1279.98,-120.2 1279.98,-151 1413.24,-151 1413.24,-120.2 1279.98,-120.2"/>
<text text-anchor="start" x="1286.98" y="-132.4" font-family="Arial" font-size="14.00">name </text>
<text text-anchor="start" x="1325.9" y="-132.4" font-family="Arial" font-size="14.00" fill="#666666">[TEXT]</text>
</g>
<!-- file_info_system&#45;&gt;system -->
<g id="edge3" class="edge">
<title>file_info_system:system_id&#45;&gt;system:id</title>
<path fill="none" stroke="black" d="M886.79,-585.65C967.03,-576.3 875.29,-448.81 931.61,-373.6 1039.37,-229.71 1099.22,-166.4 1278.98,-166.4"/>
<polygon fill="black" stroke="black" points="887.05,-585.64 876.82,-581.69 881.72,-585.93 877.4,-586.16 877.4,-586.16 877.4,-586.16 881.72,-585.93 877.31,-590.68 887.05,-585.64"/>
<text text-anchor="start" x="316.89" y="-596.2" font-family="Arial" font-size="10.00">FOREIGN KEY (system_id) REFERENCES system (id) ON UPDATE NO ACTION ON DELETE NO ACTION MATCH NONE</text>
</g>
<!-- file_set_file_info -->
<g id="node3" class="node">
<title>file_set_file_info</title>
<polygon fill="#efefef" stroke="none" points="357,-663.2 357,-698.8 564.22,-698.8 564.22,-663.2 357,-663.2"/>
<polygon fill="none" stroke="black" points="357,-663.2 357,-698.8 564.22,-698.8 564.22,-663.2 357,-663.2"/>
<text text-anchor="start" x="364" y="-676.6" font-family="Arial Bold" font-size="18.00">file_set_file_info</text>
<text text-anchor="start" x="487.97" y="-676.6" font-family="Arial" font-size="14.00">    </text>
<text text-anchor="start" x="519.08" y="-676.6" font-family="Arial" font-size="14.00" fill="#666666">[table]</text>
<polygon fill="none" stroke="black" points="357,-632.4 357,-663.2 564.22,-663.2 564.22,-632.4 357,-632.4"/>
<text text-anchor="start" x="364" y="-644.6" font-family="Arial" font-size="14.00">file_set_id </text>
<text text-anchor="start" x="430.94" y="-644.6" font-family="Arial" font-size="14.00" fill="#666666">[INTEGER]</text>
<polygon fill="none" stroke="black" points="357,-601.6 357,-632.4 564.22,-632.4 564.22,-601.6 357,-601.6"/>
<text text-anchor="start" x="364" y="-613.8" font-family="Arial" font-size="14.00">file_info_id </text>
<text text-anchor="start" x="434.83" y="-613.8" font-family="Arial" font-size="14.00" fill="#666666">[INTEGER]</text>
<polygon fill="none" stroke="black" points="357,-570.8 357,-601.6 564.22,-601.6 564.22,-570.8 357,-570.8"/>
<text text-anchor="start" x="364" y="-583" font-family="Arial" font-size="14.00">file_name </text>
<text text-anchor="start" x="428.6" y="-583" font-family="Arial" font-size="14.00" fill="#666666">[TEXT]</text>
<polygon fill="none" stroke="black" points="357,-540 357,-570.8 564.22,-570.8 564.22,-540 357,-540"/>
<text text-anchor="start" x="364" y="-552.2" font-family="Arial" font-size="14.00">sort_order </text>
<text text-anchor="start" x="431.7" y="-552.2" font-family="Arial" font-size="14.00" fill="#666666">[INTEGER]</text>
</g>
<!-- file_set_file_info&#45;&gt;file_info -->
<g id="edge2" class="edge">
<title>file_set_file_info:file_info_id&#45;&gt;file_info:id</title>
<path fill="none" stroke="black" d="M575.26,-616.49C716.46,-601.12 351.14,-243.4 515.08,-243.4"/>
<polygon fill="black" stroke="black" points="575.54,-616.48 565.33,-612.49 570.21,-616.75 565.89,-616.97 565.89,-616.97 565.89,-616.97 570.21,-616.75 565.78,-621.48 575.54,-616.48"/>
<text text-anchor="start" x="7" y="-601" font-family="Arial" font-size="10.00">FOREIGN KEY (file_info_id) REFERENCES file_info (id) ON UPDATE NO ACTION ON DELETE CASCADE MATCH NONE</text>
</g>
<!-- emulator -->
<g id="node5" class="node">
<title>emulator</title>
<polygon fill="#efefef" stroke="none" points="983.32,-694 983.32,-729.6 1145.91,-729.6 1145.91,-694 983.32,-694"/>
<polygon fill="none" stroke="black" points="983.32,-694 983.32,-729.6 1145.91,-729.6 1145.91,-694 983.32,-694"/>
<text text-anchor="start" x="998" y="-707.4" font-family="Arial Bold" font-size="18.00">emulator</text>
<text text-anchor="start" x="1061.97" y="-707.4" font-family="Arial" font-size="14.00">    </text>
<text text-anchor="start" x="1093.09" y="-707.4" font-family="Arial" font-size="14.00" fill="#666666">[table]</text>
<polygon fill="none" stroke="black" points="983.32,-663.2 983.32,-694 1145.91,-694 1145.91,-663.2 983.32,-663.2"/>
<text text-anchor="start" x="990.32" y="-675.4" font-family="Arial" font-size="14.00">id </text>
<text text-anchor="start" x="1005.1" y="-675.4" font-family="Arial" font-size="14.00" fill="#666666">[INTEGER]</text>
<polygon fill="none" stroke="black" points="983.32,-632.4 983.32,-663.2 1145.91,-663.2 1145.91,-632.4 983.32,-632.4"/>
<text text-anchor="start" x="990.32" y="-644.6" font-family="Arial" font-size="14.00">name </text>
<text text-anchor="start" x="1029.23" y="-644.6" font-family="Arial" font-size="14.00" fill="#666666">[TEXT]</text>
<polygon fill="none" stroke="black" points="983.32,-601.6 983.32,-632.4 1145.91,-632.4 1145.91,-601.6 983.32,-601.6"/>
<text text-anchor="start" x="990.32" y="-613.8" font-family="Arial" font-size="14.00">executable </text>
<text text-anchor="start" x="1061.92" y="-613.8" font-family="Arial" font-size="14.00" fill="#666666">[TEXT]</text>
<polygon fill="none" stroke="black" points="983.32,-570.8 983.32,-601.6 1145.91,-601.6 1145.91,-570.8 983.32,-570.8"/>
<text text-anchor="start" x="990.32" y="-583" font-family="Arial" font-size="14.00">extract_files </text>
<text text-anchor="start" x="1068.9" y="-583" font-family="Arial" font-size="14.00" fill="#666666">[INTEGER]</text>
<polygon fill="none" stroke="black" points="983.32,-540 983.32,-570.8 1145.91,-570.8 1145.91,-540 983.32,-540"/>
<text text-anchor="start" x="990.32" y="-552.2" font-family="Arial" font-size="14.00">arguments </text>
<text text-anchor="start" x="1060.35" y="-552.2" font-family="Arial" font-size="14.00" fill="#666666">[TEXT]</text>
<polygon fill="none" stroke="black" points="983.32,-509.2 983.32,-540 1145.91,-540 1145.91,-509.2 983.32,-509.2"/>
<text text-anchor="start" x="990.32" y="-521.4" font-family="Arial" font-size="14.00">system_id </text>
<text text-anchor="start" x="1057.23" y="-521.4" font-family="Arial" font-size="14.00" fill="#666666">[INTEGER]</text>
</g>
<!-- emulator&#45;&gt;system -->
<g id="edge4" class="edge">
<title>emulator:system_id&#45;&gt;system:id</title>
<path fill="none" stroke="black" d="M1157.2,-523.91C1213.44,-515.75 1175.57,-436.72 1198.61,-373.6 1232.48,-280.81 1180.21,-166.4 1278.98,-166.4"/>
<polygon fill="black" stroke="black" points="1157.22,-523.91 1146.94,-520.09 1151.9,-524.27 1147.58,-524.56 1147.58,-524.56 1147.58,-524.56 1151.9,-524.27 1147.54,-529.07 1157.22,-523.91"/>
<text text-anchor="start" x="1153.91" y="-508.6" font-family="Arial" font-size="10.00">FOREIGN KEY (system_id) REFERENCES system (id) ON UPDATE NO ACTION ON DELETE CASCADE MATCH NONE</text>
</g>
<!-- release_system -->
<g id="node6" class="node">
<title>release_system</title>
<polygon fill="#efefef" stroke="none" points="1250.51,-632.4 1250.51,-668 1442.72,-668 1442.72,-632.4 1250.51,-632.4"/>
<polygon fill="none" stroke="black" points="1250.51,-632.4 1250.51,-668 1442.72,-668 1442.72,-632.4 1250.51,-632.4"/>
<text text-anchor="start" x="1257.51" y="-645.8" font-family="Arial Bold" font-size="18.00">release_system</text>
<text text-anchor="start" x="1366.46" y="-645.8" font-family="Arial" font-size="14.00">    </text>
<text text-anchor="start" x="1397.58" y="-645.8" font-family="Arial" font-size="14.00" fill="#666666">[table]</text>
<polygon fill="none" stroke="black" points="1250.51,-601.6 1250.51,-632.4 1442.72,-632.4 1442.72,-601.6 1250.51,-601.6"/>
<text text-anchor="start" x="1257.51" y="-613.8" font-family="Arial" font-size="14.00">release_id </text>
<text text-anchor="start" x="1326" y="-613.8" font-family="Arial" font-size="14.00" fill="#666666">[INTEGER]</text>
<polygon fill="none" stroke="black" points="1250.51,-570.8 1250.51,-601.6 1442.72,-601.6 1442.72,-570.8 1250.51,-570.8"/>
<text text-anchor="start" x="1257.51" y="-583" font-family="Arial" font-size="14.00">system_id </text>
<text text-anchor="start" x="1324.42" y="-583" font-family="Arial" font-size="14.00" fill="#666666">[INTEGER]</text>
</g>
<!-- release_system&#45;&gt;system -->
<g id="edge5" class="edge">
<title>release_system:system_id&#45;&gt;system:id</title>
<path fill="none" stroke="black" d="M1346.88,-559.37C1355.96,-379.65 1592.57,-166.4 1414.24,-166.4"/>
<polygon fill="black" stroke="black" points="1346.88,-559.47 1342.12,-569.35 1346.74,-564.8 1346.63,-569.13 1346.63,-569.13 1346.63,-569.13 1346.74,-564.8 1351.12,-569.58 1346.88,-559.47"/>
<text text-anchor="start" x="933.89" y="-553.8" font-family="Arial" font-size="10.00">FOREIGN KEY (system_id) REFERENCES system (id) ON UPDATE NO ACTION ON DELETE CASCADE MATCH NONE</text>
</g>
<!-- dat_file -->
<g id="node7" class="node">
<title>dat_file</title>
<polygon fill="#efefef" stroke="none" points="1547.15,-786.4 1547.15,-822 1698.07,-822 1698.07,-786.4 1547.15,-786.4"/>
<polygon fill="none" stroke="black" points="1547.15,-786.4 1547.15,-822 1698.07,-822 1698.07,-786.4 1547.15,-786.4"/>
<text text-anchor="start" x="1560.5" y="-799.8" font-family="Arial Bold" font-size="18.00">dat_file</text>
<text text-anchor="start" x="1615.47" y="-799.8" font-family="Arial" font-size="14.00">    </text>
<text text-anchor="start" x="1646.59" y="-799.8" font-family="Arial" font-size="14.00" fill="#666666">[table]</text>
<polygon fill="none" stroke="black" points="1547.15,-755.6 1547.15,-786.4 1698.07,-786.4 1698.07,-755.6 1547.15,-755.6"/>
<text text-anchor="start" x="1554.15" y="-767.8" font-family="Arial" font-size="14.00">id </text>
<text text-anchor="start" x="1568.94" y="-767.8" font-family="Arial" font-size="14.00" fill="#666666">[INTEGER]</text>
<polygon fill="none" stroke="black" points="1547.15,-724.8 1547.15,-755.6 1698.07,-755.6 1698.07,-724.8 1547.15,-724.8"/>
<text text-anchor="start" x="1554.15" y="-737" font-family="Arial" font-size="14.00">dat_id </text>
<text text-anchor="start" x="1596.19" y="-737" font-family="Arial" font-size="14.00" fill="#666666">[INTEGER]</text>
<polygon fill="none" stroke="black" points="1547.15,-694 1547.15,-724.8 1698.07,-724.8 1698.07,-694 1547.15,-694"/>
<text text-anchor="start" x="1554.15" y="-706.2" font-family="Arial" font-size="14.00">name </text>
<text text-anchor="start" x="1593.06" y="-706.2" font-family="Arial" font-size="14.00" fill="#666666">[TEXT]</text>
<polygon fill="none" stroke="black" points="1547.15,-663.2 1547.15,-694 1698.07,-694 1698.07,-663.2 1547.15,-663.2"/>
<text text-anchor="start" x="1554.15" y="-675.4" font-family="Arial" font-size="14.00">description </text>
<text text-anchor="start" x="1625.75" y="-675.4" font-family="Arial" font-size="14.00" fill="#666666">[TEXT]</text>
<polygon fill="none" stroke="black" points="1547.15,-632.4 1547.15,-663.2 1698.07,-663.2 1698.07,-632.4 1547.15,-632.4"/>
<text text-anchor="start" x="1554.15" y="-644.6" font-family="Arial" font-size="14.00">version </text>
<text text-anchor="start" x="1603.17" y="-644.6" font-family="Arial" font-size="14.00" fill="#666666">[TEXT]</text>
<polygon fill="none" stroke="black" points="1547.15,-601.6 1547.15,-632.4 1698.07,-632.4 1698.07,-601.6 1547.15,-601.6"/>
<text text-anchor="start" x="1554.15" y="-613.8" font-family="Arial" font-size="14.00">date </text>
<text text-anchor="start" x="1585.29" y="-613.8" font-family="Arial" font-size="14.00" fill="#666666">[TEXT]</text>
<polygon fill="none" stroke="black" points="1547.15,-570.8 1547.15,-601.6 1698.07,-601.6 1698.07,-570.8 1547.15,-570.8"/>
<text text-anchor="start" x="1554.15" y="-583" font-family="Arial" font-size="14.00">author </text>
<text text-anchor="start" x="1597.74" y="-583" font-family="Arial" font-size="14.00" fill="#666666">[TEXT]</text>
<polygon fill="none" stroke="black" points="1547.15,-540 1547.15,-570.8 1698.07,-570.8 1698.07,-540 1547.15,-540"/>
<text text-anchor="start" x="1554.15" y="-552.2" font-family="Arial" font-size="14.00">homepage </text>
<text text-anchor="start" x="1624.21" y="-552.2" font-family="Arial" font-size="14.00" fill="#666666">[TEXT]</text>
<polygon fill="none" stroke="black" points="1547.15,-509.2 1547.15,-540 1698.07,-540 1698.07,-509.2 1547.15,-509.2"/>
<text text-anchor="start" x="1554.15" y="-521.4" font-family="Arial" font-size="14.00">url </text>
<text text-anchor="start" x="1573.6" y="-521.4" font-family="Arial" font-size="14.00" fill="#666666">[TEXT]</text>
<polygon fill="none" stroke="black" points="1547.15,-478.4 1547.15,-509.2 1698.07,-509.2 1698.07,-478.4 1547.15,-478.4"/>
<text text-anchor="start" x="1554.15" y="-490.6" font-family="Arial" font-size="14.00">subset </text>
<text text-anchor="start" x="1599.29" y="-490.6" font-family="Arial" font-size="14.00" fill="#666666">[TEXT]</text>
<polygon fill="none" stroke="black" points="1547.15,-447.6 1547.15,-478.4 1698.07,-478.4 1698.07,-447.6 1547.15,-447.6"/>
<text text-anchor="start" x="1554.15" y="-459.8" font-family="Arial" font-size="14.00">imported_at </text>
<text text-anchor="start" x="1631.97" y="-459.8" font-family="Arial" font-size="14.00" fill="#666666">[TEXT]</text>
<polygon fill="none" stroke="black" points="1547.15,-416.8 1547.15,-447.6 1698.07,-447.6 1698.07,-416.8 1547.15,-416.8"/>
<text text-anchor="start" x="1554.15" y="-429" font-family="Arial" font-size="14.00">system_id </text>
<text text-anchor="start" x="1621.06" y="-429" font-family="Arial" font-size="14.00" fill="#666666">[INTEGER]</text>
</g>
<!-- dat_file&#45;&gt;system -->
<g id="edge6" class="edge">
<title>dat_file:system_id&#45;&gt;system:id</title>
<path fill="none" stroke="black" d="M1536.25,-430.06C1480.03,-404.91 1476.7,-166.4 1414.24,-166.4"/>
<polygon fill="black" stroke="black" points="1536.05,-430.02 1544.88,-436.53 1541.27,-431.14 1545.5,-432.06 1545.5,-432.06 1545.5,-432.06 1541.27,-431.14 1546.78,-427.73 1536.05,-430.02"/>
<text text-anchor="start" x="993.53" y="-442.2" font-family="Arial" font-size="10.00">FOREIGN KEY (system_id) REFERENCES system (id) ON UPDATE NO ACTION ON DELETE CASCADE MATCH NONE</text>
</g>
<!-- system_libretro_core -->
<g id="node8" class="node">
<title>system_libretro_core</title>
<polygon fill="#efefef" stroke="none" points="1802.01,-647.8 1802.01,-683.4 2037.22,-683.4 2037.22,-647.8 1802.01,-647.8"/>
<polygon fill="none" stroke="black" points="1802.01,-647.8 1802.01,-683.4 2037.22,-683.4 2037.22,-647.8 1802.01,-647.8"/>
<text text-anchor="start" x="1809.01" y="-661.2" font-family="Arial Bold" font-size="18.00">system_libretro_core</text>
<text text-anchor="start" x="1960.96" y="-661.2" font-family="Arial" font-size="14.00">    </text>
<text text-anchor="start" x="1992.08" y="-661.2" font-family="Arial" font-size="14.00" fill="#666666">[table]</text>
<polygon fill="none" stroke="black" points="1802.01,-617 1802.01,-647.8 2037.22,-647.8 2037.22,-617 1802.01,-617"/>
<text text-anchor="start" x="1809.01" y="-629.2" font-family="Arial" font-size="14.00">id </text>
<text text-anchor="start" x="1823.79" y="-629.2" font-family="Arial" font-size="14.00" fill="#666666">[INTEGER]</text>
<polygon fill="none" stroke="black" points="1802.01,-586.2 1802.01,-617 2037.22,-617 2037.22,-586.2 1802.01,-586.2"/>
<text text-anchor="start" x="1809.01" y="-598.4" font-family="Arial" font-size="14.00">system_id </text>
<text text-anchor="start" x="1875.92" y="-598.4" font-family="Arial" font-size="14.00" fill="#666666">[INTEGER]</text>
<polygon fill="none" stroke="black" points="1802.01,-555.4 1802.01,-586.2 2037.22,-586.2 2037.22,-555.4 1802.01,-555.4"/>
<text text-anchor="start" x="1809.01" y="-567.6" font-family="Arial" font-size="14.00">core_name </text>
<text text-anchor="start" x="1882.94" y="-567.6" font-family="Arial" font-size="14.00" fill="#666666">[TEXT]</text>
</g>
<!-- system_libretro_core&#45;&gt;system -->
<g id="edge7" class="edge">
<title>system_libretro_core:system_id&#45;&gt;system:id</title>
<path fill="none" stroke="black" d="M1790.59,-601.05C1705.21,-591.31 1808.58,-455.12 1750.61,-373.6 1648.86,-230.5 1589.83,-166.4 1414.24,-166.4"/>
<polygon fill="black" stroke="black" points="1790.69,-601.05 1800.44,-606.08 1796.02,-601.34 1800.34,-601.56 1800.34,-601.56 1800.34,-601.56 1796.02,-601.34 1800.91,-597.09 1790.69,-601.05"/>
<text text-anchor="start" x="1808.01" y="-611.6" font-family="Arial" font-size="10.00">FOREIGN KEY (system_id) REFERENCES system (id) ON UPDATE NO ACTION ON DELETE CASCADE MATCH NONE</text>
</g>
</g>
</svg>
