<?xml version="1.0" encoding="UTF-8" standalone="no"?>
<!DOCTYPE svg PUBLIC "-//W3C//DTD SVG 1.1//EN"
 "http://www.w3.org/Graphics/SVG/1.1/DTD/svg11.dtd">
<!-- Generated by graphviz version 12.1.2 (20240928.0832)
 -->
<!-- Title: file_set Pages: 1 -->
<svg width="2094pt" height="571pt"
 viewBox="0.00 0.00 2093.92 571.20" xmlns="http://www.w3.org/2000/svg" xmlns:xlink="http://www.w3.org/1999/xlink">
<g id="graph0" class="graph" transform="scale(1 1) rotate(0) translate(4 567.2)">
<title>file_set</title>
<polygon fill="white" stroke="none" points="-4,4 -4,-567.2 2089.92,-567.2 2089.92,4 -4,4"/>
<!-- file_set -->
<g id="node1" class="node">
<title>file_set</title>
<polygon fill="#efefef" stroke="none" points="802.02,-200.2 802.02,-235.8 942.06,-235.8 942.06,-200.2 802.02,-200.2"/>
<polygon fill="none" stroke="black" points="802.02,-200.2 802.02,-235.8 942.06,-235.8 942.06,-200.2 802.02,-200.2"/>
<text text-anchor="start" x="810.92" y="-213.6" font-family="Arial Bold" font-size="18.00">file_set</text>
<text text-anchor="start" x="863.9" y="-213.6" font-family="Arial" font-size="14.00">    </text>
<text text-anchor="start" x="895.02" y="-213.6" font-family="Arial" font-size="14.00" fill="#666666">[table]</text>
<polygon fill="none" stroke="black" points="802.02,-169.4 802.02,-200.2 942.06,-200.2 942.06,-169.4 802.02,-169.4"/>
<text text-anchor="start" x="809.02" y="-181.6" font-family="Arial" font-size="14.00">id </text>
<text text-anchor="start" x="823.81" y="-181.6" font-family="Arial" font-size="14.00" fill="#666666">[INTEGER]</text>
<polygon fill="none" stroke="black" points="802.02,-138.6 802.02,-169.4 942.06,-169.4 942.06,-138.6 802.02,-138.6"/>
<text text-anchor="start" x="809.02" y="-150.8" font-family="Arial" font-size="14.00">file_name </text>
<text text-anchor="start" x="873.61" y="-150.8" font-family="Arial" font-size="14.00" fill="#666666">[TEXT]</text>
<polygon fill="none" stroke="black" points="802.02,-107.8 802.02,-138.6 942.06,-138.6 942.06,-107.8 802.02,-107.8"/>
<text text-anchor="start" x="809.02" y="-120" font-family="Arial" font-size="14.00">file_type </text>
<text text-anchor="start" x="865.05" y="-120" font-family="Arial" font-size="14.00" fill="#666666">[INTEGER]</text>
<polygon fill="none" stroke="black" points="802.02,-77 802.02,-107.8 942.06,-107.8 942.06,-77 802.02,-77"/>
<text text-anchor="start" x="809.02" y="-89.2" font-family="Arial" font-size="14.00">name </text>
<text text-anchor="start" x="847.93" y="-89.2" font-family="Arial" font-size="14.00" fill="#666666">[TEXT]</text>
<polygon fill="none" stroke="black" points="802.02,-46.2 802.02,-77 942.06,-77 942.06,-46.2 802.02,-46.2"/>
<text text-anchor="start" x="809.02" y="-58.4" font-family="Arial" font-size="14.00">source </text>
<text text-anchor="start" x="854.93" y="-58.4" font-family="Arial" font-size="14.00" fill="#666666">[TEXT]</text>
<polygon fill="none" stroke="black" stroke-width="3" points="800.52,-44.7 800.52,-237.3 943.56,-237.3 943.56,-44.7 800.52,-44.7"/>
</g>
<!-- file_set_file_info -->
<g id="node2" class="node">
<title>file_set_file_info</title>
<polygon fill="#efefef" stroke="none" points="573.43,-484.4 573.43,-520 780.65,-520 780.65,-484.4 573.43,-484.4"/>
<polygon fill="none" stroke="black" points="573.43,-484.4 573.43,-520 780.65,-520 780.65,-484.4 573.43,-484.4"/>
<text text-anchor="start" x="580.43" y="-497.8" font-family="Arial Bold" font-size="18.00">file_set_file_info</text>
<text text-anchor="start" x="704.39" y="-497.8" font-family="Arial" font-size="14.00">    </text>
<text text-anchor="start" x="735.51" y="-497.8" font-family="Arial" font-size="14.00" fill="#666666">[table]</text>
<polygon fill="none" stroke="black" points="573.43,-453.6 573.43,-484.4 780.65,-484.4 780.65,-453.6 573.43,-453.6"/>
<text text-anchor="start" x="580.43" y="-465.8" font-family="Arial" font-size="14.00">file_set_id </text>
<text text-anchor="start" x="647.36" y="-465.8" font-family="Arial" font-size="14.00" fill="#666666">[INTEGER]</text>
<polygon fill="none" stroke="black" points="573.43,-422.8 573.43,-453.6 780.65,-453.6 780.65,-422.8 573.43,-422.8"/>
<text text-anchor="start" x="580.43" y="-435" font-family="Arial" font-size="14.00">file_info_id </text>
<text text-anchor="start" x="651.26" y="-435" font-family="Arial" font-size="14.00" fill="#666666">[INTEGER]</text>
<polygon fill="none" stroke="black" points="573.43,-392 573.43,-422.8 780.65,-422.8 780.65,-392 573.43,-392"/>
<text text-anchor="start" x="580.43" y="-404.2" font-family="Arial" font-size="14.00">file_name </text>
<text text-anchor="start" x="645.03" y="-404.2" font-family="Arial" font-size="14.00" fill="#666666">[TEXT]</text>
<polygon fill="none" stroke="black" points="573.43,-361.2 573.43,-392 780.65,-392 780.65,-361.2 573.43,-361.2"/>
<text text-anchor="start" x="580.43" y="-373.4" font-family="Arial" font-size="14.00">sort_order </text>
<text text-anchor="start" x="648.13" y="-373.4" font-family="Arial" font-size="14.00" fill="#666666">[INTEGER]</text>
</g>
<!-- file_set_file_info&#45;&gt;file_set -->
<g id="edge1" class="edge">
<title>file_set_file_info:file_set_id&#45;&gt;file_set:id</title>
<path fill="none" stroke="black" d="M791.87,-468.28C894.86,-452.59 678.12,-184.8 801.02,-184.8"/>
<polygon fill="black" stroke="black" points="791.96,-468.28 781.67,-464.49 786.64,-468.65 782.32,-468.95 782.32,-468.95 782.32,-468.95 786.64,-468.65 782.3,-473.47 791.96,-468.28"/>
<text text-anchor="start" x="221.78" y="-479" font-family="Arial" font-size="10.00">FOREIGN KEY (file_set_id) REFERENCES file_set (id) ON UPDATE NO ACTION ON DELETE NO ACTION MATCH NONE</text>
</g>
<!-- file_info -->
<g id="node3" class="node">
<title>file_info</title>
<polygon fill="#efefef" stroke="none" points="519.51,-200.2 519.51,-235.8 694.57,-235.8 694.57,-200.2 519.51,-200.2"/>
<polygon fill="none" stroke="black" points="519.51,-200.2 519.51,-235.8 694.57,-235.8 694.57,-200.2 519.51,-200.2"/>
<text text-anchor="start" x="541.42" y="-213.6" font-family="Arial Bold" font-size="18.00">file_info</text>
<text text-anchor="start" x="603.4" y="-213.6" font-family="Arial" font-size="14.00">    </text>
<text text-anchor="start" x="634.52" y="-213.6" font-family="Arial" font-size="14.00" fill="#666666">[table]</text>
<polygon fill="none" stroke="black" points="519.51,-169.4 519.51,-200.2 694.57,-200.2 694.57,-169.4 519.51,-169.4"/>
<text text-anchor="start" x="526.51" y="-181.6" font-family="Arial" font-size="14.00">id </text>
<text text-anchor="start" x="541.29" y="-181.6" font-family="Arial" font-size="14.00" fill="#666666">[INTEGER]</text>
<polygon fill="none" stroke="black" points="519.51,-138.6 519.51,-169.4 694.57,-169.4 694.57,-138.6 519.51,-138.6"/>
<text text-anchor="start" x="526.51" y="-150.8" font-family="Arial" font-size="14.00">sha1_checksum </text>
<text text-anchor="start" x="631.56" y="-150.8" font-family="Arial" font-size="14.00" fill="#666666">[BLOB]</text>
<polygon fill="none" stroke="black" points="519.51,-107.8 519.51,-138.6 694.57,-138.6 694.57,-107.8 519.51,-107.8"/>
<text text-anchor="start" x="526.51" y="-120" font-family="Arial" font-size="14.00">file_size </text>
<text text-anchor="start" x="580.98" y="-120" font-family="Arial" font-size="14.00" fill="#666666">[INTEGER]</text>
<polygon fill="none" stroke="black" points="519.51,-77 519.51,-107.8 694.57,-107.8 694.57,-77 519.51,-77"/>
<text text-anchor="start" x="526.51" y="-89.2" font-family="Arial" font-size="14.00">archive_file_name </text>
<text text-anchor="start" x="644.02" y="-89.2" font-family="Arial" font-size="14.00" fill="#666666">[TEXT]</text>
<polygon fill="none" stroke="black" points="519.51,-46.2 519.51,-77 694.57,-77 694.57,-46.2 519.51,-46.2"/>
<text text-anchor="start" x="526.51" y="-58.4" font-family="Arial" font-size="14.00">file_type </text>
<text text-anchor="start" x="582.54" y="-58.4" font-family="Arial" font-size="14.00" fill="#666666">[INTEGER]</text>
</g>
<!-- file_set_file_info&#45;&gt;file_info -->
<g id="edge2" class="edge">
<title>file_set_file_info:file_info_id&#45;&gt;file_info:id</title>
<path fill="none" stroke="black" d="M562.27,-437.09C522.26,-427.52 544.02,-358.02 573.43,-318 606.93,-272.42 661.02,-324.54 694.57,-279 719.41,-245.29 737.44,-184.8 695.57,-184.8"/>
<polygon fill="black" stroke="black" points="562.16,-437.08 571.61,-442.64 567.46,-437.66 571.77,-438.13 571.77,-438.13 571.77,-438.13 567.46,-437.66 572.59,-433.69 562.16,-437.08"/>
<text text-anchor="start" x="7" y="-448.2" font-family="Arial" font-size="10.00">FOREIGN KEY (file_info_id) REFERENCES file_info (id) ON UPDATE NO ACTION ON DELETE NO ACTION MATCH NONE</text>
</g>
<!-- release_file_set -->
<g id="node4" class="node">
<title>release_file_set</title>
<polygon fill="#efefef" stroke="none" points="920.44,-453.6 920.44,-489.2 1115.64,-489.2 1115.64,-453.6 920.44,-453.6"/>
<polygon fill="none" stroke="black" points="920.44,-453.6 920.44,-489.2 1115.64,-489.2 1115.64,-453.6 920.44,-453.6"/>
<text text-anchor="start" x="927.44" y="-467" font-family="Arial Bold" font-size="18.00">release_file_set</text>
<text text-anchor="start" x="1039.38" y="-467" font-family="Arial" font-size="14.00">    </text>
<text text-anchor="start" x="1070.5" y="-467" font-family="Arial" font-size="14.00" fill="#666666">[table]</text>
<polygon fill="none" stroke="black" points="920.44,-422.8 920.44,-453.6 1115.64,-453.6 1115.64,-422.8 920.44,-422.8"/>
<text text-anchor="start" x="927.44" y="-435" font-family="Arial" font-size="14.00">release_id </text>
<text text-anchor="start" x="995.93" y="-435" font-family="Arial" font-size="14.00" fill="#666666">[INTEGER]</text>
<polygon fill="none" stroke="black" points="920.44,-392 920.44,-422.8 1115.64,-422.8 1115.64,-392 920.44,-392"/>
<text text-anchor="start" x="927.44" y="-404.2" font-family="Arial" font-size="14.00">file_set_id </text>
<text text-anchor="start" x="994.38" y="-404.2" font-family="Arial" font-size="14.00" fill="#666666">[INTEGER]</text>
</g>
<!-- release_file_set&#45;&gt;file_set -->
<g id="edge3" class="edge">
<title>release_file_set:file_set_id&#45;&gt;file_set:id</title>
<path fill="none" stroke="black" d="M909.74,-404.45C900.98,-395.81 916.93,-369.88 920.44,-348.8 932.53,-276.22 1016.64,-184.8 943.06,-184.8"/>
<polygon fill="black" stroke="black" points="909.56,-404.39 917.81,-411.61 914.66,-405.94 918.8,-407.21 918.8,-407.21 918.8,-407.21 914.66,-405.94 920.44,-403 909.56,-404.39"/>
<text text-anchor="start" x="926.44" y="-417.4" font-family="Arial" font-size="10.00">FOREIGN KEY (file_set_id) REFERENCES file_set (id) ON UPDATE NO ACTION ON DELETE CASCADE MATCH NONE</text>
</g>
<!-- release -->
<g id="node5" class="node">
<title>release</title>
<polygon fill="#efefef" stroke="none" points="1049.43,-154 1049.43,-189.6 1182.65,-189.6 1182.65,-154 1049.43,-154"/>
<polygon fill="none" stroke="black" points="1049.43,-154 1049.43,-189.6 1182.65,-189.6 1182.65,-154 1049.43,-154"/>
<text text-anchor="start" x="1056.43" y="-167.4" font-family="Arial Bold" font-size="18.00">release</text>
<text text-anchor="start" x="1106.39" y="-167.4" font-family="Arial" font-size="14.00">    </text>
<text text-anchor="start" x="1137.51" y="-167.4" font-family="Arial" font-size="14.00" fill="#666666">[table]</text>
<polygon fill="none" stroke="black" points="1049.43,-123.2 1049.43,-154 1182.65,-154 1182.65,-123.2 1049.43,-123.2"/>
<text text-anchor="start" x="1056.43" y="-135.4" font-family="Arial" font-size="14.00">id </text>
<text text-anchor="start" x="1071.22" y="-135.4" font-family="Arial" font-size="14.00" fill="#666666">[INTEGER]</text>
<polygon fill="none" stroke="black" points="1049.43,-92.4 1049.43,-123.2 1182.65,-123.2 1182.65,-92.4 1049.43,-92.4"/>
<text text-anchor="start" x="1056.43" y="-104.6" font-family="Arial" font-size="14.00">name </text>
<text text-anchor="start" x="1095.34" y="-104.6" font-family="Arial" font-size="14.00" fill="#666666">[TEXT]</text>
</g>
<!-- release_file_set&#45;&gt;release -->
<g id="edge4" class="edge">
<title>release_file_set:release_id&#45;&gt;release:id</title>
<path fill="none" stroke="black" d="M1126.79,-437.54C1234.89,-422.04 915.61,-138.6 1048.43,-138.6"/>
<polygon fill="black" stroke="black" points="1126.95,-437.53 1116.68,-433.69 1121.63,-437.88 1117.3,-438.16 1117.3,-438.16 1117.3,-438.16 1121.63,-437.88 1117.26,-442.67 1126.95,-437.53"/>
<text text-anchor="start" x="561.76" y="-448.2" font-family="Arial" font-size="10.00">FOREIGN KEY (release_id) REFERENCES release (id) ON UPDATE NO ACTION ON DELETE CASCADE MATCH NONE</text>
</g>
<!-- release_item_file_set -->
<g id="node6" class="node">
<title>release_item_file_set</title>
<polygon fill="#efefef" stroke="none" points="1237.95,-453.6 1237.95,-489.2 1474.13,-489.2 1474.13,-453.6 1237.95,-453.6"/>
<polygon fill="none" stroke="black" points="1237.95,-453.6 1237.95,-489.2 1474.13,-489.2 1474.13,-453.6 1237.95,-453.6"/>
<text text-anchor="start" x="1244.95" y="-467" font-family="Arial Bold" font-size="18.00">release_item_file_set</text>
<text text-anchor="start" x="1397.88" y="-467" font-family="Arial" font-size="14.00">    </text>
<text text-anchor="start" x="1429" y="-467" font-family="Arial" font-size="14.00" fill="#666666">[table]</text>
<polygon fill="none" stroke="black" points="1237.95,-422.8 1237.95,-453.6 1474.13,-453.6 1474.13,-422.8 1237.95,-422.8"/>
<text text-anchor="start" x="1244.95" y="-435" font-family="Arial" font-size="14.00">release_item_id </text>
<text text-anchor="start" x="1347.67" y="-435" font-family="Arial" font-size="14.00" fill="#666666">[INTEGER]</text>
<polygon fill="none" stroke="black" points="1237.95,-392 1237.95,-422.8 1474.13,-422.8 1474.13,-392 1237.95,-392"/>
<text text-anchor="start" x="1244.95" y="-404.2" font-family="Arial" font-size="14.00">file_set_id </text>
<text text-anchor="start" x="1311.88" y="-404.2" font-family="Arial" font-size="14.00" fill="#666666">[INTEGER]</text>
</g>
<!-- release_item_file_set&#45;&gt;file_set -->
<g id="edge5" class="edge">
<title>release_item_file_set:file_set_id&#45;&gt;file_set:id</title>
<path fill="none" stroke="black" d="M1226.94,-406.4C1189.94,-398.29 1207.37,-342.7 1168.04,-318 1102.27,-276.69 1059.54,-328.11 997.04,-282 957.28,-252.66 992.48,-184.8 943.06,-184.8"/>
<polygon fill="black" stroke="black" points="1226.66,-406.38 1236.17,-411.84 1231.97,-406.9 1236.28,-407.33 1236.28,-407.33 1236.28,-407.33 1231.97,-406.9 1237.06,-402.89 1226.66,-406.38"/>
<text text-anchor="start" x="1243.95" y="-391.4" font-family="Arial" font-size="10.00">FOREIGN KEY (file_set_id) REFERENCES file_set (id) ON UPDATE NO ACTION ON DELETE CASCADE MATCH NONE</text>
</g>
<!-- release_item -->
<g id="node7" class="node">
<title>release_item</title>
<polygon fill="#efefef" stroke="none" points="1286.94,-184.8 1286.94,-220.4 1461.14,-220.4 1461.14,-184.8 1286.94,-184.8"/>
<polygon fill="none" stroke="black" points="1286.94,-184.8 1286.94,-220.4 1461.14,-220.4 1461.14,-184.8 1286.94,-184.8"/>
<text text-anchor="start" x="1293.94" y="-198.2" font-family="Arial Bold" font-size="18.00">release_item</text>
<text text-anchor="start" x="1384.89" y="-198.2" font-family="Arial" font-size="14.00">    </text>
<text text-anchor="start" x="1416" y="-198.2" font-family="Arial" font-size="14.00" fill="#666666">[table]</text>
<polygon fill="none" stroke="black" points="1286.94,-154 1286.94,-184.8 1461.14,-184.8 1461.14,-154 1286.94,-154"/>
<text text-anchor="start" x="1293.94" y="-166.2" font-family="Arial" font-size="14.00">id </text>
<text text-anchor="start" x="1308.72" y="-166.2" font-family="Arial" font-size="14.00" fill="#666666">[INTEGER]</text>
<polygon fill="none" stroke="black" points="1286.94,-123.2 1286.94,-154 1461.14,-154 1461.14,-123.2 1286.94,-123.2"/>
<text text-anchor="start" x="1293.94" y="-135.4" font-family="Arial" font-size="14.00">release_id </text>
<text text-anchor="start" x="1362.43" y="-135.4" font-family="Arial" font-size="14.00" fill="#666666">[INTEGER]</text>
<polygon fill="none" stroke="black" points="1286.94,-92.4 1286.94,-123.2 1461.14,-123.2 1461.14,-92.4 1286.94,-92.4"/>
<text text-anchor="start" x="1293.94" y="-104.6" font-family="Arial" font-size="14.00">item_type </text>
<text text-anchor="start" x="1358.52" y="-104.6" font-family="Arial" font-size="14.00" fill="#666666">[INTEGER]</text>
<polygon fill="none" stroke="black" points="1286.94,-61.6 1286.94,-92.4 1461.14,-92.4 1461.14,-61.6 1286.94,-61.6"/>
<text text-anchor="start" x="1293.94" y="-73.8" font-family="Arial" font-size="14.00">notes </text>
<text text-anchor="start" x="1332.08" y="-73.8" font-family="Arial" font-size="14.00" fill="#666666">[TEXT]</text>
</g>
<!-- release_item_file_set&#45;&gt;release_item -->
<g id="edge6" class="edge">
<title>release_item_file_set:release_item_id&#45;&gt;release_item:id</title>
<path fill="none" stroke="black" d="M1485.14,-436.67C1511.12,-427.46 1493.71,-378.84 1474.13,-348.8 1424.23,-272.21 1336.81,-340.2 1286.94,-263.6 1264.09,-228.51 1244.07,-169.4 1285.94,-169.4"/>
<polygon fill="black" stroke="black" points="1485.35,-436.64 1474.78,-433.7 1480.08,-437.44 1475.79,-438.1 1475.79,-438.1 1475.79,-438.1 1480.08,-437.44 1476.14,-442.6 1485.35,-436.64"/>
<text text-anchor="start" x="1482.13" y="-448.2" font-family="Arial" font-size="10.00">FOREIGN KEY (release_item_id) REFERENCES release_item (id) ON UPDATE NO ACTION ON DELETE CASCADE MATCH NONE</text>
</g>
</g>
</svg>
