<?xml version="1.0" encoding="UTF-8" standalone="no"?>
<!DOCTYPE svg PUBLIC "-//W3C//DTD SVG 1.1//EN"
 "http://www.w3.org/Graphics/SVG/1.1/DTD/svg11.dtd">
<!-- Generated by graphviz version 12.1.2 (20240928.0832)
 -->
<!-- Title: file_set_file_info Pages: 1 -->
<svg width="1553pt" height="540pt"
 viewBox="0.00 0.00 1553.16 540.40" xmlns="http://www.w3.org/2000/svg" xmlns:xlink="http://www.w3.org/1999/xlink">
<g id="graph0" class="graph" transform="scale(1 1) rotate(0) translate(4 536.4)">
<title>file_set_file_info</title>
<polygon fill="white" stroke="none" points="-4,4 -4,-536.4 1549.16,-536.4 1549.16,4 -4,4"/>
<!-- file_set_file_info -->
<g id="node1" class="node">
<title>file_set_file_info</title>
<polygon fill="#efefef" stroke="none" points="666.45,-450.6 666.45,-486.2 873.67,-486.2 873.67,-450.6 666.45,-450.6"/>
<polygon fill="none" stroke="black" points="666.45,-450.6 666.45,-486.2 873.67,-486.2 873.67,-450.6 666.45,-450.6"/>
<text text-anchor="start" x="673.45" y="-464" font-family="Arial Bold" font-size="18.00">file_set_file_info</text>
<text text-anchor="start" x="797.41" y="-464" font-family="Arial" font-size="14.00">    </text>
<text text-anchor="start" x="828.53" y="-464" font-family="Arial" font-size="14.00" fill="#666666">[table]</text>
<polygon fill="none" stroke="black" points="666.45,-419.8 666.45,-450.6 873.67,-450.6 873.67,-419.8 666.45,-419.8"/>
<text text-anchor="start" x="673.45" y="-432" font-family="Arial" font-size="14.00">file_set_id </text>
<text text-anchor="start" x="740.38" y="-432" font-family="Arial" font-size="14.00" fill="#666666">[INTEGER]</text>
<polygon fill="none" stroke="black" points="666.45,-389 666.45,-419.8 873.67,-419.8 873.67,-389 666.45,-389"/>
<text text-anchor="start" x="673.45" y="-401.2" font-family="Arial" font-size="14.00">file_info_id </text>
<text text-anchor="start" x="744.28" y="-401.2" font-family="Arial" font-size="14.00" fill="#666666">[INTEGER]</text>
<polygon fill="none" stroke="black" points="666.45,-358.2 666.45,-389 873.67,-389 873.67,-358.2 666.45,-358.2"/>
<text text-anchor="start" x="673.45" y="-370.4" font-family="Arial" font-size="14.00">file_name </text>
<text text-anchor="start" x="738.04" y="-370.4" font-family="Arial" font-size="14.00" fill="#666666">[TEXT]</text>
<polygon fill="none" stroke="black" stroke-width="3" points="664.95,-356.7 664.95,-487.7 875.17,-487.7 875.17,-356.7 664.95,-356.7"/>
</g>
<!-- file_set -->
<g id="node2" class="node">
<title>file_set</title>
<polygon fill="#efefef" stroke="none" points="557.04,-197.2 557.04,-232.8 697.08,-232.8 697.08,-197.2 557.04,-197.2"/>
<polygon fill="none" stroke="black" points="557.04,-197.2 557.04,-232.8 697.08,-232.8 697.08,-197.2 557.04,-197.2"/>
<text text-anchor="start" x="565.94" y="-210.6" font-family="Arial Bold" font-size="18.00">file_set</text>
<text text-anchor="start" x="618.92" y="-210.6" font-family="Arial" font-size="14.00">    </text>
<text text-anchor="start" x="650.04" y="-210.6" font-family="Arial" font-size="14.00" fill="#666666">[table]</text>
<polygon fill="none" stroke="black" points="557.04,-166.4 557.04,-197.2 697.08,-197.2 697.08,-166.4 557.04,-166.4"/>
<text text-anchor="start" x="564.04" y="-178.6" font-family="Arial" font-size="14.00">id </text>
<text text-anchor="start" x="578.82" y="-178.6" font-family="Arial" font-size="14.00" fill="#666666">[INTEGER]</text>
<polygon fill="none" stroke="black" points="557.04,-135.6 557.04,-166.4 697.08,-166.4 697.08,-135.6 557.04,-135.6"/>
<text text-anchor="start" x="564.04" y="-147.8" font-family="Arial" font-size="14.00">file_name </text>
<text text-anchor="start" x="628.63" y="-147.8" font-family="Arial" font-size="14.00" fill="#666666">[TEXT]</text>
<polygon fill="none" stroke="black" points="557.04,-104.8 557.04,-135.6 697.08,-135.6 697.08,-104.8 557.04,-104.8"/>
<text text-anchor="start" x="564.04" y="-117" font-family="Arial" font-size="14.00">file_type </text>
<text text-anchor="start" x="620.07" y="-117" font-family="Arial" font-size="14.00" fill="#666666">[INTEGER]</text>
<polygon fill="none" stroke="black" points="557.04,-74 557.04,-104.8 697.08,-104.8 697.08,-74 557.04,-74"/>
<text text-anchor="start" x="564.04" y="-86.2" font-family="Arial" font-size="14.00">name </text>
<text text-anchor="start" x="602.95" y="-86.2" font-family="Arial" font-size="14.00" fill="#666666">[TEXT]</text>
<polygon fill="none" stroke="black" points="557.04,-43.2 557.04,-74 697.08,-74 697.08,-43.2 557.04,-43.2"/>
<text text-anchor="start" x="564.04" y="-55.4" font-family="Arial" font-size="14.00">source </text>
<text text-anchor="start" x="609.95" y="-55.4" font-family="Arial" font-size="14.00" fill="#666666">[TEXT]</text>
</g>
<!-- file_set_file_info&#45;&gt;file_set -->
<g id="edge1" class="edge">
<title>file_set_file_info:file_set_id&#45;&gt;file_set:id</title>
<path fill="none" stroke="black" d="M655.22,-434.17C615.76,-425.19 648.68,-359.71 666.45,-312 673.78,-292.31 689.72,-295.68 697.08,-276 711.74,-236.78 739.95,-181.8 698.08,-181.8"/>
<polygon fill="black" stroke="black" points="655.17,-434.16 664.66,-439.64 660.48,-434.7 664.78,-435.13 664.78,-435.13 664.78,-435.13 660.48,-434.7 665.57,-430.69 655.17,-434.16"/>
<text text-anchor="start" x="672.45" y="-445.2" font-family="Arial" font-size="10.00">FOREIGN KEY (file_set_id) REFERENCES file_set (id) ON UPDATE NO ACTION ON DELETE NO ACTION MATCH NONE</text>
</g>
<!-- file_info -->
<g id="node4" class="node">
<title>file_info</title>
<polygon fill="#efefef" stroke="none" points="824.52,-197.2 824.52,-232.8 999.59,-232.8 999.59,-197.2 824.52,-197.2"/>
<polygon fill="none" stroke="black" points="824.52,-197.2 824.52,-232.8 999.59,-232.8 999.59,-197.2 824.52,-197.2"/>
<text text-anchor="start" x="846.44" y="-210.6" font-family="Arial Bold" font-size="18.00">file_info</text>
<text text-anchor="start" x="908.42" y="-210.6" font-family="Arial" font-size="14.00">    </text>
<text text-anchor="start" x="939.54" y="-210.6" font-family="Arial" font-size="14.00" fill="#666666">[table]</text>
<polygon fill="none" stroke="black" points="824.52,-166.4 824.52,-197.2 999.59,-197.2 999.59,-166.4 824.52,-166.4"/>
<text text-anchor="start" x="831.52" y="-178.6" font-family="Arial" font-size="14.00">id </text>
<text text-anchor="start" x="846.31" y="-178.6" font-family="Arial" font-size="14.00" fill="#666666">[INTEGER]</text>
<polygon fill="none" stroke="black" points="824.52,-135.6 824.52,-166.4 999.59,-166.4 999.59,-135.6 824.52,-135.6"/>
<text text-anchor="start" x="831.52" y="-147.8" font-family="Arial" font-size="14.00">sha1_checksum </text>
<text text-anchor="start" x="936.58" y="-147.8" font-family="Arial" font-size="14.00" fill="#666666">[BLOB]</text>
<polygon fill="none" stroke="black" points="824.52,-104.8 824.52,-135.6 999.59,-135.6 999.59,-104.8 824.52,-104.8"/>
<text text-anchor="start" x="831.52" y="-117" font-family="Arial" font-size="14.00">file_size </text>
<text text-anchor="start" x="885.99" y="-117" font-family="Arial" font-size="14.00" fill="#666666">[INTEGER]</text>
<polygon fill="none" stroke="black" points="824.52,-74 824.52,-104.8 999.59,-104.8 999.59,-74 824.52,-74"/>
<text text-anchor="start" x="831.52" y="-86.2" font-family="Arial" font-size="14.00">archive_file_name </text>
<text text-anchor="start" x="949.03" y="-86.2" font-family="Arial" font-size="14.00" fill="#666666">[TEXT]</text>
<polygon fill="none" stroke="black" points="824.52,-43.2 824.52,-74 999.59,-74 999.59,-43.2 824.52,-43.2"/>
<text text-anchor="start" x="831.52" y="-55.4" font-family="Arial" font-size="14.00">file_type </text>
<text text-anchor="start" x="887.56" y="-55.4" font-family="Arial" font-size="14.00" fill="#666666">[INTEGER]</text>
</g>
<!-- file_set_file_info&#45;&gt;file_info -->
<g id="edge3" class="edge">
<title>file_set_file_info:file_info_id&#45;&gt;file_info:id</title>
<path fill="none" stroke="black" d="M884.92,-402.87C911.23,-393.67 890.6,-344.96 873.67,-312 861.29,-287.92 836.9,-300.08 824.52,-276 805.39,-238.76 781.65,-181.8 823.52,-181.8"/>
<polygon fill="black" stroke="black" points="884.89,-402.88 874.33,-399.9 879.61,-403.66 875.33,-404.3 875.33,-404.3 875.33,-404.3 879.61,-403.66 875.66,-408.8 884.89,-402.88"/>
<text text-anchor="start" x="881.67" y="-414.4" font-family="Arial" font-size="10.00">FOREIGN KEY (file_info_id) REFERENCES file_info (id) ON UPDATE NO ACTION ON DELETE NO ACTION MATCH NONE</text>
</g>
<!-- release_file_set -->
<g id="node3" class="node">
<title>release_file_set</title>
<polygon fill="#efefef" stroke="none" points="363.46,-435.2 363.46,-470.8 558.65,-470.8 558.65,-435.2 363.46,-435.2"/>
<polygon fill="none" stroke="black" points="363.46,-435.2 363.46,-470.8 558.65,-470.8 558.65,-435.2 363.46,-435.2"/>
<text text-anchor="start" x="370.46" y="-448.6" font-family="Arial Bold" font-size="18.00">release_file_set</text>
<text text-anchor="start" x="482.4" y="-448.6" font-family="Arial" font-size="14.00">    </text>
<text text-anchor="start" x="513.52" y="-448.6" font-family="Arial" font-size="14.00" fill="#666666">[table]</text>
<polygon fill="none" stroke="black" points="363.46,-404.4 363.46,-435.2 558.65,-435.2 558.65,-404.4 363.46,-404.4"/>
<text text-anchor="start" x="370.46" y="-416.6" font-family="Arial" font-size="14.00">release_id </text>
<text text-anchor="start" x="438.95" y="-416.6" font-family="Arial" font-size="14.00" fill="#666666">[INTEGER]</text>
<polygon fill="none" stroke="black" points="363.46,-373.6 363.46,-404.4 558.65,-404.4 558.65,-373.6 363.46,-373.6"/>
<text text-anchor="start" x="370.46" y="-385.8" font-family="Arial" font-size="14.00">file_set_id </text>
<text text-anchor="start" x="437.39" y="-385.8" font-family="Arial" font-size="14.00" fill="#666666">[INTEGER]</text>
</g>
<!-- release_file_set&#45;&gt;file_set -->
<g id="edge2" class="edge">
<title>release_file_set:file_set_id&#45;&gt;file_set:id</title>
<path fill="none" stroke="black" d="M570.02,-387.89C636.13,-371.58 467.89,-181.8 556.04,-181.8"/>
<polygon fill="black" stroke="black" points="569.93,-387.89 559.51,-384.49 564.63,-388.47 560.32,-388.93 560.32,-388.93 560.32,-388.93 564.63,-388.47 560.47,-393.44 569.93,-387.89"/>
<text text-anchor="start" x="7" y="-399" font-family="Arial" font-size="10.00">FOREIGN KEY (file_set_id) REFERENCES file_set (id) ON UPDATE NO ACTION ON DELETE CASCADE MATCH NONE</text>
</g>
<!-- file_info_system -->
<g id="node5" class="node">
<title>file_info_system</title>
<polygon fill="#efefef" stroke="none" points="980.94,-435.2 980.94,-470.8 1185.18,-470.8 1185.18,-435.2 980.94,-435.2"/>
<polygon fill="none" stroke="black" points="980.94,-435.2 980.94,-470.8 1185.18,-470.8 1185.18,-435.2 980.94,-435.2"/>
<text text-anchor="start" x="987.94" y="-448.6" font-family="Arial Bold" font-size="18.00">file_info_system</text>
<text text-anchor="start" x="1108.92" y="-448.6" font-family="Arial" font-size="14.00">    </text>
<text text-anchor="start" x="1140.04" y="-448.6" font-family="Arial" font-size="14.00" fill="#666666">[table]</text>
<polygon fill="none" stroke="black" points="980.94,-404.4 980.94,-435.2 1185.18,-435.2 1185.18,-404.4 980.94,-404.4"/>
<text text-anchor="start" x="987.94" y="-416.6" font-family="Arial" font-size="14.00">file_info_id </text>
<text text-anchor="start" x="1058.77" y="-416.6" font-family="Arial" font-size="14.00" fill="#666666">[INTEGER]</text>
<polygon fill="none" stroke="black" points="980.94,-373.6 980.94,-404.4 1185.18,-404.4 1185.18,-373.6 980.94,-373.6"/>
<text text-anchor="start" x="987.94" y="-385.8" font-family="Arial" font-size="14.00">system_id </text>
<text text-anchor="start" x="1054.85" y="-385.8" font-family="Arial" font-size="14.00" fill="#666666">[INTEGER]</text>
</g>
<!-- file_info_system&#45;&gt;file_info -->
<g id="edge4" class="edge">
<title>file_info_system:file_info_id&#45;&gt;file_info:id</title>
<path fill="none" stroke="black" d="M969.97,-418.94C889.73,-403.36 1103.03,-181.8 1000.59,-181.8"/>
<polygon fill="black" stroke="black" points="969.64,-418.91 979.22,-424.25 974.96,-419.37 979.27,-419.74 979.27,-419.74 979.27,-419.74 974.96,-419.37 979.99,-415.29 969.64,-418.91"/>
<text text-anchor="start" x="986.94" y="-403.8" font-family="Arial" font-size="10.00">FOREIGN KEY (file_info_id) REFERENCES file_info (id) ON UPDATE NO ACTION ON DELETE CASCADE MATCH NONE</text>
</g>
</g>
</svg>
