<?xml version="1.0" encoding="UTF-8" standalone="no"?>
<!DOCTYPE svg PUBLIC "-//W3C//DTD SVG 1.1//EN"
 "http://www.w3.org/Graphics/SVG/1.1/DTD/svg11.dtd">
<!-- Generated by graphviz version 12.1.2 (20240928.0832)
 -->
<!-- Title: file_set Pages: 1 -->
<svg width="2451pt" height="781pt"
 viewBox="0.00 0.00 2451.11 780.80" xmlns="http://www.w3.org/2000/svg" xmlns:xlink="http://www.w3.org/1999/xlink">
<g id="graph0" class="graph" transform="scale(1 1) rotate(0) translate(4 776.8)">
<title>file_set</title>
<polygon fill="white" stroke="none" points="-4,4 -4,-776.8 2447.11,-776.8 2447.11,4 -4,4"/>
<!-- file_set -->
<g id="node1" class="node">
<title>file_set</title>
<polygon fill="#efefef" stroke="none" points="1044.26,-305 1044.26,-340.6 1184.31,-340.6 1184.31,-305 1044.26,-305"/>
<polygon fill="none" stroke="black" points="1044.26,-305 1044.26,-340.6 1184.31,-340.6 1184.31,-305 1044.26,-305"/>
<text text-anchor="start" x="1053.17" y="-318.4" font-family="Arial Bold" font-size="18.00">file_set</text>
<text text-anchor="start" x="1106.15" y="-318.4" font-family="Arial" font-size="14.00">    </text>
<text text-anchor="start" x="1137.26" y="-318.4" font-family="Arial" font-size="14.00" fill="#666666">[table]</text>
<polygon fill="none" stroke="black" points="1044.26,-274.2 1044.26,-305 1184.31,-305 1184.31,-274.2 1044.26,-274.2"/>
<text text-anchor="start" x="1051.26" y="-286.4" font-family="Arial" font-size="14.00">id </text>
<text text-anchor="start" x="1066.05" y="-286.4" font-family="Arial" font-size="14.00" fill="#666666">[INTEGER]</text>
<polygon fill="none" stroke="black" points="1044.26,-243.4 1044.26,-274.2 1184.31,-274.2 1184.31,-243.4 1044.26,-243.4"/>
<text text-anchor="start" x="1051.26" y="-255.6" font-family="Arial" font-size="14.00">file_name </text>
<text text-anchor="start" x="1115.86" y="-255.6" font-family="Arial" font-size="14.00" fill="#666666">[TEXT]</text>
<polygon fill="none" stroke="black" points="1044.26,-212.6 1044.26,-243.4 1184.31,-243.4 1184.31,-212.6 1044.26,-212.6"/>
<text text-anchor="start" x="1051.26" y="-224.8" font-family="Arial" font-size="14.00">file_type </text>
<text text-anchor="start" x="1107.3" y="-224.8" font-family="Arial" font-size="14.00" fill="#666666">[INTEGER]</text>
<polygon fill="none" stroke="black" points="1044.26,-181.8 1044.26,-212.6 1184.31,-212.6 1184.31,-181.8 1044.26,-181.8"/>
<text text-anchor="start" x="1051.26" y="-194" font-family="Arial" font-size="14.00">name </text>
<text text-anchor="start" x="1090.17" y="-194" font-family="Arial" font-size="14.00" fill="#666666">[TEXT]</text>
<polygon fill="none" stroke="black" points="1044.26,-151 1044.26,-181.8 1184.31,-181.8 1184.31,-151 1044.26,-151"/>
<text text-anchor="start" x="1051.26" y="-163.2" font-family="Arial" font-size="14.00">source </text>
<text text-anchor="start" x="1097.17" y="-163.2" font-family="Arial" font-size="14.00" fill="#666666">[TEXT]</text>
<polygon fill="none" stroke="black" stroke-width="3" points="1042.76,-149.5 1042.76,-342.1 1185.81,-342.1 1185.81,-149.5 1042.76,-149.5"/>
</g>
<!-- release_file_set -->
<g id="node2" class="node">
<title>release_file_set</title>
<polygon fill="#efefef" stroke="none" points="365.69,-663.2 365.69,-698.8 560.88,-698.8 560.88,-663.2 365.69,-663.2"/>
<polygon fill="none" stroke="black" points="365.69,-663.2 365.69,-698.8 560.88,-698.8 560.88,-663.2 365.69,-663.2"/>
<text text-anchor="start" x="372.69" y="-676.6" font-family="Arial Bold" font-size="18.00">release_file_set</text>
<text text-anchor="start" x="484.63" y="-676.6" font-family="Arial" font-size="14.00">    </text>
<text text-anchor="start" x="515.74" y="-676.6" font-family="Arial" font-size="14.00" fill="#666666">[table]</text>
<polygon fill="none" stroke="black" points="365.69,-632.4 365.69,-663.2 560.88,-663.2 560.88,-632.4 365.69,-632.4"/>
<text text-anchor="start" x="372.69" y="-644.6" font-family="Arial" font-size="14.00">release_id </text>
<text text-anchor="start" x="441.18" y="-644.6" font-family="Arial" font-size="14.00" fill="#666666">[INTEGER]</text>
<polygon fill="none" stroke="black" points="365.69,-601.6 365.69,-632.4 560.88,-632.4 560.88,-601.6 365.69,-601.6"/>
<text text-anchor="start" x="372.69" y="-613.8" font-family="Arial" font-size="14.00">file_set_id </text>
<text text-anchor="start" x="439.62" y="-613.8" font-family="Arial" font-size="14.00" fill="#666666">[INTEGER]</text>
</g>
<!-- release_file_set&#45;&gt;file_set -->
<g id="edge1" class="edge">
<title>release_file_set:file_set_id&#45;&gt;file_set:id</title>
<path fill="none" stroke="black" d="M572.05,-615.64C602.62,-606.26 578.3,-550.65 613.28,-527.6 728.75,-451.54 806.15,-566.63 922.28,-491.6 1010.18,-434.81 938.62,-289.6 1043.26,-289.6"/>
<polygon fill="black" stroke="black" points="572.12,-615.63 561.62,-612.5 566.84,-616.34 562.54,-616.91 562.54,-616.91 562.54,-616.91 566.84,-616.34 562.81,-621.42 572.12,-615.63"/>
<text text-anchor="start" x="9.23" y="-627" font-family="Arial" font-size="10.00">FOREIGN KEY (file_set_id) REFERENCES file_set (id) ON UPDATE NO ACTION ON DELETE CASCADE MATCH NONE</text>
</g>
<!-- release -->
<g id="node3" class="node">
<title>release</title>
<polygon fill="#efefef" stroke="none" points="371.86,-274.2 371.86,-309.8 554.71,-309.8 554.71,-274.2 371.86,-274.2"/>
<polygon fill="none" stroke="black" points="371.86,-274.2 371.86,-309.8 554.71,-309.8 554.71,-274.2 371.86,-274.2"/>
<text text-anchor="start" x="403.68" y="-287.6" font-family="Arial Bold" font-size="18.00">release</text>
<text text-anchor="start" x="453.64" y="-287.6" font-family="Arial" font-size="14.00">    </text>
<text text-anchor="start" x="484.75" y="-287.6" font-family="Arial" font-size="14.00" fill="#666666">[table]</text>
<polygon fill="none" stroke="black" points="371.86,-243.4 371.86,-274.2 554.71,-274.2 554.71,-243.4 371.86,-243.4"/>
<text text-anchor="start" x="378.86" y="-255.6" font-family="Arial" font-size="14.00">id </text>
<text text-anchor="start" x="393.64" y="-255.6" font-family="Arial" font-size="14.00" fill="#666666">[INTEGER]</text>
<polygon fill="none" stroke="black" points="371.86,-212.6 371.86,-243.4 554.71,-243.4 554.71,-212.6 371.86,-212.6"/>
<text text-anchor="start" x="378.86" y="-224.8" font-family="Arial" font-size="14.00">name </text>
<text text-anchor="start" x="417.77" y="-224.8" font-family="Arial" font-size="14.00" fill="#666666">[TEXT]</text>
<polygon fill="none" stroke="black" points="371.86,-181.8 371.86,-212.6 554.71,-212.6 554.71,-181.8 371.86,-181.8"/>
<text text-anchor="start" x="378.86" y="-194" font-family="Arial" font-size="14.00">thumbnail_filename </text>
<text text-anchor="start" x="504.15" y="-194" font-family="Arial" font-size="14.00" fill="#666666">[TEXT]</text>
</g>
<!-- release_file_set&#45;&gt;release -->
<g id="edge2" class="edge">
<title>release_file_set:release_id&#45;&gt;release:id</title>
<path fill="none" stroke="black" d="M570.48,-642C604.02,-593.61 595.82,-258.8 555.71,-258.8"/>
<polygon fill="black" stroke="black" points="570.45,-642.02 559.64,-643.88 566.03,-645 562.44,-647.43 562.44,-647.43 562.44,-647.43 566.03,-645 564.67,-651.34 570.45,-642.02"/>
<text text-anchor="start" x="7" y="-657.8" font-family="Arial" font-size="10.00">FOREIGN KEY (release_id) REFERENCES release (id) ON UPDATE NO ACTION ON DELETE CASCADE MATCH NONE</text>
</g>
<!-- release_item_file_set -->
<g id="node4" class="node">
<title>release_item_file_set</title>
<polygon fill="#efefef" stroke="none" points="665.19,-663.2 665.19,-698.8 901.38,-698.8 901.38,-663.2 665.19,-663.2"/>
<polygon fill="none" stroke="black" points="665.19,-663.2 665.19,-698.8 901.38,-698.8 901.38,-663.2 665.19,-663.2"/>
<text text-anchor="start" x="672.19" y="-676.6" font-family="Arial Bold" font-size="18.00">release_item_file_set</text>
<text text-anchor="start" x="825.12" y="-676.6" font-family="Arial" font-size="14.00">    </text>
<text text-anchor="start" x="856.24" y="-676.6" font-family="Arial" font-size="14.00" fill="#666666">[table]</text>
<polygon fill="none" stroke="black" points="665.19,-632.4 665.19,-663.2 901.38,-663.2 901.38,-632.4 665.19,-632.4"/>
<text text-anchor="start" x="672.19" y="-644.6" font-family="Arial" font-size="14.00">release_item_id </text>
<text text-anchor="start" x="774.92" y="-644.6" font-family="Arial" font-size="14.00" fill="#666666">[INTEGER]</text>
<polygon fill="none" stroke="black" points="665.19,-601.6 665.19,-632.4 901.38,-632.4 901.38,-601.6 665.19,-601.6"/>
<text text-anchor="start" x="672.19" y="-613.8" font-family="Arial" font-size="14.00">file_set_id </text>
<text text-anchor="start" x="739.12" y="-613.8" font-family="Arial" font-size="14.00" fill="#666666">[INTEGER]</text>
</g>
<!-- release_item_file_set&#45;&gt;file_set -->
<g id="edge3" class="edge">
<title>release_item_file_set:file_set_id&#45;&gt;file_set:id</title>
<path fill="none" stroke="black" d="M911.29,-612.12C950.78,-571.39 1006.52,-289.6 1043.26,-289.6"/>
<polygon fill="black" stroke="black" points="911.44,-612.04 900.51,-612.89 906.76,-614.6 902.96,-616.68 902.96,-616.68 902.96,-616.68 906.76,-614.6 904.83,-620.79 911.44,-612.04"/>
<text text-anchor="start" x="349.72" y="-601" font-family="Arial" font-size="10.00">FOREIGN KEY (file_set_id) REFERENCES file_set (id) ON UPDATE NO ACTION ON DELETE CASCADE MATCH NONE</text>
</g>
<!-- release_item -->
<g id="node5" class="node">
<title>release_item</title>
<polygon fill="#efefef" stroke="none" points="696.18,-289.6 696.18,-325.2 870.39,-325.2 870.39,-289.6 696.18,-289.6"/>
<polygon fill="none" stroke="black" points="696.18,-289.6 696.18,-325.2 870.39,-325.2 870.39,-289.6 696.18,-289.6"/>
<text text-anchor="start" x="703.18" y="-303" font-family="Arial Bold" font-size="18.00">release_item</text>
<text text-anchor="start" x="794.13" y="-303" font-family="Arial" font-size="14.00">    </text>
<text text-anchor="start" x="825.25" y="-303" font-family="Arial" font-size="14.00" fill="#666666">[table]</text>
<polygon fill="none" stroke="black" points="696.18,-258.8 696.18,-289.6 870.39,-289.6 870.39,-258.8 696.18,-258.8"/>
<text text-anchor="start" x="703.18" y="-271" font-family="Arial" font-size="14.00">id </text>
<text text-anchor="start" x="717.97" y="-271" font-family="Arial" font-size="14.00" fill="#666666">[INTEGER]</text>
<polygon fill="none" stroke="black" points="696.18,-228 696.18,-258.8 870.39,-258.8 870.39,-228 696.18,-228"/>
<text text-anchor="start" x="703.18" y="-240.2" font-family="Arial" font-size="14.00">release_id </text>
<text text-anchor="start" x="771.67" y="-240.2" font-family="Arial" font-size="14.00" fill="#666666">[INTEGER]</text>
<polygon fill="none" stroke="black" points="696.18,-197.2 696.18,-228 870.39,-228 870.39,-197.2 696.18,-197.2"/>
<text text-anchor="start" x="703.18" y="-209.4" font-family="Arial" font-size="14.00">item_type </text>
<text text-anchor="start" x="767.77" y="-209.4" font-family="Arial" font-size="14.00" fill="#666666">[INTEGER]</text>
<polygon fill="none" stroke="black" points="696.18,-166.4 696.18,-197.2 870.39,-197.2 870.39,-166.4 696.18,-166.4"/>
<text text-anchor="start" x="703.18" y="-178.6" font-family="Arial" font-size="14.00">notes </text>
<text text-anchor="start" x="741.32" y="-178.6" font-family="Arial" font-size="14.00" fill="#666666">[TEXT]</text>
</g>
<!-- release_item_file_set&#45;&gt;release_item -->
<g id="edge4" class="edge">
<title>release_item_file_set:release_item_id&#45;&gt;release_item:id</title>
<path fill="none" stroke="black" d="M912.49,-645.79C982.92,-616.38 951.11,-274.2 871.39,-274.2"/>
<polygon fill="black" stroke="black" points="912.51,-645.78 901.83,-643.32 907.28,-646.83 903.03,-647.67 903.03,-647.67 903.03,-647.67 907.28,-646.83 903.58,-652.15 912.51,-645.78"/>
<text text-anchor="start" x="909.38" y="-657.8" font-family="Arial" font-size="10.00">FOREIGN KEY (release_item_id) REFERENCES release_item (id) ON UPDATE NO ACTION ON DELETE CASCADE MATCH NONE</text>
</g>
<!-- file_set_item_type -->
<g id="node6" class="node">
<title>file_set_item_type</title>
<polygon fill="#efefef" stroke="none" points="1005.68,-663.2 1005.68,-698.8 1222.89,-698.8 1222.89,-663.2 1005.68,-663.2"/>
<polygon fill="none" stroke="black" points="1005.68,-663.2 1005.68,-698.8 1222.89,-698.8 1222.89,-663.2 1005.68,-663.2"/>
<text text-anchor="start" x="1012.68" y="-676.6" font-family="Arial Bold" font-size="18.00">file_set_item_type</text>
<text text-anchor="start" x="1146.64" y="-676.6" font-family="Arial" font-size="14.00">    </text>
<text text-anchor="start" x="1177.76" y="-676.6" font-family="Arial" font-size="14.00" fill="#666666">[table]</text>
<polygon fill="none" stroke="black" points="1005.68,-632.4 1005.68,-663.2 1222.89,-663.2 1222.89,-632.4 1005.68,-632.4"/>
<text text-anchor="start" x="1012.68" y="-644.6" font-family="Arial" font-size="14.00">file_set_id </text>
<text text-anchor="start" x="1079.61" y="-644.6" font-family="Arial" font-size="14.00" fill="#666666">[INTEGER]</text>
<polygon fill="none" stroke="black" points="1005.68,-601.6 1005.68,-632.4 1222.89,-632.4 1222.89,-601.6 1005.68,-601.6"/>
<text text-anchor="start" x="1012.68" y="-613.8" font-family="Arial" font-size="14.00">item_type </text>
<text text-anchor="start" x="1077.26" y="-613.8" font-family="Arial" font-size="14.00" fill="#666666">[INTEGER]</text>
</g>
<!-- file_set_item_type&#45;&gt;file_set -->
<g id="edge5" class="edge">
<title>file_set_item_type:file_set_id&#45;&gt;file_set:id</title>
<path fill="none" stroke="black" d="M1233.97,-645.7C1300.4,-616.34 1261.77,-289.6 1185.31,-289.6"/>
<polygon fill="black" stroke="black" points="1234.01,-645.69 1223.3,-643.33 1228.79,-646.78 1224.55,-647.66 1224.55,-647.66 1224.55,-647.66 1228.79,-646.78 1225.14,-652.14 1234.01,-645.69"/>
<text text-anchor="start" x="671.24" y="-631.8" font-family="Arial" font-size="10.00">FOREIGN KEY (file_set_id) REFERENCES file_set (id) ON UPDATE NO ACTION ON DELETE CASCADE MATCH NONE</text>
</g>
<!-- file_set_dat_file_link -->
<g id="node7" class="node">
<title>file_set_dat_file_link</title>
<polygon fill="#efefef" stroke="none" points="1327.68,-663.2 1327.68,-698.8 1564.89,-698.8 1564.89,-663.2 1327.68,-663.2"/>
<polygon fill="none" stroke="black" points="1327.68,-663.2 1327.68,-698.8 1564.89,-698.8 1564.89,-663.2 1327.68,-663.2"/>
<text text-anchor="start" x="1334.68" y="-676.6" font-family="Arial Bold" font-size="18.00">file_set_dat_file_link</text>
<text text-anchor="start" x="1488.64" y="-676.6" font-family="Arial" font-size="14.00">    </text>
<text text-anchor="start" x="1519.75" y="-676.6" font-family="Arial" font-size="14.00" fill="#666666">[table]</text>
<polygon fill="none" stroke="black" points="1327.68,-632.4 1327.68,-663.2 1564.89,-663.2 1564.89,-632.4 1327.68,-632.4"/>
<text text-anchor="start" x="1334.68" y="-644.6" font-family="Arial" font-size="14.00">file_set_id </text>
<text text-anchor="start" x="1401.61" y="-644.6" font-family="Arial" font-size="14.00" fill="#666666">[INTEGER]</text>
<polygon fill="none" stroke="black" points="1327.68,-601.6 1327.68,-632.4 1564.89,-632.4 1564.89,-601.6 1327.68,-601.6"/>
<text text-anchor="start" x="1334.68" y="-613.8" font-family="Arial" font-size="14.00">dat_file_id </text>
<text text-anchor="start" x="1402.4" y="-613.8" font-family="Arial" font-size="14.00" fill="#666666">[INTEGER]</text>
</g>
<!-- file_set_dat_file_link&#45;&gt;file_set -->
<g id="edge6" class="edge">
<title>file_set_dat_file_link:file_set_id&#45;&gt;file_set:id</title>
<path fill="none" stroke="black" d="M1319.55,-640.32C1288.91,-588.88 1204.86,-289.6 1185.31,-289.6"/>
<polygon fill="black" stroke="black" points="1319.55,-640.32 1323.19,-650.66 1323.23,-644.18 1326.22,-647.32 1326.22,-647.32 1326.22,-647.32 1323.23,-644.18 1329.71,-644.45 1319.55,-640.32"/>
<text text-anchor="start" x="1333.68" y="-631.8" font-family="Arial" font-size="10.00">FOREIGN KEY (file_set_id) REFERENCES file_set (id) ON UPDATE NO ACTION ON DELETE CASCADE MATCH NONE</text>
</g>
<!-- dat_file -->
<g id="node8" class="node">
<title>dat_file</title>
<polygon fill="#efefef" stroke="none" points="1370.83,-412.8 1370.83,-448.4 1521.74,-448.4 1521.74,-412.8 1370.83,-412.8"/>
<polygon fill="none" stroke="black" points="1370.83,-412.8 1370.83,-448.4 1521.74,-448.4 1521.74,-412.8 1370.83,-412.8"/>
<text text-anchor="start" x="1384.17" y="-426.2" font-family="Arial Bold" font-size="18.00">dat_file</text>
<text text-anchor="start" x="1439.15" y="-426.2" font-family="Arial" font-size="14.00">    </text>
<text text-anchor="start" x="1470.26" y="-426.2" font-family="Arial" font-size="14.00" fill="#666666">[table]</text>
<polygon fill="none" stroke="black" points="1370.83,-382 1370.83,-412.8 1521.74,-412.8 1521.74,-382 1370.83,-382"/>
<text text-anchor="start" x="1377.83" y="-394.2" font-family="Arial" font-size="14.00">id </text>
<text text-anchor="start" x="1392.61" y="-394.2" font-family="Arial" font-size="14.00" fill="#666666">[INTEGER]</text>
<polygon fill="none" stroke="black" points="1370.83,-351.2 1370.83,-382 1521.74,-382 1521.74,-351.2 1370.83,-351.2"/>
<text text-anchor="start" x="1377.83" y="-363.4" font-family="Arial" font-size="14.00">dat_id </text>
<text text-anchor="start" x="1419.86" y="-363.4" font-family="Arial" font-size="14.00" fill="#666666">[INTEGER]</text>
<polygon fill="none" stroke="black" points="1370.83,-320.4 1370.83,-351.2 1521.74,-351.2 1521.74,-320.4 1370.83,-320.4"/>
<text text-anchor="start" x="1377.83" y="-332.6" font-family="Arial" font-size="14.00">name </text>
<text text-anchor="start" x="1416.74" y="-332.6" font-family="Arial" font-size="14.00" fill="#666666">[TEXT]</text>
<polygon fill="none" stroke="black" points="1370.83,-289.6 1370.83,-320.4 1521.74,-320.4 1521.74,-289.6 1370.83,-289.6"/>
<text text-anchor="start" x="1377.83" y="-301.8" font-family="Arial" font-size="14.00">description </text>
<text text-anchor="start" x="1449.42" y="-301.8" font-family="Arial" font-size="14.00" fill="#666666">[TEXT]</text>
<polygon fill="none" stroke="black" points="1370.83,-258.8 1370.83,-289.6 1521.74,-289.6 1521.74,-258.8 1370.83,-258.8"/>
<text text-anchor="start" x="1377.83" y="-271" font-family="Arial" font-size="14.00">version </text>
<text text-anchor="start" x="1426.85" y="-271" font-family="Arial" font-size="14.00" fill="#666666">[TEXT]</text>
<polygon fill="none" stroke="black" points="1370.83,-228 1370.83,-258.8 1521.74,-258.8 1521.74,-228 1370.83,-228"/>
<text text-anchor="start" x="1377.83" y="-240.2" font-family="Arial" font-size="14.00">date </text>
<text text-anchor="start" x="1408.96" y="-240.2" font-family="Arial" font-size="14.00" fill="#666666">[TEXT]</text>
<polygon fill="none" stroke="black" points="1370.83,-197.2 1370.83,-228 1521.74,-228 1521.74,-197.2 1370.83,-197.2"/>
<text text-anchor="start" x="1377.83" y="-209.4" font-family="Arial" font-size="14.00">author </text>
<text text-anchor="start" x="1421.41" y="-209.4" font-family="Arial" font-size="14.00" fill="#666666">[TEXT]</text>
<polygon fill="none" stroke="black" points="1370.83,-166.4 1370.83,-197.2 1521.74,-197.2 1521.74,-166.4 1370.83,-166.4"/>
<text text-anchor="start" x="1377.83" y="-178.6" font-family="Arial" font-size="14.00">homepage </text>
<text text-anchor="start" x="1447.88" y="-178.6" font-family="Arial" font-size="14.00" fill="#666666">[TEXT]</text>
<polygon fill="none" stroke="black" points="1370.83,-135.6 1370.83,-166.4 1521.74,-166.4 1521.74,-135.6 1370.83,-135.6"/>
<text text-anchor="start" x="1377.83" y="-147.8" font-family="Arial" font-size="14.00">url </text>
<text text-anchor="start" x="1397.27" y="-147.8" font-family="Arial" font-size="14.00" fill="#666666">[TEXT]</text>
<polygon fill="none" stroke="black" points="1370.83,-104.8 1370.83,-135.6 1521.74,-135.6 1521.74,-104.8 1370.83,-104.8"/>
<text text-anchor="start" x="1377.83" y="-117" font-family="Arial" font-size="14.00">subset </text>
<text text-anchor="start" x="1422.96" y="-117" font-family="Arial" font-size="14.00" fill="#666666">[TEXT]</text>
<polygon fill="none" stroke="black" points="1370.83,-74 1370.83,-104.8 1521.74,-104.8 1521.74,-74 1370.83,-74"/>
<text text-anchor="start" x="1377.83" y="-86.2" font-family="Arial" font-size="14.00">imported_at </text>
<text text-anchor="start" x="1455.65" y="-86.2" font-family="Arial" font-size="14.00" fill="#666666">[TEXT]</text>
<polygon fill="none" stroke="black" points="1370.83,-43.2 1370.83,-74 1521.74,-74 1521.74,-43.2 1370.83,-43.2"/>
<text text-anchor="start" x="1377.83" y="-55.4" font-family="Arial" font-size="14.00">system_id </text>
<text text-anchor="start" x="1444.74" y="-55.4" font-family="Arial" font-size="14.00" fill="#666666">[INTEGER]</text>
</g>
<!-- file_set_dat_file_link&#45;&gt;dat_file -->
<g id="edge7" class="edge">
<title>file_set_dat_file_link:dat_file_id&#45;&gt;dat_file:id</title>
<path fill="none" stroke="black" d="M1446.94,-590.28C1453.33,-542.2 1504.99,-544.24 1521.74,-491.6 1534.44,-451.7 1564.61,-397.4 1522.74,-397.4"/>
<polygon fill="black" stroke="black" points="1446.94,-590.29 1441.81,-599.98 1446.6,-595.61 1446.33,-599.93 1446.33,-599.93 1446.33,-599.93 1446.6,-595.61 1450.8,-600.55 1446.94,-590.29"/>
<text text-anchor="start" x="1313.09" y="-584.6" font-family="Arial" font-size="10.00">FOREIGN KEY (dat_file_id) REFERENCES dat_file (id) ON UPDATE NO ACTION ON DELETE CASCADE MATCH NONE</text>
</g>
<!-- file_set_file_info -->
<g id="node9" class="node">
<title>file_set_file_info</title>
<polygon fill="#efefef" stroke="none" points="1669.68,-694 1669.68,-729.6 1876.89,-729.6 1876.89,-694 1669.68,-694"/>
<polygon fill="none" stroke="black" points="1669.68,-694 1669.68,-729.6 1876.89,-729.6 1876.89,-694 1669.68,-694"/>
<text text-anchor="start" x="1676.68" y="-707.4" font-family="Arial Bold" font-size="18.00">file_set_file_info</text>
<text text-anchor="start" x="1800.64" y="-707.4" font-family="Arial" font-size="14.00">    </text>
<text text-anchor="start" x="1831.75" y="-707.4" font-family="Arial" font-size="14.00" fill="#666666">[table]</text>
<polygon fill="none" stroke="black" points="1669.68,-663.2 1669.68,-694 1876.89,-694 1876.89,-663.2 1669.68,-663.2"/>
<text text-anchor="start" x="1676.68" y="-675.4" font-family="Arial" font-size="14.00">file_set_id </text>
<text text-anchor="start" x="1743.61" y="-675.4" font-family="Arial" font-size="14.00" fill="#666666">[INTEGER]</text>
<polygon fill="none" stroke="black" points="1669.68,-632.4 1669.68,-663.2 1876.89,-663.2 1876.89,-632.4 1669.68,-632.4"/>
<text text-anchor="start" x="1676.68" y="-644.6" font-family="Arial" font-size="14.00">file_info_id </text>
<text text-anchor="start" x="1747.5" y="-644.6" font-family="Arial" font-size="14.00" fill="#666666">[INTEGER]</text>
<polygon fill="none" stroke="black" points="1669.68,-601.6 1669.68,-632.4 1876.89,-632.4 1876.89,-601.6 1669.68,-601.6"/>
<text text-anchor="start" x="1676.68" y="-613.8" font-family="Arial" font-size="14.00">file_name </text>
<text text-anchor="start" x="1741.27" y="-613.8" font-family="Arial" font-size="14.00" fill="#666666">[TEXT]</text>
<polygon fill="none" stroke="black" points="1669.68,-570.8 1669.68,-601.6 1876.89,-601.6 1876.89,-570.8 1669.68,-570.8"/>
<text text-anchor="start" x="1676.68" y="-583" font-family="Arial" font-size="14.00">sort_order </text>
<text text-anchor="start" x="1744.37" y="-583" font-family="Arial" font-size="14.00" fill="#666666">[INTEGER]</text>
</g>
<!-- file_set_file_info&#45;&gt;file_set -->
<g id="edge8" class="edge">
<title>file_set_file_info:file_set_id&#45;&gt;file_set:id</title>
<path fill="none" stroke="black" d="M1658.31,-677.67C1605.55,-667.15 1669.34,-569.81 1617.28,-527.6 1513.32,-443.3 1432.1,-562.04 1318.28,-491.6 1226.89,-435.03 1292.79,-289.6 1185.31,-289.6"/>
<polygon fill="black" stroke="black" points="1658.38,-677.68 1667.94,-683.05 1663.7,-678.15 1668.01,-678.54 1668.01,-678.54 1668.01,-678.54 1663.7,-678.15 1668.74,-674.09 1658.38,-677.68"/>
<text text-anchor="start" x="1675.68" y="-688.6" font-family="Arial" font-size="10.00">FOREIGN KEY (file_set_id) REFERENCES file_set (id) ON UPDATE NO ACTION ON DELETE CASCADE MATCH NONE</text>
</g>
<!-- file_info -->
<g id="node10" class="node">
<title>file_info</title>
<polygon fill="#efefef" stroke="none" points="1685.75,-305 1685.75,-340.6 1860.82,-340.6 1860.82,-305 1685.75,-305"/>
<polygon fill="none" stroke="black" points="1685.75,-305 1685.75,-340.6 1860.82,-340.6 1860.82,-305 1685.75,-305"/>
<text text-anchor="start" x="1707.67" y="-318.4" font-family="Arial Bold" font-size="18.00">file_info</text>
<text text-anchor="start" x="1769.65" y="-318.4" font-family="Arial" font-size="14.00">    </text>
<text text-anchor="start" x="1800.76" y="-318.4" font-family="Arial" font-size="14.00" fill="#666666">[table]</text>
<polygon fill="none" stroke="black" points="1685.75,-274.2 1685.75,-305 1860.82,-305 1860.82,-274.2 1685.75,-274.2"/>
<text text-anchor="start" x="1692.75" y="-286.4" font-family="Arial" font-size="14.00">id </text>
<text text-anchor="start" x="1707.54" y="-286.4" font-family="Arial" font-size="14.00" fill="#666666">[INTEGER]</text>
<polygon fill="none" stroke="black" points="1685.75,-243.4 1685.75,-274.2 1860.82,-274.2 1860.82,-243.4 1685.75,-243.4"/>
<text text-anchor="start" x="1692.75" y="-255.6" font-family="Arial" font-size="14.00">sha1_checksum </text>
<text text-anchor="start" x="1797.81" y="-255.6" font-family="Arial" font-size="14.00" fill="#666666">[BLOB]</text>
<polygon fill="none" stroke="black" points="1685.75,-212.6 1685.75,-243.4 1860.82,-243.4 1860.82,-212.6 1685.75,-212.6"/>
<text text-anchor="start" x="1692.75" y="-224.8" font-family="Arial" font-size="14.00">file_size </text>
<text text-anchor="start" x="1747.22" y="-224.8" font-family="Arial" font-size="14.00" fill="#666666">[INTEGER]</text>
<polygon fill="none" stroke="black" points="1685.75,-181.8 1685.75,-212.6 1860.82,-212.6 1860.82,-181.8 1685.75,-181.8"/>
<text text-anchor="start" x="1692.75" y="-194" font-family="Arial" font-size="14.00">archive_file_name </text>
<text text-anchor="start" x="1810.26" y="-194" font-family="Arial" font-size="14.00" fill="#666666">[TEXT]</text>
<polygon fill="none" stroke="black" points="1685.75,-151 1685.75,-181.8 1860.82,-181.8 1860.82,-151 1685.75,-151"/>
<text text-anchor="start" x="1692.75" y="-163.2" font-family="Arial" font-size="14.00">file_type </text>
<text text-anchor="start" x="1748.78" y="-163.2" font-family="Arial" font-size="14.00" fill="#666666">[INTEGER]</text>
</g>
<!-- file_set_file_info&#45;&gt;file_info -->
<g id="edge9" class="edge">
<title>file_set_file_info:file_info_id&#45;&gt;file_info:id</title>
<path fill="none" stroke="black" d="M1888.05,-645.7C1956,-616.34 1937.92,-289.6 1861.82,-289.6"/>
<polygon fill="black" stroke="black" points="1888.01,-645.7 1877.31,-643.33 1882.79,-646.79 1878.55,-647.66 1878.55,-647.66 1878.55,-647.66 1882.79,-646.79 1879.13,-652.14 1888.01,-645.7"/>
<text text-anchor="start" x="1884.89" y="-657.8" font-family="Arial" font-size="10.00">FOREIGN KEY (file_info_id) REFERENCES file_info (id) ON UPDATE NO ACTION ON DELETE CASCADE MATCH NONE</text>
</g>
</g>
</svg>
