<?xml version="1.0" encoding="UTF-8" standalone="no"?>
<!DOCTYPE svg PUBLIC "-//W3C//DTD SVG 1.1//EN"
 "http://www.w3.org/Graphics/SVG/1.1/DTD/svg11.dtd">
<!-- Generated by graphviz version 12.1.2 (20240928.0832)
 -->
<!-- Title: file_set_file_info Pages: 1 -->
<svg width="1835pt" height="571pt"
 viewBox="0.00 0.00 1835.16 571.20" xmlns="http://www.w3.org/2000/svg" xmlns:xlink="http://www.w3.org/1999/xlink">
<g id="graph0" class="graph" transform="scale(1 1) rotate(0) translate(4 567.2)">
<title>file_set_file_info</title>
<polygon fill="white" stroke="none" points="-4,4 -4,-567.2 1831.16,-567.2 1831.16,4 -4,4"/>
<!-- file_set_file_info -->
<g id="node1" class="node">
<title>file_set_file_info</title>
<polygon fill="#efefef" stroke="none" points="948.45,-481.4 948.45,-517 1155.67,-517 1155.67,-481.4 948.45,-481.4"/>
<polygon fill="none" stroke="black" points="948.45,-481.4 948.45,-517 1155.67,-517 1155.67,-481.4 948.45,-481.4"/>
<text text-anchor="start" x="955.45" y="-494.8" font-family="Arial Bold" font-size="18.00">file_set_file_info</text>
<text text-anchor="start" x="1079.41" y="-494.8" font-family="Arial" font-size="14.00">    </text>
<text text-anchor="start" x="1110.53" y="-494.8" font-family="Arial" font-size="14.00" fill="#666666">[table]</text>
<polygon fill="none" stroke="black" points="948.45,-450.6 948.45,-481.4 1155.67,-481.4 1155.67,-450.6 948.45,-450.6"/>
<text text-anchor="start" x="955.45" y="-462.8" font-family="Arial" font-size="14.00">file_set_id </text>
<text text-anchor="start" x="1022.38" y="-462.8" font-family="Arial" font-size="14.00" fill="#666666">[INTEGER]</text>
<polygon fill="none" stroke="black" points="948.45,-419.8 948.45,-450.6 1155.67,-450.6 1155.67,-419.8 948.45,-419.8"/>
<text text-anchor="start" x="955.45" y="-432" font-family="Arial" font-size="14.00">file_info_id </text>
<text text-anchor="start" x="1026.28" y="-432" font-family="Arial" font-size="14.00" fill="#666666">[INTEGER]</text>
<polygon fill="none" stroke="black" points="948.45,-389 948.45,-419.8 1155.67,-419.8 1155.67,-389 948.45,-389"/>
<text text-anchor="start" x="955.45" y="-401.2" font-family="Arial" font-size="14.00">file_name </text>
<text text-anchor="start" x="1020.04" y="-401.2" font-family="Arial" font-size="14.00" fill="#666666">[TEXT]</text>
<polygon fill="none" stroke="black" points="948.45,-358.2 948.45,-389 1155.67,-389 1155.67,-358.2 948.45,-358.2"/>
<text text-anchor="start" x="955.45" y="-370.4" font-family="Arial" font-size="14.00">sort_order </text>
<text text-anchor="start" x="1023.15" y="-370.4" font-family="Arial" font-size="14.00" fill="#666666">[INTEGER]</text>
<polygon fill="none" stroke="black" stroke-width="3" points="946.95,-356.7 946.95,-518.5 1157.17,-518.5 1157.17,-356.7 946.95,-356.7"/>
</g>
<!-- file_set -->
<g id="node2" class="node">
<title>file_set</title>
<polygon fill="#efefef" stroke="none" points="682.04,-197.2 682.04,-232.8 822.08,-232.8 822.08,-197.2 682.04,-197.2"/>
<polygon fill="none" stroke="black" points="682.04,-197.2 682.04,-232.8 822.08,-232.8 822.08,-197.2 682.04,-197.2"/>
<text text-anchor="start" x="690.94" y="-210.6" font-family="Arial Bold" font-size="18.00">file_set</text>
<text text-anchor="start" x="743.92" y="-210.6" font-family="Arial" font-size="14.00">    </text>
<text text-anchor="start" x="775.04" y="-210.6" font-family="Arial" font-size="14.00" fill="#666666">[table]</text>
<polygon fill="none" stroke="black" points="682.04,-166.4 682.04,-197.2 822.08,-197.2 822.08,-166.4 682.04,-166.4"/>
<text text-anchor="start" x="689.04" y="-178.6" font-family="Arial" font-size="14.00">id </text>
<text text-anchor="start" x="703.82" y="-178.6" font-family="Arial" font-size="14.00" fill="#666666">[INTEGER]</text>
<polygon fill="none" stroke="black" points="682.04,-135.6 682.04,-166.4 822.08,-166.4 822.08,-135.6 682.04,-135.6"/>
<text text-anchor="start" x="689.04" y="-147.8" font-family="Arial" font-size="14.00">file_name </text>
<text text-anchor="start" x="753.63" y="-147.8" font-family="Arial" font-size="14.00" fill="#666666">[TEXT]</text>
<polygon fill="none" stroke="black" points="682.04,-104.8 682.04,-135.6 822.08,-135.6 822.08,-104.8 682.04,-104.8"/>
<text text-anchor="start" x="689.04" y="-117" font-family="Arial" font-size="14.00">file_type </text>
<text text-anchor="start" x="745.07" y="-117" font-family="Arial" font-size="14.00" fill="#666666">[INTEGER]</text>
<polygon fill="none" stroke="black" points="682.04,-74 682.04,-104.8 822.08,-104.8 822.08,-74 682.04,-74"/>
<text text-anchor="start" x="689.04" y="-86.2" font-family="Arial" font-size="14.00">name </text>
<text text-anchor="start" x="727.95" y="-86.2" font-family="Arial" font-size="14.00" fill="#666666">[TEXT]</text>
<polygon fill="none" stroke="black" points="682.04,-43.2 682.04,-74 822.08,-74 822.08,-43.2 682.04,-43.2"/>
<text text-anchor="start" x="689.04" y="-55.4" font-family="Arial" font-size="14.00">source </text>
<text text-anchor="start" x="734.95" y="-55.4" font-family="Arial" font-size="14.00" fill="#666666">[TEXT]</text>
</g>
<!-- file_set_file_info&#45;&gt;file_set -->
<g id="edge1" class="edge">
<title>file_set_file_info:file_set_id&#45;&gt;file_set:id</title>
<path fill="none" stroke="black" d="M937.3,-465.34C879.49,-457.16 920.92,-375.02 893.06,-312 866.49,-251.92 888.77,-181.8 823.08,-181.8"/>
<polygon fill="black" stroke="black" points="937.14,-465.33 946.82,-470.47 942.46,-465.67 946.78,-465.96 946.78,-465.96 946.78,-465.96 942.46,-465.67 947.41,-461.49 937.14,-465.33"/>
<text text-anchor="start" x="954.45" y="-476" font-family="Arial" font-size="10.00">FOREIGN KEY (file_set_id) REFERENCES file_set (id) ON UPDATE NO ACTION ON DELETE NO ACTION MATCH NONE</text>
</g>
<!-- file_info -->
<g id="node5" class="node">
<title>file_info</title>
<polygon fill="#efefef" stroke="none" points="1120.52,-197.2 1120.52,-232.8 1295.59,-232.8 1295.59,-197.2 1120.52,-197.2"/>
<polygon fill="none" stroke="black" points="1120.52,-197.2 1120.52,-232.8 1295.59,-232.8 1295.59,-197.2 1120.52,-197.2"/>
<text text-anchor="start" x="1142.44" y="-210.6" font-family="Arial Bold" font-size="18.00">file_info</text>
<text text-anchor="start" x="1204.42" y="-210.6" font-family="Arial" font-size="14.00">    </text>
<text text-anchor="start" x="1235.54" y="-210.6" font-family="Arial" font-size="14.00" fill="#666666">[table]</text>
<polygon fill="none" stroke="black" points="1120.52,-166.4 1120.52,-197.2 1295.59,-197.2 1295.59,-166.4 1120.52,-166.4"/>
<text text-anchor="start" x="1127.52" y="-178.6" font-family="Arial" font-size="14.00">id </text>
<text text-anchor="start" x="1142.31" y="-178.6" font-family="Arial" font-size="14.00" fill="#666666">[INTEGER]</text>
<polygon fill="none" stroke="black" points="1120.52,-135.6 1120.52,-166.4 1295.59,-166.4 1295.59,-135.6 1120.52,-135.6"/>
<text text-anchor="start" x="1127.52" y="-147.8" font-family="Arial" font-size="14.00">sha1_checksum </text>
<text text-anchor="start" x="1232.58" y="-147.8" font-family="Arial" font-size="14.00" fill="#666666">[BLOB]</text>
<polygon fill="none" stroke="black" points="1120.52,-104.8 1120.52,-135.6 1295.59,-135.6 1295.59,-104.8 1120.52,-104.8"/>
<text text-anchor="start" x="1127.52" y="-117" font-family="Arial" font-size="14.00">file_size </text>
<text text-anchor="start" x="1181.99" y="-117" font-family="Arial" font-size="14.00" fill="#666666">[INTEGER]</text>
<polygon fill="none" stroke="black" points="1120.52,-74 1120.52,-104.8 1295.59,-104.8 1295.59,-74 1120.52,-74"/>
<text text-anchor="start" x="1127.52" y="-86.2" font-family="Arial" font-size="14.00">archive_file_name </text>
<text text-anchor="start" x="1245.03" y="-86.2" font-family="Arial" font-size="14.00" fill="#666666">[TEXT]</text>
<polygon fill="none" stroke="black" points="1120.52,-43.2 1120.52,-74 1295.59,-74 1295.59,-43.2 1120.52,-43.2"/>
<text text-anchor="start" x="1127.52" y="-55.4" font-family="Arial" font-size="14.00">file_type </text>
<text text-anchor="start" x="1183.56" y="-55.4" font-family="Arial" font-size="14.00" fill="#666666">[INTEGER]</text>
</g>
<!-- file_set_file_info&#45;&gt;file_info -->
<g id="edge4" class="edge">
<title>file_set_file_info:file_info_id&#45;&gt;file_info:id</title>
<path fill="none" stroke="black" d="M1166.92,-434.16C1206.58,-425.1 1175.05,-359.07 1155.67,-312 1147.15,-291.33 1129.07,-296.66 1120.52,-276 1104.53,-237.31 1077.65,-181.8 1119.52,-181.8"/>
<polygon fill="black" stroke="black" points="1166.95,-434.15 1156.54,-430.69 1161.64,-434.69 1157.33,-435.13 1157.33,-435.13 1157.33,-435.13 1161.64,-434.69 1157.45,-439.64 1166.95,-434.15"/>
<text text-anchor="start" x="1163.67" y="-445.2" font-family="Arial" font-size="10.00">FOREIGN KEY (file_info_id) REFERENCES file_info (id) ON UPDATE NO ACTION ON DELETE NO ACTION MATCH NONE</text>
</g>
<!-- release_file_set -->
<g id="node3" class="node">
<title>release_file_set</title>
<polygon fill="#efefef" stroke="none" points="363.46,-450.6 363.46,-486.2 558.65,-486.2 558.65,-450.6 363.46,-450.6"/>
<polygon fill="none" stroke="black" points="363.46,-450.6 363.46,-486.2 558.65,-486.2 558.65,-450.6 363.46,-450.6"/>
<text text-anchor="start" x="370.46" y="-464" font-family="Arial Bold" font-size="18.00">release_file_set</text>
<text text-anchor="start" x="482.4" y="-464" font-family="Arial" font-size="14.00">    </text>
<text text-anchor="start" x="513.52" y="-464" font-family="Arial" font-size="14.00" fill="#666666">[table]</text>
<polygon fill="none" stroke="black" points="363.46,-419.8 363.46,-450.6 558.65,-450.6 558.65,-419.8 363.46,-419.8"/>
<text text-anchor="start" x="370.46" y="-432" font-family="Arial" font-size="14.00">release_id </text>
<text text-anchor="start" x="438.95" y="-432" font-family="Arial" font-size="14.00" fill="#666666">[INTEGER]</text>
<polygon fill="none" stroke="black" points="363.46,-389 363.46,-419.8 558.65,-419.8 558.65,-389 363.46,-389"/>
<text text-anchor="start" x="370.46" y="-401.2" font-family="Arial" font-size="14.00">file_set_id </text>
<text text-anchor="start" x="437.39" y="-401.2" font-family="Arial" font-size="14.00" fill="#666666">[INTEGER]</text>
</g>
<!-- release_file_set&#45;&gt;file_set -->
<g id="edge2" class="edge">
<title>release_file_set:file_set_id&#45;&gt;file_set:id</title>
<path fill="none" stroke="black" d="M565.78,-396.21C590.09,-356.05 674.81,-181.8 681.04,-181.8"/>
<polygon fill="black" stroke="black" points="565.84,-396.12 556.25,-401.44 562.65,-400.4 560.05,-403.86 560.05,-403.86 560.05,-403.86 562.65,-400.4 563.46,-406.83 565.84,-396.12"/>
<text text-anchor="start" x="7" y="-414.4" font-family="Arial" font-size="10.00">FOREIGN KEY (file_set_id) REFERENCES file_set (id) ON UPDATE NO ACTION ON DELETE CASCADE MATCH NONE</text>
</g>
<!-- file_set_item -->
<g id="node4" class="node">
<title>file_set_item</title>
<polygon fill="#efefef" stroke="none" points="663.44,-450.6 663.44,-486.2 840.67,-486.2 840.67,-450.6 663.44,-450.6"/>
<polygon fill="none" stroke="black" points="663.44,-450.6 663.44,-486.2 840.67,-486.2 840.67,-450.6 663.44,-450.6"/>
<text text-anchor="start" x="670.44" y="-464" font-family="Arial Bold" font-size="18.00">file_set_item</text>
<text text-anchor="start" x="764.42" y="-464" font-family="Arial" font-size="14.00">    </text>
<text text-anchor="start" x="795.53" y="-464" font-family="Arial" font-size="14.00" fill="#666666">[table]</text>
<polygon fill="none" stroke="black" points="663.44,-419.8 663.44,-450.6 840.67,-450.6 840.67,-419.8 663.44,-419.8"/>
<text text-anchor="start" x="670.44" y="-432" font-family="Arial" font-size="14.00">file_set_id </text>
<text text-anchor="start" x="737.38" y="-432" font-family="Arial" font-size="14.00" fill="#666666">[INTEGER]</text>
<polygon fill="none" stroke="black" points="663.44,-389 663.44,-419.8 840.67,-419.8 840.67,-389 663.44,-389"/>
<text text-anchor="start" x="670.44" y="-401.2" font-family="Arial" font-size="14.00">item_id </text>
<text text-anchor="start" x="719.46" y="-401.2" font-family="Arial" font-size="14.00" fill="#666666">[INTEGER]</text>
</g>
<!-- file_set_item&#45;&gt;file_set -->
<g id="edge3" class="edge">
<title>file_set_item:file_set_id&#45;&gt;file_set:id</title>
<path fill="none" stroke="black" d="M851.66,-432.18C895.58,-403.59 875.9,-181.8 823.08,-181.8"/>
<polygon fill="black" stroke="black" points="851.56,-432.21 840.69,-430.8 846.46,-433.75 842.31,-435.01 842.31,-435.01 842.31,-435.01 846.46,-433.75 843.29,-439.41 851.56,-432.21"/>
<text text-anchor="start" x="289.02" y="-445.2" font-family="Arial" font-size="10.00">FOREIGN KEY (file_set_id) REFERENCES file_set (id) ON UPDATE NO ACTION ON DELETE CASCADE MATCH NONE</text>
</g>
<!-- file_info_system -->
<g id="node6" class="node">
<title>file_info_system</title>
<polygon fill="#efefef" stroke="none" points="1262.94,-450.6 1262.94,-486.2 1467.18,-486.2 1467.18,-450.6 1262.94,-450.6"/>
<polygon fill="none" stroke="black" points="1262.94,-450.6 1262.94,-486.2 1467.18,-486.2 1467.18,-450.6 1262.94,-450.6"/>
<text text-anchor="start" x="1269.94" y="-464" font-family="Arial Bold" font-size="18.00">file_info_system</text>
<text text-anchor="start" x="1390.92" y="-464" font-family="Arial" font-size="14.00">    </text>
<text text-anchor="start" x="1422.04" y="-464" font-family="Arial" font-size="14.00" fill="#666666">[table]</text>
<polygon fill="none" stroke="black" points="1262.94,-419.8 1262.94,-450.6 1467.18,-450.6 1467.18,-419.8 1262.94,-419.8"/>
<text text-anchor="start" x="1269.94" y="-432" font-family="Arial" font-size="14.00">file_info_id </text>
<text text-anchor="start" x="1340.77" y="-432" font-family="Arial" font-size="14.00" fill="#666666">[INTEGER]</text>
<polygon fill="none" stroke="black" points="1262.94,-389 1262.94,-419.8 1467.18,-419.8 1467.18,-389 1262.94,-389"/>
<text text-anchor="start" x="1269.94" y="-401.2" font-family="Arial" font-size="14.00">system_id </text>
<text text-anchor="start" x="1336.85" y="-401.2" font-family="Arial" font-size="14.00" fill="#666666">[INTEGER]</text>
</g>
<!-- file_info_system&#45;&gt;file_info -->
<g id="edge5" class="edge">
<title>file_info_system:file_info_id&#45;&gt;file_info:id</title>
<path fill="none" stroke="black" d="M1251.57,-434.33C1165.74,-418.17 1406.38,-181.8 1296.59,-181.8"/>
<polygon fill="black" stroke="black" points="1251.64,-434.34 1261.23,-439.66 1256.96,-434.78 1261.27,-435.14 1261.27,-435.14 1261.27,-435.14 1256.96,-434.78 1261.98,-430.69 1251.64,-434.34"/>
<text text-anchor="start" x="1268.94" y="-419.2" font-family="Arial" font-size="10.00">FOREIGN KEY (file_info_id) REFERENCES file_info (id) ON UPDATE NO ACTION ON DELETE CASCADE MATCH NONE</text>
</g>
</g>
</svg>
