<?xml version="1.0" encoding="UTF-8" standalone="no"?>
<!DOCTYPE svg PUBLIC "-//W3C//DTD SVG 1.1//EN"
 "http://www.w3.org/Graphics/SVG/1.1/DTD/svg11.dtd">
<!-- Generated by graphviz version 12.1.2 (20240928.0832)
 -->
<!-- Title: file_set Pages: 1 -->
<svg width="2154pt" height="571pt"
 viewBox="0.00 0.00 2153.70 571.20" xmlns="http://www.w3.org/2000/svg" xmlns:xlink="http://www.w3.org/1999/xlink">
<g id="graph0" class="graph" transform="scale(1 1) rotate(0) translate(4 567.2)">
<title>file_set</title>
<polygon fill="white" stroke="none" points="-4,4 -4,-567.2 2149.7,-567.2 2149.7,4 -4,4"/>
<!-- file_set -->
<g id="node1" class="node">
<title>file_set</title>
<polygon fill="#efefef" stroke="none" points="981.8,-200.2 981.8,-235.8 1121.85,-235.8 1121.85,-200.2 981.8,-200.2"/>
<polygon fill="none" stroke="black" points="981.8,-200.2 981.8,-235.8 1121.85,-235.8 1121.85,-200.2 981.8,-200.2"/>
<text text-anchor="start" x="990.71" y="-213.6" font-family="Arial Bold" font-size="18.00">file_set</text>
<text text-anchor="start" x="1043.69" y="-213.6" font-family="Arial" font-size="14.00">    </text>
<text text-anchor="start" x="1074.8" y="-213.6" font-family="Arial" font-size="14.00" fill="#666666">[table]</text>
<polygon fill="none" stroke="black" points="981.8,-169.4 981.8,-200.2 1121.85,-200.2 1121.85,-169.4 981.8,-169.4"/>
<text text-anchor="start" x="988.8" y="-181.6" font-family="Arial" font-size="14.00">id </text>
<text text-anchor="start" x="1003.59" y="-181.6" font-family="Arial" font-size="14.00" fill="#666666">[INTEGER]</text>
<polygon fill="none" stroke="black" points="981.8,-138.6 981.8,-169.4 1121.85,-169.4 1121.85,-138.6 981.8,-138.6"/>
<text text-anchor="start" x="988.8" y="-150.8" font-family="Arial" font-size="14.00">file_name </text>
<text text-anchor="start" x="1053.4" y="-150.8" font-family="Arial" font-size="14.00" fill="#666666">[TEXT]</text>
<polygon fill="none" stroke="black" points="981.8,-107.8 981.8,-138.6 1121.85,-138.6 1121.85,-107.8 981.8,-107.8"/>
<text text-anchor="start" x="988.8" y="-120" font-family="Arial" font-size="14.00">file_type </text>
<text text-anchor="start" x="1044.84" y="-120" font-family="Arial" font-size="14.00" fill="#666666">[INTEGER]</text>
<polygon fill="none" stroke="black" points="981.8,-77 981.8,-107.8 1121.85,-107.8 1121.85,-77 981.8,-77"/>
<text text-anchor="start" x="988.8" y="-89.2" font-family="Arial" font-size="14.00">name </text>
<text text-anchor="start" x="1027.71" y="-89.2" font-family="Arial" font-size="14.00" fill="#666666">[TEXT]</text>
<polygon fill="none" stroke="black" points="981.8,-46.2 981.8,-77 1121.85,-77 1121.85,-46.2 981.8,-46.2"/>
<text text-anchor="start" x="988.8" y="-58.4" font-family="Arial" font-size="14.00">source </text>
<text text-anchor="start" x="1034.71" y="-58.4" font-family="Arial" font-size="14.00" fill="#666666">[TEXT]</text>
<polygon fill="none" stroke="black" stroke-width="3" points="980.3,-44.7 980.3,-237.3 1123.35,-237.3 1123.35,-44.7 980.3,-44.7"/>
</g>
<!-- file_set_file_info -->
<g id="node2" class="node">
<title>file_set_file_info</title>
<polygon fill="#efefef" stroke="none" points="364.22,-484.4 364.22,-520 571.43,-520 571.43,-484.4 364.22,-484.4"/>
<polygon fill="none" stroke="black" points="364.22,-484.4 364.22,-520 571.43,-520 571.43,-484.4 364.22,-484.4"/>
<text text-anchor="start" x="371.22" y="-497.8" font-family="Arial Bold" font-size="18.00">file_set_file_info</text>
<text text-anchor="start" x="495.18" y="-497.8" font-family="Arial" font-size="14.00">    </text>
<text text-anchor="start" x="526.29" y="-497.8" font-family="Arial" font-size="14.00" fill="#666666">[table]</text>
<polygon fill="none" stroke="black" points="364.22,-453.6 364.22,-484.4 571.43,-484.4 571.43,-453.6 364.22,-453.6"/>
<text text-anchor="start" x="371.22" y="-465.8" font-family="Arial" font-size="14.00">file_set_id </text>
<text text-anchor="start" x="438.15" y="-465.8" font-family="Arial" font-size="14.00" fill="#666666">[INTEGER]</text>
<polygon fill="none" stroke="black" points="364.22,-422.8 364.22,-453.6 571.43,-453.6 571.43,-422.8 364.22,-422.8"/>
<text text-anchor="start" x="371.22" y="-435" font-family="Arial" font-size="14.00">file_info_id </text>
<text text-anchor="start" x="442.04" y="-435" font-family="Arial" font-size="14.00" fill="#666666">[INTEGER]</text>
<polygon fill="none" stroke="black" points="364.22,-392 364.22,-422.8 571.43,-422.8 571.43,-392 364.22,-392"/>
<text text-anchor="start" x="371.22" y="-404.2" font-family="Arial" font-size="14.00">file_name </text>
<text text-anchor="start" x="435.81" y="-404.2" font-family="Arial" font-size="14.00" fill="#666666">[TEXT]</text>
<polygon fill="none" stroke="black" points="364.22,-361.2 364.22,-392 571.43,-392 571.43,-361.2 364.22,-361.2"/>
<text text-anchor="start" x="371.22" y="-373.4" font-family="Arial" font-size="14.00">sort_order </text>
<text text-anchor="start" x="438.91" y="-373.4" font-family="Arial" font-size="14.00" fill="#666666">[INTEGER]</text>
</g>
<!-- file_set_file_info&#45;&gt;file_set -->
<g id="edge1" class="edge">
<title>file_set_file_info:file_set_id&#45;&gt;file_set:id</title>
<path fill="none" stroke="black" d="M582.81,-468.08C635.59,-457.59 572.05,-360.55 623.82,-318 717.02,-241.42 786.06,-338.14 892.82,-282 944.4,-254.88 922.54,-184.8 980.8,-184.8"/>
<polygon fill="black" stroke="black" points="582.73,-468.08 572.37,-464.49 577.41,-468.56 573.1,-468.94 573.1,-468.94 573.1,-468.94 577.41,-468.56 573.16,-473.45 582.73,-468.08"/>
<text text-anchor="start" x="12.57" y="-479" font-family="Arial" font-size="10.00">FOREIGN KEY (file_set_id) REFERENCES file_set (id) ON UPDATE NO ACTION ON DELETE NO ACTION MATCH NONE</text>
</g>
<!-- file_info -->
<g id="node3" class="node">
<title>file_info</title>
<polygon fill="#efefef" stroke="none" points="380.29,-200.2 380.29,-235.8 555.36,-235.8 555.36,-200.2 380.29,-200.2"/>
<polygon fill="none" stroke="black" points="380.29,-200.2 380.29,-235.8 555.36,-235.8 555.36,-200.2 380.29,-200.2"/>
<text text-anchor="start" x="402.21" y="-213.6" font-family="Arial Bold" font-size="18.00">file_info</text>
<text text-anchor="start" x="464.19" y="-213.6" font-family="Arial" font-size="14.00">    </text>
<text text-anchor="start" x="495.3" y="-213.6" font-family="Arial" font-size="14.00" fill="#666666">[table]</text>
<polygon fill="none" stroke="black" points="380.29,-169.4 380.29,-200.2 555.36,-200.2 555.36,-169.4 380.29,-169.4"/>
<text text-anchor="start" x="387.29" y="-181.6" font-family="Arial" font-size="14.00">id </text>
<text text-anchor="start" x="402.08" y="-181.6" font-family="Arial" font-size="14.00" fill="#666666">[INTEGER]</text>
<polygon fill="none" stroke="black" points="380.29,-138.6 380.29,-169.4 555.36,-169.4 555.36,-138.6 380.29,-138.6"/>
<text text-anchor="start" x="387.29" y="-150.8" font-family="Arial" font-size="14.00">sha1_checksum </text>
<text text-anchor="start" x="492.35" y="-150.8" font-family="Arial" font-size="14.00" fill="#666666">[BLOB]</text>
<polygon fill="none" stroke="black" points="380.29,-107.8 380.29,-138.6 555.36,-138.6 555.36,-107.8 380.29,-107.8"/>
<text text-anchor="start" x="387.29" y="-120" font-family="Arial" font-size="14.00">file_size </text>
<text text-anchor="start" x="441.76" y="-120" font-family="Arial" font-size="14.00" fill="#666666">[INTEGER]</text>
<polygon fill="none" stroke="black" points="380.29,-77 380.29,-107.8 555.36,-107.8 555.36,-77 380.29,-77"/>
<text text-anchor="start" x="387.29" y="-89.2" font-family="Arial" font-size="14.00">archive_file_name </text>
<text text-anchor="start" x="504.8" y="-89.2" font-family="Arial" font-size="14.00" fill="#666666">[TEXT]</text>
<polygon fill="none" stroke="black" points="380.29,-46.2 380.29,-77 555.36,-77 555.36,-46.2 380.29,-46.2"/>
<text text-anchor="start" x="387.29" y="-58.4" font-family="Arial" font-size="14.00">file_type </text>
<text text-anchor="start" x="443.32" y="-58.4" font-family="Arial" font-size="14.00" fill="#666666">[INTEGER]</text>
</g>
<!-- file_set_file_info&#45;&gt;file_info -->
<g id="edge2" class="edge">
<title>file_set_file_info:file_info_id&#45;&gt;file_info:id</title>
<path fill="none" stroke="black" d="M582.17,-435.35C626.69,-407.51 609.26,-184.8 556.36,-184.8"/>
<polygon fill="black" stroke="black" points="582.35,-435.3 571.49,-433.79 577.23,-436.8 573.07,-438.01 573.07,-438.01 573.07,-438.01 577.23,-436.8 574.02,-442.43 582.35,-435.3"/>
<text text-anchor="start" x="7" y="-448.2" font-family="Arial" font-size="10.00">FOREIGN KEY (file_info_id) REFERENCES file_info (id) ON UPDATE NO ACTION ON DELETE NO ACTION MATCH NONE</text>
</g>
<!-- release_file_set -->
<g id="node4" class="node">
<title>release_file_set</title>
<polygon fill="#efefef" stroke="none" points="676.23,-453.6 676.23,-489.2 871.42,-489.2 871.42,-453.6 676.23,-453.6"/>
<polygon fill="none" stroke="black" points="676.23,-453.6 676.23,-489.2 871.42,-489.2 871.42,-453.6 676.23,-453.6"/>
<text text-anchor="start" x="683.23" y="-467" font-family="Arial Bold" font-size="18.00">release_file_set</text>
<text text-anchor="start" x="795.17" y="-467" font-family="Arial" font-size="14.00">    </text>
<text text-anchor="start" x="826.28" y="-467" font-family="Arial" font-size="14.00" fill="#666666">[table]</text>
<polygon fill="none" stroke="black" points="676.23,-422.8 676.23,-453.6 871.42,-453.6 871.42,-422.8 676.23,-422.8"/>
<text text-anchor="start" x="683.23" y="-435" font-family="Arial" font-size="14.00">release_id </text>
<text text-anchor="start" x="751.72" y="-435" font-family="Arial" font-size="14.00" fill="#666666">[INTEGER]</text>
<polygon fill="none" stroke="black" points="676.23,-392 676.23,-422.8 871.42,-422.8 871.42,-392 676.23,-392"/>
<text text-anchor="start" x="683.23" y="-404.2" font-family="Arial" font-size="14.00">file_set_id </text>
<text text-anchor="start" x="750.16" y="-404.2" font-family="Arial" font-size="14.00" fill="#666666">[INTEGER]</text>
</g>
<!-- release_file_set&#45;&gt;file_set -->
<g id="edge3" class="edge">
<title>release_file_set:file_set_id&#45;&gt;file_set:id</title>
<path fill="none" stroke="black" d="M882.38,-404.75C927.46,-379.63 929.33,-184.8 980.8,-184.8"/>
<polygon fill="black" stroke="black" points="882.41,-404.74 871.59,-402.97 877.25,-406.11 873.07,-407.23 873.07,-407.23 873.07,-407.23 877.25,-406.11 873.9,-411.66 882.41,-404.74"/>
<text text-anchor="start" x="319.77" y="-417.4" font-family="Arial" font-size="10.00">FOREIGN KEY (file_set_id) REFERENCES file_set (id) ON UPDATE NO ACTION ON DELETE CASCADE MATCH NONE</text>
</g>
<!-- release -->
<g id="node5" class="node">
<title>release</title>
<polygon fill="#efefef" stroke="none" points="707.22,-154 707.22,-189.6 840.43,-189.6 840.43,-154 707.22,-154"/>
<polygon fill="none" stroke="black" points="707.22,-154 707.22,-189.6 840.43,-189.6 840.43,-154 707.22,-154"/>
<text text-anchor="start" x="714.22" y="-167.4" font-family="Arial Bold" font-size="18.00">release</text>
<text text-anchor="start" x="764.18" y="-167.4" font-family="Arial" font-size="14.00">    </text>
<text text-anchor="start" x="795.29" y="-167.4" font-family="Arial" font-size="14.00" fill="#666666">[table]</text>
<polygon fill="none" stroke="black" points="707.22,-123.2 707.22,-154 840.43,-154 840.43,-123.2 707.22,-123.2"/>
<text text-anchor="start" x="714.22" y="-135.4" font-family="Arial" font-size="14.00">id </text>
<text text-anchor="start" x="729" y="-135.4" font-family="Arial" font-size="14.00" fill="#666666">[INTEGER]</text>
<polygon fill="none" stroke="black" points="707.22,-92.4 707.22,-123.2 840.43,-123.2 840.43,-92.4 707.22,-92.4"/>
<text text-anchor="start" x="714.22" y="-104.6" font-family="Arial" font-size="14.00">name </text>
<text text-anchor="start" x="753.13" y="-104.6" font-family="Arial" font-size="14.00" fill="#666666">[TEXT]</text>
</g>
<!-- release_file_set&#45;&gt;release -->
<g id="edge4" class="edge">
<title>release_file_set:release_id&#45;&gt;release:id</title>
<path fill="none" stroke="black" d="M882.53,-435.61C935.86,-406.33 904.7,-138.6 841.43,-138.6"/>
<polygon fill="black" stroke="black" points="882.43,-435.64 871.63,-433.76 877.26,-436.96 873.07,-438.03 873.07,-438.03 873.07,-438.03 877.26,-436.96 873.86,-442.48 882.43,-435.64"/>
<text text-anchor="start" x="317.54" y="-448.2" font-family="Arial" font-size="10.00">FOREIGN KEY (release_id) REFERENCES release (id) ON UPDATE NO ACTION ON DELETE CASCADE MATCH NONE</text>
</g>
<!-- release_item_file_set -->
<g id="node6" class="node">
<title>release_item_file_set</title>
<polygon fill="#efefef" stroke="none" points="1297.73,-453.6 1297.73,-489.2 1533.92,-489.2 1533.92,-453.6 1297.73,-453.6"/>
<polygon fill="none" stroke="black" points="1297.73,-453.6 1297.73,-489.2 1533.92,-489.2 1533.92,-453.6 1297.73,-453.6"/>
<text text-anchor="start" x="1304.73" y="-467" font-family="Arial Bold" font-size="18.00">release_item_file_set</text>
<text text-anchor="start" x="1457.66" y="-467" font-family="Arial" font-size="14.00">    </text>
<text text-anchor="start" x="1488.78" y="-467" font-family="Arial" font-size="14.00" fill="#666666">[table]</text>
<polygon fill="none" stroke="black" points="1297.73,-422.8 1297.73,-453.6 1533.92,-453.6 1533.92,-422.8 1297.73,-422.8"/>
<text text-anchor="start" x="1304.73" y="-435" font-family="Arial" font-size="14.00">release_item_id </text>
<text text-anchor="start" x="1407.46" y="-435" font-family="Arial" font-size="14.00" fill="#666666">[INTEGER]</text>
<polygon fill="none" stroke="black" points="1297.73,-392 1297.73,-422.8 1533.92,-422.8 1533.92,-392 1297.73,-392"/>
<text text-anchor="start" x="1304.73" y="-404.2" font-family="Arial" font-size="14.00">file_set_id </text>
<text text-anchor="start" x="1371.66" y="-404.2" font-family="Arial" font-size="14.00" fill="#666666">[INTEGER]</text>
</g>
<!-- release_item_file_set&#45;&gt;file_set -->
<g id="edge5" class="edge">
<title>release_item_file_set:file_set_id&#45;&gt;file_set:id</title>
<path fill="none" stroke="black" d="M1286.37,-406.28C1254.4,-398.49 1270.5,-351.73 1245.82,-318 1198.25,-252.97 1203.42,-184.8 1122.85,-184.8"/>
<polygon fill="black" stroke="black" points="1286.46,-406.29 1295.92,-411.84 1291.76,-406.86 1296.07,-407.33 1296.07,-407.33 1296.07,-407.33 1291.76,-406.86 1296.88,-402.89 1286.46,-406.29"/>
<text text-anchor="start" x="1303.73" y="-417.4" font-family="Arial" font-size="10.00">FOREIGN KEY (file_set_id) REFERENCES file_set (id) ON UPDATE NO ACTION ON DELETE CASCADE MATCH NONE</text>
</g>
<!-- release_item -->
<g id="node7" class="node">
<title>release_item</title>
<polygon fill="#efefef" stroke="none" points="1328.72,-184.8 1328.72,-220.4 1502.93,-220.4 1502.93,-184.8 1328.72,-184.8"/>
<polygon fill="none" stroke="black" points="1328.72,-184.8 1328.72,-220.4 1502.93,-220.4 1502.93,-184.8 1328.72,-184.8"/>
<text text-anchor="start" x="1335.72" y="-198.2" font-family="Arial Bold" font-size="18.00">release_item</text>
<text text-anchor="start" x="1426.67" y="-198.2" font-family="Arial" font-size="14.00">    </text>
<text text-anchor="start" x="1457.79" y="-198.2" font-family="Arial" font-size="14.00" fill="#666666">[table]</text>
<polygon fill="none" stroke="black" points="1328.72,-154 1328.72,-184.8 1502.93,-184.8 1502.93,-154 1328.72,-154"/>
<text text-anchor="start" x="1335.72" y="-166.2" font-family="Arial" font-size="14.00">id </text>
<text text-anchor="start" x="1350.51" y="-166.2" font-family="Arial" font-size="14.00" fill="#666666">[INTEGER]</text>
<polygon fill="none" stroke="black" points="1328.72,-123.2 1328.72,-154 1502.93,-154 1502.93,-123.2 1328.72,-123.2"/>
<text text-anchor="start" x="1335.72" y="-135.4" font-family="Arial" font-size="14.00">release_id </text>
<text text-anchor="start" x="1404.21" y="-135.4" font-family="Arial" font-size="14.00" fill="#666666">[INTEGER]</text>
<polygon fill="none" stroke="black" points="1328.72,-92.4 1328.72,-123.2 1502.93,-123.2 1502.93,-92.4 1328.72,-92.4"/>
<text text-anchor="start" x="1335.72" y="-104.6" font-family="Arial" font-size="14.00">item_type </text>
<text text-anchor="start" x="1400.31" y="-104.6" font-family="Arial" font-size="14.00" fill="#666666">[INTEGER]</text>
<polygon fill="none" stroke="black" points="1328.72,-61.6 1328.72,-92.4 1502.93,-92.4 1502.93,-61.6 1328.72,-61.6"/>
<text text-anchor="start" x="1335.72" y="-73.8" font-family="Arial" font-size="14.00">notes </text>
<text text-anchor="start" x="1373.86" y="-73.8" font-family="Arial" font-size="14.00" fill="#666666">[TEXT]</text>
</g>
<!-- release_item_file_set&#45;&gt;release_item -->
<g id="edge6" class="edge">
<title>release_item_file_set:release_item_id&#45;&gt;release_item:id</title>
<path fill="none" stroke="black" d="M1544.85,-435.36C1591.19,-406.64 1560.42,-169.4 1503.93,-169.4"/>
<polygon fill="black" stroke="black" points="1544.85,-435.36 1534,-433.78 1539.72,-436.83 1535.56,-438.02 1535.56,-438.02 1535.56,-438.02 1539.72,-436.83 1536.47,-442.44 1544.85,-435.36"/>
<text text-anchor="start" x="1541.92" y="-448.2" font-family="Arial" font-size="10.00">FOREIGN KEY (release_item_id) REFERENCES release_item (id) ON UPDATE NO ACTION ON DELETE CASCADE MATCH NONE</text>
</g>
<!-- file_set_item_type -->
<g id="node8" class="node">
<title>file_set_item_type</title>
<polygon fill="#efefef" stroke="none" points="976.22,-453.6 976.22,-489.2 1193.43,-489.2 1193.43,-453.6 976.22,-453.6"/>
<polygon fill="none" stroke="black" points="976.22,-453.6 976.22,-489.2 1193.43,-489.2 1193.43,-453.6 976.22,-453.6"/>
<text text-anchor="start" x="983.22" y="-467" font-family="Arial Bold" font-size="18.00">file_set_item_type</text>
<text text-anchor="start" x="1117.18" y="-467" font-family="Arial" font-size="14.00">    </text>
<text text-anchor="start" x="1148.3" y="-467" font-family="Arial" font-size="14.00" fill="#666666">[table]</text>
<polygon fill="none" stroke="black" points="976.22,-422.8 976.22,-453.6 1193.43,-453.6 1193.43,-422.8 976.22,-422.8"/>
<text text-anchor="start" x="983.22" y="-435" font-family="Arial" font-size="14.00">file_set_id </text>
<text text-anchor="start" x="1050.15" y="-435" font-family="Arial" font-size="14.00" fill="#666666">[INTEGER]</text>
<polygon fill="none" stroke="black" points="976.22,-392 976.22,-422.8 1193.43,-422.8 1193.43,-392 976.22,-392"/>
<text text-anchor="start" x="983.22" y="-404.2" font-family="Arial" font-size="14.00">item_type </text>
<text text-anchor="start" x="1047.8" y="-404.2" font-family="Arial" font-size="14.00" fill="#666666">[INTEGER]</text>
</g>
<!-- file_set_item_type&#45;&gt;file_set -->
<g id="edge7" class="edge">
<title>file_set_item_type:file_set_id&#45;&gt;file_set:id</title>
<path fill="none" stroke="black" d="M965.21,-436.67C939.23,-427.46 956.69,-378.87 976.22,-348.8 1015,-289.08 1083.09,-341.74 1121.85,-282 1145.36,-245.76 1166.05,-184.8 1122.85,-184.8"/>
<polygon fill="black" stroke="black" points="965,-436.64 974.2,-442.6 970.27,-437.44 974.55,-438.1 974.55,-438.1 974.55,-438.1 970.27,-437.44 975.57,-433.7 965,-436.64"/>
<text text-anchor="start" x="982.22" y="-448.2" font-family="Arial" font-size="10.00">FOREIGN KEY (file_set_id) REFERENCES file_set (id) ON UPDATE NO ACTION ON DELETE CASCADE MATCH NONE</text>
</g>
</g>
</svg>
