<?xml version="1.0" encoding="UTF-8" standalone="no"?>
<!DOCTYPE svg PUBLIC "-//W3C//DTD SVG 1.1//EN"
 "http://www.w3.org/Graphics/SVG/1.1/DTD/svg11.dtd">
<!-- Generated by graphviz version 12.1.2 (20240928.0832)
 -->
<!-- Title: file_set_item_type Pages: 1 -->
<svg width="2215pt" height="565pt"
 viewBox="0.00 0.00 2215.09 565.20" xmlns="http://www.w3.org/2000/svg" xmlns:xlink="http://www.w3.org/1999/xlink">
<g id="graph0" class="graph" transform="scale(1 1) rotate(0) translate(4 561.2)">
<title>file_set_item_type</title>
<polygon fill="white" stroke="none" points="-4,4 -4,-561.2 2211.09,-561.2 2211.09,4 -4,4"/>
<!-- file_set_item_type -->
<g id="node1" class="node">
<title>file_set_item_type</title>
<polygon fill="#efefef" stroke="none" points="341.44,-447.6 341.44,-483.2 558.65,-483.2 558.65,-447.6 341.44,-447.6"/>
<polygon fill="none" stroke="black" points="341.44,-447.6 341.44,-483.2 558.65,-483.2 558.65,-447.6 341.44,-447.6"/>
<text text-anchor="start" x="348.44" y="-461" font-family="Arial Bold" font-size="18.00">file_set_item_type</text>
<text text-anchor="start" x="482.4" y="-461" font-family="Arial" font-size="14.00">    </text>
<text text-anchor="start" x="513.52" y="-461" font-family="Arial" font-size="14.00" fill="#666666">[table]</text>
<polygon fill="none" stroke="black" points="341.44,-416.8 341.44,-447.6 558.65,-447.6 558.65,-416.8 341.44,-416.8"/>
<text text-anchor="start" x="348.44" y="-429" font-family="Arial" font-size="14.00">file_set_id </text>
<text text-anchor="start" x="415.37" y="-429" font-family="Arial" font-size="14.00" fill="#666666">[INTEGER]</text>
<polygon fill="none" stroke="black" points="341.44,-386 341.44,-416.8 558.65,-416.8 558.65,-386 341.44,-386"/>
<text text-anchor="start" x="348.44" y="-398.2" font-family="Arial" font-size="14.00">item_type </text>
<text text-anchor="start" x="413.02" y="-398.2" font-family="Arial" font-size="14.00" fill="#666666">[INTEGER]</text>
<polygon fill="none" stroke="black" stroke-width="3" points="339.94,-384.5 339.94,-484.7 560.15,-484.7 560.15,-384.5 339.94,-384.5"/>
</g>
<!-- file_set -->
<g id="node2" class="node">
<title>file_set</title>
<polygon fill="#efefef" stroke="none" points="1014.02,-197.2 1014.02,-232.8 1154.07,-232.8 1154.07,-197.2 1014.02,-197.2"/>
<polygon fill="none" stroke="black" points="1014.02,-197.2 1014.02,-232.8 1154.07,-232.8 1154.07,-197.2 1014.02,-197.2"/>
<text text-anchor="start" x="1022.93" y="-210.6" font-family="Arial Bold" font-size="18.00">file_set</text>
<text text-anchor="start" x="1075.91" y="-210.6" font-family="Arial" font-size="14.00">    </text>
<text text-anchor="start" x="1107.03" y="-210.6" font-family="Arial" font-size="14.00" fill="#666666">[table]</text>
<polygon fill="none" stroke="black" points="1014.02,-166.4 1014.02,-197.2 1154.07,-197.2 1154.07,-166.4 1014.02,-166.4"/>
<text text-anchor="start" x="1021.02" y="-178.6" font-family="Arial" font-size="14.00">id </text>
<text text-anchor="start" x="1035.81" y="-178.6" font-family="Arial" font-size="14.00" fill="#666666">[INTEGER]</text>
<polygon fill="none" stroke="black" points="1014.02,-135.6 1014.02,-166.4 1154.07,-166.4 1154.07,-135.6 1014.02,-135.6"/>
<text text-anchor="start" x="1021.02" y="-147.8" font-family="Arial" font-size="14.00">file_name </text>
<text text-anchor="start" x="1085.62" y="-147.8" font-family="Arial" font-size="14.00" fill="#666666">[TEXT]</text>
<polygon fill="none" stroke="black" points="1014.02,-104.8 1014.02,-135.6 1154.07,-135.6 1154.07,-104.8 1014.02,-104.8"/>
<text text-anchor="start" x="1021.02" y="-117" font-family="Arial" font-size="14.00">file_type </text>
<text text-anchor="start" x="1077.06" y="-117" font-family="Arial" font-size="14.00" fill="#666666">[INTEGER]</text>
<polygon fill="none" stroke="black" points="1014.02,-74 1014.02,-104.8 1154.07,-104.8 1154.07,-74 1014.02,-74"/>
<text text-anchor="start" x="1021.02" y="-86.2" font-family="Arial" font-size="14.00">name </text>
<text text-anchor="start" x="1059.94" y="-86.2" font-family="Arial" font-size="14.00" fill="#666666">[TEXT]</text>
<polygon fill="none" stroke="black" points="1014.02,-43.2 1014.02,-74 1154.07,-74 1154.07,-43.2 1014.02,-43.2"/>
<text text-anchor="start" x="1021.02" y="-55.4" font-family="Arial" font-size="14.00">source </text>
<text text-anchor="start" x="1066.94" y="-55.4" font-family="Arial" font-size="14.00" fill="#666666">[TEXT]</text>
</g>
<!-- file_set_item_type&#45;&gt;file_set -->
<g id="edge1" class="edge">
<title>file_set_item_type:file_set_id&#45;&gt;file_set:id</title>
<path fill="none" stroke="black" d="M569.98,-431.16C612.33,-421.62 573.28,-348.53 614.05,-312 752.96,-187.52 826.5,-181.8 1013.02,-181.8"/>
<polygon fill="black" stroke="black" points="569.94,-431.17 559.54,-427.69 564.63,-431.7 560.32,-432.13 560.32,-432.13 560.32,-432.13 564.63,-431.7 560.44,-436.64 569.94,-431.17"/>
<text text-anchor="start" x="7" y="-442.2" font-family="Arial" font-size="10.00">FOREIGN KEY (file_set_id) REFERENCES file_set (id) ON UPDATE NO ACTION ON DELETE CASCADE MATCH NONE</text>
</g>
<!-- release_file_set -->
<g id="node3" class="node">
<title>release_file_set</title>
<polygon fill="#efefef" stroke="none" points="666.45,-447.6 666.45,-483.2 861.64,-483.2 861.64,-447.6 666.45,-447.6"/>
<polygon fill="none" stroke="black" points="666.45,-447.6 666.45,-483.2 861.64,-483.2 861.64,-447.6 666.45,-447.6"/>
<text text-anchor="start" x="673.45" y="-461" font-family="Arial Bold" font-size="18.00">release_file_set</text>
<text text-anchor="start" x="785.39" y="-461" font-family="Arial" font-size="14.00">    </text>
<text text-anchor="start" x="816.5" y="-461" font-family="Arial" font-size="14.00" fill="#666666">[table]</text>
<polygon fill="none" stroke="black" points="666.45,-416.8 666.45,-447.6 861.64,-447.6 861.64,-416.8 666.45,-416.8"/>
<text text-anchor="start" x="673.45" y="-429" font-family="Arial" font-size="14.00">release_id </text>
<text text-anchor="start" x="741.94" y="-429" font-family="Arial" font-size="14.00" fill="#666666">[INTEGER]</text>
<polygon fill="none" stroke="black" points="666.45,-386 666.45,-416.8 861.64,-416.8 861.64,-386 666.45,-386"/>
<text text-anchor="start" x="673.45" y="-398.2" font-family="Arial" font-size="14.00">file_set_id </text>
<text text-anchor="start" x="740.38" y="-398.2" font-family="Arial" font-size="14.00" fill="#666666">[INTEGER]</text>
</g>
<!-- release_file_set&#45;&gt;file_set -->
<g id="edge2" class="edge">
<title>release_file_set:file_set_id&#45;&gt;file_set:id</title>
<path fill="none" stroke="black" d="M872.66,-400.4C905.53,-393.09 890.78,-347.06 914.05,-312 954.24,-251.43 940.34,-181.8 1013.02,-181.8"/>
<polygon fill="black" stroke="black" points="872.93,-400.37 862.53,-396.89 867.62,-400.9 863.31,-401.33 863.31,-401.33 863.31,-401.33 867.62,-400.9 863.42,-405.84 872.93,-400.37"/>
<text text-anchor="start" x="309.99" y="-411.4" font-family="Arial" font-size="10.00">FOREIGN KEY (file_set_id) REFERENCES file_set (id) ON UPDATE NO ACTION ON DELETE CASCADE MATCH NONE</text>
</g>
<!-- release_item_file_set -->
<g id="node4" class="node">
<title>release_item_file_set</title>
<polygon fill="#efefef" stroke="none" points="965.95,-447.6 965.95,-483.2 1202.14,-483.2 1202.14,-447.6 965.95,-447.6"/>
<polygon fill="none" stroke="black" points="965.95,-447.6 965.95,-483.2 1202.14,-483.2 1202.14,-447.6 965.95,-447.6"/>
<text text-anchor="start" x="972.95" y="-461" font-family="Arial Bold" font-size="18.00">release_item_file_set</text>
<text text-anchor="start" x="1125.88" y="-461" font-family="Arial" font-size="14.00">    </text>
<text text-anchor="start" x="1157" y="-461" font-family="Arial" font-size="14.00" fill="#666666">[table]</text>
<polygon fill="none" stroke="black" points="965.95,-416.8 965.95,-447.6 1202.14,-447.6 1202.14,-416.8 965.95,-416.8"/>
<text text-anchor="start" x="972.95" y="-429" font-family="Arial" font-size="14.00">release_item_id </text>
<text text-anchor="start" x="1075.68" y="-429" font-family="Arial" font-size="14.00" fill="#666666">[INTEGER]</text>
<polygon fill="none" stroke="black" points="965.95,-386 965.95,-416.8 1202.14,-416.8 1202.14,-386 965.95,-386"/>
<text text-anchor="start" x="972.95" y="-398.2" font-family="Arial" font-size="14.00">file_set_id </text>
<text text-anchor="start" x="1039.88" y="-398.2" font-family="Arial" font-size="14.00" fill="#666666">[INTEGER]</text>
</g>
<!-- release_item_file_set&#45;&gt;file_set -->
<g id="edge3" class="edge">
<title>release_item_file_set:file_set_id&#45;&gt;file_set:id</title>
<path fill="none" stroke="black" d="M1084.69,-374.6C1090.79,-327.66 1138.62,-327.61 1154.07,-276 1166.07,-235.89 1196.93,-181.8 1155.07,-181.8"/>
<polygon fill="black" stroke="black" points="1084.68,-374.69 1079.57,-384.39 1084.35,-380.01 1084.09,-384.33 1084.09,-384.33 1084.09,-384.33 1084.35,-380.01 1088.56,-384.94 1084.68,-374.69"/>
<text text-anchor="start" x="1091.05" y="-395" font-family="Arial" font-size="10.00">FOREIGN KEY (file_set_id) REFERENCES file_set (id) ON UPDATE NO ACTION ON DELETE CASCADE MATCH NONE</text>
</g>
<!-- file_set_dat_file_link -->
<g id="node5" class="node">
<title>file_set_dat_file_link</title>
<polygon fill="#efefef" stroke="none" points="1306.44,-447.6 1306.44,-483.2 1543.65,-483.2 1543.65,-447.6 1306.44,-447.6"/>
<polygon fill="none" stroke="black" points="1306.44,-447.6 1306.44,-483.2 1543.65,-483.2 1543.65,-447.6 1306.44,-447.6"/>
<text text-anchor="start" x="1313.44" y="-461" font-family="Arial Bold" font-size="18.00">file_set_dat_file_link</text>
<text text-anchor="start" x="1467.4" y="-461" font-family="Arial" font-size="14.00">    </text>
<text text-anchor="start" x="1498.51" y="-461" font-family="Arial" font-size="14.00" fill="#666666">[table]</text>
<polygon fill="none" stroke="black" points="1306.44,-416.8 1306.44,-447.6 1543.65,-447.6 1543.65,-416.8 1306.44,-416.8"/>
<text text-anchor="start" x="1313.44" y="-429" font-family="Arial" font-size="14.00">file_set_id </text>
<text text-anchor="start" x="1380.37" y="-429" font-family="Arial" font-size="14.00" fill="#666666">[INTEGER]</text>
<polygon fill="none" stroke="black" points="1306.44,-386 1306.44,-416.8 1543.65,-416.8 1543.65,-386 1306.44,-386"/>
<text text-anchor="start" x="1313.44" y="-398.2" font-family="Arial" font-size="14.00">dat_file_id </text>
<text text-anchor="start" x="1381.16" y="-398.2" font-family="Arial" font-size="14.00" fill="#666666">[INTEGER]</text>
</g>
<!-- file_set_dat_file_link&#45;&gt;file_set -->
<g id="edge4" class="edge">
<title>file_set_dat_file_link:file_set_id&#45;&gt;file_set:id</title>
<path fill="none" stroke="black" d="M1295.06,-431.3C1251.82,-422.99 1281.33,-358.88 1254.05,-312 1217.49,-249.17 1227.76,-181.8 1155.07,-181.8"/>
<polygon fill="black" stroke="black" points="1295.14,-431.31 1304.72,-436.65 1300.46,-431.77 1304.77,-432.14 1304.77,-432.14 1304.77,-432.14 1300.46,-431.77 1305.49,-427.69 1295.14,-431.31"/>
<text text-anchor="start" x="1312.44" y="-442.2" font-family="Arial" font-size="10.00">FOREIGN KEY (file_set_id) REFERENCES file_set (id) ON UPDATE NO ACTION ON DELETE CASCADE MATCH NONE</text>
</g>
<!-- file_set_file_info -->
<g id="node6" class="node">
<title>file_set_file_info</title>
<polygon fill="#efefef" stroke="none" points="1648.44,-478.4 1648.44,-514 1855.65,-514 1855.65,-478.4 1648.44,-478.4"/>
<polygon fill="none" stroke="black" points="1648.44,-478.4 1648.44,-514 1855.65,-514 1855.65,-478.4 1648.44,-478.4"/>
<text text-anchor="start" x="1655.44" y="-491.8" font-family="Arial Bold" font-size="18.00">file_set_file_info</text>
<text text-anchor="start" x="1779.4" y="-491.8" font-family="Arial" font-size="14.00">    </text>
<text text-anchor="start" x="1810.52" y="-491.8" font-family="Arial" font-size="14.00" fill="#666666">[table]</text>
<polygon fill="none" stroke="black" points="1648.44,-447.6 1648.44,-478.4 1855.65,-478.4 1855.65,-447.6 1648.44,-447.6"/>
<text text-anchor="start" x="1655.44" y="-459.8" font-family="Arial" font-size="14.00">file_set_id </text>
<text text-anchor="start" x="1722.37" y="-459.8" font-family="Arial" font-size="14.00" fill="#666666">[INTEGER]</text>
<polygon fill="none" stroke="black" points="1648.44,-416.8 1648.44,-447.6 1855.65,-447.6 1855.65,-416.8 1648.44,-416.8"/>
<text text-anchor="start" x="1655.44" y="-429" font-family="Arial" font-size="14.00">file_info_id </text>
<text text-anchor="start" x="1726.26" y="-429" font-family="Arial" font-size="14.00" fill="#666666">[INTEGER]</text>
<polygon fill="none" stroke="black" points="1648.44,-386 1648.44,-416.8 1855.65,-416.8 1855.65,-386 1648.44,-386"/>
<text text-anchor="start" x="1655.44" y="-398.2" font-family="Arial" font-size="14.00">file_name </text>
<text text-anchor="start" x="1720.03" y="-398.2" font-family="Arial" font-size="14.00" fill="#666666">[TEXT]</text>
<polygon fill="none" stroke="black" points="1648.44,-355.2 1648.44,-386 1855.65,-386 1855.65,-355.2 1648.44,-355.2"/>
<text text-anchor="start" x="1655.44" y="-367.4" font-family="Arial" font-size="14.00">sort_order </text>
<text text-anchor="start" x="1723.13" y="-367.4" font-family="Arial" font-size="14.00" fill="#666666">[INTEGER]</text>
</g>
<!-- file_set_file_info&#45;&gt;file_set -->
<g id="edge5" class="edge">
<title>file_set_file_info:file_set_id&#45;&gt;file_set:id</title>
<path fill="none" stroke="black" d="M1637.03,-462.11C1583.91,-452.01 1644.39,-358.41 1596.05,-312 1522.33,-241.24 1257.24,-181.8 1155.07,-181.8"/>
<polygon fill="black" stroke="black" points="1637.14,-462.12 1646.72,-467.46 1642.46,-462.57 1646.77,-462.94 1646.77,-462.94 1646.77,-462.94 1642.46,-462.57 1647.49,-458.49 1637.14,-462.12"/>
<text text-anchor="start" x="1654.44" y="-473" font-family="Arial" font-size="10.00">FOREIGN KEY (file_set_id) REFERENCES file_set (id) ON UPDATE NO ACTION ON DELETE CASCADE MATCH NONE</text>
</g>
</g>
</svg>
