<?xml version="1.0" encoding="UTF-8" standalone="no"?>
<!DOCTYPE svg PUBLIC "-//W3C//DTD SVG 1.1//EN"
 "http://www.w3.org/Graphics/SVG/1.1/DTD/svg11.dtd">
<!-- Generated by graphviz version 12.1.2 (20240928.0832)
 -->
<!-- Title: file_info Pages: 1 -->
<svg width="1713pt" height="633pt"
 viewBox="0.00 0.00 1713.22 632.80" xmlns="http://www.w3.org/2000/svg" xmlns:xlink="http://www.w3.org/1999/xlink">
<g id="graph0" class="graph" transform="scale(1 1) rotate(0) translate(4 628.8)">
<title>file_info</title>
<polygon fill="white" stroke="none" points="-4,4 -4,-628.8 1709.22,-628.8 1709.22,4 -4,4"/>
<!-- file_info -->
<g id="node1" class="node">
<title>file_info</title>
<polygon fill="#efefef" stroke="none" points="722.42,-261.8 722.42,-297.4 925.49,-297.4 925.49,-261.8 722.42,-261.8"/>
<polygon fill="none" stroke="black" points="722.42,-261.8 722.42,-297.4 925.49,-297.4 925.49,-261.8 722.42,-261.8"/>
<text text-anchor="start" x="758.34" y="-275.2" font-family="Arial Bold" font-size="18.00">file_info</text>
<text text-anchor="start" x="820.32" y="-275.2" font-family="Arial" font-size="14.00">    </text>
<text text-anchor="start" x="851.44" y="-275.2" font-family="Arial" font-size="14.00" fill="#666666">[table]</text>
<polygon fill="none" stroke="black" points="722.42,-231 722.42,-261.8 925.49,-261.8 925.49,-231 722.42,-231"/>
<text text-anchor="start" x="729.42" y="-243.2" font-family="Arial" font-size="14.00">id </text>
<text text-anchor="start" x="744.2" y="-243.2" font-family="Arial" font-size="14.00" fill="#666666">[INTEGER]</text>
<polygon fill="none" stroke="black" points="722.42,-200.2 722.42,-231 925.49,-231 925.49,-200.2 722.42,-200.2"/>
<text text-anchor="start" x="729.42" y="-212.4" font-family="Arial" font-size="14.00">sha1_checksum </text>
<text text-anchor="start" x="834.47" y="-212.4" font-family="Arial" font-size="14.00" fill="#666666">[BLOB]</text>
<polygon fill="none" stroke="black" points="722.42,-169.4 722.42,-200.2 925.49,-200.2 925.49,-169.4 722.42,-169.4"/>
<text text-anchor="start" x="729.42" y="-181.6" font-family="Arial" font-size="14.00">file_size </text>
<text text-anchor="start" x="783.89" y="-181.6" font-family="Arial" font-size="14.00" fill="#666666">[INTEGER]</text>
<polygon fill="none" stroke="black" points="722.42,-138.6 722.42,-169.4 925.49,-169.4 925.49,-138.6 722.42,-138.6"/>
<text text-anchor="start" x="729.42" y="-150.8" font-family="Arial" font-size="14.00">archive_file_name </text>
<text text-anchor="start" x="846.93" y="-150.8" font-family="Arial" font-size="14.00" fill="#666666">[TEXT]</text>
<polygon fill="none" stroke="black" points="722.42,-107.8 722.42,-138.6 925.49,-138.6 925.49,-107.8 722.42,-107.8"/>
<text text-anchor="start" x="729.42" y="-120" font-family="Arial" font-size="14.00">file_type </text>
<text text-anchor="start" x="785.45" y="-120" font-family="Arial" font-size="14.00" fill="#666666">[INTEGER]</text>
<polygon fill="none" stroke="black" points="722.42,-77 722.42,-107.8 925.49,-107.8 925.49,-77 722.42,-77"/>
<text text-anchor="start" x="729.42" y="-89.2" font-family="Arial" font-size="14.00">is_available </text>
<text text-anchor="start" x="806.47" y="-89.2" font-family="Arial" font-size="14.00" fill="#666666">[INTEGER]</text>
<polygon fill="none" stroke="black" points="722.42,-46.2 722.42,-77 925.49,-77 925.49,-46.2 722.42,-46.2"/>
<text text-anchor="start" x="729.42" y="-58.4" font-family="Arial" font-size="14.00">cloud_sync_status </text>
<text text-anchor="start" x="848.49" y="-58.4" font-family="Arial" font-size="14.00" fill="#666666">[INTEGER]</text>
<polygon fill="none" stroke="black" stroke-width="3" points="720.92,-44.7 720.92,-298.9 926.99,-298.9 926.99,-44.7 720.92,-44.7"/>
</g>
<!-- file_info_system -->
<g id="node2" class="node">
<title>file_info_system</title>
<polygon fill="#efefef" stroke="none" points="567.84,-515.2 567.84,-550.8 772.07,-550.8 772.07,-515.2 567.84,-515.2"/>
<polygon fill="none" stroke="black" points="567.84,-515.2 567.84,-550.8 772.07,-550.8 772.07,-515.2 567.84,-515.2"/>
<text text-anchor="start" x="574.84" y="-528.6" font-family="Arial Bold" font-size="18.00">file_info_system</text>
<text text-anchor="start" x="695.82" y="-528.6" font-family="Arial" font-size="14.00">    </text>
<text text-anchor="start" x="726.94" y="-528.6" font-family="Arial" font-size="14.00" fill="#666666">[table]</text>
<polygon fill="none" stroke="black" points="567.84,-484.4 567.84,-515.2 772.07,-515.2 772.07,-484.4 567.84,-484.4"/>
<text text-anchor="start" x="574.84" y="-496.6" font-family="Arial" font-size="14.00">file_info_id </text>
<text text-anchor="start" x="645.66" y="-496.6" font-family="Arial" font-size="14.00" fill="#666666">[INTEGER]</text>
<polygon fill="none" stroke="black" points="567.84,-453.6 567.84,-484.4 772.07,-484.4 772.07,-453.6 567.84,-453.6"/>
<text text-anchor="start" x="574.84" y="-465.8" font-family="Arial" font-size="14.00">system_id </text>
<text text-anchor="start" x="641.75" y="-465.8" font-family="Arial" font-size="14.00" fill="#666666">[INTEGER]</text>
</g>
<!-- file_info_system&#45;&gt;file_info -->
<g id="edge1" class="edge">
<title>file_info_system:file_info_id&#45;&gt;file_info:id</title>
<path fill="none" stroke="black" d="M783.17,-498.27C807.27,-489.43 783.48,-444.23 772.07,-410.4 760.25,-375.35 734.22,-378.66 722.42,-343.6 708.63,-302.66 678.22,-246.4 721.42,-246.4"/>
<polygon fill="black" stroke="black" points="783.29,-498.25 772.73,-495.3 778.02,-499.05 773.73,-499.7 773.73,-499.7 773.73,-499.7 778.02,-499.05 774.08,-504.2 783.29,-498.25"/>
<text text-anchor="start" x="214.85" y="-509.8" font-family="Arial" font-size="10.00">FOREIGN KEY (file_info_id) REFERENCES file_info (id) ON UPDATE NO ACTION ON DELETE CASCADE MATCH NONE</text>
</g>
<!-- system -->
<g id="node3" class="node">
<title>system</title>
<polygon fill="#efefef" stroke="none" points="481.33,-184.8 481.33,-220.4 614.58,-220.4 614.58,-184.8 481.33,-184.8"/>
<polygon fill="none" stroke="black" points="481.33,-184.8 481.33,-220.4 614.58,-220.4 614.58,-184.8 481.33,-184.8"/>
<text text-anchor="start" x="488.33" y="-198.2" font-family="Arial Bold" font-size="18.00">system</text>
<text text-anchor="start" x="538.33" y="-198.2" font-family="Arial" font-size="14.00">    </text>
<text text-anchor="start" x="569.45" y="-198.2" font-family="Arial" font-size="14.00" fill="#666666">[table]</text>
<polygon fill="none" stroke="black" points="481.33,-154 481.33,-184.8 614.58,-184.8 614.58,-154 481.33,-154"/>
<text text-anchor="start" x="488.33" y="-166.2" font-family="Arial" font-size="14.00">id </text>
<text text-anchor="start" x="503.11" y="-166.2" font-family="Arial" font-size="14.00" fill="#666666">[INTEGER]</text>
<polygon fill="none" stroke="black" points="481.33,-123.2 481.33,-154 614.58,-154 614.58,-123.2 481.33,-123.2"/>
<text text-anchor="start" x="488.33" y="-135.4" font-family="Arial" font-size="14.00">name </text>
<text text-anchor="start" x="527.24" y="-135.4" font-family="Arial" font-size="14.00" fill="#666666">[TEXT]</text>
</g>
<!-- file_info_system&#45;&gt;system -->
<g id="edge2" class="edge">
<title>file_info_system:system_id&#45;&gt;system:id</title>
<path fill="none" stroke="black" d="M556.45,-468.29C449.61,-452.27 746.67,-169.4 615.58,-169.4"/>
<polygon fill="black" stroke="black" points="556.53,-468.3 566.2,-473.47 561.85,-468.66 566.17,-468.95 566.17,-468.95 566.17,-468.95 561.85,-468.66 566.81,-464.49 556.53,-468.3"/>
<text text-anchor="start" x="7" y="-479" font-family="Arial" font-size="10.00">FOREIGN KEY (system_id) REFERENCES system (id) ON UPDATE NO ACTION ON DELETE NO ACTION MATCH NONE</text>
</g>
<!-- file_set_file_info -->
<g id="node4" class="node">
<title>file_set_file_info</title>
<polygon fill="#efefef" stroke="none" points="937.35,-546 937.35,-581.6 1144.56,-581.6 1144.56,-546 937.35,-546"/>
<polygon fill="none" stroke="black" points="937.35,-546 937.35,-581.6 1144.56,-581.6 1144.56,-546 937.35,-546"/>
<text text-anchor="start" x="944.35" y="-559.4" font-family="Arial Bold" font-size="18.00">file_set_file_info</text>
<text text-anchor="start" x="1068.31" y="-559.4" font-family="Arial" font-size="14.00">    </text>
<text text-anchor="start" x="1099.43" y="-559.4" font-family="Arial" font-size="14.00" fill="#666666">[table]</text>
<polygon fill="none" stroke="black" points="937.35,-515.2 937.35,-546 1144.56,-546 1144.56,-515.2 937.35,-515.2"/>
<text text-anchor="start" x="944.35" y="-527.4" font-family="Arial" font-size="14.00">file_set_id </text>
<text text-anchor="start" x="1011.28" y="-527.4" font-family="Arial" font-size="14.00" fill="#666666">[INTEGER]</text>
<polygon fill="none" stroke="black" points="937.35,-484.4 937.35,-515.2 1144.56,-515.2 1144.56,-484.4 937.35,-484.4"/>
<text text-anchor="start" x="944.35" y="-496.6" font-family="Arial" font-size="14.00">file_info_id </text>
<text text-anchor="start" x="1015.17" y="-496.6" font-family="Arial" font-size="14.00" fill="#666666">[INTEGER]</text>
<polygon fill="none" stroke="black" points="937.35,-453.6 937.35,-484.4 1144.56,-484.4 1144.56,-453.6 937.35,-453.6"/>
<text text-anchor="start" x="944.35" y="-465.8" font-family="Arial" font-size="14.00">file_name </text>
<text text-anchor="start" x="1008.94" y="-465.8" font-family="Arial" font-size="14.00" fill="#666666">[TEXT]</text>
<polygon fill="none" stroke="black" points="937.35,-422.8 937.35,-453.6 1144.56,-453.6 1144.56,-422.8 937.35,-422.8"/>
<text text-anchor="start" x="944.35" y="-435" font-family="Arial" font-size="14.00">sort_order </text>
<text text-anchor="start" x="1012.04" y="-435" font-family="Arial" font-size="14.00" fill="#666666">[INTEGER]</text>
</g>
<!-- file_set_file_info&#45;&gt;file_info -->
<g id="edge3" class="edge">
<title>file_set_file_info:file_info_id&#45;&gt;file_info:id</title>
<path fill="none" stroke="black" d="M926.18,-498.98C837.59,-483.25 1035.46,-246.4 926.49,-246.4"/>
<polygon fill="black" stroke="black" points="926.05,-498.97 935.65,-504.26 931.36,-499.4 935.68,-499.75 935.68,-499.75 935.68,-499.75 931.36,-499.4 936.38,-495.29 926.05,-498.97"/>
<text text-anchor="start" x="943.35" y="-509.8" font-family="Arial" font-size="10.00">FOREIGN KEY (file_info_id) REFERENCES file_info (id) ON UPDATE NO ACTION ON DELETE CASCADE MATCH NONE</text>
</g>
<!-- file_set -->
<g id="node5" class="node">
<title>file_set</title>
<polygon fill="#efefef" stroke="none" points="1032.93,-231 1032.93,-266.6 1172.98,-266.6 1172.98,-231 1032.93,-231"/>
<polygon fill="none" stroke="black" points="1032.93,-231 1032.93,-266.6 1172.98,-266.6 1172.98,-231 1032.93,-231"/>
<text text-anchor="start" x="1041.84" y="-244.4" font-family="Arial Bold" font-size="18.00">file_set</text>
<text text-anchor="start" x="1094.82" y="-244.4" font-family="Arial" font-size="14.00">    </text>
<text text-anchor="start" x="1125.94" y="-244.4" font-family="Arial" font-size="14.00" fill="#666666">[table]</text>
<polygon fill="none" stroke="black" points="1032.93,-200.2 1032.93,-231 1172.98,-231 1172.98,-200.2 1032.93,-200.2"/>
<text text-anchor="start" x="1039.93" y="-212.4" font-family="Arial" font-size="14.00">id </text>
<text text-anchor="start" x="1054.72" y="-212.4" font-family="Arial" font-size="14.00" fill="#666666">[INTEGER]</text>
<polygon fill="none" stroke="black" points="1032.93,-169.4 1032.93,-200.2 1172.98,-200.2 1172.98,-169.4 1032.93,-169.4"/>
<text text-anchor="start" x="1039.93" y="-181.6" font-family="Arial" font-size="14.00">file_name </text>
<text text-anchor="start" x="1104.53" y="-181.6" font-family="Arial" font-size="14.00" fill="#666666">[TEXT]</text>
<polygon fill="none" stroke="black" points="1032.93,-138.6 1032.93,-169.4 1172.98,-169.4 1172.98,-138.6 1032.93,-138.6"/>
<text text-anchor="start" x="1039.93" y="-150.8" font-family="Arial" font-size="14.00">file_type </text>
<text text-anchor="start" x="1095.97" y="-150.8" font-family="Arial" font-size="14.00" fill="#666666">[INTEGER]</text>
<polygon fill="none" stroke="black" points="1032.93,-107.8 1032.93,-138.6 1172.98,-138.6 1172.98,-107.8 1032.93,-107.8"/>
<text text-anchor="start" x="1039.93" y="-120" font-family="Arial" font-size="14.00">name </text>
<text text-anchor="start" x="1078.84" y="-120" font-family="Arial" font-size="14.00" fill="#666666">[TEXT]</text>
<polygon fill="none" stroke="black" points="1032.93,-77 1032.93,-107.8 1172.98,-107.8 1172.98,-77 1032.93,-77"/>
<text text-anchor="start" x="1039.93" y="-89.2" font-family="Arial" font-size="14.00">source </text>
<text text-anchor="start" x="1085.84" y="-89.2" font-family="Arial" font-size="14.00" fill="#666666">[TEXT]</text>
</g>
<!-- file_set_file_info&#45;&gt;file_set -->
<g id="edge4" class="edge">
<title>file_set_file_info:file_set_id&#45;&gt;file_set:id</title>
<path fill="none" stroke="black" d="M1155.67,-529.79C1208.81,-520.59 1175.5,-434.99 1144.56,-379.6 1116.03,-328.51 1061.57,-360.83 1032.93,-309.8 1012.45,-273.29 990.07,-215.6 1031.93,-215.6"/>
<polygon fill="black" stroke="black" points="1155.86,-529.78 1145.54,-526.09 1150.55,-530.2 1146.23,-530.55 1146.23,-530.55 1146.23,-530.55 1150.55,-530.2 1146.26,-535.06 1155.86,-529.78"/>
<text text-anchor="start" x="1152.56" y="-540.6" font-family="Arial" font-size="10.00">FOREIGN KEY (file_set_id) REFERENCES file_set (id) ON UPDATE NO ACTION ON DELETE CASCADE MATCH NONE</text>
</g>
</g>
</svg>
