<?xml version="1.0" encoding="UTF-8" standalone="no"?>
<!DOCTYPE svg PUBLIC "-//W3C//DTD SVG 1.1//EN"
 "http://www.w3.org/Graphics/SVG/1.1/DTD/svg11.dtd">
<!-- Generated by graphviz version 12.1.2 (20240928.0832)
 -->
<!-- Title: file_set_item Pages: 1 -->
<svg width="1545pt" height="565pt"
 viewBox="0.00 0.00 1545.10 565.20" xmlns="http://www.w3.org/2000/svg" xmlns:xlink="http://www.w3.org/1999/xlink">
<g id="graph0" class="graph" transform="scale(1 1) rotate(0) translate(4 561.2)">
<title>file_set_item</title>
<polygon fill="white" stroke="none" points="-4,4 -4,-561.2 1541.1,-561.2 1541.1,4 -4,4"/>
<!-- file_set_item -->
<g id="node1" class="node">
<title>file_set_item</title>
<polygon fill="#efefef" stroke="none" points="381.43,-447.6 381.43,-483.2 558.65,-483.2 558.65,-447.6 381.43,-447.6"/>
<polygon fill="none" stroke="black" points="381.43,-447.6 381.43,-483.2 558.65,-483.2 558.65,-447.6 381.43,-447.6"/>
<text text-anchor="start" x="388.43" y="-461" font-family="Arial Bold" font-size="18.00">file_set_item</text>
<text text-anchor="start" x="482.4" y="-461" font-family="Arial" font-size="14.00">    </text>
<text text-anchor="start" x="513.52" y="-461" font-family="Arial" font-size="14.00" fill="#666666">[table]</text>
<polygon fill="none" stroke="black" points="381.43,-416.8 381.43,-447.6 558.65,-447.6 558.65,-416.8 381.43,-416.8"/>
<text text-anchor="start" x="388.43" y="-429" font-family="Arial" font-size="14.00">file_set_id </text>
<text text-anchor="start" x="455.36" y="-429" font-family="Arial" font-size="14.00" fill="#666666">[INTEGER]</text>
<polygon fill="none" stroke="black" points="381.43,-386 381.43,-416.8 558.65,-416.8 558.65,-386 381.43,-386"/>
<text text-anchor="start" x="388.43" y="-398.2" font-family="Arial" font-size="14.00">item_type </text>
<text text-anchor="start" x="453.01" y="-398.2" font-family="Arial" font-size="14.00" fill="#666666">[INTEGER]</text>
<polygon fill="none" stroke="black" stroke-width="3" points="379.93,-384.5 379.93,-484.7 560.15,-484.7 560.15,-384.5 379.93,-384.5"/>
</g>
<!-- file_set -->
<g id="node2" class="node">
<title>file_set</title>
<polygon fill="#efefef" stroke="none" points="700.02,-197.2 700.02,-232.8 840.06,-232.8 840.06,-197.2 700.02,-197.2"/>
<polygon fill="none" stroke="black" points="700.02,-197.2 700.02,-232.8 840.06,-232.8 840.06,-197.2 700.02,-197.2"/>
<text text-anchor="start" x="708.92" y="-210.6" font-family="Arial Bold" font-size="18.00">file_set</text>
<text text-anchor="start" x="761.9" y="-210.6" font-family="Arial" font-size="14.00">    </text>
<text text-anchor="start" x="793.02" y="-210.6" font-family="Arial" font-size="14.00" fill="#666666">[table]</text>
<polygon fill="none" stroke="black" points="700.02,-166.4 700.02,-197.2 840.06,-197.2 840.06,-166.4 700.02,-166.4"/>
<text text-anchor="start" x="707.02" y="-178.6" font-family="Arial" font-size="14.00">id </text>
<text text-anchor="start" x="721.81" y="-178.6" font-family="Arial" font-size="14.00" fill="#666666">[INTEGER]</text>
<polygon fill="none" stroke="black" points="700.02,-135.6 700.02,-166.4 840.06,-166.4 840.06,-135.6 700.02,-135.6"/>
<text text-anchor="start" x="707.02" y="-147.8" font-family="Arial" font-size="14.00">file_name </text>
<text text-anchor="start" x="771.61" y="-147.8" font-family="Arial" font-size="14.00" fill="#666666">[TEXT]</text>
<polygon fill="none" stroke="black" points="700.02,-104.8 700.02,-135.6 840.06,-135.6 840.06,-104.8 700.02,-104.8"/>
<text text-anchor="start" x="707.02" y="-117" font-family="Arial" font-size="14.00">file_type </text>
<text text-anchor="start" x="763.05" y="-117" font-family="Arial" font-size="14.00" fill="#666666">[INTEGER]</text>
<polygon fill="none" stroke="black" points="700.02,-74 700.02,-104.8 840.06,-104.8 840.06,-74 700.02,-74"/>
<text text-anchor="start" x="707.02" y="-86.2" font-family="Arial" font-size="14.00">name </text>
<text text-anchor="start" x="745.93" y="-86.2" font-family="Arial" font-size="14.00" fill="#666666">[TEXT]</text>
<polygon fill="none" stroke="black" points="700.02,-43.2 700.02,-74 840.06,-74 840.06,-43.2 700.02,-43.2"/>
<text text-anchor="start" x="707.02" y="-55.4" font-family="Arial" font-size="14.00">source </text>
<text text-anchor="start" x="752.93" y="-55.4" font-family="Arial" font-size="14.00" fill="#666666">[TEXT]</text>
</g>
<!-- file_set_item&#45;&gt;file_set -->
<g id="edge1" class="edge">
<title>file_set_item:file_set_id&#45;&gt;file_set:id</title>
<path fill="none" stroke="black" d="M569.9,-431.37C614.36,-423.41 587.66,-360.1 614.04,-312 647.27,-251.41 629.92,-181.8 699.02,-181.8"/>
<polygon fill="black" stroke="black" points="569.95,-431.36 559.62,-427.69 564.64,-431.79 560.32,-432.15 560.32,-432.15 560.32,-432.15 564.64,-431.79 560.35,-436.66 569.95,-431.36"/>
<text text-anchor="start" x="7" y="-442.2" font-family="Arial" font-size="10.00">FOREIGN KEY (file_set_id) REFERENCES file_set (id) ON UPDATE NO ACTION ON DELETE CASCADE MATCH NONE</text>
</g>
<!-- file_set_file_info -->
<g id="node3" class="node">
<title>file_set_file_info</title>
<polygon fill="#efefef" stroke="none" points="666.43,-478.4 666.43,-514 873.65,-514 873.65,-478.4 666.43,-478.4"/>
<polygon fill="none" stroke="black" points="666.43,-478.4 666.43,-514 873.65,-514 873.65,-478.4 666.43,-478.4"/>
<text text-anchor="start" x="673.43" y="-491.8" font-family="Arial Bold" font-size="18.00">file_set_file_info</text>
<text text-anchor="start" x="797.39" y="-491.8" font-family="Arial" font-size="14.00">    </text>
<text text-anchor="start" x="828.51" y="-491.8" font-family="Arial" font-size="14.00" fill="#666666">[table]</text>
<polygon fill="none" stroke="black" points="666.43,-447.6 666.43,-478.4 873.65,-478.4 873.65,-447.6 666.43,-447.6"/>
<text text-anchor="start" x="673.43" y="-459.8" font-family="Arial" font-size="14.00">file_set_id </text>
<text text-anchor="start" x="740.36" y="-459.8" font-family="Arial" font-size="14.00" fill="#666666">[INTEGER]</text>
<polygon fill="none" stroke="black" points="666.43,-416.8 666.43,-447.6 873.65,-447.6 873.65,-416.8 666.43,-416.8"/>
<text text-anchor="start" x="673.43" y="-429" font-family="Arial" font-size="14.00">file_info_id </text>
<text text-anchor="start" x="744.26" y="-429" font-family="Arial" font-size="14.00" fill="#666666">[INTEGER]</text>
<polygon fill="none" stroke="black" points="666.43,-386 666.43,-416.8 873.65,-416.8 873.65,-386 666.43,-386"/>
<text text-anchor="start" x="673.43" y="-398.2" font-family="Arial" font-size="14.00">file_name </text>
<text text-anchor="start" x="738.03" y="-398.2" font-family="Arial" font-size="14.00" fill="#666666">[TEXT]</text>
<polygon fill="none" stroke="black" points="666.43,-355.2 666.43,-386 873.65,-386 873.65,-355.2 666.43,-355.2"/>
<text text-anchor="start" x="673.43" y="-367.4" font-family="Arial" font-size="14.00">sort_order </text>
<text text-anchor="start" x="741.13" y="-367.4" font-family="Arial" font-size="14.00" fill="#666666">[INTEGER]</text>
</g>
<!-- file_set_file_info&#45;&gt;file_set -->
<g id="edge2" class="edge">
<title>file_set_file_info:file_set_id&#45;&gt;file_set:id</title>
<path fill="none" stroke="black" d="M884.43,-460.4C933.68,-432.05 900.43,-181.8 841.06,-181.8"/>
<polygon fill="black" stroke="black" points="884.63,-460.34 873.81,-458.57 879.48,-461.71 875.29,-462.83 875.29,-462.83 875.29,-462.83 879.48,-461.71 876.13,-467.26 884.63,-460.34"/>
<text text-anchor="start" x="881.65" y="-473" font-family="Arial" font-size="10.00">FOREIGN KEY (file_set_id) REFERENCES file_set (id) ON UPDATE NO ACTION ON DELETE NO ACTION MATCH NONE</text>
</g>
<!-- release_file_set -->
<g id="node4" class="node">
<title>release_file_set</title>
<polygon fill="#efefef" stroke="none" points="978.44,-447.6 978.44,-483.2 1173.64,-483.2 1173.64,-447.6 978.44,-447.6"/>
<polygon fill="none" stroke="black" points="978.44,-447.6 978.44,-483.2 1173.64,-483.2 1173.64,-447.6 978.44,-447.6"/>
<text text-anchor="start" x="985.44" y="-461" font-family="Arial Bold" font-size="18.00">release_file_set</text>
<text text-anchor="start" x="1097.38" y="-461" font-family="Arial" font-size="14.00">    </text>
<text text-anchor="start" x="1128.5" y="-461" font-family="Arial" font-size="14.00" fill="#666666">[table]</text>
<polygon fill="none" stroke="black" points="978.44,-416.8 978.44,-447.6 1173.64,-447.6 1173.64,-416.8 978.44,-416.8"/>
<text text-anchor="start" x="985.44" y="-429" font-family="Arial" font-size="14.00">release_id </text>
<text text-anchor="start" x="1053.93" y="-429" font-family="Arial" font-size="14.00" fill="#666666">[INTEGER]</text>
<polygon fill="none" stroke="black" points="978.44,-386 978.44,-416.8 1173.64,-416.8 1173.64,-386 978.44,-386"/>
<text text-anchor="start" x="985.44" y="-398.2" font-family="Arial" font-size="14.00">file_set_id </text>
<text text-anchor="start" x="1052.38" y="-398.2" font-family="Arial" font-size="14.00" fill="#666666">[INTEGER]</text>
</g>
<!-- release_file_set&#45;&gt;file_set -->
<g id="edge3" class="edge">
<title>release_file_set:file_set_id&#45;&gt;file_set:id</title>
<path fill="none" stroke="black" d="M967.4,-400.42C934.34,-393.22 948.03,-347.87 926.04,-312 889.92,-253.09 910.16,-181.8 841.06,-181.8"/>
<polygon fill="black" stroke="black" points="967.16,-400.39 976.67,-405.85 972.47,-400.91 976.78,-401.33 976.78,-401.33 976.78,-401.33 972.47,-400.91 977.55,-396.89 967.16,-400.39"/>
<text text-anchor="start" x="984.44" y="-411.4" font-family="Arial" font-size="10.00">FOREIGN KEY (file_set_id) REFERENCES file_set (id) ON UPDATE NO ACTION ON DELETE CASCADE MATCH NONE</text>
</g>
</g>
</svg>
