<?xml version="1.0" encoding="UTF-8" standalone="no"?>
<!DOCTYPE svg PUBLIC "-//W3C//DTD SVG 1.1//EN"
 "http://www.w3.org/Graphics/SVG/1.1/DTD/svg11.dtd">
<!-- Generated by graphviz version 12.1.2 (20240928.0832)
 -->
<!-- Title: file_set_file_info Pages: 1 -->
<svg width="2557pt" height="602pt"
 viewBox="0.00 0.00 2557.16 602.00" xmlns="http://www.w3.org/2000/svg" xmlns:xlink="http://www.w3.org/1999/xlink">
<g id="graph0" class="graph" transform="scale(1 1) rotate(0) translate(4 598)">
<title>file_set_file_info</title>
<polygon fill="white" stroke="none" points="-4,4 -4,-598 2553.16,-598 2553.16,4 -4,4"/>
<!-- file_set_file_info -->
<g id="node1" class="node">
<title>file_set_file_info</title>
<polygon fill="#efefef" stroke="none" points="1670.45,-512.2 1670.45,-547.8 1877.67,-547.8 1877.67,-512.2 1670.45,-512.2"/>
<polygon fill="none" stroke="black" points="1670.45,-512.2 1670.45,-547.8 1877.67,-547.8 1877.67,-512.2 1670.45,-512.2"/>
<text text-anchor="start" x="1677.45" y="-525.6" font-family="Arial Bold" font-size="18.00">file_set_file_info</text>
<text text-anchor="start" x="1801.41" y="-525.6" font-family="Arial" font-size="14.00">    </text>
<text text-anchor="start" x="1832.53" y="-525.6" font-family="Arial" font-size="14.00" fill="#666666">[table]</text>
<polygon fill="none" stroke="black" points="1670.45,-481.4 1670.45,-512.2 1877.67,-512.2 1877.67,-481.4 1670.45,-481.4"/>
<text text-anchor="start" x="1677.45" y="-493.6" font-family="Arial" font-size="14.00">file_set_id </text>
<text text-anchor="start" x="1744.38" y="-493.6" font-family="Arial" font-size="14.00" fill="#666666">[INTEGER]</text>
<polygon fill="none" stroke="black" points="1670.45,-450.6 1670.45,-481.4 1877.67,-481.4 1877.67,-450.6 1670.45,-450.6"/>
<text text-anchor="start" x="1677.45" y="-462.8" font-family="Arial" font-size="14.00">file_info_id </text>
<text text-anchor="start" x="1748.28" y="-462.8" font-family="Arial" font-size="14.00" fill="#666666">[INTEGER]</text>
<polygon fill="none" stroke="black" points="1670.45,-419.8 1670.45,-450.6 1877.67,-450.6 1877.67,-419.8 1670.45,-419.8"/>
<text text-anchor="start" x="1677.45" y="-432" font-family="Arial" font-size="14.00">file_name </text>
<text text-anchor="start" x="1742.04" y="-432" font-family="Arial" font-size="14.00" fill="#666666">[TEXT]</text>
<polygon fill="none" stroke="black" points="1670.45,-389 1670.45,-419.8 1877.67,-419.8 1877.67,-389 1670.45,-389"/>
<text text-anchor="start" x="1677.45" y="-401.2" font-family="Arial" font-size="14.00">sort_order </text>
<text text-anchor="start" x="1745.15" y="-401.2" font-family="Arial" font-size="14.00" fill="#666666">[INTEGER]</text>
<polygon fill="none" stroke="black" stroke-width="3" points="1668.95,-387.5 1668.95,-549.3 1879.17,-549.3 1879.17,-387.5 1668.95,-387.5"/>
</g>
<!-- file_set -->
<g id="node2" class="node">
<title>file_set</title>
<polygon fill="#efefef" stroke="none" points="1042.04,-212.6 1042.04,-248.2 1182.08,-248.2 1182.08,-212.6 1042.04,-212.6"/>
<polygon fill="none" stroke="black" points="1042.04,-212.6 1042.04,-248.2 1182.08,-248.2 1182.08,-212.6 1042.04,-212.6"/>
<text text-anchor="start" x="1050.94" y="-226" font-family="Arial Bold" font-size="18.00">file_set</text>
<text text-anchor="start" x="1103.92" y="-226" font-family="Arial" font-size="14.00">    </text>
<text text-anchor="start" x="1135.04" y="-226" font-family="Arial" font-size="14.00" fill="#666666">[table]</text>
<polygon fill="none" stroke="black" points="1042.04,-181.8 1042.04,-212.6 1182.08,-212.6 1182.08,-181.8 1042.04,-181.8"/>
<text text-anchor="start" x="1049.04" y="-194" font-family="Arial" font-size="14.00">id </text>
<text text-anchor="start" x="1063.82" y="-194" font-family="Arial" font-size="14.00" fill="#666666">[INTEGER]</text>
<polygon fill="none" stroke="black" points="1042.04,-151 1042.04,-181.8 1182.08,-181.8 1182.08,-151 1042.04,-151"/>
<text text-anchor="start" x="1049.04" y="-163.2" font-family="Arial" font-size="14.00">file_name </text>
<text text-anchor="start" x="1113.63" y="-163.2" font-family="Arial" font-size="14.00" fill="#666666">[TEXT]</text>
<polygon fill="none" stroke="black" points="1042.04,-120.2 1042.04,-151 1182.08,-151 1182.08,-120.2 1042.04,-120.2"/>
<text text-anchor="start" x="1049.04" y="-132.4" font-family="Arial" font-size="14.00">file_type </text>
<text text-anchor="start" x="1105.07" y="-132.4" font-family="Arial" font-size="14.00" fill="#666666">[INTEGER]</text>
<polygon fill="none" stroke="black" points="1042.04,-89.4 1042.04,-120.2 1182.08,-120.2 1182.08,-89.4 1042.04,-89.4"/>
<text text-anchor="start" x="1049.04" y="-101.6" font-family="Arial" font-size="14.00">name </text>
<text text-anchor="start" x="1087.95" y="-101.6" font-family="Arial" font-size="14.00" fill="#666666">[TEXT]</text>
<polygon fill="none" stroke="black" points="1042.04,-58.6 1042.04,-89.4 1182.08,-89.4 1182.08,-58.6 1042.04,-58.6"/>
<text text-anchor="start" x="1049.04" y="-70.8" font-family="Arial" font-size="14.00">source </text>
<text text-anchor="start" x="1094.95" y="-70.8" font-family="Arial" font-size="14.00" fill="#666666">[TEXT]</text>
</g>
<!-- file_set_file_info&#45;&gt;file_set -->
<g id="edge1" class="edge">
<title>file_set_file_info:file_set_id&#45;&gt;file_set:id</title>
<path fill="none" stroke="black" d="M1659.12,-495.96C1603.9,-486.08 1664.03,-391.07 1615.06,-342.8 1470.77,-200.57 1385.68,-197.2 1183.08,-197.2"/>
<polygon fill="black" stroke="black" points="1659.15,-495.97 1668.75,-501.26 1664.47,-496.4 1668.78,-496.75 1668.78,-496.75 1668.78,-496.75 1664.47,-496.4 1669.48,-492.29 1659.15,-495.97"/>
<text text-anchor="start" x="1676.45" y="-506.8" font-family="Arial" font-size="10.00">FOREIGN KEY (file_set_id) REFERENCES file_set (id) ON UPDATE NO ACTION ON DELETE CASCADE MATCH NONE</text>
</g>
<!-- file_info -->
<g id="node7" class="node">
<title>file_info</title>
<polygon fill="#efefef" stroke="none" points="1828.52,-228 1828.52,-263.6 2031.6,-263.6 2031.6,-228 1828.52,-228"/>
<polygon fill="none" stroke="black" points="1828.52,-228 1828.52,-263.6 2031.6,-263.6 2031.6,-228 1828.52,-228"/>
<text text-anchor="start" x="1864.44" y="-241.4" font-family="Arial Bold" font-size="18.00">file_info</text>
<text text-anchor="start" x="1926.42" y="-241.4" font-family="Arial" font-size="14.00">    </text>
<text text-anchor="start" x="1957.54" y="-241.4" font-family="Arial" font-size="14.00" fill="#666666">[table]</text>
<polygon fill="none" stroke="black" points="1828.52,-197.2 1828.52,-228 2031.6,-228 2031.6,-197.2 1828.52,-197.2"/>
<text text-anchor="start" x="1835.52" y="-209.4" font-family="Arial" font-size="14.00">id </text>
<text text-anchor="start" x="1850.31" y="-209.4" font-family="Arial" font-size="14.00" fill="#666666">[INTEGER]</text>
<polygon fill="none" stroke="black" points="1828.52,-166.4 1828.52,-197.2 2031.6,-197.2 2031.6,-166.4 1828.52,-166.4"/>
<text text-anchor="start" x="1835.52" y="-178.6" font-family="Arial" font-size="14.00">sha1_checksum </text>
<text text-anchor="start" x="1940.58" y="-178.6" font-family="Arial" font-size="14.00" fill="#666666">[BLOB]</text>
<polygon fill="none" stroke="black" points="1828.52,-135.6 1828.52,-166.4 2031.6,-166.4 2031.6,-135.6 1828.52,-135.6"/>
<text text-anchor="start" x="1835.52" y="-147.8" font-family="Arial" font-size="14.00">file_size </text>
<text text-anchor="start" x="1889.99" y="-147.8" font-family="Arial" font-size="14.00" fill="#666666">[INTEGER]</text>
<polygon fill="none" stroke="black" points="1828.52,-104.8 1828.52,-135.6 2031.6,-135.6 2031.6,-104.8 1828.52,-104.8"/>
<text text-anchor="start" x="1835.52" y="-117" font-family="Arial" font-size="14.00">archive_file_name </text>
<text text-anchor="start" x="1953.03" y="-117" font-family="Arial" font-size="14.00" fill="#666666">[TEXT]</text>
<polygon fill="none" stroke="black" points="1828.52,-74 1828.52,-104.8 2031.6,-104.8 2031.6,-74 1828.52,-74"/>
<text text-anchor="start" x="1835.52" y="-86.2" font-family="Arial" font-size="14.00">file_type </text>
<text text-anchor="start" x="1891.55" y="-86.2" font-family="Arial" font-size="14.00" fill="#666666">[INTEGER]</text>
<polygon fill="none" stroke="black" points="1828.52,-43.2 1828.52,-74 2031.6,-74 2031.6,-43.2 1828.52,-43.2"/>
<text text-anchor="start" x="1835.52" y="-55.4" font-family="Arial" font-size="14.00">cloud_sync_status </text>
<text text-anchor="start" x="1954.59" y="-55.4" font-family="Arial" font-size="14.00" fill="#666666">[INTEGER]</text>
</g>
<!-- file_set_file_info&#45;&gt;file_info -->
<g id="edge6" class="edge">
<title>file_set_file_info:file_info_id&#45;&gt;file_info:id</title>
<path fill="none" stroke="black" d="M1888.98,-464.93C1929.12,-455.66 1900.87,-388.11 1877.67,-342.8 1865.32,-318.7 1840.89,-330.88 1828.52,-306.8 1809.39,-269.56 1785.65,-212.6 1827.52,-212.6"/>
<polygon fill="black" stroke="black" points="1888.95,-464.93 1878.53,-461.49 1883.64,-465.48 1879.33,-465.93 1879.33,-465.93 1879.33,-465.93 1883.64,-465.48 1879.46,-470.44 1888.95,-464.93"/>
<text text-anchor="start" x="1885.67" y="-476" font-family="Arial" font-size="10.00">FOREIGN KEY (file_info_id) REFERENCES file_info (id) ON UPDATE NO ACTION ON DELETE CASCADE MATCH NONE</text>
</g>
<!-- release_file_set -->
<g id="node3" class="node">
<title>release_file_set</title>
<polygon fill="#efefef" stroke="none" points="363.46,-481.4 363.46,-517 558.65,-517 558.65,-481.4 363.46,-481.4"/>
<polygon fill="none" stroke="black" points="363.46,-481.4 363.46,-517 558.65,-517 558.65,-481.4 363.46,-481.4"/>
<text text-anchor="start" x="370.46" y="-494.8" font-family="Arial Bold" font-size="18.00">release_file_set</text>
<text text-anchor="start" x="482.4" y="-494.8" font-family="Arial" font-size="14.00">    </text>
<text text-anchor="start" x="513.52" y="-494.8" font-family="Arial" font-size="14.00" fill="#666666">[table]</text>
<polygon fill="none" stroke="black" points="363.46,-450.6 363.46,-481.4 558.65,-481.4 558.65,-450.6 363.46,-450.6"/>
<text text-anchor="start" x="370.46" y="-462.8" font-family="Arial" font-size="14.00">release_id </text>
<text text-anchor="start" x="438.95" y="-462.8" font-family="Arial" font-size="14.00" fill="#666666">[INTEGER]</text>
<polygon fill="none" stroke="black" points="363.46,-419.8 363.46,-450.6 558.65,-450.6 558.65,-419.8 363.46,-419.8"/>
<text text-anchor="start" x="370.46" y="-432" font-family="Arial" font-size="14.00">file_set_id </text>
<text text-anchor="start" x="437.39" y="-432" font-family="Arial" font-size="14.00" fill="#666666">[INTEGER]</text>
</g>
<!-- release_file_set&#45;&gt;file_set -->
<g id="edge2" class="edge">
<title>release_file_set:file_set_id&#45;&gt;file_set:id</title>
<path fill="none" stroke="black" d="M569.71,-433.99C601.91,-425.19 577.92,-370.42 611.06,-342.8 766.05,-213.62 839.28,-197.2 1041.04,-197.2"/>
<polygon fill="black" stroke="black" points="569.92,-433.97 559.45,-430.69 564.62,-434.6 560.32,-435.12 560.32,-435.12 560.32,-435.12 564.62,-434.6 560.52,-439.63 569.92,-433.97"/>
<text text-anchor="start" x="7" y="-445.2" font-family="Arial" font-size="10.00">FOREIGN KEY (file_set_id) REFERENCES file_set (id) ON UPDATE NO ACTION ON DELETE CASCADE MATCH NONE</text>
</g>
<!-- release_item_file_set -->
<g id="node4" class="node">
<title>release_item_file_set</title>
<polygon fill="#efefef" stroke="none" points="662.97,-481.4 662.97,-517 899.15,-517 899.15,-481.4 662.97,-481.4"/>
<polygon fill="none" stroke="black" points="662.97,-481.4 662.97,-517 899.15,-517 899.15,-481.4 662.97,-481.4"/>
<text text-anchor="start" x="669.97" y="-494.8" font-family="Arial Bold" font-size="18.00">release_item_file_set</text>
<text text-anchor="start" x="822.9" y="-494.8" font-family="Arial" font-size="14.00">    </text>
<text text-anchor="start" x="854.01" y="-494.8" font-family="Arial" font-size="14.00" fill="#666666">[table]</text>
<polygon fill="none" stroke="black" points="662.97,-450.6 662.97,-481.4 899.15,-481.4 899.15,-450.6 662.97,-450.6"/>
<text text-anchor="start" x="669.97" y="-462.8" font-family="Arial" font-size="14.00">release_item_id </text>
<text text-anchor="start" x="772.69" y="-462.8" font-family="Arial" font-size="14.00" fill="#666666">[INTEGER]</text>
<polygon fill="none" stroke="black" points="662.97,-419.8 662.97,-450.6 899.15,-450.6 899.15,-419.8 662.97,-419.8"/>
<text text-anchor="start" x="669.97" y="-432" font-family="Arial" font-size="14.00">file_set_id </text>
<text text-anchor="start" x="736.9" y="-432" font-family="Arial" font-size="14.00" fill="#666666">[INTEGER]</text>
</g>
<!-- release_item_file_set&#45;&gt;file_set -->
<g id="edge3" class="edge">
<title>release_item_file_set:file_set_id&#45;&gt;file_set:id</title>
<path fill="none" stroke="black" d="M910.41,-434.19C944.11,-426.76 929.35,-379.97 951.06,-342.8 989.42,-277.11 964.97,-197.2 1041.04,-197.2"/>
<polygon fill="black" stroke="black" points="910.43,-434.18 900.04,-430.69 905.13,-434.71 900.82,-435.13 900.82,-435.13 900.82,-435.13 905.13,-434.71 900.93,-439.65 910.43,-434.18"/>
<text text-anchor="start" x="347.5" y="-419.2" font-family="Arial" font-size="10.00">FOREIGN KEY (file_set_id) REFERENCES file_set (id) ON UPDATE NO ACTION ON DELETE CASCADE MATCH NONE</text>
</g>
<!-- file_set_item_type -->
<g id="node5" class="node">
<title>file_set_item_type</title>
<polygon fill="#efefef" stroke="none" points="1003.45,-481.4 1003.45,-517 1220.67,-517 1220.67,-481.4 1003.45,-481.4"/>
<polygon fill="none" stroke="black" points="1003.45,-481.4 1003.45,-517 1220.67,-517 1220.67,-481.4 1003.45,-481.4"/>
<text text-anchor="start" x="1010.45" y="-494.8" font-family="Arial Bold" font-size="18.00">file_set_item_type</text>
<text text-anchor="start" x="1144.41" y="-494.8" font-family="Arial" font-size="14.00">    </text>
<text text-anchor="start" x="1175.53" y="-494.8" font-family="Arial" font-size="14.00" fill="#666666">[table]</text>
<polygon fill="none" stroke="black" points="1003.45,-450.6 1003.45,-481.4 1220.67,-481.4 1220.67,-450.6 1003.45,-450.6"/>
<text text-anchor="start" x="1010.45" y="-462.8" font-family="Arial" font-size="14.00">file_set_id </text>
<text text-anchor="start" x="1077.38" y="-462.8" font-family="Arial" font-size="14.00" fill="#666666">[INTEGER]</text>
<polygon fill="none" stroke="black" points="1003.45,-419.8 1003.45,-450.6 1220.67,-450.6 1220.67,-419.8 1003.45,-419.8"/>
<text text-anchor="start" x="1010.45" y="-432" font-family="Arial" font-size="14.00">item_type </text>
<text text-anchor="start" x="1075.04" y="-432" font-family="Arial" font-size="14.00" fill="#666666">[INTEGER]</text>
</g>
<!-- file_set_item_type&#45;&gt;file_set -->
<g id="edge4" class="edge">
<title>file_set_item_type:file_set_id&#45;&gt;file_set:id</title>
<path fill="none" stroke="black" d="M1231.56,-463.16C1277.26,-434.44 1239.77,-197.2 1183.08,-197.2"/>
<polygon fill="black" stroke="black" points="1231.6,-463.15 1220.75,-461.58 1226.47,-464.62 1222.31,-465.82 1222.31,-465.82 1222.31,-465.82 1226.47,-464.62 1223.23,-470.23 1231.6,-463.15"/>
<text text-anchor="start" x="669.01" y="-476" font-family="Arial" font-size="10.00">FOREIGN KEY (file_set_id) REFERENCES file_set (id) ON UPDATE NO ACTION ON DELETE CASCADE MATCH NONE</text>
</g>
<!-- file_set_dat_file_link -->
<g id="node6" class="node">
<title>file_set_dat_file_link</title>
<polygon fill="#efefef" stroke="none" points="1325.45,-481.4 1325.45,-517 1562.66,-517 1562.66,-481.4 1325.45,-481.4"/>
<polygon fill="none" stroke="black" points="1325.45,-481.4 1325.45,-517 1562.66,-517 1562.66,-481.4 1325.45,-481.4"/>
<text text-anchor="start" x="1332.45" y="-494.8" font-family="Arial Bold" font-size="18.00">file_set_dat_file_link</text>
<text text-anchor="start" x="1486.41" y="-494.8" font-family="Arial" font-size="14.00">    </text>
<text text-anchor="start" x="1517.53" y="-494.8" font-family="Arial" font-size="14.00" fill="#666666">[table]</text>
<polygon fill="none" stroke="black" points="1325.45,-450.6 1325.45,-481.4 1562.66,-481.4 1562.66,-450.6 1325.45,-450.6"/>
<text text-anchor="start" x="1332.45" y="-462.8" font-family="Arial" font-size="14.00">file_set_id </text>
<text text-anchor="start" x="1399.38" y="-462.8" font-family="Arial" font-size="14.00" fill="#666666">[INTEGER]</text>
<polygon fill="none" stroke="black" points="1325.45,-419.8 1325.45,-450.6 1562.66,-450.6 1562.66,-419.8 1325.45,-419.8"/>
<text text-anchor="start" x="1332.45" y="-432" font-family="Arial" font-size="14.00">dat_file_id </text>
<text text-anchor="start" x="1400.17" y="-432" font-family="Arial" font-size="14.00" fill="#666666">[INTEGER]</text>
</g>
<!-- file_set_dat_file_link&#45;&gt;file_set -->
<g id="edge5" class="edge">
<title>file_set_dat_file_link:file_set_id&#45;&gt;file_set:id</title>
<path fill="none" stroke="black" d="M1314.11,-465.15C1269.38,-457 1298.41,-392.18 1273.06,-342.8 1238.31,-275.13 1259.15,-197.2 1183.08,-197.2"/>
<polygon fill="black" stroke="black" points="1314.15,-465.15 1323.75,-470.46 1319.47,-465.59 1323.78,-465.94 1323.78,-465.94 1323.78,-465.94 1319.47,-465.59 1324.49,-461.49 1314.15,-465.15"/>
<text text-anchor="start" x="771.8" y="-450" font-family="Arial" font-size="10.00">FOREIGN KEY (file_set_id) REFERENCES file_set (id) ON UPDATE NO ACTION ON DELETE CASCADE MATCH NONE</text>
</g>
<!-- file_info_system -->
<g id="node8" class="node">
<title>file_info_system</title>
<polygon fill="#efefef" stroke="none" points="1984.94,-481.4 1984.94,-517 2189.18,-517 2189.18,-481.4 1984.94,-481.4"/>
<polygon fill="none" stroke="black" points="1984.94,-481.4 1984.94,-517 2189.18,-517 2189.18,-481.4 1984.94,-481.4"/>
<text text-anchor="start" x="1991.94" y="-494.8" font-family="Arial Bold" font-size="18.00">file_info_system</text>
<text text-anchor="start" x="2112.92" y="-494.8" font-family="Arial" font-size="14.00">    </text>
<text text-anchor="start" x="2144.04" y="-494.8" font-family="Arial" font-size="14.00" fill="#666666">[table]</text>
<polygon fill="none" stroke="black" points="1984.94,-450.6 1984.94,-481.4 2189.18,-481.4 2189.18,-450.6 1984.94,-450.6"/>
<text text-anchor="start" x="1991.94" y="-462.8" font-family="Arial" font-size="14.00">file_info_id </text>
<text text-anchor="start" x="2062.77" y="-462.8" font-family="Arial" font-size="14.00" fill="#666666">[INTEGER]</text>
<polygon fill="none" stroke="black" points="1984.94,-419.8 1984.94,-450.6 2189.18,-450.6 2189.18,-419.8 1984.94,-419.8"/>
<text text-anchor="start" x="1991.94" y="-432" font-family="Arial" font-size="14.00">system_id </text>
<text text-anchor="start" x="2058.85" y="-432" font-family="Arial" font-size="14.00" fill="#666666">[INTEGER]</text>
</g>
<!-- file_info_system&#45;&gt;file_info -->
<g id="edge7" class="edge">
<title>file_info_system:file_info_id&#45;&gt;file_info:id</title>
<path fill="none" stroke="black" d="M1973.87,-464.48C1949.91,-455.69 1974.38,-410.7 1984.94,-376.6 1995.97,-340.95 2020.57,-342.45 2031.6,-306.8 2043.97,-266.8 2074.46,-212.6 2032.6,-212.6"/>
<polygon fill="black" stroke="black" points="1973.72,-464.45 1982.94,-470.4 1979,-465.25 1983.28,-465.9 1983.28,-465.9 1983.28,-465.9 1979,-465.25 1984.28,-461.5 1973.72,-464.45"/>
<text text-anchor="start" x="1990.94" y="-450" font-family="Arial" font-size="10.00">FOREIGN KEY (file_info_id) REFERENCES file_info (id) ON UPDATE NO ACTION ON DELETE CASCADE MATCH NONE</text>
</g>
</g>
</svg>
