<?xml version="1.0" encoding="UTF-8" standalone="no"?>
<!DOCTYPE svg PUBLIC "-//W3C//DTD SVG 1.1//EN"
 "http://www.w3.org/Graphics/SVG/1.1/DTD/svg11.dtd">
<!-- Generated by graphviz version 12.1.2 (20240928.0832)
 -->
<!-- Title: file_set_file_info Pages: 1 -->
<svg width="1839pt" height="627pt"
 viewBox="0.00 0.00 1839.16 626.80" xmlns="http://www.w3.org/2000/svg" xmlns:xlink="http://www.w3.org/1999/xlink">
<g id="graph0" class="graph" transform="scale(1 1) rotate(0) translate(4 622.8)">
<title>file_set_file_info</title>
<polygon fill="white" stroke="none" points="-4,4 -4,-622.8 1835.16,-622.8 1835.16,4 -4,4"/>
<!-- file_set_file_info -->
<g id="node1" class="node">
<title>file_set_file_info</title>
<polygon fill="#efefef" stroke="none" points="666.45,-493.8 666.45,-529.4 873.67,-529.4 873.67,-493.8 666.45,-493.8"/>
<polygon fill="none" stroke="black" points="666.45,-493.8 666.45,-529.4 873.67,-529.4 873.67,-493.8 666.45,-493.8"/>
<text text-anchor="start" x="673.45" y="-507.2" font-family="Arial Bold" font-size="18.00">file_set_file_info</text>
<text text-anchor="start" x="797.41" y="-507.2" font-family="Arial" font-size="14.00">    </text>
<text text-anchor="start" x="828.53" y="-507.2" font-family="Arial" font-size="14.00" fill="#666666">[table]</text>
<polygon fill="none" stroke="black" points="666.45,-463 666.45,-493.8 873.67,-493.8 873.67,-463 666.45,-463"/>
<text text-anchor="start" x="673.45" y="-475.2" font-family="Arial" font-size="14.00">file_set_id </text>
<text text-anchor="start" x="740.38" y="-475.2" font-family="Arial" font-size="14.00" fill="#666666">[INTEGER]</text>
<polygon fill="none" stroke="black" points="666.45,-432.2 666.45,-463 873.67,-463 873.67,-432.2 666.45,-432.2"/>
<text text-anchor="start" x="673.45" y="-444.4" font-family="Arial" font-size="14.00">file_info_id </text>
<text text-anchor="start" x="744.28" y="-444.4" font-family="Arial" font-size="14.00" fill="#666666">[INTEGER]</text>
<polygon fill="none" stroke="black" points="666.45,-401.4 666.45,-432.2 873.67,-432.2 873.67,-401.4 666.45,-401.4"/>
<text text-anchor="start" x="673.45" y="-413.6" font-family="Arial" font-size="14.00">file_name </text>
<text text-anchor="start" x="738.04" y="-413.6" font-family="Arial" font-size="14.00" fill="#666666">[TEXT]</text>
<polygon fill="none" stroke="black" stroke-width="3" points="664.95,-399.9 664.95,-530.9 875.17,-530.9 875.17,-399.9 664.95,-399.9"/>
</g>
<!-- file_set -->
<g id="node2" class="node">
<title>file_set</title>
<polygon fill="#efefef" stroke="none" points="546.04,-197.2 546.04,-232.8 686.08,-232.8 686.08,-197.2 546.04,-197.2"/>
<polygon fill="none" stroke="black" points="546.04,-197.2 546.04,-232.8 686.08,-232.8 686.08,-197.2 546.04,-197.2"/>
<text text-anchor="start" x="554.94" y="-210.6" font-family="Arial Bold" font-size="18.00">file_set</text>
<text text-anchor="start" x="607.92" y="-210.6" font-family="Arial" font-size="14.00">    </text>
<text text-anchor="start" x="639.04" y="-210.6" font-family="Arial" font-size="14.00" fill="#666666">[table]</text>
<polygon fill="none" stroke="black" points="546.04,-166.4 546.04,-197.2 686.08,-197.2 686.08,-166.4 546.04,-166.4"/>
<text text-anchor="start" x="553.04" y="-178.6" font-family="Arial" font-size="14.00">id </text>
<text text-anchor="start" x="567.82" y="-178.6" font-family="Arial" font-size="14.00" fill="#666666">[INTEGER]</text>
<polygon fill="none" stroke="black" points="546.04,-135.6 546.04,-166.4 686.08,-166.4 686.08,-135.6 546.04,-135.6"/>
<text text-anchor="start" x="553.04" y="-147.8" font-family="Arial" font-size="14.00">file_name </text>
<text text-anchor="start" x="617.63" y="-147.8" font-family="Arial" font-size="14.00" fill="#666666">[TEXT]</text>
<polygon fill="none" stroke="black" points="546.04,-104.8 546.04,-135.6 686.08,-135.6 686.08,-104.8 546.04,-104.8"/>
<text text-anchor="start" x="553.04" y="-117" font-family="Arial" font-size="14.00">file_type </text>
<text text-anchor="start" x="609.07" y="-117" font-family="Arial" font-size="14.00" fill="#666666">[INTEGER]</text>
<polygon fill="none" stroke="black" points="546.04,-74 546.04,-104.8 686.08,-104.8 686.08,-74 546.04,-74"/>
<text text-anchor="start" x="553.04" y="-86.2" font-family="Arial" font-size="14.00">name </text>
<text text-anchor="start" x="591.95" y="-86.2" font-family="Arial" font-size="14.00" fill="#666666">[TEXT]</text>
<polygon fill="none" stroke="black" points="546.04,-43.2 546.04,-74 686.08,-74 686.08,-43.2 546.04,-43.2"/>
<text text-anchor="start" x="553.04" y="-55.4" font-family="Arial" font-size="14.00">source </text>
<text text-anchor="start" x="598.95" y="-55.4" font-family="Arial" font-size="14.00" fill="#666666">[TEXT]</text>
</g>
<!-- file_set_file_info&#45;&gt;file_set -->
<g id="edge1" class="edge">
<title>file_set_file_info:file_set_id&#45;&gt;file_set:id</title>
<path fill="none" stroke="black" d="M655.21,-477.7C549.14,-461.84 815.51,-181.8 687.08,-181.8"/>
<polygon fill="black" stroke="black" points="655.14,-477.7 664.81,-482.87 660.46,-478.06 664.78,-478.35 664.78,-478.35 664.78,-478.35 660.46,-478.06 665.42,-473.89 655.14,-477.7"/>
<text text-anchor="start" x="672.45" y="-488.4" font-family="Arial" font-size="10.00">FOREIGN KEY (file_set_id) REFERENCES file_set (id) ON UPDATE NO ACTION ON DELETE NO ACTION MATCH NONE</text>
</g>
<!-- file_info -->
<g id="node4" class="node">
<title>file_info</title>
<polygon fill="#efefef" stroke="none" points="984.52,-197.2 984.52,-232.8 1159.59,-232.8 1159.59,-197.2 984.52,-197.2"/>
<polygon fill="none" stroke="black" points="984.52,-197.2 984.52,-232.8 1159.59,-232.8 1159.59,-197.2 984.52,-197.2"/>
<text text-anchor="start" x="1006.44" y="-210.6" font-family="Arial Bold" font-size="18.00">file_info</text>
<text text-anchor="start" x="1068.42" y="-210.6" font-family="Arial" font-size="14.00">    </text>
<text text-anchor="start" x="1099.54" y="-210.6" font-family="Arial" font-size="14.00" fill="#666666">[table]</text>
<polygon fill="none" stroke="black" points="984.52,-166.4 984.52,-197.2 1159.59,-197.2 1159.59,-166.4 984.52,-166.4"/>
<text text-anchor="start" x="991.52" y="-178.6" font-family="Arial" font-size="14.00">id </text>
<text text-anchor="start" x="1006.31" y="-178.6" font-family="Arial" font-size="14.00" fill="#666666">[INTEGER]</text>
<polygon fill="none" stroke="black" points="984.52,-135.6 984.52,-166.4 1159.59,-166.4 1159.59,-135.6 984.52,-135.6"/>
<text text-anchor="start" x="991.52" y="-147.8" font-family="Arial" font-size="14.00">sha1_checksum </text>
<text text-anchor="start" x="1096.58" y="-147.8" font-family="Arial" font-size="14.00" fill="#666666">[BLOB]</text>
<polygon fill="none" stroke="black" points="984.52,-104.8 984.52,-135.6 1159.59,-135.6 1159.59,-104.8 984.52,-104.8"/>
<text text-anchor="start" x="991.52" y="-117" font-family="Arial" font-size="14.00">file_size </text>
<text text-anchor="start" x="1045.99" y="-117" font-family="Arial" font-size="14.00" fill="#666666">[INTEGER]</text>
<polygon fill="none" stroke="black" points="984.52,-74 984.52,-104.8 1159.59,-104.8 1159.59,-74 984.52,-74"/>
<text text-anchor="start" x="991.52" y="-86.2" font-family="Arial" font-size="14.00">archive_file_name </text>
<text text-anchor="start" x="1109.03" y="-86.2" font-family="Arial" font-size="14.00" fill="#666666">[TEXT]</text>
<polygon fill="none" stroke="black" points="984.52,-43.2 984.52,-74 1159.59,-74 1159.59,-43.2 984.52,-43.2"/>
<text text-anchor="start" x="991.52" y="-55.4" font-family="Arial" font-size="14.00">file_type </text>
<text text-anchor="start" x="1047.56" y="-55.4" font-family="Arial" font-size="14.00" fill="#666666">[INTEGER]</text>
</g>
<!-- file_set_file_info&#45;&gt;file_info -->
<g id="edge3" class="edge">
<title>file_set_file_info:file_info_id&#45;&gt;file_info:id</title>
<path fill="none" stroke="black" d="M884.77,-446.89C935.81,-439.1 905.83,-368.68 929.06,-312 952.84,-253.96 920.8,-181.8 983.52,-181.8"/>
<polygon fill="black" stroke="black" points="884.98,-446.87 874.68,-443.09 879.65,-447.25 875.33,-447.55 875.33,-447.55 875.33,-447.55 879.65,-447.25 875.32,-452.07 884.98,-446.87"/>
<text text-anchor="start" x="309.23" y="-457.6" font-family="Arial" font-size="10.00">FOREIGN KEY (file_info_id) REFERENCES file_info (id) ON UPDATE NO ACTION ON DELETE NO ACTION MATCH NONE</text>
</g>
<!-- release_file_set -->
<g id="node3" class="node">
<title>release_file_set</title>
<polygon fill="#efefef" stroke="none" points="363.46,-478.4 363.46,-514 558.65,-514 558.65,-478.4 363.46,-478.4"/>
<polygon fill="none" stroke="black" points="363.46,-478.4 363.46,-514 558.65,-514 558.65,-478.4 363.46,-478.4"/>
<text text-anchor="start" x="370.46" y="-491.8" font-family="Arial Bold" font-size="18.00">release_file_set</text>
<text text-anchor="start" x="482.4" y="-491.8" font-family="Arial" font-size="14.00">    </text>
<text text-anchor="start" x="513.52" y="-491.8" font-family="Arial" font-size="14.00" fill="#666666">[table]</text>
<polygon fill="none" stroke="black" points="363.46,-447.6 363.46,-478.4 558.65,-478.4 558.65,-447.6 363.46,-447.6"/>
<text text-anchor="start" x="370.46" y="-459.8" font-family="Arial" font-size="14.00">release_id </text>
<text text-anchor="start" x="438.95" y="-459.8" font-family="Arial" font-size="14.00" fill="#666666">[INTEGER]</text>
<polygon fill="none" stroke="black" points="363.46,-416.8 363.46,-447.6 558.65,-447.6 558.65,-416.8 363.46,-416.8"/>
<text text-anchor="start" x="370.46" y="-429" font-family="Arial" font-size="14.00">file_set_id </text>
<text text-anchor="start" x="437.39" y="-429" font-family="Arial" font-size="14.00" fill="#666666">[INTEGER]</text>
</g>
<!-- release_file_set&#45;&gt;file_set -->
<g id="edge2" class="edge">
<title>release_file_set:file_set_id&#45;&gt;file_set:id</title>
<path fill="none" stroke="black" d="M569.89,-431.34C655.3,-415.38 437.37,-181.8 545.04,-181.8"/>
<polygon fill="black" stroke="black" points="569.95,-431.34 559.61,-427.69 564.64,-431.78 560.32,-432.14 560.32,-432.14 560.32,-432.14 564.64,-431.78 560.36,-436.66 569.95,-431.34"/>
<text text-anchor="start" x="7" y="-416.2" font-family="Arial" font-size="10.00">FOREIGN KEY (file_set_id) REFERENCES file_set (id) ON UPDATE NO ACTION ON DELETE CASCADE MATCH NONE</text>
</g>
<!-- file_sync_log -->
<g id="node5" class="node">
<title>file_sync_log</title>
<polygon fill="#efefef" stroke="none" points="981.44,-540 981.44,-575.6 1162.68,-575.6 1162.68,-540 981.44,-540"/>
<polygon fill="none" stroke="black" points="981.44,-540 981.44,-575.6 1162.68,-575.6 1162.68,-540 981.44,-540"/>
<text text-anchor="start" x="988.44" y="-553.4" font-family="Arial Bold" font-size="18.00">file_sync_log</text>
<text text-anchor="start" x="1086.42" y="-553.4" font-family="Arial" font-size="14.00">    </text>
<text text-anchor="start" x="1117.54" y="-553.4" font-family="Arial" font-size="14.00" fill="#666666">[table]</text>
<polygon fill="none" stroke="black" points="981.44,-509.2 981.44,-540 1162.68,-540 1162.68,-509.2 981.44,-509.2"/>
<text text-anchor="start" x="988.44" y="-521.4" font-family="Arial" font-size="14.00">id </text>
<text text-anchor="start" x="1003.23" y="-521.4" font-family="Arial" font-size="14.00" fill="#666666">[INTEGER]</text>
<polygon fill="none" stroke="black" points="981.44,-478.4 981.44,-509.2 1162.68,-509.2 1162.68,-478.4 981.44,-478.4"/>
<text text-anchor="start" x="988.44" y="-490.6" font-family="Arial" font-size="14.00">file_info_id </text>
<text text-anchor="start" x="1059.27" y="-490.6" font-family="Arial" font-size="14.00" fill="#666666">[INTEGER]</text>
<polygon fill="none" stroke="black" points="981.44,-447.6 981.44,-478.4 1162.68,-478.4 1162.68,-447.6 981.44,-447.6"/>
<text text-anchor="start" x="988.44" y="-459.8" font-family="Arial" font-size="14.00">sync_time </text>
<text text-anchor="start" x="1055.35" y="-459.8" font-family="Arial" font-size="14.00" fill="#666666">[TIMESTAMP]</text>
<polygon fill="none" stroke="black" points="981.44,-416.8 981.44,-447.6 1162.68,-447.6 1162.68,-416.8 981.44,-416.8"/>
<text text-anchor="start" x="988.44" y="-429" font-family="Arial" font-size="14.00">status </text>
<text text-anchor="start" x="1029.68" y="-429" font-family="Arial" font-size="14.00" fill="#666666">[INTEGER]</text>
<polygon fill="none" stroke="black" points="981.44,-386 981.44,-416.8 1162.68,-416.8 1162.68,-386 981.44,-386"/>
<text text-anchor="start" x="988.44" y="-398.2" font-family="Arial" font-size="14.00">message </text>
<text text-anchor="start" x="1049.14" y="-398.2" font-family="Arial" font-size="14.00" fill="#666666">[TEXT]</text>
<polygon fill="none" stroke="black" points="981.44,-355.2 981.44,-386 1162.68,-386 1162.68,-355.2 981.44,-355.2"/>
<text text-anchor="start" x="988.44" y="-367.4" font-family="Arial" font-size="14.00">cloud_key </text>
<text text-anchor="start" x="1055.37" y="-367.4" font-family="Arial" font-size="14.00" fill="#666666">[TEXT]</text>
</g>
<!-- file_sync_log&#45;&gt;file_info -->
<g id="edge4" class="edge">
<title>file_sync_log:file_info_id&#45;&gt;file_info:id</title>
<path fill="none" stroke="black" d="M1173.68,-491.47C1232.53,-462.92 1226.41,-181.8 1160.59,-181.8"/>
<polygon fill="black" stroke="black" points="1173.74,-491.45 1162.98,-489.34 1168.55,-492.66 1164.33,-493.65 1164.33,-493.65 1164.33,-493.65 1168.55,-492.66 1165.02,-498.11 1173.74,-491.45"/>
<text text-anchor="start" x="598.24" y="-503.8" font-family="Arial" font-size="10.00">FOREIGN KEY (file_info_id) REFERENCES file_info (id) ON UPDATE NO ACTION ON DELETE NO ACTION MATCH NONE</text>
</g>
<!-- file_info_system -->
<g id="node6" class="node">
<title>file_info_system</title>
<polygon fill="#efefef" stroke="none" points="1266.94,-478.4 1266.94,-514 1471.18,-514 1471.18,-478.4 1266.94,-478.4"/>
<polygon fill="none" stroke="black" points="1266.94,-478.4 1266.94,-514 1471.18,-514 1471.18,-478.4 1266.94,-478.4"/>
<text text-anchor="start" x="1273.94" y="-491.8" font-family="Arial Bold" font-size="18.00">file_info_system</text>
<text text-anchor="start" x="1394.92" y="-491.8" font-family="Arial" font-size="14.00">    </text>
<text text-anchor="start" x="1426.04" y="-491.8" font-family="Arial" font-size="14.00" fill="#666666">[table]</text>
<polygon fill="none" stroke="black" points="1266.94,-447.6 1266.94,-478.4 1471.18,-478.4 1471.18,-447.6 1266.94,-447.6"/>
<text text-anchor="start" x="1273.94" y="-459.8" font-family="Arial" font-size="14.00">file_info_id </text>
<text text-anchor="start" x="1344.77" y="-459.8" font-family="Arial" font-size="14.00" fill="#666666">[INTEGER]</text>
<polygon fill="none" stroke="black" points="1266.94,-416.8 1266.94,-447.6 1471.18,-447.6 1471.18,-416.8 1266.94,-416.8"/>
<text text-anchor="start" x="1273.94" y="-429" font-family="Arial" font-size="14.00">system_id </text>
<text text-anchor="start" x="1340.85" y="-429" font-family="Arial" font-size="14.00" fill="#666666">[INTEGER]</text>
</g>
<!-- file_info_system&#45;&gt;file_info -->
<g id="edge5" class="edge">
<title>file_info_system:file_info_id&#45;&gt;file_info:id</title>
<path fill="none" stroke="black" d="M1255.67,-462.31C1199.66,-454.11 1238.73,-374.77 1215.06,-312 1192.93,-253.31 1223.32,-181.8 1160.59,-181.8"/>
<polygon fill="black" stroke="black" points="1255.63,-462.31 1265.3,-467.47 1260.95,-462.66 1265.27,-462.96 1265.27,-462.96 1265.27,-462.96 1260.95,-462.66 1265.91,-458.49 1255.63,-462.31"/>
<text text-anchor="start" x="1272.94" y="-473" font-family="Arial" font-size="10.00">FOREIGN KEY (file_info_id) REFERENCES file_info (id) ON UPDATE NO ACTION ON DELETE CASCADE MATCH NONE</text>
</g>
</g>
</svg>
