<?xml version="1.0" encoding="UTF-8" standalone="no"?>
<!DOCTYPE svg PUBLIC "-//W3C//DTD SVG 1.1//EN"
 "http://www.w3.org/Graphics/SVG/1.1/DTD/svg11.dtd">
<!-- Generated by graphviz version 12.1.2 (20240928.0832)
 -->
<!-- Title: file_set_item Pages: 1 -->
<svg width="1720pt" height="785pt"
 viewBox="0.00 0.00 1720.24 784.80" xmlns="http://www.w3.org/2000/svg" xmlns:xlink="http://www.w3.org/1999/xlink">
<g id="graph0" class="graph" transform="scale(1 1) rotate(0) translate(4 780.8)">
<title>file_set_item</title>
<polygon fill="white" stroke="none" points="-4,4 -4,-780.8 1716.24,-780.8 1716.24,4 -4,4"/>
<!-- file_set_item -->
<g id="node1" class="node">
<title>file_set_item</title>
<polygon fill="#efefef" stroke="none" points="973.64,-667.2 973.64,-702.8 1150.87,-702.8 1150.87,-667.2 973.64,-667.2"/>
<polygon fill="none" stroke="black" points="973.64,-667.2 973.64,-702.8 1150.87,-702.8 1150.87,-667.2 973.64,-667.2"/>
<text text-anchor="start" x="980.64" y="-680.6" font-family="Arial Bold" font-size="18.00">file_set_item</text>
<text text-anchor="start" x="1074.62" y="-680.6" font-family="Arial" font-size="14.00">    </text>
<text text-anchor="start" x="1105.73" y="-680.6" font-family="Arial" font-size="14.00" fill="#666666">[table]</text>
<polygon fill="none" stroke="black" points="973.64,-636.4 973.64,-667.2 1150.87,-667.2 1150.87,-636.4 973.64,-636.4"/>
<text text-anchor="start" x="980.64" y="-648.6" font-family="Arial" font-size="14.00">file_set_id </text>
<text text-anchor="start" x="1047.58" y="-648.6" font-family="Arial" font-size="14.00" fill="#666666">[INTEGER]</text>
<polygon fill="none" stroke="black" points="973.64,-605.6 973.64,-636.4 1150.87,-636.4 1150.87,-605.6 973.64,-605.6"/>
<text text-anchor="start" x="980.64" y="-617.8" font-family="Arial" font-size="14.00">item_id </text>
<text text-anchor="start" x="1029.67" y="-617.8" font-family="Arial" font-size="14.00" fill="#666666">[INTEGER]</text>
<polygon fill="none" stroke="black" stroke-width="3" points="972.14,-604.1 972.14,-704.3 1152.37,-704.3 1152.37,-604.1 972.14,-604.1"/>
</g>
<!-- file_set -->
<g id="node2" class="node">
<title>file_set</title>
<polygon fill="#efefef" stroke="none" points="698.24,-416.8 698.24,-452.4 838.28,-452.4 838.28,-416.8 698.24,-416.8"/>
<polygon fill="none" stroke="black" points="698.24,-416.8 698.24,-452.4 838.28,-452.4 838.28,-416.8 698.24,-416.8"/>
<text text-anchor="start" x="707.14" y="-430.2" font-family="Arial Bold" font-size="18.00">file_set</text>
<text text-anchor="start" x="760.12" y="-430.2" font-family="Arial" font-size="14.00">    </text>
<text text-anchor="start" x="791.24" y="-430.2" font-family="Arial" font-size="14.00" fill="#666666">[table]</text>
<polygon fill="none" stroke="black" points="698.24,-386 698.24,-416.8 838.28,-416.8 838.28,-386 698.24,-386"/>
<text text-anchor="start" x="705.24" y="-398.2" font-family="Arial" font-size="14.00">id </text>
<text text-anchor="start" x="720.02" y="-398.2" font-family="Arial" font-size="14.00" fill="#666666">[INTEGER]</text>
<polygon fill="none" stroke="black" points="698.24,-355.2 698.24,-386 838.28,-386 838.28,-355.2 698.24,-355.2"/>
<text text-anchor="start" x="705.24" y="-367.4" font-family="Arial" font-size="14.00">file_name </text>
<text text-anchor="start" x="769.83" y="-367.4" font-family="Arial" font-size="14.00" fill="#666666">[TEXT]</text>
<polygon fill="none" stroke="black" points="698.24,-324.4 698.24,-355.2 838.28,-355.2 838.28,-324.4 698.24,-324.4"/>
<text text-anchor="start" x="705.24" y="-336.6" font-family="Arial" font-size="14.00">file_type </text>
<text text-anchor="start" x="761.27" y="-336.6" font-family="Arial" font-size="14.00" fill="#666666">[INTEGER]</text>
<polygon fill="none" stroke="black" points="698.24,-293.6 698.24,-324.4 838.28,-324.4 838.28,-293.6 698.24,-293.6"/>
<text text-anchor="start" x="705.24" y="-305.8" font-family="Arial" font-size="14.00">name </text>
<text text-anchor="start" x="744.15" y="-305.8" font-family="Arial" font-size="14.00" fill="#666666">[TEXT]</text>
<polygon fill="none" stroke="black" points="698.24,-262.8 698.24,-293.6 838.28,-293.6 838.28,-262.8 698.24,-262.8"/>
<text text-anchor="start" x="705.24" y="-275" font-family="Arial" font-size="14.00">source </text>
<text text-anchor="start" x="751.15" y="-275" font-family="Arial" font-size="14.00" fill="#666666">[TEXT]</text>
</g>
<!-- file_set_item&#45;&gt;file_set -->
<g id="edge1" class="edge">
<title>file_set_item:file_set_id&#45;&gt;file_set:id</title>
<path fill="none" stroke="black" d="M962.39,-650.97C917.84,-643.06 943.84,-580.13 918.26,-531.6 886.7,-471.73 906.96,-401.4 839.28,-401.4"/>
<polygon fill="black" stroke="black" points="962.34,-650.97 971.95,-656.26 967.66,-651.4 971.98,-651.75 971.98,-651.75 971.98,-651.75 967.66,-651.4 972.67,-647.29 962.34,-650.97"/>
<text text-anchor="start" x="979.64" y="-661.8" font-family="Arial" font-size="10.00">FOREIGN KEY (file_set_id) REFERENCES file_set (id) ON UPDATE NO ACTION ON DELETE CASCADE MATCH NONE</text>
</g>
<!-- release_item -->
<g id="node5" class="node">
<title>release_item</title>
<polygon fill="#efefef" stroke="none" points="975.16,-401.4 975.16,-437 1149.36,-437 1149.36,-401.4 975.16,-401.4"/>
<polygon fill="none" stroke="black" points="975.16,-401.4 975.16,-437 1149.36,-437 1149.36,-401.4 975.16,-401.4"/>
<text text-anchor="start" x="982.16" y="-414.8" font-family="Arial Bold" font-size="18.00">release_item</text>
<text text-anchor="start" x="1073.11" y="-414.8" font-family="Arial" font-size="14.00">    </text>
<text text-anchor="start" x="1104.22" y="-414.8" font-family="Arial" font-size="14.00" fill="#666666">[table]</text>
<polygon fill="none" stroke="black" points="975.16,-370.6 975.16,-401.4 1149.36,-401.4 1149.36,-370.6 975.16,-370.6"/>
<text text-anchor="start" x="982.16" y="-382.8" font-family="Arial" font-size="14.00">id </text>
<text text-anchor="start" x="996.94" y="-382.8" font-family="Arial" font-size="14.00" fill="#666666">[INTEGER]</text>
<polygon fill="none" stroke="black" points="975.16,-339.8 975.16,-370.6 1149.36,-370.6 1149.36,-339.8 975.16,-339.8"/>
<text text-anchor="start" x="982.16" y="-352" font-family="Arial" font-size="14.00">release_id </text>
<text text-anchor="start" x="1050.65" y="-352" font-family="Arial" font-size="14.00" fill="#666666">[INTEGER]</text>
<polygon fill="none" stroke="black" points="975.16,-309 975.16,-339.8 1149.36,-339.8 1149.36,-309 975.16,-309"/>
<text text-anchor="start" x="982.16" y="-321.2" font-family="Arial" font-size="14.00">item_type </text>
<text text-anchor="start" x="1046.74" y="-321.2" font-family="Arial" font-size="14.00" fill="#666666">[INTEGER]</text>
<polygon fill="none" stroke="black" points="975.16,-278.2 975.16,-309 1149.36,-309 1149.36,-278.2 975.16,-278.2"/>
<text text-anchor="start" x="982.16" y="-290.4" font-family="Arial" font-size="14.00">notes </text>
<text text-anchor="start" x="1020.29" y="-290.4" font-family="Arial" font-size="14.00" fill="#666666">[TEXT]</text>
</g>
<!-- file_set_item&#45;&gt;release_item -->
<g id="edge4" class="edge">
<title>file_set_item:item_id&#45;&gt;release_item:id</title>
<path fill="none" stroke="black" d="M1062.84,-594.17C1069.39,-537.7 1129.85,-540.95 1149.36,-480.2 1162.16,-440.34 1192.23,-386 1150.36,-386"/>
<polygon fill="black" stroke="black" points="1062.83,-594.28 1057.78,-604.02 1062.54,-599.61 1062.3,-603.93 1062.3,-603.93 1062.3,-603.93 1062.54,-599.61 1066.77,-604.52 1062.83,-594.28"/>
<text text-anchor="start" x="1069.26" y="-614.6" font-family="Arial" font-size="10.00">FOREIGN KEY (item_id) REFERENCES release_item (id) ON UPDATE NO ACTION ON DELETE CASCADE MATCH NONE</text>
</g>
<!-- file_set_file_info -->
<g id="node3" class="node">
<title>file_set_file_info</title>
<polygon fill="#efefef" stroke="none" points="358.65,-698 358.65,-733.6 565.87,-733.6 565.87,-698 358.65,-698"/>
<polygon fill="none" stroke="black" points="358.65,-698 358.65,-733.6 565.87,-733.6 565.87,-698 358.65,-698"/>
<text text-anchor="start" x="365.65" y="-711.4" font-family="Arial Bold" font-size="18.00">file_set_file_info</text>
<text text-anchor="start" x="489.61" y="-711.4" font-family="Arial" font-size="14.00">    </text>
<text text-anchor="start" x="520.73" y="-711.4" font-family="Arial" font-size="14.00" fill="#666666">[table]</text>
<polygon fill="none" stroke="black" points="358.65,-667.2 358.65,-698 565.87,-698 565.87,-667.2 358.65,-667.2"/>
<text text-anchor="start" x="365.65" y="-679.4" font-family="Arial" font-size="14.00">file_set_id </text>
<text text-anchor="start" x="432.58" y="-679.4" font-family="Arial" font-size="14.00" fill="#666666">[INTEGER]</text>
<polygon fill="none" stroke="black" points="358.65,-636.4 358.65,-667.2 565.87,-667.2 565.87,-636.4 358.65,-636.4"/>
<text text-anchor="start" x="365.65" y="-648.6" font-family="Arial" font-size="14.00">file_info_id </text>
<text text-anchor="start" x="436.48" y="-648.6" font-family="Arial" font-size="14.00" fill="#666666">[INTEGER]</text>
<polygon fill="none" stroke="black" points="358.65,-605.6 358.65,-636.4 565.87,-636.4 565.87,-605.6 358.65,-605.6"/>
<text text-anchor="start" x="365.65" y="-617.8" font-family="Arial" font-size="14.00">file_name </text>
<text text-anchor="start" x="430.24" y="-617.8" font-family="Arial" font-size="14.00" fill="#666666">[TEXT]</text>
<polygon fill="none" stroke="black" points="358.65,-574.8 358.65,-605.6 565.87,-605.6 565.87,-574.8 358.65,-574.8"/>
<text text-anchor="start" x="365.65" y="-587" font-family="Arial" font-size="14.00">sort_order </text>
<text text-anchor="start" x="433.35" y="-587" font-family="Arial" font-size="14.00" fill="#666666">[INTEGER]</text>
</g>
<!-- file_set_file_info&#45;&gt;file_set -->
<g id="edge2" class="edge">
<title>file_set_file_info:file_set_id&#45;&gt;file_set:id</title>
<path fill="none" stroke="black" d="M577.11,-681.89C632.76,-673.51 589.86,-592.45 618.26,-531.6 646.88,-470.27 629.56,-401.4 697.24,-401.4"/>
<polygon fill="black" stroke="black" points="577.18,-681.89 566.89,-678.09 571.85,-682.26 567.53,-682.55 567.53,-682.55 567.53,-682.55 571.85,-682.26 567.51,-687.07 577.18,-681.89"/>
<text text-anchor="start" x="7" y="-692.6" font-family="Arial" font-size="10.00">FOREIGN KEY (file_set_id) REFERENCES file_set (id) ON UPDATE NO ACTION ON DELETE NO ACTION MATCH NONE</text>
</g>
<!-- release_file_set -->
<g id="node4" class="node">
<title>release_file_set</title>
<polygon fill="#efefef" stroke="none" points="670.66,-667.2 670.66,-702.8 865.85,-702.8 865.85,-667.2 670.66,-667.2"/>
<polygon fill="none" stroke="black" points="670.66,-667.2 670.66,-702.8 865.85,-702.8 865.85,-667.2 670.66,-667.2"/>
<text text-anchor="start" x="677.66" y="-680.6" font-family="Arial Bold" font-size="18.00">release_file_set</text>
<text text-anchor="start" x="789.6" y="-680.6" font-family="Arial" font-size="14.00">    </text>
<text text-anchor="start" x="820.72" y="-680.6" font-family="Arial" font-size="14.00" fill="#666666">[table]</text>
<polygon fill="none" stroke="black" points="670.66,-636.4 670.66,-667.2 865.85,-667.2 865.85,-636.4 670.66,-636.4"/>
<text text-anchor="start" x="677.66" y="-648.6" font-family="Arial" font-size="14.00">release_id </text>
<text text-anchor="start" x="746.15" y="-648.6" font-family="Arial" font-size="14.00" fill="#666666">[INTEGER]</text>
<polygon fill="none" stroke="black" points="670.66,-605.6 670.66,-636.4 865.85,-636.4 865.85,-605.6 670.66,-605.6"/>
<text text-anchor="start" x="677.66" y="-617.8" font-family="Arial" font-size="14.00">file_set_id </text>
<text text-anchor="start" x="744.59" y="-617.8" font-family="Arial" font-size="14.00" fill="#666666">[INTEGER]</text>
</g>
<!-- release_file_set&#45;&gt;file_set -->
<g id="edge3" class="edge">
<title>release_file_set:file_set_id&#45;&gt;file_set:id</title>
<path fill="none" stroke="black" d="M768.9,-594.2C775,-547.26 822.83,-547.21 838.28,-495.6 850.28,-455.49 881.15,-401.4 839.28,-401.4"/>
<polygon fill="black" stroke="black" points="768.9,-594.29 763.79,-603.99 768.57,-599.61 768.3,-603.93 768.3,-603.93 768.3,-603.93 768.57,-599.61 772.77,-604.54 768.9,-594.29"/>
<text text-anchor="start" x="215.6" y="-614.6" font-family="Arial" font-size="10.00">FOREIGN KEY (file_set_id) REFERENCES file_set (id) ON UPDATE NO ACTION ON DELETE CASCADE MATCH NONE</text>
</g>
<!-- release -->
<g id="node6" class="node">
<title>release</title>
<polygon fill="#efefef" stroke="none" points="995.65,-104.8 995.65,-140.4 1128.86,-140.4 1128.86,-104.8 995.65,-104.8"/>
<polygon fill="none" stroke="black" points="995.65,-104.8 995.65,-140.4 1128.86,-140.4 1128.86,-104.8 995.65,-104.8"/>
<text text-anchor="start" x="1002.65" y="-118.2" font-family="Arial Bold" font-size="18.00">release</text>
<text text-anchor="start" x="1052.61" y="-118.2" font-family="Arial" font-size="14.00">    </text>
<text text-anchor="start" x="1083.73" y="-118.2" font-family="Arial" font-size="14.00" fill="#666666">[table]</text>
<polygon fill="none" stroke="black" points="995.65,-74 995.65,-104.8 1128.86,-104.8 1128.86,-74 995.65,-74"/>
<text text-anchor="start" x="1002.65" y="-86.2" font-family="Arial" font-size="14.00">id </text>
<text text-anchor="start" x="1017.44" y="-86.2" font-family="Arial" font-size="14.00" fill="#666666">[INTEGER]</text>
<polygon fill="none" stroke="black" points="995.65,-43.2 995.65,-74 1128.86,-74 1128.86,-43.2 995.65,-43.2"/>
<text text-anchor="start" x="1002.65" y="-55.4" font-family="Arial" font-size="14.00">name </text>
<text text-anchor="start" x="1041.56" y="-55.4" font-family="Arial" font-size="14.00" fill="#666666">[TEXT]</text>
</g>
<!-- release_item&#45;&gt;release -->
<g id="edge5" class="edge">
<title>release_item:release_id&#45;&gt;release:id</title>
<path fill="none" stroke="black" d="M1160.74,-354.48C1267.51,-339.35 1244.76,-89.4 1129.86,-89.4"/>
<polygon fill="black" stroke="black" points="1160.67,-354.49 1150.38,-350.69 1155.35,-354.86 1151.03,-355.15 1151.03,-355.15 1151.03,-355.15 1155.35,-354.86 1151,-359.67 1160.67,-354.49"/>
<text text-anchor="start" x="1157.36" y="-365.2" font-family="Arial" font-size="10.00">FOREIGN KEY (release_id) REFERENCES release (id) ON UPDATE NO ACTION ON DELETE CASCADE MATCH NONE</text>
</g>
</g>
</svg>
