<?xml version="1.0" encoding="UTF-8" standalone="no"?>
<!DOCTYPE svg PUBLIC "-//W3C//DTD SVG 1.1//EN"
 "http://www.w3.org/Graphics/SVG/1.1/DTD/svg11.dtd">
<!-- Generated by graphviz version 12.1.2 (20240928.0832)
 -->
<!-- Title: file_set_dat_file_link Pages: 1 -->
<svg width="2553pt" height="1093pt"
 viewBox="0.00 0.00 2553.22 1092.80" xmlns="http://www.w3.org/2000/svg" xmlns:xlink="http://www.w3.org/1999/xlink">
<g id="graph0" class="graph" transform="scale(1 1) rotate(0) translate(4 1088.8)">
<title>file_set_dat_file_link</title>
<polygon fill="white" stroke="none" points="-4,4 -4,-1088.8 2549.22,-1088.8 2549.22,4 -4,4"/>
<!-- file_set_dat_file_link -->
<g id="node1" class="node">
<title>file_set_dat_file_link</title>
<polygon fill="#efefef" stroke="none" points="1640.45,-929 1640.45,-964.6 1877.66,-964.6 1877.66,-929 1640.45,-929"/>
<polygon fill="none" stroke="black" points="1640.45,-929 1640.45,-964.6 1877.66,-964.6 1877.66,-929 1640.45,-929"/>
<text text-anchor="start" x="1647.45" y="-942.4" font-family="Arial Bold" font-size="18.00">file_set_dat_file_link</text>
<text text-anchor="start" x="1801.41" y="-942.4" font-family="Arial" font-size="14.00">    </text>
<text text-anchor="start" x="1832.53" y="-942.4" font-family="Arial" font-size="14.00" fill="#666666">[table]</text>
<polygon fill="none" stroke="black" points="1640.45,-898.2 1640.45,-929 1877.66,-929 1877.66,-898.2 1640.45,-898.2"/>
<text text-anchor="start" x="1647.45" y="-910.4" font-family="Arial" font-size="14.00">file_set_id </text>
<text text-anchor="start" x="1714.38" y="-910.4" font-family="Arial" font-size="14.00" fill="#666666">[INTEGER]</text>
<polygon fill="none" stroke="black" points="1640.45,-867.4 1640.45,-898.2 1877.66,-898.2 1877.66,-867.4 1640.45,-867.4"/>
<text text-anchor="start" x="1647.45" y="-879.6" font-family="Arial" font-size="14.00">dat_file_id </text>
<text text-anchor="start" x="1715.17" y="-879.6" font-family="Arial" font-size="14.00" fill="#666666">[INTEGER]</text>
<polygon fill="none" stroke="black" stroke-width="3" points="1638.95,-865.9 1638.95,-966.1 1879.16,-966.1 1879.16,-865.9 1638.95,-865.9"/>
</g>
<!-- file_set -->
<g id="node2" class="node">
<title>file_set</title>
<polygon fill="#efefef" stroke="none" points="1042.04,-524.6 1042.04,-560.2 1182.08,-560.2 1182.08,-524.6 1042.04,-524.6"/>
<polygon fill="none" stroke="black" points="1042.04,-524.6 1042.04,-560.2 1182.08,-560.2 1182.08,-524.6 1042.04,-524.6"/>
<text text-anchor="start" x="1050.94" y="-538" font-family="Arial Bold" font-size="18.00">file_set</text>
<text text-anchor="start" x="1103.92" y="-538" font-family="Arial" font-size="14.00">    </text>
<text text-anchor="start" x="1135.04" y="-538" font-family="Arial" font-size="14.00" fill="#666666">[table]</text>
<polygon fill="none" stroke="black" points="1042.04,-493.8 1042.04,-524.6 1182.08,-524.6 1182.08,-493.8 1042.04,-493.8"/>
<text text-anchor="start" x="1049.04" y="-506" font-family="Arial" font-size="14.00">id </text>
<text text-anchor="start" x="1063.82" y="-506" font-family="Arial" font-size="14.00" fill="#666666">[INTEGER]</text>
<polygon fill="none" stroke="black" points="1042.04,-463 1042.04,-493.8 1182.08,-493.8 1182.08,-463 1042.04,-463"/>
<text text-anchor="start" x="1049.04" y="-475.2" font-family="Arial" font-size="14.00">file_name </text>
<text text-anchor="start" x="1113.63" y="-475.2" font-family="Arial" font-size="14.00" fill="#666666">[TEXT]</text>
<polygon fill="none" stroke="black" points="1042.04,-432.2 1042.04,-463 1182.08,-463 1182.08,-432.2 1042.04,-432.2"/>
<text text-anchor="start" x="1049.04" y="-444.4" font-family="Arial" font-size="14.00">file_type </text>
<text text-anchor="start" x="1105.07" y="-444.4" font-family="Arial" font-size="14.00" fill="#666666">[INTEGER]</text>
<polygon fill="none" stroke="black" points="1042.04,-401.4 1042.04,-432.2 1182.08,-432.2 1182.08,-401.4 1042.04,-401.4"/>
<text text-anchor="start" x="1049.04" y="-413.6" font-family="Arial" font-size="14.00">name </text>
<text text-anchor="start" x="1087.95" y="-413.6" font-family="Arial" font-size="14.00" fill="#666666">[TEXT]</text>
<polygon fill="none" stroke="black" points="1042.04,-370.6 1042.04,-401.4 1182.08,-401.4 1182.08,-370.6 1042.04,-370.6"/>
<text text-anchor="start" x="1049.04" y="-382.8" font-family="Arial" font-size="14.00">source </text>
<text text-anchor="start" x="1094.95" y="-382.8" font-family="Arial" font-size="14.00" fill="#666666">[TEXT]</text>
</g>
<!-- file_set_dat_file_link&#45;&gt;file_set -->
<g id="edge1" class="edge">
<title>file_set_dat_file_link:file_set_id&#45;&gt;file_set:id</title>
<path fill="none" stroke="black" d="M1629.09,-912.86C1568.4,-903.38 1631.37,-804.93 1585.06,-747.2 1455.14,-585.25 1390.7,-509.2 1183.08,-509.2"/>
<polygon fill="black" stroke="black" points="1629.14,-912.86 1638.8,-918.06 1634.46,-913.24 1638.78,-913.55 1638.78,-913.55 1638.78,-913.55 1634.46,-913.24 1639.44,-909.09 1629.14,-912.86"/>
<text text-anchor="start" x="1646.45" y="-923.6" font-family="Arial" font-size="10.00">FOREIGN KEY (file_set_id) REFERENCES file_set (id) ON UPDATE NO ACTION ON DELETE CASCADE MATCH NONE</text>
</g>
<!-- dat_file -->
<g id="node7" class="node">
<title>dat_file</title>
<polygon fill="#efefef" stroke="none" points="1834.6,-632.4 1834.6,-668 1985.52,-668 1985.52,-632.4 1834.6,-632.4"/>
<polygon fill="none" stroke="black" points="1834.6,-632.4 1834.6,-668 1985.52,-668 1985.52,-632.4 1834.6,-632.4"/>
<text text-anchor="start" x="1847.94" y="-645.8" font-family="Arial Bold" font-size="18.00">dat_file</text>
<text text-anchor="start" x="1902.92" y="-645.8" font-family="Arial" font-size="14.00">    </text>
<text text-anchor="start" x="1934.04" y="-645.8" font-family="Arial" font-size="14.00" fill="#666666">[table]</text>
<polygon fill="none" stroke="black" points="1834.6,-601.6 1834.6,-632.4 1985.52,-632.4 1985.52,-601.6 1834.6,-601.6"/>
<text text-anchor="start" x="1841.6" y="-613.8" font-family="Arial" font-size="14.00">id </text>
<text text-anchor="start" x="1856.39" y="-613.8" font-family="Arial" font-size="14.00" fill="#666666">[INTEGER]</text>
<polygon fill="none" stroke="black" points="1834.6,-570.8 1834.6,-601.6 1985.52,-601.6 1985.52,-570.8 1834.6,-570.8"/>
<text text-anchor="start" x="1841.6" y="-583" font-family="Arial" font-size="14.00">dat_id </text>
<text text-anchor="start" x="1883.63" y="-583" font-family="Arial" font-size="14.00" fill="#666666">[INTEGER]</text>
<polygon fill="none" stroke="black" points="1834.6,-540 1834.6,-570.8 1985.52,-570.8 1985.52,-540 1834.6,-540"/>
<text text-anchor="start" x="1841.6" y="-552.2" font-family="Arial" font-size="14.00">name </text>
<text text-anchor="start" x="1880.51" y="-552.2" font-family="Arial" font-size="14.00" fill="#666666">[TEXT]</text>
<polygon fill="none" stroke="black" points="1834.6,-509.2 1834.6,-540 1985.52,-540 1985.52,-509.2 1834.6,-509.2"/>
<text text-anchor="start" x="1841.6" y="-521.4" font-family="Arial" font-size="14.00">description </text>
<text text-anchor="start" x="1913.19" y="-521.4" font-family="Arial" font-size="14.00" fill="#666666">[TEXT]</text>
<polygon fill="none" stroke="black" points="1834.6,-478.4 1834.6,-509.2 1985.52,-509.2 1985.52,-478.4 1834.6,-478.4"/>
<text text-anchor="start" x="1841.6" y="-490.6" font-family="Arial" font-size="14.00">version </text>
<text text-anchor="start" x="1890.62" y="-490.6" font-family="Arial" font-size="14.00" fill="#666666">[TEXT]</text>
<polygon fill="none" stroke="black" points="1834.6,-447.6 1834.6,-478.4 1985.52,-478.4 1985.52,-447.6 1834.6,-447.6"/>
<text text-anchor="start" x="1841.6" y="-459.8" font-family="Arial" font-size="14.00">date </text>
<text text-anchor="start" x="1872.74" y="-459.8" font-family="Arial" font-size="14.00" fill="#666666">[TEXT]</text>
<polygon fill="none" stroke="black" points="1834.6,-416.8 1834.6,-447.6 1985.52,-447.6 1985.52,-416.8 1834.6,-416.8"/>
<text text-anchor="start" x="1841.6" y="-429" font-family="Arial" font-size="14.00">author </text>
<text text-anchor="start" x="1885.19" y="-429" font-family="Arial" font-size="14.00" fill="#666666">[TEXT]</text>
<polygon fill="none" stroke="black" points="1834.6,-386 1834.6,-416.8 1985.52,-416.8 1985.52,-386 1834.6,-386"/>
<text text-anchor="start" x="1841.6" y="-398.2" font-family="Arial" font-size="14.00">homepage </text>
<text text-anchor="start" x="1911.65" y="-398.2" font-family="Arial" font-size="14.00" fill="#666666">[TEXT]</text>
<polygon fill="none" stroke="black" points="1834.6,-355.2 1834.6,-386 1985.52,-386 1985.52,-355.2 1834.6,-355.2"/>
<text text-anchor="start" x="1841.6" y="-367.4" font-family="Arial" font-size="14.00">url </text>
<text text-anchor="start" x="1861.05" y="-367.4" font-family="Arial" font-size="14.00" fill="#666666">[TEXT]</text>
<polygon fill="none" stroke="black" points="1834.6,-324.4 1834.6,-355.2 1985.52,-355.2 1985.52,-324.4 1834.6,-324.4"/>
<text text-anchor="start" x="1841.6" y="-336.6" font-family="Arial" font-size="14.00">subset </text>
<text text-anchor="start" x="1886.74" y="-336.6" font-family="Arial" font-size="14.00" fill="#666666">[TEXT]</text>
<polygon fill="none" stroke="black" points="1834.6,-293.6 1834.6,-324.4 1985.52,-324.4 1985.52,-293.6 1834.6,-293.6"/>
<text text-anchor="start" x="1841.6" y="-305.8" font-family="Arial" font-size="14.00">imported_at </text>
<text text-anchor="start" x="1919.42" y="-305.8" font-family="Arial" font-size="14.00" fill="#666666">[TEXT]</text>
<polygon fill="none" stroke="black" points="1834.6,-262.8 1834.6,-293.6 1985.52,-293.6 1985.52,-262.8 1834.6,-262.8"/>
<text text-anchor="start" x="1841.6" y="-275" font-family="Arial" font-size="14.00">system_id </text>
<text text-anchor="start" x="1908.51" y="-275" font-family="Arial" font-size="14.00" fill="#666666">[INTEGER]</text>
</g>
<!-- file_set_dat_file_link&#45;&gt;dat_file -->
<g id="edge6" class="edge">
<title>file_set_dat_file_link:dat_file_id&#45;&gt;dat_file:id</title>
<path fill="none" stroke="black" d="M1889.02,-881.99C1980.55,-865.94 1717.64,-617 1833.6,-617"/>
<polygon fill="black" stroke="black" points="1888.97,-881.99 1878.65,-878.29 1883.65,-882.41 1879.33,-882.75 1879.33,-882.75 1879.33,-882.75 1883.65,-882.41 1879.35,-887.26 1888.97,-881.99"/>
<text text-anchor="start" x="1885.66" y="-892.8" font-family="Arial" font-size="10.00">FOREIGN KEY (dat_file_id) REFERENCES dat_file (id) ON UPDATE NO ACTION ON DELETE CASCADE MATCH NONE</text>
</g>
<!-- release_file_set -->
<g id="node3" class="node">
<title>release_file_set</title>
<polygon fill="#efefef" stroke="none" points="363.46,-929 363.46,-964.6 558.65,-964.6 558.65,-929 363.46,-929"/>
<polygon fill="none" stroke="black" points="363.46,-929 363.46,-964.6 558.65,-964.6 558.65,-929 363.46,-929"/>
<text text-anchor="start" x="370.46" y="-942.4" font-family="Arial Bold" font-size="18.00">release_file_set</text>
<text text-anchor="start" x="482.4" y="-942.4" font-family="Arial" font-size="14.00">    </text>
<text text-anchor="start" x="513.52" y="-942.4" font-family="Arial" font-size="14.00" fill="#666666">[table]</text>
<polygon fill="none" stroke="black" points="363.46,-898.2 363.46,-929 558.65,-929 558.65,-898.2 363.46,-898.2"/>
<text text-anchor="start" x="370.46" y="-910.4" font-family="Arial" font-size="14.00">release_id </text>
<text text-anchor="start" x="438.95" y="-910.4" font-family="Arial" font-size="14.00" fill="#666666">[INTEGER]</text>
<polygon fill="none" stroke="black" points="363.46,-867.4 363.46,-898.2 558.65,-898.2 558.65,-867.4 363.46,-867.4"/>
<text text-anchor="start" x="370.46" y="-879.6" font-family="Arial" font-size="14.00">file_set_id </text>
<text text-anchor="start" x="437.39" y="-879.6" font-family="Arial" font-size="14.00" fill="#666666">[INTEGER]</text>
</g>
<!-- release_file_set&#45;&gt;file_set -->
<g id="edge2" class="edge">
<title>release_file_set:file_set_id&#45;&gt;file_set:id</title>
<path fill="none" stroke="black" d="M569.79,-881.93C617.97,-872.75 571.33,-793.06 611.06,-747.2 754.06,-582.1 822.61,-509.2 1041.04,-509.2"/>
<polygon fill="black" stroke="black" points="569.95,-881.92 559.6,-878.29 564.64,-882.37 560.32,-882.74 560.32,-882.74 560.32,-882.74 564.64,-882.37 560.37,-887.25 569.95,-881.92"/>
<text text-anchor="start" x="7" y="-892.8" font-family="Arial" font-size="10.00">FOREIGN KEY (file_set_id) REFERENCES file_set (id) ON UPDATE NO ACTION ON DELETE CASCADE MATCH NONE</text>
</g>
<!-- release_item_file_set -->
<g id="node4" class="node">
<title>release_item_file_set</title>
<polygon fill="#efefef" stroke="none" points="662.97,-929 662.97,-964.6 899.15,-964.6 899.15,-929 662.97,-929"/>
<polygon fill="none" stroke="black" points="662.97,-929 662.97,-964.6 899.15,-964.6 899.15,-929 662.97,-929"/>
<text text-anchor="start" x="669.97" y="-942.4" font-family="Arial Bold" font-size="18.00">release_item_file_set</text>
<text text-anchor="start" x="822.9" y="-942.4" font-family="Arial" font-size="14.00">    </text>
<text text-anchor="start" x="854.01" y="-942.4" font-family="Arial" font-size="14.00" fill="#666666">[table]</text>
<polygon fill="none" stroke="black" points="662.97,-898.2 662.97,-929 899.15,-929 899.15,-898.2 662.97,-898.2"/>
<text text-anchor="start" x="669.97" y="-910.4" font-family="Arial" font-size="14.00">release_item_id </text>
<text text-anchor="start" x="772.69" y="-910.4" font-family="Arial" font-size="14.00" fill="#666666">[INTEGER]</text>
<polygon fill="none" stroke="black" points="662.97,-867.4 662.97,-898.2 899.15,-898.2 899.15,-867.4 662.97,-867.4"/>
<text text-anchor="start" x="669.97" y="-879.6" font-family="Arial" font-size="14.00">file_set_id </text>
<text text-anchor="start" x="736.9" y="-879.6" font-family="Arial" font-size="14.00" fill="#666666">[INTEGER]</text>
</g>
<!-- release_item_file_set&#45;&gt;file_set -->
<g id="edge3" class="edge">
<title>release_item_file_set:file_set_id&#45;&gt;file_set:id</title>
<path fill="none" stroke="black" d="M910.46,-882.04C960.49,-874.02 929.69,-803.91 951.06,-747.2 990.93,-641.38 927.95,-509.2 1041.04,-509.2"/>
<polygon fill="black" stroke="black" points="910.46,-882.04 900.15,-878.29 905.14,-882.43 900.82,-882.75 900.82,-882.75 900.82,-882.75 905.14,-882.43 900.81,-887.26 910.46,-882.04"/>
<text text-anchor="start" x="347.5" y="-866.8" font-family="Arial" font-size="10.00">FOREIGN KEY (file_set_id) REFERENCES file_set (id) ON UPDATE NO ACTION ON DELETE CASCADE MATCH NONE</text>
</g>
<!-- file_set_item_type -->
<g id="node5" class="node">
<title>file_set_item_type</title>
<polygon fill="#efefef" stroke="none" points="1003.45,-929 1003.45,-964.6 1220.67,-964.6 1220.67,-929 1003.45,-929"/>
<polygon fill="none" stroke="black" points="1003.45,-929 1003.45,-964.6 1220.67,-964.6 1220.67,-929 1003.45,-929"/>
<text text-anchor="start" x="1010.45" y="-942.4" font-family="Arial Bold" font-size="18.00">file_set_item_type</text>
<text text-anchor="start" x="1144.41" y="-942.4" font-family="Arial" font-size="14.00">    </text>
<text text-anchor="start" x="1175.53" y="-942.4" font-family="Arial" font-size="14.00" fill="#666666">[table]</text>
<polygon fill="none" stroke="black" points="1003.45,-898.2 1003.45,-929 1220.67,-929 1220.67,-898.2 1003.45,-898.2"/>
<text text-anchor="start" x="1010.45" y="-910.4" font-family="Arial" font-size="14.00">file_set_id </text>
<text text-anchor="start" x="1077.38" y="-910.4" font-family="Arial" font-size="14.00" fill="#666666">[INTEGER]</text>
<polygon fill="none" stroke="black" points="1003.45,-867.4 1003.45,-898.2 1220.67,-898.2 1220.67,-867.4 1003.45,-867.4"/>
<text text-anchor="start" x="1010.45" y="-879.6" font-family="Arial" font-size="14.00">item_type </text>
<text text-anchor="start" x="1075.04" y="-879.6" font-family="Arial" font-size="14.00" fill="#666666">[INTEGER]</text>
</g>
<!-- file_set_item_type&#45;&gt;file_set -->
<g id="edge4" class="edge">
<title>file_set_item_type:file_set_id&#45;&gt;file_set:id</title>
<path fill="none" stroke="black" d="M1230.17,-907.57C1261.19,-857.26 1224.95,-509.2 1183.08,-509.2"/>
<polygon fill="black" stroke="black" points="1230.1,-907.62 1219.34,-909.74 1225.75,-910.71 1222.21,-913.21 1222.21,-913.21 1222.21,-913.21 1225.75,-910.71 1224.54,-917.08 1230.1,-907.62"/>
<text text-anchor="start" x="669.01" y="-923.6" font-family="Arial" font-size="10.00">FOREIGN KEY (file_set_id) REFERENCES file_set (id) ON UPDATE NO ACTION ON DELETE CASCADE MATCH NONE</text>
</g>
<!-- file_set_file_info -->
<g id="node6" class="node">
<title>file_set_file_info</title>
<polygon fill="#efefef" stroke="none" points="1325.45,-959.8 1325.45,-995.4 1532.67,-995.4 1532.67,-959.8 1325.45,-959.8"/>
<polygon fill="none" stroke="black" points="1325.45,-959.8 1325.45,-995.4 1532.67,-995.4 1532.67,-959.8 1325.45,-959.8"/>
<text text-anchor="start" x="1332.45" y="-973.2" font-family="Arial Bold" font-size="18.00">file_set_file_info</text>
<text text-anchor="start" x="1456.41" y="-973.2" font-family="Arial" font-size="14.00">    </text>
<text text-anchor="start" x="1487.53" y="-973.2" font-family="Arial" font-size="14.00" fill="#666666">[table]</text>
<polygon fill="none" stroke="black" points="1325.45,-929 1325.45,-959.8 1532.67,-959.8 1532.67,-929 1325.45,-929"/>
<text text-anchor="start" x="1332.45" y="-941.2" font-family="Arial" font-size="14.00">file_set_id </text>
<text text-anchor="start" x="1399.38" y="-941.2" font-family="Arial" font-size="14.00" fill="#666666">[INTEGER]</text>
<polygon fill="none" stroke="black" points="1325.45,-898.2 1325.45,-929 1532.67,-929 1532.67,-898.2 1325.45,-898.2"/>
<text text-anchor="start" x="1332.45" y="-910.4" font-family="Arial" font-size="14.00">file_info_id </text>
<text text-anchor="start" x="1403.28" y="-910.4" font-family="Arial" font-size="14.00" fill="#666666">[INTEGER]</text>
<polygon fill="none" stroke="black" points="1325.45,-867.4 1325.45,-898.2 1532.67,-898.2 1532.67,-867.4 1325.45,-867.4"/>
<text text-anchor="start" x="1332.45" y="-879.6" font-family="Arial" font-size="14.00">file_name </text>
<text text-anchor="start" x="1397.04" y="-879.6" font-family="Arial" font-size="14.00" fill="#666666">[TEXT]</text>
<polygon fill="none" stroke="black" points="1325.45,-836.6 1325.45,-867.4 1532.67,-867.4 1532.67,-836.6 1325.45,-836.6"/>
<text text-anchor="start" x="1332.45" y="-848.8" font-family="Arial" font-size="14.00">sort_order </text>
<text text-anchor="start" x="1400.15" y="-848.8" font-family="Arial" font-size="14.00" fill="#666666">[INTEGER]</text>
</g>
<!-- file_set_file_info&#45;&gt;file_set -->
<g id="edge5" class="edge">
<title>file_set_file_info:file_set_id&#45;&gt;file_set:id</title>
<path fill="none" stroke="black" d="M1314.08,-943.85C1239.19,-935.34 1299.41,-829.96 1273.06,-747.2 1238.75,-639.44 1296.16,-509.2 1183.08,-509.2"/>
<polygon fill="black" stroke="black" points="1314.13,-943.85 1323.88,-948.88 1319.46,-944.13 1323.78,-944.36 1323.78,-944.36 1323.78,-944.36 1319.46,-944.13 1324.35,-939.89 1314.13,-943.85"/>
<text text-anchor="start" x="1331.45" y="-954.4" font-family="Arial" font-size="10.00">FOREIGN KEY (file_set_id) REFERENCES file_set (id) ON UPDATE NO ACTION ON DELETE CASCADE MATCH NONE</text>
</g>
<!-- system -->
<g id="node9" class="node">
<title>system</title>
<polygon fill="#efefef" stroke="none" points="1843.43,-104.8 1843.43,-140.4 1976.69,-140.4 1976.69,-104.8 1843.43,-104.8"/>
<polygon fill="none" stroke="black" points="1843.43,-104.8 1843.43,-140.4 1976.69,-140.4 1976.69,-104.8 1843.43,-104.8"/>
<text text-anchor="start" x="1850.43" y="-118.2" font-family="Arial Bold" font-size="18.00">system</text>
<text text-anchor="start" x="1900.43" y="-118.2" font-family="Arial" font-size="14.00">    </text>
<text text-anchor="start" x="1931.55" y="-118.2" font-family="Arial" font-size="14.00" fill="#666666">[table]</text>
<polygon fill="none" stroke="black" points="1843.43,-74 1843.43,-104.8 1976.69,-104.8 1976.69,-74 1843.43,-74"/>
<text text-anchor="start" x="1850.43" y="-86.2" font-family="Arial" font-size="14.00">id </text>
<text text-anchor="start" x="1865.22" y="-86.2" font-family="Arial" font-size="14.00" fill="#666666">[INTEGER]</text>
<polygon fill="none" stroke="black" points="1843.43,-43.2 1843.43,-74 1976.69,-74 1976.69,-43.2 1843.43,-43.2"/>
<text text-anchor="start" x="1850.43" y="-55.4" font-family="Arial" font-size="14.00">name </text>
<text text-anchor="start" x="1889.34" y="-55.4" font-family="Arial" font-size="14.00" fill="#666666">[TEXT]</text>
</g>
<!-- dat_file&#45;&gt;system -->
<g id="edge8" class="edge">
<title>dat_file:system_id&#45;&gt;system:id</title>
<path fill="none" stroke="black" d="M1911.03,-251.63C1918.13,-217.46 1961.99,-222.86 1976.69,-183.6 1991.36,-144.39 2019.56,-89.4 1977.69,-89.4"/>
<polygon fill="black" stroke="black" points="1911.04,-251.51 1905.61,-261.04 1910.54,-256.82 1910.12,-261.13 1910.12,-261.13 1910.12,-261.13 1910.54,-256.82 1914.57,-261.9 1911.04,-251.51"/>
<text text-anchor="start" x="1917.06" y="-271.8" font-family="Arial" font-size="10.00">FOREIGN KEY (system_id) REFERENCES system (id) ON UPDATE NO ACTION ON DELETE CASCADE MATCH NONE</text>
</g>
<!-- dat_game -->
<g id="node8" class="node">
<title>dat_game</title>
<polygon fill="#efefef" stroke="none" points="1985.45,-1006 1985.45,-1041.6 2138.67,-1041.6 2138.67,-1006 1985.45,-1006"/>
<polygon fill="none" stroke="black" points="1985.45,-1006 1985.45,-1041.6 2138.67,-1041.6 2138.67,-1006 1985.45,-1006"/>
<text text-anchor="start" x="1992.45" y="-1019.4" font-family="Arial Bold" font-size="18.00">dat_game</text>
<text text-anchor="start" x="2062.42" y="-1019.4" font-family="Arial" font-size="14.00">    </text>
<text text-anchor="start" x="2093.53" y="-1019.4" font-family="Arial" font-size="14.00" fill="#666666">[table]</text>
<polygon fill="none" stroke="black" points="1985.45,-975.2 1985.45,-1006 2138.67,-1006 2138.67,-975.2 1985.45,-975.2"/>
<text text-anchor="start" x="1992.45" y="-987.4" font-family="Arial" font-size="14.00">id </text>
<text text-anchor="start" x="2007.23" y="-987.4" font-family="Arial" font-size="14.00" fill="#666666">[INTEGER]</text>
<polygon fill="none" stroke="black" points="1985.45,-944.4 1985.45,-975.2 2138.67,-975.2 2138.67,-944.4 1985.45,-944.4"/>
<text text-anchor="start" x="1992.45" y="-956.6" font-family="Arial" font-size="14.00">dat_file_id </text>
<text text-anchor="start" x="2060.16" y="-956.6" font-family="Arial" font-size="14.00" fill="#666666">[INTEGER]</text>
<polygon fill="none" stroke="black" points="1985.45,-913.6 1985.45,-944.4 2138.67,-944.4 2138.67,-913.6 1985.45,-913.6"/>
<text text-anchor="start" x="1992.45" y="-925.8" font-family="Arial" font-size="14.00">name </text>
<text text-anchor="start" x="2031.36" y="-925.8" font-family="Arial" font-size="14.00" fill="#666666">[TEXT]</text>
<polygon fill="none" stroke="black" points="1985.45,-882.8 1985.45,-913.6 2138.67,-913.6 2138.67,-882.8 1985.45,-882.8"/>
<text text-anchor="start" x="1992.45" y="-895" font-family="Arial" font-size="14.00">game_id </text>
<text text-anchor="start" x="2050.04" y="-895" font-family="Arial" font-size="14.00" fill="#666666">[TEXT]</text>
<polygon fill="none" stroke="black" points="1985.45,-852 1985.45,-882.8 2138.67,-882.8 2138.67,-852 1985.45,-852"/>
<text text-anchor="start" x="1992.45" y="-864.2" font-family="Arial" font-size="14.00">description </text>
<text text-anchor="start" x="2064.04" y="-864.2" font-family="Arial" font-size="14.00" fill="#666666">[TEXT]</text>
<polygon fill="none" stroke="black" points="1985.45,-821.2 1985.45,-852 2138.67,-852 2138.67,-821.2 1985.45,-821.2"/>
<text text-anchor="start" x="1992.45" y="-833.4" font-family="Arial" font-size="14.00">cloneof </text>
<text text-anchor="start" x="2041.48" y="-833.4" font-family="Arial" font-size="14.00" fill="#666666">[TEXT]</text>
<polygon fill="none" stroke="black" points="1985.45,-790.4 1985.45,-821.2 2138.67,-821.2 2138.67,-790.4 1985.45,-790.4"/>
<text text-anchor="start" x="1992.45" y="-802.6" font-family="Arial" font-size="14.00">cloneofid </text>
<text text-anchor="start" x="2052.38" y="-802.6" font-family="Arial" font-size="14.00" fill="#666666">[TEXT]</text>
</g>
<!-- dat_game&#45;&gt;dat_file -->
<g id="edge7" class="edge">
<title>dat_game:dat_file_id&#45;&gt;dat_file:id</title>
<path fill="none" stroke="black" d="M1974.22,-959.27C1897.22,-950.61 1984.86,-838 1985.45,-747.2 1985.82,-689.33 2044.39,-617 1986.52,-617"/>
<polygon fill="black" stroke="black" points="1974.13,-959.26 1983.88,-964.28 1979.45,-959.54 1983.78,-959.77 1983.78,-959.77 1983.78,-959.77 1979.45,-959.54 1984.35,-955.29 1974.13,-959.26"/>
<text text-anchor="start" x="1991.45" y="-969.8" font-family="Arial" font-size="10.00">FOREIGN KEY (dat_file_id) REFERENCES dat_file (id) ON UPDATE NO ACTION ON DELETE CASCADE MATCH NONE</text>
</g>
</g>
</svg>
