<?xml version="1.0" encoding="UTF-8" standalone="no"?>
<!DOCTYPE svg PUBLIC "-//W3C//DTD SVG 1.1//EN"
 "http://www.w3.org/Graphics/SVG/1.1/DTD/svg11.dtd">
<!-- Generated by graphviz version 12.1.2 (20240928.0832)
 -->
<!-- Title: file_set_file_info Pages: 1 -->
<svg width="2215pt" height="571pt"
 viewBox="0.00 0.00 2215.16 571.20" xmlns="http://www.w3.org/2000/svg" xmlns:xlink="http://www.w3.org/1999/xlink">
<g id="graph0" class="graph" transform="scale(1 1) rotate(0) translate(4 567.2)">
<title>file_set_file_info</title>
<polygon fill="white" stroke="none" points="-4,4 -4,-567.2 2211.16,-567.2 2211.16,4 -4,4"/>
<!-- file_set_file_info -->
<g id="node1" class="node">
<title>file_set_file_info</title>
<polygon fill="#efefef" stroke="none" points="1328.45,-481.4 1328.45,-517 1535.67,-517 1535.67,-481.4 1328.45,-481.4"/>
<polygon fill="none" stroke="black" points="1328.45,-481.4 1328.45,-517 1535.67,-517 1535.67,-481.4 1328.45,-481.4"/>
<text text-anchor="start" x="1335.45" y="-494.8" font-family="Arial Bold" font-size="18.00">file_set_file_info</text>
<text text-anchor="start" x="1459.41" y="-494.8" font-family="Arial" font-size="14.00">    </text>
<text text-anchor="start" x="1490.53" y="-494.8" font-family="Arial" font-size="14.00" fill="#666666">[table]</text>
<polygon fill="none" stroke="black" points="1328.45,-450.6 1328.45,-481.4 1535.67,-481.4 1535.67,-450.6 1328.45,-450.6"/>
<text text-anchor="start" x="1335.45" y="-462.8" font-family="Arial" font-size="14.00">file_set_id </text>
<text text-anchor="start" x="1402.38" y="-462.8" font-family="Arial" font-size="14.00" fill="#666666">[INTEGER]</text>
<polygon fill="none" stroke="black" points="1328.45,-419.8 1328.45,-450.6 1535.67,-450.6 1535.67,-419.8 1328.45,-419.8"/>
<text text-anchor="start" x="1335.45" y="-432" font-family="Arial" font-size="14.00">file_info_id </text>
<text text-anchor="start" x="1406.28" y="-432" font-family="Arial" font-size="14.00" fill="#666666">[INTEGER]</text>
<polygon fill="none" stroke="black" points="1328.45,-389 1328.45,-419.8 1535.67,-419.8 1535.67,-389 1328.45,-389"/>
<text text-anchor="start" x="1335.45" y="-401.2" font-family="Arial" font-size="14.00">file_name </text>
<text text-anchor="start" x="1400.04" y="-401.2" font-family="Arial" font-size="14.00" fill="#666666">[TEXT]</text>
<polygon fill="none" stroke="black" points="1328.45,-358.2 1328.45,-389 1535.67,-389 1535.67,-358.2 1328.45,-358.2"/>
<text text-anchor="start" x="1335.45" y="-370.4" font-family="Arial" font-size="14.00">sort_order </text>
<text text-anchor="start" x="1403.15" y="-370.4" font-family="Arial" font-size="14.00" fill="#666666">[INTEGER]</text>
<polygon fill="none" stroke="black" stroke-width="3" points="1326.95,-356.7 1326.95,-518.5 1537.17,-518.5 1537.17,-356.7 1326.95,-356.7"/>
</g>
<!-- file_set -->
<g id="node2" class="node">
<title>file_set</title>
<polygon fill="#efefef" stroke="none" points="877.04,-197.2 877.04,-232.8 1017.08,-232.8 1017.08,-197.2 877.04,-197.2"/>
<polygon fill="none" stroke="black" points="877.04,-197.2 877.04,-232.8 1017.08,-232.8 1017.08,-197.2 877.04,-197.2"/>
<text text-anchor="start" x="885.94" y="-210.6" font-family="Arial Bold" font-size="18.00">file_set</text>
<text text-anchor="start" x="938.92" y="-210.6" font-family="Arial" font-size="14.00">    </text>
<text text-anchor="start" x="970.04" y="-210.6" font-family="Arial" font-size="14.00" fill="#666666">[table]</text>
<polygon fill="none" stroke="black" points="877.04,-166.4 877.04,-197.2 1017.08,-197.2 1017.08,-166.4 877.04,-166.4"/>
<text text-anchor="start" x="884.04" y="-178.6" font-family="Arial" font-size="14.00">id </text>
<text text-anchor="start" x="898.82" y="-178.6" font-family="Arial" font-size="14.00" fill="#666666">[INTEGER]</text>
<polygon fill="none" stroke="black" points="877.04,-135.6 877.04,-166.4 1017.08,-166.4 1017.08,-135.6 877.04,-135.6"/>
<text text-anchor="start" x="884.04" y="-147.8" font-family="Arial" font-size="14.00">file_name </text>
<text text-anchor="start" x="948.63" y="-147.8" font-family="Arial" font-size="14.00" fill="#666666">[TEXT]</text>
<polygon fill="none" stroke="black" points="877.04,-104.8 877.04,-135.6 1017.08,-135.6 1017.08,-104.8 877.04,-104.8"/>
<text text-anchor="start" x="884.04" y="-117" font-family="Arial" font-size="14.00">file_type </text>
<text text-anchor="start" x="940.07" y="-117" font-family="Arial" font-size="14.00" fill="#666666">[INTEGER]</text>
<polygon fill="none" stroke="black" points="877.04,-74 877.04,-104.8 1017.08,-104.8 1017.08,-74 877.04,-74"/>
<text text-anchor="start" x="884.04" y="-86.2" font-family="Arial" font-size="14.00">name </text>
<text text-anchor="start" x="922.95" y="-86.2" font-family="Arial" font-size="14.00" fill="#666666">[TEXT]</text>
<polygon fill="none" stroke="black" points="877.04,-43.2 877.04,-74 1017.08,-74 1017.08,-43.2 877.04,-43.2"/>
<text text-anchor="start" x="884.04" y="-55.4" font-family="Arial" font-size="14.00">source </text>
<text text-anchor="start" x="929.95" y="-55.4" font-family="Arial" font-size="14.00" fill="#666666">[TEXT]</text>
</g>
<!-- file_set_file_info&#45;&gt;file_set -->
<g id="edge1" class="edge">
<title>file_set_file_info:file_set_id&#45;&gt;file_set:id</title>
<path fill="none" stroke="black" d="M1317.09,-465.19C1261.51,-455.64 1318.35,-363.74 1273.06,-312 1189.24,-216.26 1145.32,-181.8 1018.08,-181.8"/>
<polygon fill="black" stroke="black" points="1317.15,-465.2 1326.77,-470.46 1322.47,-465.61 1326.78,-465.95 1326.78,-465.95 1326.78,-465.95 1322.47,-465.61 1327.47,-461.49 1317.15,-465.2"/>
<text text-anchor="start" x="1334.45" y="-476" font-family="Arial" font-size="10.00">FOREIGN KEY (file_set_id) REFERENCES file_set (id) ON UPDATE NO ACTION ON DELETE NO ACTION MATCH NONE</text>
</g>
<!-- file_info -->
<g id="node6" class="node">
<title>file_info</title>
<polygon fill="#efefef" stroke="none" points="1500.52,-197.2 1500.52,-232.8 1675.59,-232.8 1675.59,-197.2 1500.52,-197.2"/>
<polygon fill="none" stroke="black" points="1500.52,-197.2 1500.52,-232.8 1675.59,-232.8 1675.59,-197.2 1500.52,-197.2"/>
<text text-anchor="start" x="1522.44" y="-210.6" font-family="Arial Bold" font-size="18.00">file_info</text>
<text text-anchor="start" x="1584.42" y="-210.6" font-family="Arial" font-size="14.00">    </text>
<text text-anchor="start" x="1615.54" y="-210.6" font-family="Arial" font-size="14.00" fill="#666666">[table]</text>
<polygon fill="none" stroke="black" points="1500.52,-166.4 1500.52,-197.2 1675.59,-197.2 1675.59,-166.4 1500.52,-166.4"/>
<text text-anchor="start" x="1507.52" y="-178.6" font-family="Arial" font-size="14.00">id </text>
<text text-anchor="start" x="1522.31" y="-178.6" font-family="Arial" font-size="14.00" fill="#666666">[INTEGER]</text>
<polygon fill="none" stroke="black" points="1500.52,-135.6 1500.52,-166.4 1675.59,-166.4 1675.59,-135.6 1500.52,-135.6"/>
<text text-anchor="start" x="1507.52" y="-147.8" font-family="Arial" font-size="14.00">sha1_checksum </text>
<text text-anchor="start" x="1612.58" y="-147.8" font-family="Arial" font-size="14.00" fill="#666666">[BLOB]</text>
<polygon fill="none" stroke="black" points="1500.52,-104.8 1500.52,-135.6 1675.59,-135.6 1675.59,-104.8 1500.52,-104.8"/>
<text text-anchor="start" x="1507.52" y="-117" font-family="Arial" font-size="14.00">file_size </text>
<text text-anchor="start" x="1561.99" y="-117" font-family="Arial" font-size="14.00" fill="#666666">[INTEGER]</text>
<polygon fill="none" stroke="black" points="1500.52,-74 1500.52,-104.8 1675.59,-104.8 1675.59,-74 1500.52,-74"/>
<text text-anchor="start" x="1507.52" y="-86.2" font-family="Arial" font-size="14.00">archive_file_name </text>
<text text-anchor="start" x="1625.03" y="-86.2" font-family="Arial" font-size="14.00" fill="#666666">[TEXT]</text>
<polygon fill="none" stroke="black" points="1500.52,-43.2 1500.52,-74 1675.59,-74 1675.59,-43.2 1500.52,-43.2"/>
<text text-anchor="start" x="1507.52" y="-55.4" font-family="Arial" font-size="14.00">file_type </text>
<text text-anchor="start" x="1563.56" y="-55.4" font-family="Arial" font-size="14.00" fill="#666666">[INTEGER]</text>
</g>
<!-- file_set_file_info&#45;&gt;file_info -->
<g id="edge5" class="edge">
<title>file_set_file_info:file_info_id&#45;&gt;file_info:id</title>
<path fill="none" stroke="black" d="M1546.92,-434.16C1586.58,-425.1 1555.05,-359.07 1535.67,-312 1527.15,-291.33 1509.07,-296.66 1500.52,-276 1484.53,-237.31 1457.65,-181.8 1499.52,-181.8"/>
<polygon fill="black" stroke="black" points="1546.95,-434.15 1536.54,-430.69 1541.64,-434.69 1537.33,-435.13 1537.33,-435.13 1537.33,-435.13 1541.64,-434.69 1537.45,-439.64 1546.95,-434.15"/>
<text text-anchor="start" x="1543.67" y="-445.2" font-family="Arial" font-size="10.00">FOREIGN KEY (file_info_id) REFERENCES file_info (id) ON UPDATE NO ACTION ON DELETE NO ACTION MATCH NONE</text>
</g>
<!-- release_file_set -->
<g id="node3" class="node">
<title>release_file_set</title>
<polygon fill="#efefef" stroke="none" points="363.46,-450.6 363.46,-486.2 558.65,-486.2 558.65,-450.6 363.46,-450.6"/>
<polygon fill="none" stroke="black" points="363.46,-450.6 363.46,-486.2 558.65,-486.2 558.65,-450.6 363.46,-450.6"/>
<text text-anchor="start" x="370.46" y="-464" font-family="Arial Bold" font-size="18.00">release_file_set</text>
<text text-anchor="start" x="482.4" y="-464" font-family="Arial" font-size="14.00">    </text>
<text text-anchor="start" x="513.52" y="-464" font-family="Arial" font-size="14.00" fill="#666666">[table]</text>
<polygon fill="none" stroke="black" points="363.46,-419.8 363.46,-450.6 558.65,-450.6 558.65,-419.8 363.46,-419.8"/>
<text text-anchor="start" x="370.46" y="-432" font-family="Arial" font-size="14.00">release_id </text>
<text text-anchor="start" x="438.95" y="-432" font-family="Arial" font-size="14.00" fill="#666666">[INTEGER]</text>
<polygon fill="none" stroke="black" points="363.46,-389 363.46,-419.8 558.65,-419.8 558.65,-389 363.46,-389"/>
<text text-anchor="start" x="370.46" y="-401.2" font-family="Arial" font-size="14.00">file_set_id </text>
<text text-anchor="start" x="437.39" y="-401.2" font-family="Arial" font-size="14.00" fill="#666666">[INTEGER]</text>
</g>
<!-- release_file_set&#45;&gt;file_set -->
<g id="edge2" class="edge">
<title>release_file_set:file_set_id&#45;&gt;file_set:id</title>
<path fill="none" stroke="black" d="M569.75,-403.24C602.21,-394.74 579.79,-341.72 611.06,-312 706.18,-221.61 744.82,-181.8 876.04,-181.8"/>
<polygon fill="black" stroke="black" points="569.92,-403.22 559.47,-399.89 564.62,-403.83 560.32,-404.32 560.32,-404.32 560.32,-404.32 564.62,-403.83 560.5,-408.83 569.92,-403.22"/>
<text text-anchor="start" x="7" y="-414.4" font-family="Arial" font-size="10.00">FOREIGN KEY (file_set_id) REFERENCES file_set (id) ON UPDATE NO ACTION ON DELETE CASCADE MATCH NONE</text>
</g>
<!-- release_item_file_set -->
<g id="node4" class="node">
<title>release_item_file_set</title>
<polygon fill="#efefef" stroke="none" points="662.97,-450.6 662.97,-486.2 899.15,-486.2 899.15,-450.6 662.97,-450.6"/>
<polygon fill="none" stroke="black" points="662.97,-450.6 662.97,-486.2 899.15,-486.2 899.15,-450.6 662.97,-450.6"/>
<text text-anchor="start" x="669.97" y="-464" font-family="Arial Bold" font-size="18.00">release_item_file_set</text>
<text text-anchor="start" x="822.9" y="-464" font-family="Arial" font-size="14.00">    </text>
<text text-anchor="start" x="854.01" y="-464" font-family="Arial" font-size="14.00" fill="#666666">[table]</text>
<polygon fill="none" stroke="black" points="662.97,-419.8 662.97,-450.6 899.15,-450.6 899.15,-419.8 662.97,-419.8"/>
<text text-anchor="start" x="669.97" y="-432" font-family="Arial" font-size="14.00">release_item_id </text>
<text text-anchor="start" x="772.69" y="-432" font-family="Arial" font-size="14.00" fill="#666666">[INTEGER]</text>
<polygon fill="none" stroke="black" points="662.97,-389 662.97,-419.8 899.15,-419.8 899.15,-389 662.97,-389"/>
<text text-anchor="start" x="669.97" y="-401.2" font-family="Arial" font-size="14.00">file_set_id </text>
<text text-anchor="start" x="736.9" y="-401.2" font-family="Arial" font-size="14.00" fill="#666666">[INTEGER]</text>
</g>
<!-- release_item_file_set&#45;&gt;file_set -->
<g id="edge3" class="edge">
<title>release_item_file_set:file_set_id&#45;&gt;file_set:id</title>
<path fill="none" stroke="black" d="M909.85,-401.45C918.59,-392.81 902.6,-366.89 899.15,-345.8 887.28,-273.15 802.43,-181.8 876.04,-181.8"/>
<polygon fill="black" stroke="black" points="910.04,-401.39 899.16,-400 904.93,-402.94 900.79,-404.21 900.79,-404.21 900.79,-404.21 904.93,-402.94 901.78,-408.61 910.04,-401.39"/>
<text text-anchor="start" x="627.32" y="-388.4" font-family="Arial" font-size="10.00">FOREIGN KEY (file_set_id) REFERENCES file_set (id) ON UPDATE NO ACTION ON DELETE CASCADE MATCH NONE</text>
</g>
<!-- file_set_item_type -->
<g id="node5" class="node">
<title>file_set_item_type</title>
<polygon fill="#efefef" stroke="none" points="1003.45,-450.6 1003.45,-486.2 1220.67,-486.2 1220.67,-450.6 1003.45,-450.6"/>
<polygon fill="none" stroke="black" points="1003.45,-450.6 1003.45,-486.2 1220.67,-486.2 1220.67,-450.6 1003.45,-450.6"/>
<text text-anchor="start" x="1010.45" y="-464" font-family="Arial Bold" font-size="18.00">file_set_item_type</text>
<text text-anchor="start" x="1144.41" y="-464" font-family="Arial" font-size="14.00">    </text>
<text text-anchor="start" x="1175.53" y="-464" font-family="Arial" font-size="14.00" fill="#666666">[table]</text>
<polygon fill="none" stroke="black" points="1003.45,-419.8 1003.45,-450.6 1220.67,-450.6 1220.67,-419.8 1003.45,-419.8"/>
<text text-anchor="start" x="1010.45" y="-432" font-family="Arial" font-size="14.00">file_set_id </text>
<text text-anchor="start" x="1077.38" y="-432" font-family="Arial" font-size="14.00" fill="#666666">[INTEGER]</text>
<polygon fill="none" stroke="black" points="1003.45,-389 1003.45,-419.8 1220.67,-419.8 1220.67,-389 1003.45,-389"/>
<text text-anchor="start" x="1010.45" y="-401.2" font-family="Arial" font-size="14.00">item_type </text>
<text text-anchor="start" x="1075.04" y="-401.2" font-family="Arial" font-size="14.00" fill="#666666">[INTEGER]</text>
</g>
<!-- file_set_item_type&#45;&gt;file_set -->
<g id="edge4" class="edge">
<title>file_set_item_type:file_set_id&#45;&gt;file_set:id</title>
<path fill="none" stroke="black" d="M992.09,-434.33C905.69,-418.17 1127.06,-181.8 1018.08,-181.8"/>
<polygon fill="black" stroke="black" points="992.15,-434.34 1001.74,-439.66 997.47,-434.78 1001.78,-435.14 1001.78,-435.14 1001.78,-435.14 997.47,-434.78 1002.49,-430.69 992.15,-434.34"/>
<text text-anchor="start" x="449.79" y="-445.2" font-family="Arial" font-size="10.00">FOREIGN KEY (file_set_id) REFERENCES file_set (id) ON UPDATE NO ACTION ON DELETE CASCADE MATCH NONE</text>
</g>
<!-- file_info_system -->
<g id="node7" class="node">
<title>file_info_system</title>
<polygon fill="#efefef" stroke="none" points="1642.94,-450.6 1642.94,-486.2 1847.18,-486.2 1847.18,-450.6 1642.94,-450.6"/>
<polygon fill="none" stroke="black" points="1642.94,-450.6 1642.94,-486.2 1847.18,-486.2 1847.18,-450.6 1642.94,-450.6"/>
<text text-anchor="start" x="1649.94" y="-464" font-family="Arial Bold" font-size="18.00">file_info_system</text>
<text text-anchor="start" x="1770.92" y="-464" font-family="Arial" font-size="14.00">    </text>
<text text-anchor="start" x="1802.04" y="-464" font-family="Arial" font-size="14.00" fill="#666666">[table]</text>
<polygon fill="none" stroke="black" points="1642.94,-419.8 1642.94,-450.6 1847.18,-450.6 1847.18,-419.8 1642.94,-419.8"/>
<text text-anchor="start" x="1649.94" y="-432" font-family="Arial" font-size="14.00">file_info_id </text>
<text text-anchor="start" x="1720.77" y="-432" font-family="Arial" font-size="14.00" fill="#666666">[INTEGER]</text>
<polygon fill="none" stroke="black" points="1642.94,-389 1642.94,-419.8 1847.18,-419.8 1847.18,-389 1642.94,-389"/>
<text text-anchor="start" x="1649.94" y="-401.2" font-family="Arial" font-size="14.00">system_id </text>
<text text-anchor="start" x="1716.85" y="-401.2" font-family="Arial" font-size="14.00" fill="#666666">[INTEGER]</text>
</g>
<!-- file_info_system&#45;&gt;file_info -->
<g id="edge6" class="edge">
<title>file_info_system:file_info_id&#45;&gt;file_info:id</title>
<path fill="none" stroke="black" d="M1631.57,-434.33C1545.74,-418.17 1786.38,-181.8 1676.59,-181.8"/>
<polygon fill="black" stroke="black" points="1631.64,-434.34 1641.23,-439.66 1636.96,-434.78 1641.27,-435.14 1641.27,-435.14 1641.27,-435.14 1636.96,-434.78 1641.98,-430.69 1631.64,-434.34"/>
<text text-anchor="start" x="1648.94" y="-419.2" font-family="Arial" font-size="10.00">FOREIGN KEY (file_info_id) REFERENCES file_info (id) ON UPDATE NO ACTION ON DELETE CASCADE MATCH NONE</text>
</g>
</g>
</svg>
