<?xml version="1.0" encoding="UTF-8" standalone="no"?>
<!DOCTYPE svg PUBLIC "-//W3C//DTD SVG 1.1//EN"
 "http://www.w3.org/Graphics/SVG/1.1/DTD/svg11.dtd">
<!-- Generated by graphviz version 12.1.2 (20240928.0832)
 -->
<!-- Title: file_info Pages: 1 -->
<svg width="1610pt" height="540pt"
 viewBox="0.00 0.00 1610.31 540.40" xmlns="http://www.w3.org/2000/svg" xmlns:xlink="http://www.w3.org/1999/xlink">
<g id="graph0" class="graph" transform="scale(1 1) rotate(0) translate(4 536.4)">
<title>file_info</title>
<polygon fill="white" stroke="none" points="-4,4 -4,-536.4 1606.31,-536.4 1606.31,4 -4,4"/>
<!-- file_info -->
<g id="node1" class="node">
<title>file_info</title>
<polygon fill="#efefef" stroke="none" points="740.94,-200.2 740.94,-235.8 916.01,-235.8 916.01,-200.2 740.94,-200.2"/>
<polygon fill="none" stroke="black" points="740.94,-200.2 740.94,-235.8 916.01,-235.8 916.01,-200.2 740.94,-200.2"/>
<text text-anchor="start" x="762.86" y="-213.6" font-family="Arial Bold" font-size="18.00">file_info</text>
<text text-anchor="start" x="824.84" y="-213.6" font-family="Arial" font-size="14.00">    </text>
<text text-anchor="start" x="855.95" y="-213.6" font-family="Arial" font-size="14.00" fill="#666666">[table]</text>
<polygon fill="none" stroke="black" points="740.94,-169.4 740.94,-200.2 916.01,-200.2 916.01,-169.4 740.94,-169.4"/>
<text text-anchor="start" x="747.94" y="-181.6" font-family="Arial" font-size="14.00">id </text>
<text text-anchor="start" x="762.73" y="-181.6" font-family="Arial" font-size="14.00" fill="#666666">[INTEGER]</text>
<polygon fill="none" stroke="black" points="740.94,-138.6 740.94,-169.4 916.01,-169.4 916.01,-138.6 740.94,-138.6"/>
<text text-anchor="start" x="747.94" y="-150.8" font-family="Arial" font-size="14.00">sha1_checksum </text>
<text text-anchor="start" x="852.99" y="-150.8" font-family="Arial" font-size="14.00" fill="#666666">[BLOB]</text>
<polygon fill="none" stroke="black" points="740.94,-107.8 740.94,-138.6 916.01,-138.6 916.01,-107.8 740.94,-107.8"/>
<text text-anchor="start" x="747.94" y="-120" font-family="Arial" font-size="14.00">file_size </text>
<text text-anchor="start" x="802.41" y="-120" font-family="Arial" font-size="14.00" fill="#666666">[INTEGER]</text>
<polygon fill="none" stroke="black" points="740.94,-77 740.94,-107.8 916.01,-107.8 916.01,-77 740.94,-77"/>
<text text-anchor="start" x="747.94" y="-89.2" font-family="Arial" font-size="14.00">archive_file_name </text>
<text text-anchor="start" x="865.45" y="-89.2" font-family="Arial" font-size="14.00" fill="#666666">[TEXT]</text>
<polygon fill="none" stroke="black" points="740.94,-46.2 740.94,-77 916.01,-77 916.01,-46.2 740.94,-46.2"/>
<text text-anchor="start" x="747.94" y="-58.4" font-family="Arial" font-size="14.00">file_type </text>
<text text-anchor="start" x="803.97" y="-58.4" font-family="Arial" font-size="14.00" fill="#666666">[INTEGER]</text>
<polygon fill="none" stroke="black" stroke-width="3" points="739.44,-44.7 739.44,-237.3 917.51,-237.3 917.51,-44.7 739.44,-44.7"/>
</g>
<!-- file_set_file_info -->
<g id="node2" class="node">
<title>file_set_file_info</title>
<polygon fill="#efefef" stroke="none" points="567.87,-453.6 567.87,-489.2 775.08,-489.2 775.08,-453.6 567.87,-453.6"/>
<polygon fill="none" stroke="black" points="567.87,-453.6 567.87,-489.2 775.08,-489.2 775.08,-453.6 567.87,-453.6"/>
<text text-anchor="start" x="574.87" y="-467" font-family="Arial Bold" font-size="18.00">file_set_file_info</text>
<text text-anchor="start" x="698.83" y="-467" font-family="Arial" font-size="14.00">    </text>
<text text-anchor="start" x="729.94" y="-467" font-family="Arial" font-size="14.00" fill="#666666">[table]</text>
<polygon fill="none" stroke="black" points="567.87,-422.8 567.87,-453.6 775.08,-453.6 775.08,-422.8 567.87,-422.8"/>
<text text-anchor="start" x="574.87" y="-435" font-family="Arial" font-size="14.00">file_set_id </text>
<text text-anchor="start" x="641.8" y="-435" font-family="Arial" font-size="14.00" fill="#666666">[INTEGER]</text>
<polygon fill="none" stroke="black" points="567.87,-392 567.87,-422.8 775.08,-422.8 775.08,-392 567.87,-392"/>
<text text-anchor="start" x="574.87" y="-404.2" font-family="Arial" font-size="14.00">file_info_id </text>
<text text-anchor="start" x="645.69" y="-404.2" font-family="Arial" font-size="14.00" fill="#666666">[INTEGER]</text>
<polygon fill="none" stroke="black" points="567.87,-361.2 567.87,-392 775.08,-392 775.08,-361.2 567.87,-361.2"/>
<text text-anchor="start" x="574.87" y="-373.4" font-family="Arial" font-size="14.00">file_name </text>
<text text-anchor="start" x="639.46" y="-373.4" font-family="Arial" font-size="14.00" fill="#666666">[TEXT]</text>
</g>
<!-- file_set_file_info&#45;&gt;file_info -->
<g id="edge1" class="edge">
<title>file_set_file_info:file_info_id&#45;&gt;file_info:id</title>
<path fill="none" stroke="black" d="M786.24,-405.84C810.69,-396.88 788.49,-351.09 775.08,-318 766.8,-297.56 749.21,-302.44 740.94,-282 724.73,-241.95 696.74,-184.8 739.94,-184.8"/>
<polygon fill="black" stroke="black" points="786.3,-405.84 775.73,-402.9 781.02,-406.64 776.74,-407.3 776.74,-407.3 776.74,-407.3 781.02,-406.64 777.09,-411.8 786.3,-405.84"/>
<text text-anchor="start" x="210.65" y="-417.4" font-family="Arial" font-size="10.00">FOREIGN KEY (file_info_id) REFERENCES file_info (id) ON UPDATE NO ACTION ON DELETE NO ACTION MATCH NONE</text>
</g>
<!-- file_set -->
<g id="node3" class="node">
<title>file_set</title>
<polygon fill="#efefef" stroke="none" points="493.45,-200.2 493.45,-235.8 633.49,-235.8 633.49,-200.2 493.45,-200.2"/>
<polygon fill="none" stroke="black" points="493.45,-200.2 493.45,-235.8 633.49,-235.8 633.49,-200.2 493.45,-200.2"/>
<text text-anchor="start" x="502.36" y="-213.6" font-family="Arial Bold" font-size="18.00">file_set</text>
<text text-anchor="start" x="555.34" y="-213.6" font-family="Arial" font-size="14.00">    </text>
<text text-anchor="start" x="586.45" y="-213.6" font-family="Arial" font-size="14.00" fill="#666666">[table]</text>
<polygon fill="none" stroke="black" points="493.45,-169.4 493.45,-200.2 633.49,-200.2 633.49,-169.4 493.45,-169.4"/>
<text text-anchor="start" x="500.45" y="-181.6" font-family="Arial" font-size="14.00">id </text>
<text text-anchor="start" x="515.24" y="-181.6" font-family="Arial" font-size="14.00" fill="#666666">[INTEGER]</text>
<polygon fill="none" stroke="black" points="493.45,-138.6 493.45,-169.4 633.49,-169.4 633.49,-138.6 493.45,-138.6"/>
<text text-anchor="start" x="500.45" y="-150.8" font-family="Arial" font-size="14.00">file_name </text>
<text text-anchor="start" x="565.05" y="-150.8" font-family="Arial" font-size="14.00" fill="#666666">[TEXT]</text>
<polygon fill="none" stroke="black" points="493.45,-107.8 493.45,-138.6 633.49,-138.6 633.49,-107.8 493.45,-107.8"/>
<text text-anchor="start" x="500.45" y="-120" font-family="Arial" font-size="14.00">file_type </text>
<text text-anchor="start" x="556.49" y="-120" font-family="Arial" font-size="14.00" fill="#666666">[INTEGER]</text>
<polygon fill="none" stroke="black" points="493.45,-77 493.45,-107.8 633.49,-107.8 633.49,-77 493.45,-77"/>
<text text-anchor="start" x="500.45" y="-89.2" font-family="Arial" font-size="14.00">name </text>
<text text-anchor="start" x="539.36" y="-89.2" font-family="Arial" font-size="14.00" fill="#666666">[TEXT]</text>
<polygon fill="none" stroke="black" points="493.45,-46.2 493.45,-77 633.49,-77 633.49,-46.2 493.45,-46.2"/>
<text text-anchor="start" x="500.45" y="-58.4" font-family="Arial" font-size="14.00">source </text>
<text text-anchor="start" x="546.36" y="-58.4" font-family="Arial" font-size="14.00" fill="#666666">[TEXT]</text>
</g>
<!-- file_set_file_info&#45;&gt;file_set -->
<g id="edge2" class="edge">
<title>file_set_file_info:file_set_id&#45;&gt;file_set:id</title>
<path fill="none" stroke="black" d="M556.77,-437.14C517.35,-427.95 543.12,-361.07 567.87,-318 584.77,-288.58 616.56,-308.4 633.49,-279 654.39,-242.72 676.36,-184.8 634.49,-184.8"/>
<polygon fill="black" stroke="black" points="556.59,-437.12 566.06,-442.64 561.89,-437.68 566.2,-438.13 566.2,-438.13 566.2,-438.13 561.89,-437.68 567,-433.69 556.59,-437.12"/>
<text text-anchor="start" x="7" y="-448.2" font-family="Arial" font-size="10.00">FOREIGN KEY (file_set_id) REFERENCES file_set (id) ON UPDATE NO ACTION ON DELETE NO ACTION MATCH NONE</text>
</g>
<!-- file_info_system -->
<g id="node4" class="node">
<title>file_info_system</title>
<polygon fill="#efefef" stroke="none" points="933.36,-438.2 933.36,-473.8 1137.59,-473.8 1137.59,-438.2 933.36,-438.2"/>
<polygon fill="none" stroke="black" points="933.36,-438.2 933.36,-473.8 1137.59,-473.8 1137.59,-438.2 933.36,-438.2"/>
<text text-anchor="start" x="940.36" y="-451.6" font-family="Arial Bold" font-size="18.00">file_info_system</text>
<text text-anchor="start" x="1061.34" y="-451.6" font-family="Arial" font-size="14.00">    </text>
<text text-anchor="start" x="1092.45" y="-451.6" font-family="Arial" font-size="14.00" fill="#666666">[table]</text>
<polygon fill="none" stroke="black" points="933.36,-407.4 933.36,-438.2 1137.59,-438.2 1137.59,-407.4 933.36,-407.4"/>
<text text-anchor="start" x="940.36" y="-419.6" font-family="Arial" font-size="14.00">file_info_id </text>
<text text-anchor="start" x="1011.18" y="-419.6" font-family="Arial" font-size="14.00" fill="#666666">[INTEGER]</text>
<polygon fill="none" stroke="black" points="933.36,-376.6 933.36,-407.4 1137.59,-407.4 1137.59,-376.6 933.36,-376.6"/>
<text text-anchor="start" x="940.36" y="-388.8" font-family="Arial" font-size="14.00">system_id </text>
<text text-anchor="start" x="1007.27" y="-388.8" font-family="Arial" font-size="14.00" fill="#666666">[INTEGER]</text>
</g>
<!-- file_info_system&#45;&gt;file_info -->
<g id="edge3" class="edge">
<title>file_info_system:file_info_id&#45;&gt;file_info:id</title>
<path fill="none" stroke="black" d="M922.27,-421.94C839.81,-406.36 1019.28,-184.8 917.01,-184.8"/>
<polygon fill="black" stroke="black" points="922.06,-421.92 931.64,-427.26 927.37,-422.37 931.69,-422.74 931.69,-422.74 931.69,-422.74 927.37,-422.37 932.41,-418.29 922.06,-421.92"/>
<text text-anchor="start" x="939.36" y="-432.8" font-family="Arial" font-size="10.00">FOREIGN KEY (file_info_id) REFERENCES file_info (id) ON UPDATE NO ACTION ON DELETE CASCADE MATCH NONE</text>
</g>
<!-- system -->
<g id="node5" class="node">
<title>system</title>
<polygon fill="#efefef" stroke="none" points="1023.85,-154 1023.85,-189.6 1157.1,-189.6 1157.1,-154 1023.85,-154"/>
<polygon fill="none" stroke="black" points="1023.85,-154 1023.85,-189.6 1157.1,-189.6 1157.1,-154 1023.85,-154"/>
<text text-anchor="start" x="1030.85" y="-167.4" font-family="Arial Bold" font-size="18.00">system</text>
<text text-anchor="start" x="1080.85" y="-167.4" font-family="Arial" font-size="14.00">    </text>
<text text-anchor="start" x="1111.96" y="-167.4" font-family="Arial" font-size="14.00" fill="#666666">[table]</text>
<polygon fill="none" stroke="black" points="1023.85,-123.2 1023.85,-154 1157.1,-154 1157.1,-123.2 1023.85,-123.2"/>
<text text-anchor="start" x="1030.85" y="-135.4" font-family="Arial" font-size="14.00">id </text>
<text text-anchor="start" x="1045.63" y="-135.4" font-family="Arial" font-size="14.00" fill="#666666">[INTEGER]</text>
<polygon fill="none" stroke="black" points="1023.85,-92.4 1023.85,-123.2 1157.1,-123.2 1157.1,-92.4 1023.85,-92.4"/>
<text text-anchor="start" x="1030.85" y="-104.6" font-family="Arial" font-size="14.00">name </text>
<text text-anchor="start" x="1069.76" y="-104.6" font-family="Arial" font-size="14.00" fill="#666666">[TEXT]</text>
</g>
<!-- file_info_system&#45;&gt;system -->
<g id="edge4" class="edge">
<title>file_info_system:system_id&#45;&gt;system:id</title>
<path fill="none" stroke="black" d="M1035.12,-365.33C1028.09,-261.78 920.76,-138.6 1022.85,-138.6"/>
<polygon fill="black" stroke="black" points="1035.12,-365.27 1030.97,-375.42 1035.3,-370.6 1035.45,-374.93 1035.45,-374.93 1035.45,-374.93 1035.3,-370.6 1039.96,-375.11 1035.12,-365.27"/>
<text text-anchor="start" x="1042.47" y="-385.6" font-family="Arial" font-size="10.00">FOREIGN KEY (system_id) REFERENCES system (id) ON UPDATE NO ACTION ON DELETE NO ACTION MATCH NONE</text>
</g>
</g>
</svg>
