<?xml version="1.0" encoding="UTF-8" standalone="no"?>
<!DOCTYPE svg PUBLIC "-//W3C//DTD SVG 1.1//EN"
 "http://www.w3.org/Graphics/SVG/1.1/DTD/svg11.dtd">
<!-- Generated by graphviz version 12.1.2 (20240928.0832)
 -->
<!-- Title: file_set_file_info Pages: 1 -->
<svg width="2557pt" height="633pt"
 viewBox="0.00 0.00 2557.16 632.80" xmlns="http://www.w3.org/2000/svg" xmlns:xlink="http://www.w3.org/1999/xlink">
<g id="graph0" class="graph" transform="scale(1 1) rotate(0) translate(4 628.8)">
<title>file_set_file_info</title>
<polygon fill="white" stroke="none" points="-4,4 -4,-628.8 2553.16,-628.8 2553.16,4 -4,4"/>
<!-- file_set_file_info -->
<g id="node1" class="node">
<title>file_set_file_info</title>
<polygon fill="#efefef" stroke="none" points="1670.45,-543 1670.45,-578.6 1877.67,-578.6 1877.67,-543 1670.45,-543"/>
<polygon fill="none" stroke="black" points="1670.45,-543 1670.45,-578.6 1877.67,-578.6 1877.67,-543 1670.45,-543"/>
<text text-anchor="start" x="1677.45" y="-556.4" font-family="Arial Bold" font-size="18.00">file_set_file_info</text>
<text text-anchor="start" x="1801.41" y="-556.4" font-family="Arial" font-size="14.00">    </text>
<text text-anchor="start" x="1832.53" y="-556.4" font-family="Arial" font-size="14.00" fill="#666666">[table]</text>
<polygon fill="none" stroke="black" points="1670.45,-512.2 1670.45,-543 1877.67,-543 1877.67,-512.2 1670.45,-512.2"/>
<text text-anchor="start" x="1677.45" y="-524.4" font-family="Arial" font-size="14.00">file_set_id </text>
<text text-anchor="start" x="1744.38" y="-524.4" font-family="Arial" font-size="14.00" fill="#666666">[INTEGER]</text>
<polygon fill="none" stroke="black" points="1670.45,-481.4 1670.45,-512.2 1877.67,-512.2 1877.67,-481.4 1670.45,-481.4"/>
<text text-anchor="start" x="1677.45" y="-493.6" font-family="Arial" font-size="14.00">file_info_id </text>
<text text-anchor="start" x="1748.28" y="-493.6" font-family="Arial" font-size="14.00" fill="#666666">[INTEGER]</text>
<polygon fill="none" stroke="black" points="1670.45,-450.6 1670.45,-481.4 1877.67,-481.4 1877.67,-450.6 1670.45,-450.6"/>
<text text-anchor="start" x="1677.45" y="-462.8" font-family="Arial" font-size="14.00">file_name </text>
<text text-anchor="start" x="1742.04" y="-462.8" font-family="Arial" font-size="14.00" fill="#666666">[TEXT]</text>
<polygon fill="none" stroke="black" points="1670.45,-419.8 1670.45,-450.6 1877.67,-450.6 1877.67,-419.8 1670.45,-419.8"/>
<text text-anchor="start" x="1677.45" y="-432" font-family="Arial" font-size="14.00">sort_order </text>
<text text-anchor="start" x="1745.15" y="-432" font-family="Arial" font-size="14.00" fill="#666666">[INTEGER]</text>
<polygon fill="none" stroke="black" stroke-width="3" points="1668.95,-418.3 1668.95,-580.1 1879.17,-580.1 1879.17,-418.3 1668.95,-418.3"/>
</g>
<!-- file_set -->
<g id="node2" class="node">
<title>file_set</title>
<polygon fill="#efefef" stroke="none" points="1042.04,-228 1042.04,-263.6 1182.08,-263.6 1182.08,-228 1042.04,-228"/>
<polygon fill="none" stroke="black" points="1042.04,-228 1042.04,-263.6 1182.08,-263.6 1182.08,-228 1042.04,-228"/>
<text text-anchor="start" x="1050.94" y="-241.4" font-family="Arial Bold" font-size="18.00">file_set</text>
<text text-anchor="start" x="1103.92" y="-241.4" font-family="Arial" font-size="14.00">    </text>
<text text-anchor="start" x="1135.04" y="-241.4" font-family="Arial" font-size="14.00" fill="#666666">[table]</text>
<polygon fill="none" stroke="black" points="1042.04,-197.2 1042.04,-228 1182.08,-228 1182.08,-197.2 1042.04,-197.2"/>
<text text-anchor="start" x="1049.04" y="-209.4" font-family="Arial" font-size="14.00">id </text>
<text text-anchor="start" x="1063.82" y="-209.4" font-family="Arial" font-size="14.00" fill="#666666">[INTEGER]</text>
<polygon fill="none" stroke="black" points="1042.04,-166.4 1042.04,-197.2 1182.08,-197.2 1182.08,-166.4 1042.04,-166.4"/>
<text text-anchor="start" x="1049.04" y="-178.6" font-family="Arial" font-size="14.00">file_name </text>
<text text-anchor="start" x="1113.63" y="-178.6" font-family="Arial" font-size="14.00" fill="#666666">[TEXT]</text>
<polygon fill="none" stroke="black" points="1042.04,-135.6 1042.04,-166.4 1182.08,-166.4 1182.08,-135.6 1042.04,-135.6"/>
<text text-anchor="start" x="1049.04" y="-147.8" font-family="Arial" font-size="14.00">file_type </text>
<text text-anchor="start" x="1105.07" y="-147.8" font-family="Arial" font-size="14.00" fill="#666666">[INTEGER]</text>
<polygon fill="none" stroke="black" points="1042.04,-104.8 1042.04,-135.6 1182.08,-135.6 1182.08,-104.8 1042.04,-104.8"/>
<text text-anchor="start" x="1049.04" y="-117" font-family="Arial" font-size="14.00">name </text>
<text text-anchor="start" x="1087.95" y="-117" font-family="Arial" font-size="14.00" fill="#666666">[TEXT]</text>
<polygon fill="none" stroke="black" points="1042.04,-74 1042.04,-104.8 1182.08,-104.8 1182.08,-74 1042.04,-74"/>
<text text-anchor="start" x="1049.04" y="-86.2" font-family="Arial" font-size="14.00">source </text>
<text text-anchor="start" x="1094.95" y="-86.2" font-family="Arial" font-size="14.00" fill="#666666">[TEXT]</text>
</g>
<!-- file_set_file_info&#45;&gt;file_set -->
<g id="edge1" class="edge">
<title>file_set_file_info:file_set_id&#45;&gt;file_set:id</title>
<path fill="none" stroke="black" d="M1659.11,-526.77C1603.81,-516.96 1663.26,-422.64 1615.06,-373.6 1471.43,-227.48 1387.97,-212.6 1183.08,-212.6"/>
<polygon fill="black" stroke="black" points="1659.15,-526.77 1668.76,-532.06 1664.47,-527.2 1668.78,-527.55 1668.78,-527.55 1668.78,-527.55 1664.47,-527.2 1669.48,-523.09 1659.15,-526.77"/>
<text text-anchor="start" x="1676.45" y="-537.6" font-family="Arial" font-size="10.00">FOREIGN KEY (file_set_id) REFERENCES file_set (id) ON UPDATE NO ACTION ON DELETE CASCADE MATCH NONE</text>
</g>
<!-- file_info -->
<g id="node7" class="node">
<title>file_info</title>
<polygon fill="#efefef" stroke="none" points="1828.52,-258.8 1828.52,-294.4 2031.6,-294.4 2031.6,-258.8 1828.52,-258.8"/>
<polygon fill="none" stroke="black" points="1828.52,-258.8 1828.52,-294.4 2031.6,-294.4 2031.6,-258.8 1828.52,-258.8"/>
<text text-anchor="start" x="1864.44" y="-272.2" font-family="Arial Bold" font-size="18.00">file_info</text>
<text text-anchor="start" x="1926.42" y="-272.2" font-family="Arial" font-size="14.00">    </text>
<text text-anchor="start" x="1957.54" y="-272.2" font-family="Arial" font-size="14.00" fill="#666666">[table]</text>
<polygon fill="none" stroke="black" points="1828.52,-228 1828.52,-258.8 2031.6,-258.8 2031.6,-228 1828.52,-228"/>
<text text-anchor="start" x="1835.52" y="-240.2" font-family="Arial" font-size="14.00">id </text>
<text text-anchor="start" x="1850.31" y="-240.2" font-family="Arial" font-size="14.00" fill="#666666">[INTEGER]</text>
<polygon fill="none" stroke="black" points="1828.52,-197.2 1828.52,-228 2031.6,-228 2031.6,-197.2 1828.52,-197.2"/>
<text text-anchor="start" x="1835.52" y="-209.4" font-family="Arial" font-size="14.00">sha1_checksum </text>
<text text-anchor="start" x="1940.58" y="-209.4" font-family="Arial" font-size="14.00" fill="#666666">[BLOB]</text>
<polygon fill="none" stroke="black" points="1828.52,-166.4 1828.52,-197.2 2031.6,-197.2 2031.6,-166.4 1828.52,-166.4"/>
<text text-anchor="start" x="1835.52" y="-178.6" font-family="Arial" font-size="14.00">file_size </text>
<text text-anchor="start" x="1889.99" y="-178.6" font-family="Arial" font-size="14.00" fill="#666666">[INTEGER]</text>
<polygon fill="none" stroke="black" points="1828.52,-135.6 1828.52,-166.4 2031.6,-166.4 2031.6,-135.6 1828.52,-135.6"/>
<text text-anchor="start" x="1835.52" y="-147.8" font-family="Arial" font-size="14.00">archive_file_name </text>
<text text-anchor="start" x="1953.03" y="-147.8" font-family="Arial" font-size="14.00" fill="#666666">[TEXT]</text>
<polygon fill="none" stroke="black" points="1828.52,-104.8 1828.52,-135.6 2031.6,-135.6 2031.6,-104.8 1828.52,-104.8"/>
<text text-anchor="start" x="1835.52" y="-117" font-family="Arial" font-size="14.00">file_type </text>
<text text-anchor="start" x="1891.55" y="-117" font-family="Arial" font-size="14.00" fill="#666666">[INTEGER]</text>
<polygon fill="none" stroke="black" points="1828.52,-74 1828.52,-104.8 2031.6,-104.8 2031.6,-74 1828.52,-74"/>
<text text-anchor="start" x="1835.52" y="-86.2" font-family="Arial" font-size="14.00">is_available </text>
<text text-anchor="start" x="1912.57" y="-86.2" font-family="Arial" font-size="14.00" fill="#666666">[INTEGER]</text>
<polygon fill="none" stroke="black" points="1828.52,-43.2 1828.52,-74 2031.6,-74 2031.6,-43.2 1828.52,-43.2"/>
<text text-anchor="start" x="1835.52" y="-55.4" font-family="Arial" font-size="14.00">cloud_sync_status </text>
<text text-anchor="start" x="1954.59" y="-55.4" font-family="Arial" font-size="14.00" fill="#666666">[INTEGER]</text>
</g>
<!-- file_set_file_info&#45;&gt;file_info -->
<g id="edge6" class="edge">
<title>file_set_file_info:file_info_id&#45;&gt;file_info:id</title>
<path fill="none" stroke="black" d="M1888.98,-495.73C1929.12,-486.46 1900.87,-418.91 1877.67,-373.6 1865.32,-349.5 1840.89,-361.68 1828.52,-337.6 1809.39,-300.36 1785.65,-243.4 1827.52,-243.4"/>
<polygon fill="black" stroke="black" points="1888.95,-495.73 1878.53,-492.29 1883.64,-496.28 1879.33,-496.73 1879.33,-496.73 1879.33,-496.73 1883.64,-496.28 1879.46,-501.24 1888.95,-495.73"/>
<text text-anchor="start" x="1885.67" y="-506.8" font-family="Arial" font-size="10.00">FOREIGN KEY (file_info_id) REFERENCES file_info (id) ON UPDATE NO ACTION ON DELETE CASCADE MATCH NONE</text>
</g>
<!-- release_file_set -->
<g id="node3" class="node">
<title>release_file_set</title>
<polygon fill="#efefef" stroke="none" points="363.46,-512.2 363.46,-547.8 558.65,-547.8 558.65,-512.2 363.46,-512.2"/>
<polygon fill="none" stroke="black" points="363.46,-512.2 363.46,-547.8 558.65,-547.8 558.65,-512.2 363.46,-512.2"/>
<text text-anchor="start" x="370.46" y="-525.6" font-family="Arial Bold" font-size="18.00">release_file_set</text>
<text text-anchor="start" x="482.4" y="-525.6" font-family="Arial" font-size="14.00">    </text>
<text text-anchor="start" x="513.52" y="-525.6" font-family="Arial" font-size="14.00" fill="#666666">[table]</text>
<polygon fill="none" stroke="black" points="363.46,-481.4 363.46,-512.2 558.65,-512.2 558.65,-481.4 363.46,-481.4"/>
<text text-anchor="start" x="370.46" y="-493.6" font-family="Arial" font-size="14.00">release_id </text>
<text text-anchor="start" x="438.95" y="-493.6" font-family="Arial" font-size="14.00" fill="#666666">[INTEGER]</text>
<polygon fill="none" stroke="black" points="363.46,-450.6 363.46,-481.4 558.65,-481.4 558.65,-450.6 363.46,-450.6"/>
<text text-anchor="start" x="370.46" y="-462.8" font-family="Arial" font-size="14.00">file_set_id </text>
<text text-anchor="start" x="437.39" y="-462.8" font-family="Arial" font-size="14.00" fill="#666666">[INTEGER]</text>
</g>
<!-- release_file_set&#45;&gt;file_set -->
<g id="edge2" class="edge">
<title>release_file_set:file_set_id&#45;&gt;file_set:id</title>
<path fill="none" stroke="black" d="M569.72,-464.8C601.98,-456.08 578.36,-401.74 611.06,-373.6 765.72,-240.48 836.98,-212.6 1041.04,-212.6"/>
<polygon fill="black" stroke="black" points="569.92,-464.78 559.46,-461.49 564.62,-465.41 560.32,-465.92 560.32,-465.92 560.32,-465.92 564.62,-465.41 560.52,-470.43 569.92,-464.78"/>
<text text-anchor="start" x="7" y="-476" font-family="Arial" font-size="10.00">FOREIGN KEY (file_set_id) REFERENCES file_set (id) ON UPDATE NO ACTION ON DELETE CASCADE MATCH NONE</text>
</g>
<!-- release_item_file_set -->
<g id="node4" class="node">
<title>release_item_file_set</title>
<polygon fill="#efefef" stroke="none" points="662.97,-512.2 662.97,-547.8 899.15,-547.8 899.15,-512.2 662.97,-512.2"/>
<polygon fill="none" stroke="black" points="662.97,-512.2 662.97,-547.8 899.15,-547.8 899.15,-512.2 662.97,-512.2"/>
<text text-anchor="start" x="669.97" y="-525.6" font-family="Arial Bold" font-size="18.00">release_item_file_set</text>
<text text-anchor="start" x="822.9" y="-525.6" font-family="Arial" font-size="14.00">    </text>
<text text-anchor="start" x="854.01" y="-525.6" font-family="Arial" font-size="14.00" fill="#666666">[table]</text>
<polygon fill="none" stroke="black" points="662.97,-481.4 662.97,-512.2 899.15,-512.2 899.15,-481.4 662.97,-481.4"/>
<text text-anchor="start" x="669.97" y="-493.6" font-family="Arial" font-size="14.00">release_item_id </text>
<text text-anchor="start" x="772.69" y="-493.6" font-family="Arial" font-size="14.00" fill="#666666">[INTEGER]</text>
<polygon fill="none" stroke="black" points="662.97,-450.6 662.97,-481.4 899.15,-481.4 899.15,-450.6 662.97,-450.6"/>
<text text-anchor="start" x="669.97" y="-462.8" font-family="Arial" font-size="14.00">file_set_id </text>
<text text-anchor="start" x="736.9" y="-462.8" font-family="Arial" font-size="14.00" fill="#666666">[INTEGER]</text>
</g>
<!-- release_item_file_set&#45;&gt;file_set -->
<g id="edge3" class="edge">
<title>release_item_file_set:file_set_id&#45;&gt;file_set:id</title>
<path fill="none" stroke="black" d="M910.42,-465C944.24,-457.64 930.17,-411.23 951.06,-373.6 990.83,-301.92 959.07,-212.6 1041.04,-212.6"/>
<polygon fill="black" stroke="black" points="910.44,-465 900.05,-461.49 905.13,-465.51 900.82,-465.93 900.82,-465.93 900.82,-465.93 905.13,-465.51 900.92,-470.45 910.44,-465"/>
<text text-anchor="start" x="347.5" y="-450" font-family="Arial" font-size="10.00">FOREIGN KEY (file_set_id) REFERENCES file_set (id) ON UPDATE NO ACTION ON DELETE CASCADE MATCH NONE</text>
</g>
<!-- file_set_item_type -->
<g id="node5" class="node">
<title>file_set_item_type</title>
<polygon fill="#efefef" stroke="none" points="1003.45,-512.2 1003.45,-547.8 1220.67,-547.8 1220.67,-512.2 1003.45,-512.2"/>
<polygon fill="none" stroke="black" points="1003.45,-512.2 1003.45,-547.8 1220.67,-547.8 1220.67,-512.2 1003.45,-512.2"/>
<text text-anchor="start" x="1010.45" y="-525.6" font-family="Arial Bold" font-size="18.00">file_set_item_type</text>
<text text-anchor="start" x="1144.41" y="-525.6" font-family="Arial" font-size="14.00">    </text>
<text text-anchor="start" x="1175.53" y="-525.6" font-family="Arial" font-size="14.00" fill="#666666">[table]</text>
<polygon fill="none" stroke="black" points="1003.45,-481.4 1003.45,-512.2 1220.67,-512.2 1220.67,-481.4 1003.45,-481.4"/>
<text text-anchor="start" x="1010.45" y="-493.6" font-family="Arial" font-size="14.00">file_set_id </text>
<text text-anchor="start" x="1077.38" y="-493.6" font-family="Arial" font-size="14.00" fill="#666666">[INTEGER]</text>
<polygon fill="none" stroke="black" points="1003.45,-450.6 1003.45,-481.4 1220.67,-481.4 1220.67,-450.6 1003.45,-450.6"/>
<text text-anchor="start" x="1010.45" y="-462.8" font-family="Arial" font-size="14.00">item_type </text>
<text text-anchor="start" x="1075.04" y="-462.8" font-family="Arial" font-size="14.00" fill="#666666">[INTEGER]</text>
</g>
<!-- file_set_item_type&#45;&gt;file_set -->
<g id="edge4" class="edge">
<title>file_set_item_type:file_set_id&#45;&gt;file_set:id</title>
<path fill="none" stroke="black" d="M1231.53,-494.17C1280.95,-465.52 1243.2,-212.6 1183.08,-212.6"/>
<polygon fill="black" stroke="black" points="1231.65,-494.13 1220.83,-492.37 1226.5,-495.51 1222.31,-496.63 1222.31,-496.63 1222.31,-496.63 1226.5,-495.51 1223.15,-501.06 1231.65,-494.13"/>
<text text-anchor="start" x="669.01" y="-506.8" font-family="Arial" font-size="10.00">FOREIGN KEY (file_set_id) REFERENCES file_set (id) ON UPDATE NO ACTION ON DELETE CASCADE MATCH NONE</text>
</g>
<!-- file_set_dat_file_link -->
<g id="node6" class="node">
<title>file_set_dat_file_link</title>
<polygon fill="#efefef" stroke="none" points="1325.45,-512.2 1325.45,-547.8 1562.66,-547.8 1562.66,-512.2 1325.45,-512.2"/>
<polygon fill="none" stroke="black" points="1325.45,-512.2 1325.45,-547.8 1562.66,-547.8 1562.66,-512.2 1325.45,-512.2"/>
<text text-anchor="start" x="1332.45" y="-525.6" font-family="Arial Bold" font-size="18.00">file_set_dat_file_link</text>
<text text-anchor="start" x="1486.41" y="-525.6" font-family="Arial" font-size="14.00">    </text>
<text text-anchor="start" x="1517.53" y="-525.6" font-family="Arial" font-size="14.00" fill="#666666">[table]</text>
<polygon fill="none" stroke="black" points="1325.45,-481.4 1325.45,-512.2 1562.66,-512.2 1562.66,-481.4 1325.45,-481.4"/>
<text text-anchor="start" x="1332.45" y="-493.6" font-family="Arial" font-size="14.00">file_set_id </text>
<text text-anchor="start" x="1399.38" y="-493.6" font-family="Arial" font-size="14.00" fill="#666666">[INTEGER]</text>
<polygon fill="none" stroke="black" points="1325.45,-450.6 1325.45,-481.4 1562.66,-481.4 1562.66,-450.6 1325.45,-450.6"/>
<text text-anchor="start" x="1332.45" y="-462.8" font-family="Arial" font-size="14.00">dat_file_id </text>
<text text-anchor="start" x="1400.17" y="-462.8" font-family="Arial" font-size="14.00" fill="#666666">[INTEGER]</text>
</g>
<!-- file_set_dat_file_link&#45;&gt;file_set -->
<g id="edge5" class="edge">
<title>file_set_dat_file_link:file_set_id&#45;&gt;file_set:id</title>
<path fill="none" stroke="black" d="M1314.1,-495.95C1269.24,-487.87 1297.32,-423.52 1273.06,-373.6 1237.22,-299.87 1265.05,-212.6 1183.08,-212.6"/>
<polygon fill="black" stroke="black" points="1314.15,-495.96 1323.75,-501.26 1319.47,-496.39 1323.78,-496.75 1323.78,-496.75 1323.78,-496.75 1319.47,-496.39 1324.49,-492.29 1314.15,-495.96"/>
<text text-anchor="start" x="771.8" y="-480.8" font-family="Arial" font-size="10.00">FOREIGN KEY (file_set_id) REFERENCES file_set (id) ON UPDATE NO ACTION ON DELETE CASCADE MATCH NONE</text>
</g>
<!-- file_info_system -->
<g id="node8" class="node">
<title>file_info_system</title>
<polygon fill="#efefef" stroke="none" points="1984.94,-512.2 1984.94,-547.8 2189.18,-547.8 2189.18,-512.2 1984.94,-512.2"/>
<polygon fill="none" stroke="black" points="1984.94,-512.2 1984.94,-547.8 2189.18,-547.8 2189.18,-512.2 1984.94,-512.2"/>
<text text-anchor="start" x="1991.94" y="-525.6" font-family="Arial Bold" font-size="18.00">file_info_system</text>
<text text-anchor="start" x="2112.92" y="-525.6" font-family="Arial" font-size="14.00">    </text>
<text text-anchor="start" x="2144.04" y="-525.6" font-family="Arial" font-size="14.00" fill="#666666">[table]</text>
<polygon fill="none" stroke="black" points="1984.94,-481.4 1984.94,-512.2 2189.18,-512.2 2189.18,-481.4 1984.94,-481.4"/>
<text text-anchor="start" x="1991.94" y="-493.6" font-family="Arial" font-size="14.00">file_info_id </text>
<text text-anchor="start" x="2062.77" y="-493.6" font-family="Arial" font-size="14.00" fill="#666666">[INTEGER]</text>
<polygon fill="none" stroke="black" points="1984.94,-450.6 1984.94,-481.4 2189.18,-481.4 2189.18,-450.6 1984.94,-450.6"/>
<text text-anchor="start" x="1991.94" y="-462.8" font-family="Arial" font-size="14.00">system_id </text>
<text text-anchor="start" x="2058.85" y="-462.8" font-family="Arial" font-size="14.00" fill="#666666">[INTEGER]</text>
</g>
<!-- file_info_system&#45;&gt;file_info -->
<g id="edge7" class="edge">
<title>file_info_system:file_info_id&#45;&gt;file_info:id</title>
<path fill="none" stroke="black" d="M1973.87,-495.28C1949.91,-486.49 1974.38,-441.5 1984.94,-407.4 1995.97,-371.75 2020.57,-373.25 2031.6,-337.6 2043.97,-297.6 2074.46,-243.4 2032.6,-243.4"/>
<polygon fill="black" stroke="black" points="1973.72,-495.25 1982.94,-501.2 1979,-496.05 1983.28,-496.7 1983.28,-496.7 1983.28,-496.7 1979,-496.05 1984.28,-492.3 1973.72,-495.25"/>
<text text-anchor="start" x="1990.94" y="-480.8" font-family="Arial" font-size="10.00">FOREIGN KEY (file_info_id) REFERENCES file_info (id) ON UPDATE NO ACTION ON DELETE CASCADE MATCH NONE</text>
</g>
</g>
</svg>
