<?xml version="1.0" encoding="UTF-8" standalone="no"?>
<!DOCTYPE svg PUBLIC "-//W3C//DTD SVG 1.1//EN"
 "http://www.w3.org/Graphics/SVG/1.1/DTD/svg11.dtd">
<!-- Generated by graphviz version 12.1.2 (20240928.0832)
 -->
<!-- Title: file_info_system Pages: 1 -->
<svg width="2369pt" height="842pt"
 viewBox="0.00 0.00 2368.63 842.40" xmlns="http://www.w3.org/2000/svg" xmlns:xlink="http://www.w3.org/1999/xlink">
<g id="graph0" class="graph" transform="scale(1 1) rotate(0) translate(4 838.4)">
<title>file_info_system</title>
<polygon fill="white" stroke="none" points="-4,4 -4,-838.4 2364.63,-838.4 2364.63,4 -4,4"/>
<!-- file_info_system -->
<g id="node1" class="node">
<title>file_info_system</title>
<polygon fill="#efefef" stroke="none" points="671.49,-601.6 671.49,-637.2 875.73,-637.2 875.73,-601.6 671.49,-601.6"/>
<polygon fill="none" stroke="black" points="671.49,-601.6 671.49,-637.2 875.73,-637.2 875.73,-601.6 671.49,-601.6"/>
<text text-anchor="start" x="678.49" y="-615" font-family="Arial Bold" font-size="18.00">file_info_system</text>
<text text-anchor="start" x="799.48" y="-615" font-family="Arial" font-size="14.00">    </text>
<text text-anchor="start" x="830.59" y="-615" font-family="Arial" font-size="14.00" fill="#666666">[table]</text>
<polygon fill="none" stroke="black" points="671.49,-570.8 671.49,-601.6 875.73,-601.6 875.73,-570.8 671.49,-570.8"/>
<text text-anchor="start" x="678.49" y="-583" font-family="Arial" font-size="14.00">file_info_id </text>
<text text-anchor="start" x="749.32" y="-583" font-family="Arial" font-size="14.00" fill="#666666">[INTEGER]</text>
<polygon fill="none" stroke="black" points="671.49,-540 671.49,-570.8 875.73,-570.8 875.73,-540 671.49,-540"/>
<text text-anchor="start" x="678.49" y="-552.2" font-family="Arial" font-size="14.00">system_id </text>
<text text-anchor="start" x="745.4" y="-552.2" font-family="Arial" font-size="14.00" fill="#666666">[INTEGER]</text>
<polygon fill="none" stroke="black" stroke-width="3" points="669.99,-538.5 669.99,-638.7 877.23,-638.7 877.23,-538.5 669.99,-538.5"/>
</g>
<!-- file_info -->
<g id="node2" class="node">
<title>file_info</title>
<polygon fill="#efefef" stroke="none" points="530.08,-228 530.08,-263.6 705.15,-263.6 705.15,-228 530.08,-228"/>
<polygon fill="none" stroke="black" points="530.08,-228 530.08,-263.6 705.15,-263.6 705.15,-228 530.08,-228"/>
<text text-anchor="start" x="552" y="-241.4" font-family="Arial Bold" font-size="18.00">file_info</text>
<text text-anchor="start" x="613.98" y="-241.4" font-family="Arial" font-size="14.00">    </text>
<text text-anchor="start" x="645.09" y="-241.4" font-family="Arial" font-size="14.00" fill="#666666">[table]</text>
<polygon fill="none" stroke="black" points="530.08,-197.2 530.08,-228 705.15,-228 705.15,-197.2 530.08,-197.2"/>
<text text-anchor="start" x="537.08" y="-209.4" font-family="Arial" font-size="14.00">id </text>
<text text-anchor="start" x="551.86" y="-209.4" font-family="Arial" font-size="14.00" fill="#666666">[INTEGER]</text>
<polygon fill="none" stroke="black" points="530.08,-166.4 530.08,-197.2 705.15,-197.2 705.15,-166.4 530.08,-166.4"/>
<text text-anchor="start" x="537.08" y="-178.6" font-family="Arial" font-size="14.00">sha1_checksum </text>
<text text-anchor="start" x="642.13" y="-178.6" font-family="Arial" font-size="14.00" fill="#666666">[BLOB]</text>
<polygon fill="none" stroke="black" points="530.08,-135.6 530.08,-166.4 705.15,-166.4 705.15,-135.6 530.08,-135.6"/>
<text text-anchor="start" x="537.08" y="-147.8" font-family="Arial" font-size="14.00">file_size </text>
<text text-anchor="start" x="591.55" y="-147.8" font-family="Arial" font-size="14.00" fill="#666666">[INTEGER]</text>
<polygon fill="none" stroke="black" points="530.08,-104.8 530.08,-135.6 705.15,-135.6 705.15,-104.8 530.08,-104.8"/>
<text text-anchor="start" x="537.08" y="-117" font-family="Arial" font-size="14.00">archive_file_name </text>
<text text-anchor="start" x="654.59" y="-117" font-family="Arial" font-size="14.00" fill="#666666">[TEXT]</text>
<polygon fill="none" stroke="black" points="530.08,-74 530.08,-104.8 705.15,-104.8 705.15,-74 530.08,-74"/>
<text text-anchor="start" x="537.08" y="-86.2" font-family="Arial" font-size="14.00">file_type </text>
<text text-anchor="start" x="593.11" y="-86.2" font-family="Arial" font-size="14.00" fill="#666666">[INTEGER]</text>
<polygon fill="none" stroke="black" points="530.08,-43.2 530.08,-74 705.15,-74 705.15,-43.2 530.08,-43.2"/>
<text text-anchor="start" x="537.08" y="-55.4" font-family="Arial" font-size="14.00">is_available </text>
<text text-anchor="start" x="614.13" y="-55.4" font-family="Arial" font-size="14.00" fill="#666666">[INTEGER]</text>
</g>
<!-- file_info_system&#45;&gt;file_info -->
<g id="edge1" class="edge">
<title>file_info_system:file_info_id&#45;&gt;file_info:id</title>
<path fill="none" stroke="black" d="M660.48,-585.69C519.31,-570.32 869.36,-212.6 706.15,-212.6"/>
<polygon fill="black" stroke="black" points="660.17,-585.67 669.93,-590.68 665.5,-585.95 669.83,-586.17 669.83,-586.17 669.83,-586.17 665.5,-585.95 670.39,-581.69 660.17,-585.67"/>
<text text-anchor="start" x="112.27" y="-596.2" font-family="Arial" font-size="10.00">FOREIGN KEY (file_info_id) REFERENCES file_info (id) ON UPDATE NO ACTION ON DELETE CASCADE MATCH NONE</text>
</g>
<!-- system -->
<g id="node4" class="node">
<title>system</title>
<polygon fill="#efefef" stroke="none" points="1279.98,-166.4 1279.98,-202 1413.24,-202 1413.24,-166.4 1279.98,-166.4"/>
<polygon fill="none" stroke="black" points="1279.98,-166.4 1279.98,-202 1413.24,-202 1413.24,-166.4 1279.98,-166.4"/>
<text text-anchor="start" x="1286.98" y="-179.8" font-family="Arial Bold" font-size="18.00">system</text>
<text text-anchor="start" x="1336.99" y="-179.8" font-family="Arial" font-size="14.00">    </text>
<text text-anchor="start" x="1368.1" y="-179.8" font-family="Arial" font-size="14.00" fill="#666666">[table]</text>
<polygon fill="none" stroke="black" points="1279.98,-135.6 1279.98,-166.4 1413.24,-166.4 1413.24,-135.6 1279.98,-135.6"/>
<text text-anchor="start" x="1286.98" y="-147.8" font-family="Arial" font-size="14.00">id </text>
<text text-anchor="start" x="1301.77" y="-147.8" font-family="Arial" font-size="14.00" fill="#666666">[INTEGER]</text>
<polygon fill="none" stroke="black" points="1279.98,-104.8 1279.98,-135.6 1413.24,-135.6 1413.24,-104.8 1279.98,-104.8"/>
<text text-anchor="start" x="1286.98" y="-117" font-family="Arial" font-size="14.00">name </text>
<text text-anchor="start" x="1325.9" y="-117" font-family="Arial" font-size="14.00" fill="#666666">[TEXT]</text>
</g>
<!-- file_info_system&#45;&gt;system -->
<g id="edge3" class="edge">
<title>file_info_system:system_id&#45;&gt;system:id</title>
<path fill="none" stroke="black" d="M886.79,-554.85C966.93,-545.43 874.04,-417.06 931.61,-342.8 1039.67,-203.42 1102.63,-151 1278.98,-151"/>
<polygon fill="black" stroke="black" points="887.05,-554.84 876.82,-550.89 881.72,-555.13 877.4,-555.36 877.4,-555.36 877.4,-555.36 881.72,-555.13 877.31,-559.88 887.05,-554.84"/>
<text text-anchor="start" x="316.89" y="-565.4" font-family="Arial" font-size="10.00">FOREIGN KEY (system_id) REFERENCES system (id) ON UPDATE NO ACTION ON DELETE NO ACTION MATCH NONE</text>
</g>
<!-- file_set_file_info -->
<g id="node3" class="node">
<title>file_set_file_info</title>
<polygon fill="#efefef" stroke="none" points="357,-632.4 357,-668 564.22,-668 564.22,-632.4 357,-632.4"/>
<polygon fill="none" stroke="black" points="357,-632.4 357,-668 564.22,-668 564.22,-632.4 357,-632.4"/>
<text text-anchor="start" x="364" y="-645.8" font-family="Arial Bold" font-size="18.00">file_set_file_info</text>
<text text-anchor="start" x="487.97" y="-645.8" font-family="Arial" font-size="14.00">    </text>
<text text-anchor="start" x="519.08" y="-645.8" font-family="Arial" font-size="14.00" fill="#666666">[table]</text>
<polygon fill="none" stroke="black" points="357,-601.6 357,-632.4 564.22,-632.4 564.22,-601.6 357,-601.6"/>
<text text-anchor="start" x="364" y="-613.8" font-family="Arial" font-size="14.00">file_set_id </text>
<text text-anchor="start" x="430.94" y="-613.8" font-family="Arial" font-size="14.00" fill="#666666">[INTEGER]</text>
<polygon fill="none" stroke="black" points="357,-570.8 357,-601.6 564.22,-601.6 564.22,-570.8 357,-570.8"/>
<text text-anchor="start" x="364" y="-583" font-family="Arial" font-size="14.00">file_info_id </text>
<text text-anchor="start" x="434.83" y="-583" font-family="Arial" font-size="14.00" fill="#666666">[INTEGER]</text>
<polygon fill="none" stroke="black" points="357,-540 357,-570.8 564.22,-570.8 564.22,-540 357,-540"/>
<text text-anchor="start" x="364" y="-552.2" font-family="Arial" font-size="14.00">file_name </text>
<text text-anchor="start" x="428.6" y="-552.2" font-family="Arial" font-size="14.00" fill="#666666">[TEXT]</text>
<polygon fill="none" stroke="black" points="357,-509.2 357,-540 564.22,-540 564.22,-509.2 357,-509.2"/>
<text text-anchor="start" x="364" y="-521.4" font-family="Arial" font-size="14.00">sort_order </text>
<text text-anchor="start" x="431.7" y="-521.4" font-family="Arial" font-size="14.00" fill="#666666">[INTEGER]</text>
</g>
<!-- file_set_file_info&#45;&gt;file_info -->
<g id="edge2" class="edge">
<title>file_set_file_info:file_info_id&#45;&gt;file_info:id</title>
<path fill="none" stroke="black" d="M575.24,-585.69C716.4,-570.32 365.84,-212.6 529.08,-212.6"/>
<polygon fill="black" stroke="black" points="575.54,-585.67 565.33,-581.69 570.21,-585.95 565.89,-586.17 565.89,-586.17 565.89,-586.17 570.21,-585.95 565.78,-590.68 575.54,-585.67"/>
<text text-anchor="start" x="7" y="-570.2" font-family="Arial" font-size="10.00">FOREIGN KEY (file_info_id) REFERENCES file_info (id) ON UPDATE NO ACTION ON DELETE CASCADE MATCH NONE</text>
</g>
<!-- emulator -->
<g id="node5" class="node">
<title>emulator</title>
<polygon fill="#efefef" stroke="none" points="983.32,-663.2 983.32,-698.8 1145.91,-698.8 1145.91,-663.2 983.32,-663.2"/>
<polygon fill="none" stroke="black" points="983.32,-663.2 983.32,-698.8 1145.91,-698.8 1145.91,-663.2 983.32,-663.2"/>
<text text-anchor="start" x="998" y="-676.6" font-family="Arial Bold" font-size="18.00">emulator</text>
<text text-anchor="start" x="1061.97" y="-676.6" font-family="Arial" font-size="14.00">    </text>
<text text-anchor="start" x="1093.09" y="-676.6" font-family="Arial" font-size="14.00" fill="#666666">[table]</text>
<polygon fill="none" stroke="black" points="983.32,-632.4 983.32,-663.2 1145.91,-663.2 1145.91,-632.4 983.32,-632.4"/>
<text text-anchor="start" x="990.32" y="-644.6" font-family="Arial" font-size="14.00">id </text>
<text text-anchor="start" x="1005.1" y="-644.6" font-family="Arial" font-size="14.00" fill="#666666">[INTEGER]</text>
<polygon fill="none" stroke="black" points="983.32,-601.6 983.32,-632.4 1145.91,-632.4 1145.91,-601.6 983.32,-601.6"/>
<text text-anchor="start" x="990.32" y="-613.8" font-family="Arial" font-size="14.00">name </text>
<text text-anchor="start" x="1029.23" y="-613.8" font-family="Arial" font-size="14.00" fill="#666666">[TEXT]</text>
<polygon fill="none" stroke="black" points="983.32,-570.8 983.32,-601.6 1145.91,-601.6 1145.91,-570.8 983.32,-570.8"/>
<text text-anchor="start" x="990.32" y="-583" font-family="Arial" font-size="14.00">executable </text>
<text text-anchor="start" x="1061.92" y="-583" font-family="Arial" font-size="14.00" fill="#666666">[TEXT]</text>
<polygon fill="none" stroke="black" points="983.32,-540 983.32,-570.8 1145.91,-570.8 1145.91,-540 983.32,-540"/>
<text text-anchor="start" x="990.32" y="-552.2" font-family="Arial" font-size="14.00">extract_files </text>
<text text-anchor="start" x="1068.9" y="-552.2" font-family="Arial" font-size="14.00" fill="#666666">[INTEGER]</text>
<polygon fill="none" stroke="black" points="983.32,-509.2 983.32,-540 1145.91,-540 1145.91,-509.2 983.32,-509.2"/>
<text text-anchor="start" x="990.32" y="-521.4" font-family="Arial" font-size="14.00">arguments </text>
<text text-anchor="start" x="1060.35" y="-521.4" font-family="Arial" font-size="14.00" fill="#666666">[TEXT]</text>
<polygon fill="none" stroke="black" points="983.32,-478.4 983.32,-509.2 1145.91,-509.2 1145.91,-478.4 983.32,-478.4"/>
<text text-anchor="start" x="990.32" y="-490.6" font-family="Arial" font-size="14.00">system_id </text>
<text text-anchor="start" x="1057.23" y="-490.6" font-family="Arial" font-size="14.00" fill="#666666">[INTEGER]</text>
</g>
<!-- emulator&#45;&gt;system -->
<g id="edge4" class="edge">
<title>emulator:system_id&#45;&gt;system:id</title>
<path fill="none" stroke="black" d="M1157.2,-493.11C1213.35,-484.92 1174.73,-405.61 1198.61,-342.8 1231.46,-256.41 1186.56,-151 1278.98,-151"/>
<polygon fill="black" stroke="black" points="1157.22,-493.11 1146.94,-489.29 1151.9,-493.46 1147.58,-493.76 1147.58,-493.76 1147.58,-493.76 1151.9,-493.46 1147.54,-498.27 1157.22,-493.11"/>
<text text-anchor="start" x="1153.91" y="-477.8" font-family="Arial" font-size="10.00">FOREIGN KEY (system_id) REFERENCES system (id) ON UPDATE NO ACTION ON DELETE CASCADE MATCH NONE</text>
</g>
<!-- release_system -->
<g id="node6" class="node">
<title>release_system</title>
<polygon fill="#efefef" stroke="none" points="1250.51,-601.6 1250.51,-637.2 1442.72,-637.2 1442.72,-601.6 1250.51,-601.6"/>
<polygon fill="none" stroke="black" points="1250.51,-601.6 1250.51,-637.2 1442.72,-637.2 1442.72,-601.6 1250.51,-601.6"/>
<text text-anchor="start" x="1257.51" y="-615" font-family="Arial Bold" font-size="18.00">release_system</text>
<text text-anchor="start" x="1366.46" y="-615" font-family="Arial" font-size="14.00">    </text>
<text text-anchor="start" x="1397.58" y="-615" font-family="Arial" font-size="14.00" fill="#666666">[table]</text>
<polygon fill="none" stroke="black" points="1250.51,-570.8 1250.51,-601.6 1442.72,-601.6 1442.72,-570.8 1250.51,-570.8"/>
<text text-anchor="start" x="1257.51" y="-583" font-family="Arial" font-size="14.00">release_id </text>
<text text-anchor="start" x="1326" y="-583" font-family="Arial" font-size="14.00" fill="#666666">[INTEGER]</text>
<polygon fill="none" stroke="black" points="1250.51,-540 1250.51,-570.8 1442.72,-570.8 1442.72,-540 1250.51,-540"/>
<text text-anchor="start" x="1257.51" y="-552.2" font-family="Arial" font-size="14.00">system_id </text>
<text text-anchor="start" x="1324.42" y="-552.2" font-family="Arial" font-size="14.00" fill="#666666">[INTEGER]</text>
</g>
<!-- release_system&#45;&gt;system -->
<g id="edge5" class="edge">
<title>release_system:system_id&#45;&gt;system:id</title>
<path fill="none" stroke="black" d="M1346.89,-528.7C1355.93,-355.72 1585.87,-151 1414.24,-151"/>
<polygon fill="black" stroke="black" points="1346.89,-528.67 1342.12,-538.55 1346.75,-534 1346.63,-538.33 1346.63,-538.33 1346.63,-538.33 1346.75,-534 1351.12,-538.78 1346.89,-528.67"/>
<text text-anchor="start" x="933.89" y="-523" font-family="Arial" font-size="10.00">FOREIGN KEY (system_id) REFERENCES system (id) ON UPDATE NO ACTION ON DELETE CASCADE MATCH NONE</text>
</g>
<!-- dat_file -->
<g id="node7" class="node">
<title>dat_file</title>
<polygon fill="#efefef" stroke="none" points="1547.15,-755.6 1547.15,-791.2 1698.07,-791.2 1698.07,-755.6 1547.15,-755.6"/>
<polygon fill="none" stroke="black" points="1547.15,-755.6 1547.15,-791.2 1698.07,-791.2 1698.07,-755.6 1547.15,-755.6"/>
<text text-anchor="start" x="1560.5" y="-769" font-family="Arial Bold" font-size="18.00">dat_file</text>
<text text-anchor="start" x="1615.47" y="-769" font-family="Arial" font-size="14.00">    </text>
<text text-anchor="start" x="1646.59" y="-769" font-family="Arial" font-size="14.00" fill="#666666">[table]</text>
<polygon fill="none" stroke="black" points="1547.15,-724.8 1547.15,-755.6 1698.07,-755.6 1698.07,-724.8 1547.15,-724.8"/>
<text text-anchor="start" x="1554.15" y="-737" font-family="Arial" font-size="14.00">id </text>
<text text-anchor="start" x="1568.94" y="-737" font-family="Arial" font-size="14.00" fill="#666666">[INTEGER]</text>
<polygon fill="none" stroke="black" points="1547.15,-694 1547.15,-724.8 1698.07,-724.8 1698.07,-694 1547.15,-694"/>
<text text-anchor="start" x="1554.15" y="-706.2" font-family="Arial" font-size="14.00">dat_id </text>
<text text-anchor="start" x="1596.19" y="-706.2" font-family="Arial" font-size="14.00" fill="#666666">[INTEGER]</text>
<polygon fill="none" stroke="black" points="1547.15,-663.2 1547.15,-694 1698.07,-694 1698.07,-663.2 1547.15,-663.2"/>
<text text-anchor="start" x="1554.15" y="-675.4" font-family="Arial" font-size="14.00">name </text>
<text text-anchor="start" x="1593.06" y="-675.4" font-family="Arial" font-size="14.00" fill="#666666">[TEXT]</text>
<polygon fill="none" stroke="black" points="1547.15,-632.4 1547.15,-663.2 1698.07,-663.2 1698.07,-632.4 1547.15,-632.4"/>
<text text-anchor="start" x="1554.15" y="-644.6" font-family="Arial" font-size="14.00">description </text>
<text text-anchor="start" x="1625.75" y="-644.6" font-family="Arial" font-size="14.00" fill="#666666">[TEXT]</text>
<polygon fill="none" stroke="black" points="1547.15,-601.6 1547.15,-632.4 1698.07,-632.4 1698.07,-601.6 1547.15,-601.6"/>
<text text-anchor="start" x="1554.15" y="-613.8" font-family="Arial" font-size="14.00">version </text>
<text text-anchor="start" x="1603.17" y="-613.8" font-family="Arial" font-size="14.00" fill="#666666">[TEXT]</text>
<polygon fill="none" stroke="black" points="1547.15,-570.8 1547.15,-601.6 1698.07,-601.6 1698.07,-570.8 1547.15,-570.8"/>
<text text-anchor="start" x="1554.15" y="-583" font-family="Arial" font-size="14.00">date </text>
<text text-anchor="start" x="1585.29" y="-583" font-family="Arial" font-size="14.00" fill="#666666">[TEXT]</text>
<polygon fill="none" stroke="black" points="1547.15,-540 1547.15,-570.8 1698.07,-570.8 1698.07,-540 1547.15,-540"/>
<text text-anchor="start" x="1554.15" y="-552.2" font-family="Arial" font-size="14.00">author </text>
<text text-anchor="start" x="1597.74" y="-552.2" font-family="Arial" font-size="14.00" fill="#666666">[TEXT]</text>
<polygon fill="none" stroke="black" points="1547.15,-509.2 1547.15,-540 1698.07,-540 1698.07,-509.2 1547.15,-509.2"/>
<text text-anchor="start" x="1554.15" y="-521.4" font-family="Arial" font-size="14.00">homepage </text>
<text text-anchor="start" x="1624.21" y="-521.4" font-family="Arial" font-size="14.00" fill="#666666">[TEXT]</text>
<polygon fill="none" stroke="black" points="1547.15,-478.4 1547.15,-509.2 1698.07,-509.2 1698.07,-478.4 1547.15,-478.4"/>
<text text-anchor="start" x="1554.15" y="-490.6" font-family="Arial" font-size="14.00">url </text>
<text text-anchor="start" x="1573.6" y="-490.6" font-family="Arial" font-size="14.00" fill="#666666">[TEXT]</text>
<polygon fill="none" stroke="black" points="1547.15,-447.6 1547.15,-478.4 1698.07,-478.4 1698.07,-447.6 1547.15,-447.6"/>
<text text-anchor="start" x="1554.15" y="-459.8" font-family="Arial" font-size="14.00">subset </text>
<text text-anchor="start" x="1599.29" y="-459.8" font-family="Arial" font-size="14.00" fill="#666666">[TEXT]</text>
<polygon fill="none" stroke="black" points="1547.15,-416.8 1547.15,-447.6 1698.07,-447.6 1698.07,-416.8 1547.15,-416.8"/>
<text text-anchor="start" x="1554.15" y="-429" font-family="Arial" font-size="14.00">imported_at </text>
<text text-anchor="start" x="1631.97" y="-429" font-family="Arial" font-size="14.00" fill="#666666">[TEXT]</text>
<polygon fill="none" stroke="black" points="1547.15,-386 1547.15,-416.8 1698.07,-416.8 1698.07,-386 1547.15,-386"/>
<text text-anchor="start" x="1554.15" y="-398.2" font-family="Arial" font-size="14.00">system_id </text>
<text text-anchor="start" x="1621.06" y="-398.2" font-family="Arial" font-size="14.00" fill="#666666">[INTEGER]</text>
</g>
<!-- dat_file&#45;&gt;system -->
<g id="edge6" class="edge">
<title>dat_file:system_id&#45;&gt;system:id</title>
<path fill="none" stroke="black" d="M1535.99,-399.08C1482.38,-373.84 1473.57,-151 1414.24,-151"/>
<polygon fill="black" stroke="black" points="1536.08,-399.1 1544.83,-405.71 1541.28,-400.29 1545.5,-401.25 1545.5,-401.25 1545.5,-401.25 1541.28,-400.29 1546.83,-396.94 1536.08,-399.1"/>
<text text-anchor="start" x="993.53" y="-411.4" font-family="Arial" font-size="10.00">FOREIGN KEY (system_id) REFERENCES system (id) ON UPDATE NO ACTION ON DELETE CASCADE MATCH NONE</text>
</g>
<!-- system_libretro_core -->
<g id="node8" class="node">
<title>system_libretro_core</title>
<polygon fill="#efefef" stroke="none" points="1802.01,-617 1802.01,-652.6 2037.22,-652.6 2037.22,-617 1802.01,-617"/>
<polygon fill="none" stroke="black" points="1802.01,-617 1802.01,-652.6 2037.22,-652.6 2037.22,-617 1802.01,-617"/>
<text text-anchor="start" x="1809.01" y="-630.4" font-family="Arial Bold" font-size="18.00">system_libretro_core</text>
<text text-anchor="start" x="1960.96" y="-630.4" font-family="Arial" font-size="14.00">    </text>
<text text-anchor="start" x="1992.08" y="-630.4" font-family="Arial" font-size="14.00" fill="#666666">[table]</text>
<polygon fill="none" stroke="black" points="1802.01,-586.2 1802.01,-617 2037.22,-617 2037.22,-586.2 1802.01,-586.2"/>
<text text-anchor="start" x="1809.01" y="-598.4" font-family="Arial" font-size="14.00">id </text>
<text text-anchor="start" x="1823.79" y="-598.4" font-family="Arial" font-size="14.00" fill="#666666">[INTEGER]</text>
<polygon fill="none" stroke="black" points="1802.01,-555.4 1802.01,-586.2 2037.22,-586.2 2037.22,-555.4 1802.01,-555.4"/>
<text text-anchor="start" x="1809.01" y="-567.6" font-family="Arial" font-size="14.00">system_id </text>
<text text-anchor="start" x="1875.92" y="-567.6" font-family="Arial" font-size="14.00" fill="#666666">[INTEGER]</text>
<polygon fill="none" stroke="black" points="1802.01,-524.6 1802.01,-555.4 2037.22,-555.4 2037.22,-524.6 1802.01,-524.6"/>
<text text-anchor="start" x="1809.01" y="-536.8" font-family="Arial" font-size="14.00">core_name </text>
<text text-anchor="start" x="1882.94" y="-536.8" font-family="Arial" font-size="14.00" fill="#666666">[TEXT]</text>
</g>
<!-- system_libretro_core&#45;&gt;system -->
<g id="edge7" class="edge">
<title>system_libretro_core:system_id&#45;&gt;system:id</title>
<path fill="none" stroke="black" d="M1790.6,-570.24C1705.31,-560.44 1809.95,-423.33 1750.61,-342.8 1648.52,-204.26 1586.34,-151 1414.24,-151"/>
<polygon fill="black" stroke="black" points="1790.69,-570.25 1800.43,-575.28 1796.02,-570.53 1800.34,-570.76 1800.34,-570.76 1800.34,-570.76 1796.02,-570.53 1800.91,-566.29 1790.69,-570.25"/>
<text text-anchor="start" x="1808.01" y="-580.8" font-family="Arial" font-size="10.00">FOREIGN KEY (system_id) REFERENCES system (id) ON UPDATE NO ACTION ON DELETE CASCADE MATCH NONE</text>
</g>
</g>
</svg>
