<?xml version="1.0" encoding="UTF-8" standalone="no"?>
<!DOCTYPE svg PUBLIC "-//W3C//DTD SVG 1.1//EN"
 "http://www.w3.org/Graphics/SVG/1.1/DTD/svg11.dtd">
<!-- Generated by graphviz version 12.1.2 (20240928.0832)
 -->
<!-- Title: file_sync_log Pages: 1 -->
<svg width="282pt" height="321pt"
 viewBox="0.00 0.00 281.64 320.80" xmlns="http://www.w3.org/2000/svg" xmlns:xlink="http://www.w3.org/1999/xlink">
<g id="graph0" class="graph" transform="scale(1 1) rotate(0) translate(4 316.8)">
<title>file_sync_log</title>
<polygon fill="white" stroke="none" points="-4,4 -4,-316.8 277.64,-316.8 277.64,4 -4,4"/>
<!-- file_sync_log -->
<g id="node1" class="node">
<title>file_sync_log</title>
<polygon fill="#efefef" stroke="none" points="46.2,-231 46.2,-266.6 227.44,-266.6 227.44,-231 46.2,-231"/>
<polygon fill="none" stroke="black" points="46.2,-231 46.2,-266.6 227.44,-266.6 227.44,-231 46.2,-231"/>
<text text-anchor="start" x="53.2" y="-244.4" font-family="Arial Bold" font-size="18.00">file_sync_log</text>
<text text-anchor="start" x="151.18" y="-244.4" font-family="Arial" font-size="14.00">    </text>
<text text-anchor="start" x="182.3" y="-244.4" font-family="Arial" font-size="14.00" fill="#666666">[table]</text>
<polygon fill="none" stroke="black" points="46.2,-200.2 46.2,-231 227.44,-231 227.44,-200.2 46.2,-200.2"/>
<text text-anchor="start" x="53.2" y="-212.4" font-family="Arial" font-size="14.00">id </text>
<text text-anchor="start" x="67.99" y="-212.4" font-family="Arial" font-size="14.00" fill="#666666">[INTEGER]</text>
<polygon fill="none" stroke="black" points="46.2,-169.4 46.2,-200.2 227.44,-200.2 227.44,-169.4 46.2,-169.4"/>
<text text-anchor="start" x="53.2" y="-181.6" font-family="Arial" font-size="14.00">file_info_id </text>
<text text-anchor="start" x="124.03" y="-181.6" font-family="Arial" font-size="14.00" fill="#666666">[INTEGER]</text>
<polygon fill="none" stroke="black" points="46.2,-138.6 46.2,-169.4 227.44,-169.4 227.44,-138.6 46.2,-138.6"/>
<text text-anchor="start" x="53.2" y="-150.8" font-family="Arial" font-size="14.00">sync_time </text>
<text text-anchor="start" x="120.11" y="-150.8" font-family="Arial" font-size="14.00" fill="#666666">[TIMESTAMP]</text>
<polygon fill="none" stroke="black" points="46.2,-107.8 46.2,-138.6 227.44,-138.6 227.44,-107.8 46.2,-107.8"/>
<text text-anchor="start" x="53.2" y="-120" font-family="Arial" font-size="14.00">status </text>
<text text-anchor="start" x="94.44" y="-120" font-family="Arial" font-size="14.00" fill="#666666">[INTEGER]</text>
<polygon fill="none" stroke="black" points="46.2,-77 46.2,-107.8 227.44,-107.8 227.44,-77 46.2,-77"/>
<text text-anchor="start" x="53.2" y="-89.2" font-family="Arial" font-size="14.00">message </text>
<text text-anchor="start" x="113.9" y="-89.2" font-family="Arial" font-size="14.00" fill="#666666">[TEXT]</text>
<polygon fill="none" stroke="black" points="46.2,-46.2 46.2,-77 227.44,-77 227.44,-46.2 46.2,-46.2"/>
<text text-anchor="start" x="53.2" y="-58.4" font-family="Arial" font-size="14.00">cloud_key </text>
<text text-anchor="start" x="120.13" y="-58.4" font-family="Arial" font-size="14.00" fill="#666666">[TEXT]</text>
<polygon fill="none" stroke="black" stroke-width="3" points="44.7,-44.7 44.7,-268.1 228.94,-268.1 228.94,-44.7 44.7,-44.7"/>
</g>
</g>
</svg>
