<?xml version="1.0" encoding="UTF-8" standalone="no"?>
<!DOCTYPE svg PUBLIC "-//W3C//DTD SVG 1.1//EN"
 "http://www.w3.org/Graphics/SVG/1.1/DTD/svg11.dtd">
<!-- Generated by graphviz version 12.1.2 (20240928.0832)
 -->
<!-- Title: franchise Pages: 1 -->
<svg width="786pt" height="668pt"
 viewBox="0.00 0.00 785.91 667.60" xmlns="http://www.w3.org/2000/svg" xmlns:xlink="http://www.w3.org/1999/xlink">
<g id="graph0" class="graph" transform="scale(1 1) rotate(0) translate(4 663.6)">
<title>franchise</title>
<polygon fill="white" stroke="none" points="-4,4 -4,-663.6 781.91,-663.6 781.91,4 -4,4"/>
<!-- franchise -->
<g id="node1" class="node">
<title>franchise</title>
<polygon fill="#efefef" stroke="none" points="539.51,-107.8 539.51,-143.4 688.73,-143.4 688.73,-107.8 539.51,-107.8"/>
<polygon fill="none" stroke="black" points="539.51,-107.8 539.51,-143.4 688.73,-143.4 688.73,-107.8 539.51,-107.8"/>
<text text-anchor="start" x="546.51" y="-121.2" font-family="Arial Bold" font-size="18.00">franchise</text>
<text text-anchor="start" x="612.47" y="-121.2" font-family="Arial" font-size="14.00">    </text>
<text text-anchor="start" x="643.59" y="-121.2" font-family="Arial" font-size="14.00" fill="#666666">[table]</text>
<polygon fill="none" stroke="black" points="539.51,-77 539.51,-107.8 688.73,-107.8 688.73,-77 539.51,-77"/>
<text text-anchor="start" x="546.51" y="-89.2" font-family="Arial" font-size="14.00">id </text>
<text text-anchor="start" x="561.29" y="-89.2" font-family="Arial" font-size="14.00" fill="#666666">[INTEGER]</text>
<polygon fill="none" stroke="black" points="539.51,-46.2 539.51,-77 688.73,-77 688.73,-46.2 539.51,-46.2"/>
<text text-anchor="start" x="546.51" y="-58.4" font-family="Arial" font-size="14.00">name </text>
<text text-anchor="start" x="585.42" y="-58.4" font-family="Arial" font-size="14.00" fill="#666666">[TEXT]</text>
<polygon fill="none" stroke="black" stroke-width="3" points="538.01,-44.7 538.01,-144.9 690.23,-144.9 690.23,-44.7 538.01,-44.7"/>
</g>
<!-- software_title -->
<g id="node2" class="node">
<title>software_title</title>
<polygon fill="#efefef" stroke="none" points="523.01,-361.2 523.01,-396.8 705.23,-396.8 705.23,-361.2 523.01,-361.2"/>
<polygon fill="none" stroke="black" points="523.01,-361.2 523.01,-396.8 705.23,-396.8 705.23,-361.2 523.01,-361.2"/>
<text text-anchor="start" x="530.01" y="-374.6" font-family="Arial Bold" font-size="18.00">software_title</text>
<text text-anchor="start" x="628.97" y="-374.6" font-family="Arial" font-size="14.00">    </text>
<text text-anchor="start" x="660.09" y="-374.6" font-family="Arial" font-size="14.00" fill="#666666">[table]</text>
<polygon fill="none" stroke="black" points="523.01,-330.4 523.01,-361.2 705.23,-361.2 705.23,-330.4 523.01,-330.4"/>
<text text-anchor="start" x="530.01" y="-342.6" font-family="Arial" font-size="14.00">id </text>
<text text-anchor="start" x="544.79" y="-342.6" font-family="Arial" font-size="14.00" fill="#666666">[INTEGER]</text>
<polygon fill="none" stroke="black" points="523.01,-299.6 523.01,-330.4 705.23,-330.4 705.23,-299.6 523.01,-299.6"/>
<text text-anchor="start" x="530.01" y="-311.8" font-family="Arial" font-size="14.00">name </text>
<text text-anchor="start" x="568.92" y="-311.8" font-family="Arial" font-size="14.00" fill="#666666">[TEXT]</text>
<polygon fill="none" stroke="black" points="523.01,-268.8 523.01,-299.6 705.23,-299.6 705.23,-268.8 523.01,-268.8"/>
<text text-anchor="start" x="530.01" y="-281" font-family="Arial" font-size="14.00">franchise_id </text>
<text text-anchor="start" x="609.39" y="-281" font-family="Arial" font-size="14.00" fill="#666666">[INTEGER]</text>
</g>
<!-- software_title&#45;&gt;franchise -->
<g id="edge1" class="edge">
<title>software_title:franchise_id&#45;&gt;franchise:id</title>
<path fill="none" stroke="black" d="M615.11,-257.63C622.71,-221.64 672.05,-230.62 688.73,-189.6 704.99,-149.58 732.93,-92.4 689.73,-92.4"/>
<polygon fill="black" stroke="black" points="615.12,-257.51 609.67,-267.03 614.6,-262.82 614.18,-267.13 614.18,-267.13 614.18,-267.13 614.6,-262.82 618.63,-267.9 615.12,-257.51"/>
<text text-anchor="start" x="36.47" y="-277.8" font-family="Arial" font-size="10.00">FOREIGN KEY (franchise_id) REFERENCES franchise (id) ON UPDATE NO ACTION ON DELETE NO ACTION MATCH NONE</text>
</g>
<!-- release_software_title -->
<g id="node3" class="node">
<title>release_software_title</title>
<polygon fill="#efefef" stroke="none" points="493.53,-580.8 493.53,-616.4 734.71,-616.4 734.71,-580.8 493.53,-580.8"/>
<polygon fill="none" stroke="black" points="493.53,-580.8 493.53,-616.4 734.71,-616.4 734.71,-580.8 493.53,-580.8"/>
<text text-anchor="start" x="500.53" y="-594.2" font-family="Arial Bold" font-size="18.00">release_software_title</text>
<text text-anchor="start" x="658.45" y="-594.2" font-family="Arial" font-size="14.00">    </text>
<text text-anchor="start" x="689.57" y="-594.2" font-family="Arial" font-size="14.00" fill="#666666">[table]</text>
<polygon fill="none" stroke="black" points="493.53,-550 493.53,-580.8 734.71,-580.8 734.71,-550 493.53,-550"/>
<text text-anchor="start" x="500.53" y="-562.2" font-family="Arial" font-size="14.00">release_id </text>
<text text-anchor="start" x="569.02" y="-562.2" font-family="Arial" font-size="14.00" fill="#666666">[INTEGER]</text>
<polygon fill="none" stroke="black" points="493.53,-519.2 493.53,-550 734.71,-550 734.71,-519.2 493.53,-519.2"/>
<text text-anchor="start" x="500.53" y="-531.4" font-family="Arial" font-size="14.00">software_title_id </text>
<text text-anchor="start" x="605.58" y="-531.4" font-family="Arial" font-size="14.00" fill="#666666">[INTEGER]</text>
</g>
<!-- release_software_title&#45;&gt;software_title -->
<g id="edge2" class="edge">
<title>release_software_title:software_title_id&#45;&gt;software_title:id</title>
<path fill="none" stroke="black" d="M615.09,-508.03C623.53,-467.79 684.27,-484.97 705.23,-440 722.91,-402.05 748.1,-345.8 706.23,-345.8"/>
<polygon fill="black" stroke="black" points="615.11,-507.91 609.67,-517.44 614.6,-513.22 614.18,-517.53 614.18,-517.53 614.18,-517.53 614.6,-513.22 618.63,-518.3 615.11,-507.91"/>
<text text-anchor="start" x="7" y="-528.2" font-family="Arial" font-size="10.00">FOREIGN KEY (software_title_id) REFERENCES software_title (id) ON UPDATE NO ACTION ON DELETE CASCADE MATCH NONE</text>
</g>
</g>
</svg>
