<?xml version="1.0" encoding="UTF-8" standalone="no"?>
<!DOCTYPE svg PUBLIC "-//W3C//DTD SVG 1.1//EN"
 "http://www.w3.org/Graphics/SVG/1.1/DTD/svg11.dtd">
<!-- Generated by graphviz version 12.1.2 (20240928.0832)
 -->
<!-- Title: release_software_title Pages: 1 -->
<svg width="1986pt" height="723pt"
 viewBox="0.00 0.00 1986.40 723.20" xmlns="http://www.w3.org/2000/svg" xmlns:xlink="http://www.w3.org/1999/xlink">
<g id="graph0" class="graph" transform="scale(1 1) rotate(0) translate(4 719.2)">
<title>release_software_title</title>
<polygon fill="white" stroke="none" points="-4,4 -4,-719.2 1982.4,-719.2 1982.4,4 -4,4"/>
<!-- release_software_title -->
<g id="node1" class="node">
<title>release_software_title</title>
<polygon fill="#efefef" stroke="none" points="1243.7,-605.6 1243.7,-641.2 1484.87,-641.2 1484.87,-605.6 1243.7,-605.6"/>
<polygon fill="none" stroke="black" points="1243.7,-605.6 1243.7,-641.2 1484.87,-641.2 1484.87,-605.6 1243.7,-605.6"/>
<text text-anchor="start" x="1250.7" y="-619" font-family="Arial Bold" font-size="18.00">release_software_title</text>
<text text-anchor="start" x="1408.62" y="-619" font-family="Arial" font-size="14.00">    </text>
<text text-anchor="start" x="1439.74" y="-619" font-family="Arial" font-size="14.00" fill="#666666">[table]</text>
<polygon fill="none" stroke="black" points="1243.7,-574.8 1243.7,-605.6 1484.87,-605.6 1484.87,-574.8 1243.7,-574.8"/>
<text text-anchor="start" x="1250.7" y="-587" font-family="Arial" font-size="14.00">release_id </text>
<text text-anchor="start" x="1319.19" y="-587" font-family="Arial" font-size="14.00" fill="#666666">[INTEGER]</text>
<polygon fill="none" stroke="black" points="1243.7,-544 1243.7,-574.8 1484.87,-574.8 1484.87,-544 1243.7,-544"/>
<text text-anchor="start" x="1250.7" y="-556.2" font-family="Arial" font-size="14.00">software_title_id </text>
<text text-anchor="start" x="1355.75" y="-556.2" font-family="Arial" font-size="14.00" fill="#666666">[INTEGER]</text>
<polygon fill="none" stroke="black" stroke-width="3" points="1242.2,-542.5 1242.2,-642.7 1486.37,-642.7 1486.37,-542.5 1242.2,-542.5"/>
</g>
<!-- release -->
<g id="node2" class="node">
<title>release</title>
<polygon fill="#efefef" stroke="none" points="813.86,-355.2 813.86,-390.8 996.71,-390.8 996.71,-355.2 813.86,-355.2"/>
<polygon fill="none" stroke="black" points="813.86,-355.2 813.86,-390.8 996.71,-390.8 996.71,-355.2 813.86,-355.2"/>
<text text-anchor="start" x="845.68" y="-368.6" font-family="Arial Bold" font-size="18.00">release</text>
<text text-anchor="start" x="895.64" y="-368.6" font-family="Arial" font-size="14.00">    </text>
<text text-anchor="start" x="926.75" y="-368.6" font-family="Arial" font-size="14.00" fill="#666666">[table]</text>
<polygon fill="none" stroke="black" points="813.86,-324.4 813.86,-355.2 996.71,-355.2 996.71,-324.4 813.86,-324.4"/>
<text text-anchor="start" x="820.86" y="-336.6" font-family="Arial" font-size="14.00">id </text>
<text text-anchor="start" x="835.64" y="-336.6" font-family="Arial" font-size="14.00" fill="#666666">[INTEGER]</text>
<polygon fill="none" stroke="black" points="813.86,-293.6 813.86,-324.4 996.71,-324.4 996.71,-293.6 813.86,-293.6"/>
<text text-anchor="start" x="820.86" y="-305.8" font-family="Arial" font-size="14.00">name </text>
<text text-anchor="start" x="859.77" y="-305.8" font-family="Arial" font-size="14.00" fill="#666666">[TEXT]</text>
<polygon fill="none" stroke="black" points="813.86,-262.8 813.86,-293.6 996.71,-293.6 996.71,-262.8 813.86,-262.8"/>
<text text-anchor="start" x="820.86" y="-275" font-family="Arial" font-size="14.00">thumbnail_filename </text>
<text text-anchor="start" x="946.15" y="-275" font-family="Arial" font-size="14.00" fill="#666666">[TEXT]</text>
</g>
<!-- release_software_title&#45;&gt;release -->
<g id="edge1" class="edge">
<title>release_software_title:release_id&#45;&gt;release:id</title>
<path fill="none" stroke="black" d="M1232.56,-589.29C1189.13,-580.62 1223.55,-512.02 1188.28,-470 1122.34,-391.43 1100.29,-339.8 997.71,-339.8"/>
<polygon fill="black" stroke="black" points="1232.4,-589.28 1241.96,-594.65 1237.72,-589.75 1242.03,-590.14 1242.03,-590.14 1242.03,-590.14 1237.72,-589.75 1242.77,-585.69 1232.4,-589.28"/>
<text text-anchor="start" x="1249.7" y="-600.2" font-family="Arial" font-size="10.00">FOREIGN KEY (release_id) REFERENCES release (id) ON UPDATE NO ACTION ON DELETE CASCADE MATCH NONE</text>
</g>
<!-- software_title -->
<g id="node6" class="node">
<title>software_title</title>
<polygon fill="#efefef" stroke="none" points="1273.17,-355.2 1273.17,-390.8 1455.39,-390.8 1455.39,-355.2 1273.17,-355.2"/>
<polygon fill="none" stroke="black" points="1273.17,-355.2 1273.17,-390.8 1455.39,-390.8 1455.39,-355.2 1273.17,-355.2"/>
<text text-anchor="start" x="1280.17" y="-368.6" font-family="Arial Bold" font-size="18.00">software_title</text>
<text text-anchor="start" x="1379.14" y="-368.6" font-family="Arial" font-size="14.00">    </text>
<text text-anchor="start" x="1410.26" y="-368.6" font-family="Arial" font-size="14.00" fill="#666666">[table]</text>
<polygon fill="none" stroke="black" points="1273.17,-324.4 1273.17,-355.2 1455.39,-355.2 1455.39,-324.4 1273.17,-324.4"/>
<text text-anchor="start" x="1280.17" y="-336.6" font-family="Arial" font-size="14.00">id </text>
<text text-anchor="start" x="1294.96" y="-336.6" font-family="Arial" font-size="14.00" fill="#666666">[INTEGER]</text>
<polygon fill="none" stroke="black" points="1273.17,-293.6 1273.17,-324.4 1455.39,-324.4 1455.39,-293.6 1273.17,-293.6"/>
<text text-anchor="start" x="1280.17" y="-305.8" font-family="Arial" font-size="14.00">name </text>
<text text-anchor="start" x="1319.08" y="-305.8" font-family="Arial" font-size="14.00" fill="#666666">[TEXT]</text>
<polygon fill="none" stroke="black" points="1273.17,-262.8 1273.17,-293.6 1455.39,-293.6 1455.39,-262.8 1273.17,-262.8"/>
<text text-anchor="start" x="1280.17" y="-275" font-family="Arial" font-size="14.00">franchise_id </text>
<text text-anchor="start" x="1359.55" y="-275" font-family="Arial" font-size="14.00" fill="#666666">[INTEGER]</text>
</g>
<!-- release_software_title&#45;&gt;software_title -->
<g id="edge5" class="edge">
<title>release_software_title:software_title_id&#45;&gt;software_title:id</title>
<path fill="none" stroke="black" d="M1364.97,-532.66C1372.24,-481.18 1434.82,-489.77 1455.39,-434 1469.89,-394.72 1498.26,-339.8 1456.39,-339.8"/>
<polygon fill="black" stroke="black" points="1364.97,-532.69 1359.82,-542.37 1364.62,-538.01 1364.33,-542.33 1364.33,-542.33 1364.33,-542.33 1364.62,-538.01 1368.8,-542.97 1364.97,-532.69"/>
<text text-anchor="start" x="1371.28" y="-553" font-family="Arial" font-size="10.00">FOREIGN KEY (software_title_id) REFERENCES software_title (id) ON UPDATE NO ACTION ON DELETE CASCADE MATCH NONE</text>
</g>
<!-- release_file_set -->
<g id="node3" class="node">
<title>release_file_set</title>
<polygon fill="#efefef" stroke="none" points="365.69,-605.6 365.69,-641.2 560.88,-641.2 560.88,-605.6 365.69,-605.6"/>
<polygon fill="none" stroke="black" points="365.69,-605.6 365.69,-641.2 560.88,-641.2 560.88,-605.6 365.69,-605.6"/>
<text text-anchor="start" x="372.69" y="-619" font-family="Arial Bold" font-size="18.00">release_file_set</text>
<text text-anchor="start" x="484.63" y="-619" font-family="Arial" font-size="14.00">    </text>
<text text-anchor="start" x="515.74" y="-619" font-family="Arial" font-size="14.00" fill="#666666">[table]</text>
<polygon fill="none" stroke="black" points="365.69,-574.8 365.69,-605.6 560.88,-605.6 560.88,-574.8 365.69,-574.8"/>
<text text-anchor="start" x="372.69" y="-587" font-family="Arial" font-size="14.00">release_id </text>
<text text-anchor="start" x="441.18" y="-587" font-family="Arial" font-size="14.00" fill="#666666">[INTEGER]</text>
<polygon fill="none" stroke="black" points="365.69,-544 365.69,-574.8 560.88,-574.8 560.88,-544 365.69,-544"/>
<text text-anchor="start" x="372.69" y="-556.2" font-family="Arial" font-size="14.00">file_set_id </text>
<text text-anchor="start" x="439.62" y="-556.2" font-family="Arial" font-size="14.00" fill="#666666">[INTEGER]</text>
</g>
<!-- release_file_set&#45;&gt;release -->
<g id="edge2" class="edge">
<title>release_file_set:release_id&#45;&gt;release:id</title>
<path fill="none" stroke="black" d="M572.16,-589.23C614.49,-580.28 578.41,-511.54 613.28,-470 681.38,-388.89 706.95,-339.8 812.86,-339.8"/>
<polygon fill="black" stroke="black" points="572.17,-589.23 561.79,-585.69 566.86,-589.73 562.55,-590.14 562.55,-590.14 562.55,-590.14 566.86,-589.73 562.64,-594.65 572.17,-589.23"/>
<text text-anchor="start" x="7" y="-600.2" font-family="Arial" font-size="10.00">FOREIGN KEY (release_id) REFERENCES release (id) ON UPDATE NO ACTION ON DELETE CASCADE MATCH NONE</text>
</g>
<!-- release_system -->
<g id="node4" class="node">
<title>release_system</title>
<polygon fill="#efefef" stroke="none" points="665.18,-605.6 665.18,-641.2 857.39,-641.2 857.39,-605.6 665.18,-605.6"/>
<polygon fill="none" stroke="black" points="665.18,-605.6 665.18,-641.2 857.39,-641.2 857.39,-605.6 665.18,-605.6"/>
<text text-anchor="start" x="672.18" y="-619" font-family="Arial Bold" font-size="18.00">release_system</text>
<text text-anchor="start" x="781.14" y="-619" font-family="Arial" font-size="14.00">    </text>
<text text-anchor="start" x="812.25" y="-619" font-family="Arial" font-size="14.00" fill="#666666">[table]</text>
<polygon fill="none" stroke="black" points="665.18,-574.8 665.18,-605.6 857.39,-605.6 857.39,-574.8 665.18,-574.8"/>
<text text-anchor="start" x="672.18" y="-587" font-family="Arial" font-size="14.00">release_id </text>
<text text-anchor="start" x="740.67" y="-587" font-family="Arial" font-size="14.00" fill="#666666">[INTEGER]</text>
<polygon fill="none" stroke="black" points="665.18,-544 665.18,-574.8 857.39,-574.8 857.39,-544 665.18,-544"/>
<text text-anchor="start" x="672.18" y="-556.2" font-family="Arial" font-size="14.00">system_id </text>
<text text-anchor="start" x="739.09" y="-556.2" font-family="Arial" font-size="14.00" fill="#666666">[INTEGER]</text>
</g>
<!-- release_system&#45;&gt;release -->
<g id="edge3" class="edge">
<title>release_system:release_id&#45;&gt;release:id</title>
<path fill="none" stroke="black" d="M868.46,-588.68C892.38,-579.9 867.75,-534.96 857.39,-500.8 847.11,-466.89 824.13,-467.92 813.86,-434 801.72,-393.93 770.99,-339.8 812.86,-339.8"/>
<polygon fill="black" stroke="black" points="868.61,-588.65 858.05,-585.7 863.33,-589.45 859.05,-590.1 859.05,-590.1 859.05,-590.1 863.33,-589.45 859.39,-594.6 868.61,-588.65"/>
<text text-anchor="start" x="303.51" y="-574.2" font-family="Arial" font-size="10.00">FOREIGN KEY (release_id) REFERENCES release (id) ON UPDATE NO ACTION ON DELETE CASCADE MATCH NONE</text>
</g>
<!-- release_item -->
<g id="node5" class="node">
<title>release_item</title>
<polygon fill="#efefef" stroke="none" points="962.18,-636.4 962.18,-672 1136.39,-672 1136.39,-636.4 962.18,-636.4"/>
<polygon fill="none" stroke="black" points="962.18,-636.4 962.18,-672 1136.39,-672 1136.39,-636.4 962.18,-636.4"/>
<text text-anchor="start" x="969.18" y="-649.8" font-family="Arial Bold" font-size="18.00">release_item</text>
<text text-anchor="start" x="1060.13" y="-649.8" font-family="Arial" font-size="14.00">    </text>
<text text-anchor="start" x="1091.25" y="-649.8" font-family="Arial" font-size="14.00" fill="#666666">[table]</text>
<polygon fill="none" stroke="black" points="962.18,-605.6 962.18,-636.4 1136.39,-636.4 1136.39,-605.6 962.18,-605.6"/>
<text text-anchor="start" x="969.18" y="-617.8" font-family="Arial" font-size="14.00">id </text>
<text text-anchor="start" x="983.97" y="-617.8" font-family="Arial" font-size="14.00" fill="#666666">[INTEGER]</text>
<polygon fill="none" stroke="black" points="962.18,-574.8 962.18,-605.6 1136.39,-605.6 1136.39,-574.8 962.18,-574.8"/>
<text text-anchor="start" x="969.18" y="-587" font-family="Arial" font-size="14.00">release_id </text>
<text text-anchor="start" x="1037.67" y="-587" font-family="Arial" font-size="14.00" fill="#666666">[INTEGER]</text>
<polygon fill="none" stroke="black" points="962.18,-544 962.18,-574.8 1136.39,-574.8 1136.39,-544 962.18,-544"/>
<text text-anchor="start" x="969.18" y="-556.2" font-family="Arial" font-size="14.00">item_type </text>
<text text-anchor="start" x="1033.77" y="-556.2" font-family="Arial" font-size="14.00" fill="#666666">[INTEGER]</text>
<polygon fill="none" stroke="black" points="962.18,-513.2 962.18,-544 1136.39,-544 1136.39,-513.2 962.18,-513.2"/>
<text text-anchor="start" x="969.18" y="-525.4" font-family="Arial" font-size="14.00">notes </text>
<text text-anchor="start" x="1007.32" y="-525.4" font-family="Arial" font-size="14.00" fill="#666666">[TEXT]</text>
</g>
<!-- release_item&#45;&gt;release -->
<g id="edge4" class="edge">
<title>release_item:release_id&#45;&gt;release:id</title>
<path fill="none" stroke="black" d="M951.18,-589.18C912.51,-580.36 943.46,-516.01 962.18,-470 970.54,-449.46 988.33,-454.53 996.71,-434 1012.54,-395.24 1039.58,-339.8 997.71,-339.8"/>
<polygon fill="black" stroke="black" points="950.9,-589.15 960.39,-594.64 956.21,-589.69 960.52,-590.13 960.52,-590.13 960.52,-590.13 956.21,-589.69 961.3,-585.69 950.9,-589.15"/>
<text text-anchor="start" x="968.18" y="-600.2" font-family="Arial" font-size="10.00">FOREIGN KEY (release_id) REFERENCES release (id) ON UPDATE NO ACTION ON DELETE CASCADE MATCH NONE</text>
</g>
<!-- franchise -->
<g id="node7" class="node">
<title>franchise</title>
<polygon fill="#efefef" stroke="none" points="1289.68,-104.8 1289.68,-140.4 1438.89,-140.4 1438.89,-104.8 1289.68,-104.8"/>
<polygon fill="none" stroke="black" points="1289.68,-104.8 1289.68,-140.4 1438.89,-140.4 1438.89,-104.8 1289.68,-104.8"/>
<text text-anchor="start" x="1296.68" y="-118.2" font-family="Arial Bold" font-size="18.00">franchise</text>
<text text-anchor="start" x="1362.64" y="-118.2" font-family="Arial" font-size="14.00">    </text>
<text text-anchor="start" x="1393.76" y="-118.2" font-family="Arial" font-size="14.00" fill="#666666">[table]</text>
<polygon fill="none" stroke="black" points="1289.68,-74 1289.68,-104.8 1438.89,-104.8 1438.89,-74 1289.68,-74"/>
<text text-anchor="start" x="1296.68" y="-86.2" font-family="Arial" font-size="14.00">id </text>
<text text-anchor="start" x="1311.46" y="-86.2" font-family="Arial" font-size="14.00" fill="#666666">[INTEGER]</text>
<polygon fill="none" stroke="black" points="1289.68,-43.2 1289.68,-74 1438.89,-74 1438.89,-43.2 1289.68,-43.2"/>
<text text-anchor="start" x="1296.68" y="-55.4" font-family="Arial" font-size="14.00">name </text>
<text text-anchor="start" x="1335.59" y="-55.4" font-family="Arial" font-size="14.00" fill="#666666">[TEXT]</text>
</g>
<!-- software_title&#45;&gt;franchise -->
<g id="edge6" class="edge">
<title>software_title:franchise_id&#45;&gt;franchise:id</title>
<path fill="none" stroke="black" d="M1365.27,-251.63C1372.88,-215.64 1422.21,-224.62 1438.89,-183.6 1454.67,-144.82 1481.76,-89.4 1439.89,-89.4"/>
<polygon fill="black" stroke="black" points="1365.29,-251.51 1359.84,-261.03 1364.77,-256.82 1364.35,-261.13 1364.35,-261.13 1364.35,-261.13 1364.77,-256.82 1368.8,-261.9 1365.29,-251.51"/>
<text text-anchor="start" x="1371.28" y="-271.8" font-family="Arial" font-size="10.00">FOREIGN KEY (franchise_id) REFERENCES franchise (id) ON UPDATE NO ACTION ON DELETE NO ACTION MATCH NONE</text>
</g>
</g>
</svg>
