<?xml version="1.0" encoding="UTF-8" standalone="no"?>
<!DOCTYPE svg PUBLIC "-//W3C//DTD SVG 1.1//EN"
 "http://www.w3.org/Graphics/SVG/1.1/DTD/svg11.dtd">
<!-- Generated by graphviz version 12.1.2 (20240928.0832)
 -->
<!-- Title: release_item_file_set Pages: 1 -->
<svg width="1896pt" height="785pt"
 viewBox="0.00 0.00 1895.74 784.80" xmlns="http://www.w3.org/2000/svg" xmlns:xlink="http://www.w3.org/1999/xlink">
<g id="graph0" class="graph" transform="scale(1 1) rotate(0) translate(4 780.8)">
<title>release_item_file_set</title>
<polygon fill="white" stroke="none" points="-4,4 -4,-780.8 1891.74,-780.8 1891.74,4 -4,4"/>
<!-- release_item_file_set -->
<g id="node1" class="node">
<title>release_item_file_set</title>
<polygon fill="#efefef" stroke="none" points="373.6,-667.2 373.6,-702.8 609.79,-702.8 609.79,-667.2 373.6,-667.2"/>
<polygon fill="none" stroke="black" points="373.6,-667.2 373.6,-702.8 609.79,-702.8 609.79,-667.2 373.6,-667.2"/>
<text text-anchor="start" x="380.6" y="-680.6" font-family="Arial Bold" font-size="18.00">release_item_file_set</text>
<text text-anchor="start" x="533.53" y="-680.6" font-family="Arial" font-size="14.00">    </text>
<text text-anchor="start" x="564.65" y="-680.6" font-family="Arial" font-size="14.00" fill="#666666">[table]</text>
<polygon fill="none" stroke="black" points="373.6,-636.4 373.6,-667.2 609.79,-667.2 609.79,-636.4 373.6,-636.4"/>
<text text-anchor="start" x="380.6" y="-648.6" font-family="Arial" font-size="14.00">release_item_id </text>
<text text-anchor="start" x="483.33" y="-648.6" font-family="Arial" font-size="14.00" fill="#666666">[INTEGER]</text>
<polygon fill="none" stroke="black" points="373.6,-605.6 373.6,-636.4 609.79,-636.4 609.79,-605.6 373.6,-605.6"/>
<text text-anchor="start" x="380.6" y="-617.8" font-family="Arial" font-size="14.00">file_set_id </text>
<text text-anchor="start" x="447.53" y="-617.8" font-family="Arial" font-size="14.00" fill="#666666">[INTEGER]</text>
<polygon fill="none" stroke="black" stroke-width="3" points="372.1,-604.1 372.1,-704.3 611.29,-704.3 611.29,-604.1 372.1,-604.1"/>
</g>
<!-- release_item -->
<g id="node2" class="node">
<title>release_item</title>
<polygon fill="#efefef" stroke="none" points="404.59,-401.4 404.59,-437 578.8,-437 578.8,-401.4 404.59,-401.4"/>
<polygon fill="none" stroke="black" points="404.59,-401.4 404.59,-437 578.8,-437 578.8,-401.4 404.59,-401.4"/>
<text text-anchor="start" x="411.59" y="-414.8" font-family="Arial Bold" font-size="18.00">release_item</text>
<text text-anchor="start" x="502.54" y="-414.8" font-family="Arial" font-size="14.00">    </text>
<text text-anchor="start" x="533.66" y="-414.8" font-family="Arial" font-size="14.00" fill="#666666">[table]</text>
<polygon fill="none" stroke="black" points="404.59,-370.6 404.59,-401.4 578.8,-401.4 578.8,-370.6 404.59,-370.6"/>
<text text-anchor="start" x="411.59" y="-382.8" font-family="Arial" font-size="14.00">id </text>
<text text-anchor="start" x="426.38" y="-382.8" font-family="Arial" font-size="14.00" fill="#666666">[INTEGER]</text>
<polygon fill="none" stroke="black" points="404.59,-339.8 404.59,-370.6 578.8,-370.6 578.8,-339.8 404.59,-339.8"/>
<text text-anchor="start" x="411.59" y="-352" font-family="Arial" font-size="14.00">release_id </text>
<text text-anchor="start" x="480.08" y="-352" font-family="Arial" font-size="14.00" fill="#666666">[INTEGER]</text>
<polygon fill="none" stroke="black" points="404.59,-309 404.59,-339.8 578.8,-339.8 578.8,-309 404.59,-309"/>
<text text-anchor="start" x="411.59" y="-321.2" font-family="Arial" font-size="14.00">item_type </text>
<text text-anchor="start" x="476.18" y="-321.2" font-family="Arial" font-size="14.00" fill="#666666">[INTEGER]</text>
<polygon fill="none" stroke="black" points="404.59,-278.2 404.59,-309 578.8,-309 578.8,-278.2 404.59,-278.2"/>
<text text-anchor="start" x="411.59" y="-290.4" font-family="Arial" font-size="14.00">notes </text>
<text text-anchor="start" x="449.73" y="-290.4" font-family="Arial" font-size="14.00" fill="#666666">[TEXT]</text>
</g>
<!-- release_item_file_set&#45;&gt;release_item -->
<g id="edge1" class="edge">
<title>release_item_file_set:release_item_id&#45;&gt;release_item:id</title>
<path fill="none" stroke="black" d="M620.61,-648.99C666.4,-620.59 635.66,-386 579.8,-386"/>
<polygon fill="black" stroke="black" points="620.72,-648.96 609.87,-647.38 615.59,-650.43 611.43,-651.62 611.43,-651.62 611.43,-651.62 615.59,-650.43 612.34,-656.04 620.72,-648.96"/>
<text text-anchor="start" x="7" y="-661.8" font-family="Arial" font-size="10.00">FOREIGN KEY (release_item_id) REFERENCES release_item (id) ON UPDATE NO ACTION ON DELETE CASCADE MATCH NONE</text>
</g>
<!-- file_set -->
<g id="node4" class="node">
<title>file_set</title>
<polygon fill="#efefef" stroke="none" points="903.67,-416.8 903.67,-452.4 1043.72,-452.4 1043.72,-416.8 903.67,-416.8"/>
<polygon fill="none" stroke="black" points="903.67,-416.8 903.67,-452.4 1043.72,-452.4 1043.72,-416.8 903.67,-416.8"/>
<text text-anchor="start" x="912.58" y="-430.2" font-family="Arial Bold" font-size="18.00">file_set</text>
<text text-anchor="start" x="965.56" y="-430.2" font-family="Arial" font-size="14.00">    </text>
<text text-anchor="start" x="996.67" y="-430.2" font-family="Arial" font-size="14.00" fill="#666666">[table]</text>
<polygon fill="none" stroke="black" points="903.67,-386 903.67,-416.8 1043.72,-416.8 1043.72,-386 903.67,-386"/>
<text text-anchor="start" x="910.67" y="-398.2" font-family="Arial" font-size="14.00">id </text>
<text text-anchor="start" x="925.46" y="-398.2" font-family="Arial" font-size="14.00" fill="#666666">[INTEGER]</text>
<polygon fill="none" stroke="black" points="903.67,-355.2 903.67,-386 1043.72,-386 1043.72,-355.2 903.67,-355.2"/>
<text text-anchor="start" x="910.67" y="-367.4" font-family="Arial" font-size="14.00">file_name </text>
<text text-anchor="start" x="975.27" y="-367.4" font-family="Arial" font-size="14.00" fill="#666666">[TEXT]</text>
<polygon fill="none" stroke="black" points="903.67,-324.4 903.67,-355.2 1043.72,-355.2 1043.72,-324.4 903.67,-324.4"/>
<text text-anchor="start" x="910.67" y="-336.6" font-family="Arial" font-size="14.00">file_type </text>
<text text-anchor="start" x="966.71" y="-336.6" font-family="Arial" font-size="14.00" fill="#666666">[INTEGER]</text>
<polygon fill="none" stroke="black" points="903.67,-293.6 903.67,-324.4 1043.72,-324.4 1043.72,-293.6 903.67,-293.6"/>
<text text-anchor="start" x="910.67" y="-305.8" font-family="Arial" font-size="14.00">name </text>
<text text-anchor="start" x="949.58" y="-305.8" font-family="Arial" font-size="14.00" fill="#666666">[TEXT]</text>
<polygon fill="none" stroke="black" points="903.67,-262.8 903.67,-293.6 1043.72,-293.6 1043.72,-262.8 903.67,-262.8"/>
<text text-anchor="start" x="910.67" y="-275" font-family="Arial" font-size="14.00">source </text>
<text text-anchor="start" x="956.58" y="-275" font-family="Arial" font-size="14.00" fill="#666666">[TEXT]</text>
</g>
<!-- release_item_file_set&#45;&gt;file_set -->
<g id="edge3" class="edge">
<title>release_item_file_set:file_set_id&#45;&gt;file_set:id</title>
<path fill="none" stroke="black" d="M620.82,-619.89C653.32,-611.77 633.95,-561.08 664.69,-531.6 751.72,-448.16 782.11,-401.4 902.67,-401.4"/>
<polygon fill="black" stroke="black" points="621.06,-619.86 610.62,-616.49 615.76,-620.45 611.45,-620.93 611.45,-620.93 611.45,-620.93 615.76,-620.45 611.62,-625.44 621.06,-619.86"/>
<text text-anchor="start" x="58.13" y="-631" font-family="Arial" font-size="10.00">FOREIGN KEY (file_set_id) REFERENCES file_set (id) ON UPDATE NO ACTION ON DELETE CASCADE MATCH NONE</text>
</g>
<!-- release -->
<g id="node3" class="node">
<title>release</title>
<polygon fill="#efefef" stroke="none" points="425.09,-104.8 425.09,-140.4 558.3,-140.4 558.3,-104.8 425.09,-104.8"/>
<polygon fill="none" stroke="black" points="425.09,-104.8 425.09,-140.4 558.3,-140.4 558.3,-104.8 425.09,-104.8"/>
<text text-anchor="start" x="432.09" y="-118.2" font-family="Arial Bold" font-size="18.00">release</text>
<text text-anchor="start" x="482.05" y="-118.2" font-family="Arial" font-size="14.00">    </text>
<text text-anchor="start" x="513.16" y="-118.2" font-family="Arial" font-size="14.00" fill="#666666">[table]</text>
<polygon fill="none" stroke="black" points="425.09,-74 425.09,-104.8 558.3,-104.8 558.3,-74 425.09,-74"/>
<text text-anchor="start" x="432.09" y="-86.2" font-family="Arial" font-size="14.00">id </text>
<text text-anchor="start" x="446.88" y="-86.2" font-family="Arial" font-size="14.00" fill="#666666">[INTEGER]</text>
<polygon fill="none" stroke="black" points="425.09,-43.2 425.09,-74 558.3,-74 558.3,-43.2 425.09,-43.2"/>
<text text-anchor="start" x="432.09" y="-55.4" font-family="Arial" font-size="14.00">name </text>
<text text-anchor="start" x="471" y="-55.4" font-family="Arial" font-size="14.00" fill="#666666">[TEXT]</text>
</g>
<!-- release_item&#45;&gt;release -->
<g id="edge2" class="edge">
<title>release_item:release_id&#45;&gt;release:id</title>
<path fill="none" stroke="black" d="M590.18,-354.48C696.95,-339.35 674.2,-89.4 559.3,-89.4"/>
<polygon fill="black" stroke="black" points="590.11,-354.49 579.82,-350.69 584.79,-354.86 580.46,-355.15 580.46,-355.15 580.46,-355.15 584.79,-354.86 580.44,-359.67 590.11,-354.49"/>
<text text-anchor="start" x="24.92" y="-365.2" font-family="Arial" font-size="10.00">FOREIGN KEY (release_id) REFERENCES release (id) ON UPDATE NO ACTION ON DELETE CASCADE MATCH NONE</text>
</g>
<!-- file_set_file_info -->
<g id="node5" class="node">
<title>file_set_file_info</title>
<polygon fill="#efefef" stroke="none" points="717.09,-698 717.09,-733.6 924.3,-733.6 924.3,-698 717.09,-698"/>
<polygon fill="none" stroke="black" points="717.09,-698 717.09,-733.6 924.3,-733.6 924.3,-698 717.09,-698"/>
<text text-anchor="start" x="724.09" y="-711.4" font-family="Arial Bold" font-size="18.00">file_set_file_info</text>
<text text-anchor="start" x="848.05" y="-711.4" font-family="Arial" font-size="14.00">    </text>
<text text-anchor="start" x="879.17" y="-711.4" font-family="Arial" font-size="14.00" fill="#666666">[table]</text>
<polygon fill="none" stroke="black" points="717.09,-667.2 717.09,-698 924.3,-698 924.3,-667.2 717.09,-667.2"/>
<text text-anchor="start" x="724.09" y="-679.4" font-family="Arial" font-size="14.00">file_set_id </text>
<text text-anchor="start" x="791.02" y="-679.4" font-family="Arial" font-size="14.00" fill="#666666">[INTEGER]</text>
<polygon fill="none" stroke="black" points="717.09,-636.4 717.09,-667.2 924.3,-667.2 924.3,-636.4 717.09,-636.4"/>
<text text-anchor="start" x="724.09" y="-648.6" font-family="Arial" font-size="14.00">file_info_id </text>
<text text-anchor="start" x="794.91" y="-648.6" font-family="Arial" font-size="14.00" fill="#666666">[INTEGER]</text>
<polygon fill="none" stroke="black" points="717.09,-605.6 717.09,-636.4 924.3,-636.4 924.3,-605.6 717.09,-605.6"/>
<text text-anchor="start" x="724.09" y="-617.8" font-family="Arial" font-size="14.00">file_name </text>
<text text-anchor="start" x="788.68" y="-617.8" font-family="Arial" font-size="14.00" fill="#666666">[TEXT]</text>
<polygon fill="none" stroke="black" points="717.09,-574.8 717.09,-605.6 924.3,-605.6 924.3,-574.8 717.09,-574.8"/>
<text text-anchor="start" x="724.09" y="-587" font-family="Arial" font-size="14.00">sort_order </text>
<text text-anchor="start" x="791.78" y="-587" font-family="Arial" font-size="14.00" fill="#666666">[INTEGER]</text>
</g>
<!-- file_set_file_info&#45;&gt;file_set -->
<g id="edge4" class="edge">
<title>file_set_file_info:file_set_id&#45;&gt;file_set:id</title>
<path fill="none" stroke="black" d="M935.6,-681.79C986.79,-672.9 940.79,-592.73 924.3,-531.6 919.5,-513.8 908.51,-513.39 903.67,-495.6 892.69,-455.2 860.81,-401.4 902.67,-401.4"/>
<polygon fill="black" stroke="black" points="935.61,-681.79 925.28,-678.09 930.29,-682.21 925.97,-682.55 925.97,-682.55 925.97,-682.55 930.29,-682.21 925.99,-687.06 935.61,-681.79"/>
<text text-anchor="start" x="365.44" y="-692.6" font-family="Arial" font-size="10.00">FOREIGN KEY (file_set_id) REFERENCES file_set (id) ON UPDATE NO ACTION ON DELETE NO ACTION MATCH NONE</text>
</g>
<!-- release_file_set -->
<g id="node6" class="node">
<title>release_file_set</title>
<polygon fill="#efefef" stroke="none" points="1029.1,-667.2 1029.1,-702.8 1224.29,-702.8 1224.29,-667.2 1029.1,-667.2"/>
<polygon fill="none" stroke="black" points="1029.1,-667.2 1029.1,-702.8 1224.29,-702.8 1224.29,-667.2 1029.1,-667.2"/>
<text text-anchor="start" x="1036.1" y="-680.6" font-family="Arial Bold" font-size="18.00">release_file_set</text>
<text text-anchor="start" x="1148.04" y="-680.6" font-family="Arial" font-size="14.00">    </text>
<text text-anchor="start" x="1179.15" y="-680.6" font-family="Arial" font-size="14.00" fill="#666666">[table]</text>
<polygon fill="none" stroke="black" points="1029.1,-636.4 1029.1,-667.2 1224.29,-667.2 1224.29,-636.4 1029.1,-636.4"/>
<text text-anchor="start" x="1036.1" y="-648.6" font-family="Arial" font-size="14.00">release_id </text>
<text text-anchor="start" x="1104.59" y="-648.6" font-family="Arial" font-size="14.00" fill="#666666">[INTEGER]</text>
<polygon fill="none" stroke="black" points="1029.1,-605.6 1029.1,-636.4 1224.29,-636.4 1224.29,-605.6 1029.1,-605.6"/>
<text text-anchor="start" x="1036.1" y="-617.8" font-family="Arial" font-size="14.00">file_set_id </text>
<text text-anchor="start" x="1103.03" y="-617.8" font-family="Arial" font-size="14.00" fill="#666666">[INTEGER]</text>
</g>
<!-- release_file_set&#45;&gt;file_set -->
<g id="edge5" class="edge">
<title>release_file_set:file_set_id&#45;&gt;file_set:id</title>
<path fill="none" stroke="black" d="M1018.01,-620.02C946.34,-604.18 1138.77,-401.4 1044.72,-401.4"/>
<polygon fill="black" stroke="black" points="1017.81,-620 1027.33,-625.45 1023.12,-620.52 1027.43,-620.94 1027.43,-620.94 1027.43,-620.94 1023.12,-620.52 1028.2,-616.49 1017.81,-620"/>
<text text-anchor="start" x="1035.1" y="-631" font-family="Arial" font-size="10.00">FOREIGN KEY (file_set_id) REFERENCES file_set (id) ON UPDATE NO ACTION ON DELETE CASCADE MATCH NONE</text>
</g>
<!-- file_set_item_type -->
<g id="node7" class="node">
<title>file_set_item_type</title>
<polygon fill="#efefef" stroke="none" points="1329.09,-667.2 1329.09,-702.8 1546.3,-702.8 1546.3,-667.2 1329.09,-667.2"/>
<polygon fill="none" stroke="black" points="1329.09,-667.2 1329.09,-702.8 1546.3,-702.8 1546.3,-667.2 1329.09,-667.2"/>
<text text-anchor="start" x="1336.09" y="-680.6" font-family="Arial Bold" font-size="18.00">file_set_item_type</text>
<text text-anchor="start" x="1470.05" y="-680.6" font-family="Arial" font-size="14.00">    </text>
<text text-anchor="start" x="1501.17" y="-680.6" font-family="Arial" font-size="14.00" fill="#666666">[table]</text>
<polygon fill="none" stroke="black" points="1329.09,-636.4 1329.09,-667.2 1546.3,-667.2 1546.3,-636.4 1329.09,-636.4"/>
<text text-anchor="start" x="1336.09" y="-648.6" font-family="Arial" font-size="14.00">file_set_id </text>
<text text-anchor="start" x="1403.02" y="-648.6" font-family="Arial" font-size="14.00" fill="#666666">[INTEGER]</text>
<polygon fill="none" stroke="black" points="1329.09,-605.6 1329.09,-636.4 1546.3,-636.4 1546.3,-605.6 1329.09,-605.6"/>
<text text-anchor="start" x="1336.09" y="-617.8" font-family="Arial" font-size="14.00">item_type </text>
<text text-anchor="start" x="1400.67" y="-617.8" font-family="Arial" font-size="14.00" fill="#666666">[INTEGER]</text>
</g>
<!-- file_set_item_type&#45;&gt;file_set -->
<g id="edge6" class="edge">
<title>file_set_item_type:file_set_id&#45;&gt;file_set:id</title>
<path fill="none" stroke="black" d="M1317.83,-650.81C1275.66,-641.73 1312.94,-571.96 1276.69,-531.6 1197.7,-443.63 1162.95,-401.4 1044.72,-401.4"/>
<polygon fill="black" stroke="black" points="1317.8,-650.81 1327.32,-656.25 1323.11,-651.32 1327.42,-651.74 1327.42,-651.74 1327.42,-651.74 1323.11,-651.32 1328.18,-647.29 1317.8,-650.81"/>
<text text-anchor="start" x="1335.09" y="-661.8" font-family="Arial" font-size="10.00">FOREIGN KEY (file_set_id) REFERENCES file_set (id) ON UPDATE NO ACTION ON DELETE CASCADE MATCH NONE</text>
</g>
</g>
</svg>
