<?xml version="1.0" encoding="UTF-8" standalone="no"?>
<!DOCTYPE svg PUBLIC "-//W3C//DTD SVG 1.1//EN"
 "http://www.w3.org/Graphics/SVG/1.1/DTD/svg11.dtd">
<!-- Generated by graphviz version 12.1.2 (20240928.0832)
 -->
<!-- Title: release Pages: 1 -->
<svg width="2080pt" height="785pt"
 viewBox="0.00 0.00 2079.77 784.80" xmlns="http://www.w3.org/2000/svg" xmlns:xlink="http://www.w3.org/1999/xlink">
<g id="graph0" class="graph" transform="scale(1 1) rotate(0) translate(4 780.8)">
<title>release</title>
<polygon fill="white" stroke="none" points="-4,4 -4,-780.8 2075.77,-780.8 2075.77,4 -4,4"/>
<!-- release -->
<g id="node1" class="node">
<title>release</title>
<polygon fill="#efefef" stroke="none" points="1056.05,-151 1056.05,-186.6 1189.26,-186.6 1189.26,-151 1056.05,-151"/>
<polygon fill="none" stroke="black" points="1056.05,-151 1056.05,-186.6 1189.26,-186.6 1189.26,-151 1056.05,-151"/>
<text text-anchor="start" x="1063.05" y="-164.4" font-family="Arial Bold" font-size="18.00">release</text>
<text text-anchor="start" x="1113.01" y="-164.4" font-family="Arial" font-size="14.00">    </text>
<text text-anchor="start" x="1144.12" y="-164.4" font-family="Arial" font-size="14.00" fill="#666666">[table]</text>
<polygon fill="none" stroke="black" points="1056.05,-120.2 1056.05,-151 1189.26,-151 1189.26,-120.2 1056.05,-120.2"/>
<text text-anchor="start" x="1063.05" y="-132.4" font-family="Arial" font-size="14.00">id </text>
<text text-anchor="start" x="1077.83" y="-132.4" font-family="Arial" font-size="14.00" fill="#666666">[INTEGER]</text>
<polygon fill="none" stroke="black" points="1056.05,-89.4 1056.05,-120.2 1189.26,-120.2 1189.26,-89.4 1056.05,-89.4"/>
<text text-anchor="start" x="1063.05" y="-101.6" font-family="Arial" font-size="14.00">name </text>
<text text-anchor="start" x="1101.96" y="-101.6" font-family="Arial" font-size="14.00" fill="#666666">[TEXT]</text>
<polygon fill="none" stroke="black" stroke-width="3" points="1054.55,-87.9 1054.55,-188.1 1190.76,-188.1 1190.76,-87.9 1054.55,-87.9"/>
</g>
<!-- release_file_set -->
<g id="node2" class="node">
<title>release_file_set</title>
<polygon fill="#efefef" stroke="none" points="462.06,-447.6 462.06,-483.2 657.25,-483.2 657.25,-447.6 462.06,-447.6"/>
<polygon fill="none" stroke="black" points="462.06,-447.6 462.06,-483.2 657.25,-483.2 657.25,-447.6 462.06,-447.6"/>
<text text-anchor="start" x="469.06" y="-461" font-family="Arial Bold" font-size="18.00">release_file_set</text>
<text text-anchor="start" x="581" y="-461" font-family="Arial" font-size="14.00">    </text>
<text text-anchor="start" x="612.11" y="-461" font-family="Arial" font-size="14.00" fill="#666666">[table]</text>
<polygon fill="none" stroke="black" points="462.06,-416.8 462.06,-447.6 657.25,-447.6 657.25,-416.8 462.06,-416.8"/>
<text text-anchor="start" x="469.06" y="-429" font-family="Arial" font-size="14.00">release_id </text>
<text text-anchor="start" x="537.55" y="-429" font-family="Arial" font-size="14.00" fill="#666666">[INTEGER]</text>
<polygon fill="none" stroke="black" points="462.06,-386 462.06,-416.8 657.25,-416.8 657.25,-386 462.06,-386"/>
<text text-anchor="start" x="469.06" y="-398.2" font-family="Arial" font-size="14.00">file_set_id </text>
<text text-anchor="start" x="535.99" y="-398.2" font-family="Arial" font-size="14.00" fill="#666666">[INTEGER]</text>
</g>
<!-- release_file_set&#45;&gt;release -->
<g id="edge1" class="edge">
<title>release_file_set:release_id&#45;&gt;release:id</title>
<path fill="none" stroke="black" d="M668.42,-431.11C709.76,-421.13 666.48,-344.84 709.65,-312 804.95,-239.5 877.68,-343.39 976.65,-276 1035.73,-235.78 983.58,-135.6 1055.05,-135.6"/>
<polygon fill="black" stroke="black" points="668.53,-431.1 658.11,-427.69 663.22,-431.67 658.92,-432.13 658.92,-432.13 658.92,-432.13 663.22,-431.67 659.06,-436.64 668.53,-431.1"/>
<text text-anchor="start" x="103.37" y="-442.2" font-family="Arial" font-size="10.00">FOREIGN KEY (release_id) REFERENCES release (id) ON UPDATE NO ACTION ON DELETE CASCADE MATCH NONE</text>
</g>
<!-- file_set -->
<g id="node3" class="node">
<title>file_set</title>
<polygon fill="#efefef" stroke="none" points="489.63,-197.2 489.63,-232.8 629.67,-232.8 629.67,-197.2 489.63,-197.2"/>
<polygon fill="none" stroke="black" points="489.63,-197.2 489.63,-232.8 629.67,-232.8 629.67,-197.2 489.63,-197.2"/>
<text text-anchor="start" x="498.54" y="-210.6" font-family="Arial Bold" font-size="18.00">file_set</text>
<text text-anchor="start" x="551.52" y="-210.6" font-family="Arial" font-size="14.00">    </text>
<text text-anchor="start" x="582.63" y="-210.6" font-family="Arial" font-size="14.00" fill="#666666">[table]</text>
<polygon fill="none" stroke="black" points="489.63,-166.4 489.63,-197.2 629.67,-197.2 629.67,-166.4 489.63,-166.4"/>
<text text-anchor="start" x="496.63" y="-178.6" font-family="Arial" font-size="14.00">id </text>
<text text-anchor="start" x="511.42" y="-178.6" font-family="Arial" font-size="14.00" fill="#666666">[INTEGER]</text>
<polygon fill="none" stroke="black" points="489.63,-135.6 489.63,-166.4 629.67,-166.4 629.67,-135.6 489.63,-135.6"/>
<text text-anchor="start" x="496.63" y="-147.8" font-family="Arial" font-size="14.00">file_name </text>
<text text-anchor="start" x="561.23" y="-147.8" font-family="Arial" font-size="14.00" fill="#666666">[TEXT]</text>
<polygon fill="none" stroke="black" points="489.63,-104.8 489.63,-135.6 629.67,-135.6 629.67,-104.8 489.63,-104.8"/>
<text text-anchor="start" x="496.63" y="-117" font-family="Arial" font-size="14.00">file_type </text>
<text text-anchor="start" x="552.67" y="-117" font-family="Arial" font-size="14.00" fill="#666666">[INTEGER]</text>
<polygon fill="none" stroke="black" points="489.63,-74 489.63,-104.8 629.67,-104.8 629.67,-74 489.63,-74"/>
<text text-anchor="start" x="496.63" y="-86.2" font-family="Arial" font-size="14.00">name </text>
<text text-anchor="start" x="535.54" y="-86.2" font-family="Arial" font-size="14.00" fill="#666666">[TEXT]</text>
<polygon fill="none" stroke="black" points="489.63,-43.2 489.63,-74 629.67,-74 629.67,-43.2 489.63,-43.2"/>
<text text-anchor="start" x="496.63" y="-55.4" font-family="Arial" font-size="14.00">source </text>
<text text-anchor="start" x="542.54" y="-55.4" font-family="Arial" font-size="14.00" fill="#666666">[TEXT]</text>
</g>
<!-- release_file_set&#45;&gt;file_set -->
<g id="edge2" class="edge">
<title>release_file_set:file_set_id&#45;&gt;file_set:id</title>
<path fill="none" stroke="black" d="M560.3,-374.6C566.4,-327.66 614.23,-327.61 629.67,-276 641.68,-235.89 672.54,-181.8 630.67,-181.8"/>
<polygon fill="black" stroke="black" points="560.29,-374.69 555.18,-384.39 559.96,-380.01 559.7,-384.33 559.7,-384.33 559.7,-384.33 559.96,-380.01 564.17,-384.94 560.29,-374.69"/>
<text text-anchor="start" x="7" y="-395" font-family="Arial" font-size="10.00">FOREIGN KEY (file_set_id) REFERENCES file_set (id) ON UPDATE NO ACTION ON DELETE CASCADE MATCH NONE</text>
</g>
<!-- release_system -->
<g id="node4" class="node">
<title>release_system</title>
<polygon fill="#efefef" stroke="none" points="761.55,-447.6 761.55,-483.2 953.76,-483.2 953.76,-447.6 761.55,-447.6"/>
<polygon fill="none" stroke="black" points="761.55,-447.6 761.55,-483.2 953.76,-483.2 953.76,-447.6 761.55,-447.6"/>
<text text-anchor="start" x="768.55" y="-461" font-family="Arial Bold" font-size="18.00">release_system</text>
<text text-anchor="start" x="877.51" y="-461" font-family="Arial" font-size="14.00">    </text>
<text text-anchor="start" x="908.62" y="-461" font-family="Arial" font-size="14.00" fill="#666666">[table]</text>
<polygon fill="none" stroke="black" points="761.55,-416.8 761.55,-447.6 953.76,-447.6 953.76,-416.8 761.55,-416.8"/>
<text text-anchor="start" x="768.55" y="-429" font-family="Arial" font-size="14.00">release_id </text>
<text text-anchor="start" x="837.04" y="-429" font-family="Arial" font-size="14.00" fill="#666666">[INTEGER]</text>
<polygon fill="none" stroke="black" points="761.55,-386 761.55,-416.8 953.76,-416.8 953.76,-386 761.55,-386"/>
<text text-anchor="start" x="768.55" y="-398.2" font-family="Arial" font-size="14.00">system_id </text>
<text text-anchor="start" x="835.46" y="-398.2" font-family="Arial" font-size="14.00" fill="#666666">[INTEGER]</text>
</g>
<!-- release_system&#45;&gt;release -->
<g id="edge3" class="edge">
<title>release_system:release_id&#45;&gt;release:id</title>
<path fill="none" stroke="black" d="M964.9,-429.81C1020.54,-401.74 989.14,-135.6 1055.05,-135.6"/>
<polygon fill="black" stroke="black" points="964.82,-429.83 954.05,-427.74 959.63,-431.05 955.41,-432.05 955.41,-432.05 955.41,-432.05 959.63,-431.05 956.12,-436.5 964.82,-429.83"/>
<text text-anchor="start" x="680.82" y="-416.2" font-family="Arial" font-size="10.00">FOREIGN KEY (release_id) REFERENCES release (id) ON UPDATE NO ACTION ON DELETE CASCADE MATCH NONE</text>
</g>
<!-- system -->
<g id="node5" class="node">
<title>system</title>
<polygon fill="#efefef" stroke="none" points="791.03,-151 791.03,-186.6 924.28,-186.6 924.28,-151 791.03,-151"/>
<polygon fill="none" stroke="black" points="791.03,-151 791.03,-186.6 924.28,-186.6 924.28,-151 791.03,-151"/>
<text text-anchor="start" x="798.03" y="-164.4" font-family="Arial Bold" font-size="18.00">system</text>
<text text-anchor="start" x="848.03" y="-164.4" font-family="Arial" font-size="14.00">    </text>
<text text-anchor="start" x="879.14" y="-164.4" font-family="Arial" font-size="14.00" fill="#666666">[table]</text>
<polygon fill="none" stroke="black" points="791.03,-120.2 791.03,-151 924.28,-151 924.28,-120.2 791.03,-120.2"/>
<text text-anchor="start" x="798.03" y="-132.4" font-family="Arial" font-size="14.00">id </text>
<text text-anchor="start" x="812.81" y="-132.4" font-family="Arial" font-size="14.00" fill="#666666">[INTEGER]</text>
<polygon fill="none" stroke="black" points="791.03,-89.4 791.03,-120.2 924.28,-120.2 924.28,-89.4 791.03,-89.4"/>
<text text-anchor="start" x="798.03" y="-101.6" font-family="Arial" font-size="14.00">name </text>
<text text-anchor="start" x="836.94" y="-101.6" font-family="Arial" font-size="14.00" fill="#666666">[TEXT]</text>
</g>
<!-- release_system&#45;&gt;system -->
<g id="edge4" class="edge">
<title>release_system:system_id&#45;&gt;system:id</title>
<path fill="none" stroke="black" d="M858.11,-374.86C868.09,-262.38 1036.76,-135.6 925.28,-135.6"/>
<polygon fill="black" stroke="black" points="858.12,-374.68 853.17,-384.46 857.88,-380.01 857.68,-384.33 857.68,-384.33 857.68,-384.33 857.88,-380.01 862.16,-384.87 858.12,-374.68"/>
<text text-anchor="start" x="305.03" y="-369" font-family="Arial" font-size="10.00">FOREIGN KEY (system_id) REFERENCES system (id) ON UPDATE NO ACTION ON DELETE CASCADE MATCH NONE</text>
</g>
<!-- release_software_title -->
<g id="node6" class="node">
<title>release_software_title</title>
<polygon fill="#efefef" stroke="none" points="1337.07,-447.6 1337.07,-483.2 1578.24,-483.2 1578.24,-447.6 1337.07,-447.6"/>
<polygon fill="none" stroke="black" points="1337.07,-447.6 1337.07,-483.2 1578.24,-483.2 1578.24,-447.6 1337.07,-447.6"/>
<text text-anchor="start" x="1344.07" y="-461" font-family="Arial Bold" font-size="18.00">release_software_title</text>
<text text-anchor="start" x="1501.99" y="-461" font-family="Arial" font-size="14.00">    </text>
<text text-anchor="start" x="1533.1" y="-461" font-family="Arial" font-size="14.00" fill="#666666">[table]</text>
<polygon fill="none" stroke="black" points="1337.07,-416.8 1337.07,-447.6 1578.24,-447.6 1578.24,-416.8 1337.07,-416.8"/>
<text text-anchor="start" x="1344.07" y="-429" font-family="Arial" font-size="14.00">release_id </text>
<text text-anchor="start" x="1412.56" y="-429" font-family="Arial" font-size="14.00" fill="#666666">[INTEGER]</text>
<polygon fill="none" stroke="black" points="1337.07,-386 1337.07,-416.8 1578.24,-416.8 1578.24,-386 1337.07,-386"/>
<text text-anchor="start" x="1344.07" y="-398.2" font-family="Arial" font-size="14.00">software_title_id </text>
<text text-anchor="start" x="1449.12" y="-398.2" font-family="Arial" font-size="14.00" fill="#666666">[INTEGER]</text>
</g>
<!-- release_software_title&#45;&gt;release -->
<g id="edge5" class="edge">
<title>release_software_title:release_id&#45;&gt;release:id</title>
<path fill="none" stroke="black" d="M1325.91,-431.38C1281.83,-423.52 1308.19,-361 1284.65,-312 1246.16,-231.85 1279.18,-135.6 1190.26,-135.6"/>
<polygon fill="black" stroke="black" points="1325.77,-431.36 1335.37,-436.66 1331.08,-431.8 1335.4,-432.15 1335.4,-432.15 1335.4,-432.15 1331.08,-431.8 1336.1,-427.69 1325.77,-431.36"/>
<text text-anchor="start" x="1343.07" y="-442.2" font-family="Arial" font-size="10.00">FOREIGN KEY (release_id) REFERENCES release (id) ON UPDATE NO ACTION ON DELETE CASCADE MATCH NONE</text>
</g>
<!-- software_title -->
<g id="node7" class="node">
<title>software_title</title>
<polygon fill="#efefef" stroke="none" points="1366.54,-166.4 1366.54,-202 1548.76,-202 1548.76,-166.4 1366.54,-166.4"/>
<polygon fill="none" stroke="black" points="1366.54,-166.4 1366.54,-202 1548.76,-202 1548.76,-166.4 1366.54,-166.4"/>
<text text-anchor="start" x="1373.54" y="-179.8" font-family="Arial Bold" font-size="18.00">software_title</text>
<text text-anchor="start" x="1472.51" y="-179.8" font-family="Arial" font-size="14.00">    </text>
<text text-anchor="start" x="1503.63" y="-179.8" font-family="Arial" font-size="14.00" fill="#666666">[table]</text>
<polygon fill="none" stroke="black" points="1366.54,-135.6 1366.54,-166.4 1548.76,-166.4 1548.76,-135.6 1366.54,-135.6"/>
<text text-anchor="start" x="1373.54" y="-147.8" font-family="Arial" font-size="14.00">id </text>
<text text-anchor="start" x="1388.33" y="-147.8" font-family="Arial" font-size="14.00" fill="#666666">[INTEGER]</text>
<polygon fill="none" stroke="black" points="1366.54,-104.8 1366.54,-135.6 1548.76,-135.6 1548.76,-104.8 1366.54,-104.8"/>
<text text-anchor="start" x="1373.54" y="-117" font-family="Arial" font-size="14.00">name </text>
<text text-anchor="start" x="1412.45" y="-117" font-family="Arial" font-size="14.00" fill="#666666">[TEXT]</text>
<polygon fill="none" stroke="black" points="1366.54,-74 1366.54,-104.8 1548.76,-104.8 1548.76,-74 1366.54,-74"/>
<text text-anchor="start" x="1373.54" y="-86.2" font-family="Arial" font-size="14.00">franchise_id </text>
<text text-anchor="start" x="1452.92" y="-86.2" font-family="Arial" font-size="14.00" fill="#666666">[INTEGER]</text>
</g>
<!-- release_software_title&#45;&gt;software_title -->
<g id="edge6" class="edge">
<title>release_software_title:software_title_id&#45;&gt;software_title:id</title>
<path fill="none" stroke="black" d="M1458.14,-374.69C1464.34,-311.18 1528.32,-312.71 1548.76,-245.2 1560.9,-205.13 1591.63,-151 1549.76,-151"/>
<polygon fill="black" stroke="black" points="1458.14,-374.68 1453.17,-384.45 1457.89,-380.01 1457.69,-384.33 1457.69,-384.33 1457.69,-384.33 1457.89,-380.01 1462.17,-384.88 1458.14,-374.68"/>
<text text-anchor="start" x="1464.65" y="-395" font-family="Arial" font-size="10.00">FOREIGN KEY (software_title_id) REFERENCES software_title (id) ON UPDATE NO ACTION ON DELETE CASCADE MATCH NONE</text>
</g>
<!-- release_item -->
<g id="node8" class="node">
<title>release_item</title>
<polygon fill="#efefef" stroke="none" points="1058.55,-478.4 1058.55,-514 1232.76,-514 1232.76,-478.4 1058.55,-478.4"/>
<polygon fill="none" stroke="black" points="1058.55,-478.4 1058.55,-514 1232.76,-514 1232.76,-478.4 1058.55,-478.4"/>
<text text-anchor="start" x="1065.55" y="-491.8" font-family="Arial Bold" font-size="18.00">release_item</text>
<text text-anchor="start" x="1156.5" y="-491.8" font-family="Arial" font-size="14.00">    </text>
<text text-anchor="start" x="1187.62" y="-491.8" font-family="Arial" font-size="14.00" fill="#666666">[table]</text>
<polygon fill="none" stroke="black" points="1058.55,-447.6 1058.55,-478.4 1232.76,-478.4 1232.76,-447.6 1058.55,-447.6"/>
<text text-anchor="start" x="1065.55" y="-459.8" font-family="Arial" font-size="14.00">id </text>
<text text-anchor="start" x="1080.34" y="-459.8" font-family="Arial" font-size="14.00" fill="#666666">[INTEGER]</text>
<polygon fill="none" stroke="black" points="1058.55,-416.8 1058.55,-447.6 1232.76,-447.6 1232.76,-416.8 1058.55,-416.8"/>
<text text-anchor="start" x="1065.55" y="-429" font-family="Arial" font-size="14.00">release_id </text>
<text text-anchor="start" x="1134.04" y="-429" font-family="Arial" font-size="14.00" fill="#666666">[INTEGER]</text>
<polygon fill="none" stroke="black" points="1058.55,-386 1058.55,-416.8 1232.76,-416.8 1232.76,-386 1058.55,-386"/>
<text text-anchor="start" x="1065.55" y="-398.2" font-family="Arial" font-size="14.00">item_type </text>
<text text-anchor="start" x="1130.14" y="-398.2" font-family="Arial" font-size="14.00" fill="#666666">[INTEGER]</text>
<polygon fill="none" stroke="black" points="1058.55,-355.2 1058.55,-386 1232.76,-386 1232.76,-355.2 1058.55,-355.2"/>
<text text-anchor="start" x="1065.55" y="-367.4" font-family="Arial" font-size="14.00">notes </text>
<text text-anchor="start" x="1103.69" y="-367.4" font-family="Arial" font-size="14.00" fill="#666666">[TEXT]</text>
</g>
<!-- release_item&#45;&gt;release -->
<g id="edge7" class="edge">
<title>release_item:release_id&#45;&gt;release:id</title>
<path fill="none" stroke="black" d="M1047.46,-431.14C1008.06,-421.96 1034,-355.17 1058.55,-312 1092.14,-252.96 1155.62,-291.81 1189.26,-232.8 1210.66,-195.27 1233.46,-135.6 1190.26,-135.6"/>
<polygon fill="black" stroke="black" points="1047.27,-431.12 1056.75,-436.64 1052.58,-431.68 1056.89,-432.13 1056.89,-432.13 1056.89,-432.13 1052.58,-431.68 1057.69,-427.69 1047.27,-431.12"/>
<text text-anchor="start" x="1064.55" y="-442.2" font-family="Arial" font-size="10.00">FOREIGN KEY (release_id) REFERENCES release (id) ON UPDATE NO ACTION ON DELETE CASCADE MATCH NONE</text>
</g>
<!-- release_item_file_set -->
<g id="node9" class="node">
<title>release_item_file_set</title>
<polygon fill="#efefef" stroke="none" points="1027.56,-698 1027.56,-733.6 1263.75,-733.6 1263.75,-698 1027.56,-698"/>
<polygon fill="none" stroke="black" points="1027.56,-698 1027.56,-733.6 1263.75,-733.6 1263.75,-698 1027.56,-698"/>
<text text-anchor="start" x="1034.56" y="-711.4" font-family="Arial Bold" font-size="18.00">release_item_file_set</text>
<text text-anchor="start" x="1187.49" y="-711.4" font-family="Arial" font-size="14.00">    </text>
<text text-anchor="start" x="1218.61" y="-711.4" font-family="Arial" font-size="14.00" fill="#666666">[table]</text>
<polygon fill="none" stroke="black" points="1027.56,-667.2 1027.56,-698 1263.75,-698 1263.75,-667.2 1027.56,-667.2"/>
<text text-anchor="start" x="1034.56" y="-679.4" font-family="Arial" font-size="14.00">release_item_id </text>
<text text-anchor="start" x="1137.29" y="-679.4" font-family="Arial" font-size="14.00" fill="#666666">[INTEGER]</text>
<polygon fill="none" stroke="black" points="1027.56,-636.4 1027.56,-667.2 1263.75,-667.2 1263.75,-636.4 1027.56,-636.4"/>
<text text-anchor="start" x="1034.56" y="-648.6" font-family="Arial" font-size="14.00">file_set_id </text>
<text text-anchor="start" x="1101.49" y="-648.6" font-family="Arial" font-size="14.00" fill="#666666">[INTEGER]</text>
</g>
<!-- release_item_file_set&#45;&gt;release_item -->
<g id="edge8" class="edge">
<title>release_item_file_set:release_item_id&#45;&gt;release_item:id</title>
<path fill="none" stroke="black" d="M1274.42,-679.15C1309.33,-651.21 1279.38,-463 1233.76,-463"/>
<polygon fill="black" stroke="black" points="1274.48,-679.13 1263.55,-678.25 1269.46,-680.92 1265.38,-682.38 1265.38,-682.38 1265.38,-682.38 1269.46,-680.92 1266.57,-686.73 1274.48,-679.13"/>
<text text-anchor="start" x="1271.75" y="-692.6" font-family="Arial" font-size="10.00">FOREIGN KEY (release_item_id) REFERENCES release_item (id) ON UPDATE NO ACTION ON DELETE CASCADE MATCH NONE</text>
</g>
</g>
</svg>
