<?xml version="1.0" encoding="UTF-8" standalone="no"?>
<!DOCTYPE svg PUBLIC "-//W3C//DTD SVG 1.1//EN"
 "http://www.w3.org/Graphics/SVG/1.1/DTD/svg11.dtd">
<!-- Generated by graphviz version 12.1.2 (20240928.0832)
 -->
<!-- Title: release_file_set Pages: 1 -->
<svg width="3166pt" height="565pt"
 viewBox="0.00 0.00 3165.82 565.20" xmlns="http://www.w3.org/2000/svg" xmlns:xlink="http://www.w3.org/1999/xlink">
<g id="graph0" class="graph" transform="scale(1 1) rotate(0) translate(4 561.2)">
<title>release_file_set</title>
<polygon fill="white" stroke="none" points="-4,4 -4,-561.2 3161.82,-561.2 3161.82,4 -4,4"/>
<!-- release_file_set -->
<g id="node1" class="node">
<title>release_file_set</title>
<polygon fill="#efefef" stroke="none" points="1292.18,-447.6 1292.18,-483.2 1487.37,-483.2 1487.37,-447.6 1292.18,-447.6"/>
<polygon fill="none" stroke="black" points="1292.18,-447.6 1292.18,-483.2 1487.37,-483.2 1487.37,-447.6 1292.18,-447.6"/>
<text text-anchor="start" x="1299.18" y="-461" font-family="Arial Bold" font-size="18.00">release_file_set</text>
<text text-anchor="start" x="1411.12" y="-461" font-family="Arial" font-size="14.00">    </text>
<text text-anchor="start" x="1442.23" y="-461" font-family="Arial" font-size="14.00" fill="#666666">[table]</text>
<polygon fill="none" stroke="black" points="1292.18,-416.8 1292.18,-447.6 1487.37,-447.6 1487.37,-416.8 1292.18,-416.8"/>
<text text-anchor="start" x="1299.18" y="-429" font-family="Arial" font-size="14.00">release_id </text>
<text text-anchor="start" x="1367.67" y="-429" font-family="Arial" font-size="14.00" fill="#666666">[INTEGER]</text>
<polygon fill="none" stroke="black" points="1292.18,-386 1292.18,-416.8 1487.37,-416.8 1487.37,-386 1292.18,-386"/>
<text text-anchor="start" x="1299.18" y="-398.2" font-family="Arial" font-size="14.00">file_set_id </text>
<text text-anchor="start" x="1366.11" y="-398.2" font-family="Arial" font-size="14.00" fill="#666666">[INTEGER]</text>
<polygon fill="none" stroke="black" stroke-width="3" points="1290.68,-384.5 1290.68,-484.7 1488.87,-484.7 1488.87,-384.5 1290.68,-384.5"/>
</g>
<!-- release -->
<g id="node2" class="node">
<title>release</title>
<polygon fill="#efefef" stroke="none" points="850.35,-166.4 850.35,-202 1033.2,-202 1033.2,-166.4 850.35,-166.4"/>
<polygon fill="none" stroke="black" points="850.35,-166.4 850.35,-202 1033.2,-202 1033.2,-166.4 850.35,-166.4"/>
<text text-anchor="start" x="882.17" y="-179.8" font-family="Arial Bold" font-size="18.00">release</text>
<text text-anchor="start" x="932.13" y="-179.8" font-family="Arial" font-size="14.00">    </text>
<text text-anchor="start" x="963.24" y="-179.8" font-family="Arial" font-size="14.00" fill="#666666">[table]</text>
<polygon fill="none" stroke="black" points="850.35,-135.6 850.35,-166.4 1033.2,-166.4 1033.2,-135.6 850.35,-135.6"/>
<text text-anchor="start" x="857.35" y="-147.8" font-family="Arial" font-size="14.00">id </text>
<text text-anchor="start" x="872.13" y="-147.8" font-family="Arial" font-size="14.00" fill="#666666">[INTEGER]</text>
<polygon fill="none" stroke="black" points="850.35,-104.8 850.35,-135.6 1033.2,-135.6 1033.2,-104.8 850.35,-104.8"/>
<text text-anchor="start" x="857.35" y="-117" font-family="Arial" font-size="14.00">name </text>
<text text-anchor="start" x="896.26" y="-117" font-family="Arial" font-size="14.00" fill="#666666">[TEXT]</text>
<polygon fill="none" stroke="black" points="850.35,-74 850.35,-104.8 1033.2,-104.8 1033.2,-74 850.35,-74"/>
<text text-anchor="start" x="857.35" y="-86.2" font-family="Arial" font-size="14.00">thumbnail_filename </text>
<text text-anchor="start" x="982.64" y="-86.2" font-family="Arial" font-size="14.00" fill="#666666">[TEXT]</text>
</g>
<!-- release_file_set&#45;&gt;release -->
<g id="edge1" class="edge">
<title>release_file_set:release_id&#45;&gt;release:id</title>
<path fill="none" stroke="black" d="M1281.03,-431.31C1237.41,-422.78 1270.5,-355.27 1236.77,-312 1166.07,-221.3 1149.21,-151 1034.2,-151"/>
<polygon fill="black" stroke="black" points="1280.88,-431.29 1290.45,-436.65 1286.2,-431.76 1290.51,-432.14 1290.51,-432.14 1290.51,-432.14 1286.2,-431.76 1291.24,-427.69 1280.88,-431.29"/>
<text text-anchor="start" x="736.3" y="-442.2" font-family="Arial" font-size="10.00">FOREIGN KEY (release_id) REFERENCES release (id) ON UPDATE NO ACTION ON DELETE CASCADE MATCH NONE</text>
</g>
<!-- file_set -->
<g id="node6" class="node">
<title>file_set</title>
<polygon fill="#efefef" stroke="none" points="1973.75,-197.2 1973.75,-232.8 2113.79,-232.8 2113.79,-197.2 1973.75,-197.2"/>
<polygon fill="none" stroke="black" points="1973.75,-197.2 1973.75,-232.8 2113.79,-232.8 2113.79,-197.2 1973.75,-197.2"/>
<text text-anchor="start" x="1982.66" y="-210.6" font-family="Arial Bold" font-size="18.00">file_set</text>
<text text-anchor="start" x="2035.64" y="-210.6" font-family="Arial" font-size="14.00">    </text>
<text text-anchor="start" x="2066.75" y="-210.6" font-family="Arial" font-size="14.00" fill="#666666">[table]</text>
<polygon fill="none" stroke="black" points="1973.75,-166.4 1973.75,-197.2 2113.79,-197.2 2113.79,-166.4 1973.75,-166.4"/>
<text text-anchor="start" x="1980.75" y="-178.6" font-family="Arial" font-size="14.00">id </text>
<text text-anchor="start" x="1995.54" y="-178.6" font-family="Arial" font-size="14.00" fill="#666666">[INTEGER]</text>
<polygon fill="none" stroke="black" points="1973.75,-135.6 1973.75,-166.4 2113.79,-166.4 2113.79,-135.6 1973.75,-135.6"/>
<text text-anchor="start" x="1980.75" y="-147.8" font-family="Arial" font-size="14.00">file_name </text>
<text text-anchor="start" x="2045.35" y="-147.8" font-family="Arial" font-size="14.00" fill="#666666">[TEXT]</text>
<polygon fill="none" stroke="black" points="1973.75,-104.8 1973.75,-135.6 2113.79,-135.6 2113.79,-104.8 1973.75,-104.8"/>
<text text-anchor="start" x="1980.75" y="-117" font-family="Arial" font-size="14.00">file_type </text>
<text text-anchor="start" x="2036.79" y="-117" font-family="Arial" font-size="14.00" fill="#666666">[INTEGER]</text>
<polygon fill="none" stroke="black" points="1973.75,-74 1973.75,-104.8 2113.79,-104.8 2113.79,-74 1973.75,-74"/>
<text text-anchor="start" x="1980.75" y="-86.2" font-family="Arial" font-size="14.00">name </text>
<text text-anchor="start" x="2019.66" y="-86.2" font-family="Arial" font-size="14.00" fill="#666666">[TEXT]</text>
<polygon fill="none" stroke="black" points="1973.75,-43.2 1973.75,-74 2113.79,-74 2113.79,-43.2 1973.75,-43.2"/>
<text text-anchor="start" x="1980.75" y="-55.4" font-family="Arial" font-size="14.00">source </text>
<text text-anchor="start" x="2026.66" y="-55.4" font-family="Arial" font-size="14.00" fill="#666666">[TEXT]</text>
</g>
<!-- release_file_set&#45;&gt;file_set -->
<g id="edge5" class="edge">
<title>release_file_set:file_set_id&#45;&gt;file_set:id</title>
<path fill="none" stroke="black" d="M1498.37,-400.22C1530.59,-391.62 1509.02,-338.15 1542.77,-312 1700.63,-189.72 1773.08,-181.8 1972.75,-181.8"/>
<polygon fill="black" stroke="black" points="1498.63,-400.19 1488.18,-396.89 1493.34,-400.82 1489.03,-401.32 1489.03,-401.32 1489.03,-401.32 1493.34,-400.82 1489.23,-405.83 1498.63,-400.19"/>
<text text-anchor="start" x="935.72" y="-411.4" font-family="Arial" font-size="10.00">FOREIGN KEY (file_set_id) REFERENCES file_set (id) ON UPDATE NO ACTION ON DELETE CASCADE MATCH NONE</text>
</g>
<!-- release_system -->
<g id="node3" class="node">
<title>release_system</title>
<polygon fill="#efefef" stroke="none" points="368.67,-447.6 368.67,-483.2 560.88,-483.2 560.88,-447.6 368.67,-447.6"/>
<polygon fill="none" stroke="black" points="368.67,-447.6 368.67,-483.2 560.88,-483.2 560.88,-447.6 368.67,-447.6"/>
<text text-anchor="start" x="375.67" y="-461" font-family="Arial Bold" font-size="18.00">release_system</text>
<text text-anchor="start" x="484.63" y="-461" font-family="Arial" font-size="14.00">    </text>
<text text-anchor="start" x="515.74" y="-461" font-family="Arial" font-size="14.00" fill="#666666">[table]</text>
<polygon fill="none" stroke="black" points="368.67,-416.8 368.67,-447.6 560.88,-447.6 560.88,-416.8 368.67,-416.8"/>
<text text-anchor="start" x="375.67" y="-429" font-family="Arial" font-size="14.00">release_id </text>
<text text-anchor="start" x="444.16" y="-429" font-family="Arial" font-size="14.00" fill="#666666">[INTEGER]</text>
<polygon fill="none" stroke="black" points="368.67,-386 368.67,-416.8 560.88,-416.8 560.88,-386 368.67,-386"/>
<text text-anchor="start" x="375.67" y="-398.2" font-family="Arial" font-size="14.00">system_id </text>
<text text-anchor="start" x="442.58" y="-398.2" font-family="Arial" font-size="14.00" fill="#666666">[INTEGER]</text>
</g>
<!-- release_system&#45;&gt;release -->
<g id="edge2" class="edge">
<title>release_system:release_id&#45;&gt;release:id</title>
<path fill="none" stroke="black" d="M572.14,-431.23C614.42,-422.33 578.43,-353.88 612.77,-312 693.42,-213.66 722.16,-151 849.35,-151"/>
<polygon fill="black" stroke="black" points="572.17,-431.23 561.79,-427.69 566.86,-431.73 562.55,-432.14 562.55,-432.14 562.55,-432.14 566.86,-431.73 562.64,-436.65 572.17,-431.23"/>
<text text-anchor="start" x="7" y="-442.2" font-family="Arial" font-size="10.00">FOREIGN KEY (release_id) REFERENCES release (id) ON UPDATE NO ACTION ON DELETE CASCADE MATCH NONE</text>
</g>
<!-- release_software_title -->
<g id="node4" class="node">
<title>release_software_title</title>
<polygon fill="#efefef" stroke="none" points="665.19,-447.6 665.19,-483.2 906.36,-483.2 906.36,-447.6 665.19,-447.6"/>
<polygon fill="none" stroke="black" points="665.19,-447.6 665.19,-483.2 906.36,-483.2 906.36,-447.6 665.19,-447.6"/>
<text text-anchor="start" x="672.19" y="-461" font-family="Arial Bold" font-size="18.00">release_software_title</text>
<text text-anchor="start" x="830.11" y="-461" font-family="Arial" font-size="14.00">    </text>
<text text-anchor="start" x="861.23" y="-461" font-family="Arial" font-size="14.00" fill="#666666">[table]</text>
<polygon fill="none" stroke="black" points="665.19,-416.8 665.19,-447.6 906.36,-447.6 906.36,-416.8 665.19,-416.8"/>
<text text-anchor="start" x="672.19" y="-429" font-family="Arial" font-size="14.00">release_id </text>
<text text-anchor="start" x="740.68" y="-429" font-family="Arial" font-size="14.00" fill="#666666">[INTEGER]</text>
<polygon fill="none" stroke="black" points="665.19,-386 665.19,-416.8 906.36,-416.8 906.36,-386 665.19,-386"/>
<text text-anchor="start" x="672.19" y="-398.2" font-family="Arial" font-size="14.00">software_title_id </text>
<text text-anchor="start" x="777.24" y="-398.2" font-family="Arial" font-size="14.00" fill="#666666">[INTEGER]</text>
</g>
<!-- release_software_title&#45;&gt;release -->
<g id="edge3" class="edge">
<title>release_software_title:release_id&#45;&gt;release:id</title>
<path fill="none" stroke="black" d="M917.76,-431.44C1016.41,-415.43 725.6,-151 849.35,-151"/>
<polygon fill="black" stroke="black" points="917.67,-431.45 907.37,-427.69 912.35,-431.84 908.03,-432.15 908.03,-432.15 908.03,-432.15 912.35,-431.84 908.02,-436.66 917.67,-431.45"/>
<text text-anchor="start" x="352.48" y="-416.2" font-family="Arial" font-size="10.00">FOREIGN KEY (release_id) REFERENCES release (id) ON UPDATE NO ACTION ON DELETE CASCADE MATCH NONE</text>
</g>
<!-- release_item -->
<g id="node5" class="node">
<title>release_item</title>
<polygon fill="#efefef" stroke="none" points="1010.67,-478.4 1010.67,-514 1184.88,-514 1184.88,-478.4 1010.67,-478.4"/>
<polygon fill="none" stroke="black" points="1010.67,-478.4 1010.67,-514 1184.88,-514 1184.88,-478.4 1010.67,-478.4"/>
<text text-anchor="start" x="1017.67" y="-491.8" font-family="Arial Bold" font-size="18.00">release_item</text>
<text text-anchor="start" x="1108.62" y="-491.8" font-family="Arial" font-size="14.00">    </text>
<text text-anchor="start" x="1139.74" y="-491.8" font-family="Arial" font-size="14.00" fill="#666666">[table]</text>
<polygon fill="none" stroke="black" points="1010.67,-447.6 1010.67,-478.4 1184.88,-478.4 1184.88,-447.6 1010.67,-447.6"/>
<text text-anchor="start" x="1017.67" y="-459.8" font-family="Arial" font-size="14.00">id </text>
<text text-anchor="start" x="1032.46" y="-459.8" font-family="Arial" font-size="14.00" fill="#666666">[INTEGER]</text>
<polygon fill="none" stroke="black" points="1010.67,-416.8 1010.67,-447.6 1184.88,-447.6 1184.88,-416.8 1010.67,-416.8"/>
<text text-anchor="start" x="1017.67" y="-429" font-family="Arial" font-size="14.00">release_id </text>
<text text-anchor="start" x="1086.16" y="-429" font-family="Arial" font-size="14.00" fill="#666666">[INTEGER]</text>
<polygon fill="none" stroke="black" points="1010.67,-386 1010.67,-416.8 1184.88,-416.8 1184.88,-386 1010.67,-386"/>
<text text-anchor="start" x="1017.67" y="-398.2" font-family="Arial" font-size="14.00">item_type </text>
<text text-anchor="start" x="1082.26" y="-398.2" font-family="Arial" font-size="14.00" fill="#666666">[INTEGER]</text>
<polygon fill="none" stroke="black" points="1010.67,-355.2 1010.67,-386 1184.88,-386 1184.88,-355.2 1010.67,-355.2"/>
<text text-anchor="start" x="1017.67" y="-367.4" font-family="Arial" font-size="14.00">notes </text>
<text text-anchor="start" x="1055.81" y="-367.4" font-family="Arial" font-size="14.00" fill="#666666">[TEXT]</text>
</g>
<!-- release_item&#45;&gt;release -->
<g id="edge4" class="edge">
<title>release_item:release_id&#45;&gt;release:id</title>
<path fill="none" stroke="black" d="M999.43,-431.58C934.13,-422.86 1019.83,-324.08 1033.2,-245.2 1040.2,-203.92 1076.07,-151 1034.2,-151"/>
<polygon fill="black" stroke="black" points="999.36,-431.57 1009.07,-436.67 1004.68,-431.9 1009,-432.16 1009,-432.16 1009,-432.16 1004.68,-431.9 1009.61,-427.69 999.36,-431.57"/>
<text text-anchor="start" x="1016.67" y="-442.2" font-family="Arial" font-size="10.00">FOREIGN KEY (release_id) REFERENCES release (id) ON UPDATE NO ACTION ON DELETE CASCADE MATCH NONE</text>
</g>
<!-- release_item_file_set -->
<g id="node7" class="node">
<title>release_item_file_set</title>
<polygon fill="#efefef" stroke="none" points="1594.68,-447.6 1594.68,-483.2 1830.87,-483.2 1830.87,-447.6 1594.68,-447.6"/>
<polygon fill="none" stroke="black" points="1594.68,-447.6 1594.68,-483.2 1830.87,-483.2 1830.87,-447.6 1594.68,-447.6"/>
<text text-anchor="start" x="1601.68" y="-461" font-family="Arial Bold" font-size="18.00">release_item_file_set</text>
<text text-anchor="start" x="1754.61" y="-461" font-family="Arial" font-size="14.00">    </text>
<text text-anchor="start" x="1785.73" y="-461" font-family="Arial" font-size="14.00" fill="#666666">[table]</text>
<polygon fill="none" stroke="black" points="1594.68,-416.8 1594.68,-447.6 1830.87,-447.6 1830.87,-416.8 1594.68,-416.8"/>
<text text-anchor="start" x="1601.68" y="-429" font-family="Arial" font-size="14.00">release_item_id </text>
<text text-anchor="start" x="1704.41" y="-429" font-family="Arial" font-size="14.00" fill="#666666">[INTEGER]</text>
<polygon fill="none" stroke="black" points="1594.68,-386 1594.68,-416.8 1830.87,-416.8 1830.87,-386 1594.68,-386"/>
<text text-anchor="start" x="1601.68" y="-398.2" font-family="Arial" font-size="14.00">file_set_id </text>
<text text-anchor="start" x="1668.61" y="-398.2" font-family="Arial" font-size="14.00" fill="#666666">[INTEGER]</text>
</g>
<!-- release_item_file_set&#45;&gt;file_set -->
<g id="edge6" class="edge">
<title>release_item_file_set:file_set_id&#45;&gt;file_set:id</title>
<path fill="none" stroke="black" d="M1841.87,-400.41C1874.74,-393.16 1860.44,-347.54 1882.77,-312 1920.21,-252.45 1902.41,-181.8 1972.75,-181.8"/>
<polygon fill="black" stroke="black" points="1842.15,-400.38 1831.76,-396.89 1836.84,-400.91 1832.53,-401.33 1832.53,-401.33 1832.53,-401.33 1836.84,-400.91 1832.64,-405.85 1842.15,-400.38"/>
<text text-anchor="start" x="1838.87" y="-411.4" font-family="Arial" font-size="10.00">FOREIGN KEY (file_set_id) REFERENCES file_set (id) ON UPDATE NO ACTION ON DELETE CASCADE MATCH NONE</text>
</g>
<!-- file_set_item_type -->
<g id="node8" class="node">
<title>file_set_item_type</title>
<polygon fill="#efefef" stroke="none" points="1935.17,-447.6 1935.17,-483.2 2152.38,-483.2 2152.38,-447.6 1935.17,-447.6"/>
<polygon fill="none" stroke="black" points="1935.17,-447.6 1935.17,-483.2 2152.38,-483.2 2152.38,-447.6 1935.17,-447.6"/>
<text text-anchor="start" x="1942.17" y="-461" font-family="Arial Bold" font-size="18.00">file_set_item_type</text>
<text text-anchor="start" x="2076.13" y="-461" font-family="Arial" font-size="14.00">    </text>
<text text-anchor="start" x="2107.25" y="-461" font-family="Arial" font-size="14.00" fill="#666666">[table]</text>
<polygon fill="none" stroke="black" points="1935.17,-416.8 1935.17,-447.6 2152.38,-447.6 2152.38,-416.8 1935.17,-416.8"/>
<text text-anchor="start" x="1942.17" y="-429" font-family="Arial" font-size="14.00">file_set_id </text>
<text text-anchor="start" x="2009.1" y="-429" font-family="Arial" font-size="14.00" fill="#666666">[INTEGER]</text>
<polygon fill="none" stroke="black" points="1935.17,-386 1935.17,-416.8 2152.38,-416.8 2152.38,-386 1935.17,-386"/>
<text text-anchor="start" x="1942.17" y="-398.2" font-family="Arial" font-size="14.00">item_type </text>
<text text-anchor="start" x="2006.75" y="-398.2" font-family="Arial" font-size="14.00" fill="#666666">[INTEGER]</text>
</g>
<!-- file_set_item_type&#45;&gt;file_set -->
<g id="edge7" class="edge">
<title>file_set_item_type:file_set_id&#45;&gt;file_set:id</title>
<path fill="none" stroke="black" d="M2163.11,-429.21C2204.64,-400.96 2167.47,-181.8 2114.79,-181.8"/>
<polygon fill="black" stroke="black" points="2163.26,-429.17 2152.38,-427.8 2158.16,-430.73 2154.02,-432 2154.02,-432 2154.02,-432 2158.16,-430.73 2155.02,-436.4 2163.26,-429.17"/>
<text text-anchor="start" x="1600.73" y="-442.2" font-family="Arial" font-size="10.00">FOREIGN KEY (file_set_id) REFERENCES file_set (id) ON UPDATE NO ACTION ON DELETE CASCADE MATCH NONE</text>
</g>
<!-- file_set_dat_file_link -->
<g id="node9" class="node">
<title>file_set_dat_file_link</title>
<polygon fill="#efefef" stroke="none" points="2257.17,-447.6 2257.17,-483.2 2494.38,-483.2 2494.38,-447.6 2257.17,-447.6"/>
<polygon fill="none" stroke="black" points="2257.17,-447.6 2257.17,-483.2 2494.38,-483.2 2494.38,-447.6 2257.17,-447.6"/>
<text text-anchor="start" x="2264.17" y="-461" font-family="Arial Bold" font-size="18.00">file_set_dat_file_link</text>
<text text-anchor="start" x="2418.13" y="-461" font-family="Arial" font-size="14.00">    </text>
<text text-anchor="start" x="2449.24" y="-461" font-family="Arial" font-size="14.00" fill="#666666">[table]</text>
<polygon fill="none" stroke="black" points="2257.17,-416.8 2257.17,-447.6 2494.38,-447.6 2494.38,-416.8 2257.17,-416.8"/>
<text text-anchor="start" x="2264.17" y="-429" font-family="Arial" font-size="14.00">file_set_id </text>
<text text-anchor="start" x="2331.1" y="-429" font-family="Arial" font-size="14.00" fill="#666666">[INTEGER]</text>
<polygon fill="none" stroke="black" points="2257.17,-386 2257.17,-416.8 2494.38,-416.8 2494.38,-386 2257.17,-386"/>
<text text-anchor="start" x="2264.17" y="-398.2" font-family="Arial" font-size="14.00">dat_file_id </text>
<text text-anchor="start" x="2331.88" y="-398.2" font-family="Arial" font-size="14.00" fill="#666666">[INTEGER]</text>
</g>
<!-- file_set_dat_file_link&#45;&gt;file_set -->
<g id="edge8" class="edge">
<title>file_set_dat_file_link:file_set_id&#45;&gt;file_set:id</title>
<path fill="none" stroke="black" d="M2245.78,-431.31C2202.41,-423.07 2230.99,-359.49 2204.77,-312 2170.78,-250.42 2185.14,-181.8 2114.79,-181.8"/>
<polygon fill="black" stroke="black" points="2245.87,-431.32 2255.45,-436.65 2251.19,-431.77 2255.5,-432.14 2255.5,-432.14 2255.5,-432.14 2251.19,-431.77 2256.22,-427.69 2245.87,-431.32"/>
<text text-anchor="start" x="2263.17" y="-442.2" font-family="Arial" font-size="10.00">FOREIGN KEY (file_set_id) REFERENCES file_set (id) ON UPDATE NO ACTION ON DELETE CASCADE MATCH NONE</text>
</g>
<!-- file_set_file_info -->
<g id="node10" class="node">
<title>file_set_file_info</title>
<polygon fill="#efefef" stroke="none" points="2599.17,-478.4 2599.17,-514 2806.38,-514 2806.38,-478.4 2599.17,-478.4"/>
<polygon fill="none" stroke="black" points="2599.17,-478.4 2599.17,-514 2806.38,-514 2806.38,-478.4 2599.17,-478.4"/>
<text text-anchor="start" x="2606.17" y="-491.8" font-family="Arial Bold" font-size="18.00">file_set_file_info</text>
<text text-anchor="start" x="2730.13" y="-491.8" font-family="Arial" font-size="14.00">    </text>
<text text-anchor="start" x="2761.24" y="-491.8" font-family="Arial" font-size="14.00" fill="#666666">[table]</text>
<polygon fill="none" stroke="black" points="2599.17,-447.6 2599.17,-478.4 2806.38,-478.4 2806.38,-447.6 2599.17,-447.6"/>
<text text-anchor="start" x="2606.17" y="-459.8" font-family="Arial" font-size="14.00">file_set_id </text>
<text text-anchor="start" x="2673.1" y="-459.8" font-family="Arial" font-size="14.00" fill="#666666">[INTEGER]</text>
<polygon fill="none" stroke="black" points="2599.17,-416.8 2599.17,-447.6 2806.38,-447.6 2806.38,-416.8 2599.17,-416.8"/>
<text text-anchor="start" x="2606.17" y="-429" font-family="Arial" font-size="14.00">file_info_id </text>
<text text-anchor="start" x="2676.99" y="-429" font-family="Arial" font-size="14.00" fill="#666666">[INTEGER]</text>
<polygon fill="none" stroke="black" points="2599.17,-386 2599.17,-416.8 2806.38,-416.8 2806.38,-386 2599.17,-386"/>
<text text-anchor="start" x="2606.17" y="-398.2" font-family="Arial" font-size="14.00">file_name </text>
<text text-anchor="start" x="2670.76" y="-398.2" font-family="Arial" font-size="14.00" fill="#666666">[TEXT]</text>
<polygon fill="none" stroke="black" points="2599.17,-355.2 2599.17,-386 2806.38,-386 2806.38,-355.2 2599.17,-355.2"/>
<text text-anchor="start" x="2606.17" y="-367.4" font-family="Arial" font-size="14.00">sort_order </text>
<text text-anchor="start" x="2673.86" y="-367.4" font-family="Arial" font-size="14.00" fill="#666666">[INTEGER]</text>
</g>
<!-- file_set_file_info&#45;&gt;file_set -->
<g id="edge9" class="edge">
<title>file_set_file_info:file_set_id&#45;&gt;file_set:id</title>
<path fill="none" stroke="black" d="M2588.09,-462.17C2534.37,-452.41 2595.09,-358.64 2546.77,-312 2474.64,-242.37 2215.06,-181.8 2114.79,-181.8"/>
<polygon fill="black" stroke="black" points="2587.87,-462.16 2597.47,-467.46 2593.18,-462.59 2597.5,-462.95 2597.5,-462.95 2597.5,-462.95 2593.18,-462.59 2598.2,-458.49 2587.87,-462.16"/>
<text text-anchor="start" x="2605.17" y="-473" font-family="Arial" font-size="10.00">FOREIGN KEY (file_set_id) REFERENCES file_set (id) ON UPDATE NO ACTION ON DELETE CASCADE MATCH NONE</text>
</g>
</g>
</svg>
