<?xml version="1.0" encoding="UTF-8" standalone="no"?>
<!DOCTYPE svg PUBLIC "-//W3C//DTD SVG 1.1//EN"
 "http://www.w3.org/Graphics/SVG/1.1/DTD/svg11.dtd">
<!-- Generated by graphviz version 12.1.2 (20240928.0832)
 -->
<!-- Title: release_file_set Pages: 1 -->
<svg width="2814pt" height="565pt"
 viewBox="0.00 0.00 2813.82 565.20" xmlns="http://www.w3.org/2000/svg" xmlns:xlink="http://www.w3.org/1999/xlink">
<g id="graph0" class="graph" transform="scale(1 1) rotate(0) translate(4 561.2)">
<title>release_file_set</title>
<polygon fill="white" stroke="none" points="-4,4 -4,-561.2 2809.82,-561.2 2809.82,4 -4,4"/>
<!-- release_file_set -->
<g id="node1" class="node">
<title>release_file_set</title>
<polygon fill="#efefef" stroke="none" points="1292.18,-447.6 1292.18,-483.2 1487.37,-483.2 1487.37,-447.6 1292.18,-447.6"/>
<polygon fill="none" stroke="black" points="1292.18,-447.6 1292.18,-483.2 1487.37,-483.2 1487.37,-447.6 1292.18,-447.6"/>
<text text-anchor="start" x="1299.18" y="-461" font-family="Arial Bold" font-size="18.00">release_file_set</text>
<text text-anchor="start" x="1411.12" y="-461" font-family="Arial" font-size="14.00">    </text>
<text text-anchor="start" x="1442.23" y="-461" font-family="Arial" font-size="14.00" fill="#666666">[table]</text>
<polygon fill="none" stroke="black" points="1292.18,-416.8 1292.18,-447.6 1487.37,-447.6 1487.37,-416.8 1292.18,-416.8"/>
<text text-anchor="start" x="1299.18" y="-429" font-family="Arial" font-size="14.00">release_id </text>
<text text-anchor="start" x="1367.67" y="-429" font-family="Arial" font-size="14.00" fill="#666666">[INTEGER]</text>
<polygon fill="none" stroke="black" points="1292.18,-386 1292.18,-416.8 1487.37,-416.8 1487.37,-386 1292.18,-386"/>
<text text-anchor="start" x="1299.18" y="-398.2" font-family="Arial" font-size="14.00">file_set_id </text>
<text text-anchor="start" x="1366.11" y="-398.2" font-family="Arial" font-size="14.00" fill="#666666">[INTEGER]</text>
<polygon fill="none" stroke="black" stroke-width="3" points="1290.68,-384.5 1290.68,-484.7 1488.87,-484.7 1488.87,-384.5 1290.68,-384.5"/>
</g>
<!-- release -->
<g id="node2" class="node">
<title>release</title>
<polygon fill="#efefef" stroke="none" points="875.17,-151 875.17,-186.6 1008.38,-186.6 1008.38,-151 875.17,-151"/>
<polygon fill="none" stroke="black" points="875.17,-151 875.17,-186.6 1008.38,-186.6 1008.38,-151 875.17,-151"/>
<text text-anchor="start" x="882.17" y="-164.4" font-family="Arial Bold" font-size="18.00">release</text>
<text text-anchor="start" x="932.13" y="-164.4" font-family="Arial" font-size="14.00">    </text>
<text text-anchor="start" x="963.24" y="-164.4" font-family="Arial" font-size="14.00" fill="#666666">[table]</text>
<polygon fill="none" stroke="black" points="875.17,-120.2 875.17,-151 1008.38,-151 1008.38,-120.2 875.17,-120.2"/>
<text text-anchor="start" x="882.17" y="-132.4" font-family="Arial" font-size="14.00">id </text>
<text text-anchor="start" x="896.95" y="-132.4" font-family="Arial" font-size="14.00" fill="#666666">[INTEGER]</text>
<polygon fill="none" stroke="black" points="875.17,-89.4 875.17,-120.2 1008.38,-120.2 1008.38,-89.4 875.17,-89.4"/>
<text text-anchor="start" x="882.17" y="-101.6" font-family="Arial" font-size="14.00">name </text>
<text text-anchor="start" x="921.08" y="-101.6" font-family="Arial" font-size="14.00" fill="#666666">[TEXT]</text>
</g>
<!-- release_file_set&#45;&gt;release -->
<g id="edge1" class="edge">
<title>release_file_set:release_id&#45;&gt;release:id</title>
<path fill="none" stroke="black" d="M1281.03,-431.3C1237.45,-422.76 1270.76,-355.07 1236.77,-312 1157.54,-211.59 1137.29,-135.6 1009.38,-135.6"/>
<polygon fill="black" stroke="black" points="1280.88,-431.29 1290.45,-436.65 1286.2,-431.76 1290.51,-432.14 1290.51,-432.14 1290.51,-432.14 1286.2,-431.76 1291.24,-427.69 1280.88,-431.29"/>
<text text-anchor="start" x="736.3" y="-442.2" font-family="Arial" font-size="10.00">FOREIGN KEY (release_id) REFERENCES release (id) ON UPDATE NO ACTION ON DELETE CASCADE MATCH NONE</text>
</g>
<!-- file_set -->
<g id="node6" class="node">
<title>file_set</title>
<polygon fill="#efefef" stroke="none" points="1791.75,-197.2 1791.75,-232.8 1931.79,-232.8 1931.79,-197.2 1791.75,-197.2"/>
<polygon fill="none" stroke="black" points="1791.75,-197.2 1791.75,-232.8 1931.79,-232.8 1931.79,-197.2 1791.75,-197.2"/>
<text text-anchor="start" x="1800.66" y="-210.6" font-family="Arial Bold" font-size="18.00">file_set</text>
<text text-anchor="start" x="1853.64" y="-210.6" font-family="Arial" font-size="14.00">    </text>
<text text-anchor="start" x="1884.75" y="-210.6" font-family="Arial" font-size="14.00" fill="#666666">[table]</text>
<polygon fill="none" stroke="black" points="1791.75,-166.4 1791.75,-197.2 1931.79,-197.2 1931.79,-166.4 1791.75,-166.4"/>
<text text-anchor="start" x="1798.75" y="-178.6" font-family="Arial" font-size="14.00">id </text>
<text text-anchor="start" x="1813.54" y="-178.6" font-family="Arial" font-size="14.00" fill="#666666">[INTEGER]</text>
<polygon fill="none" stroke="black" points="1791.75,-135.6 1791.75,-166.4 1931.79,-166.4 1931.79,-135.6 1791.75,-135.6"/>
<text text-anchor="start" x="1798.75" y="-147.8" font-family="Arial" font-size="14.00">file_name </text>
<text text-anchor="start" x="1863.35" y="-147.8" font-family="Arial" font-size="14.00" fill="#666666">[TEXT]</text>
<polygon fill="none" stroke="black" points="1791.75,-104.8 1791.75,-135.6 1931.79,-135.6 1931.79,-104.8 1791.75,-104.8"/>
<text text-anchor="start" x="1798.75" y="-117" font-family="Arial" font-size="14.00">file_type </text>
<text text-anchor="start" x="1854.79" y="-117" font-family="Arial" font-size="14.00" fill="#666666">[INTEGER]</text>
<polygon fill="none" stroke="black" points="1791.75,-74 1791.75,-104.8 1931.79,-104.8 1931.79,-74 1791.75,-74"/>
<text text-anchor="start" x="1798.75" y="-86.2" font-family="Arial" font-size="14.00">name </text>
<text text-anchor="start" x="1837.66" y="-86.2" font-family="Arial" font-size="14.00" fill="#666666">[TEXT]</text>
<polygon fill="none" stroke="black" points="1791.75,-43.2 1791.75,-74 1931.79,-74 1931.79,-43.2 1791.75,-43.2"/>
<text text-anchor="start" x="1798.75" y="-55.4" font-family="Arial" font-size="14.00">source </text>
<text text-anchor="start" x="1844.66" y="-55.4" font-family="Arial" font-size="14.00" fill="#666666">[TEXT]</text>
</g>
<!-- release_file_set&#45;&gt;file_set -->
<g id="edge5" class="edge">
<title>release_file_set:file_set_id&#45;&gt;file_set:id</title>
<path fill="none" stroke="black" d="M1498.43,-400.28C1531.02,-392.13 1511.64,-341.22 1542.77,-312 1633.53,-226.8 1666.27,-181.8 1790.75,-181.8"/>
<polygon fill="black" stroke="black" points="1498.64,-400.26 1488.21,-396.89 1493.34,-400.85 1489.04,-401.33 1489.04,-401.33 1489.04,-401.33 1493.34,-400.85 1489.2,-405.84 1498.64,-400.26"/>
<text text-anchor="start" x="1495.37" y="-411.4" font-family="Arial" font-size="10.00">FOREIGN KEY (file_set_id) REFERENCES file_set (id) ON UPDATE NO ACTION ON DELETE CASCADE MATCH NONE</text>
</g>
<!-- release_system -->
<g id="node3" class="node">
<title>release_system</title>
<polygon fill="#efefef" stroke="none" points="368.67,-447.6 368.67,-483.2 560.88,-483.2 560.88,-447.6 368.67,-447.6"/>
<polygon fill="none" stroke="black" points="368.67,-447.6 368.67,-483.2 560.88,-483.2 560.88,-447.6 368.67,-447.6"/>
<text text-anchor="start" x="375.67" y="-461" font-family="Arial Bold" font-size="18.00">release_system</text>
<text text-anchor="start" x="484.63" y="-461" font-family="Arial" font-size="14.00">    </text>
<text text-anchor="start" x="515.74" y="-461" font-family="Arial" font-size="14.00" fill="#666666">[table]</text>
<polygon fill="none" stroke="black" points="368.67,-416.8 368.67,-447.6 560.88,-447.6 560.88,-416.8 368.67,-416.8"/>
<text text-anchor="start" x="375.67" y="-429" font-family="Arial" font-size="14.00">release_id </text>
<text text-anchor="start" x="444.16" y="-429" font-family="Arial" font-size="14.00" fill="#666666">[INTEGER]</text>
<polygon fill="none" stroke="black" points="368.67,-386 368.67,-416.8 560.88,-416.8 560.88,-386 368.67,-386"/>
<text text-anchor="start" x="375.67" y="-398.2" font-family="Arial" font-size="14.00">system_id </text>
<text text-anchor="start" x="442.58" y="-398.2" font-family="Arial" font-size="14.00" fill="#666666">[INTEGER]</text>
</g>
<!-- release_system&#45;&gt;release -->
<g id="edge2" class="edge">
<title>release_system:release_id&#45;&gt;release:id</title>
<path fill="none" stroke="black" d="M572.14,-431.23C614.41,-422.32 578.35,-353.81 612.77,-312 701.86,-203.8 734.01,-135.6 874.17,-135.6"/>
<polygon fill="black" stroke="black" points="572.17,-431.23 561.79,-427.69 566.86,-431.73 562.55,-432.14 562.55,-432.14 562.55,-432.14 566.86,-431.73 562.64,-436.65 572.17,-431.23"/>
<text text-anchor="start" x="7" y="-442.2" font-family="Arial" font-size="10.00">FOREIGN KEY (release_id) REFERENCES release (id) ON UPDATE NO ACTION ON DELETE CASCADE MATCH NONE</text>
</g>
<!-- release_software_title -->
<g id="node4" class="node">
<title>release_software_title</title>
<polygon fill="#efefef" stroke="none" points="665.19,-447.6 665.19,-483.2 906.36,-483.2 906.36,-447.6 665.19,-447.6"/>
<polygon fill="none" stroke="black" points="665.19,-447.6 665.19,-483.2 906.36,-483.2 906.36,-447.6 665.19,-447.6"/>
<text text-anchor="start" x="672.19" y="-461" font-family="Arial Bold" font-size="18.00">release_software_title</text>
<text text-anchor="start" x="830.11" y="-461" font-family="Arial" font-size="14.00">    </text>
<text text-anchor="start" x="861.23" y="-461" font-family="Arial" font-size="14.00" fill="#666666">[table]</text>
<polygon fill="none" stroke="black" points="665.19,-416.8 665.19,-447.6 906.36,-447.6 906.36,-416.8 665.19,-416.8"/>
<text text-anchor="start" x="672.19" y="-429" font-family="Arial" font-size="14.00">release_id </text>
<text text-anchor="start" x="740.68" y="-429" font-family="Arial" font-size="14.00" fill="#666666">[INTEGER]</text>
<polygon fill="none" stroke="black" points="665.19,-386 665.19,-416.8 906.36,-416.8 906.36,-386 665.19,-386"/>
<text text-anchor="start" x="672.19" y="-398.2" font-family="Arial" font-size="14.00">software_title_id </text>
<text text-anchor="start" x="777.24" y="-398.2" font-family="Arial" font-size="14.00" fill="#666666">[INTEGER]</text>
</g>
<!-- release_software_title&#45;&gt;release -->
<g id="edge3" class="edge">
<title>release_software_title:release_id&#45;&gt;release:id</title>
<path fill="none" stroke="black" d="M917.61,-431.5C1023.45,-415.64 745.28,-135.6 874.17,-135.6"/>
<polygon fill="black" stroke="black" points="917.67,-431.5 907.39,-427.69 912.35,-431.86 908.03,-432.15 908.03,-432.15 908.03,-432.15 912.35,-431.86 908,-436.67 917.67,-431.5"/>
<text text-anchor="start" x="352.48" y="-416.2" font-family="Arial" font-size="10.00">FOREIGN KEY (release_id) REFERENCES release (id) ON UPDATE NO ACTION ON DELETE CASCADE MATCH NONE</text>
</g>
<!-- release_item -->
<g id="node5" class="node">
<title>release_item</title>
<polygon fill="#efefef" stroke="none" points="1010.67,-478.4 1010.67,-514 1184.88,-514 1184.88,-478.4 1010.67,-478.4"/>
<polygon fill="none" stroke="black" points="1010.67,-478.4 1010.67,-514 1184.88,-514 1184.88,-478.4 1010.67,-478.4"/>
<text text-anchor="start" x="1017.67" y="-491.8" font-family="Arial Bold" font-size="18.00">release_item</text>
<text text-anchor="start" x="1108.62" y="-491.8" font-family="Arial" font-size="14.00">    </text>
<text text-anchor="start" x="1139.74" y="-491.8" font-family="Arial" font-size="14.00" fill="#666666">[table]</text>
<polygon fill="none" stroke="black" points="1010.67,-447.6 1010.67,-478.4 1184.88,-478.4 1184.88,-447.6 1010.67,-447.6"/>
<text text-anchor="start" x="1017.67" y="-459.8" font-family="Arial" font-size="14.00">id </text>
<text text-anchor="start" x="1032.46" y="-459.8" font-family="Arial" font-size="14.00" fill="#666666">[INTEGER]</text>
<polygon fill="none" stroke="black" points="1010.67,-416.8 1010.67,-447.6 1184.88,-447.6 1184.88,-416.8 1010.67,-416.8"/>
<text text-anchor="start" x="1017.67" y="-429" font-family="Arial" font-size="14.00">release_id </text>
<text text-anchor="start" x="1086.16" y="-429" font-family="Arial" font-size="14.00" fill="#666666">[INTEGER]</text>
<polygon fill="none" stroke="black" points="1010.67,-386 1010.67,-416.8 1184.88,-416.8 1184.88,-386 1010.67,-386"/>
<text text-anchor="start" x="1017.67" y="-398.2" font-family="Arial" font-size="14.00">item_type </text>
<text text-anchor="start" x="1082.26" y="-398.2" font-family="Arial" font-size="14.00" fill="#666666">[INTEGER]</text>
<polygon fill="none" stroke="black" points="1010.67,-355.2 1010.67,-386 1184.88,-386 1184.88,-355.2 1010.67,-355.2"/>
<text text-anchor="start" x="1017.67" y="-367.4" font-family="Arial" font-size="14.00">notes </text>
<text text-anchor="start" x="1055.81" y="-367.4" font-family="Arial" font-size="14.00" fill="#666666">[TEXT]</text>
</g>
<!-- release_item&#45;&gt;release -->
<g id="edge4" class="edge">
<title>release_item:release_id&#45;&gt;release:id</title>
<path fill="none" stroke="black" d="M999.41,-431.5C892.45,-415.64 1137.47,-135.6 1009.38,-135.6"/>
<polygon fill="black" stroke="black" points="999.36,-431.5 1009.03,-436.67 1004.68,-431.86 1009,-432.15 1009,-432.15 1009,-432.15 1004.68,-431.86 1009.64,-427.69 999.36,-431.5"/>
<text text-anchor="start" x="876.2" y="-416.2" font-family="Arial" font-size="10.00">FOREIGN KEY (release_id) REFERENCES release (id) ON UPDATE NO ACTION ON DELETE CASCADE MATCH NONE</text>
</g>
<!-- file_set_file_info -->
<g id="node7" class="node">
<title>file_set_file_info</title>
<polygon fill="#efefef" stroke="none" points="1595.17,-478.4 1595.17,-514 1802.38,-514 1802.38,-478.4 1595.17,-478.4"/>
<polygon fill="none" stroke="black" points="1595.17,-478.4 1595.17,-514 1802.38,-514 1802.38,-478.4 1595.17,-478.4"/>
<text text-anchor="start" x="1602.17" y="-491.8" font-family="Arial Bold" font-size="18.00">file_set_file_info</text>
<text text-anchor="start" x="1726.13" y="-491.8" font-family="Arial" font-size="14.00">    </text>
<text text-anchor="start" x="1757.24" y="-491.8" font-family="Arial" font-size="14.00" fill="#666666">[table]</text>
<polygon fill="none" stroke="black" points="1595.17,-447.6 1595.17,-478.4 1802.38,-478.4 1802.38,-447.6 1595.17,-447.6"/>
<text text-anchor="start" x="1602.17" y="-459.8" font-family="Arial" font-size="14.00">file_set_id </text>
<text text-anchor="start" x="1669.1" y="-459.8" font-family="Arial" font-size="14.00" fill="#666666">[INTEGER]</text>
<polygon fill="none" stroke="black" points="1595.17,-416.8 1595.17,-447.6 1802.38,-447.6 1802.38,-416.8 1595.17,-416.8"/>
<text text-anchor="start" x="1602.17" y="-429" font-family="Arial" font-size="14.00">file_info_id </text>
<text text-anchor="start" x="1672.99" y="-429" font-family="Arial" font-size="14.00" fill="#666666">[INTEGER]</text>
<polygon fill="none" stroke="black" points="1595.17,-386 1595.17,-416.8 1802.38,-416.8 1802.38,-386 1595.17,-386"/>
<text text-anchor="start" x="1602.17" y="-398.2" font-family="Arial" font-size="14.00">file_name </text>
<text text-anchor="start" x="1666.76" y="-398.2" font-family="Arial" font-size="14.00" fill="#666666">[TEXT]</text>
<polygon fill="none" stroke="black" points="1595.17,-355.2 1595.17,-386 1802.38,-386 1802.38,-355.2 1595.17,-355.2"/>
<text text-anchor="start" x="1602.17" y="-367.4" font-family="Arial" font-size="14.00">sort_order </text>
<text text-anchor="start" x="1669.86" y="-367.4" font-family="Arial" font-size="14.00" fill="#666666">[INTEGER]</text>
</g>
<!-- file_set_file_info&#45;&gt;file_set -->
<g id="edge6" class="edge">
<title>file_set_file_info:file_set_id&#45;&gt;file_set:id</title>
<path fill="none" stroke="black" d="M1813.61,-462.2C1864.05,-453.47 1811.65,-374.63 1802.38,-312 1799.94,-295.5 1794.23,-292.5 1791.75,-276 1785.54,-234.59 1748.88,-181.8 1790.75,-181.8"/>
<polygon fill="black" stroke="black" points="1813.69,-462.2 1803.37,-458.49 1808.37,-462.61 1804.05,-462.95 1804.05,-462.95 1804.05,-462.95 1808.37,-462.61 1804.06,-467.46 1813.69,-462.2"/>
<text text-anchor="start" x="1243.52" y="-473" font-family="Arial" font-size="10.00">FOREIGN KEY (file_set_id) REFERENCES file_set (id) ON UPDATE NO ACTION ON DELETE NO ACTION MATCH NONE</text>
</g>
<!-- release_item_file_set -->
<g id="node8" class="node">
<title>release_item_file_set</title>
<polygon fill="#efefef" stroke="none" points="1906.68,-447.6 1906.68,-483.2 2142.87,-483.2 2142.87,-447.6 1906.68,-447.6"/>
<polygon fill="none" stroke="black" points="1906.68,-447.6 1906.68,-483.2 2142.87,-483.2 2142.87,-447.6 1906.68,-447.6"/>
<text text-anchor="start" x="1913.68" y="-461" font-family="Arial Bold" font-size="18.00">release_item_file_set</text>
<text text-anchor="start" x="2066.61" y="-461" font-family="Arial" font-size="14.00">    </text>
<text text-anchor="start" x="2097.73" y="-461" font-family="Arial" font-size="14.00" fill="#666666">[table]</text>
<polygon fill="none" stroke="black" points="1906.68,-416.8 1906.68,-447.6 2142.87,-447.6 2142.87,-416.8 1906.68,-416.8"/>
<text text-anchor="start" x="1913.68" y="-429" font-family="Arial" font-size="14.00">release_item_id </text>
<text text-anchor="start" x="2016.41" y="-429" font-family="Arial" font-size="14.00" fill="#666666">[INTEGER]</text>
<polygon fill="none" stroke="black" points="1906.68,-386 1906.68,-416.8 2142.87,-416.8 2142.87,-386 1906.68,-386"/>
<text text-anchor="start" x="1913.68" y="-398.2" font-family="Arial" font-size="14.00">file_set_id </text>
<text text-anchor="start" x="1980.61" y="-398.2" font-family="Arial" font-size="14.00" fill="#666666">[INTEGER]</text>
</g>
<!-- release_item_file_set&#45;&gt;file_set -->
<g id="edge7" class="edge">
<title>release_item_file_set:file_set_id&#45;&gt;file_set:id</title>
<path fill="none" stroke="black" d="M1895.93,-398.44C1887.04,-389.78 1902.68,-363.79 1906.68,-342.8 1920.25,-271.59 2005.29,-181.8 1932.79,-181.8"/>
<polygon fill="black" stroke="black" points="1895.79,-398.4 1904.05,-405.61 1900.9,-399.95 1905.04,-401.21 1905.04,-401.21 1905.04,-401.21 1900.9,-399.95 1906.67,-397 1895.79,-398.4"/>
<text text-anchor="start" x="1912.68" y="-385.4" font-family="Arial" font-size="10.00">FOREIGN KEY (file_set_id) REFERENCES file_set (id) ON UPDATE NO ACTION ON DELETE CASCADE MATCH NONE</text>
</g>
<!-- file_set_item_type -->
<g id="node9" class="node">
<title>file_set_item_type</title>
<polygon fill="#efefef" stroke="none" points="2247.17,-447.6 2247.17,-483.2 2464.38,-483.2 2464.38,-447.6 2247.17,-447.6"/>
<polygon fill="none" stroke="black" points="2247.17,-447.6 2247.17,-483.2 2464.38,-483.2 2464.38,-447.6 2247.17,-447.6"/>
<text text-anchor="start" x="2254.17" y="-461" font-family="Arial Bold" font-size="18.00">file_set_item_type</text>
<text text-anchor="start" x="2388.13" y="-461" font-family="Arial" font-size="14.00">    </text>
<text text-anchor="start" x="2419.25" y="-461" font-family="Arial" font-size="14.00" fill="#666666">[table]</text>
<polygon fill="none" stroke="black" points="2247.17,-416.8 2247.17,-447.6 2464.38,-447.6 2464.38,-416.8 2247.17,-416.8"/>
<text text-anchor="start" x="2254.17" y="-429" font-family="Arial" font-size="14.00">file_set_id </text>
<text text-anchor="start" x="2321.1" y="-429" font-family="Arial" font-size="14.00" fill="#666666">[INTEGER]</text>
<polygon fill="none" stroke="black" points="2247.17,-386 2247.17,-416.8 2464.38,-416.8 2464.38,-386 2247.17,-386"/>
<text text-anchor="start" x="2254.17" y="-398.2" font-family="Arial" font-size="14.00">item_type </text>
<text text-anchor="start" x="2318.75" y="-398.2" font-family="Arial" font-size="14.00" fill="#666666">[INTEGER]</text>
</g>
<!-- file_set_item_type&#45;&gt;file_set -->
<g id="edge8" class="edge">
<title>file_set_item_type:file_set_id&#45;&gt;file_set:id</title>
<path fill="none" stroke="black" d="M2235.92,-431.2C2193.87,-422 2232.02,-351.44 2194.77,-312 2105.5,-217.47 2062.82,-181.8 1932.79,-181.8"/>
<polygon fill="black" stroke="black" points="2235.88,-431.2 2245.4,-436.65 2241.19,-431.72 2245.5,-432.14 2245.5,-432.14 2245.5,-432.14 2241.19,-431.72 2246.27,-427.69 2235.88,-431.2"/>
<text text-anchor="start" x="2253.17" y="-442.2" font-family="Arial" font-size="10.00">FOREIGN KEY (file_set_id) REFERENCES file_set (id) ON UPDATE NO ACTION ON DELETE CASCADE MATCH NONE</text>
</g>
</g>
</svg>
