<?xml version="1.0" encoding="UTF-8" standalone="no"?>
<!DOCTYPE svg PUBLIC "-//W3C//DTD SVG 1.1//EN"
 "http://www.w3.org/Graphics/SVG/1.1/DTD/svg11.dtd">
<!-- Generated by graphviz version 12.1.2 (20240928.0832)
 -->
<!-- Title: release_item_file_set Pages: 1 -->
<svg width="2248pt" height="816pt"
 viewBox="0.00 0.00 2247.74 815.60" xmlns="http://www.w3.org/2000/svg" xmlns:xlink="http://www.w3.org/1999/xlink">
<g id="graph0" class="graph" transform="scale(1 1) rotate(0) translate(4 811.6)">
<title>release_item_file_set</title>
<polygon fill="white" stroke="none" points="-4,4 -4,-811.6 2243.74,-811.6 2243.74,4 -4,4"/>
<!-- release_item_file_set -->
<g id="node1" class="node">
<title>release_item_file_set</title>
<polygon fill="#efefef" stroke="none" points="373.6,-698 373.6,-733.6 609.79,-733.6 609.79,-698 373.6,-698"/>
<polygon fill="none" stroke="black" points="373.6,-698 373.6,-733.6 609.79,-733.6 609.79,-698 373.6,-698"/>
<text text-anchor="start" x="380.6" y="-711.4" font-family="Arial Bold" font-size="18.00">release_item_file_set</text>
<text text-anchor="start" x="533.53" y="-711.4" font-family="Arial" font-size="14.00">    </text>
<text text-anchor="start" x="564.65" y="-711.4" font-family="Arial" font-size="14.00" fill="#666666">[table]</text>
<polygon fill="none" stroke="black" points="373.6,-667.2 373.6,-698 609.79,-698 609.79,-667.2 373.6,-667.2"/>
<text text-anchor="start" x="380.6" y="-679.4" font-family="Arial" font-size="14.00">release_item_id </text>
<text text-anchor="start" x="483.33" y="-679.4" font-family="Arial" font-size="14.00" fill="#666666">[INTEGER]</text>
<polygon fill="none" stroke="black" points="373.6,-636.4 373.6,-667.2 609.79,-667.2 609.79,-636.4 373.6,-636.4"/>
<text text-anchor="start" x="380.6" y="-648.6" font-family="Arial" font-size="14.00">file_set_id </text>
<text text-anchor="start" x="447.53" y="-648.6" font-family="Arial" font-size="14.00" fill="#666666">[INTEGER]</text>
<polygon fill="none" stroke="black" stroke-width="3" points="372.1,-634.9 372.1,-735.1 611.29,-735.1 611.29,-634.9 372.1,-634.9"/>
</g>
<!-- release_item -->
<g id="node2" class="node">
<title>release_item</title>
<polygon fill="#efefef" stroke="none" points="404.59,-432.2 404.59,-467.8 578.8,-467.8 578.8,-432.2 404.59,-432.2"/>
<polygon fill="none" stroke="black" points="404.59,-432.2 404.59,-467.8 578.8,-467.8 578.8,-432.2 404.59,-432.2"/>
<text text-anchor="start" x="411.59" y="-445.6" font-family="Arial Bold" font-size="18.00">release_item</text>
<text text-anchor="start" x="502.54" y="-445.6" font-family="Arial" font-size="14.00">    </text>
<text text-anchor="start" x="533.66" y="-445.6" font-family="Arial" font-size="14.00" fill="#666666">[table]</text>
<polygon fill="none" stroke="black" points="404.59,-401.4 404.59,-432.2 578.8,-432.2 578.8,-401.4 404.59,-401.4"/>
<text text-anchor="start" x="411.59" y="-413.6" font-family="Arial" font-size="14.00">id </text>
<text text-anchor="start" x="426.38" y="-413.6" font-family="Arial" font-size="14.00" fill="#666666">[INTEGER]</text>
<polygon fill="none" stroke="black" points="404.59,-370.6 404.59,-401.4 578.8,-401.4 578.8,-370.6 404.59,-370.6"/>
<text text-anchor="start" x="411.59" y="-382.8" font-family="Arial" font-size="14.00">release_id </text>
<text text-anchor="start" x="480.08" y="-382.8" font-family="Arial" font-size="14.00" fill="#666666">[INTEGER]</text>
<polygon fill="none" stroke="black" points="404.59,-339.8 404.59,-370.6 578.8,-370.6 578.8,-339.8 404.59,-339.8"/>
<text text-anchor="start" x="411.59" y="-352" font-family="Arial" font-size="14.00">item_type </text>
<text text-anchor="start" x="476.18" y="-352" font-family="Arial" font-size="14.00" fill="#666666">[INTEGER]</text>
<polygon fill="none" stroke="black" points="404.59,-309 404.59,-339.8 578.8,-339.8 578.8,-309 404.59,-309"/>
<text text-anchor="start" x="411.59" y="-321.2" font-family="Arial" font-size="14.00">notes </text>
<text text-anchor="start" x="449.73" y="-321.2" font-family="Arial" font-size="14.00" fill="#666666">[TEXT]</text>
</g>
<!-- release_item_file_set&#45;&gt;release_item -->
<g id="edge1" class="edge">
<title>release_item_file_set:release_item_id&#45;&gt;release_item:id</title>
<path fill="none" stroke="black" d="M620.61,-679.79C666.4,-651.39 635.66,-416.8 579.8,-416.8"/>
<polygon fill="black" stroke="black" points="620.72,-679.76 609.87,-678.18 615.59,-681.23 611.43,-682.42 611.43,-682.42 611.43,-682.42 615.59,-681.23 612.34,-686.84 620.72,-679.76"/>
<text text-anchor="start" x="7" y="-692.6" font-family="Arial" font-size="10.00">FOREIGN KEY (release_item_id) REFERENCES release_item (id) ON UPDATE NO ACTION ON DELETE CASCADE MATCH NONE</text>
</g>
<!-- file_set -->
<g id="node4" class="node">
<title>file_set</title>
<polygon fill="#efefef" stroke="none" points="1055.67,-447.6 1055.67,-483.2 1195.72,-483.2 1195.72,-447.6 1055.67,-447.6"/>
<polygon fill="none" stroke="black" points="1055.67,-447.6 1055.67,-483.2 1195.72,-483.2 1195.72,-447.6 1055.67,-447.6"/>
<text text-anchor="start" x="1064.58" y="-461" font-family="Arial Bold" font-size="18.00">file_set</text>
<text text-anchor="start" x="1117.56" y="-461" font-family="Arial" font-size="14.00">    </text>
<text text-anchor="start" x="1148.67" y="-461" font-family="Arial" font-size="14.00" fill="#666666">[table]</text>
<polygon fill="none" stroke="black" points="1055.67,-416.8 1055.67,-447.6 1195.72,-447.6 1195.72,-416.8 1055.67,-416.8"/>
<text text-anchor="start" x="1062.67" y="-429" font-family="Arial" font-size="14.00">id </text>
<text text-anchor="start" x="1077.46" y="-429" font-family="Arial" font-size="14.00" fill="#666666">[INTEGER]</text>
<polygon fill="none" stroke="black" points="1055.67,-386 1055.67,-416.8 1195.72,-416.8 1195.72,-386 1055.67,-386"/>
<text text-anchor="start" x="1062.67" y="-398.2" font-family="Arial" font-size="14.00">file_name </text>
<text text-anchor="start" x="1127.27" y="-398.2" font-family="Arial" font-size="14.00" fill="#666666">[TEXT]</text>
<polygon fill="none" stroke="black" points="1055.67,-355.2 1055.67,-386 1195.72,-386 1195.72,-355.2 1055.67,-355.2"/>
<text text-anchor="start" x="1062.67" y="-367.4" font-family="Arial" font-size="14.00">file_type </text>
<text text-anchor="start" x="1118.71" y="-367.4" font-family="Arial" font-size="14.00" fill="#666666">[INTEGER]</text>
<polygon fill="none" stroke="black" points="1055.67,-324.4 1055.67,-355.2 1195.72,-355.2 1195.72,-324.4 1055.67,-324.4"/>
<text text-anchor="start" x="1062.67" y="-336.6" font-family="Arial" font-size="14.00">name </text>
<text text-anchor="start" x="1101.58" y="-336.6" font-family="Arial" font-size="14.00" fill="#666666">[TEXT]</text>
<polygon fill="none" stroke="black" points="1055.67,-293.6 1055.67,-324.4 1195.72,-324.4 1195.72,-293.6 1055.67,-293.6"/>
<text text-anchor="start" x="1062.67" y="-305.8" font-family="Arial" font-size="14.00">source </text>
<text text-anchor="start" x="1108.58" y="-305.8" font-family="Arial" font-size="14.00" fill="#666666">[TEXT]</text>
</g>
<!-- release_item_file_set&#45;&gt;file_set -->
<g id="edge3" class="edge">
<title>release_item_file_set:file_set_id&#45;&gt;file_set:id</title>
<path fill="none" stroke="black" d="M620.77,-650.63C652.91,-642.1 631.45,-589.02 664.69,-562.4 807.33,-448.18 871.95,-432.2 1054.67,-432.2"/>
<polygon fill="black" stroke="black" points="621.05,-650.6 610.6,-647.29 615.75,-651.22 611.45,-651.72 611.45,-651.72 611.45,-651.72 615.75,-651.22 611.64,-656.23 621.05,-650.6"/>
<text text-anchor="start" x="58.13" y="-661.8" font-family="Arial" font-size="10.00">FOREIGN KEY (file_set_id) REFERENCES file_set (id) ON UPDATE NO ACTION ON DELETE CASCADE MATCH NONE</text>
</g>
<!-- release -->
<g id="node3" class="node">
<title>release</title>
<polygon fill="#efefef" stroke="none" points="400.27,-135.6 400.27,-171.2 583.12,-171.2 583.12,-135.6 400.27,-135.6"/>
<polygon fill="none" stroke="black" points="400.27,-135.6 400.27,-171.2 583.12,-171.2 583.12,-135.6 400.27,-135.6"/>
<text text-anchor="start" x="432.09" y="-149" font-family="Arial Bold" font-size="18.00">release</text>
<text text-anchor="start" x="482.05" y="-149" font-family="Arial" font-size="14.00">    </text>
<text text-anchor="start" x="513.16" y="-149" font-family="Arial" font-size="14.00" fill="#666666">[table]</text>
<polygon fill="none" stroke="black" points="400.27,-104.8 400.27,-135.6 583.12,-135.6 583.12,-104.8 400.27,-104.8"/>
<text text-anchor="start" x="407.27" y="-117" font-family="Arial" font-size="14.00">id </text>
<text text-anchor="start" x="422.05" y="-117" font-family="Arial" font-size="14.00" fill="#666666">[INTEGER]</text>
<polygon fill="none" stroke="black" points="400.27,-74 400.27,-104.8 583.12,-104.8 583.12,-74 400.27,-74"/>
<text text-anchor="start" x="407.27" y="-86.2" font-family="Arial" font-size="14.00">name </text>
<text text-anchor="start" x="446.18" y="-86.2" font-family="Arial" font-size="14.00" fill="#666666">[TEXT]</text>
<polygon fill="none" stroke="black" points="400.27,-43.2 400.27,-74 583.12,-74 583.12,-43.2 400.27,-43.2"/>
<text text-anchor="start" x="407.27" y="-55.4" font-family="Arial" font-size="14.00">thumbnail_filename </text>
<text text-anchor="start" x="532.56" y="-55.4" font-family="Arial" font-size="14.00" fill="#666666">[TEXT]</text>
</g>
<!-- release_item&#45;&gt;release -->
<g id="edge2" class="edge">
<title>release_item:release_id&#45;&gt;release:id</title>
<path fill="none" stroke="black" d="M590.21,-385.28C698.1,-370.15 698.69,-120.2 584.12,-120.2"/>
<polygon fill="black" stroke="black" points="590.11,-385.29 579.82,-381.49 584.79,-385.66 580.46,-385.95 580.46,-385.95 580.46,-385.95 584.79,-385.66 580.44,-390.47 590.11,-385.29"/>
<text text-anchor="start" x="586.8" y="-396" font-family="Arial" font-size="10.00">FOREIGN KEY (release_id) REFERENCES release (id) ON UPDATE NO ACTION ON DELETE CASCADE MATCH NONE</text>
</g>
<!-- release_file_set -->
<g id="node5" class="node">
<title>release_file_set</title>
<polygon fill="#efefef" stroke="none" points="717.1,-698 717.1,-733.6 912.29,-733.6 912.29,-698 717.1,-698"/>
<polygon fill="none" stroke="black" points="717.1,-698 717.1,-733.6 912.29,-733.6 912.29,-698 717.1,-698"/>
<text text-anchor="start" x="724.1" y="-711.4" font-family="Arial Bold" font-size="18.00">release_file_set</text>
<text text-anchor="start" x="836.04" y="-711.4" font-family="Arial" font-size="14.00">    </text>
<text text-anchor="start" x="867.15" y="-711.4" font-family="Arial" font-size="14.00" fill="#666666">[table]</text>
<polygon fill="none" stroke="black" points="717.1,-667.2 717.1,-698 912.29,-698 912.29,-667.2 717.1,-667.2"/>
<text text-anchor="start" x="724.1" y="-679.4" font-family="Arial" font-size="14.00">release_id </text>
<text text-anchor="start" x="792.59" y="-679.4" font-family="Arial" font-size="14.00" fill="#666666">[INTEGER]</text>
<polygon fill="none" stroke="black" points="717.1,-636.4 717.1,-667.2 912.29,-667.2 912.29,-636.4 717.1,-636.4"/>
<text text-anchor="start" x="724.1" y="-648.6" font-family="Arial" font-size="14.00">file_set_id </text>
<text text-anchor="start" x="791.03" y="-648.6" font-family="Arial" font-size="14.00" fill="#666666">[INTEGER]</text>
</g>
<!-- release_file_set&#45;&gt;file_set -->
<g id="edge4" class="edge">
<title>release_file_set:file_set_id&#45;&gt;file_set:id</title>
<path fill="none" stroke="black" d="M923.32,-650.81C956.31,-643.57 942.23,-597.97 964.69,-562.4 1002.25,-502.93 984.33,-432.2 1054.67,-432.2"/>
<polygon fill="black" stroke="black" points="923.58,-650.79 913.18,-647.29 918.27,-651.31 913.96,-651.73 913.96,-651.73 913.96,-651.73 918.27,-651.31 914.06,-656.25 923.58,-650.79"/>
<text text-anchor="start" x="360.64" y="-635.8" font-family="Arial" font-size="10.00">FOREIGN KEY (file_set_id) REFERENCES file_set (id) ON UPDATE NO ACTION ON DELETE CASCADE MATCH NONE</text>
</g>
<!-- file_set_item_type -->
<g id="node6" class="node">
<title>file_set_item_type</title>
<polygon fill="#efefef" stroke="none" points="1017.09,-698 1017.09,-733.6 1234.3,-733.6 1234.3,-698 1017.09,-698"/>
<polygon fill="none" stroke="black" points="1017.09,-698 1017.09,-733.6 1234.3,-733.6 1234.3,-698 1017.09,-698"/>
<text text-anchor="start" x="1024.09" y="-711.4" font-family="Arial Bold" font-size="18.00">file_set_item_type</text>
<text text-anchor="start" x="1158.05" y="-711.4" font-family="Arial" font-size="14.00">    </text>
<text text-anchor="start" x="1189.17" y="-711.4" font-family="Arial" font-size="14.00" fill="#666666">[table]</text>
<polygon fill="none" stroke="black" points="1017.09,-667.2 1017.09,-698 1234.3,-698 1234.3,-667.2 1017.09,-667.2"/>
<text text-anchor="start" x="1024.09" y="-679.4" font-family="Arial" font-size="14.00">file_set_id </text>
<text text-anchor="start" x="1091.02" y="-679.4" font-family="Arial" font-size="14.00" fill="#666666">[INTEGER]</text>
<polygon fill="none" stroke="black" points="1017.09,-636.4 1017.09,-667.2 1234.3,-667.2 1234.3,-636.4 1017.09,-636.4"/>
<text text-anchor="start" x="1024.09" y="-648.6" font-family="Arial" font-size="14.00">item_type </text>
<text text-anchor="start" x="1088.67" y="-648.6" font-family="Arial" font-size="14.00" fill="#666666">[INTEGER]</text>
</g>
<!-- file_set_item_type&#45;&gt;file_set -->
<g id="edge5" class="edge">
<title>file_set_item_type:file_set_id&#45;&gt;file_set:id</title>
<path fill="none" stroke="black" d="M1245.03,-679.61C1286.56,-651.36 1249.39,-432.2 1196.72,-432.2"/>
<polygon fill="black" stroke="black" points="1245.18,-679.57 1234.3,-678.2 1240.08,-681.13 1235.94,-682.4 1235.94,-682.4 1235.94,-682.4 1240.08,-681.13 1236.94,-686.8 1245.18,-679.57"/>
<text text-anchor="start" x="1242.3" y="-692.6" font-family="Arial" font-size="10.00">FOREIGN KEY (file_set_id) REFERENCES file_set (id) ON UPDATE NO ACTION ON DELETE CASCADE MATCH NONE</text>
</g>
<!-- file_set_dat_file_link -->
<g id="node7" class="node">
<title>file_set_dat_file_link</title>
<polygon fill="#efefef" stroke="none" points="1339.09,-698 1339.09,-733.6 1576.3,-733.6 1576.3,-698 1339.09,-698"/>
<polygon fill="none" stroke="black" points="1339.09,-698 1339.09,-733.6 1576.3,-733.6 1576.3,-698 1339.09,-698"/>
<text text-anchor="start" x="1346.09" y="-711.4" font-family="Arial Bold" font-size="18.00">file_set_dat_file_link</text>
<text text-anchor="start" x="1500.05" y="-711.4" font-family="Arial" font-size="14.00">    </text>
<text text-anchor="start" x="1531.16" y="-711.4" font-family="Arial" font-size="14.00" fill="#666666">[table]</text>
<polygon fill="none" stroke="black" points="1339.09,-667.2 1339.09,-698 1576.3,-698 1576.3,-667.2 1339.09,-667.2"/>
<text text-anchor="start" x="1346.09" y="-679.4" font-family="Arial" font-size="14.00">file_set_id </text>
<text text-anchor="start" x="1413.02" y="-679.4" font-family="Arial" font-size="14.00" fill="#666666">[INTEGER]</text>
<polygon fill="none" stroke="black" points="1339.09,-636.4 1339.09,-667.2 1576.3,-667.2 1576.3,-636.4 1339.09,-636.4"/>
<text text-anchor="start" x="1346.09" y="-648.6" font-family="Arial" font-size="14.00">dat_file_id </text>
<text text-anchor="start" x="1413.81" y="-648.6" font-family="Arial" font-size="14.00" fill="#666666">[INTEGER]</text>
</g>
<!-- file_set_dat_file_link&#45;&gt;file_set -->
<g id="edge6" class="edge">
<title>file_set_dat_file_link:file_set_id&#45;&gt;file_set:id</title>
<path fill="none" stroke="black" d="M1327.7,-681.71C1284.33,-673.47 1312.91,-609.89 1286.69,-562.4 1252.7,-500.82 1267.06,-432.2 1196.72,-432.2"/>
<polygon fill="black" stroke="black" points="1327.79,-681.72 1337.37,-687.05 1333.11,-682.17 1337.42,-682.54 1337.42,-682.54 1337.42,-682.54 1333.11,-682.17 1338.14,-678.09 1327.79,-681.72"/>
<text text-anchor="start" x="1345.09" y="-666.6" font-family="Arial" font-size="10.00">FOREIGN KEY (file_set_id) REFERENCES file_set (id) ON UPDATE NO ACTION ON DELETE CASCADE MATCH NONE</text>
</g>
<!-- file_set_file_info -->
<g id="node8" class="node">
<title>file_set_file_info</title>
<polygon fill="#efefef" stroke="none" points="1681.09,-728.8 1681.09,-764.4 1888.3,-764.4 1888.3,-728.8 1681.09,-728.8"/>
<polygon fill="none" stroke="black" points="1681.09,-728.8 1681.09,-764.4 1888.3,-764.4 1888.3,-728.8 1681.09,-728.8"/>
<text text-anchor="start" x="1688.09" y="-742.2" font-family="Arial Bold" font-size="18.00">file_set_file_info</text>
<text text-anchor="start" x="1812.05" y="-742.2" font-family="Arial" font-size="14.00">    </text>
<text text-anchor="start" x="1843.17" y="-742.2" font-family="Arial" font-size="14.00" fill="#666666">[table]</text>
<polygon fill="none" stroke="black" points="1681.09,-698 1681.09,-728.8 1888.3,-728.8 1888.3,-698 1681.09,-698"/>
<text text-anchor="start" x="1688.09" y="-710.2" font-family="Arial" font-size="14.00">file_set_id </text>
<text text-anchor="start" x="1755.02" y="-710.2" font-family="Arial" font-size="14.00" fill="#666666">[INTEGER]</text>
<polygon fill="none" stroke="black" points="1681.09,-667.2 1681.09,-698 1888.3,-698 1888.3,-667.2 1681.09,-667.2"/>
<text text-anchor="start" x="1688.09" y="-679.4" font-family="Arial" font-size="14.00">file_info_id </text>
<text text-anchor="start" x="1758.91" y="-679.4" font-family="Arial" font-size="14.00" fill="#666666">[INTEGER]</text>
<polygon fill="none" stroke="black" points="1681.09,-636.4 1681.09,-667.2 1888.3,-667.2 1888.3,-636.4 1681.09,-636.4"/>
<text text-anchor="start" x="1688.09" y="-648.6" font-family="Arial" font-size="14.00">file_name </text>
<text text-anchor="start" x="1752.68" y="-648.6" font-family="Arial" font-size="14.00" fill="#666666">[TEXT]</text>
<polygon fill="none" stroke="black" points="1681.09,-605.6 1681.09,-636.4 1888.3,-636.4 1888.3,-605.6 1681.09,-605.6"/>
<text text-anchor="start" x="1688.09" y="-617.8" font-family="Arial" font-size="14.00">sort_order </text>
<text text-anchor="start" x="1755.78" y="-617.8" font-family="Arial" font-size="14.00" fill="#666666">[INTEGER]</text>
</g>
<!-- file_set_file_info&#45;&gt;file_set -->
<g id="edge7" class="edge">
<title>file_set_file_info:file_set_id&#45;&gt;file_set:id</title>
<path fill="none" stroke="black" d="M1670.01,-712.57C1616.29,-702.81 1677.01,-609.04 1628.69,-562.4 1556.56,-492.77 1296.98,-432.2 1196.72,-432.2"/>
<polygon fill="black" stroke="black" points="1669.79,-712.56 1679.39,-717.86 1675.1,-712.99 1679.42,-713.35 1679.42,-713.35 1679.42,-713.35 1675.1,-712.99 1680.12,-708.89 1669.79,-712.56"/>
<text text-anchor="start" x="1687.09" y="-723.4" font-family="Arial" font-size="10.00">FOREIGN KEY (file_set_id) REFERENCES file_set (id) ON UPDATE NO ACTION ON DELETE CASCADE MATCH NONE</text>
</g>
</g>
</svg>
