<?xml version="1.0" encoding="UTF-8" standalone="no"?>
<!DOCTYPE svg PUBLIC "-//W3C//DTD SVG 1.1//EN"
 "http://www.w3.org/Graphics/SVG/1.1/DTD/svg11.dtd">
<!-- Generated by graphviz version 12.1.2 (20240928.0832)
 -->
<!-- Title: release_item Pages: 1 -->
<svg width="2187pt" height="723pt"
 viewBox="0.00 0.00 2186.55 723.20" xmlns="http://www.w3.org/2000/svg" xmlns:xlink="http://www.w3.org/1999/xlink">
<g id="graph0" class="graph" transform="scale(1 1) rotate(0) translate(4 719.2)">
<title>release_item</title>
<polygon fill="white" stroke="none" points="-4,4 -4,-719.2 2182.55,-719.2 2182.55,4 -4,4"/>
<!-- release_item -->
<g id="node1" class="node">
<title>release_item</title>
<polygon fill="#efefef" stroke="none" points="1310.18,-401.4 1310.18,-437 1484.39,-437 1484.39,-401.4 1310.18,-401.4"/>
<polygon fill="none" stroke="black" points="1310.18,-401.4 1310.18,-437 1484.39,-437 1484.39,-401.4 1310.18,-401.4"/>
<text text-anchor="start" x="1317.18" y="-414.8" font-family="Arial Bold" font-size="18.00">release_item</text>
<text text-anchor="start" x="1408.13" y="-414.8" font-family="Arial" font-size="14.00">    </text>
<text text-anchor="start" x="1439.25" y="-414.8" font-family="Arial" font-size="14.00" fill="#666666">[table]</text>
<polygon fill="none" stroke="black" points="1310.18,-370.6 1310.18,-401.4 1484.39,-401.4 1484.39,-370.6 1310.18,-370.6"/>
<text text-anchor="start" x="1317.18" y="-382.8" font-family="Arial" font-size="14.00">id </text>
<text text-anchor="start" x="1331.97" y="-382.8" font-family="Arial" font-size="14.00" fill="#666666">[INTEGER]</text>
<polygon fill="none" stroke="black" points="1310.18,-339.8 1310.18,-370.6 1484.39,-370.6 1484.39,-339.8 1310.18,-339.8"/>
<text text-anchor="start" x="1317.18" y="-352" font-family="Arial" font-size="14.00">release_id </text>
<text text-anchor="start" x="1385.67" y="-352" font-family="Arial" font-size="14.00" fill="#666666">[INTEGER]</text>
<polygon fill="none" stroke="black" points="1310.18,-309 1310.18,-339.8 1484.39,-339.8 1484.39,-309 1310.18,-309"/>
<text text-anchor="start" x="1317.18" y="-321.2" font-family="Arial" font-size="14.00">item_type </text>
<text text-anchor="start" x="1381.77" y="-321.2" font-family="Arial" font-size="14.00" fill="#666666">[INTEGER]</text>
<polygon fill="none" stroke="black" points="1310.18,-278.2 1310.18,-309 1484.39,-309 1484.39,-278.2 1310.18,-278.2"/>
<text text-anchor="start" x="1317.18" y="-290.4" font-family="Arial" font-size="14.00">notes </text>
<text text-anchor="start" x="1355.32" y="-290.4" font-family="Arial" font-size="14.00" fill="#666666">[TEXT]</text>
<polygon fill="none" stroke="black" stroke-width="3" points="1308.68,-276.7 1308.68,-438.5 1485.89,-438.5 1485.89,-276.7 1308.68,-276.7"/>
</g>
<!-- release -->
<g id="node4" class="node">
<title>release</title>
<polygon fill="#efefef" stroke="none" points="854.68,-104.8 854.68,-140.4 987.89,-140.4 987.89,-104.8 854.68,-104.8"/>
<polygon fill="none" stroke="black" points="854.68,-104.8 854.68,-140.4 987.89,-140.4 987.89,-104.8 854.68,-104.8"/>
<text text-anchor="start" x="861.68" y="-118.2" font-family="Arial Bold" font-size="18.00">release</text>
<text text-anchor="start" x="911.64" y="-118.2" font-family="Arial" font-size="14.00">    </text>
<text text-anchor="start" x="942.75" y="-118.2" font-family="Arial" font-size="14.00" fill="#666666">[table]</text>
<polygon fill="none" stroke="black" points="854.68,-74 854.68,-104.8 987.89,-104.8 987.89,-74 854.68,-74"/>
<text text-anchor="start" x="861.68" y="-86.2" font-family="Arial" font-size="14.00">id </text>
<text text-anchor="start" x="876.46" y="-86.2" font-family="Arial" font-size="14.00" fill="#666666">[INTEGER]</text>
<polygon fill="none" stroke="black" points="854.68,-43.2 854.68,-74 987.89,-74 987.89,-43.2 854.68,-43.2"/>
<text text-anchor="start" x="861.68" y="-55.4" font-family="Arial" font-size="14.00">name </text>
<text text-anchor="start" x="900.59" y="-55.4" font-family="Arial" font-size="14.00" fill="#666666">[TEXT]</text>
</g>
<!-- release_item&#45;&gt;release -->
<g id="edge3" class="edge">
<title>release_item:release_id&#45;&gt;release:id</title>
<path fill="none" stroke="black" d="M1298.97,-354.32C1250.44,-345.02 1296.78,-264.39 1255.28,-219.6 1165.72,-122.93 1120.67,-89.4 988.89,-89.4"/>
<polygon fill="black" stroke="black" points="1298.89,-354.31 1308.46,-359.65 1304.2,-354.77 1308.52,-355.14 1308.52,-355.14 1308.52,-355.14 1304.2,-354.77 1309.24,-350.69 1298.89,-354.31"/>
<text text-anchor="start" x="1316.18" y="-365.2" font-family="Arial" font-size="10.00">FOREIGN KEY (release_id) REFERENCES release (id) ON UPDATE NO ACTION ON DELETE CASCADE MATCH NONE</text>
</g>
<!-- file_set_item -->
<g id="node2" class="node">
<title>file_set_item</title>
<polygon fill="#efefef" stroke="none" points="1440.67,-636.4 1440.67,-672 1617.9,-672 1617.9,-636.4 1440.67,-636.4"/>
<polygon fill="none" stroke="black" points="1440.67,-636.4 1440.67,-672 1617.9,-672 1617.9,-636.4 1440.67,-636.4"/>
<text text-anchor="start" x="1447.67" y="-649.8" font-family="Arial Bold" font-size="18.00">file_set_item</text>
<text text-anchor="start" x="1541.64" y="-649.8" font-family="Arial" font-size="14.00">    </text>
<text text-anchor="start" x="1572.76" y="-649.8" font-family="Arial" font-size="14.00" fill="#666666">[table]</text>
<polygon fill="none" stroke="black" points="1440.67,-605.6 1440.67,-636.4 1617.9,-636.4 1617.9,-605.6 1440.67,-605.6"/>
<text text-anchor="start" x="1447.67" y="-617.8" font-family="Arial" font-size="14.00">file_set_id </text>
<text text-anchor="start" x="1514.6" y="-617.8" font-family="Arial" font-size="14.00" fill="#666666">[INTEGER]</text>
<polygon fill="none" stroke="black" points="1440.67,-574.8 1440.67,-605.6 1617.9,-605.6 1617.9,-574.8 1440.67,-574.8"/>
<text text-anchor="start" x="1447.67" y="-587" font-family="Arial" font-size="14.00">item_id </text>
<text text-anchor="start" x="1496.69" y="-587" font-family="Arial" font-size="14.00" fill="#666666">[INTEGER]</text>
</g>
<!-- file_set_item&#45;&gt;release_item -->
<g id="edge1" class="edge">
<title>file_set_item:item_id&#45;&gt;release_item:id</title>
<path fill="none" stroke="black" d="M1429.84,-587.38C1419.4,-578.68 1432.75,-551.67 1440.67,-531.6 1451.31,-504.64 1473.84,-510.2 1484.39,-483.2 1500.11,-442.96 1528.59,-386 1485.39,-386"/>
<polygon fill="black" stroke="black" points="1429.74,-587.35 1438.11,-594.43 1434.86,-588.82 1439.03,-590.02 1439.03,-590.02 1439.03,-590.02 1434.86,-588.82 1440.59,-585.78 1429.74,-587.35"/>
<text text-anchor="start" x="874.24" y="-600.2" font-family="Arial" font-size="10.00">FOREIGN KEY (item_id) REFERENCES release_item (id) ON UPDATE NO ACTION ON DELETE CASCADE MATCH NONE</text>
</g>
<!-- file_set -->
<g id="node3" class="node">
<title>file_set</title>
<polygon fill="#efefef" stroke="none" points="1592.26,-416.8 1592.26,-452.4 1732.31,-452.4 1732.31,-416.8 1592.26,-416.8"/>
<polygon fill="none" stroke="black" points="1592.26,-416.8 1592.26,-452.4 1732.31,-452.4 1732.31,-416.8 1592.26,-416.8"/>
<text text-anchor="start" x="1601.17" y="-430.2" font-family="Arial Bold" font-size="18.00">file_set</text>
<text text-anchor="start" x="1654.15" y="-430.2" font-family="Arial" font-size="14.00">    </text>
<text text-anchor="start" x="1685.26" y="-430.2" font-family="Arial" font-size="14.00" fill="#666666">[table]</text>
<polygon fill="none" stroke="black" points="1592.26,-386 1592.26,-416.8 1732.31,-416.8 1732.31,-386 1592.26,-386"/>
<text text-anchor="start" x="1599.26" y="-398.2" font-family="Arial" font-size="14.00">id </text>
<text text-anchor="start" x="1614.05" y="-398.2" font-family="Arial" font-size="14.00" fill="#666666">[INTEGER]</text>
<polygon fill="none" stroke="black" points="1592.26,-355.2 1592.26,-386 1732.31,-386 1732.31,-355.2 1592.26,-355.2"/>
<text text-anchor="start" x="1599.26" y="-367.4" font-family="Arial" font-size="14.00">file_name </text>
<text text-anchor="start" x="1663.86" y="-367.4" font-family="Arial" font-size="14.00" fill="#666666">[TEXT]</text>
<polygon fill="none" stroke="black" points="1592.26,-324.4 1592.26,-355.2 1732.31,-355.2 1732.31,-324.4 1592.26,-324.4"/>
<text text-anchor="start" x="1599.26" y="-336.6" font-family="Arial" font-size="14.00">file_type </text>
<text text-anchor="start" x="1655.3" y="-336.6" font-family="Arial" font-size="14.00" fill="#666666">[INTEGER]</text>
<polygon fill="none" stroke="black" points="1592.26,-293.6 1592.26,-324.4 1732.31,-324.4 1732.31,-293.6 1592.26,-293.6"/>
<text text-anchor="start" x="1599.26" y="-305.8" font-family="Arial" font-size="14.00">name </text>
<text text-anchor="start" x="1638.17" y="-305.8" font-family="Arial" font-size="14.00" fill="#666666">[TEXT]</text>
<polygon fill="none" stroke="black" points="1592.26,-262.8 1592.26,-293.6 1732.31,-293.6 1732.31,-262.8 1592.26,-262.8"/>
<text text-anchor="start" x="1599.26" y="-275" font-family="Arial" font-size="14.00">source </text>
<text text-anchor="start" x="1645.17" y="-275" font-family="Arial" font-size="14.00" fill="#666666">[TEXT]</text>
</g>
<!-- file_set_item&#45;&gt;file_set -->
<g id="edge2" class="edge">
<title>file_set_item:file_set_id&#45;&gt;file_set:id</title>
<path fill="none" stroke="black" d="M1628.98,-619.47C1653.03,-610.66 1628.96,-565.54 1617.9,-531.6 1611.81,-512.92 1598.34,-514.28 1592.26,-495.6 1579.3,-455.79 1549.4,-401.4 1591.26,-401.4"/>
<polygon fill="black" stroke="black" points="1629.12,-619.45 1618.55,-616.5 1623.84,-620.25 1619.56,-620.9 1619.56,-620.9 1619.56,-620.9 1623.84,-620.25 1619.9,-625.4 1629.12,-619.45"/>
<text text-anchor="start" x="1625.9" y="-631" font-family="Arial" font-size="10.00">FOREIGN KEY (file_set_id) REFERENCES file_set (id) ON UPDATE NO ACTION ON DELETE CASCADE MATCH NONE</text>
</g>
<!-- release_file_set -->
<g id="node5" class="node">
<title>release_file_set</title>
<polygon fill="#efefef" stroke="none" points="365.69,-370.6 365.69,-406.2 560.88,-406.2 560.88,-370.6 365.69,-370.6"/>
<polygon fill="none" stroke="black" points="365.69,-370.6 365.69,-406.2 560.88,-406.2 560.88,-370.6 365.69,-370.6"/>
<text text-anchor="start" x="372.69" y="-384" font-family="Arial Bold" font-size="18.00">release_file_set</text>
<text text-anchor="start" x="484.63" y="-384" font-family="Arial" font-size="14.00">    </text>
<text text-anchor="start" x="515.74" y="-384" font-family="Arial" font-size="14.00" fill="#666666">[table]</text>
<polygon fill="none" stroke="black" points="365.69,-339.8 365.69,-370.6 560.88,-370.6 560.88,-339.8 365.69,-339.8"/>
<text text-anchor="start" x="372.69" y="-352" font-family="Arial" font-size="14.00">release_id </text>
<text text-anchor="start" x="441.18" y="-352" font-family="Arial" font-size="14.00" fill="#666666">[INTEGER]</text>
<polygon fill="none" stroke="black" points="365.69,-309 365.69,-339.8 560.88,-339.8 560.88,-309 365.69,-309"/>
<text text-anchor="start" x="372.69" y="-321.2" font-family="Arial" font-size="14.00">file_set_id </text>
<text text-anchor="start" x="439.62" y="-321.2" font-family="Arial" font-size="14.00" fill="#666666">[INTEGER]</text>
</g>
<!-- release_file_set&#45;&gt;release -->
<g id="edge4" class="edge">
<title>release_file_set:release_id&#45;&gt;release:id</title>
<path fill="none" stroke="black" d="M572.02,-354.33C620.17,-345.13 573.35,-265.28 613.28,-219.6 693.26,-128.12 732.17,-89.4 853.68,-89.4"/>
<polygon fill="black" stroke="black" points="572.18,-354.31 561.83,-350.69 566.86,-354.77 562.55,-355.14 562.55,-355.14 562.55,-355.14 566.86,-354.77 562.6,-359.65 572.18,-354.31"/>
<text text-anchor="start" x="7" y="-365.2" font-family="Arial" font-size="10.00">FOREIGN KEY (release_id) REFERENCES release (id) ON UPDATE NO ACTION ON DELETE CASCADE MATCH NONE</text>
</g>
<!-- release_system -->
<g id="node6" class="node">
<title>release_system</title>
<polygon fill="#efefef" stroke="none" points="665.18,-370.6 665.18,-406.2 857.39,-406.2 857.39,-370.6 665.18,-370.6"/>
<polygon fill="none" stroke="black" points="665.18,-370.6 665.18,-406.2 857.39,-406.2 857.39,-370.6 665.18,-370.6"/>
<text text-anchor="start" x="672.18" y="-384" font-family="Arial Bold" font-size="18.00">release_system</text>
<text text-anchor="start" x="781.14" y="-384" font-family="Arial" font-size="14.00">    </text>
<text text-anchor="start" x="812.25" y="-384" font-family="Arial" font-size="14.00" fill="#666666">[table]</text>
<polygon fill="none" stroke="black" points="665.18,-339.8 665.18,-370.6 857.39,-370.6 857.39,-339.8 665.18,-339.8"/>
<text text-anchor="start" x="672.18" y="-352" font-family="Arial" font-size="14.00">release_id </text>
<text text-anchor="start" x="740.67" y="-352" font-family="Arial" font-size="14.00" fill="#666666">[INTEGER]</text>
<polygon fill="none" stroke="black" points="665.18,-309 665.18,-339.8 857.39,-339.8 857.39,-309 665.18,-309"/>
<text text-anchor="start" x="672.18" y="-321.2" font-family="Arial" font-size="14.00">system_id </text>
<text text-anchor="start" x="739.09" y="-321.2" font-family="Arial" font-size="14.00" fill="#666666">[INTEGER]</text>
</g>
<!-- release_system&#45;&gt;release -->
<g id="edge5" class="edge">
<title>release_system:release_id&#45;&gt;release:id</title>
<path fill="none" stroke="black" d="M868.72,-354.39C961.38,-338.34 739.33,-89.4 853.68,-89.4"/>
<polygon fill="black" stroke="black" points="868.69,-354.39 858.37,-350.69 863.38,-354.81 859.06,-355.15 859.06,-355.15 859.06,-355.15 863.38,-354.81 859.08,-359.66 868.69,-354.39"/>
<text text-anchor="start" x="303.51" y="-339.2" font-family="Arial" font-size="10.00">FOREIGN KEY (release_id) REFERENCES release (id) ON UPDATE NO ACTION ON DELETE CASCADE MATCH NONE</text>
</g>
<!-- release_software_title -->
<g id="node7" class="node">
<title>release_software_title</title>
<polygon fill="#efefef" stroke="none" points="961.7,-370.6 961.7,-406.2 1202.87,-406.2 1202.87,-370.6 961.7,-370.6"/>
<polygon fill="none" stroke="black" points="961.7,-370.6 961.7,-406.2 1202.87,-406.2 1202.87,-370.6 961.7,-370.6"/>
<text text-anchor="start" x="968.7" y="-384" font-family="Arial Bold" font-size="18.00">release_software_title</text>
<text text-anchor="start" x="1126.62" y="-384" font-family="Arial" font-size="14.00">    </text>
<text text-anchor="start" x="1157.74" y="-384" font-family="Arial" font-size="14.00" fill="#666666">[table]</text>
<polygon fill="none" stroke="black" points="961.7,-339.8 961.7,-370.6 1202.87,-370.6 1202.87,-339.8 961.7,-339.8"/>
<text text-anchor="start" x="968.7" y="-352" font-family="Arial" font-size="14.00">release_id </text>
<text text-anchor="start" x="1037.19" y="-352" font-family="Arial" font-size="14.00" fill="#666666">[INTEGER]</text>
<polygon fill="none" stroke="black" points="961.7,-309 961.7,-339.8 1202.87,-339.8 1202.87,-309 961.7,-309"/>
<text text-anchor="start" x="968.7" y="-321.2" font-family="Arial" font-size="14.00">software_title_id </text>
<text text-anchor="start" x="1073.75" y="-321.2" font-family="Arial" font-size="14.00" fill="#666666">[INTEGER]</text>
</g>
<!-- release_software_title&#45;&gt;release -->
<g id="edge6" class="edge">
<title>release_software_title:release_id&#45;&gt;release:id</title>
<path fill="none" stroke="black" d="M950.38,-354.39C858.63,-338.34 1103.86,-89.4 988.89,-89.4"/>
<polygon fill="black" stroke="black" points="950.39,-354.39 960.01,-359.66 955.71,-354.81 960.03,-355.15 960.03,-355.15 960.03,-355.15 955.71,-354.81 960.72,-350.69 950.39,-354.39"/>
<text text-anchor="start" x="967.7" y="-339.2" font-family="Arial" font-size="10.00">FOREIGN KEY (release_id) REFERENCES release (id) ON UPDATE NO ACTION ON DELETE CASCADE MATCH NONE</text>
</g>
</g>
</svg>
