<?xml version="1.0" encoding="UTF-8" standalone="no"?>
<!DOCTYPE svg PUBLIC "-//W3C//DTD SVG 1.1//EN"
 "http://www.w3.org/Graphics/SVG/1.1/DTD/svg11.dtd">
<!-- Generated by graphviz version 12.1.2 (20240928.0832)
 -->
<!-- Title: release_system Pages: 1 -->
<svg width="2155pt" height="534pt"
 viewBox="0.00 0.00 2155.00 534.40" xmlns="http://www.w3.org/2000/svg" xmlns:xlink="http://www.w3.org/1999/xlink">
<g id="graph0" class="graph" transform="scale(1 1) rotate(0) translate(4 530.4)">
<title>release_system</title>
<polygon fill="white" stroke="none" points="-4,4 -4,-530.4 2151,-530.4 2151,4 -4,4"/>
<!-- release_system -->
<g id="node1" class="node">
<title>release_system</title>
<polygon fill="#efefef" stroke="none" points="1014.18,-386 1014.18,-421.6 1206.39,-421.6 1206.39,-386 1014.18,-386"/>
<polygon fill="none" stroke="black" points="1014.18,-386 1014.18,-421.6 1206.39,-421.6 1206.39,-386 1014.18,-386"/>
<text text-anchor="start" x="1021.18" y="-399.4" font-family="Arial Bold" font-size="18.00">release_system</text>
<text text-anchor="start" x="1130.14" y="-399.4" font-family="Arial" font-size="14.00">    </text>
<text text-anchor="start" x="1161.25" y="-399.4" font-family="Arial" font-size="14.00" fill="#666666">[table]</text>
<polygon fill="none" stroke="black" points="1014.18,-355.2 1014.18,-386 1206.39,-386 1206.39,-355.2 1014.18,-355.2"/>
<text text-anchor="start" x="1021.18" y="-367.4" font-family="Arial" font-size="14.00">release_id </text>
<text text-anchor="start" x="1089.67" y="-367.4" font-family="Arial" font-size="14.00" fill="#666666">[INTEGER]</text>
<polygon fill="none" stroke="black" points="1014.18,-324.4 1014.18,-355.2 1206.39,-355.2 1206.39,-324.4 1014.18,-324.4"/>
<text text-anchor="start" x="1021.18" y="-336.6" font-family="Arial" font-size="14.00">system_id </text>
<text text-anchor="start" x="1088.09" y="-336.6" font-family="Arial" font-size="14.00" fill="#666666">[INTEGER]</text>
<polygon fill="none" stroke="black" stroke-width="3" points="1012.68,-322.9 1012.68,-423.1 1207.89,-423.1 1207.89,-322.9 1012.68,-322.9"/>
</g>
<!-- release -->
<g id="node2" class="node">
<title>release</title>
<polygon fill="#efefef" stroke="none" points="719.68,-104.8 719.68,-140.4 852.89,-140.4 852.89,-104.8 719.68,-104.8"/>
<polygon fill="none" stroke="black" points="719.68,-104.8 719.68,-140.4 852.89,-140.4 852.89,-104.8 719.68,-104.8"/>
<text text-anchor="start" x="726.68" y="-118.2" font-family="Arial Bold" font-size="18.00">release</text>
<text text-anchor="start" x="776.64" y="-118.2" font-family="Arial" font-size="14.00">    </text>
<text text-anchor="start" x="807.75" y="-118.2" font-family="Arial" font-size="14.00" fill="#666666">[table]</text>
<polygon fill="none" stroke="black" points="719.68,-74 719.68,-104.8 852.89,-104.8 852.89,-74 719.68,-74"/>
<text text-anchor="start" x="726.68" y="-86.2" font-family="Arial" font-size="14.00">id </text>
<text text-anchor="start" x="741.46" y="-86.2" font-family="Arial" font-size="14.00" fill="#666666">[INTEGER]</text>
<polygon fill="none" stroke="black" points="719.68,-43.2 719.68,-74 852.89,-74 852.89,-43.2 719.68,-43.2"/>
<text text-anchor="start" x="726.68" y="-55.4" font-family="Arial" font-size="14.00">name </text>
<text text-anchor="start" x="765.59" y="-55.4" font-family="Arial" font-size="14.00" fill="#666666">[TEXT]</text>
</g>
<!-- release_system&#45;&gt;release -->
<g id="edge1" class="edge">
<title>release_system:release_id&#45;&gt;release:id</title>
<path fill="none" stroke="black" d="M1002.9,-369.88C947.19,-361.3 992.33,-278.46 959.28,-219.6 922.83,-154.69 928.34,-89.4 853.89,-89.4"/>
<polygon fill="black" stroke="black" points="1002.87,-369.87 1012.53,-375.07 1008.19,-370.25 1012.51,-370.55 1012.51,-370.55 1012.51,-370.55 1008.19,-370.25 1013.16,-366.09 1002.87,-369.87"/>
<text text-anchor="start" x="1020.18" y="-380.6" font-family="Arial" font-size="10.00">FOREIGN KEY (release_id) REFERENCES release (id) ON UPDATE NO ACTION ON DELETE CASCADE MATCH NONE</text>
</g>
<!-- system -->
<g id="node5" class="node">
<title>system</title>
<polygon fill="#efefef" stroke="none" points="1328.66,-104.8 1328.66,-140.4 1461.91,-140.4 1461.91,-104.8 1328.66,-104.8"/>
<polygon fill="none" stroke="black" points="1328.66,-104.8 1328.66,-140.4 1461.91,-140.4 1461.91,-104.8 1328.66,-104.8"/>
<text text-anchor="start" x="1335.66" y="-118.2" font-family="Arial Bold" font-size="18.00">system</text>
<text text-anchor="start" x="1385.66" y="-118.2" font-family="Arial" font-size="14.00">    </text>
<text text-anchor="start" x="1416.77" y="-118.2" font-family="Arial" font-size="14.00" fill="#666666">[table]</text>
<polygon fill="none" stroke="black" points="1328.66,-74 1328.66,-104.8 1461.91,-104.8 1461.91,-74 1328.66,-74"/>
<text text-anchor="start" x="1335.66" y="-86.2" font-family="Arial" font-size="14.00">id </text>
<text text-anchor="start" x="1350.44" y="-86.2" font-family="Arial" font-size="14.00" fill="#666666">[INTEGER]</text>
<polygon fill="none" stroke="black" points="1328.66,-43.2 1328.66,-74 1461.91,-74 1461.91,-43.2 1328.66,-43.2"/>
<text text-anchor="start" x="1335.66" y="-55.4" font-family="Arial" font-size="14.00">name </text>
<text text-anchor="start" x="1374.57" y="-55.4" font-family="Arial" font-size="14.00" fill="#666666">[TEXT]</text>
</g>
<!-- release_system&#45;&gt;system -->
<g id="edge4" class="edge">
<title>release_system:system_id&#45;&gt;system:id</title>
<path fill="none" stroke="black" d="M1217.69,-338.98C1262.58,-331.19 1238.54,-269.15 1262.28,-219.6 1290.27,-161.21 1262.91,-89.4 1327.66,-89.4"/>
<polygon fill="black" stroke="black" points="1217.69,-338.98 1207.37,-335.29 1212.38,-339.4 1208.06,-339.75 1208.06,-339.75 1208.06,-339.75 1212.38,-339.4 1208.08,-344.26 1217.69,-338.98"/>
<text text-anchor="start" x="654.77" y="-349.8" font-family="Arial" font-size="10.00">FOREIGN KEY (system_id) REFERENCES system (id) ON UPDATE NO ACTION ON DELETE CASCADE MATCH NONE</text>
</g>
<!-- release_file_set -->
<g id="node3" class="node">
<title>release_file_set</title>
<polygon fill="#efefef" stroke="none" points="365.69,-386 365.69,-421.6 560.88,-421.6 560.88,-386 365.69,-386"/>
<polygon fill="none" stroke="black" points="365.69,-386 365.69,-421.6 560.88,-421.6 560.88,-386 365.69,-386"/>
<text text-anchor="start" x="372.69" y="-399.4" font-family="Arial Bold" font-size="18.00">release_file_set</text>
<text text-anchor="start" x="484.63" y="-399.4" font-family="Arial" font-size="14.00">    </text>
<text text-anchor="start" x="515.74" y="-399.4" font-family="Arial" font-size="14.00" fill="#666666">[table]</text>
<polygon fill="none" stroke="black" points="365.69,-355.2 365.69,-386 560.88,-386 560.88,-355.2 365.69,-355.2"/>
<text text-anchor="start" x="372.69" y="-367.4" font-family="Arial" font-size="14.00">release_id </text>
<text text-anchor="start" x="441.18" y="-367.4" font-family="Arial" font-size="14.00" fill="#666666">[INTEGER]</text>
<polygon fill="none" stroke="black" points="365.69,-324.4 365.69,-355.2 560.88,-355.2 560.88,-324.4 365.69,-324.4"/>
<text text-anchor="start" x="372.69" y="-336.6" font-family="Arial" font-size="14.00">file_set_id </text>
<text text-anchor="start" x="439.62" y="-336.6" font-family="Arial" font-size="14.00" fill="#666666">[INTEGER]</text>
</g>
<!-- release_file_set&#45;&gt;release -->
<g id="edge2" class="edge">
<title>release_file_set:release_id&#45;&gt;release:id</title>
<path fill="none" stroke="black" d="M572.09,-369.88C627.35,-361.3 580.84,-278.39 613.28,-219.6 649.26,-154.42 644.23,-89.4 718.68,-89.4"/>
<polygon fill="black" stroke="black" points="572.19,-369.87 561.9,-366.09 566.87,-370.25 562.55,-370.55 562.55,-370.55 562.55,-370.55 566.87,-370.25 562.53,-375.06 572.19,-369.87"/>
<text text-anchor="start" x="7" y="-380.6" font-family="Arial" font-size="10.00">FOREIGN KEY (release_id) REFERENCES release (id) ON UPDATE NO ACTION ON DELETE CASCADE MATCH NONE</text>
</g>
<!-- release_software_title -->
<g id="node4" class="node">
<title>release_software_title</title>
<polygon fill="#efefef" stroke="none" points="665.7,-386 665.7,-421.6 906.87,-421.6 906.87,-386 665.7,-386"/>
<polygon fill="none" stroke="black" points="665.7,-386 665.7,-421.6 906.87,-421.6 906.87,-386 665.7,-386"/>
<text text-anchor="start" x="672.7" y="-399.4" font-family="Arial Bold" font-size="18.00">release_software_title</text>
<text text-anchor="start" x="830.62" y="-399.4" font-family="Arial" font-size="14.00">    </text>
<text text-anchor="start" x="861.74" y="-399.4" font-family="Arial" font-size="14.00" fill="#666666">[table]</text>
<polygon fill="none" stroke="black" points="665.7,-355.2 665.7,-386 906.87,-386 906.87,-355.2 665.7,-355.2"/>
<text text-anchor="start" x="672.7" y="-367.4" font-family="Arial" font-size="14.00">release_id </text>
<text text-anchor="start" x="741.19" y="-367.4" font-family="Arial" font-size="14.00" fill="#666666">[INTEGER]</text>
<polygon fill="none" stroke="black" points="665.7,-324.4 665.7,-355.2 906.87,-355.2 906.87,-324.4 665.7,-324.4"/>
<text text-anchor="start" x="672.7" y="-336.6" font-family="Arial" font-size="14.00">software_title_id </text>
<text text-anchor="start" x="777.75" y="-336.6" font-family="Arial" font-size="14.00" fill="#666666">[INTEGER]</text>
</g>
<!-- release_software_title&#45;&gt;release -->
<g id="edge3" class="edge">
<title>release_software_title:release_id&#45;&gt;release:id</title>
<path fill="none" stroke="black" d="M917.87,-367.82C965.14,-338.61 913.79,-89.4 853.89,-89.4"/>
<polygon fill="black" stroke="black" points="917.83,-367.83 906.99,-366.18 912.69,-369.26 908.52,-370.42 908.52,-370.42 908.52,-370.42 912.69,-369.26 909.4,-374.85 917.83,-367.83"/>
<text text-anchor="start" x="352.99" y="-380.6" font-family="Arial" font-size="10.00">FOREIGN KEY (release_id) REFERENCES release (id) ON UPDATE NO ACTION ON DELETE CASCADE MATCH NONE</text>
</g>
<!-- emulator -->
<g id="node6" class="node">
<title>emulator</title>
<polygon fill="#efefef" stroke="none" points="1313.99,-447.6 1313.99,-483.2 1476.58,-483.2 1476.58,-447.6 1313.99,-447.6"/>
<polygon fill="none" stroke="black" points="1313.99,-447.6 1313.99,-483.2 1476.58,-483.2 1476.58,-447.6 1313.99,-447.6"/>
<text text-anchor="start" x="1328.67" y="-461" font-family="Arial Bold" font-size="18.00">emulator</text>
<text text-anchor="start" x="1392.65" y="-461" font-family="Arial" font-size="14.00">    </text>
<text text-anchor="start" x="1423.76" y="-461" font-family="Arial" font-size="14.00" fill="#666666">[table]</text>
<polygon fill="none" stroke="black" points="1313.99,-416.8 1313.99,-447.6 1476.58,-447.6 1476.58,-416.8 1313.99,-416.8"/>
<text text-anchor="start" x="1320.99" y="-429" font-family="Arial" font-size="14.00">id </text>
<text text-anchor="start" x="1335.77" y="-429" font-family="Arial" font-size="14.00" fill="#666666">[INTEGER]</text>
<polygon fill="none" stroke="black" points="1313.99,-386 1313.99,-416.8 1476.58,-416.8 1476.58,-386 1313.99,-386"/>
<text text-anchor="start" x="1320.99" y="-398.2" font-family="Arial" font-size="14.00">name </text>
<text text-anchor="start" x="1359.9" y="-398.2" font-family="Arial" font-size="14.00" fill="#666666">[TEXT]</text>
<polygon fill="none" stroke="black" points="1313.99,-355.2 1313.99,-386 1476.58,-386 1476.58,-355.2 1313.99,-355.2"/>
<text text-anchor="start" x="1320.99" y="-367.4" font-family="Arial" font-size="14.00">executable </text>
<text text-anchor="start" x="1392.59" y="-367.4" font-family="Arial" font-size="14.00" fill="#666666">[TEXT]</text>
<polygon fill="none" stroke="black" points="1313.99,-324.4 1313.99,-355.2 1476.58,-355.2 1476.58,-324.4 1313.99,-324.4"/>
<text text-anchor="start" x="1320.99" y="-336.6" font-family="Arial" font-size="14.00">extract_files </text>
<text text-anchor="start" x="1399.57" y="-336.6" font-family="Arial" font-size="14.00" fill="#666666">[INTEGER]</text>
<polygon fill="none" stroke="black" points="1313.99,-293.6 1313.99,-324.4 1476.58,-324.4 1476.58,-293.6 1313.99,-293.6"/>
<text text-anchor="start" x="1320.99" y="-305.8" font-family="Arial" font-size="14.00">arguments </text>
<text text-anchor="start" x="1391.02" y="-305.8" font-family="Arial" font-size="14.00" fill="#666666">[TEXT]</text>
<polygon fill="none" stroke="black" points="1313.99,-262.8 1313.99,-293.6 1476.58,-293.6 1476.58,-262.8 1313.99,-262.8"/>
<text text-anchor="start" x="1320.99" y="-275" font-family="Arial" font-size="14.00">system_id </text>
<text text-anchor="start" x="1387.9" y="-275" font-family="Arial" font-size="14.00" fill="#666666">[INTEGER]</text>
</g>
<!-- emulator&#45;&gt;system -->
<g id="edge5" class="edge">
<title>emulator:system_id&#45;&gt;system:id</title>
<path fill="none" stroke="black" d="M1396.26,-251.63C1403.36,-217.46 1447.22,-222.86 1461.91,-183.6 1476.59,-144.39 1504.78,-89.4 1462.91,-89.4"/>
<polygon fill="black" stroke="black" points="1396.27,-251.51 1390.84,-261.04 1395.76,-256.82 1395.35,-261.13 1395.35,-261.13 1395.35,-261.13 1395.76,-256.82 1399.8,-261.9 1396.27,-251.51"/>
<text text-anchor="start" x="1402.28" y="-245.8" font-family="Arial" font-size="10.00">FOREIGN KEY (system_id) REFERENCES system (id) ON UPDATE NO ACTION ON DELETE CASCADE MATCH NONE</text>
</g>
<!-- file_info_system -->
<g id="node7" class="node">
<title>file_info_system</title>
<polygon fill="#efefef" stroke="none" points="1581.17,-386 1581.17,-421.6 1785.4,-421.6 1785.4,-386 1581.17,-386"/>
<polygon fill="none" stroke="black" points="1581.17,-386 1581.17,-421.6 1785.4,-421.6 1785.4,-386 1581.17,-386"/>
<text text-anchor="start" x="1588.17" y="-399.4" font-family="Arial Bold" font-size="18.00">file_info_system</text>
<text text-anchor="start" x="1709.15" y="-399.4" font-family="Arial" font-size="14.00">    </text>
<text text-anchor="start" x="1740.27" y="-399.4" font-family="Arial" font-size="14.00" fill="#666666">[table]</text>
<polygon fill="none" stroke="black" points="1581.17,-355.2 1581.17,-386 1785.4,-386 1785.4,-355.2 1581.17,-355.2"/>
<text text-anchor="start" x="1588.17" y="-367.4" font-family="Arial" font-size="14.00">file_info_id </text>
<text text-anchor="start" x="1658.99" y="-367.4" font-family="Arial" font-size="14.00" fill="#666666">[INTEGER]</text>
<polygon fill="none" stroke="black" points="1581.17,-324.4 1581.17,-355.2 1785.4,-355.2 1785.4,-324.4 1581.17,-324.4"/>
<text text-anchor="start" x="1588.17" y="-336.6" font-family="Arial" font-size="14.00">system_id </text>
<text text-anchor="start" x="1655.08" y="-336.6" font-family="Arial" font-size="14.00" fill="#666666">[INTEGER]</text>
</g>
<!-- file_info_system&#45;&gt;system -->
<g id="edge6" class="edge">
<title>file_info_system:system_id&#45;&gt;system:id</title>
<path fill="none" stroke="black" d="M1569.99,-338.98C1525.73,-331.16 1551.29,-268.93 1528.28,-219.6 1500.92,-160.92 1527.66,-89.4 1462.91,-89.4"/>
<polygon fill="black" stroke="black" points="1569.87,-338.97 1579.47,-344.26 1575.18,-339.4 1579.5,-339.75 1579.5,-339.75 1579.5,-339.75 1575.18,-339.4 1580.19,-335.29 1569.87,-338.97"/>
<text text-anchor="start" x="1587.17" y="-349.8" font-family="Arial" font-size="10.00">FOREIGN KEY (system_id) REFERENCES system (id) ON UPDATE NO ACTION ON DELETE NO ACTION MATCH NONE</text>
</g>
</g>
</svg>
