<?xml version="1.0" encoding="UTF-8" standalone="no"?>
<!DOCTYPE svg PUBLIC "-//W3C//DTD SVG 1.1//EN"
 "http://www.w3.org/Graphics/SVG/1.1/DTD/svg11.dtd">
<!-- Generated by graphviz version 12.1.2 (20240928.0832)
 -->
<!-- Title: release_system Pages: 1 -->
<svg width="2434pt" height="534pt"
 viewBox="0.00 0.00 2434.00 534.40" xmlns="http://www.w3.org/2000/svg" xmlns:xlink="http://www.w3.org/1999/xlink">
<g id="graph0" class="graph" transform="scale(1 1) rotate(0) translate(4 530.4)">
<title>release_system</title>
<polygon fill="white" stroke="none" points="-4,4 -4,-530.4 2430,-530.4 2430,4 -4,4"/>
<!-- release_system -->
<g id="node1" class="node">
<title>release_system</title>
<polygon fill="#efefef" stroke="none" points="1293.18,-386 1293.18,-421.6 1485.39,-421.6 1485.39,-386 1293.18,-386"/>
<polygon fill="none" stroke="black" points="1293.18,-386 1293.18,-421.6 1485.39,-421.6 1485.39,-386 1293.18,-386"/>
<text text-anchor="start" x="1300.18" y="-399.4" font-family="Arial Bold" font-size="18.00">release_system</text>
<text text-anchor="start" x="1409.14" y="-399.4" font-family="Arial" font-size="14.00">    </text>
<text text-anchor="start" x="1440.25" y="-399.4" font-family="Arial" font-size="14.00" fill="#666666">[table]</text>
<polygon fill="none" stroke="black" points="1293.18,-355.2 1293.18,-386 1485.39,-386 1485.39,-355.2 1293.18,-355.2"/>
<text text-anchor="start" x="1300.18" y="-367.4" font-family="Arial" font-size="14.00">release_id </text>
<text text-anchor="start" x="1368.67" y="-367.4" font-family="Arial" font-size="14.00" fill="#666666">[INTEGER]</text>
<polygon fill="none" stroke="black" points="1293.18,-324.4 1293.18,-355.2 1485.39,-355.2 1485.39,-324.4 1293.18,-324.4"/>
<text text-anchor="start" x="1300.18" y="-336.6" font-family="Arial" font-size="14.00">system_id </text>
<text text-anchor="start" x="1367.09" y="-336.6" font-family="Arial" font-size="14.00" fill="#666666">[INTEGER]</text>
<polygon fill="none" stroke="black" stroke-width="3" points="1291.68,-322.9 1291.68,-423.1 1486.89,-423.1 1486.89,-322.9 1291.68,-322.9"/>
</g>
<!-- release -->
<g id="node2" class="node">
<title>release</title>
<polygon fill="#efefef" stroke="none" points="875.68,-104.8 875.68,-140.4 1008.89,-140.4 1008.89,-104.8 875.68,-104.8"/>
<polygon fill="none" stroke="black" points="875.68,-104.8 875.68,-140.4 1008.89,-140.4 1008.89,-104.8 875.68,-104.8"/>
<text text-anchor="start" x="882.68" y="-118.2" font-family="Arial Bold" font-size="18.00">release</text>
<text text-anchor="start" x="932.64" y="-118.2" font-family="Arial" font-size="14.00">    </text>
<text text-anchor="start" x="963.75" y="-118.2" font-family="Arial" font-size="14.00" fill="#666666">[table]</text>
<polygon fill="none" stroke="black" points="875.68,-74 875.68,-104.8 1008.89,-104.8 1008.89,-74 875.68,-74"/>
<text text-anchor="start" x="882.68" y="-86.2" font-family="Arial" font-size="14.00">id </text>
<text text-anchor="start" x="897.46" y="-86.2" font-family="Arial" font-size="14.00" fill="#666666">[INTEGER]</text>
<polygon fill="none" stroke="black" points="875.68,-43.2 875.68,-74 1008.89,-74 1008.89,-43.2 875.68,-43.2"/>
<text text-anchor="start" x="882.68" y="-55.4" font-family="Arial" font-size="14.00">name </text>
<text text-anchor="start" x="921.59" y="-55.4" font-family="Arial" font-size="14.00" fill="#666666">[TEXT]</text>
</g>
<!-- release_system&#45;&gt;release -->
<g id="edge1" class="edge">
<title>release_system:release_id&#45;&gt;release:id</title>
<path fill="none" stroke="black" d="M1281.96,-369.82C1227.06,-360.55 1280.85,-271.35 1237.28,-219.6 1162.28,-130.51 1126.35,-89.4 1009.89,-89.4"/>
<polygon fill="black" stroke="black" points="1281.87,-369.81 1291.5,-375.06 1287.19,-370.22 1291.51,-370.55 1291.51,-370.55 1291.51,-370.55 1287.19,-370.22 1292.19,-366.09 1281.87,-369.81"/>
<text text-anchor="start" x="1299.18" y="-380.6" font-family="Arial" font-size="10.00">FOREIGN KEY (release_id) REFERENCES release (id) ON UPDATE NO ACTION ON DELETE CASCADE MATCH NONE</text>
</g>
<!-- system -->
<g id="node6" class="node">
<title>system</title>
<polygon fill="#efefef" stroke="none" points="1607.66,-104.8 1607.66,-140.4 1740.91,-140.4 1740.91,-104.8 1607.66,-104.8"/>
<polygon fill="none" stroke="black" points="1607.66,-104.8 1607.66,-140.4 1740.91,-140.4 1740.91,-104.8 1607.66,-104.8"/>
<text text-anchor="start" x="1614.66" y="-118.2" font-family="Arial Bold" font-size="18.00">system</text>
<text text-anchor="start" x="1664.66" y="-118.2" font-family="Arial" font-size="14.00">    </text>
<text text-anchor="start" x="1695.77" y="-118.2" font-family="Arial" font-size="14.00" fill="#666666">[table]</text>
<polygon fill="none" stroke="black" points="1607.66,-74 1607.66,-104.8 1740.91,-104.8 1740.91,-74 1607.66,-74"/>
<text text-anchor="start" x="1614.66" y="-86.2" font-family="Arial" font-size="14.00">id </text>
<text text-anchor="start" x="1629.44" y="-86.2" font-family="Arial" font-size="14.00" fill="#666666">[INTEGER]</text>
<polygon fill="none" stroke="black" points="1607.66,-43.2 1607.66,-74 1740.91,-74 1740.91,-43.2 1607.66,-43.2"/>
<text text-anchor="start" x="1614.66" y="-55.4" font-family="Arial" font-size="14.00">name </text>
<text text-anchor="start" x="1653.57" y="-55.4" font-family="Arial" font-size="14.00" fill="#666666">[TEXT]</text>
</g>
<!-- release_system&#45;&gt;system -->
<g id="edge5" class="edge">
<title>release_system:system_id&#45;&gt;system:id</title>
<path fill="none" stroke="black" d="M1496.69,-338.98C1541.58,-331.19 1517.54,-269.15 1541.28,-219.6 1569.27,-161.21 1541.91,-89.4 1606.66,-89.4"/>
<polygon fill="black" stroke="black" points="1496.69,-338.98 1486.37,-335.29 1491.38,-339.4 1487.06,-339.75 1487.06,-339.75 1487.06,-339.75 1491.38,-339.4 1487.08,-344.26 1496.69,-338.98"/>
<text text-anchor="start" x="1493.39" y="-349.8" font-family="Arial" font-size="10.00">FOREIGN KEY (system_id) REFERENCES system (id) ON UPDATE NO ACTION ON DELETE CASCADE MATCH NONE</text>
</g>
<!-- release_file_set -->
<g id="node3" class="node">
<title>release_file_set</title>
<polygon fill="#efefef" stroke="none" points="365.69,-386 365.69,-421.6 560.88,-421.6 560.88,-386 365.69,-386"/>
<polygon fill="none" stroke="black" points="365.69,-386 365.69,-421.6 560.88,-421.6 560.88,-386 365.69,-386"/>
<text text-anchor="start" x="372.69" y="-399.4" font-family="Arial Bold" font-size="18.00">release_file_set</text>
<text text-anchor="start" x="484.63" y="-399.4" font-family="Arial" font-size="14.00">    </text>
<text text-anchor="start" x="515.74" y="-399.4" font-family="Arial" font-size="14.00" fill="#666666">[table]</text>
<polygon fill="none" stroke="black" points="365.69,-355.2 365.69,-386 560.88,-386 560.88,-355.2 365.69,-355.2"/>
<text text-anchor="start" x="372.69" y="-367.4" font-family="Arial" font-size="14.00">release_id </text>
<text text-anchor="start" x="441.18" y="-367.4" font-family="Arial" font-size="14.00" fill="#666666">[INTEGER]</text>
<polygon fill="none" stroke="black" points="365.69,-324.4 365.69,-355.2 560.88,-355.2 560.88,-324.4 365.69,-324.4"/>
<text text-anchor="start" x="372.69" y="-336.6" font-family="Arial" font-size="14.00">file_set_id </text>
<text text-anchor="start" x="439.62" y="-336.6" font-family="Arial" font-size="14.00" fill="#666666">[INTEGER]</text>
</g>
<!-- release_file_set&#45;&gt;release -->
<g id="edge2" class="edge">
<title>release_file_set:release_id&#45;&gt;release:id</title>
<path fill="none" stroke="black" d="M571.99,-369.81C626.11,-360.43 569.09,-270.16 613.28,-219.6 698.71,-121.89 744.89,-89.4 874.68,-89.4"/>
<polygon fill="black" stroke="black" points="572.18,-369.79 561.86,-366.09 566.87,-370.21 562.55,-370.55 562.55,-370.55 562.55,-370.55 566.87,-370.21 562.57,-375.06 572.18,-369.79"/>
<text text-anchor="start" x="7" y="-380.6" font-family="Arial" font-size="10.00">FOREIGN KEY (release_id) REFERENCES release (id) ON UPDATE NO ACTION ON DELETE CASCADE MATCH NONE</text>
</g>
<!-- release_software_title -->
<g id="node4" class="node">
<title>release_software_title</title>
<polygon fill="#efefef" stroke="none" points="665.7,-386 665.7,-421.6 906.87,-421.6 906.87,-386 665.7,-386"/>
<polygon fill="none" stroke="black" points="665.7,-386 665.7,-421.6 906.87,-421.6 906.87,-386 665.7,-386"/>
<text text-anchor="start" x="672.7" y="-399.4" font-family="Arial Bold" font-size="18.00">release_software_title</text>
<text text-anchor="start" x="830.62" y="-399.4" font-family="Arial" font-size="14.00">    </text>
<text text-anchor="start" x="861.74" y="-399.4" font-family="Arial" font-size="14.00" fill="#666666">[table]</text>
<polygon fill="none" stroke="black" points="665.7,-355.2 665.7,-386 906.87,-386 906.87,-355.2 665.7,-355.2"/>
<text text-anchor="start" x="672.7" y="-367.4" font-family="Arial" font-size="14.00">release_id </text>
<text text-anchor="start" x="741.19" y="-367.4" font-family="Arial" font-size="14.00" fill="#666666">[INTEGER]</text>
<polygon fill="none" stroke="black" points="665.7,-324.4 665.7,-355.2 906.87,-355.2 906.87,-324.4 665.7,-324.4"/>
<text text-anchor="start" x="672.7" y="-336.6" font-family="Arial" font-size="14.00">software_title_id </text>
<text text-anchor="start" x="777.75" y="-336.6" font-family="Arial" font-size="14.00" fill="#666666">[INTEGER]</text>
</g>
<!-- release_software_title&#45;&gt;release -->
<g id="edge3" class="edge">
<title>release_software_title:release_id&#45;&gt;release:id</title>
<path fill="none" stroke="black" d="M918.2,-369.84C1016.85,-353.83 752.64,-89.4 874.68,-89.4"/>
<polygon fill="black" stroke="black" points="918.18,-369.84 907.88,-366.09 912.86,-370.23 908.54,-370.55 908.54,-370.55 908.54,-370.55 912.86,-370.23 908.54,-375.06 918.18,-369.84"/>
<text text-anchor="start" x="633.93" y="-354.6" font-family="Arial" font-size="10.00">FOREIGN KEY (release_id) REFERENCES release (id) ON UPDATE NO ACTION ON DELETE CASCADE MATCH NONE</text>
</g>
<!-- release_item -->
<g id="node5" class="node">
<title>release_item</title>
<polygon fill="#efefef" stroke="none" points="1011.18,-416.8 1011.18,-452.4 1185.39,-452.4 1185.39,-416.8 1011.18,-416.8"/>
<polygon fill="none" stroke="black" points="1011.18,-416.8 1011.18,-452.4 1185.39,-452.4 1185.39,-416.8 1011.18,-416.8"/>
<text text-anchor="start" x="1018.18" y="-430.2" font-family="Arial Bold" font-size="18.00">release_item</text>
<text text-anchor="start" x="1109.13" y="-430.2" font-family="Arial" font-size="14.00">    </text>
<text text-anchor="start" x="1140.25" y="-430.2" font-family="Arial" font-size="14.00" fill="#666666">[table]</text>
<polygon fill="none" stroke="black" points="1011.18,-386 1011.18,-416.8 1185.39,-416.8 1185.39,-386 1011.18,-386"/>
<text text-anchor="start" x="1018.18" y="-398.2" font-family="Arial" font-size="14.00">id </text>
<text text-anchor="start" x="1032.97" y="-398.2" font-family="Arial" font-size="14.00" fill="#666666">[INTEGER]</text>
<polygon fill="none" stroke="black" points="1011.18,-355.2 1011.18,-386 1185.39,-386 1185.39,-355.2 1011.18,-355.2"/>
<text text-anchor="start" x="1018.18" y="-367.4" font-family="Arial" font-size="14.00">release_id </text>
<text text-anchor="start" x="1086.67" y="-367.4" font-family="Arial" font-size="14.00" fill="#666666">[INTEGER]</text>
<polygon fill="none" stroke="black" points="1011.18,-324.4 1011.18,-355.2 1185.39,-355.2 1185.39,-324.4 1011.18,-324.4"/>
<text text-anchor="start" x="1018.18" y="-336.6" font-family="Arial" font-size="14.00">item_type </text>
<text text-anchor="start" x="1082.77" y="-336.6" font-family="Arial" font-size="14.00" fill="#666666">[INTEGER]</text>
<polygon fill="none" stroke="black" points="1011.18,-293.6 1011.18,-324.4 1185.39,-324.4 1185.39,-293.6 1011.18,-293.6"/>
<text text-anchor="start" x="1018.18" y="-305.8" font-family="Arial" font-size="14.00">notes </text>
<text text-anchor="start" x="1056.32" y="-305.8" font-family="Arial" font-size="14.00" fill="#666666">[TEXT]</text>
</g>
<!-- release_item&#45;&gt;release -->
<g id="edge4" class="edge">
<title>release_item:release_id&#45;&gt;release:id</title>
<path fill="none" stroke="black" d="M999.84,-369.84C899.98,-353.83 1131.08,-89.4 1009.89,-89.4"/>
<polygon fill="black" stroke="black" points="999.88,-369.84 1009.52,-375.06 1005.2,-370.23 1009.52,-370.55 1009.52,-370.55 1009.52,-370.55 1005.2,-370.23 1010.18,-366.09 999.88,-369.84"/>
<text text-anchor="start" x="455.3" y="-380.6" font-family="Arial" font-size="10.00">FOREIGN KEY (release_id) REFERENCES release (id) ON UPDATE NO ACTION ON DELETE CASCADE MATCH NONE</text>
</g>
<!-- emulator -->
<g id="node7" class="node">
<title>emulator</title>
<polygon fill="#efefef" stroke="none" points="1592.99,-447.6 1592.99,-483.2 1755.58,-483.2 1755.58,-447.6 1592.99,-447.6"/>
<polygon fill="none" stroke="black" points="1592.99,-447.6 1592.99,-483.2 1755.58,-483.2 1755.58,-447.6 1592.99,-447.6"/>
<text text-anchor="start" x="1607.67" y="-461" font-family="Arial Bold" font-size="18.00">emulator</text>
<text text-anchor="start" x="1671.65" y="-461" font-family="Arial" font-size="14.00">    </text>
<text text-anchor="start" x="1702.76" y="-461" font-family="Arial" font-size="14.00" fill="#666666">[table]</text>
<polygon fill="none" stroke="black" points="1592.99,-416.8 1592.99,-447.6 1755.58,-447.6 1755.58,-416.8 1592.99,-416.8"/>
<text text-anchor="start" x="1599.99" y="-429" font-family="Arial" font-size="14.00">id </text>
<text text-anchor="start" x="1614.77" y="-429" font-family="Arial" font-size="14.00" fill="#666666">[INTEGER]</text>
<polygon fill="none" stroke="black" points="1592.99,-386 1592.99,-416.8 1755.58,-416.8 1755.58,-386 1592.99,-386"/>
<text text-anchor="start" x="1599.99" y="-398.2" font-family="Arial" font-size="14.00">name </text>
<text text-anchor="start" x="1638.9" y="-398.2" font-family="Arial" font-size="14.00" fill="#666666">[TEXT]</text>
<polygon fill="none" stroke="black" points="1592.99,-355.2 1592.99,-386 1755.58,-386 1755.58,-355.2 1592.99,-355.2"/>
<text text-anchor="start" x="1599.99" y="-367.4" font-family="Arial" font-size="14.00">executable </text>
<text text-anchor="start" x="1671.59" y="-367.4" font-family="Arial" font-size="14.00" fill="#666666">[TEXT]</text>
<polygon fill="none" stroke="black" points="1592.99,-324.4 1592.99,-355.2 1755.58,-355.2 1755.58,-324.4 1592.99,-324.4"/>
<text text-anchor="start" x="1599.99" y="-336.6" font-family="Arial" font-size="14.00">extract_files </text>
<text text-anchor="start" x="1678.57" y="-336.6" font-family="Arial" font-size="14.00" fill="#666666">[INTEGER]</text>
<polygon fill="none" stroke="black" points="1592.99,-293.6 1592.99,-324.4 1755.58,-324.4 1755.58,-293.6 1592.99,-293.6"/>
<text text-anchor="start" x="1599.99" y="-305.8" font-family="Arial" font-size="14.00">arguments </text>
<text text-anchor="start" x="1670.02" y="-305.8" font-family="Arial" font-size="14.00" fill="#666666">[TEXT]</text>
<polygon fill="none" stroke="black" points="1592.99,-262.8 1592.99,-293.6 1755.58,-293.6 1755.58,-262.8 1592.99,-262.8"/>
<text text-anchor="start" x="1599.99" y="-275" font-family="Arial" font-size="14.00">system_id </text>
<text text-anchor="start" x="1666.9" y="-275" font-family="Arial" font-size="14.00" fill="#666666">[INTEGER]</text>
</g>
<!-- emulator&#45;&gt;system -->
<g id="edge6" class="edge">
<title>emulator:system_id&#45;&gt;system:id</title>
<path fill="none" stroke="black" d="M1675.26,-251.63C1682.36,-217.46 1726.22,-222.86 1740.91,-183.6 1755.59,-144.39 1783.78,-89.4 1741.91,-89.4"/>
<polygon fill="black" stroke="black" points="1675.27,-251.51 1669.84,-261.04 1674.76,-256.82 1674.35,-261.13 1674.35,-261.13 1674.35,-261.13 1674.76,-256.82 1678.8,-261.9 1675.27,-251.51"/>
<text text-anchor="start" x="1681.28" y="-245.8" font-family="Arial" font-size="10.00">FOREIGN KEY (system_id) REFERENCES system (id) ON UPDATE NO ACTION ON DELETE CASCADE MATCH NONE</text>
</g>
<!-- file_info_system -->
<g id="node8" class="node">
<title>file_info_system</title>
<polygon fill="#efefef" stroke="none" points="1860.17,-386 1860.17,-421.6 2064.4,-421.6 2064.4,-386 1860.17,-386"/>
<polygon fill="none" stroke="black" points="1860.17,-386 1860.17,-421.6 2064.4,-421.6 2064.4,-386 1860.17,-386"/>
<text text-anchor="start" x="1867.17" y="-399.4" font-family="Arial Bold" font-size="18.00">file_info_system</text>
<text text-anchor="start" x="1988.15" y="-399.4" font-family="Arial" font-size="14.00">    </text>
<text text-anchor="start" x="2019.27" y="-399.4" font-family="Arial" font-size="14.00" fill="#666666">[table]</text>
<polygon fill="none" stroke="black" points="1860.17,-355.2 1860.17,-386 2064.4,-386 2064.4,-355.2 1860.17,-355.2"/>
<text text-anchor="start" x="1867.17" y="-367.4" font-family="Arial" font-size="14.00">file_info_id </text>
<text text-anchor="start" x="1937.99" y="-367.4" font-family="Arial" font-size="14.00" fill="#666666">[INTEGER]</text>
<polygon fill="none" stroke="black" points="1860.17,-324.4 1860.17,-355.2 2064.4,-355.2 2064.4,-324.4 1860.17,-324.4"/>
<text text-anchor="start" x="1867.17" y="-336.6" font-family="Arial" font-size="14.00">system_id </text>
<text text-anchor="start" x="1934.08" y="-336.6" font-family="Arial" font-size="14.00" fill="#666666">[INTEGER]</text>
</g>
<!-- file_info_system&#45;&gt;system -->
<g id="edge7" class="edge">
<title>file_info_system:system_id&#45;&gt;system:id</title>
<path fill="none" stroke="black" d="M1848.99,-338.98C1804.73,-331.16 1830.29,-268.93 1807.28,-219.6 1779.92,-160.92 1806.66,-89.4 1741.91,-89.4"/>
<polygon fill="black" stroke="black" points="1848.87,-338.97 1858.47,-344.26 1854.18,-339.4 1858.5,-339.75 1858.5,-339.75 1858.5,-339.75 1854.18,-339.4 1859.19,-335.29 1848.87,-338.97"/>
<text text-anchor="start" x="1866.17" y="-323.8" font-family="Arial" font-size="10.00">FOREIGN KEY (system_id) REFERENCES system (id) ON UPDATE NO ACTION ON DELETE NO ACTION MATCH NONE</text>
</g>
</g>
</svg>
