<?xml version="1.0" encoding="UTF-8" standalone="no"?>
<!DOCTYPE svg PUBLIC "-//W3C//DTD SVG 1.1//EN"
 "http://www.w3.org/Graphics/SVG/1.1/DTD/svg11.dtd">
<!-- Generated by graphviz version 12.1.2 (20240928.0832)
 -->
<!-- Title: release_file_set Pages: 1 -->
<svg width="2474pt" height="565pt"
 viewBox="0.00 0.00 2473.81 565.20" xmlns="http://www.w3.org/2000/svg" xmlns:xlink="http://www.w3.org/1999/xlink">
<g id="graph0" class="graph" transform="scale(1 1) rotate(0) translate(4 561.2)">
<title>release_file_set</title>
<polygon fill="white" stroke="none" points="-4,4 -4,-561.2 2469.81,-561.2 2469.81,4 -4,4"/>
<!-- release_file_set -->
<g id="node1" class="node">
<title>release_file_set</title>
<polygon fill="#efefef" stroke="none" points="1292.18,-447.6 1292.18,-483.2 1487.37,-483.2 1487.37,-447.6 1292.18,-447.6"/>
<polygon fill="none" stroke="black" points="1292.18,-447.6 1292.18,-483.2 1487.37,-483.2 1487.37,-447.6 1292.18,-447.6"/>
<text text-anchor="start" x="1299.18" y="-461" font-family="Arial Bold" font-size="18.00">release_file_set</text>
<text text-anchor="start" x="1411.12" y="-461" font-family="Arial" font-size="14.00">    </text>
<text text-anchor="start" x="1442.23" y="-461" font-family="Arial" font-size="14.00" fill="#666666">[table]</text>
<polygon fill="none" stroke="black" points="1292.18,-416.8 1292.18,-447.6 1487.37,-447.6 1487.37,-416.8 1292.18,-416.8"/>
<text text-anchor="start" x="1299.18" y="-429" font-family="Arial" font-size="14.00">release_id </text>
<text text-anchor="start" x="1367.67" y="-429" font-family="Arial" font-size="14.00" fill="#666666">[INTEGER]</text>
<polygon fill="none" stroke="black" points="1292.18,-386 1292.18,-416.8 1487.37,-416.8 1487.37,-386 1292.18,-386"/>
<text text-anchor="start" x="1299.18" y="-398.2" font-family="Arial" font-size="14.00">file_set_id </text>
<text text-anchor="start" x="1366.11" y="-398.2" font-family="Arial" font-size="14.00" fill="#666666">[INTEGER]</text>
<polygon fill="none" stroke="black" stroke-width="3" points="1290.68,-384.5 1290.68,-484.7 1488.87,-484.7 1488.87,-384.5 1290.68,-384.5"/>
</g>
<!-- release -->
<g id="node2" class="node">
<title>release</title>
<polygon fill="#efefef" stroke="none" points="875.17,-151 875.17,-186.6 1008.38,-186.6 1008.38,-151 875.17,-151"/>
<polygon fill="none" stroke="black" points="875.17,-151 875.17,-186.6 1008.38,-186.6 1008.38,-151 875.17,-151"/>
<text text-anchor="start" x="882.17" y="-164.4" font-family="Arial Bold" font-size="18.00">release</text>
<text text-anchor="start" x="932.13" y="-164.4" font-family="Arial" font-size="14.00">    </text>
<text text-anchor="start" x="963.24" y="-164.4" font-family="Arial" font-size="14.00" fill="#666666">[table]</text>
<polygon fill="none" stroke="black" points="875.17,-120.2 875.17,-151 1008.38,-151 1008.38,-120.2 875.17,-120.2"/>
<text text-anchor="start" x="882.17" y="-132.4" font-family="Arial" font-size="14.00">id </text>
<text text-anchor="start" x="896.95" y="-132.4" font-family="Arial" font-size="14.00" fill="#666666">[INTEGER]</text>
<polygon fill="none" stroke="black" points="875.17,-89.4 875.17,-120.2 1008.38,-120.2 1008.38,-89.4 875.17,-89.4"/>
<text text-anchor="start" x="882.17" y="-101.6" font-family="Arial" font-size="14.00">name </text>
<text text-anchor="start" x="921.08" y="-101.6" font-family="Arial" font-size="14.00" fill="#666666">[TEXT]</text>
</g>
<!-- release_file_set&#45;&gt;release -->
<g id="edge1" class="edge">
<title>release_file_set:release_id&#45;&gt;release:id</title>
<path fill="none" stroke="black" d="M1281.03,-431.3C1237.45,-422.76 1270.76,-355.07 1236.77,-312 1157.54,-211.59 1137.29,-135.6 1009.38,-135.6"/>
<polygon fill="black" stroke="black" points="1280.88,-431.29 1290.45,-436.65 1286.2,-431.76 1290.51,-432.14 1290.51,-432.14 1290.51,-432.14 1286.2,-431.76 1291.24,-427.69 1280.88,-431.29"/>
<text text-anchor="start" x="1298.18" y="-442.2" font-family="Arial" font-size="10.00">FOREIGN KEY (release_id) REFERENCES release (id) ON UPDATE NO ACTION ON DELETE CASCADE MATCH NONE</text>
</g>
<!-- file_set -->
<g id="node6" class="node">
<title>file_set</title>
<polygon fill="#efefef" stroke="none" points="1628.75,-197.2 1628.75,-232.8 1768.79,-232.8 1768.79,-197.2 1628.75,-197.2"/>
<polygon fill="none" stroke="black" points="1628.75,-197.2 1628.75,-232.8 1768.79,-232.8 1768.79,-197.2 1628.75,-197.2"/>
<text text-anchor="start" x="1637.66" y="-210.6" font-family="Arial Bold" font-size="18.00">file_set</text>
<text text-anchor="start" x="1690.64" y="-210.6" font-family="Arial" font-size="14.00">    </text>
<text text-anchor="start" x="1721.75" y="-210.6" font-family="Arial" font-size="14.00" fill="#666666">[table]</text>
<polygon fill="none" stroke="black" points="1628.75,-166.4 1628.75,-197.2 1768.79,-197.2 1768.79,-166.4 1628.75,-166.4"/>
<text text-anchor="start" x="1635.75" y="-178.6" font-family="Arial" font-size="14.00">id </text>
<text text-anchor="start" x="1650.54" y="-178.6" font-family="Arial" font-size="14.00" fill="#666666">[INTEGER]</text>
<polygon fill="none" stroke="black" points="1628.75,-135.6 1628.75,-166.4 1768.79,-166.4 1768.79,-135.6 1628.75,-135.6"/>
<text text-anchor="start" x="1635.75" y="-147.8" font-family="Arial" font-size="14.00">file_name </text>
<text text-anchor="start" x="1700.35" y="-147.8" font-family="Arial" font-size="14.00" fill="#666666">[TEXT]</text>
<polygon fill="none" stroke="black" points="1628.75,-104.8 1628.75,-135.6 1768.79,-135.6 1768.79,-104.8 1628.75,-104.8"/>
<text text-anchor="start" x="1635.75" y="-117" font-family="Arial" font-size="14.00">file_type </text>
<text text-anchor="start" x="1691.79" y="-117" font-family="Arial" font-size="14.00" fill="#666666">[INTEGER]</text>
<polygon fill="none" stroke="black" points="1628.75,-74 1628.75,-104.8 1768.79,-104.8 1768.79,-74 1628.75,-74"/>
<text text-anchor="start" x="1635.75" y="-86.2" font-family="Arial" font-size="14.00">name </text>
<text text-anchor="start" x="1674.66" y="-86.2" font-family="Arial" font-size="14.00" fill="#666666">[TEXT]</text>
<polygon fill="none" stroke="black" points="1628.75,-43.2 1628.75,-74 1768.79,-74 1768.79,-43.2 1628.75,-43.2"/>
<text text-anchor="start" x="1635.75" y="-55.4" font-family="Arial" font-size="14.00">source </text>
<text text-anchor="start" x="1681.66" y="-55.4" font-family="Arial" font-size="14.00" fill="#666666">[TEXT]</text>
</g>
<!-- release_file_set&#45;&gt;file_set -->
<g id="edge5" class="edge">
<title>release_file_set:file_set_id&#45;&gt;file_set:id</title>
<path fill="none" stroke="black" d="M1498.59,-400.42C1532.39,-393.26 1520.01,-348.12 1542.77,-312 1579.62,-253.54 1558.65,-181.8 1627.75,-181.8"/>
<polygon fill="black" stroke="black" points="1498.66,-400.42 1488.28,-396.89 1493.35,-400.92 1489.04,-401.34 1489.04,-401.34 1489.04,-401.34 1493.35,-400.92 1489.13,-405.85 1498.66,-400.42"/>
<text text-anchor="start" x="1495.37" y="-411.4" font-family="Arial" font-size="10.00">FOREIGN KEY (file_set_id) REFERENCES file_set (id) ON UPDATE NO ACTION ON DELETE CASCADE MATCH NONE</text>
</g>
<!-- release_system -->
<g id="node3" class="node">
<title>release_system</title>
<polygon fill="#efefef" stroke="none" points="368.67,-447.6 368.67,-483.2 560.88,-483.2 560.88,-447.6 368.67,-447.6"/>
<polygon fill="none" stroke="black" points="368.67,-447.6 368.67,-483.2 560.88,-483.2 560.88,-447.6 368.67,-447.6"/>
<text text-anchor="start" x="375.67" y="-461" font-family="Arial Bold" font-size="18.00">release_system</text>
<text text-anchor="start" x="484.63" y="-461" font-family="Arial" font-size="14.00">    </text>
<text text-anchor="start" x="515.74" y="-461" font-family="Arial" font-size="14.00" fill="#666666">[table]</text>
<polygon fill="none" stroke="black" points="368.67,-416.8 368.67,-447.6 560.88,-447.6 560.88,-416.8 368.67,-416.8"/>
<text text-anchor="start" x="375.67" y="-429" font-family="Arial" font-size="14.00">release_id </text>
<text text-anchor="start" x="444.16" y="-429" font-family="Arial" font-size="14.00" fill="#666666">[INTEGER]</text>
<polygon fill="none" stroke="black" points="368.67,-386 368.67,-416.8 560.88,-416.8 560.88,-386 368.67,-386"/>
<text text-anchor="start" x="375.67" y="-398.2" font-family="Arial" font-size="14.00">system_id </text>
<text text-anchor="start" x="442.58" y="-398.2" font-family="Arial" font-size="14.00" fill="#666666">[INTEGER]</text>
</g>
<!-- release_system&#45;&gt;release -->
<g id="edge2" class="edge">
<title>release_system:release_id&#45;&gt;release:id</title>
<path fill="none" stroke="black" d="M572.14,-431.23C614.41,-422.32 578.35,-353.81 612.77,-312 701.86,-203.8 734.01,-135.6 874.17,-135.6"/>
<polygon fill="black" stroke="black" points="572.17,-431.23 561.79,-427.69 566.86,-431.73 562.55,-432.14 562.55,-432.14 562.55,-432.14 566.86,-431.73 562.64,-436.65 572.17,-431.23"/>
<text text-anchor="start" x="7" y="-442.2" font-family="Arial" font-size="10.00">FOREIGN KEY (release_id) REFERENCES release (id) ON UPDATE NO ACTION ON DELETE CASCADE MATCH NONE</text>
</g>
<!-- release_software_title -->
<g id="node4" class="node">
<title>release_software_title</title>
<polygon fill="#efefef" stroke="none" points="665.19,-447.6 665.19,-483.2 906.36,-483.2 906.36,-447.6 665.19,-447.6"/>
<polygon fill="none" stroke="black" points="665.19,-447.6 665.19,-483.2 906.36,-483.2 906.36,-447.6 665.19,-447.6"/>
<text text-anchor="start" x="672.19" y="-461" font-family="Arial Bold" font-size="18.00">release_software_title</text>
<text text-anchor="start" x="830.11" y="-461" font-family="Arial" font-size="14.00">    </text>
<text text-anchor="start" x="861.23" y="-461" font-family="Arial" font-size="14.00" fill="#666666">[table]</text>
<polygon fill="none" stroke="black" points="665.19,-416.8 665.19,-447.6 906.36,-447.6 906.36,-416.8 665.19,-416.8"/>
<text text-anchor="start" x="672.19" y="-429" font-family="Arial" font-size="14.00">release_id </text>
<text text-anchor="start" x="740.68" y="-429" font-family="Arial" font-size="14.00" fill="#666666">[INTEGER]</text>
<polygon fill="none" stroke="black" points="665.19,-386 665.19,-416.8 906.36,-416.8 906.36,-386 665.19,-386"/>
<text text-anchor="start" x="672.19" y="-398.2" font-family="Arial" font-size="14.00">software_title_id </text>
<text text-anchor="start" x="777.24" y="-398.2" font-family="Arial" font-size="14.00" fill="#666666">[INTEGER]</text>
</g>
<!-- release_software_title&#45;&gt;release -->
<g id="edge3" class="edge">
<title>release_software_title:release_id&#45;&gt;release:id</title>
<path fill="none" stroke="black" d="M917.61,-431.5C1023.45,-415.64 745.28,-135.6 874.17,-135.6"/>
<polygon fill="black" stroke="black" points="917.67,-431.5 907.39,-427.69 912.35,-431.86 908.03,-432.15 908.03,-432.15 908.03,-432.15 912.35,-431.86 908,-436.67 917.67,-431.5"/>
<text text-anchor="start" x="633.42" y="-416.2" font-family="Arial" font-size="10.00">FOREIGN KEY (release_id) REFERENCES release (id) ON UPDATE NO ACTION ON DELETE CASCADE MATCH NONE</text>
</g>
<!-- release_item -->
<g id="node5" class="node">
<title>release_item</title>
<polygon fill="#efefef" stroke="none" points="1010.67,-478.4 1010.67,-514 1184.88,-514 1184.88,-478.4 1010.67,-478.4"/>
<polygon fill="none" stroke="black" points="1010.67,-478.4 1010.67,-514 1184.88,-514 1184.88,-478.4 1010.67,-478.4"/>
<text text-anchor="start" x="1017.67" y="-491.8" font-family="Arial Bold" font-size="18.00">release_item</text>
<text text-anchor="start" x="1108.62" y="-491.8" font-family="Arial" font-size="14.00">    </text>
<text text-anchor="start" x="1139.74" y="-491.8" font-family="Arial" font-size="14.00" fill="#666666">[table]</text>
<polygon fill="none" stroke="black" points="1010.67,-447.6 1010.67,-478.4 1184.88,-478.4 1184.88,-447.6 1010.67,-447.6"/>
<text text-anchor="start" x="1017.67" y="-459.8" font-family="Arial" font-size="14.00">id </text>
<text text-anchor="start" x="1032.46" y="-459.8" font-family="Arial" font-size="14.00" fill="#666666">[INTEGER]</text>
<polygon fill="none" stroke="black" points="1010.67,-416.8 1010.67,-447.6 1184.88,-447.6 1184.88,-416.8 1010.67,-416.8"/>
<text text-anchor="start" x="1017.67" y="-429" font-family="Arial" font-size="14.00">release_id </text>
<text text-anchor="start" x="1086.16" y="-429" font-family="Arial" font-size="14.00" fill="#666666">[INTEGER]</text>
<polygon fill="none" stroke="black" points="1010.67,-386 1010.67,-416.8 1184.88,-416.8 1184.88,-386 1010.67,-386"/>
<text text-anchor="start" x="1017.67" y="-398.2" font-family="Arial" font-size="14.00">item_type </text>
<text text-anchor="start" x="1082.26" y="-398.2" font-family="Arial" font-size="14.00" fill="#666666">[INTEGER]</text>
<polygon fill="none" stroke="black" points="1010.67,-355.2 1010.67,-386 1184.88,-386 1184.88,-355.2 1010.67,-355.2"/>
<text text-anchor="start" x="1017.67" y="-367.4" font-family="Arial" font-size="14.00">notes </text>
<text text-anchor="start" x="1055.81" y="-367.4" font-family="Arial" font-size="14.00" fill="#666666">[TEXT]</text>
</g>
<!-- release_item&#45;&gt;release -->
<g id="edge4" class="edge">
<title>release_item:release_id&#45;&gt;release:id</title>
<path fill="none" stroke="black" d="M999.41,-431.5C892.45,-415.64 1137.47,-135.6 1009.38,-135.6"/>
<polygon fill="black" stroke="black" points="999.36,-431.5 1009.03,-436.67 1004.68,-431.86 1009,-432.15 1009,-432.15 1009,-432.15 1004.68,-431.86 1009.64,-427.69 999.36,-431.5"/>
<text text-anchor="start" x="454.79" y="-442.2" font-family="Arial" font-size="10.00">FOREIGN KEY (release_id) REFERENCES release (id) ON UPDATE NO ACTION ON DELETE CASCADE MATCH NONE</text>
</g>
<!-- file_set_file_info -->
<g id="node7" class="node">
<title>file_set_file_info</title>
<polygon fill="#efefef" stroke="none" points="1595.17,-478.4 1595.17,-514 1802.38,-514 1802.38,-478.4 1595.17,-478.4"/>
<polygon fill="none" stroke="black" points="1595.17,-478.4 1595.17,-514 1802.38,-514 1802.38,-478.4 1595.17,-478.4"/>
<text text-anchor="start" x="1602.17" y="-491.8" font-family="Arial Bold" font-size="18.00">file_set_file_info</text>
<text text-anchor="start" x="1726.13" y="-491.8" font-family="Arial" font-size="14.00">    </text>
<text text-anchor="start" x="1757.24" y="-491.8" font-family="Arial" font-size="14.00" fill="#666666">[table]</text>
<polygon fill="none" stroke="black" points="1595.17,-447.6 1595.17,-478.4 1802.38,-478.4 1802.38,-447.6 1595.17,-447.6"/>
<text text-anchor="start" x="1602.17" y="-459.8" font-family="Arial" font-size="14.00">file_set_id </text>
<text text-anchor="start" x="1669.1" y="-459.8" font-family="Arial" font-size="14.00" fill="#666666">[INTEGER]</text>
<polygon fill="none" stroke="black" points="1595.17,-416.8 1595.17,-447.6 1802.38,-447.6 1802.38,-416.8 1595.17,-416.8"/>
<text text-anchor="start" x="1602.17" y="-429" font-family="Arial" font-size="14.00">file_info_id </text>
<text text-anchor="start" x="1672.99" y="-429" font-family="Arial" font-size="14.00" fill="#666666">[INTEGER]</text>
<polygon fill="none" stroke="black" points="1595.17,-386 1595.17,-416.8 1802.38,-416.8 1802.38,-386 1595.17,-386"/>
<text text-anchor="start" x="1602.17" y="-398.2" font-family="Arial" font-size="14.00">file_name </text>
<text text-anchor="start" x="1666.76" y="-398.2" font-family="Arial" font-size="14.00" fill="#666666">[TEXT]</text>
<polygon fill="none" stroke="black" points="1595.17,-355.2 1595.17,-386 1802.38,-386 1802.38,-355.2 1595.17,-355.2"/>
<text text-anchor="start" x="1602.17" y="-367.4" font-family="Arial" font-size="14.00">sort_order </text>
<text text-anchor="start" x="1669.86" y="-367.4" font-family="Arial" font-size="14.00" fill="#666666">[INTEGER]</text>
</g>
<!-- file_set_file_info&#45;&gt;file_set -->
<g id="edge6" class="edge">
<title>file_set_file_info:file_set_id&#45;&gt;file_set:id</title>
<path fill="none" stroke="black" d="M1813.16,-460.4C1862.42,-432.05 1829.16,-181.8 1769.79,-181.8"/>
<polygon fill="black" stroke="black" points="1813.37,-460.34 1802.55,-458.57 1808.21,-461.71 1804.03,-462.83 1804.03,-462.83 1804.03,-462.83 1808.21,-461.71 1804.86,-467.26 1813.37,-460.34"/>
<text text-anchor="start" x="1810.38" y="-473" font-family="Arial" font-size="10.00">FOREIGN KEY (file_set_id) REFERENCES file_set (id) ON UPDATE NO ACTION ON DELETE NO ACTION MATCH NONE</text>
</g>
<!-- file_set_item -->
<g id="node8" class="node">
<title>file_set_item</title>
<polygon fill="#efefef" stroke="none" points="1907.16,-447.6 1907.16,-483.2 2084.39,-483.2 2084.39,-447.6 1907.16,-447.6"/>
<polygon fill="none" stroke="black" points="1907.16,-447.6 1907.16,-483.2 2084.39,-483.2 2084.39,-447.6 1907.16,-447.6"/>
<text text-anchor="start" x="1914.16" y="-461" font-family="Arial Bold" font-size="18.00">file_set_item</text>
<text text-anchor="start" x="2008.13" y="-461" font-family="Arial" font-size="14.00">    </text>
<text text-anchor="start" x="2039.25" y="-461" font-family="Arial" font-size="14.00" fill="#666666">[table]</text>
<polygon fill="none" stroke="black" points="1907.16,-416.8 1907.16,-447.6 2084.39,-447.6 2084.39,-416.8 1907.16,-416.8"/>
<text text-anchor="start" x="1914.16" y="-429" font-family="Arial" font-size="14.00">file_set_id </text>
<text text-anchor="start" x="1981.09" y="-429" font-family="Arial" font-size="14.00" fill="#666666">[INTEGER]</text>
<polygon fill="none" stroke="black" points="1907.16,-386 1907.16,-416.8 2084.39,-416.8 2084.39,-386 1907.16,-386"/>
<text text-anchor="start" x="1914.16" y="-398.2" font-family="Arial" font-size="14.00">item_id </text>
<text text-anchor="start" x="1963.18" y="-398.2" font-family="Arial" font-size="14.00" fill="#666666">[INTEGER]</text>
</g>
<!-- file_set_item&#45;&gt;file_set -->
<g id="edge7" class="edge">
<title>file_set_item:file_set_id&#45;&gt;file_set:id</title>
<path fill="none" stroke="black" d="M1895.76,-431.31C1852.32,-423.12 1880.36,-359.83 1854.77,-312 1822.18,-251.07 1838.9,-181.8 1769.79,-181.8"/>
<polygon fill="black" stroke="black" points="1895.86,-431.32 1905.44,-436.66 1901.18,-431.78 1905.49,-432.14 1905.49,-432.14 1905.49,-432.14 1901.18,-431.78 1906.21,-427.69 1895.86,-431.32"/>
<text text-anchor="start" x="1913.16" y="-442.2" font-family="Arial" font-size="10.00">FOREIGN KEY (file_set_id) REFERENCES file_set (id) ON UPDATE NO ACTION ON DELETE CASCADE MATCH NONE</text>
</g>
</g>
</svg>
