<?xml version="1.0" encoding="UTF-8" standalone="no"?>
<!DOCTYPE svg PUBLIC "-//W3C//DTD SVG 1.1//EN"
 "http://www.w3.org/Graphics/SVG/1.1/DTD/svg11.dtd">
<!-- Generated by graphviz version 12.1.2 (20240928.0832)
 -->
<!-- Title: release_item Pages: 1 -->
<svg width="2216pt" height="754pt"
 viewBox="0.00 0.00 2216.03 754.00" xmlns="http://www.w3.org/2000/svg" xmlns:xlink="http://www.w3.org/1999/xlink">
<g id="graph0" class="graph" transform="scale(1 1) rotate(0) translate(4 750)">
<title>release_item</title>
<polygon fill="white" stroke="none" points="-4,4 -4,-750 2212.03,-750 2212.03,4 -4,4"/>
<!-- release_item -->
<g id="node1" class="node">
<title>release_item</title>
<polygon fill="#efefef" stroke="none" points="1310.18,-432.2 1310.18,-467.8 1484.39,-467.8 1484.39,-432.2 1310.18,-432.2"/>
<polygon fill="none" stroke="black" points="1310.18,-432.2 1310.18,-467.8 1484.39,-467.8 1484.39,-432.2 1310.18,-432.2"/>
<text text-anchor="start" x="1317.18" y="-445.6" font-family="Arial Bold" font-size="18.00">release_item</text>
<text text-anchor="start" x="1408.13" y="-445.6" font-family="Arial" font-size="14.00">    </text>
<text text-anchor="start" x="1439.25" y="-445.6" font-family="Arial" font-size="14.00" fill="#666666">[table]</text>
<polygon fill="none" stroke="black" points="1310.18,-401.4 1310.18,-432.2 1484.39,-432.2 1484.39,-401.4 1310.18,-401.4"/>
<text text-anchor="start" x="1317.18" y="-413.6" font-family="Arial" font-size="14.00">id </text>
<text text-anchor="start" x="1331.97" y="-413.6" font-family="Arial" font-size="14.00" fill="#666666">[INTEGER]</text>
<polygon fill="none" stroke="black" points="1310.18,-370.6 1310.18,-401.4 1484.39,-401.4 1484.39,-370.6 1310.18,-370.6"/>
<text text-anchor="start" x="1317.18" y="-382.8" font-family="Arial" font-size="14.00">release_id </text>
<text text-anchor="start" x="1385.67" y="-382.8" font-family="Arial" font-size="14.00" fill="#666666">[INTEGER]</text>
<polygon fill="none" stroke="black" points="1310.18,-339.8 1310.18,-370.6 1484.39,-370.6 1484.39,-339.8 1310.18,-339.8"/>
<text text-anchor="start" x="1317.18" y="-352" font-family="Arial" font-size="14.00">item_type </text>
<text text-anchor="start" x="1381.77" y="-352" font-family="Arial" font-size="14.00" fill="#666666">[INTEGER]</text>
<polygon fill="none" stroke="black" points="1310.18,-309 1310.18,-339.8 1484.39,-339.8 1484.39,-309 1310.18,-309"/>
<text text-anchor="start" x="1317.18" y="-321.2" font-family="Arial" font-size="14.00">notes </text>
<text text-anchor="start" x="1355.32" y="-321.2" font-family="Arial" font-size="14.00" fill="#666666">[TEXT]</text>
<polygon fill="none" stroke="black" stroke-width="3" points="1308.68,-307.5 1308.68,-469.3 1485.89,-469.3 1485.89,-307.5 1308.68,-307.5"/>
</g>
<!-- release -->
<g id="node4" class="node">
<title>release</title>
<polygon fill="#efefef" stroke="none" points="829.86,-135.6 829.86,-171.2 1012.71,-171.2 1012.71,-135.6 829.86,-135.6"/>
<polygon fill="none" stroke="black" points="829.86,-135.6 829.86,-171.2 1012.71,-171.2 1012.71,-135.6 829.86,-135.6"/>
<text text-anchor="start" x="861.68" y="-149" font-family="Arial Bold" font-size="18.00">release</text>
<text text-anchor="start" x="911.64" y="-149" font-family="Arial" font-size="14.00">    </text>
<text text-anchor="start" x="942.75" y="-149" font-family="Arial" font-size="14.00" fill="#666666">[table]</text>
<polygon fill="none" stroke="black" points="829.86,-104.8 829.86,-135.6 1012.71,-135.6 1012.71,-104.8 829.86,-104.8"/>
<text text-anchor="start" x="836.86" y="-117" font-family="Arial" font-size="14.00">id </text>
<text text-anchor="start" x="851.64" y="-117" font-family="Arial" font-size="14.00" fill="#666666">[INTEGER]</text>
<polygon fill="none" stroke="black" points="829.86,-74 829.86,-104.8 1012.71,-104.8 1012.71,-74 829.86,-74"/>
<text text-anchor="start" x="836.86" y="-86.2" font-family="Arial" font-size="14.00">name </text>
<text text-anchor="start" x="875.77" y="-86.2" font-family="Arial" font-size="14.00" fill="#666666">[TEXT]</text>
<polygon fill="none" stroke="black" points="829.86,-43.2 829.86,-74 1012.71,-74 1012.71,-43.2 829.86,-43.2"/>
<text text-anchor="start" x="836.86" y="-55.4" font-family="Arial" font-size="14.00">thumbnail_filename </text>
<text text-anchor="start" x="962.15" y="-55.4" font-family="Arial" font-size="14.00" fill="#666666">[TEXT]</text>
</g>
<!-- release_item&#45;&gt;release -->
<g id="edge3" class="edge">
<title>release_item:release_id&#45;&gt;release:id</title>
<path fill="none" stroke="black" d="M1298.96,-385.13C1250.33,-375.92 1295.88,-296 1255.28,-250.4 1174.19,-159.3 1135.68,-120.2 1013.71,-120.2"/>
<polygon fill="black" stroke="black" points="1298.89,-385.12 1308.47,-390.46 1304.2,-385.57 1308.52,-385.94 1308.52,-385.94 1308.52,-385.94 1304.2,-385.57 1309.23,-381.49 1298.89,-385.12"/>
<text text-anchor="start" x="1316.18" y="-396" font-family="Arial" font-size="10.00">FOREIGN KEY (release_id) REFERENCES release (id) ON UPDATE NO ACTION ON DELETE CASCADE MATCH NONE</text>
</g>
<!-- release_item_file_set -->
<g id="node2" class="node">
<title>release_item_file_set</title>
<polygon fill="#efefef" stroke="none" points="1411.19,-667.2 1411.19,-702.8 1647.38,-702.8 1647.38,-667.2 1411.19,-667.2"/>
<polygon fill="none" stroke="black" points="1411.19,-667.2 1411.19,-702.8 1647.38,-702.8 1647.38,-667.2 1411.19,-667.2"/>
<text text-anchor="start" x="1418.19" y="-680.6" font-family="Arial Bold" font-size="18.00">release_item_file_set</text>
<text text-anchor="start" x="1571.12" y="-680.6" font-family="Arial" font-size="14.00">    </text>
<text text-anchor="start" x="1602.24" y="-680.6" font-family="Arial" font-size="14.00" fill="#666666">[table]</text>
<polygon fill="none" stroke="black" points="1411.19,-636.4 1411.19,-667.2 1647.38,-667.2 1647.38,-636.4 1411.19,-636.4"/>
<text text-anchor="start" x="1418.19" y="-648.6" font-family="Arial" font-size="14.00">release_item_id </text>
<text text-anchor="start" x="1520.92" y="-648.6" font-family="Arial" font-size="14.00" fill="#666666">[INTEGER]</text>
<polygon fill="none" stroke="black" points="1411.19,-605.6 1411.19,-636.4 1647.38,-636.4 1647.38,-605.6 1411.19,-605.6"/>
<text text-anchor="start" x="1418.19" y="-617.8" font-family="Arial" font-size="14.00">file_set_id </text>
<text text-anchor="start" x="1485.12" y="-617.8" font-family="Arial" font-size="14.00" fill="#666666">[INTEGER]</text>
</g>
<!-- release_item_file_set&#45;&gt;release_item -->
<g id="edge1" class="edge">
<title>release_item_file_set:release_item_id&#45;&gt;release_item:id</title>
<path fill="none" stroke="black" d="M1399.92,-650.19C1374.84,-640.93 1394.11,-593.75 1411.19,-562.4 1429.85,-528.15 1465.74,-548.26 1484.39,-514 1505.04,-476.05 1528.59,-416.8 1485.39,-416.8"/>
<polygon fill="black" stroke="black" points="1399.98,-650.2 1409.17,-656.19 1405.25,-651.03 1409.53,-651.7 1409.53,-651.7 1409.53,-651.7 1405.25,-651.03 1410.56,-647.3 1399.98,-650.2"/>
<text text-anchor="start" x="806.41" y="-661.8" font-family="Arial" font-size="10.00">FOREIGN KEY (release_item_id) REFERENCES release_item (id) ON UPDATE NO ACTION ON DELETE CASCADE MATCH NONE</text>
</g>
<!-- file_set -->
<g id="node3" class="node">
<title>file_set</title>
<polygon fill="#efefef" stroke="none" points="1592.26,-447.6 1592.26,-483.2 1732.31,-483.2 1732.31,-447.6 1592.26,-447.6"/>
<polygon fill="none" stroke="black" points="1592.26,-447.6 1592.26,-483.2 1732.31,-483.2 1732.31,-447.6 1592.26,-447.6"/>
<text text-anchor="start" x="1601.17" y="-461" font-family="Arial Bold" font-size="18.00">file_set</text>
<text text-anchor="start" x="1654.15" y="-461" font-family="Arial" font-size="14.00">    </text>
<text text-anchor="start" x="1685.26" y="-461" font-family="Arial" font-size="14.00" fill="#666666">[table]</text>
<polygon fill="none" stroke="black" points="1592.26,-416.8 1592.26,-447.6 1732.31,-447.6 1732.31,-416.8 1592.26,-416.8"/>
<text text-anchor="start" x="1599.26" y="-429" font-family="Arial" font-size="14.00">id </text>
<text text-anchor="start" x="1614.05" y="-429" font-family="Arial" font-size="14.00" fill="#666666">[INTEGER]</text>
<polygon fill="none" stroke="black" points="1592.26,-386 1592.26,-416.8 1732.31,-416.8 1732.31,-386 1592.26,-386"/>
<text text-anchor="start" x="1599.26" y="-398.2" font-family="Arial" font-size="14.00">file_name </text>
<text text-anchor="start" x="1663.86" y="-398.2" font-family="Arial" font-size="14.00" fill="#666666">[TEXT]</text>
<polygon fill="none" stroke="black" points="1592.26,-355.2 1592.26,-386 1732.31,-386 1732.31,-355.2 1592.26,-355.2"/>
<text text-anchor="start" x="1599.26" y="-367.4" font-family="Arial" font-size="14.00">file_type </text>
<text text-anchor="start" x="1655.3" y="-367.4" font-family="Arial" font-size="14.00" fill="#666666">[INTEGER]</text>
<polygon fill="none" stroke="black" points="1592.26,-324.4 1592.26,-355.2 1732.31,-355.2 1732.31,-324.4 1592.26,-324.4"/>
<text text-anchor="start" x="1599.26" y="-336.6" font-family="Arial" font-size="14.00">name </text>
<text text-anchor="start" x="1638.17" y="-336.6" font-family="Arial" font-size="14.00" fill="#666666">[TEXT]</text>
<polygon fill="none" stroke="black" points="1592.26,-293.6 1592.26,-324.4 1732.31,-324.4 1732.31,-293.6 1592.26,-293.6"/>
<text text-anchor="start" x="1599.26" y="-305.8" font-family="Arial" font-size="14.00">source </text>
<text text-anchor="start" x="1645.17" y="-305.8" font-family="Arial" font-size="14.00" fill="#666666">[TEXT]</text>
</g>
<!-- release_item_file_set&#45;&gt;file_set -->
<g id="edge2" class="edge">
<title>release_item_file_set:file_set_id&#45;&gt;file_set:id</title>
<path fill="none" stroke="black" d="M1658.11,-618.32C1669.73,-609.6 1657.9,-581.46 1647.38,-562.4 1633.23,-536.79 1606.33,-552.06 1592.26,-526.4 1572.14,-489.68 1549.4,-432.2 1591.26,-432.2"/>
<polygon fill="black" stroke="black" points="1658.34,-618.26 1647.51,-616.57 1653.2,-619.68 1649.02,-620.82 1649.02,-620.82 1649.02,-620.82 1653.2,-619.68 1649.89,-625.25 1658.34,-618.26"/>
<text text-anchor="start" x="1655.38" y="-631" font-family="Arial" font-size="10.00">FOREIGN KEY (file_set_id) REFERENCES file_set (id) ON UPDATE NO ACTION ON DELETE CASCADE MATCH NONE</text>
</g>
<!-- release_file_set -->
<g id="node5" class="node">
<title>release_file_set</title>
<polygon fill="#efefef" stroke="none" points="365.69,-401.4 365.69,-437 560.88,-437 560.88,-401.4 365.69,-401.4"/>
<polygon fill="none" stroke="black" points="365.69,-401.4 365.69,-437 560.88,-437 560.88,-401.4 365.69,-401.4"/>
<text text-anchor="start" x="372.69" y="-414.8" font-family="Arial Bold" font-size="18.00">release_file_set</text>
<text text-anchor="start" x="484.63" y="-414.8" font-family="Arial" font-size="14.00">    </text>
<text text-anchor="start" x="515.74" y="-414.8" font-family="Arial" font-size="14.00" fill="#666666">[table]</text>
<polygon fill="none" stroke="black" points="365.69,-370.6 365.69,-401.4 560.88,-401.4 560.88,-370.6 365.69,-370.6"/>
<text text-anchor="start" x="372.69" y="-382.8" font-family="Arial" font-size="14.00">release_id </text>
<text text-anchor="start" x="441.18" y="-382.8" font-family="Arial" font-size="14.00" fill="#666666">[INTEGER]</text>
<polygon fill="none" stroke="black" points="365.69,-339.8 365.69,-370.6 560.88,-370.6 560.88,-339.8 365.69,-339.8"/>
<text text-anchor="start" x="372.69" y="-352" font-family="Arial" font-size="14.00">file_set_id </text>
<text text-anchor="start" x="439.62" y="-352" font-family="Arial" font-size="14.00" fill="#666666">[INTEGER]</text>
</g>
<!-- release_file_set&#45;&gt;release -->
<g id="edge4" class="edge">
<title>release_file_set:release_id&#45;&gt;release:id</title>
<path fill="none" stroke="black" d="M572.03,-385.14C620.3,-376.04 574.43,-297.01 613.28,-250.4 684.95,-164.43 716.93,-120.2 828.86,-120.2"/>
<polygon fill="black" stroke="black" points="572.18,-385.13 561.83,-381.49 566.86,-385.58 562.55,-385.94 562.55,-385.94 562.55,-385.94 566.86,-385.58 562.6,-390.46 572.18,-385.13"/>
<text text-anchor="start" x="7" y="-396" font-family="Arial" font-size="10.00">FOREIGN KEY (release_id) REFERENCES release (id) ON UPDATE NO ACTION ON DELETE CASCADE MATCH NONE</text>
</g>
<!-- release_system -->
<g id="node6" class="node">
<title>release_system</title>
<polygon fill="#efefef" stroke="none" points="665.18,-401.4 665.18,-437 857.39,-437 857.39,-401.4 665.18,-401.4"/>
<polygon fill="none" stroke="black" points="665.18,-401.4 665.18,-437 857.39,-437 857.39,-401.4 665.18,-401.4"/>
<text text-anchor="start" x="672.18" y="-414.8" font-family="Arial Bold" font-size="18.00">release_system</text>
<text text-anchor="start" x="781.14" y="-414.8" font-family="Arial" font-size="14.00">    </text>
<text text-anchor="start" x="812.25" y="-414.8" font-family="Arial" font-size="14.00" fill="#666666">[table]</text>
<polygon fill="none" stroke="black" points="665.18,-370.6 665.18,-401.4 857.39,-401.4 857.39,-370.6 665.18,-370.6"/>
<text text-anchor="start" x="672.18" y="-382.8" font-family="Arial" font-size="14.00">release_id </text>
<text text-anchor="start" x="740.67" y="-382.8" font-family="Arial" font-size="14.00" fill="#666666">[INTEGER]</text>
<polygon fill="none" stroke="black" points="665.18,-339.8 665.18,-370.6 857.39,-370.6 857.39,-339.8 665.18,-339.8"/>
<text text-anchor="start" x="672.18" y="-352" font-family="Arial" font-size="14.00">system_id </text>
<text text-anchor="start" x="739.09" y="-352" font-family="Arial" font-size="14.00" fill="#666666">[INTEGER]</text>
</g>
<!-- release_system&#45;&gt;release -->
<g id="edge5" class="edge">
<title>release_system:release_id&#45;&gt;release:id</title>
<path fill="none" stroke="black" d="M868.71,-385.19C960.43,-369.14 713.83,-120.2 828.86,-120.2"/>
<polygon fill="black" stroke="black" points="868.69,-385.19 858.37,-381.49 863.38,-385.61 859.06,-385.95 859.06,-385.95 859.06,-385.95 863.38,-385.61 859.08,-390.46 868.69,-385.19"/>
<text text-anchor="start" x="303.51" y="-370" font-family="Arial" font-size="10.00">FOREIGN KEY (release_id) REFERENCES release (id) ON UPDATE NO ACTION ON DELETE CASCADE MATCH NONE</text>
</g>
<!-- release_software_title -->
<g id="node7" class="node">
<title>release_software_title</title>
<polygon fill="#efefef" stroke="none" points="961.7,-401.4 961.7,-437 1202.87,-437 1202.87,-401.4 961.7,-401.4"/>
<polygon fill="none" stroke="black" points="961.7,-401.4 961.7,-437 1202.87,-437 1202.87,-401.4 961.7,-401.4"/>
<text text-anchor="start" x="968.7" y="-414.8" font-family="Arial Bold" font-size="18.00">release_software_title</text>
<text text-anchor="start" x="1126.62" y="-414.8" font-family="Arial" font-size="14.00">    </text>
<text text-anchor="start" x="1157.74" y="-414.8" font-family="Arial" font-size="14.00" fill="#666666">[table]</text>
<polygon fill="none" stroke="black" points="961.7,-370.6 961.7,-401.4 1202.87,-401.4 1202.87,-370.6 961.7,-370.6"/>
<text text-anchor="start" x="968.7" y="-382.8" font-family="Arial" font-size="14.00">release_id </text>
<text text-anchor="start" x="1037.19" y="-382.8" font-family="Arial" font-size="14.00" fill="#666666">[INTEGER]</text>
<polygon fill="none" stroke="black" points="961.7,-339.8 961.7,-370.6 1202.87,-370.6 1202.87,-339.8 961.7,-339.8"/>
<text text-anchor="start" x="968.7" y="-352" font-family="Arial" font-size="14.00">software_title_id </text>
<text text-anchor="start" x="1073.75" y="-352" font-family="Arial" font-size="14.00" fill="#666666">[INTEGER]</text>
</g>
<!-- release_software_title&#45;&gt;release -->
<g id="edge6" class="edge">
<title>release_software_title:release_id&#45;&gt;release:id</title>
<path fill="none" stroke="black" d="M950.64,-384.48C926.79,-375.73 951.72,-330.88 961.7,-296.6 973.72,-255.32 1000.7,-255.69 1012.71,-214.4 1024.4,-174.2 1055.58,-120.2 1013.71,-120.2"/>
<polygon fill="black" stroke="black" points="950.48,-384.46 959.69,-390.4 955.75,-385.25 960.03,-385.9 960.03,-385.9 960.03,-385.9 955.75,-385.25 961.04,-381.5 950.48,-384.46"/>
<text text-anchor="start" x="967.7" y="-370" font-family="Arial" font-size="10.00">FOREIGN KEY (release_id) REFERENCES release (id) ON UPDATE NO ACTION ON DELETE CASCADE MATCH NONE</text>
</g>
</g>
</svg>
