<?xml version="1.0" encoding="UTF-8" standalone="no"?>
<!DOCTYPE svg PUBLIC "-//W3C//DTD SVG 1.1//EN"
 "http://www.w3.org/Graphics/SVG/1.1/DTD/svg11.dtd">
<!-- Generated by graphviz version 12.1.2 (20240928.0832)
 -->
<!-- Title: release_file_set Pages: 1 -->
<svg width="1891pt" height="534pt"
 viewBox="0.00 0.00 1891.03 534.40" xmlns="http://www.w3.org/2000/svg" xmlns:xlink="http://www.w3.org/1999/xlink">
<g id="graph0" class="graph" transform="scale(1 1) rotate(0) translate(4 530.4)">
<title>release_file_set</title>
<polygon fill="white" stroke="none" points="-4,4 -4,-530.4 1887.03,-530.4 1887.03,4 -4,4"/>
<!-- release_file_set -->
<g id="node1" class="node">
<title>release_file_set</title>
<polygon fill="#efefef" stroke="none" points="1014.18,-432.2 1014.18,-467.8 1209.37,-467.8 1209.37,-432.2 1014.18,-432.2"/>
<polygon fill="none" stroke="black" points="1014.18,-432.2 1014.18,-467.8 1209.37,-467.8 1209.37,-432.2 1014.18,-432.2"/>
<text text-anchor="start" x="1021.18" y="-445.6" font-family="Arial Bold" font-size="18.00">release_file_set</text>
<text text-anchor="start" x="1133.12" y="-445.6" font-family="Arial" font-size="14.00">    </text>
<text text-anchor="start" x="1164.23" y="-445.6" font-family="Arial" font-size="14.00" fill="#666666">[table]</text>
<polygon fill="none" stroke="black" points="1014.18,-401.4 1014.18,-432.2 1209.37,-432.2 1209.37,-401.4 1014.18,-401.4"/>
<text text-anchor="start" x="1021.18" y="-413.6" font-family="Arial" font-size="14.00">release_id </text>
<text text-anchor="start" x="1089.67" y="-413.6" font-family="Arial" font-size="14.00" fill="#666666">[INTEGER]</text>
<polygon fill="none" stroke="black" points="1014.18,-370.6 1014.18,-401.4 1209.37,-401.4 1209.37,-370.6 1014.18,-370.6"/>
<text text-anchor="start" x="1021.18" y="-382.8" font-family="Arial" font-size="14.00">file_set_id </text>
<text text-anchor="start" x="1088.11" y="-382.8" font-family="Arial" font-size="14.00" fill="#666666">[INTEGER]</text>
<polygon fill="none" stroke="black" stroke-width="3" points="1012.68,-369.1 1012.68,-469.3 1210.87,-469.3 1210.87,-369.1 1012.68,-369.1"/>
</g>
<!-- release -->
<g id="node2" class="node">
<title>release</title>
<polygon fill="#efefef" stroke="none" points="719.17,-151 719.17,-186.6 852.38,-186.6 852.38,-151 719.17,-151"/>
<polygon fill="none" stroke="black" points="719.17,-151 719.17,-186.6 852.38,-186.6 852.38,-151 719.17,-151"/>
<text text-anchor="start" x="726.17" y="-164.4" font-family="Arial Bold" font-size="18.00">release</text>
<text text-anchor="start" x="776.13" y="-164.4" font-family="Arial" font-size="14.00">    </text>
<text text-anchor="start" x="807.24" y="-164.4" font-family="Arial" font-size="14.00" fill="#666666">[table]</text>
<polygon fill="none" stroke="black" points="719.17,-120.2 719.17,-151 852.38,-151 852.38,-120.2 719.17,-120.2"/>
<text text-anchor="start" x="726.17" y="-132.4" font-family="Arial" font-size="14.00">id </text>
<text text-anchor="start" x="740.95" y="-132.4" font-family="Arial" font-size="14.00" fill="#666666">[INTEGER]</text>
<polygon fill="none" stroke="black" points="719.17,-89.4 719.17,-120.2 852.38,-120.2 852.38,-89.4 719.17,-89.4"/>
<text text-anchor="start" x="726.17" y="-101.6" font-family="Arial" font-size="14.00">name </text>
<text text-anchor="start" x="765.08" y="-101.6" font-family="Arial" font-size="14.00" fill="#666666">[TEXT]</text>
</g>
<!-- release_file_set&#45;&gt;release -->
<g id="edge1" class="edge">
<title>release_file_set:release_id&#45;&gt;release:id</title>
<path fill="none" stroke="black" d="M1003.19,-415.95C963.78,-408.57 982.54,-354.61 958.77,-312 914.29,-232.24 944.71,-135.6 853.38,-135.6"/>
<polygon fill="black" stroke="black" points="1002.88,-415.92 1012.46,-421.26 1008.2,-416.38 1012.51,-416.74 1012.51,-416.74 1012.51,-416.74 1008.2,-416.38 1013.23,-412.29 1002.88,-415.92"/>
<text text-anchor="start" x="1020.18" y="-426.8" font-family="Arial" font-size="10.00">FOREIGN KEY (release_id) REFERENCES release (id) ON UPDATE NO ACTION ON DELETE CASCADE MATCH NONE</text>
</g>
<!-- file_set -->
<g id="node5" class="node">
<title>file_set</title>
<polygon fill="#efefef" stroke="none" points="1195.75,-197.2 1195.75,-232.8 1335.79,-232.8 1335.79,-197.2 1195.75,-197.2"/>
<polygon fill="none" stroke="black" points="1195.75,-197.2 1195.75,-232.8 1335.79,-232.8 1335.79,-197.2 1195.75,-197.2"/>
<text text-anchor="start" x="1204.66" y="-210.6" font-family="Arial Bold" font-size="18.00">file_set</text>
<text text-anchor="start" x="1257.64" y="-210.6" font-family="Arial" font-size="14.00">    </text>
<text text-anchor="start" x="1288.75" y="-210.6" font-family="Arial" font-size="14.00" fill="#666666">[table]</text>
<polygon fill="none" stroke="black" points="1195.75,-166.4 1195.75,-197.2 1335.79,-197.2 1335.79,-166.4 1195.75,-166.4"/>
<text text-anchor="start" x="1202.75" y="-178.6" font-family="Arial" font-size="14.00">id </text>
<text text-anchor="start" x="1217.54" y="-178.6" font-family="Arial" font-size="14.00" fill="#666666">[INTEGER]</text>
<polygon fill="none" stroke="black" points="1195.75,-135.6 1195.75,-166.4 1335.79,-166.4 1335.79,-135.6 1195.75,-135.6"/>
<text text-anchor="start" x="1202.75" y="-147.8" font-family="Arial" font-size="14.00">file_name </text>
<text text-anchor="start" x="1267.35" y="-147.8" font-family="Arial" font-size="14.00" fill="#666666">[TEXT]</text>
<polygon fill="none" stroke="black" points="1195.75,-104.8 1195.75,-135.6 1335.79,-135.6 1335.79,-104.8 1195.75,-104.8"/>
<text text-anchor="start" x="1202.75" y="-117" font-family="Arial" font-size="14.00">file_type </text>
<text text-anchor="start" x="1258.79" y="-117" font-family="Arial" font-size="14.00" fill="#666666">[INTEGER]</text>
<polygon fill="none" stroke="black" points="1195.75,-74 1195.75,-104.8 1335.79,-104.8 1335.79,-74 1195.75,-74"/>
<text text-anchor="start" x="1202.75" y="-86.2" font-family="Arial" font-size="14.00">name </text>
<text text-anchor="start" x="1241.66" y="-86.2" font-family="Arial" font-size="14.00" fill="#666666">[TEXT]</text>
<polygon fill="none" stroke="black" points="1195.75,-43.2 1195.75,-74 1335.79,-74 1335.79,-43.2 1195.75,-43.2"/>
<text text-anchor="start" x="1202.75" y="-55.4" font-family="Arial" font-size="14.00">source </text>
<text text-anchor="start" x="1248.66" y="-55.4" font-family="Arial" font-size="14.00" fill="#666666">[TEXT]</text>
</g>
<!-- release_file_set&#45;&gt;file_set -->
<g id="edge4" class="edge">
<title>release_file_set:file_set_id&#45;&gt;file_set:id</title>
<path fill="none" stroke="black" d="M1220.27,-383.15C1229.96,-374.36 1212.65,-346.84 1209.37,-324.4 1200.15,-261.36 1131.04,-181.8 1194.75,-181.8"/>
<polygon fill="black" stroke="black" points="1220.3,-383.14 1209.45,-381.58 1215.18,-384.62 1211.01,-385.82 1211.01,-385.82 1211.01,-385.82 1215.18,-384.62 1211.94,-390.23 1220.3,-383.14"/>
<text text-anchor="start" x="1217.37" y="-396" font-family="Arial" font-size="10.00">FOREIGN KEY (file_set_id) REFERENCES file_set (id) ON UPDATE NO ACTION ON DELETE CASCADE MATCH NONE</text>
</g>
<!-- release_system -->
<g id="node3" class="node">
<title>release_system</title>
<polygon fill="#efefef" stroke="none" points="368.67,-432.2 368.67,-467.8 560.88,-467.8 560.88,-432.2 368.67,-432.2"/>
<polygon fill="none" stroke="black" points="368.67,-432.2 368.67,-467.8 560.88,-467.8 560.88,-432.2 368.67,-432.2"/>
<text text-anchor="start" x="375.67" y="-445.6" font-family="Arial Bold" font-size="18.00">release_system</text>
<text text-anchor="start" x="484.63" y="-445.6" font-family="Arial" font-size="14.00">    </text>
<text text-anchor="start" x="515.74" y="-445.6" font-family="Arial" font-size="14.00" fill="#666666">[table]</text>
<polygon fill="none" stroke="black" points="368.67,-401.4 368.67,-432.2 560.88,-432.2 560.88,-401.4 368.67,-401.4"/>
<text text-anchor="start" x="375.67" y="-413.6" font-family="Arial" font-size="14.00">release_id </text>
<text text-anchor="start" x="444.16" y="-413.6" font-family="Arial" font-size="14.00" fill="#666666">[INTEGER]</text>
<polygon fill="none" stroke="black" points="368.67,-370.6 368.67,-401.4 560.88,-401.4 560.88,-370.6 368.67,-370.6"/>
<text text-anchor="start" x="375.67" y="-382.8" font-family="Arial" font-size="14.00">system_id </text>
<text text-anchor="start" x="442.58" y="-382.8" font-family="Arial" font-size="14.00" fill="#666666">[INTEGER]</text>
</g>
<!-- release_system&#45;&gt;release -->
<g id="edge2" class="edge">
<title>release_system:release_id&#45;&gt;release:id</title>
<path fill="none" stroke="black" d="M572.18,-415.85C610.15,-408.08 589.99,-354.18 612.77,-312 656.18,-231.65 626.84,-135.6 718.17,-135.6"/>
<polygon fill="black" stroke="black" points="572.17,-415.85 561.8,-412.29 566.86,-416.34 562.55,-416.74 562.55,-416.74 562.55,-416.74 566.86,-416.34 562.63,-421.25 572.17,-415.85"/>
<text text-anchor="start" x="7" y="-426.8" font-family="Arial" font-size="10.00">FOREIGN KEY (release_id) REFERENCES release (id) ON UPDATE NO ACTION ON DELETE CASCADE MATCH NONE</text>
</g>
<!-- release_software_title -->
<g id="node4" class="node">
<title>release_software_title</title>
<polygon fill="#efefef" stroke="none" points="665.19,-432.2 665.19,-467.8 906.36,-467.8 906.36,-432.2 665.19,-432.2"/>
<polygon fill="none" stroke="black" points="665.19,-432.2 665.19,-467.8 906.36,-467.8 906.36,-432.2 665.19,-432.2"/>
<text text-anchor="start" x="672.19" y="-445.6" font-family="Arial Bold" font-size="18.00">release_software_title</text>
<text text-anchor="start" x="830.11" y="-445.6" font-family="Arial" font-size="14.00">    </text>
<text text-anchor="start" x="861.23" y="-445.6" font-family="Arial" font-size="14.00" fill="#666666">[table]</text>
<polygon fill="none" stroke="black" points="665.19,-401.4 665.19,-432.2 906.36,-432.2 906.36,-401.4 665.19,-401.4"/>
<text text-anchor="start" x="672.19" y="-413.6" font-family="Arial" font-size="14.00">release_id </text>
<text text-anchor="start" x="740.68" y="-413.6" font-family="Arial" font-size="14.00" fill="#666666">[INTEGER]</text>
<polygon fill="none" stroke="black" points="665.19,-370.6 665.19,-401.4 906.36,-401.4 906.36,-370.6 665.19,-370.6"/>
<text text-anchor="start" x="672.19" y="-382.8" font-family="Arial" font-size="14.00">software_title_id </text>
<text text-anchor="start" x="777.24" y="-382.8" font-family="Arial" font-size="14.00" fill="#666666">[INTEGER]</text>
</g>
<!-- release_software_title&#45;&gt;release -->
<g id="edge3" class="edge">
<title>release_software_title:release_id&#45;&gt;release:id</title>
<path fill="none" stroke="black" d="M917.36,-414.02C964.63,-384.81 913.28,-135.6 853.38,-135.6"/>
<polygon fill="black" stroke="black" points="917.32,-414.03 906.48,-412.38 912.18,-415.46 908.01,-416.62 908.01,-416.62 908.01,-416.62 912.18,-415.46 908.89,-421.05 917.32,-414.03"/>
<text text-anchor="start" x="352.48" y="-400.8" font-family="Arial" font-size="10.00">FOREIGN KEY (release_id) REFERENCES release (id) ON UPDATE NO ACTION ON DELETE CASCADE MATCH NONE</text>
</g>
<!-- file_set_file_info -->
<g id="node6" class="node">
<title>file_set_file_info</title>
<polygon fill="#efefef" stroke="none" points="1317.17,-447.6 1317.17,-483.2 1524.38,-483.2 1524.38,-447.6 1317.17,-447.6"/>
<polygon fill="none" stroke="black" points="1317.17,-447.6 1317.17,-483.2 1524.38,-483.2 1524.38,-447.6 1317.17,-447.6"/>
<text text-anchor="start" x="1324.17" y="-461" font-family="Arial Bold" font-size="18.00">file_set_file_info</text>
<text text-anchor="start" x="1448.13" y="-461" font-family="Arial" font-size="14.00">    </text>
<text text-anchor="start" x="1479.24" y="-461" font-family="Arial" font-size="14.00" fill="#666666">[table]</text>
<polygon fill="none" stroke="black" points="1317.17,-416.8 1317.17,-447.6 1524.38,-447.6 1524.38,-416.8 1317.17,-416.8"/>
<text text-anchor="start" x="1324.17" y="-429" font-family="Arial" font-size="14.00">file_set_id </text>
<text text-anchor="start" x="1391.1" y="-429" font-family="Arial" font-size="14.00" fill="#666666">[INTEGER]</text>
<polygon fill="none" stroke="black" points="1317.17,-386 1317.17,-416.8 1524.38,-416.8 1524.38,-386 1317.17,-386"/>
<text text-anchor="start" x="1324.17" y="-398.2" font-family="Arial" font-size="14.00">file_info_id </text>
<text text-anchor="start" x="1394.99" y="-398.2" font-family="Arial" font-size="14.00" fill="#666666">[INTEGER]</text>
<polygon fill="none" stroke="black" points="1317.17,-355.2 1317.17,-386 1524.38,-386 1524.38,-355.2 1317.17,-355.2"/>
<text text-anchor="start" x="1324.17" y="-367.4" font-family="Arial" font-size="14.00">file_name </text>
<text text-anchor="start" x="1388.76" y="-367.4" font-family="Arial" font-size="14.00" fill="#666666">[TEXT]</text>
</g>
<!-- file_set_file_info&#45;&gt;file_set -->
<g id="edge5" class="edge">
<title>file_set_file_info:file_set_id&#45;&gt;file_set:id</title>
<path fill="none" stroke="black" d="M1305.79,-431.11C1268.76,-422.15 1305.27,-360.01 1317.17,-312 1321.5,-294.51 1331.44,-293.48 1335.79,-276 1345.91,-235.37 1378.66,-181.8 1336.79,-181.8"/>
<polygon fill="black" stroke="black" points="1305.89,-431.12 1315.36,-436.64 1311.19,-431.68 1315.5,-432.13 1315.5,-432.13 1315.5,-432.13 1311.19,-431.68 1316.31,-427.69 1305.89,-431.12"/>
<text text-anchor="start" x="1323.17" y="-442.2" font-family="Arial" font-size="10.00">FOREIGN KEY (file_set_id) REFERENCES file_set (id) ON UPDATE NO ACTION ON DELETE NO ACTION MATCH NONE</text>
</g>
</g>
</svg>
