<?xml version="1.0" encoding="UTF-8" standalone="no"?>
<!DOCTYPE svg PUBLIC "-//W3C//DTD SVG 1.1//EN"
 "http://www.w3.org/Graphics/SVG/1.1/DTD/svg11.dtd">
<!-- Generated by graphviz version 12.1.2 (20240928.0832)
 -->
<!-- Title: release_system Pages: 1 -->
<svg width="2990pt" height="750pt"
 viewBox="0.00 0.00 2990.31 750.00" xmlns="http://www.w3.org/2000/svg" xmlns:xlink="http://www.w3.org/1999/xlink">
<g id="graph0" class="graph" transform="scale(1 1) rotate(0) translate(4 746)">
<title>release_system</title>
<polygon fill="white" stroke="none" points="-4,4 -4,-746 2986.31,-746 2986.31,4 -4,4"/>
<!-- release_system -->
<g id="node1" class="node">
<title>release_system</title>
<polygon fill="#efefef" stroke="none" points="1293.18,-509.2 1293.18,-544.8 1485.39,-544.8 1485.39,-509.2 1293.18,-509.2"/>
<polygon fill="none" stroke="black" points="1293.18,-509.2 1293.18,-544.8 1485.39,-544.8 1485.39,-509.2 1293.18,-509.2"/>
<text text-anchor="start" x="1300.18" y="-522.6" font-family="Arial Bold" font-size="18.00">release_system</text>
<text text-anchor="start" x="1409.14" y="-522.6" font-family="Arial" font-size="14.00">    </text>
<text text-anchor="start" x="1440.25" y="-522.6" font-family="Arial" font-size="14.00" fill="#666666">[table]</text>
<polygon fill="none" stroke="black" points="1293.18,-478.4 1293.18,-509.2 1485.39,-509.2 1485.39,-478.4 1293.18,-478.4"/>
<text text-anchor="start" x="1300.18" y="-490.6" font-family="Arial" font-size="14.00">release_id </text>
<text text-anchor="start" x="1368.67" y="-490.6" font-family="Arial" font-size="14.00" fill="#666666">[INTEGER]</text>
<polygon fill="none" stroke="black" points="1293.18,-447.6 1293.18,-478.4 1485.39,-478.4 1485.39,-447.6 1293.18,-447.6"/>
<text text-anchor="start" x="1300.18" y="-459.8" font-family="Arial" font-size="14.00">system_id </text>
<text text-anchor="start" x="1367.09" y="-459.8" font-family="Arial" font-size="14.00" fill="#666666">[INTEGER]</text>
<polygon fill="none" stroke="black" stroke-width="3" points="1291.68,-446.1 1291.68,-546.3 1486.89,-546.3 1486.89,-446.1 1291.68,-446.1"/>
</g>
<!-- release -->
<g id="node2" class="node">
<title>release</title>
<polygon fill="#efefef" stroke="none" points="850.86,-135.6 850.86,-171.2 1033.71,-171.2 1033.71,-135.6 850.86,-135.6"/>
<polygon fill="none" stroke="black" points="850.86,-135.6 850.86,-171.2 1033.71,-171.2 1033.71,-135.6 850.86,-135.6"/>
<text text-anchor="start" x="882.68" y="-149" font-family="Arial Bold" font-size="18.00">release</text>
<text text-anchor="start" x="932.64" y="-149" font-family="Arial" font-size="14.00">    </text>
<text text-anchor="start" x="963.75" y="-149" font-family="Arial" font-size="14.00" fill="#666666">[table]</text>
<polygon fill="none" stroke="black" points="850.86,-104.8 850.86,-135.6 1033.71,-135.6 1033.71,-104.8 850.86,-104.8"/>
<text text-anchor="start" x="857.86" y="-117" font-family="Arial" font-size="14.00">id </text>
<text text-anchor="start" x="872.64" y="-117" font-family="Arial" font-size="14.00" fill="#666666">[INTEGER]</text>
<polygon fill="none" stroke="black" points="850.86,-74 850.86,-104.8 1033.71,-104.8 1033.71,-74 850.86,-74"/>
<text text-anchor="start" x="857.86" y="-86.2" font-family="Arial" font-size="14.00">name </text>
<text text-anchor="start" x="896.77" y="-86.2" font-family="Arial" font-size="14.00" fill="#666666">[TEXT]</text>
<polygon fill="none" stroke="black" points="850.86,-43.2 850.86,-74 1033.71,-74 1033.71,-43.2 850.86,-43.2"/>
<text text-anchor="start" x="857.86" y="-55.4" font-family="Arial" font-size="14.00">thumbnail_filename </text>
<text text-anchor="start" x="983.15" y="-55.4" font-family="Arial" font-size="14.00" fill="#666666">[TEXT]</text>
</g>
<!-- release_system&#45;&gt;release -->
<g id="edge1" class="edge">
<title>release_system:release_id&#45;&gt;release:id</title>
<path fill="none" stroke="black" d="M1281.88,-493.3C1189.02,-483.74 1298.76,-338.23 1237.28,-250.4 1175.91,-162.72 1141.74,-120.2 1034.71,-120.2"/>
<polygon fill="black" stroke="black" points="1281.86,-493.3 1291.63,-498.28 1287.18,-493.56 1291.51,-493.77 1291.51,-493.77 1291.51,-493.77 1287.18,-493.56 1292.06,-489.29 1281.86,-493.3"/>
<text text-anchor="start" x="737.3" y="-503.8" font-family="Arial" font-size="10.00">FOREIGN KEY (release_id) REFERENCES release (id) ON UPDATE NO ACTION ON DELETE CASCADE MATCH NONE</text>
</g>
<!-- system -->
<g id="node6" class="node">
<title>system</title>
<polygon fill="#efefef" stroke="none" points="1895.66,-120.2 1895.66,-155.8 2028.91,-155.8 2028.91,-120.2 1895.66,-120.2"/>
<polygon fill="none" stroke="black" points="1895.66,-120.2 1895.66,-155.8 2028.91,-155.8 2028.91,-120.2 1895.66,-120.2"/>
<text text-anchor="start" x="1902.66" y="-133.6" font-family="Arial Bold" font-size="18.00">system</text>
<text text-anchor="start" x="1952.66" y="-133.6" font-family="Arial" font-size="14.00">    </text>
<text text-anchor="start" x="1983.77" y="-133.6" font-family="Arial" font-size="14.00" fill="#666666">[table]</text>
<polygon fill="none" stroke="black" points="1895.66,-89.4 1895.66,-120.2 2028.91,-120.2 2028.91,-89.4 1895.66,-89.4"/>
<text text-anchor="start" x="1902.66" y="-101.6" font-family="Arial" font-size="14.00">id </text>
<text text-anchor="start" x="1917.44" y="-101.6" font-family="Arial" font-size="14.00" fill="#666666">[INTEGER]</text>
<polygon fill="none" stroke="black" points="1895.66,-58.6 1895.66,-89.4 2028.91,-89.4 2028.91,-58.6 1895.66,-58.6"/>
<text text-anchor="start" x="1902.66" y="-70.8" font-family="Arial" font-size="14.00">name </text>
<text text-anchor="start" x="1941.57" y="-70.8" font-family="Arial" font-size="14.00" fill="#666666">[TEXT]</text>
</g>
<!-- release_system&#45;&gt;system -->
<g id="edge5" class="edge">
<title>release_system:system_id&#45;&gt;system:id</title>
<path fill="none" stroke="black" d="M1496.43,-462.44C1576.29,-452.77 1479.58,-321.27 1541.28,-250.4 1652.82,-122.28 1724.79,-104.8 1894.66,-104.8"/>
<polygon fill="black" stroke="black" points="1496.71,-462.42 1486.47,-458.49 1491.38,-462.72 1487.06,-462.96 1487.06,-462.96 1487.06,-462.96 1491.38,-462.72 1486.98,-467.47 1496.71,-462.42"/>
<text text-anchor="start" x="1493.39" y="-473" font-family="Arial" font-size="10.00">FOREIGN KEY (system_id) REFERENCES system (id) ON UPDATE NO ACTION ON DELETE CASCADE MATCH NONE</text>
</g>
<!-- release_file_set -->
<g id="node3" class="node">
<title>release_file_set</title>
<polygon fill="#efefef" stroke="none" points="365.69,-509.2 365.69,-544.8 560.88,-544.8 560.88,-509.2 365.69,-509.2"/>
<polygon fill="none" stroke="black" points="365.69,-509.2 365.69,-544.8 560.88,-544.8 560.88,-509.2 365.69,-509.2"/>
<text text-anchor="start" x="372.69" y="-522.6" font-family="Arial Bold" font-size="18.00">release_file_set</text>
<text text-anchor="start" x="484.63" y="-522.6" font-family="Arial" font-size="14.00">    </text>
<text text-anchor="start" x="515.74" y="-522.6" font-family="Arial" font-size="14.00" fill="#666666">[table]</text>
<polygon fill="none" stroke="black" points="365.69,-478.4 365.69,-509.2 560.88,-509.2 560.88,-478.4 365.69,-478.4"/>
<text text-anchor="start" x="372.69" y="-490.6" font-family="Arial" font-size="14.00">release_id </text>
<text text-anchor="start" x="441.18" y="-490.6" font-family="Arial" font-size="14.00" fill="#666666">[INTEGER]</text>
<polygon fill="none" stroke="black" points="365.69,-447.6 365.69,-478.4 560.88,-478.4 560.88,-447.6 365.69,-447.6"/>
<text text-anchor="start" x="372.69" y="-459.8" font-family="Arial" font-size="14.00">file_set_id </text>
<text text-anchor="start" x="439.62" y="-459.8" font-family="Arial" font-size="14.00" fill="#666666">[INTEGER]</text>
</g>
<!-- release_file_set&#45;&gt;release -->
<g id="edge2" class="edge">
<title>release_file_set:release_id&#45;&gt;release:id</title>
<path fill="none" stroke="black" d="M572.13,-493.3C664.35,-483.61 549.63,-336.27 613.28,-250.4 684.76,-153.99 729.84,-120.2 849.86,-120.2"/>
<polygon fill="black" stroke="black" points="572.2,-493.29 561.99,-489.29 566.87,-493.55 562.55,-493.77 562.55,-493.77 562.55,-493.77 566.87,-493.55 562.44,-498.28 572.2,-493.29"/>
<text text-anchor="start" x="7" y="-503.8" font-family="Arial" font-size="10.00">FOREIGN KEY (release_id) REFERENCES release (id) ON UPDATE NO ACTION ON DELETE CASCADE MATCH NONE</text>
</g>
<!-- release_software_title -->
<g id="node4" class="node">
<title>release_software_title</title>
<polygon fill="#efefef" stroke="none" points="665.7,-509.2 665.7,-544.8 906.87,-544.8 906.87,-509.2 665.7,-509.2"/>
<polygon fill="none" stroke="black" points="665.7,-509.2 665.7,-544.8 906.87,-544.8 906.87,-509.2 665.7,-509.2"/>
<text text-anchor="start" x="672.7" y="-522.6" font-family="Arial Bold" font-size="18.00">release_software_title</text>
<text text-anchor="start" x="830.62" y="-522.6" font-family="Arial" font-size="14.00">    </text>
<text text-anchor="start" x="861.74" y="-522.6" font-family="Arial" font-size="14.00" fill="#666666">[table]</text>
<polygon fill="none" stroke="black" points="665.7,-478.4 665.7,-509.2 906.87,-509.2 906.87,-478.4 665.7,-478.4"/>
<text text-anchor="start" x="672.7" y="-490.6" font-family="Arial" font-size="14.00">release_id </text>
<text text-anchor="start" x="741.19" y="-490.6" font-family="Arial" font-size="14.00" fill="#666666">[INTEGER]</text>
<polygon fill="none" stroke="black" points="665.7,-447.6 665.7,-478.4 906.87,-478.4 906.87,-447.6 665.7,-447.6"/>
<text text-anchor="start" x="672.7" y="-459.8" font-family="Arial" font-size="14.00">software_title_id </text>
<text text-anchor="start" x="777.75" y="-459.8" font-family="Arial" font-size="14.00" fill="#666666">[INTEGER]</text>
</g>
<!-- release_software_title&#45;&gt;release -->
<g id="edge3" class="edge">
<title>release_software_title:release_id&#45;&gt;release:id</title>
<path fill="none" stroke="black" d="M917.94,-493.29C1059.23,-477.92 685.43,-120.2 849.86,-120.2"/>
<polygon fill="black" stroke="black" points="918.19,-493.28 907.98,-489.29 912.87,-493.55 908.54,-493.77 908.54,-493.77 908.54,-493.77 912.87,-493.55 908.43,-498.28 918.19,-493.28"/>
<text text-anchor="start" x="352.99" y="-477.8" font-family="Arial" font-size="10.00">FOREIGN KEY (release_id) REFERENCES release (id) ON UPDATE NO ACTION ON DELETE CASCADE MATCH NONE</text>
</g>
<!-- release_item -->
<g id="node5" class="node">
<title>release_item</title>
<polygon fill="#efefef" stroke="none" points="1011.18,-540 1011.18,-575.6 1185.39,-575.6 1185.39,-540 1011.18,-540"/>
<polygon fill="none" stroke="black" points="1011.18,-540 1011.18,-575.6 1185.39,-575.6 1185.39,-540 1011.18,-540"/>
<text text-anchor="start" x="1018.18" y="-553.4" font-family="Arial Bold" font-size="18.00">release_item</text>
<text text-anchor="start" x="1109.13" y="-553.4" font-family="Arial" font-size="14.00">    </text>
<text text-anchor="start" x="1140.25" y="-553.4" font-family="Arial" font-size="14.00" fill="#666666">[table]</text>
<polygon fill="none" stroke="black" points="1011.18,-509.2 1011.18,-540 1185.39,-540 1185.39,-509.2 1011.18,-509.2"/>
<text text-anchor="start" x="1018.18" y="-521.4" font-family="Arial" font-size="14.00">id </text>
<text text-anchor="start" x="1032.97" y="-521.4" font-family="Arial" font-size="14.00" fill="#666666">[INTEGER]</text>
<polygon fill="none" stroke="black" points="1011.18,-478.4 1011.18,-509.2 1185.39,-509.2 1185.39,-478.4 1011.18,-478.4"/>
<text text-anchor="start" x="1018.18" y="-490.6" font-family="Arial" font-size="14.00">release_id </text>
<text text-anchor="start" x="1086.67" y="-490.6" font-family="Arial" font-size="14.00" fill="#666666">[INTEGER]</text>
<polygon fill="none" stroke="black" points="1011.18,-447.6 1011.18,-478.4 1185.39,-478.4 1185.39,-447.6 1011.18,-447.6"/>
<text text-anchor="start" x="1018.18" y="-459.8" font-family="Arial" font-size="14.00">item_type </text>
<text text-anchor="start" x="1082.77" y="-459.8" font-family="Arial" font-size="14.00" fill="#666666">[INTEGER]</text>
<polygon fill="none" stroke="black" points="1011.18,-416.8 1011.18,-447.6 1185.39,-447.6 1185.39,-416.8 1011.18,-416.8"/>
<text text-anchor="start" x="1018.18" y="-429" font-family="Arial" font-size="14.00">notes </text>
<text text-anchor="start" x="1056.32" y="-429" font-family="Arial" font-size="14.00" fill="#666666">[TEXT]</text>
</g>
<!-- release_item&#45;&gt;release -->
<g id="edge4" class="edge">
<title>release_item:release_id&#45;&gt;release:id</title>
<path fill="none" stroke="black" d="M1000.17,-493.29C858.89,-477.92 1197.54,-120.2 1034.71,-120.2"/>
<polygon fill="black" stroke="black" points="999.86,-493.27 1009.62,-498.28 1005.19,-493.55 1009.51,-493.77 1009.51,-493.77 1009.51,-493.77 1005.19,-493.55 1010.08,-489.29 999.86,-493.27"/>
<text text-anchor="start" x="876.71" y="-477.8" font-family="Arial" font-size="10.00">FOREIGN KEY (release_id) REFERENCES release (id) ON UPDATE NO ACTION ON DELETE CASCADE MATCH NONE</text>
</g>
<!-- emulator -->
<g id="node7" class="node">
<title>emulator</title>
<polygon fill="#efefef" stroke="none" points="1592.99,-570.8 1592.99,-606.4 1755.58,-606.4 1755.58,-570.8 1592.99,-570.8"/>
<polygon fill="none" stroke="black" points="1592.99,-570.8 1592.99,-606.4 1755.58,-606.4 1755.58,-570.8 1592.99,-570.8"/>
<text text-anchor="start" x="1607.67" y="-584.2" font-family="Arial Bold" font-size="18.00">emulator</text>
<text text-anchor="start" x="1671.65" y="-584.2" font-family="Arial" font-size="14.00">    </text>
<text text-anchor="start" x="1702.76" y="-584.2" font-family="Arial" font-size="14.00" fill="#666666">[table]</text>
<polygon fill="none" stroke="black" points="1592.99,-540 1592.99,-570.8 1755.58,-570.8 1755.58,-540 1592.99,-540"/>
<text text-anchor="start" x="1599.99" y="-552.2" font-family="Arial" font-size="14.00">id </text>
<text text-anchor="start" x="1614.77" y="-552.2" font-family="Arial" font-size="14.00" fill="#666666">[INTEGER]</text>
<polygon fill="none" stroke="black" points="1592.99,-509.2 1592.99,-540 1755.58,-540 1755.58,-509.2 1592.99,-509.2"/>
<text text-anchor="start" x="1599.99" y="-521.4" font-family="Arial" font-size="14.00">name </text>
<text text-anchor="start" x="1638.9" y="-521.4" font-family="Arial" font-size="14.00" fill="#666666">[TEXT]</text>
<polygon fill="none" stroke="black" points="1592.99,-478.4 1592.99,-509.2 1755.58,-509.2 1755.58,-478.4 1592.99,-478.4"/>
<text text-anchor="start" x="1599.99" y="-490.6" font-family="Arial" font-size="14.00">executable </text>
<text text-anchor="start" x="1671.59" y="-490.6" font-family="Arial" font-size="14.00" fill="#666666">[TEXT]</text>
<polygon fill="none" stroke="black" points="1592.99,-447.6 1592.99,-478.4 1755.58,-478.4 1755.58,-447.6 1592.99,-447.6"/>
<text text-anchor="start" x="1599.99" y="-459.8" font-family="Arial" font-size="14.00">extract_files </text>
<text text-anchor="start" x="1678.57" y="-459.8" font-family="Arial" font-size="14.00" fill="#666666">[INTEGER]</text>
<polygon fill="none" stroke="black" points="1592.99,-416.8 1592.99,-447.6 1755.58,-447.6 1755.58,-416.8 1592.99,-416.8"/>
<text text-anchor="start" x="1599.99" y="-429" font-family="Arial" font-size="14.00">arguments </text>
<text text-anchor="start" x="1670.02" y="-429" font-family="Arial" font-size="14.00" fill="#666666">[TEXT]</text>
<polygon fill="none" stroke="black" points="1592.99,-386 1592.99,-416.8 1755.58,-416.8 1755.58,-386 1592.99,-386"/>
<text text-anchor="start" x="1599.99" y="-398.2" font-family="Arial" font-size="14.00">system_id </text>
<text text-anchor="start" x="1666.9" y="-398.2" font-family="Arial" font-size="14.00" fill="#666666">[INTEGER]</text>
</g>
<!-- emulator&#45;&gt;system -->
<g id="edge6" class="edge">
<title>emulator:system_id&#45;&gt;system:id</title>
<path fill="none" stroke="black" d="M1766.83,-400.69C1822.57,-392.33 1780.11,-311.4 1808.28,-250.4 1839.83,-182.09 1819.42,-104.8 1894.66,-104.8"/>
<polygon fill="black" stroke="black" points="1766.89,-400.69 1756.61,-396.89 1761.57,-401.06 1757.25,-401.35 1757.25,-401.35 1757.25,-401.35 1761.57,-401.06 1757.22,-405.87 1766.89,-400.69"/>
<text text-anchor="start" x="1623.67" y="-385.4" font-family="Arial" font-size="10.00">FOREIGN KEY (system_id) REFERENCES system (id) ON UPDATE NO ACTION ON DELETE CASCADE MATCH NONE</text>
</g>
<!-- file_info_system -->
<g id="node8" class="node">
<title>file_info_system</title>
<polygon fill="#efefef" stroke="none" points="1860.17,-509.2 1860.17,-544.8 2064.4,-544.8 2064.4,-509.2 1860.17,-509.2"/>
<polygon fill="none" stroke="black" points="1860.17,-509.2 1860.17,-544.8 2064.4,-544.8 2064.4,-509.2 1860.17,-509.2"/>
<text text-anchor="start" x="1867.17" y="-522.6" font-family="Arial Bold" font-size="18.00">file_info_system</text>
<text text-anchor="start" x="1988.15" y="-522.6" font-family="Arial" font-size="14.00">    </text>
<text text-anchor="start" x="2019.27" y="-522.6" font-family="Arial" font-size="14.00" fill="#666666">[table]</text>
<polygon fill="none" stroke="black" points="1860.17,-478.4 1860.17,-509.2 2064.4,-509.2 2064.4,-478.4 1860.17,-478.4"/>
<text text-anchor="start" x="1867.17" y="-490.6" font-family="Arial" font-size="14.00">file_info_id </text>
<text text-anchor="start" x="1937.99" y="-490.6" font-family="Arial" font-size="14.00" fill="#666666">[INTEGER]</text>
<polygon fill="none" stroke="black" points="1860.17,-447.6 1860.17,-478.4 2064.4,-478.4 2064.4,-447.6 1860.17,-447.6"/>
<text text-anchor="start" x="1867.17" y="-459.8" font-family="Arial" font-size="14.00">system_id </text>
<text text-anchor="start" x="1934.08" y="-459.8" font-family="Arial" font-size="14.00" fill="#666666">[INTEGER]</text>
</g>
<!-- file_info_system&#45;&gt;system -->
<g id="edge7" class="edge">
<title>file_info_system:system_id&#45;&gt;system:id</title>
<path fill="none" stroke="black" d="M1962.59,-436.58C1971.67,-283.8 2181.44,-104.8 2029.91,-104.8"/>
<polygon fill="black" stroke="black" points="1962.6,-436.27 1957.8,-446.13 1962.44,-441.6 1962.3,-445.93 1962.3,-445.93 1962.3,-445.93 1962.44,-441.6 1966.79,-446.4 1962.6,-436.27"/>
<text text-anchor="start" x="1544.16" y="-430.6" font-family="Arial" font-size="10.00">FOREIGN KEY (system_id) REFERENCES system (id) ON UPDATE NO ACTION ON DELETE NO ACTION MATCH NONE</text>
</g>
<!-- dat_file -->
<g id="node9" class="node">
<title>dat_file</title>
<polygon fill="#efefef" stroke="none" points="2168.83,-663.2 2168.83,-698.8 2319.74,-698.8 2319.74,-663.2 2168.83,-663.2"/>
<polygon fill="none" stroke="black" points="2168.83,-663.2 2168.83,-698.8 2319.74,-698.8 2319.74,-663.2 2168.83,-663.2"/>
<text text-anchor="start" x="2182.17" y="-676.6" font-family="Arial Bold" font-size="18.00">dat_file</text>
<text text-anchor="start" x="2237.15" y="-676.6" font-family="Arial" font-size="14.00">    </text>
<text text-anchor="start" x="2268.26" y="-676.6" font-family="Arial" font-size="14.00" fill="#666666">[table]</text>
<polygon fill="none" stroke="black" points="2168.83,-632.4 2168.83,-663.2 2319.74,-663.2 2319.74,-632.4 2168.83,-632.4"/>
<text text-anchor="start" x="2175.83" y="-644.6" font-family="Arial" font-size="14.00">id </text>
<text text-anchor="start" x="2190.61" y="-644.6" font-family="Arial" font-size="14.00" fill="#666666">[INTEGER]</text>
<polygon fill="none" stroke="black" points="2168.83,-601.6 2168.83,-632.4 2319.74,-632.4 2319.74,-601.6 2168.83,-601.6"/>
<text text-anchor="start" x="2175.83" y="-613.8" font-family="Arial" font-size="14.00">dat_id </text>
<text text-anchor="start" x="2217.86" y="-613.8" font-family="Arial" font-size="14.00" fill="#666666">[INTEGER]</text>
<polygon fill="none" stroke="black" points="2168.83,-570.8 2168.83,-601.6 2319.74,-601.6 2319.74,-570.8 2168.83,-570.8"/>
<text text-anchor="start" x="2175.83" y="-583" font-family="Arial" font-size="14.00">name </text>
<text text-anchor="start" x="2214.74" y="-583" font-family="Arial" font-size="14.00" fill="#666666">[TEXT]</text>
<polygon fill="none" stroke="black" points="2168.83,-540 2168.83,-570.8 2319.74,-570.8 2319.74,-540 2168.83,-540"/>
<text text-anchor="start" x="2175.83" y="-552.2" font-family="Arial" font-size="14.00">description </text>
<text text-anchor="start" x="2247.42" y="-552.2" font-family="Arial" font-size="14.00" fill="#666666">[TEXT]</text>
<polygon fill="none" stroke="black" points="2168.83,-509.2 2168.83,-540 2319.74,-540 2319.74,-509.2 2168.83,-509.2"/>
<text text-anchor="start" x="2175.83" y="-521.4" font-family="Arial" font-size="14.00">version </text>
<text text-anchor="start" x="2224.85" y="-521.4" font-family="Arial" font-size="14.00" fill="#666666">[TEXT]</text>
<polygon fill="none" stroke="black" points="2168.83,-478.4 2168.83,-509.2 2319.74,-509.2 2319.74,-478.4 2168.83,-478.4"/>
<text text-anchor="start" x="2175.83" y="-490.6" font-family="Arial" font-size="14.00">date </text>
<text text-anchor="start" x="2206.96" y="-490.6" font-family="Arial" font-size="14.00" fill="#666666">[TEXT]</text>
<polygon fill="none" stroke="black" points="2168.83,-447.6 2168.83,-478.4 2319.74,-478.4 2319.74,-447.6 2168.83,-447.6"/>
<text text-anchor="start" x="2175.83" y="-459.8" font-family="Arial" font-size="14.00">author </text>
<text text-anchor="start" x="2219.41" y="-459.8" font-family="Arial" font-size="14.00" fill="#666666">[TEXT]</text>
<polygon fill="none" stroke="black" points="2168.83,-416.8 2168.83,-447.6 2319.74,-447.6 2319.74,-416.8 2168.83,-416.8"/>
<text text-anchor="start" x="2175.83" y="-429" font-family="Arial" font-size="14.00">homepage </text>
<text text-anchor="start" x="2245.88" y="-429" font-family="Arial" font-size="14.00" fill="#666666">[TEXT]</text>
<polygon fill="none" stroke="black" points="2168.83,-386 2168.83,-416.8 2319.74,-416.8 2319.74,-386 2168.83,-386"/>
<text text-anchor="start" x="2175.83" y="-398.2" font-family="Arial" font-size="14.00">url </text>
<text text-anchor="start" x="2195.27" y="-398.2" font-family="Arial" font-size="14.00" fill="#666666">[TEXT]</text>
<polygon fill="none" stroke="black" points="2168.83,-355.2 2168.83,-386 2319.74,-386 2319.74,-355.2 2168.83,-355.2"/>
<text text-anchor="start" x="2175.83" y="-367.4" font-family="Arial" font-size="14.00">subset </text>
<text text-anchor="start" x="2220.96" y="-367.4" font-family="Arial" font-size="14.00" fill="#666666">[TEXT]</text>
<polygon fill="none" stroke="black" points="2168.83,-324.4 2168.83,-355.2 2319.74,-355.2 2319.74,-324.4 2168.83,-324.4"/>
<text text-anchor="start" x="2175.83" y="-336.6" font-family="Arial" font-size="14.00">imported_at </text>
<text text-anchor="start" x="2253.65" y="-336.6" font-family="Arial" font-size="14.00" fill="#666666">[TEXT]</text>
<polygon fill="none" stroke="black" points="2168.83,-293.6 2168.83,-324.4 2319.74,-324.4 2319.74,-293.6 2168.83,-293.6"/>
<text text-anchor="start" x="2175.83" y="-305.8" font-family="Arial" font-size="14.00">system_id </text>
<text text-anchor="start" x="2242.74" y="-305.8" font-family="Arial" font-size="14.00" fill="#666666">[INTEGER]</text>
</g>
<!-- dat_file&#45;&gt;system -->
<g id="edge8" class="edge">
<title>dat_file:system_id&#45;&gt;system:id</title>
<path fill="none" stroke="black" d="M2157.86,-306.71C2109.42,-284.27 2081.25,-104.8 2029.91,-104.8"/>
<polygon fill="black" stroke="black" points="2157.75,-306.68 2166.49,-313.31 2162.95,-307.88 2167.17,-308.85 2167.17,-308.85 2167.17,-308.85 2162.95,-307.88 2168.51,-304.54 2157.75,-306.68"/>
<text text-anchor="start" x="1615.2" y="-319" font-family="Arial" font-size="10.00">FOREIGN KEY (system_id) REFERENCES system (id) ON UPDATE NO ACTION ON DELETE CASCADE MATCH NONE</text>
</g>
<!-- system_libretro_core -->
<g id="node10" class="node">
<title>system_libretro_core</title>
<polygon fill="#efefef" stroke="none" points="2423.68,-524.6 2423.68,-560.2 2658.89,-560.2 2658.89,-524.6 2423.68,-524.6"/>
<polygon fill="none" stroke="black" points="2423.68,-524.6 2423.68,-560.2 2658.89,-560.2 2658.89,-524.6 2423.68,-524.6"/>
<text text-anchor="start" x="2430.68" y="-538" font-family="Arial Bold" font-size="18.00">system_libretro_core</text>
<text text-anchor="start" x="2582.63" y="-538" font-family="Arial" font-size="14.00">    </text>
<text text-anchor="start" x="2613.75" y="-538" font-family="Arial" font-size="14.00" fill="#666666">[table]</text>
<polygon fill="none" stroke="black" points="2423.68,-493.8 2423.68,-524.6 2658.89,-524.6 2658.89,-493.8 2423.68,-493.8"/>
<text text-anchor="start" x="2430.68" y="-506" font-family="Arial" font-size="14.00">id </text>
<text text-anchor="start" x="2445.47" y="-506" font-family="Arial" font-size="14.00" fill="#666666">[INTEGER]</text>
<polygon fill="none" stroke="black" points="2423.68,-463 2423.68,-493.8 2658.89,-493.8 2658.89,-463 2423.68,-463"/>
<text text-anchor="start" x="2430.68" y="-475.2" font-family="Arial" font-size="14.00">system_id </text>
<text text-anchor="start" x="2497.59" y="-475.2" font-family="Arial" font-size="14.00" fill="#666666">[INTEGER]</text>
<polygon fill="none" stroke="black" points="2423.68,-432.2 2423.68,-463 2658.89,-463 2658.89,-432.2 2423.68,-432.2"/>
<text text-anchor="start" x="2430.68" y="-444.4" font-family="Arial" font-size="14.00">core_name </text>
<text text-anchor="start" x="2504.61" y="-444.4" font-family="Arial" font-size="14.00" fill="#666666">[TEXT]</text>
</g>
<!-- system_libretro_core&#45;&gt;system -->
<g id="edge9" class="edge">
<title>system_libretro_core:system_id&#45;&gt;system:id</title>
<path fill="none" stroke="black" d="M2412.29,-477.83C2327.31,-467.78 2436.2,-327.35 2372.28,-250.4 2266.63,-123.2 2195.27,-104.8 2029.91,-104.8"/>
<polygon fill="black" stroke="black" points="2412.36,-477.83 2422.1,-482.87 2417.69,-478.13 2422.01,-478.36 2422.01,-478.36 2422.01,-478.36 2417.69,-478.13 2422.59,-473.89 2412.36,-477.83"/>
<text text-anchor="start" x="2429.68" y="-488.4" font-family="Arial" font-size="10.00">FOREIGN KEY (system_id) REFERENCES system (id) ON UPDATE NO ACTION ON DELETE CASCADE MATCH NONE</text>
</g>
</g>
</svg>
