<?xml version="1.0" encoding="UTF-8" standalone="no"?>
<!DOCTYPE svg PUBLIC "-//W3C//DTD SVG 1.1//EN"
 "http://www.w3.org/Graphics/SVG/1.1/DTD/svg11.dtd">
<!-- Generated by graphviz version 12.1.2 (20240928.0832)
 -->
<!-- Title: db.sqlite Pages: 1 -->
<svg width="2973pt" height="846pt"
 viewBox="0.00 0.00 2973.14 846.40" xmlns="http://www.w3.org/2000/svg" xmlns:xlink="http://www.w3.org/1999/xlink">
<g id="graph0" class="graph" transform="scale(1 1) rotate(0) translate(4 842.4)">
<title>db.sqlite</title>
<polygon fill="white" stroke="none" points="-4,4 -4,-842.4 2969.14,-842.4 2969.14,4 -4,4"/>
<!-- _sqlx_migrations -->
<g id="node1" class="node">
<title>_sqlx_migrations</title>
<polygon fill="#efefef" stroke="none" points="43.2,-759.6 43.2,-795.2 251.45,-795.2 251.45,-759.6 43.2,-759.6"/>
<polygon fill="none" stroke="black" points="43.2,-759.6 43.2,-795.2 251.45,-795.2 251.45,-759.6 43.2,-759.6"/>
<text text-anchor="start" x="50.2" y="-773" font-family="Arial Bold" font-size="18.00">_sqlx_migrations</text>
<text text-anchor="start" x="175.2" y="-773" font-family="Arial" font-size="14.00">    </text>
<text text-anchor="start" x="206.32" y="-773" font-family="Arial" font-size="14.00" fill="#666666">[table]</text>
<polygon fill="none" stroke="black" points="43.2,-728.8 43.2,-759.6 251.45,-759.6 251.45,-728.8 43.2,-728.8"/>
<text text-anchor="start" x="50.2" y="-741" font-family="Arial" font-size="14.00">version </text>
<text text-anchor="start" x="99.22" y="-741" font-family="Arial" font-size="14.00" fill="#666666">[BIGINT]</text>
<polygon fill="none" stroke="black" points="43.2,-698 43.2,-728.8 251.45,-728.8 251.45,-698 43.2,-698"/>
<text text-anchor="start" x="50.2" y="-710.2" font-family="Arial" font-size="14.00">description </text>
<text text-anchor="start" x="121.79" y="-710.2" font-family="Arial" font-size="14.00" fill="#666666">[TEXT]</text>
<polygon fill="none" stroke="black" points="43.2,-667.2 43.2,-698 251.45,-698 251.45,-667.2 43.2,-667.2"/>
<text text-anchor="start" x="50.2" y="-679.4" font-family="Arial" font-size="14.00">installed_on </text>
<text text-anchor="start" x="128.81" y="-679.4" font-family="Arial" font-size="14.00" fill="#666666">[TIMESTAMP]</text>
<polygon fill="none" stroke="black" points="43.2,-636.4 43.2,-667.2 251.45,-667.2 251.45,-636.4 43.2,-636.4"/>
<text text-anchor="start" x="50.2" y="-648.6" font-family="Arial" font-size="14.00">success </text>
<text text-anchor="start" x="104.66" y="-648.6" font-family="Arial" font-size="14.00" fill="#666666">[BOOLEAN]</text>
<polygon fill="none" stroke="black" points="43.2,-605.6 43.2,-636.4 251.45,-636.4 251.45,-605.6 43.2,-605.6"/>
<text text-anchor="start" x="50.2" y="-617.8" font-family="Arial" font-size="14.00">checksum </text>
<text text-anchor="start" x="117.11" y="-617.8" font-family="Arial" font-size="14.00" fill="#666666">[BLOB]</text>
<polygon fill="none" stroke="black" points="43.2,-574.8 43.2,-605.6 251.45,-605.6 251.45,-574.8 43.2,-574.8"/>
<text text-anchor="start" x="50.2" y="-587" font-family="Arial" font-size="14.00">execution_time </text>
<text text-anchor="start" x="148.25" y="-587" font-family="Arial" font-size="14.00" fill="#666666">[BIGINT]</text>
</g>
<!-- system -->
<g id="node2" class="node">
<title>system</title>
<polygon fill="#efefef" stroke="none" points="652.7,-370.6 652.7,-406.2 785.95,-406.2 785.95,-370.6 652.7,-370.6"/>
<polygon fill="none" stroke="black" points="652.7,-370.6 652.7,-406.2 785.95,-406.2 785.95,-370.6 652.7,-370.6"/>
<text text-anchor="start" x="659.7" y="-384" font-family="Arial Bold" font-size="18.00">system</text>
<text text-anchor="start" x="709.7" y="-384" font-family="Arial" font-size="14.00">    </text>
<text text-anchor="start" x="740.82" y="-384" font-family="Arial" font-size="14.00" fill="#666666">[table]</text>
<polygon fill="none" stroke="black" points="652.7,-339.8 652.7,-370.6 785.95,-370.6 785.95,-339.8 652.7,-339.8"/>
<text text-anchor="start" x="659.7" y="-352" font-family="Arial" font-size="14.00">id </text>
<text text-anchor="start" x="674.48" y="-352" font-family="Arial" font-size="14.00" fill="#666666">[INTEGER]</text>
<polygon fill="none" stroke="black" points="652.7,-309 652.7,-339.8 785.95,-339.8 785.95,-309 652.7,-309"/>
<text text-anchor="start" x="659.7" y="-321.2" font-family="Arial" font-size="14.00">name </text>
<text text-anchor="start" x="698.61" y="-321.2" font-family="Arial" font-size="14.00" fill="#666666">[TEXT]</text>
</g>
<!-- emulator -->
<g id="node3" class="node">
<title>emulator</title>
<polygon fill="#efefef" stroke="none" points="356.03,-759.6 356.03,-795.2 518.62,-795.2 518.62,-759.6 356.03,-759.6"/>
<polygon fill="none" stroke="black" points="356.03,-759.6 356.03,-795.2 518.62,-795.2 518.62,-759.6 356.03,-759.6"/>
<text text-anchor="start" x="370.71" y="-773" font-family="Arial Bold" font-size="18.00">emulator</text>
<text text-anchor="start" x="434.69" y="-773" font-family="Arial" font-size="14.00">    </text>
<text text-anchor="start" x="465.8" y="-773" font-family="Arial" font-size="14.00" fill="#666666">[table]</text>
<polygon fill="none" stroke="black" points="356.03,-728.8 356.03,-759.6 518.62,-759.6 518.62,-728.8 356.03,-728.8"/>
<text text-anchor="start" x="363.03" y="-741" font-family="Arial" font-size="14.00">id </text>
<text text-anchor="start" x="377.82" y="-741" font-family="Arial" font-size="14.00" fill="#666666">[INTEGER]</text>
<polygon fill="none" stroke="black" points="356.03,-698 356.03,-728.8 518.62,-728.8 518.62,-698 356.03,-698"/>
<text text-anchor="start" x="363.03" y="-710.2" font-family="Arial" font-size="14.00">name </text>
<text text-anchor="start" x="401.94" y="-710.2" font-family="Arial" font-size="14.00" fill="#666666">[TEXT]</text>
<polygon fill="none" stroke="black" points="356.03,-667.2 356.03,-698 518.62,-698 518.62,-667.2 356.03,-667.2"/>
<text text-anchor="start" x="363.03" y="-679.4" font-family="Arial" font-size="14.00">executable </text>
<text text-anchor="start" x="434.64" y="-679.4" font-family="Arial" font-size="14.00" fill="#666666">[TEXT]</text>
<polygon fill="none" stroke="black" points="356.03,-636.4 356.03,-667.2 518.62,-667.2 518.62,-636.4 356.03,-636.4"/>
<text text-anchor="start" x="363.03" y="-648.6" font-family="Arial" font-size="14.00">extract_files </text>
<text text-anchor="start" x="441.62" y="-648.6" font-family="Arial" font-size="14.00" fill="#666666">[INTEGER]</text>
<polygon fill="none" stroke="black" points="356.03,-605.6 356.03,-636.4 518.62,-636.4 518.62,-605.6 356.03,-605.6"/>
<text text-anchor="start" x="363.03" y="-617.8" font-family="Arial" font-size="14.00">arguments </text>
<text text-anchor="start" x="433.06" y="-617.8" font-family="Arial" font-size="14.00" fill="#666666">[TEXT]</text>
<polygon fill="none" stroke="black" points="356.03,-574.8 356.03,-605.6 518.62,-605.6 518.62,-574.8 356.03,-574.8"/>
<text text-anchor="start" x="363.03" y="-587" font-family="Arial" font-size="14.00">system_id </text>
<text text-anchor="start" x="429.94" y="-587" font-family="Arial" font-size="14.00" fill="#666666">[INTEGER]</text>
</g>
<!-- emulator&#45;&gt;system -->
<g id="edge1" class="edge">
<title>emulator:system_id&#45;&gt;system:id</title>
<path fill="none" stroke="black" d="M529.68,-587.87C581.13,-563.47 595.3,-355.2 651.7,-355.2"/>
<polygon fill="black" stroke="black" points="529.69,-587.87 518.93,-585.74 524.49,-589.07 520.27,-590.05 520.27,-590.05 520.27,-590.05 524.49,-589.07 520.96,-594.51 529.69,-587.87"/>
<text text-anchor="start" x="526.62" y="-574.2" font-family="Arial" font-size="10.00">FOREIGN KEY (system_id) REFERENCES system (id) ON UPDATE NO ACTION ON DELETE CASCADE MATCH NONE</text>
</g>
<!-- franchise -->
<g id="node4" class="node">
<title>franchise</title>
<polygon fill="#efefef" stroke="none" points="1530.72,-104.8 1530.72,-140.4 1679.93,-140.4 1679.93,-104.8 1530.72,-104.8"/>
<polygon fill="none" stroke="black" points="1530.72,-104.8 1530.72,-140.4 1679.93,-140.4 1679.93,-104.8 1530.72,-104.8"/>
<text text-anchor="start" x="1537.72" y="-118.2" font-family="Arial Bold" font-size="18.00">franchise</text>
<text text-anchor="start" x="1603.68" y="-118.2" font-family="Arial" font-size="14.00">    </text>
<text text-anchor="start" x="1634.8" y="-118.2" font-family="Arial" font-size="14.00" fill="#666666">[table]</text>
<polygon fill="none" stroke="black" points="1530.72,-74 1530.72,-104.8 1679.93,-104.8 1679.93,-74 1530.72,-74"/>
<text text-anchor="start" x="1537.72" y="-86.2" font-family="Arial" font-size="14.00">id </text>
<text text-anchor="start" x="1552.5" y="-86.2" font-family="Arial" font-size="14.00" fill="#666666">[INTEGER]</text>
<polygon fill="none" stroke="black" points="1530.72,-43.2 1530.72,-74 1679.93,-74 1679.93,-43.2 1530.72,-43.2"/>
<text text-anchor="start" x="1537.72" y="-55.4" font-family="Arial" font-size="14.00">name </text>
<text text-anchor="start" x="1576.63" y="-55.4" font-family="Arial" font-size="14.00" fill="#666666">[TEXT]</text>
</g>
<!-- software_title -->
<g id="node5" class="node">
<title>software_title</title>
<polygon fill="#efefef" stroke="none" points="1514.22,-386 1514.22,-421.6 1696.44,-421.6 1696.44,-386 1514.22,-386"/>
<polygon fill="none" stroke="black" points="1514.22,-386 1514.22,-421.6 1696.44,-421.6 1696.44,-386 1514.22,-386"/>
<text text-anchor="start" x="1521.22" y="-399.4" font-family="Arial Bold" font-size="18.00">software_title</text>
<text text-anchor="start" x="1620.18" y="-399.4" font-family="Arial" font-size="14.00">    </text>
<text text-anchor="start" x="1651.3" y="-399.4" font-family="Arial" font-size="14.00" fill="#666666">[table]</text>
<polygon fill="none" stroke="black" points="1514.22,-355.2 1514.22,-386 1696.44,-386 1696.44,-355.2 1514.22,-355.2"/>
<text text-anchor="start" x="1521.22" y="-367.4" font-family="Arial" font-size="14.00">id </text>
<text text-anchor="start" x="1536" y="-367.4" font-family="Arial" font-size="14.00" fill="#666666">[INTEGER]</text>
<polygon fill="none" stroke="black" points="1514.22,-324.4 1514.22,-355.2 1696.44,-355.2 1696.44,-324.4 1514.22,-324.4"/>
<text text-anchor="start" x="1521.22" y="-336.6" font-family="Arial" font-size="14.00">name </text>
<text text-anchor="start" x="1560.13" y="-336.6" font-family="Arial" font-size="14.00" fill="#666666">[TEXT]</text>
<polygon fill="none" stroke="black" points="1514.22,-293.6 1514.22,-324.4 1696.44,-324.4 1696.44,-293.6 1514.22,-293.6"/>
<text text-anchor="start" x="1521.22" y="-305.8" font-family="Arial" font-size="14.00">franchise_id </text>
<text text-anchor="start" x="1600.6" y="-305.8" font-family="Arial" font-size="14.00" fill="#666666">[INTEGER]</text>
</g>
<!-- software_title&#45;&gt;franchise -->
<g id="edge2" class="edge">
<title>software_title:franchise_id&#45;&gt;franchise:id</title>
<path fill="none" stroke="black" d="M1605.97,-282.32C1612.29,-234.36 1663.39,-236.09 1679.93,-183.6 1692.52,-143.67 1722.8,-89.4 1680.93,-89.4"/>
<polygon fill="black" stroke="black" points="1605.97,-282.29 1600.86,-291.98 1605.64,-287.61 1605.37,-291.93 1605.37,-291.93 1605.37,-291.93 1605.64,-287.61 1609.84,-292.55 1605.97,-282.29"/>
<text text-anchor="start" x="1612.33" y="-302.6" font-family="Arial" font-size="10.00">FOREIGN KEY (franchise_id) REFERENCES franchise (id) ON UPDATE NO ACTION ON DELETE NO ACTION MATCH NONE</text>
</g>
<!-- release -->
<g id="node6" class="node">
<title>release</title>
<polygon fill="#efefef" stroke="none" points="996.72,-370.6 996.72,-406.2 1129.93,-406.2 1129.93,-370.6 996.72,-370.6"/>
<polygon fill="none" stroke="black" points="996.72,-370.6 996.72,-406.2 1129.93,-406.2 1129.93,-370.6 996.72,-370.6"/>
<text text-anchor="start" x="1003.72" y="-384" font-family="Arial Bold" font-size="18.00">release</text>
<text text-anchor="start" x="1053.68" y="-384" font-family="Arial" font-size="14.00">    </text>
<text text-anchor="start" x="1084.79" y="-384" font-family="Arial" font-size="14.00" fill="#666666">[table]</text>
<polygon fill="none" stroke="black" points="996.72,-339.8 996.72,-370.6 1129.93,-370.6 1129.93,-339.8 996.72,-339.8"/>
<text text-anchor="start" x="1003.72" y="-352" font-family="Arial" font-size="14.00">id </text>
<text text-anchor="start" x="1018.51" y="-352" font-family="Arial" font-size="14.00" fill="#666666">[INTEGER]</text>
<polygon fill="none" stroke="black" points="996.72,-309 996.72,-339.8 1129.93,-339.8 1129.93,-309 996.72,-309"/>
<text text-anchor="start" x="1003.72" y="-321.2" font-family="Arial" font-size="14.00">name </text>
<text text-anchor="start" x="1042.63" y="-321.2" font-family="Arial" font-size="14.00" fill="#666666">[TEXT]</text>
</g>
<!-- file_info -->
<g id="node7" class="node">
<title>file_info</title>
<polygon fill="#efefef" stroke="none" points="1234.79,-416.8 1234.79,-452.4 1409.86,-452.4 1409.86,-416.8 1234.79,-416.8"/>
<polygon fill="none" stroke="black" points="1234.79,-416.8 1234.79,-452.4 1409.86,-452.4 1409.86,-416.8 1234.79,-416.8"/>
<text text-anchor="start" x="1256.71" y="-430.2" font-family="Arial Bold" font-size="18.00">file_info</text>
<text text-anchor="start" x="1318.69" y="-430.2" font-family="Arial" font-size="14.00">    </text>
<text text-anchor="start" x="1349.81" y="-430.2" font-family="Arial" font-size="14.00" fill="#666666">[table]</text>
<polygon fill="none" stroke="black" points="1234.79,-386 1234.79,-416.8 1409.86,-416.8 1409.86,-386 1234.79,-386"/>
<text text-anchor="start" x="1241.79" y="-398.2" font-family="Arial" font-size="14.00">id </text>
<text text-anchor="start" x="1256.58" y="-398.2" font-family="Arial" font-size="14.00" fill="#666666">[INTEGER]</text>
<polygon fill="none" stroke="black" points="1234.79,-355.2 1234.79,-386 1409.86,-386 1409.86,-355.2 1234.79,-355.2"/>
<text text-anchor="start" x="1241.79" y="-367.4" font-family="Arial" font-size="14.00">sha1_checksum </text>
<text text-anchor="start" x="1346.85" y="-367.4" font-family="Arial" font-size="14.00" fill="#666666">[BLOB]</text>
<polygon fill="none" stroke="black" points="1234.79,-324.4 1234.79,-355.2 1409.86,-355.2 1409.86,-324.4 1234.79,-324.4"/>
<text text-anchor="start" x="1241.79" y="-336.6" font-family="Arial" font-size="14.00">file_size </text>
<text text-anchor="start" x="1296.26" y="-336.6" font-family="Arial" font-size="14.00" fill="#666666">[INTEGER]</text>
<polygon fill="none" stroke="black" points="1234.79,-293.6 1234.79,-324.4 1409.86,-324.4 1409.86,-293.6 1234.79,-293.6"/>
<text text-anchor="start" x="1241.79" y="-305.8" font-family="Arial" font-size="14.00">archive_file_name </text>
<text text-anchor="start" x="1359.3" y="-305.8" font-family="Arial" font-size="14.00" fill="#666666">[TEXT]</text>
<polygon fill="none" stroke="black" points="1234.79,-262.8 1234.79,-293.6 1409.86,-293.6 1409.86,-262.8 1234.79,-262.8"/>
<text text-anchor="start" x="1241.79" y="-275" font-family="Arial" font-size="14.00">file_type </text>
<text text-anchor="start" x="1297.83" y="-275" font-family="Arial" font-size="14.00" fill="#666666">[INTEGER]</text>
</g>
<!-- file_set -->
<g id="node8" class="node">
<title>file_set</title>
<polygon fill="#efefef" stroke="none" points="1854.31,-416.8 1854.31,-452.4 1994.35,-452.4 1994.35,-416.8 1854.31,-416.8"/>
<polygon fill="none" stroke="black" points="1854.31,-416.8 1854.31,-452.4 1994.35,-452.4 1994.35,-416.8 1854.31,-416.8"/>
<text text-anchor="start" x="1863.21" y="-430.2" font-family="Arial Bold" font-size="18.00">file_set</text>
<text text-anchor="start" x="1916.19" y="-430.2" font-family="Arial" font-size="14.00">    </text>
<text text-anchor="start" x="1947.31" y="-430.2" font-family="Arial" font-size="14.00" fill="#666666">[table]</text>
<polygon fill="none" stroke="black" points="1854.31,-386 1854.31,-416.8 1994.35,-416.8 1994.35,-386 1854.31,-386"/>
<text text-anchor="start" x="1861.31" y="-398.2" font-family="Arial" font-size="14.00">id </text>
<text text-anchor="start" x="1876.09" y="-398.2" font-family="Arial" font-size="14.00" fill="#666666">[INTEGER]</text>
<polygon fill="none" stroke="black" points="1854.31,-355.2 1854.31,-386 1994.35,-386 1994.35,-355.2 1854.31,-355.2"/>
<text text-anchor="start" x="1861.31" y="-367.4" font-family="Arial" font-size="14.00">file_name </text>
<text text-anchor="start" x="1925.9" y="-367.4" font-family="Arial" font-size="14.00" fill="#666666">[TEXT]</text>
<polygon fill="none" stroke="black" points="1854.31,-324.4 1854.31,-355.2 1994.35,-355.2 1994.35,-324.4 1854.31,-324.4"/>
<text text-anchor="start" x="1861.31" y="-336.6" font-family="Arial" font-size="14.00">file_type </text>
<text text-anchor="start" x="1917.34" y="-336.6" font-family="Arial" font-size="14.00" fill="#666666">[INTEGER]</text>
<polygon fill="none" stroke="black" points="1854.31,-293.6 1854.31,-324.4 1994.35,-324.4 1994.35,-293.6 1854.31,-293.6"/>
<text text-anchor="start" x="1861.31" y="-305.8" font-family="Arial" font-size="14.00">name </text>
<text text-anchor="start" x="1900.22" y="-305.8" font-family="Arial" font-size="14.00" fill="#666666">[TEXT]</text>
<polygon fill="none" stroke="black" points="1854.31,-262.8 1854.31,-293.6 1994.35,-293.6 1994.35,-262.8 1854.31,-262.8"/>
<text text-anchor="start" x="1861.31" y="-275" font-family="Arial" font-size="14.00">source </text>
<text text-anchor="start" x="1907.22" y="-275" font-family="Arial" font-size="14.00" fill="#666666">[TEXT]</text>
</g>
<!-- file_set_file_info -->
<g id="node9" class="node">
<title>file_set_file_info</title>
<polygon fill="#efefef" stroke="none" points="1874.72,-713.4 1874.72,-749 2081.93,-749 2081.93,-713.4 1874.72,-713.4"/>
<polygon fill="none" stroke="black" points="1874.72,-713.4 1874.72,-749 2081.93,-749 2081.93,-713.4 1874.72,-713.4"/>
<text text-anchor="start" x="1881.72" y="-726.8" font-family="Arial Bold" font-size="18.00">file_set_file_info</text>
<text text-anchor="start" x="2005.68" y="-726.8" font-family="Arial" font-size="14.00">    </text>
<text text-anchor="start" x="2036.8" y="-726.8" font-family="Arial" font-size="14.00" fill="#666666">[table]</text>
<polygon fill="none" stroke="black" points="1874.72,-682.6 1874.72,-713.4 2081.93,-713.4 2081.93,-682.6 1874.72,-682.6"/>
<text text-anchor="start" x="1881.72" y="-694.8" font-family="Arial" font-size="14.00">file_set_id </text>
<text text-anchor="start" x="1948.65" y="-694.8" font-family="Arial" font-size="14.00" fill="#666666">[INTEGER]</text>
<polygon fill="none" stroke="black" points="1874.72,-651.8 1874.72,-682.6 2081.93,-682.6 2081.93,-651.8 1874.72,-651.8"/>
<text text-anchor="start" x="1881.72" y="-664" font-family="Arial" font-size="14.00">file_info_id </text>
<text text-anchor="start" x="1952.55" y="-664" font-family="Arial" font-size="14.00" fill="#666666">[INTEGER]</text>
<polygon fill="none" stroke="black" points="1874.72,-621 1874.72,-651.8 2081.93,-651.8 2081.93,-621 1874.72,-621"/>
<text text-anchor="start" x="1881.72" y="-633.2" font-family="Arial" font-size="14.00">file_name </text>
<text text-anchor="start" x="1946.31" y="-633.2" font-family="Arial" font-size="14.00" fill="#666666">[TEXT]</text>
</g>
<!-- file_set_file_info&#45;&gt;file_info -->
<g id="edge3" class="edge">
<title>file_set_file_info:file_info_id&#45;&gt;file_info:id</title>
<path fill="none" stroke="black" d="M1863.37,-666.17C1816.62,-655.74 1870.38,-568.44 1822.33,-531.6 1694.72,-433.76 1596.37,-584.42 1462.33,-495.6 1422.56,-469.25 1458.57,-401.4 1410.86,-401.4"/>
<polygon fill="black" stroke="black" points="1863.43,-666.18 1872.94,-671.65 1868.74,-666.71 1873.05,-667.13 1873.05,-667.13 1873.05,-667.13 1868.74,-666.71 1873.83,-662.69 1863.43,-666.18"/>
<text text-anchor="start" x="1308.29" y="-677.2" font-family="Arial" font-size="10.00">FOREIGN KEY (file_info_id) REFERENCES file_info (id) ON UPDATE NO ACTION ON DELETE NO ACTION MATCH NONE</text>
</g>
<!-- file_set_file_info&#45;&gt;file_set -->
<g id="edge4" class="edge">
<title>file_set_file_info:file_set_id&#45;&gt;file_set:id</title>
<path fill="none" stroke="black" d="M1863.65,-696.95C1824.4,-687.86 1851.41,-621.66 1874.72,-577.8 1905,-520.84 1964,-552.53 1994.35,-495.6 2014.04,-458.65 2037.22,-401.4 1995.35,-401.4"/>
<polygon fill="black" stroke="black" points="1863.44,-696.93 1872.92,-702.44 1868.75,-697.48 1873.05,-697.93 1873.05,-697.93 1873.05,-697.93 1868.75,-697.48 1873.85,-693.49 1863.44,-696.93"/>
<text text-anchor="start" x="1313.85" y="-708" font-family="Arial" font-size="10.00">FOREIGN KEY (file_set_id) REFERENCES file_set (id) ON UPDATE NO ACTION ON DELETE NO ACTION MATCH NONE</text>
</g>
<!-- release_file_set -->
<g id="node10" class="node">
<title>release_file_set</title>
<polygon fill="#efefef" stroke="none" points="1574.73,-698 1574.73,-733.6 1769.92,-733.6 1769.92,-698 1574.73,-698"/>
<polygon fill="none" stroke="black" points="1574.73,-698 1574.73,-733.6 1769.92,-733.6 1769.92,-698 1574.73,-698"/>
<text text-anchor="start" x="1581.73" y="-711.4" font-family="Arial Bold" font-size="18.00">release_file_set</text>
<text text-anchor="start" x="1693.67" y="-711.4" font-family="Arial" font-size="14.00">    </text>
<text text-anchor="start" x="1724.78" y="-711.4" font-family="Arial" font-size="14.00" fill="#666666">[table]</text>
<polygon fill="none" stroke="black" points="1574.73,-667.2 1574.73,-698 1769.92,-698 1769.92,-667.2 1574.73,-667.2"/>
<text text-anchor="start" x="1581.73" y="-679.4" font-family="Arial" font-size="14.00">release_id </text>
<text text-anchor="start" x="1650.22" y="-679.4" font-family="Arial" font-size="14.00" fill="#666666">[INTEGER]</text>
<polygon fill="none" stroke="black" points="1574.73,-636.4 1574.73,-667.2 1769.92,-667.2 1769.92,-636.4 1574.73,-636.4"/>
<text text-anchor="start" x="1581.73" y="-648.6" font-family="Arial" font-size="14.00">file_set_id </text>
<text text-anchor="start" x="1648.66" y="-648.6" font-family="Arial" font-size="14.00" fill="#666666">[INTEGER]</text>
</g>
<!-- release_file_set&#45;&gt;release -->
<g id="edge6" class="edge">
<title>release_file_set:release_id&#45;&gt;release:id</title>
<path fill="none" stroke="black" d="M1563.36,-681.67C1510.64,-671.11 1574.68,-573.43 1522.33,-531.6 1403.61,-436.75 1302.12,-589.09 1182.33,-495.6 1129.94,-454.72 1197.38,-355.2 1130.93,-355.2"/>
<polygon fill="black" stroke="black" points="1563.44,-681.68 1573,-687.05 1568.75,-682.15 1573.06,-682.54 1573.06,-682.54 1573.06,-682.54 1568.75,-682.15 1573.8,-678.09 1563.44,-681.68"/>
<text text-anchor="start" x="1580.73" y="-692.6" font-family="Arial" font-size="10.00">FOREIGN KEY (release_id) REFERENCES release (id) ON UPDATE NO ACTION ON DELETE CASCADE MATCH NONE</text>
</g>
<!-- release_file_set&#45;&gt;file_set -->
<g id="edge5" class="edge">
<title>release_file_set:file_set_id&#45;&gt;file_set:id</title>
<path fill="none" stroke="black" d="M1781.13,-651.08C1878.85,-636.39 1739.81,-401.4 1853.31,-401.4"/>
<polygon fill="black" stroke="black" points="1781.23,-651.07 1770.94,-647.29 1775.91,-651.45 1771.59,-651.75 1771.59,-651.75 1771.59,-651.75 1775.91,-651.45 1771.57,-656.27 1781.23,-651.07"/>
<text text-anchor="start" x="1218.27" y="-635.8" font-family="Arial" font-size="10.00">FOREIGN KEY (file_set_id) REFERENCES file_set (id) ON UPDATE NO ACTION ON DELETE CASCADE MATCH NONE</text>
</g>
<!-- setting -->
<g id="node11" class="node">
<title>setting</title>
<polygon fill="#efefef" stroke="none" points="2186.7,-698 2186.7,-733.6 2317.95,-733.6 2317.95,-698 2186.7,-698"/>
<polygon fill="none" stroke="black" points="2186.7,-698 2186.7,-733.6 2317.95,-733.6 2317.95,-698 2186.7,-698"/>
<text text-anchor="start" x="2193.7" y="-711.4" font-family="Arial Bold" font-size="18.00">setting</text>
<text text-anchor="start" x="2241.7" y="-711.4" font-family="Arial" font-size="14.00">    </text>
<text text-anchor="start" x="2272.81" y="-711.4" font-family="Arial" font-size="14.00" fill="#666666">[table]</text>
<polygon fill="none" stroke="black" points="2186.7,-667.2 2186.7,-698 2317.95,-698 2317.95,-667.2 2186.7,-667.2"/>
<text text-anchor="start" x="2193.7" y="-679.4" font-family="Arial" font-size="14.00">key </text>
<text text-anchor="start" x="2219.38" y="-679.4" font-family="Arial" font-size="14.00" fill="#666666">[TEXT]</text>
<polygon fill="none" stroke="black" points="2186.7,-636.4 2186.7,-667.2 2317.95,-667.2 2317.95,-636.4 2186.7,-636.4"/>
<text text-anchor="start" x="2193.7" y="-648.6" font-family="Arial" font-size="14.00">value </text>
<text text-anchor="start" x="2231.06" y="-648.6" font-family="Arial" font-size="14.00" fill="#666666">[TEXT]</text>
</g>
<!-- document_viewer -->
<g id="node12" class="node">
<title>document_viewer</title>
<polygon fill="#efefef" stroke="none" points="2422.33,-759.6 2422.33,-795.2 2636.32,-795.2 2636.32,-759.6 2422.33,-759.6"/>
<polygon fill="none" stroke="black" points="2422.33,-759.6 2422.33,-795.2 2636.32,-795.2 2636.32,-759.6 2422.33,-759.6"/>
<text text-anchor="start" x="2430.22" y="-773" font-family="Arial Bold" font-size="18.00">document_viewer</text>
<text text-anchor="start" x="2559.18" y="-773" font-family="Arial" font-size="14.00">    </text>
<text text-anchor="start" x="2590.29" y="-773" font-family="Arial" font-size="14.00" fill="#666666">[table]</text>
<polygon fill="none" stroke="black" points="2422.33,-728.8 2422.33,-759.6 2636.32,-759.6 2636.32,-728.8 2422.33,-728.8"/>
<text text-anchor="start" x="2429.33" y="-741" font-family="Arial" font-size="14.00">id </text>
<text text-anchor="start" x="2444.12" y="-741" font-family="Arial" font-size="14.00" fill="#666666">[INTEGER]</text>
<polygon fill="none" stroke="black" points="2422.33,-698 2422.33,-728.8 2636.32,-728.8 2636.32,-698 2422.33,-698"/>
<text text-anchor="start" x="2429.33" y="-710.2" font-family="Arial" font-size="14.00">name </text>
<text text-anchor="start" x="2468.24" y="-710.2" font-family="Arial" font-size="14.00" fill="#666666">[TEXT]</text>
<polygon fill="none" stroke="black" points="2422.33,-667.2 2422.33,-698 2636.32,-698 2636.32,-667.2 2422.33,-667.2"/>
<text text-anchor="start" x="2429.33" y="-679.4" font-family="Arial" font-size="14.00">executable </text>
<text text-anchor="start" x="2500.94" y="-679.4" font-family="Arial" font-size="14.00" fill="#666666">[TEXT]</text>
<polygon fill="none" stroke="black" points="2422.33,-636.4 2422.33,-667.2 2636.32,-667.2 2636.32,-636.4 2422.33,-636.4"/>
<text text-anchor="start" x="2429.33" y="-648.6" font-family="Arial" font-size="14.00">document_type </text>
<text text-anchor="start" x="2528.95" y="-648.6" font-family="Arial" font-size="14.00" fill="#666666">[INTEGER]</text>
<polygon fill="none" stroke="black" points="2422.33,-605.6 2422.33,-636.4 2636.32,-636.4 2636.32,-605.6 2422.33,-605.6"/>
<text text-anchor="start" x="2429.33" y="-617.8" font-family="Arial" font-size="14.00">arguments </text>
<text text-anchor="start" x="2499.36" y="-617.8" font-family="Arial" font-size="14.00" fill="#666666">[TEXT]</text>
<polygon fill="none" stroke="black" points="2422.33,-574.8 2422.33,-605.6 2636.32,-605.6 2636.32,-574.8 2422.33,-574.8"/>
<text text-anchor="start" x="2429.33" y="-587" font-family="Arial" font-size="14.00">cleanup_temp_files </text>
<text text-anchor="start" x="2553.85" y="-587" font-family="Arial" font-size="14.00" fill="#666666">[BOOLEAN]</text>
</g>
<!-- release_system -->
<g id="node13" class="node">
<title>release_system</title>
<polygon fill="#efefef" stroke="none" points="623.22,-698 623.22,-733.6 815.43,-733.6 815.43,-698 623.22,-698"/>
<polygon fill="none" stroke="black" points="623.22,-698 623.22,-733.6 815.43,-733.6 815.43,-698 623.22,-698"/>
<text text-anchor="start" x="630.22" y="-711.4" font-family="Arial Bold" font-size="18.00">release_system</text>
<text text-anchor="start" x="739.18" y="-711.4" font-family="Arial" font-size="14.00">    </text>
<text text-anchor="start" x="770.3" y="-711.4" font-family="Arial" font-size="14.00" fill="#666666">[table]</text>
<polygon fill="none" stroke="black" points="623.22,-667.2 623.22,-698 815.43,-698 815.43,-667.2 623.22,-667.2"/>
<text text-anchor="start" x="630.22" y="-679.4" font-family="Arial" font-size="14.00">release_id </text>
<text text-anchor="start" x="698.71" y="-679.4" font-family="Arial" font-size="14.00" fill="#666666">[INTEGER]</text>
<polygon fill="none" stroke="black" points="623.22,-636.4 623.22,-667.2 815.43,-667.2 815.43,-636.4 623.22,-636.4"/>
<text text-anchor="start" x="630.22" y="-648.6" font-family="Arial" font-size="14.00">system_id </text>
<text text-anchor="start" x="697.13" y="-648.6" font-family="Arial" font-size="14.00" fill="#666666">[INTEGER]</text>
</g>
<!-- release_system&#45;&gt;system -->
<g id="edge7" class="edge">
<title>release_system:system_id&#45;&gt;system:id</title>
<path fill="none" stroke="black" d="M719.73,-625.22C729.42,-499.38 911.69,-355.2 786.95,-355.2"/>
<polygon fill="black" stroke="black" points="719.73,-625.07 714.84,-634.89 719.52,-630.4 719.35,-634.73 719.35,-634.73 719.35,-634.73 719.52,-630.4 723.84,-635.24 719.73,-625.07"/>
<text text-anchor="start" x="586.42" y="-619.4" font-family="Arial" font-size="10.00">FOREIGN KEY (system_id) REFERENCES system (id) ON UPDATE NO ACTION ON DELETE CASCADE MATCH NONE</text>
</g>
<!-- release_system&#45;&gt;release -->
<g id="edge8" class="edge">
<title>release_system:release_id&#45;&gt;release:id</title>
<path fill="none" stroke="black" d="M826.67,-681.88C882.18,-673.39 837.39,-591.28 868.33,-531.6 912.83,-445.74 899.01,-355.2 995.72,-355.2"/>
<polygon fill="black" stroke="black" points="826.74,-681.88 816.45,-678.09 821.42,-682.25 817.1,-682.55 817.1,-682.55 817.1,-682.55 821.42,-682.25 817.08,-687.07 826.74,-681.88"/>
<text text-anchor="start" x="823.43" y="-692.6" font-family="Arial" font-size="10.00">FOREIGN KEY (release_id) REFERENCES release (id) ON UPDATE NO ACTION ON DELETE CASCADE MATCH NONE</text>
</g>
<!-- release_software_title -->
<g id="node14" class="node">
<title>release_software_title</title>
<polygon fill="#efefef" stroke="none" points="1228.74,-698 1228.74,-733.6 1469.91,-733.6 1469.91,-698 1228.74,-698"/>
<polygon fill="none" stroke="black" points="1228.74,-698 1228.74,-733.6 1469.91,-733.6 1469.91,-698 1228.74,-698"/>
<text text-anchor="start" x="1235.74" y="-711.4" font-family="Arial Bold" font-size="18.00">release_software_title</text>
<text text-anchor="start" x="1393.66" y="-711.4" font-family="Arial" font-size="14.00">    </text>
<text text-anchor="start" x="1424.78" y="-711.4" font-family="Arial" font-size="14.00" fill="#666666">[table]</text>
<polygon fill="none" stroke="black" points="1228.74,-667.2 1228.74,-698 1469.91,-698 1469.91,-667.2 1228.74,-667.2"/>
<text text-anchor="start" x="1235.74" y="-679.4" font-family="Arial" font-size="14.00">release_id </text>
<text text-anchor="start" x="1304.23" y="-679.4" font-family="Arial" font-size="14.00" fill="#666666">[INTEGER]</text>
<polygon fill="none" stroke="black" points="1228.74,-636.4 1228.74,-667.2 1469.91,-667.2 1469.91,-636.4 1228.74,-636.4"/>
<text text-anchor="start" x="1235.74" y="-648.6" font-family="Arial" font-size="14.00">software_title_id </text>
<text text-anchor="start" x="1340.79" y="-648.6" font-family="Arial" font-size="14.00" fill="#666666">[INTEGER]</text>
</g>
<!-- release_software_title&#45;&gt;software_title -->
<g id="edge9" class="edge">
<title>release_software_title:software_title_id&#45;&gt;software_title:id</title>
<path fill="none" stroke="black" d="M1481.17,-651.09C1585.26,-635.56 1390.54,-370.6 1513.22,-370.6"/>
<polygon fill="black" stroke="black" points="1481.22,-651.09 1470.94,-647.29 1475.9,-651.45 1471.58,-651.75 1471.58,-651.75 1471.58,-651.75 1475.9,-651.45 1471.56,-656.27 1481.22,-651.09"/>
<text text-anchor="start" x="863.8" y="-661.8" font-family="Arial" font-size="10.00">FOREIGN KEY (software_title_id) REFERENCES software_title (id) ON UPDATE NO ACTION ON DELETE CASCADE MATCH NONE</text>
</g>
<!-- release_software_title&#45;&gt;release -->
<g id="edge10" class="edge">
<title>release_software_title:release_id&#45;&gt;release:id</title>
<path fill="none" stroke="black" d="M1217.9,-680.51C1156.73,-652.63 1203.25,-355.2 1130.93,-355.2"/>
<polygon fill="black" stroke="black" points="1217.63,-680.45 1226.48,-686.93 1222.85,-681.56 1227.08,-682.46 1227.08,-682.46 1227.08,-682.46 1222.85,-681.56 1228.35,-678.13 1217.63,-680.45"/>
<text text-anchor="start" x="672.86" y="-666.6" font-family="Arial" font-size="10.00">FOREIGN KEY (release_id) REFERENCES release (id) ON UPDATE NO ACTION ON DELETE CASCADE MATCH NONE</text>
</g>
<!-- file_info_system -->
<g id="node15" class="node">
<title>file_info_system</title>
<polygon fill="#efefef" stroke="none" points="920.21,-698 920.21,-733.6 1124.44,-733.6 1124.44,-698 920.21,-698"/>
<polygon fill="none" stroke="black" points="920.21,-698 920.21,-733.6 1124.44,-733.6 1124.44,-698 920.21,-698"/>
<text text-anchor="start" x="927.21" y="-711.4" font-family="Arial Bold" font-size="18.00">file_info_system</text>
<text text-anchor="start" x="1048.19" y="-711.4" font-family="Arial" font-size="14.00">    </text>
<text text-anchor="start" x="1079.31" y="-711.4" font-family="Arial" font-size="14.00" fill="#666666">[table]</text>
<polygon fill="none" stroke="black" points="920.21,-667.2 920.21,-698 1124.44,-698 1124.44,-667.2 920.21,-667.2"/>
<text text-anchor="start" x="927.21" y="-679.4" font-family="Arial" font-size="14.00">file_info_id </text>
<text text-anchor="start" x="998.04" y="-679.4" font-family="Arial" font-size="14.00" fill="#666666">[INTEGER]</text>
<polygon fill="none" stroke="black" points="920.21,-636.4 920.21,-667.2 1124.44,-667.2 1124.44,-636.4 920.21,-636.4"/>
<text text-anchor="start" x="927.21" y="-648.6" font-family="Arial" font-size="14.00">system_id </text>
<text text-anchor="start" x="994.12" y="-648.6" font-family="Arial" font-size="14.00" fill="#666666">[INTEGER]</text>
</g>
<!-- file_info_system&#45;&gt;system -->
<g id="edge11" class="edge">
<title>file_info_system:system_id&#45;&gt;system:id</title>
<path fill="none" stroke="black" d="M909.02,-650.99C864.65,-643.22 889.4,-581.36 867.33,-531.6 832.39,-452.85 873.11,-355.2 786.95,-355.2"/>
<polygon fill="black" stroke="black" points="908.91,-650.98 918.52,-656.26 914.22,-651.4 918.54,-651.75 918.54,-651.75 918.54,-651.75 914.22,-651.4 919.23,-647.29 908.91,-650.98"/>
<text text-anchor="start" x="784.5" y="-635.8" font-family="Arial" font-size="10.00">FOREIGN KEY (system_id) REFERENCES system (id) ON UPDATE NO ACTION ON DELETE NO ACTION MATCH NONE</text>
</g>
<!-- file_info_system&#45;&gt;file_info -->
<g id="edge12" class="edge">
<title>file_info_system:file_info_id&#45;&gt;file_info:id</title>
<path fill="none" stroke="black" d="M1135.7,-681.91C1191.66,-673.69 1152.05,-594.14 1176.33,-531.6 1199.22,-472.64 1170.54,-401.4 1233.79,-401.4"/>
<polygon fill="black" stroke="black" points="1135.76,-681.9 1125.47,-678.09 1130.43,-682.26 1126.11,-682.55 1126.11,-682.55 1126.11,-682.55 1130.43,-682.26 1126.08,-687.07 1135.76,-681.9"/>
<text text-anchor="start" x="567.22" y="-692.6" font-family="Arial" font-size="10.00">FOREIGN KEY (file_info_id) REFERENCES file_info (id) ON UPDATE NO ACTION ON DELETE CASCADE MATCH NONE</text>
</g>
<!-- file_sync_log -->
<g id="node16" class="node">
<title>file_sync_log</title>
<polygon fill="#efefef" stroke="none" points="2740.71,-759.6 2740.71,-795.2 2921.94,-795.2 2921.94,-759.6 2740.71,-759.6"/>
<polygon fill="none" stroke="black" points="2740.71,-759.6 2740.71,-795.2 2921.94,-795.2 2921.94,-759.6 2740.71,-759.6"/>
<text text-anchor="start" x="2747.71" y="-773" font-family="Arial Bold" font-size="18.00">file_sync_log</text>
<text text-anchor="start" x="2845.69" y="-773" font-family="Arial" font-size="14.00">    </text>
<text text-anchor="start" x="2876.81" y="-773" font-family="Arial" font-size="14.00" fill="#666666">[table]</text>
<polygon fill="none" stroke="black" points="2740.71,-728.8 2740.71,-759.6 2921.94,-759.6 2921.94,-728.8 2740.71,-728.8"/>
<text text-anchor="start" x="2747.71" y="-741" font-family="Arial" font-size="14.00">id </text>
<text text-anchor="start" x="2762.49" y="-741" font-family="Arial" font-size="14.00" fill="#666666">[INTEGER]</text>
<polygon fill="none" stroke="black" points="2740.71,-698 2740.71,-728.8 2921.94,-728.8 2921.94,-698 2740.71,-698"/>
<text text-anchor="start" x="2747.71" y="-710.2" font-family="Arial" font-size="14.00">file_info_id </text>
<text text-anchor="start" x="2818.54" y="-710.2" font-family="Arial" font-size="14.00" fill="#666666">[INTEGER]</text>
<polygon fill="none" stroke="black" points="2740.71,-667.2 2740.71,-698 2921.94,-698 2921.94,-667.2 2740.71,-667.2"/>
<text text-anchor="start" x="2747.71" y="-679.4" font-family="Arial" font-size="14.00">sync_time </text>
<text text-anchor="start" x="2814.62" y="-679.4" font-family="Arial" font-size="14.00" fill="#666666">[TIMESTAMP]</text>
<polygon fill="none" stroke="black" points="2740.71,-636.4 2740.71,-667.2 2921.94,-667.2 2921.94,-636.4 2740.71,-636.4"/>
<text text-anchor="start" x="2747.71" y="-648.6" font-family="Arial" font-size="14.00">status </text>
<text text-anchor="start" x="2788.95" y="-648.6" font-family="Arial" font-size="14.00" fill="#666666">[INTEGER]</text>
<polygon fill="none" stroke="black" points="2740.71,-605.6 2740.71,-636.4 2921.94,-636.4 2921.94,-605.6 2740.71,-605.6"/>
<text text-anchor="start" x="2747.71" y="-617.8" font-family="Arial" font-size="14.00">message </text>
<text text-anchor="start" x="2808.41" y="-617.8" font-family="Arial" font-size="14.00" fill="#666666">[TEXT]</text>
<polygon fill="none" stroke="black" points="2740.71,-574.8 2740.71,-605.6 2921.94,-605.6 2921.94,-574.8 2740.71,-574.8"/>
<text text-anchor="start" x="2747.71" y="-587" font-family="Arial" font-size="14.00">cloud_key </text>
<text text-anchor="start" x="2814.64" y="-587" font-family="Arial" font-size="14.00" fill="#666666">[TEXT]</text>
</g>
</g>
</svg>
