<?xml version="1.0" encoding="UTF-8" standalone="no"?>
<!DOCTYPE svg PUBLIC "-//W3C//DTD SVG 1.1//EN"
 "http://www.w3.org/Graphics/SVG/1.1/DTD/svg11.dtd">
<!-- Generated by graphviz version 12.1.2 (20240928.0832)
 -->
<!-- Title: db.sqlite Pages: 1 -->
<svg width="2972pt" height="846pt"
 viewBox="0.00 0.00 2971.63 846.40" xmlns="http://www.w3.org/2000/svg" xmlns:xlink="http://www.w3.org/1999/xlink">
<g id="graph0" class="graph" transform="scale(1 1) rotate(0) translate(4 842.4)">
<title>db.sqlite</title>
<polygon fill="white" stroke="none" points="-4,4 -4,-842.4 2967.63,-842.4 2967.63,4 -4,4"/>
<!-- _sqlx_migrations -->
<g id="node1" class="node">
<title>_sqlx_migrations</title>
<polygon fill="#efefef" stroke="none" points="43.2,-759.6 43.2,-795.2 251.45,-795.2 251.45,-759.6 43.2,-759.6"/>
<polygon fill="none" stroke="black" points="43.2,-759.6 43.2,-795.2 251.45,-795.2 251.45,-759.6 43.2,-759.6"/>
<text text-anchor="start" x="50.2" y="-773" font-family="Arial Bold" font-size="18.00">_sqlx_migrations</text>
<text text-anchor="start" x="175.2" y="-773" font-family="Arial" font-size="14.00">    </text>
<text text-anchor="start" x="206.32" y="-773" font-family="Arial" font-size="14.00" fill="#666666">[table]</text>
<polygon fill="none" stroke="black" points="43.2,-728.8 43.2,-759.6 251.45,-759.6 251.45,-728.8 43.2,-728.8"/>
<text text-anchor="start" x="50.2" y="-741" font-family="Arial" font-size="14.00">version </text>
<text text-anchor="start" x="99.22" y="-741" font-family="Arial" font-size="14.00" fill="#666666">[BIGINT]</text>
<polygon fill="none" stroke="black" points="43.2,-698 43.2,-728.8 251.45,-728.8 251.45,-698 43.2,-698"/>
<text text-anchor="start" x="50.2" y="-710.2" font-family="Arial" font-size="14.00">description </text>
<text text-anchor="start" x="121.79" y="-710.2" font-family="Arial" font-size="14.00" fill="#666666">[TEXT]</text>
<polygon fill="none" stroke="black" points="43.2,-667.2 43.2,-698 251.45,-698 251.45,-667.2 43.2,-667.2"/>
<text text-anchor="start" x="50.2" y="-679.4" font-family="Arial" font-size="14.00">installed_on </text>
<text text-anchor="start" x="128.81" y="-679.4" font-family="Arial" font-size="14.00" fill="#666666">[TIMESTAMP]</text>
<polygon fill="none" stroke="black" points="43.2,-636.4 43.2,-667.2 251.45,-667.2 251.45,-636.4 43.2,-636.4"/>
<text text-anchor="start" x="50.2" y="-648.6" font-family="Arial" font-size="14.00">success </text>
<text text-anchor="start" x="104.66" y="-648.6" font-family="Arial" font-size="14.00" fill="#666666">[BOOLEAN]</text>
<polygon fill="none" stroke="black" points="43.2,-605.6 43.2,-636.4 251.45,-636.4 251.45,-605.6 43.2,-605.6"/>
<text text-anchor="start" x="50.2" y="-617.8" font-family="Arial" font-size="14.00">checksum </text>
<text text-anchor="start" x="117.11" y="-617.8" font-family="Arial" font-size="14.00" fill="#666666">[BLOB]</text>
<polygon fill="none" stroke="black" points="43.2,-574.8 43.2,-605.6 251.45,-605.6 251.45,-574.8 43.2,-574.8"/>
<text text-anchor="start" x="50.2" y="-587" font-family="Arial" font-size="14.00">execution_time </text>
<text text-anchor="start" x="148.25" y="-587" font-family="Arial" font-size="14.00" fill="#666666">[BIGINT]</text>
</g>
<!-- system -->
<g id="node2" class="node">
<title>system</title>
<polygon fill="#efefef" stroke="none" points="652.7,-370.6 652.7,-406.2 785.95,-406.2 785.95,-370.6 652.7,-370.6"/>
<polygon fill="none" stroke="black" points="652.7,-370.6 652.7,-406.2 785.95,-406.2 785.95,-370.6 652.7,-370.6"/>
<text text-anchor="start" x="659.7" y="-384" font-family="Arial Bold" font-size="18.00">system</text>
<text text-anchor="start" x="709.7" y="-384" font-family="Arial" font-size="14.00">    </text>
<text text-anchor="start" x="740.82" y="-384" font-family="Arial" font-size="14.00" fill="#666666">[table]</text>
<polygon fill="none" stroke="black" points="652.7,-339.8 652.7,-370.6 785.95,-370.6 785.95,-339.8 652.7,-339.8"/>
<text text-anchor="start" x="659.7" y="-352" font-family="Arial" font-size="14.00">id </text>
<text text-anchor="start" x="674.48" y="-352" font-family="Arial" font-size="14.00" fill="#666666">[INTEGER]</text>
<polygon fill="none" stroke="black" points="652.7,-309 652.7,-339.8 785.95,-339.8 785.95,-309 652.7,-309"/>
<text text-anchor="start" x="659.7" y="-321.2" font-family="Arial" font-size="14.00">name </text>
<text text-anchor="start" x="698.61" y="-321.2" font-family="Arial" font-size="14.00" fill="#666666">[TEXT]</text>
</g>
<!-- emulator -->
<g id="node3" class="node">
<title>emulator</title>
<polygon fill="#efefef" stroke="none" points="356.03,-759.6 356.03,-795.2 518.62,-795.2 518.62,-759.6 356.03,-759.6"/>
<polygon fill="none" stroke="black" points="356.03,-759.6 356.03,-795.2 518.62,-795.2 518.62,-759.6 356.03,-759.6"/>
<text text-anchor="start" x="370.71" y="-773" font-family="Arial Bold" font-size="18.00">emulator</text>
<text text-anchor="start" x="434.69" y="-773" font-family="Arial" font-size="14.00">    </text>
<text text-anchor="start" x="465.8" y="-773" font-family="Arial" font-size="14.00" fill="#666666">[table]</text>
<polygon fill="none" stroke="black" points="356.03,-728.8 356.03,-759.6 518.62,-759.6 518.62,-728.8 356.03,-728.8"/>
<text text-anchor="start" x="363.03" y="-741" font-family="Arial" font-size="14.00">id </text>
<text text-anchor="start" x="377.82" y="-741" font-family="Arial" font-size="14.00" fill="#666666">[INTEGER]</text>
<polygon fill="none" stroke="black" points="356.03,-698 356.03,-728.8 518.62,-728.8 518.62,-698 356.03,-698"/>
<text text-anchor="start" x="363.03" y="-710.2" font-family="Arial" font-size="14.00">name </text>
<text text-anchor="start" x="401.94" y="-710.2" font-family="Arial" font-size="14.00" fill="#666666">[TEXT]</text>
<polygon fill="none" stroke="black" points="356.03,-667.2 356.03,-698 518.62,-698 518.62,-667.2 356.03,-667.2"/>
<text text-anchor="start" x="363.03" y="-679.4" font-family="Arial" font-size="14.00">executable </text>
<text text-anchor="start" x="434.64" y="-679.4" font-family="Arial" font-size="14.00" fill="#666666">[TEXT]</text>
<polygon fill="none" stroke="black" points="356.03,-636.4 356.03,-667.2 518.62,-667.2 518.62,-636.4 356.03,-636.4"/>
<text text-anchor="start" x="363.03" y="-648.6" font-family="Arial" font-size="14.00">extract_files </text>
<text text-anchor="start" x="441.62" y="-648.6" font-family="Arial" font-size="14.00" fill="#666666">[INTEGER]</text>
<polygon fill="none" stroke="black" points="356.03,-605.6 356.03,-636.4 518.62,-636.4 518.62,-605.6 356.03,-605.6"/>
<text text-anchor="start" x="363.03" y="-617.8" font-family="Arial" font-size="14.00">arguments </text>
<text text-anchor="start" x="433.06" y="-617.8" font-family="Arial" font-size="14.00" fill="#666666">[TEXT]</text>
<polygon fill="none" stroke="black" points="356.03,-574.8 356.03,-605.6 518.62,-605.6 518.62,-574.8 356.03,-574.8"/>
<text text-anchor="start" x="363.03" y="-587" font-family="Arial" font-size="14.00">system_id </text>
<text text-anchor="start" x="429.94" y="-587" font-family="Arial" font-size="14.00" fill="#666666">[INTEGER]</text>
</g>
<!-- emulator&#45;&gt;system -->
<g id="edge1" class="edge">
<title>emulator:system_id&#45;&gt;system:id</title>
<path fill="none" stroke="black" d="M529.68,-587.87C581.13,-563.47 595.3,-355.2 651.7,-355.2"/>
<polygon fill="black" stroke="black" points="529.69,-587.87 518.93,-585.74 524.49,-589.07 520.27,-590.05 520.27,-590.05 520.27,-590.05 524.49,-589.07 520.96,-594.51 529.69,-587.87"/>
<text text-anchor="start" x="526.62" y="-574.2" font-family="Arial" font-size="10.00">FOREIGN KEY (system_id) REFERENCES system (id) ON UPDATE NO ACTION ON DELETE CASCADE MATCH NONE</text>
</g>
<!-- franchise -->
<g id="node4" class="node">
<title>franchise</title>
<polygon fill="#efefef" stroke="none" points="1053.72,-104.8 1053.72,-140.4 1202.93,-140.4 1202.93,-104.8 1053.72,-104.8"/>
<polygon fill="none" stroke="black" points="1053.72,-104.8 1053.72,-140.4 1202.93,-140.4 1202.93,-104.8 1053.72,-104.8"/>
<text text-anchor="start" x="1060.72" y="-118.2" font-family="Arial Bold" font-size="18.00">franchise</text>
<text text-anchor="start" x="1126.68" y="-118.2" font-family="Arial" font-size="14.00">    </text>
<text text-anchor="start" x="1157.8" y="-118.2" font-family="Arial" font-size="14.00" fill="#666666">[table]</text>
<polygon fill="none" stroke="black" points="1053.72,-74 1053.72,-104.8 1202.93,-104.8 1202.93,-74 1053.72,-74"/>
<text text-anchor="start" x="1060.72" y="-86.2" font-family="Arial" font-size="14.00">id </text>
<text text-anchor="start" x="1075.5" y="-86.2" font-family="Arial" font-size="14.00" fill="#666666">[INTEGER]</text>
<polygon fill="none" stroke="black" points="1053.72,-43.2 1053.72,-74 1202.93,-74 1202.93,-43.2 1053.72,-43.2"/>
<text text-anchor="start" x="1060.72" y="-55.4" font-family="Arial" font-size="14.00">name </text>
<text text-anchor="start" x="1099.63" y="-55.4" font-family="Arial" font-size="14.00" fill="#666666">[TEXT]</text>
</g>
<!-- software_title -->
<g id="node5" class="node">
<title>software_title</title>
<polygon fill="#efefef" stroke="none" points="1037.22,-386 1037.22,-421.6 1219.44,-421.6 1219.44,-386 1037.22,-386"/>
<polygon fill="none" stroke="black" points="1037.22,-386 1037.22,-421.6 1219.44,-421.6 1219.44,-386 1037.22,-386"/>
<text text-anchor="start" x="1044.22" y="-399.4" font-family="Arial Bold" font-size="18.00">software_title</text>
<text text-anchor="start" x="1143.18" y="-399.4" font-family="Arial" font-size="14.00">    </text>
<text text-anchor="start" x="1174.3" y="-399.4" font-family="Arial" font-size="14.00" fill="#666666">[table]</text>
<polygon fill="none" stroke="black" points="1037.22,-355.2 1037.22,-386 1219.44,-386 1219.44,-355.2 1037.22,-355.2"/>
<text text-anchor="start" x="1044.22" y="-367.4" font-family="Arial" font-size="14.00">id </text>
<text text-anchor="start" x="1059" y="-367.4" font-family="Arial" font-size="14.00" fill="#666666">[INTEGER]</text>
<polygon fill="none" stroke="black" points="1037.22,-324.4 1037.22,-355.2 1219.44,-355.2 1219.44,-324.4 1037.22,-324.4"/>
<text text-anchor="start" x="1044.22" y="-336.6" font-family="Arial" font-size="14.00">name </text>
<text text-anchor="start" x="1083.13" y="-336.6" font-family="Arial" font-size="14.00" fill="#666666">[TEXT]</text>
<polygon fill="none" stroke="black" points="1037.22,-293.6 1037.22,-324.4 1219.44,-324.4 1219.44,-293.6 1037.22,-293.6"/>
<text text-anchor="start" x="1044.22" y="-305.8" font-family="Arial" font-size="14.00">franchise_id </text>
<text text-anchor="start" x="1123.6" y="-305.8" font-family="Arial" font-size="14.00" fill="#666666">[INTEGER]</text>
</g>
<!-- software_title&#45;&gt;franchise -->
<g id="edge2" class="edge">
<title>software_title:franchise_id&#45;&gt;franchise:id</title>
<path fill="none" stroke="black" d="M1128.97,-282.32C1135.29,-234.36 1186.39,-236.09 1202.93,-183.6 1215.52,-143.67 1245.8,-89.4 1203.93,-89.4"/>
<polygon fill="black" stroke="black" points="1128.97,-282.29 1123.86,-291.98 1128.64,-287.61 1128.37,-291.93 1128.37,-291.93 1128.37,-291.93 1128.64,-287.61 1132.84,-292.55 1128.97,-282.29"/>
<text text-anchor="start" x="550.68" y="-302.6" font-family="Arial" font-size="10.00">FOREIGN KEY (franchise_id) REFERENCES franchise (id) ON UPDATE NO ACTION ON DELETE NO ACTION MATCH NONE</text>
</g>
<!-- release -->
<g id="node6" class="node">
<title>release</title>
<polygon fill="#efefef" stroke="none" points="1323.72,-370.6 1323.72,-406.2 1456.93,-406.2 1456.93,-370.6 1323.72,-370.6"/>
<polygon fill="none" stroke="black" points="1323.72,-370.6 1323.72,-406.2 1456.93,-406.2 1456.93,-370.6 1323.72,-370.6"/>
<text text-anchor="start" x="1330.72" y="-384" font-family="Arial Bold" font-size="18.00">release</text>
<text text-anchor="start" x="1380.68" y="-384" font-family="Arial" font-size="14.00">    </text>
<text text-anchor="start" x="1411.79" y="-384" font-family="Arial" font-size="14.00" fill="#666666">[table]</text>
<polygon fill="none" stroke="black" points="1323.72,-339.8 1323.72,-370.6 1456.93,-370.6 1456.93,-339.8 1323.72,-339.8"/>
<text text-anchor="start" x="1330.72" y="-352" font-family="Arial" font-size="14.00">id </text>
<text text-anchor="start" x="1345.51" y="-352" font-family="Arial" font-size="14.00" fill="#666666">[INTEGER]</text>
<polygon fill="none" stroke="black" points="1323.72,-309 1323.72,-339.8 1456.93,-339.8 1456.93,-309 1323.72,-309"/>
<text text-anchor="start" x="1330.72" y="-321.2" font-family="Arial" font-size="14.00">name </text>
<text text-anchor="start" x="1369.63" y="-321.2" font-family="Arial" font-size="14.00" fill="#666666">[TEXT]</text>
</g>
<!-- file_info -->
<g id="node7" class="node">
<title>file_info</title>
<polygon fill="#efefef" stroke="none" points="1890.79,-416.8 1890.79,-452.4 2065.86,-452.4 2065.86,-416.8 1890.79,-416.8"/>
<polygon fill="none" stroke="black" points="1890.79,-416.8 1890.79,-452.4 2065.86,-452.4 2065.86,-416.8 1890.79,-416.8"/>
<text text-anchor="start" x="1912.71" y="-430.2" font-family="Arial Bold" font-size="18.00">file_info</text>
<text text-anchor="start" x="1974.69" y="-430.2" font-family="Arial" font-size="14.00">    </text>
<text text-anchor="start" x="2005.81" y="-430.2" font-family="Arial" font-size="14.00" fill="#666666">[table]</text>
<polygon fill="none" stroke="black" points="1890.79,-386 1890.79,-416.8 2065.86,-416.8 2065.86,-386 1890.79,-386"/>
<text text-anchor="start" x="1897.79" y="-398.2" font-family="Arial" font-size="14.00">id </text>
<text text-anchor="start" x="1912.58" y="-398.2" font-family="Arial" font-size="14.00" fill="#666666">[INTEGER]</text>
<polygon fill="none" stroke="black" points="1890.79,-355.2 1890.79,-386 2065.86,-386 2065.86,-355.2 1890.79,-355.2"/>
<text text-anchor="start" x="1897.79" y="-367.4" font-family="Arial" font-size="14.00">sha1_checksum </text>
<text text-anchor="start" x="2002.85" y="-367.4" font-family="Arial" font-size="14.00" fill="#666666">[BLOB]</text>
<polygon fill="none" stroke="black" points="1890.79,-324.4 1890.79,-355.2 2065.86,-355.2 2065.86,-324.4 1890.79,-324.4"/>
<text text-anchor="start" x="1897.79" y="-336.6" font-family="Arial" font-size="14.00">file_size </text>
<text text-anchor="start" x="1952.26" y="-336.6" font-family="Arial" font-size="14.00" fill="#666666">[INTEGER]</text>
<polygon fill="none" stroke="black" points="1890.79,-293.6 1890.79,-324.4 2065.86,-324.4 2065.86,-293.6 1890.79,-293.6"/>
<text text-anchor="start" x="1897.79" y="-305.8" font-family="Arial" font-size="14.00">archive_file_name </text>
<text text-anchor="start" x="2015.3" y="-305.8" font-family="Arial" font-size="14.00" fill="#666666">[TEXT]</text>
<polygon fill="none" stroke="black" points="1890.79,-262.8 1890.79,-293.6 2065.86,-293.6 2065.86,-262.8 1890.79,-262.8"/>
<text text-anchor="start" x="1897.79" y="-275" font-family="Arial" font-size="14.00">file_type </text>
<text text-anchor="start" x="1953.83" y="-275" font-family="Arial" font-size="14.00" fill="#666666">[INTEGER]</text>
</g>
<!-- file_set -->
<g id="node8" class="node">
<title>file_set</title>
<polygon fill="#efefef" stroke="none" points="1624.31,-416.8 1624.31,-452.4 1764.35,-452.4 1764.35,-416.8 1624.31,-416.8"/>
<polygon fill="none" stroke="black" points="1624.31,-416.8 1624.31,-452.4 1764.35,-452.4 1764.35,-416.8 1624.31,-416.8"/>
<text text-anchor="start" x="1633.21" y="-430.2" font-family="Arial Bold" font-size="18.00">file_set</text>
<text text-anchor="start" x="1686.19" y="-430.2" font-family="Arial" font-size="14.00">    </text>
<text text-anchor="start" x="1717.31" y="-430.2" font-family="Arial" font-size="14.00" fill="#666666">[table]</text>
<polygon fill="none" stroke="black" points="1624.31,-386 1624.31,-416.8 1764.35,-416.8 1764.35,-386 1624.31,-386"/>
<text text-anchor="start" x="1631.31" y="-398.2" font-family="Arial" font-size="14.00">id </text>
<text text-anchor="start" x="1646.09" y="-398.2" font-family="Arial" font-size="14.00" fill="#666666">[INTEGER]</text>
<polygon fill="none" stroke="black" points="1624.31,-355.2 1624.31,-386 1764.35,-386 1764.35,-355.2 1624.31,-355.2"/>
<text text-anchor="start" x="1631.31" y="-367.4" font-family="Arial" font-size="14.00">file_name </text>
<text text-anchor="start" x="1695.9" y="-367.4" font-family="Arial" font-size="14.00" fill="#666666">[TEXT]</text>
<polygon fill="none" stroke="black" points="1624.31,-324.4 1624.31,-355.2 1764.35,-355.2 1764.35,-324.4 1624.31,-324.4"/>
<text text-anchor="start" x="1631.31" y="-336.6" font-family="Arial" font-size="14.00">file_type </text>
<text text-anchor="start" x="1687.34" y="-336.6" font-family="Arial" font-size="14.00" fill="#666666">[INTEGER]</text>
<polygon fill="none" stroke="black" points="1624.31,-293.6 1624.31,-324.4 1764.35,-324.4 1764.35,-293.6 1624.31,-293.6"/>
<text text-anchor="start" x="1631.31" y="-305.8" font-family="Arial" font-size="14.00">name </text>
<text text-anchor="start" x="1670.22" y="-305.8" font-family="Arial" font-size="14.00" fill="#666666">[TEXT]</text>
<polygon fill="none" stroke="black" points="1624.31,-262.8 1624.31,-293.6 1764.35,-293.6 1764.35,-262.8 1624.31,-262.8"/>
<text text-anchor="start" x="1631.31" y="-275" font-family="Arial" font-size="14.00">source </text>
<text text-anchor="start" x="1677.22" y="-275" font-family="Arial" font-size="14.00" fill="#666666">[TEXT]</text>
</g>
<!-- file_set_file_info -->
<g id="node9" class="node">
<title>file_set_file_info</title>
<polygon fill="#efefef" stroke="none" points="1874.72,-713.4 1874.72,-749 2081.93,-749 2081.93,-713.4 1874.72,-713.4"/>
<polygon fill="none" stroke="black" points="1874.72,-713.4 1874.72,-749 2081.93,-749 2081.93,-713.4 1874.72,-713.4"/>
<text text-anchor="start" x="1881.72" y="-726.8" font-family="Arial Bold" font-size="18.00">file_set_file_info</text>
<text text-anchor="start" x="2005.68" y="-726.8" font-family="Arial" font-size="14.00">    </text>
<text text-anchor="start" x="2036.8" y="-726.8" font-family="Arial" font-size="14.00" fill="#666666">[table]</text>
<polygon fill="none" stroke="black" points="1874.72,-682.6 1874.72,-713.4 2081.93,-713.4 2081.93,-682.6 1874.72,-682.6"/>
<text text-anchor="start" x="1881.72" y="-694.8" font-family="Arial" font-size="14.00">file_set_id </text>
<text text-anchor="start" x="1948.65" y="-694.8" font-family="Arial" font-size="14.00" fill="#666666">[INTEGER]</text>
<polygon fill="none" stroke="black" points="1874.72,-651.8 1874.72,-682.6 2081.93,-682.6 2081.93,-651.8 1874.72,-651.8"/>
<text text-anchor="start" x="1881.72" y="-664" font-family="Arial" font-size="14.00">file_info_id </text>
<text text-anchor="start" x="1952.55" y="-664" font-family="Arial" font-size="14.00" fill="#666666">[INTEGER]</text>
<polygon fill="none" stroke="black" points="1874.72,-621 1874.72,-651.8 2081.93,-651.8 2081.93,-621 1874.72,-621"/>
<text text-anchor="start" x="1881.72" y="-633.2" font-family="Arial" font-size="14.00">file_name </text>
<text text-anchor="start" x="1946.31" y="-633.2" font-family="Arial" font-size="14.00" fill="#666666">[TEXT]</text>
</g>
<!-- file_set_file_info&#45;&gt;file_info -->
<g id="edge3" class="edge">
<title>file_set_file_info:file_info_id&#45;&gt;file_info:id</title>
<path fill="none" stroke="black" d="M2092.86,-664.39C2140,-635.99 2122.45,-401.4 2066.86,-401.4"/>
<polygon fill="black" stroke="black" points="2092.88,-664.39 2082.03,-662.78 2087.75,-665.84 2083.58,-667.02 2083.58,-667.02 2083.58,-667.02 2087.75,-665.84 2084.48,-671.44 2092.88,-664.39"/>
<text text-anchor="start" x="2089.93" y="-677.2" font-family="Arial" font-size="10.00">FOREIGN KEY (file_info_id) REFERENCES file_info (id) ON UPDATE NO ACTION ON DELETE NO ACTION MATCH NONE</text>
</g>
<!-- file_set_file_info&#45;&gt;file_set -->
<g id="edge4" class="edge">
<title>file_set_file_info:file_set_id&#45;&gt;file_set:id</title>
<path fill="none" stroke="black" d="M1863.67,-697.39C1801.11,-689.25 1848.04,-600.75 1822.33,-531.6 1800.31,-472.4 1828.51,-401.4 1765.35,-401.4"/>
<polygon fill="black" stroke="black" points="1863.4,-697.38 1873.11,-702.47 1868.73,-697.7 1873.05,-697.96 1873.05,-697.96 1873.05,-697.96 1868.73,-697.7 1873.66,-693.49 1863.4,-697.38"/>
<text text-anchor="start" x="1313.85" y="-708" font-family="Arial" font-size="10.00">FOREIGN KEY (file_set_id) REFERENCES file_set (id) ON UPDATE NO ACTION ON DELETE NO ACTION MATCH NONE</text>
</g>
<!-- release_file_set -->
<g id="node10" class="node">
<title>release_file_set</title>
<polygon fill="#efefef" stroke="none" points="1574.73,-698 1574.73,-733.6 1769.92,-733.6 1769.92,-698 1574.73,-698"/>
<polygon fill="none" stroke="black" points="1574.73,-698 1574.73,-733.6 1769.92,-733.6 1769.92,-698 1574.73,-698"/>
<text text-anchor="start" x="1581.73" y="-711.4" font-family="Arial Bold" font-size="18.00">release_file_set</text>
<text text-anchor="start" x="1693.67" y="-711.4" font-family="Arial" font-size="14.00">    </text>
<text text-anchor="start" x="1724.78" y="-711.4" font-family="Arial" font-size="14.00" fill="#666666">[table]</text>
<polygon fill="none" stroke="black" points="1574.73,-667.2 1574.73,-698 1769.92,-698 1769.92,-667.2 1574.73,-667.2"/>
<text text-anchor="start" x="1581.73" y="-679.4" font-family="Arial" font-size="14.00">release_id </text>
<text text-anchor="start" x="1650.22" y="-679.4" font-family="Arial" font-size="14.00" fill="#666666">[INTEGER]</text>
<polygon fill="none" stroke="black" points="1574.73,-636.4 1574.73,-667.2 1769.92,-667.2 1769.92,-636.4 1574.73,-636.4"/>
<text text-anchor="start" x="1581.73" y="-648.6" font-family="Arial" font-size="14.00">file_set_id </text>
<text text-anchor="start" x="1648.66" y="-648.6" font-family="Arial" font-size="14.00" fill="#666666">[INTEGER]</text>
</g>
<!-- release_file_set&#45;&gt;release -->
<g id="edge6" class="edge">
<title>release_file_set:release_id&#45;&gt;release:id</title>
<path fill="none" stroke="black" d="M1563.44,-681.91C1507.19,-673.77 1544.66,-594.93 1522.33,-531.6 1494.57,-452.89 1541.39,-355.2 1457.93,-355.2"/>
<polygon fill="black" stroke="black" points="1563.42,-681.91 1573.1,-687.07 1568.74,-682.27 1573.06,-682.56 1573.06,-682.56 1573.06,-682.56 1568.74,-682.27 1573.7,-678.09 1563.42,-681.91"/>
<text text-anchor="start" x="1440.26" y="-666.6" font-family="Arial" font-size="10.00">FOREIGN KEY (release_id) REFERENCES release (id) ON UPDATE NO ACTION ON DELETE CASCADE MATCH NONE</text>
</g>
<!-- release_file_set&#45;&gt;file_set -->
<g id="edge5" class="edge">
<title>release_file_set:file_set_id&#45;&gt;file_set:id</title>
<path fill="none" stroke="black" d="M1671.86,-625.07C1662.59,-521.04 1520.47,-401.4 1623.31,-401.4"/>
<polygon fill="black" stroke="black" points="1671.86,-625.08 1667.82,-635.27 1672.1,-630.41 1672.3,-634.73 1672.3,-634.73 1672.3,-634.73 1672.1,-630.41 1676.81,-634.86 1671.86,-625.08"/>
<text text-anchor="start" x="1539.41" y="-619.4" font-family="Arial" font-size="10.00">FOREIGN KEY (file_set_id) REFERENCES file_set (id) ON UPDATE NO ACTION ON DELETE CASCADE MATCH NONE</text>
</g>
<!-- setting -->
<g id="node11" class="node">
<title>setting</title>
<polygon fill="#efefef" stroke="none" points="2472.7,-698 2472.7,-733.6 2603.95,-733.6 2603.95,-698 2472.7,-698"/>
<polygon fill="none" stroke="black" points="2472.7,-698 2472.7,-733.6 2603.95,-733.6 2603.95,-698 2472.7,-698"/>
<text text-anchor="start" x="2479.7" y="-711.4" font-family="Arial Bold" font-size="18.00">setting</text>
<text text-anchor="start" x="2527.7" y="-711.4" font-family="Arial" font-size="14.00">    </text>
<text text-anchor="start" x="2558.81" y="-711.4" font-family="Arial" font-size="14.00" fill="#666666">[table]</text>
<polygon fill="none" stroke="black" points="2472.7,-667.2 2472.7,-698 2603.95,-698 2603.95,-667.2 2472.7,-667.2"/>
<text text-anchor="start" x="2479.7" y="-679.4" font-family="Arial" font-size="14.00">key </text>
<text text-anchor="start" x="2505.38" y="-679.4" font-family="Arial" font-size="14.00" fill="#666666">[TEXT]</text>
<polygon fill="none" stroke="black" points="2472.7,-636.4 2472.7,-667.2 2603.95,-667.2 2603.95,-636.4 2472.7,-636.4"/>
<text text-anchor="start" x="2479.7" y="-648.6" font-family="Arial" font-size="14.00">value </text>
<text text-anchor="start" x="2517.06" y="-648.6" font-family="Arial" font-size="14.00" fill="#666666">[TEXT]</text>
</g>
<!-- document_viewer -->
<g id="node12" class="node">
<title>document_viewer</title>
<polygon fill="#efefef" stroke="none" points="2708.22,-744.2 2708.22,-779.8 2920.43,-779.8 2920.43,-744.2 2708.22,-744.2"/>
<polygon fill="none" stroke="black" points="2708.22,-744.2 2708.22,-779.8 2920.43,-779.8 2920.43,-744.2 2708.22,-744.2"/>
<text text-anchor="start" x="2715.22" y="-757.6" font-family="Arial Bold" font-size="18.00">document_viewer</text>
<text text-anchor="start" x="2844.18" y="-757.6" font-family="Arial" font-size="14.00">    </text>
<text text-anchor="start" x="2875.29" y="-757.6" font-family="Arial" font-size="14.00" fill="#666666">[table]</text>
<polygon fill="none" stroke="black" points="2708.22,-713.4 2708.22,-744.2 2920.43,-744.2 2920.43,-713.4 2708.22,-713.4"/>
<text text-anchor="start" x="2715.22" y="-725.6" font-family="Arial" font-size="14.00">id </text>
<text text-anchor="start" x="2730.01" y="-725.6" font-family="Arial" font-size="14.00" fill="#666666">[INTEGER]</text>
<polygon fill="none" stroke="black" points="2708.22,-682.6 2708.22,-713.4 2920.43,-713.4 2920.43,-682.6 2708.22,-682.6"/>
<text text-anchor="start" x="2715.22" y="-694.8" font-family="Arial" font-size="14.00">name </text>
<text text-anchor="start" x="2754.13" y="-694.8" font-family="Arial" font-size="14.00" fill="#666666">[TEXT]</text>
<polygon fill="none" stroke="black" points="2708.22,-651.8 2708.22,-682.6 2920.43,-682.6 2920.43,-651.8 2708.22,-651.8"/>
<text text-anchor="start" x="2715.22" y="-664" font-family="Arial" font-size="14.00">executable </text>
<text text-anchor="start" x="2786.83" y="-664" font-family="Arial" font-size="14.00" fill="#666666">[TEXT]</text>
<polygon fill="none" stroke="black" points="2708.22,-621 2708.22,-651.8 2920.43,-651.8 2920.43,-621 2708.22,-621"/>
<text text-anchor="start" x="2715.22" y="-633.2" font-family="Arial" font-size="14.00">document_type </text>
<text text-anchor="start" x="2814.84" y="-633.2" font-family="Arial" font-size="14.00" fill="#666666">[INTEGER]</text>
<polygon fill="none" stroke="black" points="2708.22,-590.2 2708.22,-621 2920.43,-621 2920.43,-590.2 2708.22,-590.2"/>
<text text-anchor="start" x="2715.22" y="-602.4" font-family="Arial" font-size="14.00">arguments </text>
<text text-anchor="start" x="2785.26" y="-602.4" font-family="Arial" font-size="14.00" fill="#666666">[TEXT]</text>
</g>
<!-- release_system -->
<g id="node13" class="node">
<title>release_system</title>
<polygon fill="#efefef" stroke="none" points="623.22,-698 623.22,-733.6 815.43,-733.6 815.43,-698 623.22,-698"/>
<polygon fill="none" stroke="black" points="623.22,-698 623.22,-733.6 815.43,-733.6 815.43,-698 623.22,-698"/>
<text text-anchor="start" x="630.22" y="-711.4" font-family="Arial Bold" font-size="18.00">release_system</text>
<text text-anchor="start" x="739.18" y="-711.4" font-family="Arial" font-size="14.00">    </text>
<text text-anchor="start" x="770.3" y="-711.4" font-family="Arial" font-size="14.00" fill="#666666">[table]</text>
<polygon fill="none" stroke="black" points="623.22,-667.2 623.22,-698 815.43,-698 815.43,-667.2 623.22,-667.2"/>
<text text-anchor="start" x="630.22" y="-679.4" font-family="Arial" font-size="14.00">release_id </text>
<text text-anchor="start" x="698.71" y="-679.4" font-family="Arial" font-size="14.00" fill="#666666">[INTEGER]</text>
<polygon fill="none" stroke="black" points="623.22,-636.4 623.22,-667.2 815.43,-667.2 815.43,-636.4 623.22,-636.4"/>
<text text-anchor="start" x="630.22" y="-648.6" font-family="Arial" font-size="14.00">system_id </text>
<text text-anchor="start" x="697.13" y="-648.6" font-family="Arial" font-size="14.00" fill="#666666">[INTEGER]</text>
</g>
<!-- release_system&#45;&gt;system -->
<g id="edge7" class="edge">
<title>release_system:system_id&#45;&gt;system:id</title>
<path fill="none" stroke="black" d="M719.73,-625.22C729.42,-499.38 911.69,-355.2 786.95,-355.2"/>
<polygon fill="black" stroke="black" points="719.73,-625.07 714.84,-634.89 719.52,-630.4 719.35,-634.73 719.35,-634.73 719.35,-634.73 719.52,-630.4 723.84,-635.24 719.73,-625.07"/>
<text text-anchor="start" x="586.42" y="-619.4" font-family="Arial" font-size="10.00">FOREIGN KEY (system_id) REFERENCES system (id) ON UPDATE NO ACTION ON DELETE CASCADE MATCH NONE</text>
</g>
<!-- release_system&#45;&gt;release -->
<g id="edge8" class="edge">
<title>release_system:release_id&#45;&gt;release:id</title>
<path fill="none" stroke="black" d="M826.81,-681.67C879.59,-671.06 815.51,-572.96 868.33,-531.6 939.11,-476.16 1199.99,-550.33 1271.33,-495.6 1324.04,-455.15 1256.27,-355.2 1322.72,-355.2"/>
<polygon fill="black" stroke="black" points="826.73,-681.67 816.36,-678.09 821.41,-682.15 817.1,-682.54 817.1,-682.54 817.1,-682.54 821.41,-682.15 817.17,-687.05 826.73,-681.67"/>
<text text-anchor="start" x="823.43" y="-692.6" font-family="Arial" font-size="10.00">FOREIGN KEY (release_id) REFERENCES release (id) ON UPDATE NO ACTION ON DELETE CASCADE MATCH NONE</text>
</g>
<!-- release_software_title -->
<g id="node14" class="node">
<title>release_software_title</title>
<polygon fill="#efefef" stroke="none" points="1228.74,-698 1228.74,-733.6 1469.91,-733.6 1469.91,-698 1228.74,-698"/>
<polygon fill="none" stroke="black" points="1228.74,-698 1228.74,-733.6 1469.91,-733.6 1469.91,-698 1228.74,-698"/>
<text text-anchor="start" x="1235.74" y="-711.4" font-family="Arial Bold" font-size="18.00">release_software_title</text>
<text text-anchor="start" x="1393.66" y="-711.4" font-family="Arial" font-size="14.00">    </text>
<text text-anchor="start" x="1424.78" y="-711.4" font-family="Arial" font-size="14.00" fill="#666666">[table]</text>
<polygon fill="none" stroke="black" points="1228.74,-667.2 1228.74,-698 1469.91,-698 1469.91,-667.2 1228.74,-667.2"/>
<text text-anchor="start" x="1235.74" y="-679.4" font-family="Arial" font-size="14.00">release_id </text>
<text text-anchor="start" x="1304.23" y="-679.4" font-family="Arial" font-size="14.00" fill="#666666">[INTEGER]</text>
<polygon fill="none" stroke="black" points="1228.74,-636.4 1228.74,-667.2 1469.91,-667.2 1469.91,-636.4 1228.74,-636.4"/>
<text text-anchor="start" x="1235.74" y="-648.6" font-family="Arial" font-size="14.00">software_title_id </text>
<text text-anchor="start" x="1340.79" y="-648.6" font-family="Arial" font-size="14.00" fill="#666666">[INTEGER]</text>
</g>
<!-- release_software_title&#45;&gt;software_title -->
<g id="edge9" class="edge">
<title>release_software_title:software_title_id&#45;&gt;software_title:id</title>
<path fill="none" stroke="black" d="M1217.37,-651.04C1117.08,-635.03 1341.67,-370.6 1220.44,-370.6"/>
<polygon fill="black" stroke="black" points="1217.43,-651.05 1227.08,-656.26 1222.75,-651.44 1227.07,-651.75 1227.07,-651.75 1227.07,-651.75 1222.75,-651.44 1227.73,-647.29 1217.43,-651.05"/>
<text text-anchor="start" x="1234.74" y="-635.8" font-family="Arial" font-size="10.00">FOREIGN KEY (software_title_id) REFERENCES software_title (id) ON UPDATE NO ACTION ON DELETE CASCADE MATCH NONE</text>
</g>
<!-- release_software_title&#45;&gt;release -->
<g id="edge10" class="edge">
<title>release_software_title:release_id&#45;&gt;release:id</title>
<path fill="none" stroke="black" d="M1481.09,-681.04C1505.64,-672.04 1483.9,-626.05 1469.91,-593.2 1434.22,-509.34 1359.39,-533.27 1323.72,-449.4 1307.33,-410.87 1280.85,-355.2 1322.72,-355.2"/>
<polygon fill="black" stroke="black" points="1481.13,-681.03 1470.56,-678.1 1475.86,-681.84 1471.58,-682.5 1471.58,-682.5 1471.58,-682.5 1475.86,-681.84 1471.93,-687 1481.13,-681.03"/>
<text text-anchor="start" x="916.03" y="-666.6" font-family="Arial" font-size="10.00">FOREIGN KEY (release_id) REFERENCES release (id) ON UPDATE NO ACTION ON DELETE CASCADE MATCH NONE</text>
</g>
<!-- file_sync_log -->
<g id="node15" class="node">
<title>file_sync_log</title>
<polygon fill="#efefef" stroke="none" points="2186.71,-759.6 2186.71,-795.2 2367.94,-795.2 2367.94,-759.6 2186.71,-759.6"/>
<polygon fill="none" stroke="black" points="2186.71,-759.6 2186.71,-795.2 2367.94,-795.2 2367.94,-759.6 2186.71,-759.6"/>
<text text-anchor="start" x="2193.71" y="-773" font-family="Arial Bold" font-size="18.00">file_sync_log</text>
<text text-anchor="start" x="2291.69" y="-773" font-family="Arial" font-size="14.00">    </text>
<text text-anchor="start" x="2322.81" y="-773" font-family="Arial" font-size="14.00" fill="#666666">[table]</text>
<polygon fill="none" stroke="black" points="2186.71,-728.8 2186.71,-759.6 2367.94,-759.6 2367.94,-728.8 2186.71,-728.8"/>
<text text-anchor="start" x="2193.71" y="-741" font-family="Arial" font-size="14.00">id </text>
<text text-anchor="start" x="2208.49" y="-741" font-family="Arial" font-size="14.00" fill="#666666">[INTEGER]</text>
<polygon fill="none" stroke="black" points="2186.71,-698 2186.71,-728.8 2367.94,-728.8 2367.94,-698 2186.71,-698"/>
<text text-anchor="start" x="2193.71" y="-710.2" font-family="Arial" font-size="14.00">file_info_id </text>
<text text-anchor="start" x="2264.54" y="-710.2" font-family="Arial" font-size="14.00" fill="#666666">[INTEGER]</text>
<polygon fill="none" stroke="black" points="2186.71,-667.2 2186.71,-698 2367.94,-698 2367.94,-667.2 2186.71,-667.2"/>
<text text-anchor="start" x="2193.71" y="-679.4" font-family="Arial" font-size="14.00">sync_time </text>
<text text-anchor="start" x="2260.62" y="-679.4" font-family="Arial" font-size="14.00" fill="#666666">[TIMESTAMP]</text>
<polygon fill="none" stroke="black" points="2186.71,-636.4 2186.71,-667.2 2367.94,-667.2 2367.94,-636.4 2186.71,-636.4"/>
<text text-anchor="start" x="2193.71" y="-648.6" font-family="Arial" font-size="14.00">status </text>
<text text-anchor="start" x="2234.95" y="-648.6" font-family="Arial" font-size="14.00" fill="#666666">[INTEGER]</text>
<polygon fill="none" stroke="black" points="2186.71,-605.6 2186.71,-636.4 2367.94,-636.4 2367.94,-605.6 2186.71,-605.6"/>
<text text-anchor="start" x="2193.71" y="-617.8" font-family="Arial" font-size="14.00">message </text>
<text text-anchor="start" x="2254.41" y="-617.8" font-family="Arial" font-size="14.00" fill="#666666">[TEXT]</text>
<polygon fill="none" stroke="black" points="2186.71,-574.8 2186.71,-605.6 2367.94,-605.6 2367.94,-574.8 2186.71,-574.8"/>
<text text-anchor="start" x="2193.71" y="-587" font-family="Arial" font-size="14.00">cloud_key </text>
<text text-anchor="start" x="2260.64" y="-587" font-family="Arial" font-size="14.00" fill="#666666">[TEXT]</text>
</g>
<!-- file_sync_log&#45;&gt;file_info -->
<g id="edge11" class="edge">
<title>file_sync_log:file_info_id&#45;&gt;file_info:id</title>
<path fill="none" stroke="black" d="M2175.68,-712.84C2107.02,-704.53 2163.89,-606.32 2134.33,-531.6 2110.35,-471 2132.03,-401.4 2066.86,-401.4"/>
<polygon fill="black" stroke="black" points="2175.39,-712.82 2185.12,-717.87 2180.72,-713.12 2185.04,-713.36 2185.04,-713.36 2185.04,-713.36 2180.72,-713.12 2185.63,-708.89 2175.39,-712.82"/>
<text text-anchor="start" x="2192.71" y="-723.4" font-family="Arial" font-size="10.00">FOREIGN KEY (file_info_id) REFERENCES file_info (id) ON UPDATE NO ACTION ON DELETE NO ACTION MATCH NONE</text>
</g>
<!-- file_info_system -->
<g id="node16" class="node">
<title>file_info_system</title>
<polygon fill="#efefef" stroke="none" points="920.21,-698 920.21,-733.6 1124.44,-733.6 1124.44,-698 920.21,-698"/>
<polygon fill="none" stroke="black" points="920.21,-698 920.21,-733.6 1124.44,-733.6 1124.44,-698 920.21,-698"/>
<text text-anchor="start" x="927.21" y="-711.4" font-family="Arial Bold" font-size="18.00">file_info_system</text>
<text text-anchor="start" x="1048.19" y="-711.4" font-family="Arial" font-size="14.00">    </text>
<text text-anchor="start" x="1079.31" y="-711.4" font-family="Arial" font-size="14.00" fill="#666666">[table]</text>
<polygon fill="none" stroke="black" points="920.21,-667.2 920.21,-698 1124.44,-698 1124.44,-667.2 920.21,-667.2"/>
<text text-anchor="start" x="927.21" y="-679.4" font-family="Arial" font-size="14.00">file_info_id </text>
<text text-anchor="start" x="998.04" y="-679.4" font-family="Arial" font-size="14.00" fill="#666666">[INTEGER]</text>
<polygon fill="none" stroke="black" points="920.21,-636.4 920.21,-667.2 1124.44,-667.2 1124.44,-636.4 920.21,-636.4"/>
<text text-anchor="start" x="927.21" y="-648.6" font-family="Arial" font-size="14.00">system_id </text>
<text text-anchor="start" x="994.12" y="-648.6" font-family="Arial" font-size="14.00" fill="#666666">[INTEGER]</text>
</g>
<!-- file_info_system&#45;&gt;system -->
<g id="edge12" class="edge">
<title>file_info_system:system_id&#45;&gt;system:id</title>
<path fill="none" stroke="black" d="M909.02,-650.99C864.65,-643.22 889.4,-581.36 867.33,-531.6 832.39,-452.85 873.11,-355.2 786.95,-355.2"/>
<polygon fill="black" stroke="black" points="908.91,-650.98 918.52,-656.26 914.22,-651.4 918.54,-651.75 918.54,-651.75 918.54,-651.75 914.22,-651.4 919.23,-647.29 908.91,-650.98"/>
<text text-anchor="start" x="784.5" y="-635.8" font-family="Arial" font-size="10.00">FOREIGN KEY (system_id) REFERENCES system (id) ON UPDATE NO ACTION ON DELETE NO ACTION MATCH NONE</text>
</g>
<!-- file_info_system&#45;&gt;file_info -->
<g id="edge13" class="edge">
<title>file_info_system:file_info_id&#45;&gt;file_info:id</title>
<path fill="none" stroke="black" d="M1135.79,-681.66C1188.32,-670.97 1123.07,-572.17 1176.33,-531.6 1289.64,-445.28 1690.13,-561.67 1816.33,-495.6 1863.36,-470.97 1836.7,-401.4 1889.79,-401.4"/>
<polygon fill="black" stroke="black" points="1135.74,-681.66 1125.37,-678.09 1130.42,-682.15 1126.11,-682.54 1126.11,-682.54 1126.11,-682.54 1130.42,-682.15 1126.19,-687.05 1135.74,-681.66"/>
<text text-anchor="start" x="567.22" y="-666.6" font-family="Arial" font-size="10.00">FOREIGN KEY (file_info_id) REFERENCES file_info (id) ON UPDATE NO ACTION ON DELETE CASCADE MATCH NONE</text>
</g>
</g>
</svg>
