<?xml version="1.0" encoding="UTF-8" standalone="no"?>
<!DOCTYPE svg PUBLIC "-//W3C//DTD SVG 1.1//EN"
 "http://www.w3.org/Graphics/SVG/1.1/DTD/svg11.dtd">
<!-- Generated by graphviz version 12.1.2 (20240928.0832)
 -->
<!-- Title: db.sqlite Pages: 1 -->
<svg width="2977pt" height="1189pt"
 viewBox="0.00 0.00 2976.80 1189.20" xmlns="http://www.w3.org/2000/svg" xmlns:xlink="http://www.w3.org/1999/xlink">
<g id="graph0" class="graph" transform="scale(1 1) rotate(0) translate(4 1185.2)">
<title>db.sqlite</title>
<polygon fill="white" stroke="none" points="-4,4 -4,-1185.2 2972.8,-1185.2 2972.8,4 -4,4"/>
<!-- _sqlx_migrations -->
<g id="node1" class="node">
<title>_sqlx_migrations</title>
<polygon fill="#efefef" stroke="none" points="1328.2,-1102.4 1328.2,-1138 1536.46,-1138 1536.46,-1102.4 1328.2,-1102.4"/>
<polygon fill="none" stroke="black" points="1328.2,-1102.4 1328.2,-1138 1536.46,-1138 1536.46,-1102.4 1328.2,-1102.4"/>
<text text-anchor="start" x="1335.2" y="-1115.8" font-family="Arial Bold" font-size="18.00">_sqlx_migrations</text>
<text text-anchor="start" x="1460.2" y="-1115.8" font-family="Arial" font-size="14.00">    </text>
<text text-anchor="start" x="1491.32" y="-1115.8" font-family="Arial" font-size="14.00" fill="#666666">[table]</text>
<polygon fill="none" stroke="black" points="1328.2,-1071.6 1328.2,-1102.4 1536.46,-1102.4 1536.46,-1071.6 1328.2,-1071.6"/>
<text text-anchor="start" x="1335.2" y="-1083.8" font-family="Arial" font-size="14.00">version </text>
<text text-anchor="start" x="1384.22" y="-1083.8" font-family="Arial" font-size="14.00" fill="#666666">[BIGINT]</text>
<polygon fill="none" stroke="black" points="1328.2,-1040.8 1328.2,-1071.6 1536.46,-1071.6 1536.46,-1040.8 1328.2,-1040.8"/>
<text text-anchor="start" x="1335.2" y="-1053" font-family="Arial" font-size="14.00">description </text>
<text text-anchor="start" x="1406.79" y="-1053" font-family="Arial" font-size="14.00" fill="#666666">[TEXT]</text>
<polygon fill="none" stroke="black" points="1328.2,-1010 1328.2,-1040.8 1536.46,-1040.8 1536.46,-1010 1328.2,-1010"/>
<text text-anchor="start" x="1335.2" y="-1022.2" font-family="Arial" font-size="14.00">installed_on </text>
<text text-anchor="start" x="1413.82" y="-1022.2" font-family="Arial" font-size="14.00" fill="#666666">[TIMESTAMP]</text>
<polygon fill="none" stroke="black" points="1328.2,-979.2 1328.2,-1010 1536.46,-1010 1536.46,-979.2 1328.2,-979.2"/>
<text text-anchor="start" x="1335.2" y="-991.4" font-family="Arial" font-size="14.00">success </text>
<text text-anchor="start" x="1389.66" y="-991.4" font-family="Arial" font-size="14.00" fill="#666666">[BOOLEAN]</text>
<polygon fill="none" stroke="black" points="1328.2,-948.4 1328.2,-979.2 1536.46,-979.2 1536.46,-948.4 1328.2,-948.4"/>
<text text-anchor="start" x="1335.2" y="-960.6" font-family="Arial" font-size="14.00">checksum </text>
<text text-anchor="start" x="1402.11" y="-960.6" font-family="Arial" font-size="14.00" fill="#666666">[BLOB]</text>
<polygon fill="none" stroke="black" points="1328.2,-917.6 1328.2,-948.4 1536.46,-948.4 1536.46,-917.6 1328.2,-917.6"/>
<text text-anchor="start" x="1335.2" y="-929.8" font-family="Arial" font-size="14.00">execution_time </text>
<text text-anchor="start" x="1433.26" y="-929.8" font-family="Arial" font-size="14.00" fill="#666666">[BIGINT]</text>
</g>
<!-- system -->
<g id="node2" class="node">
<title>system</title>
<polygon fill="#efefef" stroke="none" points="692.7,-370.6 692.7,-406.2 825.96,-406.2 825.96,-370.6 692.7,-370.6"/>
<polygon fill="none" stroke="black" points="692.7,-370.6 692.7,-406.2 825.96,-406.2 825.96,-370.6 692.7,-370.6"/>
<text text-anchor="start" x="699.7" y="-384" font-family="Arial Bold" font-size="18.00">system</text>
<text text-anchor="start" x="749.7" y="-384" font-family="Arial" font-size="14.00">    </text>
<text text-anchor="start" x="780.82" y="-384" font-family="Arial" font-size="14.00" fill="#666666">[table]</text>
<polygon fill="none" stroke="black" points="692.7,-339.8 692.7,-370.6 825.96,-370.6 825.96,-339.8 692.7,-339.8"/>
<text text-anchor="start" x="699.7" y="-352" font-family="Arial" font-size="14.00">id </text>
<text text-anchor="start" x="714.49" y="-352" font-family="Arial" font-size="14.00" fill="#666666">[INTEGER]</text>
<polygon fill="none" stroke="black" points="692.7,-309 692.7,-339.8 825.96,-339.8 825.96,-309 692.7,-309"/>
<text text-anchor="start" x="699.7" y="-321.2" font-family="Arial" font-size="14.00">name </text>
<text text-anchor="start" x="738.61" y="-321.2" font-family="Arial" font-size="14.00" fill="#666666">[TEXT]</text>
</g>
<!-- emulator -->
<g id="node3" class="node">
<title>emulator</title>
<polygon fill="#efefef" stroke="none" points="396.03,-759.6 396.03,-795.2 558.62,-795.2 558.62,-759.6 396.03,-759.6"/>
<polygon fill="none" stroke="black" points="396.03,-759.6 396.03,-795.2 558.62,-795.2 558.62,-759.6 396.03,-759.6"/>
<text text-anchor="start" x="410.71" y="-773" font-family="Arial Bold" font-size="18.00">emulator</text>
<text text-anchor="start" x="474.69" y="-773" font-family="Arial" font-size="14.00">    </text>
<text text-anchor="start" x="505.81" y="-773" font-family="Arial" font-size="14.00" fill="#666666">[table]</text>
<polygon fill="none" stroke="black" points="396.03,-728.8 396.03,-759.6 558.62,-759.6 558.62,-728.8 396.03,-728.8"/>
<text text-anchor="start" x="403.03" y="-741" font-family="Arial" font-size="14.00">id </text>
<text text-anchor="start" x="417.82" y="-741" font-family="Arial" font-size="14.00" fill="#666666">[INTEGER]</text>
<polygon fill="none" stroke="black" points="396.03,-698 396.03,-728.8 558.62,-728.8 558.62,-698 396.03,-698"/>
<text text-anchor="start" x="403.03" y="-710.2" font-family="Arial" font-size="14.00">name </text>
<text text-anchor="start" x="441.94" y="-710.2" font-family="Arial" font-size="14.00" fill="#666666">[TEXT]</text>
<polygon fill="none" stroke="black" points="396.03,-667.2 396.03,-698 558.62,-698 558.62,-667.2 396.03,-667.2"/>
<text text-anchor="start" x="403.03" y="-679.4" font-family="Arial" font-size="14.00">executable </text>
<text text-anchor="start" x="474.64" y="-679.4" font-family="Arial" font-size="14.00" fill="#666666">[TEXT]</text>
<polygon fill="none" stroke="black" points="396.03,-636.4 396.03,-667.2 558.62,-667.2 558.62,-636.4 396.03,-636.4"/>
<text text-anchor="start" x="403.03" y="-648.6" font-family="Arial" font-size="14.00">extract_files </text>
<text text-anchor="start" x="481.62" y="-648.6" font-family="Arial" font-size="14.00" fill="#666666">[INTEGER]</text>
<polygon fill="none" stroke="black" points="396.03,-605.6 396.03,-636.4 558.62,-636.4 558.62,-605.6 396.03,-605.6"/>
<text text-anchor="start" x="403.03" y="-617.8" font-family="Arial" font-size="14.00">arguments </text>
<text text-anchor="start" x="473.07" y="-617.8" font-family="Arial" font-size="14.00" fill="#666666">[TEXT]</text>
<polygon fill="none" stroke="black" points="396.03,-574.8 396.03,-605.6 558.62,-605.6 558.62,-574.8 396.03,-574.8"/>
<text text-anchor="start" x="403.03" y="-587" font-family="Arial" font-size="14.00">system_id </text>
<text text-anchor="start" x="469.94" y="-587" font-family="Arial" font-size="14.00" fill="#666666">[INTEGER]</text>
</g>
<!-- emulator&#45;&gt;system -->
<g id="edge1" class="edge">
<title>emulator:system_id&#45;&gt;system:id</title>
<path fill="none" stroke="black" d="M569.68,-587.87C621.13,-563.47 635.31,-355.2 691.7,-355.2"/>
<polygon fill="black" stroke="black" points="569.69,-587.87 558.94,-585.74 564.5,-589.07 560.28,-590.05 560.28,-590.05 560.28,-590.05 564.5,-589.07 560.96,-594.51 569.69,-587.87"/>
<text text-anchor="start" x="7" y="-600.2" font-family="Arial" font-size="10.00">FOREIGN KEY (system_id) REFERENCES system (id) ON UPDATE NO ACTION ON DELETE CASCADE MATCH NONE</text>
</g>
<!-- franchise -->
<g id="node4" class="node">
<title>franchise</title>
<polygon fill="#efefef" stroke="none" points="1593.72,-104.8 1593.72,-140.4 1742.94,-140.4 1742.94,-104.8 1593.72,-104.8"/>
<polygon fill="none" stroke="black" points="1593.72,-104.8 1593.72,-140.4 1742.94,-140.4 1742.94,-104.8 1593.72,-104.8"/>
<text text-anchor="start" x="1600.72" y="-118.2" font-family="Arial Bold" font-size="18.00">franchise</text>
<text text-anchor="start" x="1666.68" y="-118.2" font-family="Arial" font-size="14.00">    </text>
<text text-anchor="start" x="1697.8" y="-118.2" font-family="Arial" font-size="14.00" fill="#666666">[table]</text>
<polygon fill="none" stroke="black" points="1593.72,-74 1593.72,-104.8 1742.94,-104.8 1742.94,-74 1593.72,-74"/>
<text text-anchor="start" x="1600.72" y="-86.2" font-family="Arial" font-size="14.00">id </text>
<text text-anchor="start" x="1615.51" y="-86.2" font-family="Arial" font-size="14.00" fill="#666666">[INTEGER]</text>
<polygon fill="none" stroke="black" points="1593.72,-43.2 1593.72,-74 1742.94,-74 1742.94,-43.2 1593.72,-43.2"/>
<text text-anchor="start" x="1600.72" y="-55.4" font-family="Arial" font-size="14.00">name </text>
<text text-anchor="start" x="1639.63" y="-55.4" font-family="Arial" font-size="14.00" fill="#666666">[TEXT]</text>
</g>
<!-- software_title -->
<g id="node5" class="node">
<title>software_title</title>
<polygon fill="#efefef" stroke="none" points="1577.22,-386 1577.22,-421.6 1759.44,-421.6 1759.44,-386 1577.22,-386"/>
<polygon fill="none" stroke="black" points="1577.22,-386 1577.22,-421.6 1759.44,-421.6 1759.44,-386 1577.22,-386"/>
<text text-anchor="start" x="1584.22" y="-399.4" font-family="Arial Bold" font-size="18.00">software_title</text>
<text text-anchor="start" x="1683.18" y="-399.4" font-family="Arial" font-size="14.00">    </text>
<text text-anchor="start" x="1714.3" y="-399.4" font-family="Arial" font-size="14.00" fill="#666666">[table]</text>
<polygon fill="none" stroke="black" points="1577.22,-355.2 1577.22,-386 1759.44,-386 1759.44,-355.2 1577.22,-355.2"/>
<text text-anchor="start" x="1584.22" y="-367.4" font-family="Arial" font-size="14.00">id </text>
<text text-anchor="start" x="1599" y="-367.4" font-family="Arial" font-size="14.00" fill="#666666">[INTEGER]</text>
<polygon fill="none" stroke="black" points="1577.22,-324.4 1577.22,-355.2 1759.44,-355.2 1759.44,-324.4 1577.22,-324.4"/>
<text text-anchor="start" x="1584.22" y="-336.6" font-family="Arial" font-size="14.00">name </text>
<text text-anchor="start" x="1623.13" y="-336.6" font-family="Arial" font-size="14.00" fill="#666666">[TEXT]</text>
<polygon fill="none" stroke="black" points="1577.22,-293.6 1577.22,-324.4 1759.44,-324.4 1759.44,-293.6 1577.22,-293.6"/>
<text text-anchor="start" x="1584.22" y="-305.8" font-family="Arial" font-size="14.00">franchise_id </text>
<text text-anchor="start" x="1663.6" y="-305.8" font-family="Arial" font-size="14.00" fill="#666666">[INTEGER]</text>
</g>
<!-- software_title&#45;&gt;franchise -->
<g id="edge2" class="edge">
<title>software_title:franchise_id&#45;&gt;franchise:id</title>
<path fill="none" stroke="black" d="M1668.97,-282.32C1675.29,-234.36 1726.39,-236.09 1742.94,-183.6 1755.53,-143.67 1785.81,-89.4 1743.94,-89.4"/>
<polygon fill="black" stroke="black" points="1668.97,-282.29 1663.86,-291.98 1668.64,-287.61 1668.37,-291.93 1668.37,-291.93 1668.37,-291.93 1668.64,-287.61 1672.84,-292.55 1668.97,-282.29"/>
<text text-anchor="start" x="1090.68" y="-302.6" font-family="Arial" font-size="10.00">FOREIGN KEY (franchise_id) REFERENCES franchise (id) ON UPDATE NO ACTION ON DELETE NO ACTION MATCH NONE</text>
</g>
<!-- release -->
<g id="node6" class="node">
<title>release</title>
<polygon fill="#efefef" stroke="none" points="1159.72,-370.6 1159.72,-406.2 1292.93,-406.2 1292.93,-370.6 1159.72,-370.6"/>
<polygon fill="none" stroke="black" points="1159.72,-370.6 1159.72,-406.2 1292.93,-406.2 1292.93,-370.6 1159.72,-370.6"/>
<text text-anchor="start" x="1166.72" y="-384" font-family="Arial Bold" font-size="18.00">release</text>
<text text-anchor="start" x="1216.68" y="-384" font-family="Arial" font-size="14.00">    </text>
<text text-anchor="start" x="1247.8" y="-384" font-family="Arial" font-size="14.00" fill="#666666">[table]</text>
<polygon fill="none" stroke="black" points="1159.72,-339.8 1159.72,-370.6 1292.93,-370.6 1292.93,-339.8 1159.72,-339.8"/>
<text text-anchor="start" x="1166.72" y="-352" font-family="Arial" font-size="14.00">id </text>
<text text-anchor="start" x="1181.51" y="-352" font-family="Arial" font-size="14.00" fill="#666666">[INTEGER]</text>
<polygon fill="none" stroke="black" points="1159.72,-309 1159.72,-339.8 1292.93,-339.8 1292.93,-309 1159.72,-309"/>
<text text-anchor="start" x="1166.72" y="-321.2" font-family="Arial" font-size="14.00">name </text>
<text text-anchor="start" x="1205.63" y="-321.2" font-family="Arial" font-size="14.00" fill="#666666">[TEXT]</text>
</g>
<!-- file_info -->
<g id="node7" class="node">
<title>file_info</title>
<polygon fill="#efefef" stroke="none" points="1905.79,-416.8 1905.79,-452.4 2080.86,-452.4 2080.86,-416.8 1905.79,-416.8"/>
<polygon fill="none" stroke="black" points="1905.79,-416.8 1905.79,-452.4 2080.86,-452.4 2080.86,-416.8 1905.79,-416.8"/>
<text text-anchor="start" x="1927.71" y="-430.2" font-family="Arial Bold" font-size="18.00">file_info</text>
<text text-anchor="start" x="1989.69" y="-430.2" font-family="Arial" font-size="14.00">    </text>
<text text-anchor="start" x="2020.81" y="-430.2" font-family="Arial" font-size="14.00" fill="#666666">[table]</text>
<polygon fill="none" stroke="black" points="1905.79,-386 1905.79,-416.8 2080.86,-416.8 2080.86,-386 1905.79,-386"/>
<text text-anchor="start" x="1912.79" y="-398.2" font-family="Arial" font-size="14.00">id </text>
<text text-anchor="start" x="1927.58" y="-398.2" font-family="Arial" font-size="14.00" fill="#666666">[INTEGER]</text>
<polygon fill="none" stroke="black" points="1905.79,-355.2 1905.79,-386 2080.86,-386 2080.86,-355.2 1905.79,-355.2"/>
<text text-anchor="start" x="1912.79" y="-367.4" font-family="Arial" font-size="14.00">sha1_checksum </text>
<text text-anchor="start" x="2017.85" y="-367.4" font-family="Arial" font-size="14.00" fill="#666666">[BLOB]</text>
<polygon fill="none" stroke="black" points="1905.79,-324.4 1905.79,-355.2 2080.86,-355.2 2080.86,-324.4 1905.79,-324.4"/>
<text text-anchor="start" x="1912.79" y="-336.6" font-family="Arial" font-size="14.00">file_size </text>
<text text-anchor="start" x="1967.26" y="-336.6" font-family="Arial" font-size="14.00" fill="#666666">[INTEGER]</text>
<polygon fill="none" stroke="black" points="1905.79,-293.6 1905.79,-324.4 2080.86,-324.4 2080.86,-293.6 1905.79,-293.6"/>
<text text-anchor="start" x="1912.79" y="-305.8" font-family="Arial" font-size="14.00">archive_file_name </text>
<text text-anchor="start" x="2030.3" y="-305.8" font-family="Arial" font-size="14.00" fill="#666666">[TEXT]</text>
<polygon fill="none" stroke="black" points="1905.79,-262.8 1905.79,-293.6 2080.86,-293.6 2080.86,-262.8 1905.79,-262.8"/>
<text text-anchor="start" x="1912.79" y="-275" font-family="Arial" font-size="14.00">file_type </text>
<text text-anchor="start" x="1968.83" y="-275" font-family="Arial" font-size="14.00" fill="#666666">[INTEGER]</text>
</g>
<!-- file_set -->
<g id="node8" class="node">
<title>file_set</title>
<polygon fill="#efefef" stroke="none" points="2227.31,-416.8 2227.31,-452.4 2367.35,-452.4 2367.35,-416.8 2227.31,-416.8"/>
<polygon fill="none" stroke="black" points="2227.31,-416.8 2227.31,-452.4 2367.35,-452.4 2367.35,-416.8 2227.31,-416.8"/>
<text text-anchor="start" x="2236.21" y="-430.2" font-family="Arial Bold" font-size="18.00">file_set</text>
<text text-anchor="start" x="2289.19" y="-430.2" font-family="Arial" font-size="14.00">    </text>
<text text-anchor="start" x="2320.31" y="-430.2" font-family="Arial" font-size="14.00" fill="#666666">[table]</text>
<polygon fill="none" stroke="black" points="2227.31,-386 2227.31,-416.8 2367.35,-416.8 2367.35,-386 2227.31,-386"/>
<text text-anchor="start" x="2234.31" y="-398.2" font-family="Arial" font-size="14.00">id </text>
<text text-anchor="start" x="2249.09" y="-398.2" font-family="Arial" font-size="14.00" fill="#666666">[INTEGER]</text>
<polygon fill="none" stroke="black" points="2227.31,-355.2 2227.31,-386 2367.35,-386 2367.35,-355.2 2227.31,-355.2"/>
<text text-anchor="start" x="2234.31" y="-367.4" font-family="Arial" font-size="14.00">file_name </text>
<text text-anchor="start" x="2298.9" y="-367.4" font-family="Arial" font-size="14.00" fill="#666666">[TEXT]</text>
<polygon fill="none" stroke="black" points="2227.31,-324.4 2227.31,-355.2 2367.35,-355.2 2367.35,-324.4 2227.31,-324.4"/>
<text text-anchor="start" x="2234.31" y="-336.6" font-family="Arial" font-size="14.00">file_type </text>
<text text-anchor="start" x="2290.34" y="-336.6" font-family="Arial" font-size="14.00" fill="#666666">[INTEGER]</text>
<polygon fill="none" stroke="black" points="2227.31,-293.6 2227.31,-324.4 2367.35,-324.4 2367.35,-293.6 2227.31,-293.6"/>
<text text-anchor="start" x="2234.31" y="-305.8" font-family="Arial" font-size="14.00">name </text>
<text text-anchor="start" x="2273.22" y="-305.8" font-family="Arial" font-size="14.00" fill="#666666">[TEXT]</text>
<polygon fill="none" stroke="black" points="2227.31,-262.8 2227.31,-293.6 2367.35,-293.6 2367.35,-262.8 2227.31,-262.8"/>
<text text-anchor="start" x="2234.31" y="-275" font-family="Arial" font-size="14.00">source </text>
<text text-anchor="start" x="2280.22" y="-275" font-family="Arial" font-size="14.00" fill="#666666">[TEXT]</text>
</g>
<!-- file_set_file_info -->
<g id="node9" class="node">
<title>file_set_file_info</title>
<polygon fill="#efefef" stroke="none" points="2193.72,-728.8 2193.72,-764.4 2400.94,-764.4 2400.94,-728.8 2193.72,-728.8"/>
<polygon fill="none" stroke="black" points="2193.72,-728.8 2193.72,-764.4 2400.94,-764.4 2400.94,-728.8 2193.72,-728.8"/>
<text text-anchor="start" x="2200.72" y="-742.2" font-family="Arial Bold" font-size="18.00">file_set_file_info</text>
<text text-anchor="start" x="2324.68" y="-742.2" font-family="Arial" font-size="14.00">    </text>
<text text-anchor="start" x="2355.8" y="-742.2" font-family="Arial" font-size="14.00" fill="#666666">[table]</text>
<polygon fill="none" stroke="black" points="2193.72,-698 2193.72,-728.8 2400.94,-728.8 2400.94,-698 2193.72,-698"/>
<text text-anchor="start" x="2200.72" y="-710.2" font-family="Arial" font-size="14.00">file_set_id </text>
<text text-anchor="start" x="2267.65" y="-710.2" font-family="Arial" font-size="14.00" fill="#666666">[INTEGER]</text>
<polygon fill="none" stroke="black" points="2193.72,-667.2 2193.72,-698 2400.94,-698 2400.94,-667.2 2193.72,-667.2"/>
<text text-anchor="start" x="2200.72" y="-679.4" font-family="Arial" font-size="14.00">file_info_id </text>
<text text-anchor="start" x="2271.55" y="-679.4" font-family="Arial" font-size="14.00" fill="#666666">[INTEGER]</text>
<polygon fill="none" stroke="black" points="2193.72,-636.4 2193.72,-667.2 2400.94,-667.2 2400.94,-636.4 2193.72,-636.4"/>
<text text-anchor="start" x="2200.72" y="-648.6" font-family="Arial" font-size="14.00">file_name </text>
<text text-anchor="start" x="2265.31" y="-648.6" font-family="Arial" font-size="14.00" fill="#666666">[TEXT]</text>
<polygon fill="none" stroke="black" points="2193.72,-605.6 2193.72,-636.4 2400.94,-636.4 2400.94,-605.6 2193.72,-605.6"/>
<text text-anchor="start" x="2200.72" y="-617.8" font-family="Arial" font-size="14.00">sort_order </text>
<text text-anchor="start" x="2268.42" y="-617.8" font-family="Arial" font-size="14.00" fill="#666666">[INTEGER]</text>
</g>
<!-- file_set_file_info&#45;&gt;file_info -->
<g id="edge3" class="edge">
<title>file_set_file_info:file_info_id&#45;&gt;file_info:id</title>
<path fill="none" stroke="black" d="M2182.45,-681.91C2126.45,-673.68 2166.13,-594.01 2141.33,-531.6 2117.84,-472.48 2145.48,-401.4 2081.86,-401.4"/>
<polygon fill="black" stroke="black" points="2182.41,-681.9 2192.08,-687.07 2187.73,-682.26 2192.05,-682.55 2192.05,-682.55 2192.05,-682.55 2187.73,-682.26 2192.69,-678.09 2182.41,-681.9"/>
<text text-anchor="start" x="2199.72" y="-692.6" font-family="Arial" font-size="10.00">FOREIGN KEY (file_info_id) REFERENCES file_info (id) ON UPDATE NO ACTION ON DELETE NO ACTION MATCH NONE</text>
</g>
<!-- file_set_file_info&#45;&gt;file_set -->
<g id="edge4" class="edge">
<title>file_set_file_info:file_set_id&#45;&gt;file_set:id</title>
<path fill="none" stroke="black" d="M2411.77,-711.07C2468.17,-682.52 2434.54,-401.4 2368.35,-401.4"/>
<polygon fill="black" stroke="black" points="2411.99,-711.02 2401.22,-708.94 2406.8,-712.25 2402.59,-713.25 2402.59,-713.25 2402.59,-713.25 2406.8,-712.25 2403.3,-717.7 2411.99,-711.02"/>
<text text-anchor="start" x="2408.94" y="-723.4" font-family="Arial" font-size="10.00">FOREIGN KEY (file_set_id) REFERENCES file_set (id) ON UPDATE NO ACTION ON DELETE NO ACTION MATCH NONE</text>
</g>
<!-- release_file_set -->
<g id="node10" class="node">
<title>release_file_set</title>
<polygon fill="#efefef" stroke="none" points="1893.73,-698 1893.73,-733.6 2088.92,-733.6 2088.92,-698 1893.73,-698"/>
<polygon fill="none" stroke="black" points="1893.73,-698 1893.73,-733.6 2088.92,-733.6 2088.92,-698 1893.73,-698"/>
<text text-anchor="start" x="1900.73" y="-711.4" font-family="Arial Bold" font-size="18.00">release_file_set</text>
<text text-anchor="start" x="2012.67" y="-711.4" font-family="Arial" font-size="14.00">    </text>
<text text-anchor="start" x="2043.79" y="-711.4" font-family="Arial" font-size="14.00" fill="#666666">[table]</text>
<polygon fill="none" stroke="black" points="1893.73,-667.2 1893.73,-698 2088.92,-698 2088.92,-667.2 1893.73,-667.2"/>
<text text-anchor="start" x="1900.73" y="-679.4" font-family="Arial" font-size="14.00">release_id </text>
<text text-anchor="start" x="1969.22" y="-679.4" font-family="Arial" font-size="14.00" fill="#666666">[INTEGER]</text>
<polygon fill="none" stroke="black" points="1893.73,-636.4 1893.73,-667.2 2088.92,-667.2 2088.92,-636.4 1893.73,-636.4"/>
<text text-anchor="start" x="1900.73" y="-648.6" font-family="Arial" font-size="14.00">file_set_id </text>
<text text-anchor="start" x="1967.66" y="-648.6" font-family="Arial" font-size="14.00" fill="#666666">[INTEGER]</text>
</g>
<!-- release_file_set&#45;&gt;release -->
<g id="edge6" class="edge">
<title>release_file_set:release_id&#45;&gt;release:id</title>
<path fill="none" stroke="black" d="M1882.36,-681.67C1829.62,-671.13 1893.52,-573.64 1841.33,-531.6 1786.29,-487.27 1592.21,-518.46 1525.33,-495.6 1411.5,-456.69 1414.23,-355.2 1293.93,-355.2"/>
<polygon fill="black" stroke="black" points="1882.44,-681.68 1892,-687.05 1887.75,-682.15 1892.07,-682.54 1892.07,-682.54 1892.07,-682.54 1887.75,-682.15 1892.8,-678.09 1882.44,-681.68"/>
<text text-anchor="start" x="1899.73" y="-666.6" font-family="Arial" font-size="10.00">FOREIGN KEY (release_id) REFERENCES release (id) ON UPDATE NO ACTION ON DELETE CASCADE MATCH NONE</text>
</g>
<!-- release_file_set&#45;&gt;file_set -->
<g id="edge5" class="edge">
<title>release_file_set:file_set_id&#45;&gt;file_set:id</title>
<path fill="none" stroke="black" d="M2100.33,-650.91C2143.77,-642.72 2115.74,-579.43 2141.33,-531.6 2173.92,-470.67 2157.21,-401.4 2226.31,-401.4"/>
<polygon fill="black" stroke="black" points="2100.22,-650.92 2089.88,-647.29 2094.91,-651.38 2090.59,-651.74 2090.59,-651.74 2090.59,-651.74 2094.91,-651.38 2090.64,-656.26 2100.22,-650.92"/>
<text text-anchor="start" x="2096.92" y="-635.8" font-family="Arial" font-size="10.00">FOREIGN KEY (file_set_id) REFERENCES file_set (id) ON UPDATE NO ACTION ON DELETE CASCADE MATCH NONE</text>
</g>
<!-- setting -->
<g id="node11" class="node">
<title>setting</title>
<polygon fill="#efefef" stroke="none" points="1981.7,-1040.8 1981.7,-1076.4 2112.95,-1076.4 2112.95,-1040.8 1981.7,-1040.8"/>
<polygon fill="none" stroke="black" points="1981.7,-1040.8 1981.7,-1076.4 2112.95,-1076.4 2112.95,-1040.8 1981.7,-1040.8"/>
<text text-anchor="start" x="1988.7" y="-1054.2" font-family="Arial Bold" font-size="18.00">setting</text>
<text text-anchor="start" x="2036.7" y="-1054.2" font-family="Arial" font-size="14.00">    </text>
<text text-anchor="start" x="2067.82" y="-1054.2" font-family="Arial" font-size="14.00" fill="#666666">[table]</text>
<polygon fill="none" stroke="black" points="1981.7,-1010 1981.7,-1040.8 2112.95,-1040.8 2112.95,-1010 1981.7,-1010"/>
<text text-anchor="start" x="1988.7" y="-1022.2" font-family="Arial" font-size="14.00">key </text>
<text text-anchor="start" x="2014.38" y="-1022.2" font-family="Arial" font-size="14.00" fill="#666666">[TEXT]</text>
<polygon fill="none" stroke="black" points="1981.7,-979.2 1981.7,-1010 2112.95,-1010 2112.95,-979.2 1981.7,-979.2"/>
<text text-anchor="start" x="1988.7" y="-991.4" font-family="Arial" font-size="14.00">value </text>
<text text-anchor="start" x="2026.06" y="-991.4" font-family="Arial" font-size="14.00" fill="#666666">[TEXT]</text>
</g>
<!-- document_viewer -->
<g id="node12" class="node">
<title>document_viewer</title>
<polygon fill="#efefef" stroke="none" points="2217.33,-1102.4 2217.33,-1138 2431.32,-1138 2431.32,-1102.4 2217.33,-1102.4"/>
<polygon fill="none" stroke="black" points="2217.33,-1102.4 2217.33,-1138 2431.32,-1138 2431.32,-1102.4 2217.33,-1102.4"/>
<text text-anchor="start" x="2225.22" y="-1115.8" font-family="Arial Bold" font-size="18.00">document_viewer</text>
<text text-anchor="start" x="2354.18" y="-1115.8" font-family="Arial" font-size="14.00">    </text>
<text text-anchor="start" x="2385.29" y="-1115.8" font-family="Arial" font-size="14.00" fill="#666666">[table]</text>
<polygon fill="none" stroke="black" points="2217.33,-1071.6 2217.33,-1102.4 2431.32,-1102.4 2431.32,-1071.6 2217.33,-1071.6"/>
<text text-anchor="start" x="2224.33" y="-1083.8" font-family="Arial" font-size="14.00">id </text>
<text text-anchor="start" x="2239.12" y="-1083.8" font-family="Arial" font-size="14.00" fill="#666666">[INTEGER]</text>
<polygon fill="none" stroke="black" points="2217.33,-1040.8 2217.33,-1071.6 2431.32,-1071.6 2431.32,-1040.8 2217.33,-1040.8"/>
<text text-anchor="start" x="2224.33" y="-1053" font-family="Arial" font-size="14.00">name </text>
<text text-anchor="start" x="2263.24" y="-1053" font-family="Arial" font-size="14.00" fill="#666666">[TEXT]</text>
<polygon fill="none" stroke="black" points="2217.33,-1010 2217.33,-1040.8 2431.32,-1040.8 2431.32,-1010 2217.33,-1010"/>
<text text-anchor="start" x="2224.33" y="-1022.2" font-family="Arial" font-size="14.00">executable </text>
<text text-anchor="start" x="2295.94" y="-1022.2" font-family="Arial" font-size="14.00" fill="#666666">[TEXT]</text>
<polygon fill="none" stroke="black" points="2217.33,-979.2 2217.33,-1010 2431.32,-1010 2431.32,-979.2 2217.33,-979.2"/>
<text text-anchor="start" x="2224.33" y="-991.4" font-family="Arial" font-size="14.00">document_type </text>
<text text-anchor="start" x="2323.95" y="-991.4" font-family="Arial" font-size="14.00" fill="#666666">[INTEGER]</text>
<polygon fill="none" stroke="black" points="2217.33,-948.4 2217.33,-979.2 2431.32,-979.2 2431.32,-948.4 2217.33,-948.4"/>
<text text-anchor="start" x="2224.33" y="-960.6" font-family="Arial" font-size="14.00">arguments </text>
<text text-anchor="start" x="2294.37" y="-960.6" font-family="Arial" font-size="14.00" fill="#666666">[TEXT]</text>
<polygon fill="none" stroke="black" points="2217.33,-917.6 2217.33,-948.4 2431.32,-948.4 2431.32,-917.6 2217.33,-917.6"/>
<text text-anchor="start" x="2224.33" y="-929.8" font-family="Arial" font-size="14.00">cleanup_temp_files </text>
<text text-anchor="start" x="2348.86" y="-929.8" font-family="Arial" font-size="14.00" fill="#666666">[BOOLEAN]</text>
</g>
<!-- release_system -->
<g id="node13" class="node">
<title>release_system</title>
<polygon fill="#efefef" stroke="none" points="663.22,-698 663.22,-733.6 855.44,-733.6 855.44,-698 663.22,-698"/>
<polygon fill="none" stroke="black" points="663.22,-698 663.22,-733.6 855.44,-733.6 855.44,-698 663.22,-698"/>
<text text-anchor="start" x="670.22" y="-711.4" font-family="Arial Bold" font-size="18.00">release_system</text>
<text text-anchor="start" x="779.18" y="-711.4" font-family="Arial" font-size="14.00">    </text>
<text text-anchor="start" x="810.3" y="-711.4" font-family="Arial" font-size="14.00" fill="#666666">[table]</text>
<polygon fill="none" stroke="black" points="663.22,-667.2 663.22,-698 855.44,-698 855.44,-667.2 663.22,-667.2"/>
<text text-anchor="start" x="670.22" y="-679.4" font-family="Arial" font-size="14.00">release_id </text>
<text text-anchor="start" x="738.71" y="-679.4" font-family="Arial" font-size="14.00" fill="#666666">[INTEGER]</text>
<polygon fill="none" stroke="black" points="663.22,-636.4 663.22,-667.2 855.44,-667.2 855.44,-636.4 663.22,-636.4"/>
<text text-anchor="start" x="670.22" y="-648.6" font-family="Arial" font-size="14.00">system_id </text>
<text text-anchor="start" x="737.13" y="-648.6" font-family="Arial" font-size="14.00" fill="#666666">[INTEGER]</text>
</g>
<!-- release_system&#45;&gt;system -->
<g id="edge7" class="edge">
<title>release_system:system_id&#45;&gt;system:id</title>
<path fill="none" stroke="black" d="M759.73,-625.22C769.43,-499.38 951.69,-355.2 826.96,-355.2"/>
<polygon fill="black" stroke="black" points="759.73,-625.07 754.85,-634.89 759.52,-630.4 759.35,-634.73 759.35,-634.73 759.35,-634.73 759.52,-630.4 763.84,-635.24 759.73,-625.07"/>
<text text-anchor="start" x="206.7" y="-645.4" font-family="Arial" font-size="10.00">FOREIGN KEY (system_id) REFERENCES system (id) ON UPDATE NO ACTION ON DELETE CASCADE MATCH NONE</text>
</g>
<!-- release_system&#45;&gt;release -->
<g id="edge8" class="edge">
<title>release_system:release_id&#45;&gt;release:id</title>
<path fill="none" stroke="black" d="M866.59,-681.83C921.18,-672.76 867.97,-585.36 908.33,-531.6 990.07,-422.74 1022.59,-355.2 1158.72,-355.2"/>
<polygon fill="black" stroke="black" points="866.74,-681.82 856.43,-678.09 861.42,-682.22 857.1,-682.55 857.1,-682.55 857.1,-682.55 861.42,-682.22 857.11,-687.06 866.74,-681.82"/>
<text text-anchor="start" x="301.55" y="-692.6" font-family="Arial" font-size="10.00">FOREIGN KEY (release_id) REFERENCES release (id) ON UPDATE NO ACTION ON DELETE CASCADE MATCH NONE</text>
</g>
<!-- release_software_title -->
<g id="node14" class="node">
<title>release_software_title</title>
<polygon fill="#efefef" stroke="none" points="1547.74,-698 1547.74,-733.6 1788.92,-733.6 1788.92,-698 1547.74,-698"/>
<polygon fill="none" stroke="black" points="1547.74,-698 1547.74,-733.6 1788.92,-733.6 1788.92,-698 1547.74,-698"/>
<text text-anchor="start" x="1554.74" y="-711.4" font-family="Arial Bold" font-size="18.00">release_software_title</text>
<text text-anchor="start" x="1712.66" y="-711.4" font-family="Arial" font-size="14.00">    </text>
<text text-anchor="start" x="1743.78" y="-711.4" font-family="Arial" font-size="14.00" fill="#666666">[table]</text>
<polygon fill="none" stroke="black" points="1547.74,-667.2 1547.74,-698 1788.92,-698 1788.92,-667.2 1547.74,-667.2"/>
<text text-anchor="start" x="1554.74" y="-679.4" font-family="Arial" font-size="14.00">release_id </text>
<text text-anchor="start" x="1623.23" y="-679.4" font-family="Arial" font-size="14.00" fill="#666666">[INTEGER]</text>
<polygon fill="none" stroke="black" points="1547.74,-636.4 1547.74,-667.2 1788.92,-667.2 1788.92,-636.4 1547.74,-636.4"/>
<text text-anchor="start" x="1554.74" y="-648.6" font-family="Arial" font-size="14.00">software_title_id </text>
<text text-anchor="start" x="1659.79" y="-648.6" font-family="Arial" font-size="14.00" fill="#666666">[INTEGER]</text>
</g>
<!-- release_software_title&#45;&gt;software_title -->
<g id="edge9" class="edge">
<title>release_software_title:software_title_id&#45;&gt;software_title:id</title>
<path fill="none" stroke="black" d="M1668.67,-625.24C1673.97,-549.19 1739,-544.66 1759.44,-464.8 1769.82,-424.24 1802.31,-370.6 1760.44,-370.6"/>
<polygon fill="black" stroke="black" points="1668.68,-625.07 1663.84,-634.91 1668.5,-630.4 1668.35,-634.73 1668.35,-634.73 1668.35,-634.73 1668.5,-630.4 1672.84,-635.22 1668.68,-625.07"/>
<text text-anchor="start" x="1214.74" y="-619.4" font-family="Arial" font-size="10.00">FOREIGN KEY (software_title_id) REFERENCES software_title (id) ON UPDATE NO ACTION ON DELETE CASCADE MATCH NONE</text>
</g>
<!-- release_software_title&#45;&gt;release -->
<g id="edge10" class="edge">
<title>release_software_title:release_id&#45;&gt;release:id</title>
<path fill="none" stroke="black" d="M1536.57,-681.85C1481.79,-672.98 1532.68,-587.41 1495.33,-531.6 1429.15,-432.71 1412.92,-355.2 1293.93,-355.2"/>
<polygon fill="black" stroke="black" points="1536.43,-681.84 1546.08,-687.06 1541.75,-682.23 1546.07,-682.55 1546.07,-682.55 1546.07,-682.55 1541.75,-682.23 1546.74,-678.09 1536.43,-681.84"/>
<text text-anchor="start" x="1553.74" y="-692.6" font-family="Arial" font-size="10.00">FOREIGN KEY (release_id) REFERENCES release (id) ON UPDATE NO ACTION ON DELETE CASCADE MATCH NONE</text>
</g>
<!-- file_info_system -->
<g id="node15" class="node">
<title>file_info_system</title>
<polygon fill="#efefef" stroke="none" points="1239.21,-698 1239.21,-733.6 1443.45,-733.6 1443.45,-698 1239.21,-698"/>
<polygon fill="none" stroke="black" points="1239.21,-698 1239.21,-733.6 1443.45,-733.6 1443.45,-698 1239.21,-698"/>
<text text-anchor="start" x="1246.21" y="-711.4" font-family="Arial Bold" font-size="18.00">file_info_system</text>
<text text-anchor="start" x="1367.19" y="-711.4" font-family="Arial" font-size="14.00">    </text>
<text text-anchor="start" x="1398.31" y="-711.4" font-family="Arial" font-size="14.00" fill="#666666">[table]</text>
<polygon fill="none" stroke="black" points="1239.21,-667.2 1239.21,-698 1443.45,-698 1443.45,-667.2 1239.21,-667.2"/>
<text text-anchor="start" x="1246.21" y="-679.4" font-family="Arial" font-size="14.00">file_info_id </text>
<text text-anchor="start" x="1317.04" y="-679.4" font-family="Arial" font-size="14.00" fill="#666666">[INTEGER]</text>
<polygon fill="none" stroke="black" points="1239.21,-636.4 1239.21,-667.2 1443.45,-667.2 1443.45,-636.4 1239.21,-636.4"/>
<text text-anchor="start" x="1246.21" y="-648.6" font-family="Arial" font-size="14.00">system_id </text>
<text text-anchor="start" x="1313.12" y="-648.6" font-family="Arial" font-size="14.00" fill="#666666">[INTEGER]</text>
</g>
<!-- file_info_system&#45;&gt;system -->
<g id="edge11" class="edge">
<title>file_info_system:system_id&#45;&gt;system:id</title>
<path fill="none" stroke="black" d="M1227.95,-650.79C1185.88,-641.52 1224.35,-570.4 1186.33,-531.6 1159.32,-504.04 1142.14,-512.24 1107.33,-495.6 981.6,-435.5 966.32,-355.2 826.96,-355.2"/>
<polygon fill="black" stroke="black" points="1227.93,-650.79 1237.44,-656.25 1233.23,-651.31 1237.54,-651.73 1237.54,-651.73 1237.54,-651.73 1233.23,-651.31 1238.32,-647.29 1227.93,-650.79"/>
<text text-anchor="start" x="1245.21" y="-661.8" font-family="Arial" font-size="10.00">FOREIGN KEY (system_id) REFERENCES system (id) ON UPDATE NO ACTION ON DELETE NO ACTION MATCH NONE</text>
</g>
<!-- file_info_system&#45;&gt;file_info -->
<g id="edge12" class="edge">
<title>file_info_system:file_info_id&#45;&gt;file_info:id</title>
<path fill="none" stroke="black" d="M1454.8,-681.67C1507.45,-671.14 1443.26,-573.67 1495.33,-531.6 1605.28,-442.76 1684.13,-557.26 1811.33,-495.6 1864.4,-469.87 1845.82,-401.4 1904.79,-401.4"/>
<polygon fill="black" stroke="black" points="1454.74,-681.68 1444.38,-678.09 1449.43,-682.15 1445.11,-682.54 1445.11,-682.54 1445.11,-682.54 1449.43,-682.15 1445.18,-687.05 1454.74,-681.68"/>
<text text-anchor="start" x="886.23" y="-692.6" font-family="Arial" font-size="10.00">FOREIGN KEY (file_info_id) REFERENCES file_info (id) ON UPDATE NO ACTION ON DELETE CASCADE MATCH NONE</text>
</g>
<!-- file_sync_log -->
<g id="node16" class="node">
<title>file_sync_log</title>
<polygon fill="#efefef" stroke="none" points="2535.71,-1102.4 2535.71,-1138 2716.95,-1138 2716.95,-1102.4 2535.71,-1102.4"/>
<polygon fill="none" stroke="black" points="2535.71,-1102.4 2535.71,-1138 2716.95,-1138 2716.95,-1102.4 2535.71,-1102.4"/>
<text text-anchor="start" x="2542.71" y="-1115.8" font-family="Arial Bold" font-size="18.00">file_sync_log</text>
<text text-anchor="start" x="2640.69" y="-1115.8" font-family="Arial" font-size="14.00">    </text>
<text text-anchor="start" x="2671.81" y="-1115.8" font-family="Arial" font-size="14.00" fill="#666666">[table]</text>
<polygon fill="none" stroke="black" points="2535.71,-1071.6 2535.71,-1102.4 2716.95,-1102.4 2716.95,-1071.6 2535.71,-1071.6"/>
<text text-anchor="start" x="2542.71" y="-1083.8" font-family="Arial" font-size="14.00">id </text>
<text text-anchor="start" x="2557.5" y="-1083.8" font-family="Arial" font-size="14.00" fill="#666666">[INTEGER]</text>
<polygon fill="none" stroke="black" points="2535.71,-1040.8 2535.71,-1071.6 2716.95,-1071.6 2716.95,-1040.8 2535.71,-1040.8"/>
<text text-anchor="start" x="2542.71" y="-1053" font-family="Arial" font-size="14.00">file_info_id </text>
<text text-anchor="start" x="2613.54" y="-1053" font-family="Arial" font-size="14.00" fill="#666666">[INTEGER]</text>
<polygon fill="none" stroke="black" points="2535.71,-1010 2535.71,-1040.8 2716.95,-1040.8 2716.95,-1010 2535.71,-1010"/>
<text text-anchor="start" x="2542.71" y="-1022.2" font-family="Arial" font-size="14.00">sync_time </text>
<text text-anchor="start" x="2609.62" y="-1022.2" font-family="Arial" font-size="14.00" fill="#666666">[TIMESTAMP]</text>
<polygon fill="none" stroke="black" points="2535.71,-979.2 2535.71,-1010 2716.95,-1010 2716.95,-979.2 2535.71,-979.2"/>
<text text-anchor="start" x="2542.71" y="-991.4" font-family="Arial" font-size="14.00">status </text>
<text text-anchor="start" x="2583.95" y="-991.4" font-family="Arial" font-size="14.00" fill="#666666">[INTEGER]</text>
<polygon fill="none" stroke="black" points="2535.71,-948.4 2535.71,-979.2 2716.95,-979.2 2716.95,-948.4 2535.71,-948.4"/>
<text text-anchor="start" x="2542.71" y="-960.6" font-family="Arial" font-size="14.00">message </text>
<text text-anchor="start" x="2603.41" y="-960.6" font-family="Arial" font-size="14.00" fill="#666666">[TEXT]</text>
<polygon fill="none" stroke="black" points="2535.71,-917.6 2535.71,-948.4 2716.95,-948.4 2716.95,-917.6 2535.71,-917.6"/>
<text text-anchor="start" x="2542.71" y="-929.8" font-family="Arial" font-size="14.00">cloud_key </text>
<text text-anchor="start" x="2609.64" y="-929.8" font-family="Arial" font-size="14.00" fill="#666666">[TEXT]</text>
</g>
<!-- release_item -->
<g id="node17" class="node">
<title>release_item</title>
<polygon fill="#efefef" stroke="none" points="960.23,-728.8 960.23,-764.4 1134.43,-764.4 1134.43,-728.8 960.23,-728.8"/>
<polygon fill="none" stroke="black" points="960.23,-728.8 960.23,-764.4 1134.43,-764.4 1134.43,-728.8 960.23,-728.8"/>
<text text-anchor="start" x="967.23" y="-742.2" font-family="Arial Bold" font-size="18.00">release_item</text>
<text text-anchor="start" x="1058.18" y="-742.2" font-family="Arial" font-size="14.00">    </text>
<text text-anchor="start" x="1089.29" y="-742.2" font-family="Arial" font-size="14.00" fill="#666666">[table]</text>
<polygon fill="none" stroke="black" points="960.23,-698 960.23,-728.8 1134.43,-728.8 1134.43,-698 960.23,-698"/>
<text text-anchor="start" x="967.23" y="-710.2" font-family="Arial" font-size="14.00">id </text>
<text text-anchor="start" x="982.01" y="-710.2" font-family="Arial" font-size="14.00" fill="#666666">[INTEGER]</text>
<polygon fill="none" stroke="black" points="960.23,-667.2 960.23,-698 1134.43,-698 1134.43,-667.2 960.23,-667.2"/>
<text text-anchor="start" x="967.23" y="-679.4" font-family="Arial" font-size="14.00">release_id </text>
<text text-anchor="start" x="1035.72" y="-679.4" font-family="Arial" font-size="14.00" fill="#666666">[INTEGER]</text>
<polygon fill="none" stroke="black" points="960.23,-636.4 960.23,-667.2 1134.43,-667.2 1134.43,-636.4 960.23,-636.4"/>
<text text-anchor="start" x="967.23" y="-648.6" font-family="Arial" font-size="14.00">item_type </text>
<text text-anchor="start" x="1031.81" y="-648.6" font-family="Arial" font-size="14.00" fill="#666666">[INTEGER]</text>
<polygon fill="none" stroke="black" points="960.23,-605.6 960.23,-636.4 1134.43,-636.4 1134.43,-605.6 960.23,-605.6"/>
<text text-anchor="start" x="967.23" y="-617.8" font-family="Arial" font-size="14.00">notes </text>
<text text-anchor="start" x="1005.36" y="-617.8" font-family="Arial" font-size="14.00" fill="#666666">[TEXT]</text>
</g>
<!-- release_item&#45;&gt;release -->
<g id="edge13" class="edge">
<title>release_item:release_id&#45;&gt;release:id</title>
<path fill="none" stroke="black" d="M1145.75,-681.98C1267.94,-666.19 1016.55,-355.2 1158.72,-355.2"/>
<polygon fill="black" stroke="black" points="1145.75,-681.98 1135.49,-678.09 1140.42,-682.3 1136.1,-682.56 1136.1,-682.56 1136.1,-682.56 1140.42,-682.3 1136.04,-687.07 1145.75,-681.98"/>
<text text-anchor="start" x="580.55" y="-666.6" font-family="Arial" font-size="10.00">FOREIGN KEY (release_id) REFERENCES release (id) ON UPDATE NO ACTION ON DELETE CASCADE MATCH NONE</text>
</g>
<!-- release_item_file_set -->
<g id="node18" class="node">
<title>release_item_file_set</title>
<polygon fill="#efefef" stroke="none" points="1641.24,-1040.8 1641.24,-1076.4 1877.42,-1076.4 1877.42,-1040.8 1641.24,-1040.8"/>
<polygon fill="none" stroke="black" points="1641.24,-1040.8 1641.24,-1076.4 1877.42,-1076.4 1877.42,-1040.8 1641.24,-1040.8"/>
<text text-anchor="start" x="1648.24" y="-1054.2" font-family="Arial Bold" font-size="18.00">release_item_file_set</text>
<text text-anchor="start" x="1801.17" y="-1054.2" font-family="Arial" font-size="14.00">    </text>
<text text-anchor="start" x="1832.28" y="-1054.2" font-family="Arial" font-size="14.00" fill="#666666">[table]</text>
<polygon fill="none" stroke="black" points="1641.24,-1010 1641.24,-1040.8 1877.42,-1040.8 1877.42,-1010 1641.24,-1010"/>
<text text-anchor="start" x="1648.24" y="-1022.2" font-family="Arial" font-size="14.00">release_item_id </text>
<text text-anchor="start" x="1750.96" y="-1022.2" font-family="Arial" font-size="14.00" fill="#666666">[INTEGER]</text>
<polygon fill="none" stroke="black" points="1641.24,-979.2 1641.24,-1010 1877.42,-1010 1877.42,-979.2 1641.24,-979.2"/>
<text text-anchor="start" x="1648.24" y="-991.4" font-family="Arial" font-size="14.00">file_set_id </text>
<text text-anchor="start" x="1715.17" y="-991.4" font-family="Arial" font-size="14.00" fill="#666666">[INTEGER]</text>
</g>
<!-- release_item_file_set&#45;&gt;file_set -->
<g id="edge14" class="edge">
<title>release_item_file_set:file_set_id&#45;&gt;file_set:id</title>
<path fill="none" stroke="black" d="M1888.55,-993.5C1929.67,-983.34 1885.23,-905.84 1929.33,-874.4 2024.37,-806.64 2373.67,-923.71 2453.33,-838.4 2588.36,-693.78 2566.21,-401.4 2368.35,-401.4"/>
<polygon fill="black" stroke="black" points="1888.69,-993.48 1878.27,-990.09 1883.39,-994.06 1879.09,-994.53 1879.09,-994.53 1879.09,-994.53 1883.39,-994.06 1879.24,-999.04 1888.69,-993.48"/>
<text text-anchor="start" x="1605.59" y="-978.6" font-family="Arial" font-size="10.00">FOREIGN KEY (file_set_id) REFERENCES file_set (id) ON UPDATE NO ACTION ON DELETE CASCADE MATCH NONE</text>
</g>
<!-- release_item_file_set&#45;&gt;release_item -->
<g id="edge15" class="edge">
<title>release_item_file_set:release_item_id&#45;&gt;release_item:id</title>
<path fill="none" stroke="black" d="M1629.86,-1024.47C1577.07,-1013.86 1641.13,-915.77 1588.33,-874.4 1517.9,-819.22 1259.44,-891.36 1187.33,-838.4 1138.84,-802.8 1195.58,-713.4 1135.43,-713.4"/>
<polygon fill="black" stroke="black" points="1629.94,-1024.47 1639.5,-1029.85 1635.26,-1024.95 1639.57,-1025.34 1639.57,-1025.34 1639.57,-1025.34 1635.26,-1024.95 1640.31,-1020.89 1629.94,-1024.47"/>
<text text-anchor="start" x="1036.45" y="-1035.4" font-family="Arial" font-size="10.00">FOREIGN KEY (release_item_id) REFERENCES release_item (id) ON UPDATE NO ACTION ON DELETE CASCADE MATCH NONE</text>
</g>
</g>
</svg>
