<?xml version="1.0" encoding="UTF-8" standalone="no"?>
<!DOCTYPE svg PUBLIC "-//W3C//DTD SVG 1.1//EN"
 "http://www.w3.org/Graphics/SVG/1.1/DTD/svg11.dtd">
<!-- Generated by graphviz version 12.1.2 (20240928.0832)
 -->
<!-- Title: db.sqlite Pages: 1 -->
<svg width="3058pt" height="1189pt"
 viewBox="0.00 0.00 3057.65 1189.20" xmlns="http://www.w3.org/2000/svg" xmlns:xlink="http://www.w3.org/1999/xlink">
<g id="graph0" class="graph" transform="scale(1 1) rotate(0) translate(4 1185.2)">
<title>db.sqlite</title>
<polygon fill="white" stroke="none" points="-4,4 -4,-1185.2 3053.65,-1185.2 3053.65,4 -4,4"/>
<!-- _sqlx_migrations -->
<g id="node1" class="node">
<title>_sqlx_migrations</title>
<polygon fill="#efefef" stroke="none" points="1617.71,-1102.4 1617.71,-1138 1825.96,-1138 1825.96,-1102.4 1617.71,-1102.4"/>
<polygon fill="none" stroke="black" points="1617.71,-1102.4 1617.71,-1138 1825.96,-1138 1825.96,-1102.4 1617.71,-1102.4"/>
<text text-anchor="start" x="1624.71" y="-1115.8" font-family="Arial Bold" font-size="18.00">_sqlx_migrations</text>
<text text-anchor="start" x="1749.71" y="-1115.8" font-family="Arial" font-size="14.00">    </text>
<text text-anchor="start" x="1780.83" y="-1115.8" font-family="Arial" font-size="14.00" fill="#666666">[table]</text>
<polygon fill="none" stroke="black" points="1617.71,-1071.6 1617.71,-1102.4 1825.96,-1102.4 1825.96,-1071.6 1617.71,-1071.6"/>
<text text-anchor="start" x="1624.71" y="-1083.8" font-family="Arial" font-size="14.00">version </text>
<text text-anchor="start" x="1673.73" y="-1083.8" font-family="Arial" font-size="14.00" fill="#666666">[BIGINT]</text>
<polygon fill="none" stroke="black" points="1617.71,-1040.8 1617.71,-1071.6 1825.96,-1071.6 1825.96,-1040.8 1617.71,-1040.8"/>
<text text-anchor="start" x="1624.71" y="-1053" font-family="Arial" font-size="14.00">description </text>
<text text-anchor="start" x="1696.3" y="-1053" font-family="Arial" font-size="14.00" fill="#666666">[TEXT]</text>
<polygon fill="none" stroke="black" points="1617.71,-1010 1617.71,-1040.8 1825.96,-1040.8 1825.96,-1010 1617.71,-1010"/>
<text text-anchor="start" x="1624.71" y="-1022.2" font-family="Arial" font-size="14.00">installed_on </text>
<text text-anchor="start" x="1703.32" y="-1022.2" font-family="Arial" font-size="14.00" fill="#666666">[TIMESTAMP]</text>
<polygon fill="none" stroke="black" points="1617.71,-979.2 1617.71,-1010 1825.96,-1010 1825.96,-979.2 1617.71,-979.2"/>
<text text-anchor="start" x="1624.71" y="-991.4" font-family="Arial" font-size="14.00">success </text>
<text text-anchor="start" x="1679.17" y="-991.4" font-family="Arial" font-size="14.00" fill="#666666">[BOOLEAN]</text>
<polygon fill="none" stroke="black" points="1617.71,-948.4 1617.71,-979.2 1825.96,-979.2 1825.96,-948.4 1617.71,-948.4"/>
<text text-anchor="start" x="1624.71" y="-960.6" font-family="Arial" font-size="14.00">checksum </text>
<text text-anchor="start" x="1691.62" y="-960.6" font-family="Arial" font-size="14.00" fill="#666666">[BLOB]</text>
<polygon fill="none" stroke="black" points="1617.71,-917.6 1617.71,-948.4 1825.96,-948.4 1825.96,-917.6 1617.71,-917.6"/>
<text text-anchor="start" x="1624.71" y="-929.8" font-family="Arial" font-size="14.00">execution_time </text>
<text text-anchor="start" x="1722.77" y="-929.8" font-family="Arial" font-size="14.00" fill="#666666">[BIGINT]</text>
</g>
<!-- system -->
<g id="node2" class="node">
<title>system</title>
<polygon fill="#efefef" stroke="none" points="500.21,-370.6 500.21,-406.2 633.46,-406.2 633.46,-370.6 500.21,-370.6"/>
<polygon fill="none" stroke="black" points="500.21,-370.6 500.21,-406.2 633.46,-406.2 633.46,-370.6 500.21,-370.6"/>
<text text-anchor="start" x="507.21" y="-384" font-family="Arial Bold" font-size="18.00">system</text>
<text text-anchor="start" x="557.21" y="-384" font-family="Arial" font-size="14.00">    </text>
<text text-anchor="start" x="588.33" y="-384" font-family="Arial" font-size="14.00" fill="#666666">[table]</text>
<polygon fill="none" stroke="black" points="500.21,-339.8 500.21,-370.6 633.46,-370.6 633.46,-339.8 500.21,-339.8"/>
<text text-anchor="start" x="507.21" y="-352" font-family="Arial" font-size="14.00">id </text>
<text text-anchor="start" x="522" y="-352" font-family="Arial" font-size="14.00" fill="#666666">[INTEGER]</text>
<polygon fill="none" stroke="black" points="500.21,-309 500.21,-339.8 633.46,-339.8 633.46,-309 500.21,-309"/>
<text text-anchor="start" x="507.21" y="-321.2" font-family="Arial" font-size="14.00">name </text>
<text text-anchor="start" x="546.12" y="-321.2" font-family="Arial" font-size="14.00" fill="#666666">[TEXT]</text>
</g>
<!-- emulator -->
<g id="node3" class="node">
<title>emulator</title>
<polygon fill="#efefef" stroke="none" points="197.54,-759.6 197.54,-795.2 360.13,-795.2 360.13,-759.6 197.54,-759.6"/>
<polygon fill="none" stroke="black" points="197.54,-759.6 197.54,-795.2 360.13,-795.2 360.13,-759.6 197.54,-759.6"/>
<text text-anchor="start" x="212.22" y="-773" font-family="Arial Bold" font-size="18.00">emulator</text>
<text text-anchor="start" x="276.2" y="-773" font-family="Arial" font-size="14.00">    </text>
<text text-anchor="start" x="307.31" y="-773" font-family="Arial" font-size="14.00" fill="#666666">[table]</text>
<polygon fill="none" stroke="black" points="197.54,-728.8 197.54,-759.6 360.13,-759.6 360.13,-728.8 197.54,-728.8"/>
<text text-anchor="start" x="204.54" y="-741" font-family="Arial" font-size="14.00">id </text>
<text text-anchor="start" x="219.33" y="-741" font-family="Arial" font-size="14.00" fill="#666666">[INTEGER]</text>
<polygon fill="none" stroke="black" points="197.54,-698 197.54,-728.8 360.13,-728.8 360.13,-698 197.54,-698"/>
<text text-anchor="start" x="204.54" y="-710.2" font-family="Arial" font-size="14.00">name </text>
<text text-anchor="start" x="243.45" y="-710.2" font-family="Arial" font-size="14.00" fill="#666666">[TEXT]</text>
<polygon fill="none" stroke="black" points="197.54,-667.2 197.54,-698 360.13,-698 360.13,-667.2 197.54,-667.2"/>
<text text-anchor="start" x="204.54" y="-679.4" font-family="Arial" font-size="14.00">executable </text>
<text text-anchor="start" x="276.15" y="-679.4" font-family="Arial" font-size="14.00" fill="#666666">[TEXT]</text>
<polygon fill="none" stroke="black" points="197.54,-636.4 197.54,-667.2 360.13,-667.2 360.13,-636.4 197.54,-636.4"/>
<text text-anchor="start" x="204.54" y="-648.6" font-family="Arial" font-size="14.00">extract_files </text>
<text text-anchor="start" x="283.13" y="-648.6" font-family="Arial" font-size="14.00" fill="#666666">[INTEGER]</text>
<polygon fill="none" stroke="black" points="197.54,-605.6 197.54,-636.4 360.13,-636.4 360.13,-605.6 197.54,-605.6"/>
<text text-anchor="start" x="204.54" y="-617.8" font-family="Arial" font-size="14.00">arguments </text>
<text text-anchor="start" x="274.57" y="-617.8" font-family="Arial" font-size="14.00" fill="#666666">[TEXT]</text>
<polygon fill="none" stroke="black" points="197.54,-574.8 197.54,-605.6 360.13,-605.6 360.13,-574.8 197.54,-574.8"/>
<text text-anchor="start" x="204.54" y="-587" font-family="Arial" font-size="14.00">system_id </text>
<text text-anchor="start" x="271.45" y="-587" font-family="Arial" font-size="14.00" fill="#666666">[INTEGER]</text>
</g>
<!-- emulator&#45;&gt;system -->
<g id="edge1" class="edge">
<title>emulator:system_id&#45;&gt;system:id</title>
<path fill="none" stroke="black" d="M371.02,-588.02C423.76,-564.33 442.07,-355.2 499.21,-355.2"/>
<polygon fill="black" stroke="black" points="371.23,-587.98 360.49,-585.73 366.02,-589.13 361.79,-590.06 361.79,-590.06 361.79,-590.06 366.02,-589.13 362.43,-594.52 371.23,-587.98"/>
<text text-anchor="start" x="368.13" y="-574.2" font-family="Arial" font-size="10.00">FOREIGN KEY (system_id) REFERENCES system (id) ON UPDATE NO ACTION ON DELETE CASCADE MATCH NONE</text>
</g>
<!-- franchise -->
<g id="node4" class="node">
<title>franchise</title>
<polygon fill="#efefef" stroke="none" points="1116.23,-104.8 1116.23,-140.4 1265.45,-140.4 1265.45,-104.8 1116.23,-104.8"/>
<polygon fill="none" stroke="black" points="1116.23,-104.8 1116.23,-140.4 1265.45,-140.4 1265.45,-104.8 1116.23,-104.8"/>
<text text-anchor="start" x="1123.23" y="-118.2" font-family="Arial Bold" font-size="18.00">franchise</text>
<text text-anchor="start" x="1189.19" y="-118.2" font-family="Arial" font-size="14.00">    </text>
<text text-anchor="start" x="1220.31" y="-118.2" font-family="Arial" font-size="14.00" fill="#666666">[table]</text>
<polygon fill="none" stroke="black" points="1116.23,-74 1116.23,-104.8 1265.45,-104.8 1265.45,-74 1116.23,-74"/>
<text text-anchor="start" x="1123.23" y="-86.2" font-family="Arial" font-size="14.00">id </text>
<text text-anchor="start" x="1138.01" y="-86.2" font-family="Arial" font-size="14.00" fill="#666666">[INTEGER]</text>
<polygon fill="none" stroke="black" points="1116.23,-43.2 1116.23,-74 1265.45,-74 1265.45,-43.2 1116.23,-43.2"/>
<text text-anchor="start" x="1123.23" y="-55.4" font-family="Arial" font-size="14.00">name </text>
<text text-anchor="start" x="1162.14" y="-55.4" font-family="Arial" font-size="14.00" fill="#666666">[TEXT]</text>
</g>
<!-- software_title -->
<g id="node5" class="node">
<title>software_title</title>
<polygon fill="#efefef" stroke="none" points="1099.73,-386 1099.73,-421.6 1281.95,-421.6 1281.95,-386 1099.73,-386"/>
<polygon fill="none" stroke="black" points="1099.73,-386 1099.73,-421.6 1281.95,-421.6 1281.95,-386 1099.73,-386"/>
<text text-anchor="start" x="1106.73" y="-399.4" font-family="Arial Bold" font-size="18.00">software_title</text>
<text text-anchor="start" x="1205.69" y="-399.4" font-family="Arial" font-size="14.00">    </text>
<text text-anchor="start" x="1236.81" y="-399.4" font-family="Arial" font-size="14.00" fill="#666666">[table]</text>
<polygon fill="none" stroke="black" points="1099.73,-355.2 1099.73,-386 1281.95,-386 1281.95,-355.2 1099.73,-355.2"/>
<text text-anchor="start" x="1106.73" y="-367.4" font-family="Arial" font-size="14.00">id </text>
<text text-anchor="start" x="1121.51" y="-367.4" font-family="Arial" font-size="14.00" fill="#666666">[INTEGER]</text>
<polygon fill="none" stroke="black" points="1099.73,-324.4 1099.73,-355.2 1281.95,-355.2 1281.95,-324.4 1099.73,-324.4"/>
<text text-anchor="start" x="1106.73" y="-336.6" font-family="Arial" font-size="14.00">name </text>
<text text-anchor="start" x="1145.64" y="-336.6" font-family="Arial" font-size="14.00" fill="#666666">[TEXT]</text>
<polygon fill="none" stroke="black" points="1099.73,-293.6 1099.73,-324.4 1281.95,-324.4 1281.95,-293.6 1099.73,-293.6"/>
<text text-anchor="start" x="1106.73" y="-305.8" font-family="Arial" font-size="14.00">franchise_id </text>
<text text-anchor="start" x="1186.11" y="-305.8" font-family="Arial" font-size="14.00" fill="#666666">[INTEGER]</text>
</g>
<!-- software_title&#45;&gt;franchise -->
<g id="edge2" class="edge">
<title>software_title:franchise_id&#45;&gt;franchise:id</title>
<path fill="none" stroke="black" d="M1191.48,-282.32C1197.8,-234.36 1248.9,-236.09 1265.45,-183.6 1278.04,-143.67 1308.31,-89.4 1266.45,-89.4"/>
<polygon fill="black" stroke="black" points="1191.48,-282.29 1186.37,-291.98 1191.15,-287.61 1190.88,-291.93 1190.88,-291.93 1190.88,-291.93 1191.15,-287.61 1195.35,-292.55 1191.48,-282.29"/>
<text text-anchor="start" x="1197.84" y="-302.6" font-family="Arial" font-size="10.00">FOREIGN KEY (franchise_id) REFERENCES franchise (id) ON UPDATE NO ACTION ON DELETE NO ACTION MATCH NONE</text>
</g>
<!-- release -->
<g id="node6" class="node">
<title>release</title>
<polygon fill="#efefef" stroke="none" points="1411.23,-370.6 1411.23,-406.2 1544.44,-406.2 1544.44,-370.6 1411.23,-370.6"/>
<polygon fill="none" stroke="black" points="1411.23,-370.6 1411.23,-406.2 1544.44,-406.2 1544.44,-370.6 1411.23,-370.6"/>
<text text-anchor="start" x="1418.23" y="-384" font-family="Arial Bold" font-size="18.00">release</text>
<text text-anchor="start" x="1468.19" y="-384" font-family="Arial" font-size="14.00">    </text>
<text text-anchor="start" x="1499.31" y="-384" font-family="Arial" font-size="14.00" fill="#666666">[table]</text>
<polygon fill="none" stroke="black" points="1411.23,-339.8 1411.23,-370.6 1544.44,-370.6 1544.44,-339.8 1411.23,-339.8"/>
<text text-anchor="start" x="1418.23" y="-352" font-family="Arial" font-size="14.00">id </text>
<text text-anchor="start" x="1433.02" y="-352" font-family="Arial" font-size="14.00" fill="#666666">[INTEGER]</text>
<polygon fill="none" stroke="black" points="1411.23,-309 1411.23,-339.8 1544.44,-339.8 1544.44,-309 1411.23,-309"/>
<text text-anchor="start" x="1418.23" y="-321.2" font-family="Arial" font-size="14.00">name </text>
<text text-anchor="start" x="1457.14" y="-321.2" font-family="Arial" font-size="14.00" fill="#666666">[TEXT]</text>
</g>
<!-- file_info -->
<g id="node7" class="node">
<title>file_info</title>
<polygon fill="#efefef" stroke="none" points="779.3,-416.8 779.3,-452.4 954.37,-452.4 954.37,-416.8 779.3,-416.8"/>
<polygon fill="none" stroke="black" points="779.3,-416.8 779.3,-452.4 954.37,-452.4 954.37,-416.8 779.3,-416.8"/>
<text text-anchor="start" x="801.22" y="-430.2" font-family="Arial Bold" font-size="18.00">file_info</text>
<text text-anchor="start" x="863.2" y="-430.2" font-family="Arial" font-size="14.00">    </text>
<text text-anchor="start" x="894.32" y="-430.2" font-family="Arial" font-size="14.00" fill="#666666">[table]</text>
<polygon fill="none" stroke="black" points="779.3,-386 779.3,-416.8 954.37,-416.8 954.37,-386 779.3,-386"/>
<text text-anchor="start" x="786.3" y="-398.2" font-family="Arial" font-size="14.00">id </text>
<text text-anchor="start" x="801.09" y="-398.2" font-family="Arial" font-size="14.00" fill="#666666">[INTEGER]</text>
<polygon fill="none" stroke="black" points="779.3,-355.2 779.3,-386 954.37,-386 954.37,-355.2 779.3,-355.2"/>
<text text-anchor="start" x="786.3" y="-367.4" font-family="Arial" font-size="14.00">sha1_checksum </text>
<text text-anchor="start" x="891.36" y="-367.4" font-family="Arial" font-size="14.00" fill="#666666">[BLOB]</text>
<polygon fill="none" stroke="black" points="779.3,-324.4 779.3,-355.2 954.37,-355.2 954.37,-324.4 779.3,-324.4"/>
<text text-anchor="start" x="786.3" y="-336.6" font-family="Arial" font-size="14.00">file_size </text>
<text text-anchor="start" x="840.77" y="-336.6" font-family="Arial" font-size="14.00" fill="#666666">[INTEGER]</text>
<polygon fill="none" stroke="black" points="779.3,-293.6 779.3,-324.4 954.37,-324.4 954.37,-293.6 779.3,-293.6"/>
<text text-anchor="start" x="786.3" y="-305.8" font-family="Arial" font-size="14.00">archive_file_name </text>
<text text-anchor="start" x="903.81" y="-305.8" font-family="Arial" font-size="14.00" fill="#666666">[TEXT]</text>
<polygon fill="none" stroke="black" points="779.3,-262.8 779.3,-293.6 954.37,-293.6 954.37,-262.8 779.3,-262.8"/>
<text text-anchor="start" x="786.3" y="-275" font-family="Arial" font-size="14.00">file_type </text>
<text text-anchor="start" x="842.34" y="-275" font-family="Arial" font-size="14.00" fill="#666666">[INTEGER]</text>
</g>
<!-- file_set -->
<g id="node8" class="node">
<title>file_set</title>
<polygon fill="#efefef" stroke="none" points="2188.82,-416.8 2188.82,-452.4 2328.86,-452.4 2328.86,-416.8 2188.82,-416.8"/>
<polygon fill="none" stroke="black" points="2188.82,-416.8 2188.82,-452.4 2328.86,-452.4 2328.86,-416.8 2188.82,-416.8"/>
<text text-anchor="start" x="2197.72" y="-430.2" font-family="Arial Bold" font-size="18.00">file_set</text>
<text text-anchor="start" x="2250.7" y="-430.2" font-family="Arial" font-size="14.00">    </text>
<text text-anchor="start" x="2281.82" y="-430.2" font-family="Arial" font-size="14.00" fill="#666666">[table]</text>
<polygon fill="none" stroke="black" points="2188.82,-386 2188.82,-416.8 2328.86,-416.8 2328.86,-386 2188.82,-386"/>
<text text-anchor="start" x="2195.82" y="-398.2" font-family="Arial" font-size="14.00">id </text>
<text text-anchor="start" x="2210.6" y="-398.2" font-family="Arial" font-size="14.00" fill="#666666">[INTEGER]</text>
<polygon fill="none" stroke="black" points="2188.82,-355.2 2188.82,-386 2328.86,-386 2328.86,-355.2 2188.82,-355.2"/>
<text text-anchor="start" x="2195.82" y="-367.4" font-family="Arial" font-size="14.00">file_name </text>
<text text-anchor="start" x="2260.41" y="-367.4" font-family="Arial" font-size="14.00" fill="#666666">[TEXT]</text>
<polygon fill="none" stroke="black" points="2188.82,-324.4 2188.82,-355.2 2328.86,-355.2 2328.86,-324.4 2188.82,-324.4"/>
<text text-anchor="start" x="2195.82" y="-336.6" font-family="Arial" font-size="14.00">file_type </text>
<text text-anchor="start" x="2251.85" y="-336.6" font-family="Arial" font-size="14.00" fill="#666666">[INTEGER]</text>
<polygon fill="none" stroke="black" points="2188.82,-293.6 2188.82,-324.4 2328.86,-324.4 2328.86,-293.6 2188.82,-293.6"/>
<text text-anchor="start" x="2195.82" y="-305.8" font-family="Arial" font-size="14.00">name </text>
<text text-anchor="start" x="2234.73" y="-305.8" font-family="Arial" font-size="14.00" fill="#666666">[TEXT]</text>
<polygon fill="none" stroke="black" points="2188.82,-262.8 2188.82,-293.6 2328.86,-293.6 2328.86,-262.8 2188.82,-262.8"/>
<text text-anchor="start" x="2195.82" y="-275" font-family="Arial" font-size="14.00">source </text>
<text text-anchor="start" x="2241.73" y="-275" font-family="Arial" font-size="14.00" fill="#666666">[TEXT]</text>
</g>
<!-- file_set_file_info -->
<g id="node9" class="node">
<title>file_set_file_info</title>
<polygon fill="#efefef" stroke="none" points="1694.23,-728.8 1694.23,-764.4 1901.44,-764.4 1901.44,-728.8 1694.23,-728.8"/>
<polygon fill="none" stroke="black" points="1694.23,-728.8 1694.23,-764.4 1901.44,-764.4 1901.44,-728.8 1694.23,-728.8"/>
<text text-anchor="start" x="1701.23" y="-742.2" font-family="Arial Bold" font-size="18.00">file_set_file_info</text>
<text text-anchor="start" x="1825.19" y="-742.2" font-family="Arial" font-size="14.00">    </text>
<text text-anchor="start" x="1856.31" y="-742.2" font-family="Arial" font-size="14.00" fill="#666666">[table]</text>
<polygon fill="none" stroke="black" points="1694.23,-698 1694.23,-728.8 1901.44,-728.8 1901.44,-698 1694.23,-698"/>
<text text-anchor="start" x="1701.23" y="-710.2" font-family="Arial" font-size="14.00">file_set_id </text>
<text text-anchor="start" x="1768.16" y="-710.2" font-family="Arial" font-size="14.00" fill="#666666">[INTEGER]</text>
<polygon fill="none" stroke="black" points="1694.23,-667.2 1694.23,-698 1901.44,-698 1901.44,-667.2 1694.23,-667.2"/>
<text text-anchor="start" x="1701.23" y="-679.4" font-family="Arial" font-size="14.00">file_info_id </text>
<text text-anchor="start" x="1772.06" y="-679.4" font-family="Arial" font-size="14.00" fill="#666666">[INTEGER]</text>
<polygon fill="none" stroke="black" points="1694.23,-636.4 1694.23,-667.2 1901.44,-667.2 1901.44,-636.4 1694.23,-636.4"/>
<text text-anchor="start" x="1701.23" y="-648.6" font-family="Arial" font-size="14.00">file_name </text>
<text text-anchor="start" x="1765.82" y="-648.6" font-family="Arial" font-size="14.00" fill="#666666">[TEXT]</text>
<polygon fill="none" stroke="black" points="1694.23,-605.6 1694.23,-636.4 1901.44,-636.4 1901.44,-605.6 1694.23,-605.6"/>
<text text-anchor="start" x="1701.23" y="-617.8" font-family="Arial" font-size="14.00">sort_order </text>
<text text-anchor="start" x="1768.93" y="-617.8" font-family="Arial" font-size="14.00" fill="#666666">[INTEGER]</text>
</g>
<!-- file_set_file_info&#45;&gt;file_info -->
<g id="edge3" class="edge">
<title>file_set_file_info:file_info_id&#45;&gt;file_info:id</title>
<path fill="none" stroke="black" d="M1682.87,-681.66C1630.24,-670.98 1695.12,-572.24 1641.84,-531.6 1536.69,-451.4 1168.17,-550.44 1047.84,-495.6 994.45,-471.27 1014.04,-401.4 955.37,-401.4"/>
<polygon fill="black" stroke="black" points="1682.94,-681.67 1692.49,-687.05 1688.25,-682.15 1692.56,-682.54 1692.56,-682.54 1692.56,-682.54 1688.25,-682.15 1693.3,-678.09 1682.94,-681.67"/>
<text text-anchor="start" x="1127.8" y="-692.6" font-family="Arial" font-size="10.00">FOREIGN KEY (file_info_id) REFERENCES file_info (id) ON UPDATE NO ACTION ON DELETE NO ACTION MATCH NONE</text>
</g>
<!-- file_set_file_info&#45;&gt;file_set -->
<g id="edge4" class="edge">
<title>file_set_file_info:file_set_id&#45;&gt;file_set:id</title>
<path fill="none" stroke="black" d="M1912.77,-712.71C1979.08,-703.08 1904.08,-594.5 1953.84,-531.6 2027.67,-438.26 2068.81,-401.4 2187.82,-401.4"/>
<polygon fill="black" stroke="black" points="1912.76,-712.71 1902.48,-708.89 1907.43,-713.07 1903.11,-713.36 1903.11,-713.36 1903.11,-713.36 1907.43,-713.07 1903.08,-717.87 1912.76,-712.71"/>
<text text-anchor="start" x="1909.44" y="-723.4" font-family="Arial" font-size="10.00">FOREIGN KEY (file_set_id) REFERENCES file_set (id) ON UPDATE NO ACTION ON DELETE NO ACTION MATCH NONE</text>
</g>
<!-- release_file_set -->
<g id="node10" class="node">
<title>release_file_set</title>
<polygon fill="#efefef" stroke="none" points="2006.24,-698 2006.24,-733.6 2201.43,-733.6 2201.43,-698 2006.24,-698"/>
<polygon fill="none" stroke="black" points="2006.24,-698 2006.24,-733.6 2201.43,-733.6 2201.43,-698 2006.24,-698"/>
<text text-anchor="start" x="2013.24" y="-711.4" font-family="Arial Bold" font-size="18.00">release_file_set</text>
<text text-anchor="start" x="2125.18" y="-711.4" font-family="Arial" font-size="14.00">    </text>
<text text-anchor="start" x="2156.3" y="-711.4" font-family="Arial" font-size="14.00" fill="#666666">[table]</text>
<polygon fill="none" stroke="black" points="2006.24,-667.2 2006.24,-698 2201.43,-698 2201.43,-667.2 2006.24,-667.2"/>
<text text-anchor="start" x="2013.24" y="-679.4" font-family="Arial" font-size="14.00">release_id </text>
<text text-anchor="start" x="2081.73" y="-679.4" font-family="Arial" font-size="14.00" fill="#666666">[INTEGER]</text>
<polygon fill="none" stroke="black" points="2006.24,-636.4 2006.24,-667.2 2201.43,-667.2 2201.43,-636.4 2006.24,-636.4"/>
<text text-anchor="start" x="2013.24" y="-648.6" font-family="Arial" font-size="14.00">file_set_id </text>
<text text-anchor="start" x="2080.17" y="-648.6" font-family="Arial" font-size="14.00" fill="#666666">[INTEGER]</text>
</g>
<!-- release_file_set&#45;&gt;release -->
<g id="edge6" class="edge">
<title>release_file_set:release_id&#45;&gt;release:id</title>
<path fill="none" stroke="black" d="M1995.14,-681.8C1941.15,-672.3 1999.4,-580.94 1953.84,-531.6 1819.7,-386.34 1743.16,-355.2 1545.44,-355.2"/>
<polygon fill="black" stroke="black" points="1994.94,-681.78 2004.55,-687.06 2000.26,-682.2 2004.57,-682.55 2004.57,-682.55 2004.57,-682.55 2000.26,-682.2 2005.26,-678.09 1994.94,-681.78"/>
<text text-anchor="start" x="2012.24" y="-692.6" font-family="Arial" font-size="10.00">FOREIGN KEY (release_id) REFERENCES release (id) ON UPDATE NO ACTION ON DELETE CASCADE MATCH NONE</text>
</g>
<!-- release_file_set&#45;&gt;file_set -->
<g id="edge5" class="edge">
<title>release_file_set:file_set_id&#45;&gt;file_set:id</title>
<path fill="none" stroke="black" d="M2212.67,-650.94C2298.08,-634.98 2080.15,-401.4 2187.82,-401.4"/>
<polygon fill="black" stroke="black" points="2212.73,-650.94 2202.39,-647.29 2207.42,-651.38 2203.1,-651.74 2203.1,-651.74 2203.1,-651.74 2207.42,-651.38 2203.14,-656.26 2212.73,-650.94"/>
<text text-anchor="start" x="2209.43" y="-661.8" font-family="Arial" font-size="10.00">FOREIGN KEY (file_set_id) REFERENCES file_set (id) ON UPDATE NO ACTION ON DELETE CASCADE MATCH NONE</text>
</g>
<!-- setting -->
<g id="node11" class="node">
<title>setting</title>
<polygon fill="#efefef" stroke="none" points="2271.21,-1040.8 2271.21,-1076.4 2402.46,-1076.4 2402.46,-1040.8 2271.21,-1040.8"/>
<polygon fill="none" stroke="black" points="2271.21,-1040.8 2271.21,-1076.4 2402.46,-1076.4 2402.46,-1040.8 2271.21,-1040.8"/>
<text text-anchor="start" x="2278.21" y="-1054.2" font-family="Arial Bold" font-size="18.00">setting</text>
<text text-anchor="start" x="2326.21" y="-1054.2" font-family="Arial" font-size="14.00">    </text>
<text text-anchor="start" x="2357.33" y="-1054.2" font-family="Arial" font-size="14.00" fill="#666666">[table]</text>
<polygon fill="none" stroke="black" points="2271.21,-1010 2271.21,-1040.8 2402.46,-1040.8 2402.46,-1010 2271.21,-1010"/>
<text text-anchor="start" x="2278.21" y="-1022.2" font-family="Arial" font-size="14.00">key </text>
<text text-anchor="start" x="2303.89" y="-1022.2" font-family="Arial" font-size="14.00" fill="#666666">[TEXT]</text>
<polygon fill="none" stroke="black" points="2271.21,-979.2 2271.21,-1010 2402.46,-1010 2402.46,-979.2 2271.21,-979.2"/>
<text text-anchor="start" x="2278.21" y="-991.4" font-family="Arial" font-size="14.00">value </text>
<text text-anchor="start" x="2315.57" y="-991.4" font-family="Arial" font-size="14.00" fill="#666666">[TEXT]</text>
</g>
<!-- document_viewer -->
<g id="node12" class="node">
<title>document_viewer</title>
<polygon fill="#efefef" stroke="none" points="2506.84,-1102.4 2506.84,-1138 2720.83,-1138 2720.83,-1102.4 2506.84,-1102.4"/>
<polygon fill="none" stroke="black" points="2506.84,-1102.4 2506.84,-1138 2720.83,-1138 2720.83,-1102.4 2506.84,-1102.4"/>
<text text-anchor="start" x="2514.73" y="-1115.8" font-family="Arial Bold" font-size="18.00">document_viewer</text>
<text text-anchor="start" x="2643.69" y="-1115.8" font-family="Arial" font-size="14.00">    </text>
<text text-anchor="start" x="2674.8" y="-1115.8" font-family="Arial" font-size="14.00" fill="#666666">[table]</text>
<polygon fill="none" stroke="black" points="2506.84,-1071.6 2506.84,-1102.4 2720.83,-1102.4 2720.83,-1071.6 2506.84,-1071.6"/>
<text text-anchor="start" x="2513.84" y="-1083.8" font-family="Arial" font-size="14.00">id </text>
<text text-anchor="start" x="2528.63" y="-1083.8" font-family="Arial" font-size="14.00" fill="#666666">[INTEGER]</text>
<polygon fill="none" stroke="black" points="2506.84,-1040.8 2506.84,-1071.6 2720.83,-1071.6 2720.83,-1040.8 2506.84,-1040.8"/>
<text text-anchor="start" x="2513.84" y="-1053" font-family="Arial" font-size="14.00">name </text>
<text text-anchor="start" x="2552.75" y="-1053" font-family="Arial" font-size="14.00" fill="#666666">[TEXT]</text>
<polygon fill="none" stroke="black" points="2506.84,-1010 2506.84,-1040.8 2720.83,-1040.8 2720.83,-1010 2506.84,-1010"/>
<text text-anchor="start" x="2513.84" y="-1022.2" font-family="Arial" font-size="14.00">executable </text>
<text text-anchor="start" x="2585.45" y="-1022.2" font-family="Arial" font-size="14.00" fill="#666666">[TEXT]</text>
<polygon fill="none" stroke="black" points="2506.84,-979.2 2506.84,-1010 2720.83,-1010 2720.83,-979.2 2506.84,-979.2"/>
<text text-anchor="start" x="2513.84" y="-991.4" font-family="Arial" font-size="14.00">document_type </text>
<text text-anchor="start" x="2613.46" y="-991.4" font-family="Arial" font-size="14.00" fill="#666666">[INTEGER]</text>
<polygon fill="none" stroke="black" points="2506.84,-948.4 2506.84,-979.2 2720.83,-979.2 2720.83,-948.4 2506.84,-948.4"/>
<text text-anchor="start" x="2513.84" y="-960.6" font-family="Arial" font-size="14.00">arguments </text>
<text text-anchor="start" x="2583.88" y="-960.6" font-family="Arial" font-size="14.00" fill="#666666">[TEXT]</text>
<polygon fill="none" stroke="black" points="2506.84,-917.6 2506.84,-948.4 2720.83,-948.4 2720.83,-917.6 2506.84,-917.6"/>
<text text-anchor="start" x="2513.84" y="-929.8" font-family="Arial" font-size="14.00">cleanup_temp_files </text>
<text text-anchor="start" x="2638.36" y="-929.8" font-family="Arial" font-size="14.00" fill="#666666">[BOOLEAN]</text>
</g>
<!-- release_system -->
<g id="node13" class="node">
<title>release_system</title>
<polygon fill="#efefef" stroke="none" points="773.73,-698 773.73,-733.6 965.94,-733.6 965.94,-698 773.73,-698"/>
<polygon fill="none" stroke="black" points="773.73,-698 773.73,-733.6 965.94,-733.6 965.94,-698 773.73,-698"/>
<text text-anchor="start" x="780.73" y="-711.4" font-family="Arial Bold" font-size="18.00">release_system</text>
<text text-anchor="start" x="889.69" y="-711.4" font-family="Arial" font-size="14.00">    </text>
<text text-anchor="start" x="920.81" y="-711.4" font-family="Arial" font-size="14.00" fill="#666666">[table]</text>
<polygon fill="none" stroke="black" points="773.73,-667.2 773.73,-698 965.94,-698 965.94,-667.2 773.73,-667.2"/>
<text text-anchor="start" x="780.73" y="-679.4" font-family="Arial" font-size="14.00">release_id </text>
<text text-anchor="start" x="849.22" y="-679.4" font-family="Arial" font-size="14.00" fill="#666666">[INTEGER]</text>
<polygon fill="none" stroke="black" points="773.73,-636.4 773.73,-667.2 965.94,-667.2 965.94,-636.4 773.73,-636.4"/>
<text text-anchor="start" x="780.73" y="-648.6" font-family="Arial" font-size="14.00">system_id </text>
<text text-anchor="start" x="847.64" y="-648.6" font-family="Arial" font-size="14.00" fill="#666666">[INTEGER]</text>
</g>
<!-- release_system&#45;&gt;system -->
<g id="edge7" class="edge">
<title>release_system:system_id&#45;&gt;system:id</title>
<path fill="none" stroke="black" d="M762.55,-650.98C718.26,-643.18 743.6,-581.05 720.84,-531.6 684.33,-452.31 721.76,-355.2 634.46,-355.2"/>
<polygon fill="black" stroke="black" points="762.43,-650.97 772.04,-656.26 767.75,-651.4 772.06,-651.75 772.06,-651.75 772.06,-651.75 767.75,-651.4 772.76,-647.29 762.43,-650.97"/>
<text text-anchor="start" x="639.82" y="-635.8" font-family="Arial" font-size="10.00">FOREIGN KEY (system_id) REFERENCES system (id) ON UPDATE NO ACTION ON DELETE CASCADE MATCH NONE</text>
</g>
<!-- release_system&#45;&gt;release -->
<g id="edge8" class="edge">
<title>release_system:release_id&#45;&gt;release:id</title>
<path fill="none" stroke="black" d="M977.3,-681.67C1029.95,-671.14 965.76,-573.67 1017.84,-531.6 1127.79,-442.77 1216.61,-574.59 1333.84,-495.6 1392.75,-455.9 1339.19,-355.2 1410.23,-355.2"/>
<polygon fill="black" stroke="black" points="977.24,-681.68 966.87,-678.09 971.92,-682.15 967.61,-682.54 967.61,-682.54 967.61,-682.54 971.92,-682.15 967.68,-687.05 977.24,-681.68"/>
<text text-anchor="start" x="412.06" y="-692.6" font-family="Arial" font-size="10.00">FOREIGN KEY (release_id) REFERENCES release (id) ON UPDATE NO ACTION ON DELETE CASCADE MATCH NONE</text>
</g>
<!-- release_software_title -->
<g id="node14" class="node">
<title>release_software_title</title>
<polygon fill="#efefef" stroke="none" points="1070.25,-698 1070.25,-733.6 1311.43,-733.6 1311.43,-698 1070.25,-698"/>
<polygon fill="none" stroke="black" points="1070.25,-698 1070.25,-733.6 1311.43,-733.6 1311.43,-698 1070.25,-698"/>
<text text-anchor="start" x="1077.25" y="-711.4" font-family="Arial Bold" font-size="18.00">release_software_title</text>
<text text-anchor="start" x="1235.17" y="-711.4" font-family="Arial" font-size="14.00">    </text>
<text text-anchor="start" x="1266.29" y="-711.4" font-family="Arial" font-size="14.00" fill="#666666">[table]</text>
<polygon fill="none" stroke="black" points="1070.25,-667.2 1070.25,-698 1311.43,-698 1311.43,-667.2 1070.25,-667.2"/>
<text text-anchor="start" x="1077.25" y="-679.4" font-family="Arial" font-size="14.00">release_id </text>
<text text-anchor="start" x="1145.74" y="-679.4" font-family="Arial" font-size="14.00" fill="#666666">[INTEGER]</text>
<polygon fill="none" stroke="black" points="1070.25,-636.4 1070.25,-667.2 1311.43,-667.2 1311.43,-636.4 1070.25,-636.4"/>
<text text-anchor="start" x="1077.25" y="-648.6" font-family="Arial" font-size="14.00">software_title_id </text>
<text text-anchor="start" x="1182.3" y="-648.6" font-family="Arial" font-size="14.00" fill="#666666">[INTEGER]</text>
</g>
<!-- release_software_title&#45;&gt;software_title -->
<g id="edge9" class="edge">
<title>release_software_title:software_title_id&#45;&gt;software_title:id</title>
<path fill="none" stroke="black" d="M1191.18,-625.24C1196.48,-549.19 1261.51,-544.66 1281.95,-464.8 1292.33,-424.24 1324.82,-370.6 1282.95,-370.6"/>
<polygon fill="black" stroke="black" points="1191.19,-625.07 1186.35,-634.91 1191.01,-630.4 1190.86,-634.73 1190.86,-634.73 1190.86,-634.73 1191.01,-630.4 1195.35,-635.22 1191.19,-625.07"/>
<text text-anchor="start" x="583.72" y="-619.4" font-family="Arial" font-size="10.00">FOREIGN KEY (software_title_id) REFERENCES software_title (id) ON UPDATE NO ACTION ON DELETE CASCADE MATCH NONE</text>
</g>
<!-- release_software_title&#45;&gt;release -->
<g id="edge10" class="edge">
<title>release_software_title:release_id&#45;&gt;release:id</title>
<path fill="none" stroke="black" d="M1322.27,-680.51C1383.58,-652.63 1337.86,-355.2 1410.23,-355.2"/>
<polygon fill="black" stroke="black" points="1322.53,-680.45 1311.82,-678.13 1317.32,-681.56 1313.08,-682.46 1313.08,-682.46 1313.08,-682.46 1317.32,-681.56 1313.69,-686.93 1322.53,-680.45"/>
<text text-anchor="start" x="1038.48" y="-666.6" font-family="Arial" font-size="10.00">FOREIGN KEY (release_id) REFERENCES release (id) ON UPDATE NO ACTION ON DELETE CASCADE MATCH NONE</text>
</g>
<!-- file_info_system -->
<g id="node15" class="node">
<title>file_info_system</title>
<polygon fill="#efefef" stroke="none" points="464.72,-698 464.72,-733.6 668.96,-733.6 668.96,-698 464.72,-698"/>
<polygon fill="none" stroke="black" points="464.72,-698 464.72,-733.6 668.96,-733.6 668.96,-698 464.72,-698"/>
<text text-anchor="start" x="471.72" y="-711.4" font-family="Arial Bold" font-size="18.00">file_info_system</text>
<text text-anchor="start" x="592.7" y="-711.4" font-family="Arial" font-size="14.00">    </text>
<text text-anchor="start" x="623.82" y="-711.4" font-family="Arial" font-size="14.00" fill="#666666">[table]</text>
<polygon fill="none" stroke="black" points="464.72,-667.2 464.72,-698 668.96,-698 668.96,-667.2 464.72,-667.2"/>
<text text-anchor="start" x="471.72" y="-679.4" font-family="Arial" font-size="14.00">file_info_id </text>
<text text-anchor="start" x="542.55" y="-679.4" font-family="Arial" font-size="14.00" fill="#666666">[INTEGER]</text>
<polygon fill="none" stroke="black" points="464.72,-636.4 464.72,-667.2 668.96,-667.2 668.96,-636.4 464.72,-636.4"/>
<text text-anchor="start" x="471.72" y="-648.6" font-family="Arial" font-size="14.00">system_id </text>
<text text-anchor="start" x="538.63" y="-648.6" font-family="Arial" font-size="14.00" fill="#666666">[INTEGER]</text>
</g>
<!-- file_info_system&#45;&gt;system -->
<g id="edge11" class="edge">
<title>file_info_system:system_id&#45;&gt;system:id</title>
<path fill="none" stroke="black" d="M567.24,-625.22C576.93,-499.38 759.2,-355.2 634.46,-355.2"/>
<polygon fill="black" stroke="black" points="567.24,-625.07 562.35,-634.89 567.03,-630.4 566.86,-634.73 566.86,-634.73 566.86,-634.73 567.03,-630.4 571.35,-635.24 567.24,-625.07"/>
<text text-anchor="start" x="7" y="-645.4" font-family="Arial" font-size="10.00">FOREIGN KEY (system_id) REFERENCES system (id) ON UPDATE NO ACTION ON DELETE NO ACTION MATCH NONE</text>
</g>
<!-- file_info_system&#45;&gt;file_info -->
<g id="edge12" class="edge">
<title>file_info_system:file_info_id&#45;&gt;file_info:id</title>
<path fill="none" stroke="black" d="M680.24,-681.91C736.39,-673.7 697.52,-594.27 721.84,-531.6 744.65,-472.8 715.23,-401.4 778.3,-401.4"/>
<polygon fill="black" stroke="black" points="680.27,-681.91 669.99,-678.09 674.94,-682.26 670.62,-682.56 670.62,-682.56 670.62,-682.56 674.94,-682.26 670.59,-687.07 680.27,-681.91"/>
<text text-anchor="start" x="111.73" y="-666.6" font-family="Arial" font-size="10.00">FOREIGN KEY (file_info_id) REFERENCES file_info (id) ON UPDATE NO ACTION ON DELETE CASCADE MATCH NONE</text>
</g>
<!-- file_sync_log -->
<g id="node16" class="node">
<title>file_sync_log</title>
<polygon fill="#efefef" stroke="none" points="2825.22,-1102.4 2825.22,-1138 3006.45,-1138 3006.45,-1102.4 2825.22,-1102.4"/>
<polygon fill="none" stroke="black" points="2825.22,-1102.4 2825.22,-1138 3006.45,-1138 3006.45,-1102.4 2825.22,-1102.4"/>
<text text-anchor="start" x="2832.22" y="-1115.8" font-family="Arial Bold" font-size="18.00">file_sync_log</text>
<text text-anchor="start" x="2930.2" y="-1115.8" font-family="Arial" font-size="14.00">    </text>
<text text-anchor="start" x="2961.32" y="-1115.8" font-family="Arial" font-size="14.00" fill="#666666">[table]</text>
<polygon fill="none" stroke="black" points="2825.22,-1071.6 2825.22,-1102.4 3006.45,-1102.4 3006.45,-1071.6 2825.22,-1071.6"/>
<text text-anchor="start" x="2832.22" y="-1083.8" font-family="Arial" font-size="14.00">id </text>
<text text-anchor="start" x="2847.01" y="-1083.8" font-family="Arial" font-size="14.00" fill="#666666">[INTEGER]</text>
<polygon fill="none" stroke="black" points="2825.22,-1040.8 2825.22,-1071.6 3006.45,-1071.6 3006.45,-1040.8 2825.22,-1040.8"/>
<text text-anchor="start" x="2832.22" y="-1053" font-family="Arial" font-size="14.00">file_info_id </text>
<text text-anchor="start" x="2903.05" y="-1053" font-family="Arial" font-size="14.00" fill="#666666">[INTEGER]</text>
<polygon fill="none" stroke="black" points="2825.22,-1010 2825.22,-1040.8 3006.45,-1040.8 3006.45,-1010 2825.22,-1010"/>
<text text-anchor="start" x="2832.22" y="-1022.2" font-family="Arial" font-size="14.00">sync_time </text>
<text text-anchor="start" x="2899.13" y="-1022.2" font-family="Arial" font-size="14.00" fill="#666666">[TIMESTAMP]</text>
<polygon fill="none" stroke="black" points="2825.22,-979.2 2825.22,-1010 3006.45,-1010 3006.45,-979.2 2825.22,-979.2"/>
<text text-anchor="start" x="2832.22" y="-991.4" font-family="Arial" font-size="14.00">status </text>
<text text-anchor="start" x="2873.46" y="-991.4" font-family="Arial" font-size="14.00" fill="#666666">[INTEGER]</text>
<polygon fill="none" stroke="black" points="2825.22,-948.4 2825.22,-979.2 3006.45,-979.2 3006.45,-948.4 2825.22,-948.4"/>
<text text-anchor="start" x="2832.22" y="-960.6" font-family="Arial" font-size="14.00">message </text>
<text text-anchor="start" x="2892.92" y="-960.6" font-family="Arial" font-size="14.00" fill="#666666">[TEXT]</text>
<polygon fill="none" stroke="black" points="2825.22,-917.6 2825.22,-948.4 3006.45,-948.4 3006.45,-917.6 2825.22,-917.6"/>
<text text-anchor="start" x="2832.22" y="-929.8" font-family="Arial" font-size="14.00">cloud_key </text>
<text text-anchor="start" x="2899.15" y="-929.8" font-family="Arial" font-size="14.00" fill="#666666">[TEXT]</text>
</g>
<!-- release_item -->
<g id="node17" class="node">
<title>release_item</title>
<polygon fill="#efefef" stroke="none" points="1415.73,-728.8 1415.73,-764.4 1589.94,-764.4 1589.94,-728.8 1415.73,-728.8"/>
<polygon fill="none" stroke="black" points="1415.73,-728.8 1415.73,-764.4 1589.94,-764.4 1589.94,-728.8 1415.73,-728.8"/>
<text text-anchor="start" x="1422.73" y="-742.2" font-family="Arial Bold" font-size="18.00">release_item</text>
<text text-anchor="start" x="1513.68" y="-742.2" font-family="Arial" font-size="14.00">    </text>
<text text-anchor="start" x="1544.8" y="-742.2" font-family="Arial" font-size="14.00" fill="#666666">[table]</text>
<polygon fill="none" stroke="black" points="1415.73,-698 1415.73,-728.8 1589.94,-728.8 1589.94,-698 1415.73,-698"/>
<text text-anchor="start" x="1422.73" y="-710.2" font-family="Arial" font-size="14.00">id </text>
<text text-anchor="start" x="1437.52" y="-710.2" font-family="Arial" font-size="14.00" fill="#666666">[INTEGER]</text>
<polygon fill="none" stroke="black" points="1415.73,-667.2 1415.73,-698 1589.94,-698 1589.94,-667.2 1415.73,-667.2"/>
<text text-anchor="start" x="1422.73" y="-679.4" font-family="Arial" font-size="14.00">release_id </text>
<text text-anchor="start" x="1491.22" y="-679.4" font-family="Arial" font-size="14.00" fill="#666666">[INTEGER]</text>
<polygon fill="none" stroke="black" points="1415.73,-636.4 1415.73,-667.2 1589.94,-667.2 1589.94,-636.4 1415.73,-636.4"/>
<text text-anchor="start" x="1422.73" y="-648.6" font-family="Arial" font-size="14.00">item_type </text>
<text text-anchor="start" x="1487.32" y="-648.6" font-family="Arial" font-size="14.00" fill="#666666">[INTEGER]</text>
<polygon fill="none" stroke="black" points="1415.73,-605.6 1415.73,-636.4 1589.94,-636.4 1589.94,-605.6 1415.73,-605.6"/>
<text text-anchor="start" x="1422.73" y="-617.8" font-family="Arial" font-size="14.00">notes </text>
<text text-anchor="start" x="1460.87" y="-617.8" font-family="Arial" font-size="14.00" fill="#666666">[TEXT]</text>
</g>
<!-- release_item&#45;&gt;release -->
<g id="edge13" class="edge">
<title>release_item:release_id&#45;&gt;release:id</title>
<path fill="none" stroke="black" d="M1404.7,-681.57C1365.79,-672.64 1395.06,-607.56 1415.73,-562.4 1447.42,-493.19 1512.68,-518.58 1544.44,-449.4 1561.91,-411.35 1587.31,-355.2 1545.44,-355.2"/>
<polygon fill="black" stroke="black" points="1404.45,-681.55 1413.94,-687.04 1409.76,-682.09 1414.07,-682.53 1414.07,-682.53 1414.07,-682.53 1409.76,-682.09 1414.86,-678.09 1404.45,-681.55"/>
<text text-anchor="start" x="1281.26" y="-666.6" font-family="Arial" font-size="10.00">FOREIGN KEY (release_id) REFERENCES release (id) ON UPDATE NO ACTION ON DELETE CASCADE MATCH NONE</text>
</g>
<!-- release_item_file_set -->
<g id="node18" class="node">
<title>release_item_file_set</title>
<polygon fill="#efefef" stroke="none" points="1930.74,-1040.8 1930.74,-1076.4 2166.93,-1076.4 2166.93,-1040.8 1930.74,-1040.8"/>
<polygon fill="none" stroke="black" points="1930.74,-1040.8 1930.74,-1076.4 2166.93,-1076.4 2166.93,-1040.8 1930.74,-1040.8"/>
<text text-anchor="start" x="1937.74" y="-1054.2" font-family="Arial Bold" font-size="18.00">release_item_file_set</text>
<text text-anchor="start" x="2090.67" y="-1054.2" font-family="Arial" font-size="14.00">    </text>
<text text-anchor="start" x="2121.79" y="-1054.2" font-family="Arial" font-size="14.00" fill="#666666">[table]</text>
<polygon fill="none" stroke="black" points="1930.74,-1010 1930.74,-1040.8 2166.93,-1040.8 2166.93,-1010 1930.74,-1010"/>
<text text-anchor="start" x="1937.74" y="-1022.2" font-family="Arial" font-size="14.00">release_item_id </text>
<text text-anchor="start" x="2040.47" y="-1022.2" font-family="Arial" font-size="14.00" fill="#666666">[INTEGER]</text>
<polygon fill="none" stroke="black" points="1930.74,-979.2 1930.74,-1010 2166.93,-1010 2166.93,-979.2 1930.74,-979.2"/>
<text text-anchor="start" x="1937.74" y="-991.4" font-family="Arial" font-size="14.00">file_set_id </text>
<text text-anchor="start" x="2004.68" y="-991.4" font-family="Arial" font-size="14.00" fill="#666666">[INTEGER]</text>
</g>
<!-- release_item_file_set&#45;&gt;file_set -->
<g id="edge14" class="edge">
<title>release_item_file_set:file_set_id&#45;&gt;file_set:id</title>
<path fill="none" stroke="black" d="M2178.07,-993.51C2219.24,-983.44 2175.24,-906.54 2218.84,-874.4 2283.01,-827.08 2522.36,-897.54 2575.84,-838.4 2667.29,-737.26 2646.17,-648.41 2575.84,-531.6 2512.03,-425.63 2453.55,-401.4 2329.86,-401.4"/>
<polygon fill="black" stroke="black" points="2178.2,-993.49 2167.78,-990.09 2172.9,-994.06 2168.59,-994.53 2168.59,-994.53 2168.59,-994.53 2172.9,-994.06 2168.74,-999.04 2178.2,-993.49"/>
<text text-anchor="start" x="1895.1" y="-978.6" font-family="Arial" font-size="10.00">FOREIGN KEY (file_set_id) REFERENCES file_set (id) ON UPDATE NO ACTION ON DELETE CASCADE MATCH NONE</text>
</g>
<!-- release_item_file_set&#45;&gt;release_item -->
<g id="edge15" class="edge">
<title>release_item_file_set:release_item_id&#45;&gt;release_item:id</title>
<path fill="none" stroke="black" d="M1919.35,-1024.48C1866.44,-1014.04 1929.34,-917.39 1877.84,-874.4 1796.38,-806.41 1725.15,-904.1 1641.84,-838.4 1594.74,-801.26 1650.92,-713.4 1590.94,-713.4"/>
<polygon fill="black" stroke="black" points="1919.45,-1024.49 1929.01,-1029.85 1924.76,-1024.96 1929.08,-1025.34 1929.08,-1025.34 1929.08,-1025.34 1924.76,-1024.96 1929.81,-1020.89 1919.45,-1024.49"/>
<text text-anchor="start" x="1325.96" y="-1035.4" font-family="Arial" font-size="10.00">FOREIGN KEY (release_item_id) REFERENCES release_item (id) ON UPDATE NO ACTION ON DELETE CASCADE MATCH NONE</text>
</g>
<!-- file_set_item_type -->
<g id="node19" class="node">
<title>file_set_item_type</title>
<polygon fill="#efefef" stroke="none" points="2306.23,-698 2306.23,-733.6 2523.45,-733.6 2523.45,-698 2306.23,-698"/>
<polygon fill="none" stroke="black" points="2306.23,-698 2306.23,-733.6 2523.45,-733.6 2523.45,-698 2306.23,-698"/>
<text text-anchor="start" x="2313.23" y="-711.4" font-family="Arial Bold" font-size="18.00">file_set_item_type</text>
<text text-anchor="start" x="2447.19" y="-711.4" font-family="Arial" font-size="14.00">    </text>
<text text-anchor="start" x="2478.31" y="-711.4" font-family="Arial" font-size="14.00" fill="#666666">[table]</text>
<polygon fill="none" stroke="black" points="2306.23,-667.2 2306.23,-698 2523.45,-698 2523.45,-667.2 2306.23,-667.2"/>
<text text-anchor="start" x="2313.23" y="-679.4" font-family="Arial" font-size="14.00">file_set_id </text>
<text text-anchor="start" x="2380.16" y="-679.4" font-family="Arial" font-size="14.00" fill="#666666">[INTEGER]</text>
<polygon fill="none" stroke="black" points="2306.23,-636.4 2306.23,-667.2 2523.45,-667.2 2523.45,-636.4 2306.23,-636.4"/>
<text text-anchor="start" x="2313.23" y="-648.6" font-family="Arial" font-size="14.00">item_type </text>
<text text-anchor="start" x="2377.81" y="-648.6" font-family="Arial" font-size="14.00" fill="#666666">[INTEGER]</text>
</g>
<!-- file_set_item_type&#45;&gt;file_set -->
<g id="edge16" class="edge">
<title>file_set_item_type:file_set_id&#45;&gt;file_set:id</title>
<path fill="none" stroke="black" d="M2294.91,-681.84C2196.09,-665.83 2451.52,-401.4 2329.86,-401.4"/>
<polygon fill="black" stroke="black" points="2294.92,-681.84 2304.56,-687.06 2300.24,-682.23 2304.56,-682.55 2304.56,-682.55 2304.56,-682.55 2300.24,-682.23 2305.22,-678.09 2294.92,-681.84"/>
<text text-anchor="start" x="2312.23" y="-692.6" font-family="Arial" font-size="10.00">FOREIGN KEY (file_set_id) REFERENCES file_set (id) ON UPDATE NO ACTION ON DELETE CASCADE MATCH NONE</text>
</g>
</g>
</svg>
