<?xml version="1.0" encoding="UTF-8" standalone="no"?>
<!DOCTYPE svg PUBLIC "-//W3C//DTD SVG 1.1//EN"
 "http://www.w3.org/Graphics/SVG/1.1/DTD/svg11.dtd">
<!-- Generated by graphviz version 12.1.2 (20240928.0832)
 -->
<!-- Title: software_title Pages: 1 -->
<svg width="1427pt" height="668pt"
 viewBox="0.00 0.00 1427.17 667.60" xmlns="http://www.w3.org/2000/svg" xmlns:xlink="http://www.w3.org/1999/xlink">
<g id="graph0" class="graph" transform="scale(1 1) rotate(0) translate(4 663.6)">
<title>software_title</title>
<polygon fill="white" stroke="none" points="-4,4 -4,-663.6 1423.17,-663.6 1423.17,4 -4,4"/>
<!-- software_title -->
<g id="node1" class="node">
<title>software_title</title>
<polygon fill="#efefef" stroke="none" points="512.6,-358.2 512.6,-393.8 694.82,-393.8 694.82,-358.2 512.6,-358.2"/>
<polygon fill="none" stroke="black" points="512.6,-358.2 512.6,-393.8 694.82,-393.8 694.82,-358.2 512.6,-358.2"/>
<text text-anchor="start" x="519.6" y="-371.6" font-family="Arial Bold" font-size="18.00">software_title</text>
<text text-anchor="start" x="618.56" y="-371.6" font-family="Arial" font-size="14.00">    </text>
<text text-anchor="start" x="649.68" y="-371.6" font-family="Arial" font-size="14.00" fill="#666666">[table]</text>
<polygon fill="none" stroke="black" points="512.6,-327.4 512.6,-358.2 694.82,-358.2 694.82,-327.4 512.6,-327.4"/>
<text text-anchor="start" x="519.6" y="-339.6" font-family="Arial" font-size="14.00">id </text>
<text text-anchor="start" x="534.38" y="-339.6" font-family="Arial" font-size="14.00" fill="#666666">[INTEGER]</text>
<polygon fill="none" stroke="black" points="512.6,-296.6 512.6,-327.4 694.82,-327.4 694.82,-296.6 512.6,-296.6"/>
<text text-anchor="start" x="519.6" y="-308.8" font-family="Arial" font-size="14.00">name </text>
<text text-anchor="start" x="558.51" y="-308.8" font-family="Arial" font-size="14.00" fill="#666666">[TEXT]</text>
<polygon fill="none" stroke="black" points="512.6,-265.8 512.6,-296.6 694.82,-296.6 694.82,-265.8 512.6,-265.8"/>
<text text-anchor="start" x="519.6" y="-278" font-family="Arial" font-size="14.00">franchise_id </text>
<text text-anchor="start" x="598.97" y="-278" font-family="Arial" font-size="14.00" fill="#666666">[INTEGER]</text>
<polygon fill="none" stroke="black" stroke-width="3" points="511.1,-264.3 511.1,-395.3 696.32,-395.3 696.32,-264.3 511.1,-264.3"/>
</g>
<!-- franchise -->
<g id="node4" class="node">
<title>franchise</title>
<polygon fill="#efefef" stroke="none" points="529.1,-104.8 529.1,-140.4 678.31,-140.4 678.31,-104.8 529.1,-104.8"/>
<polygon fill="none" stroke="black" points="529.1,-104.8 529.1,-140.4 678.31,-140.4 678.31,-104.8 529.1,-104.8"/>
<text text-anchor="start" x="536.1" y="-118.2" font-family="Arial Bold" font-size="18.00">franchise</text>
<text text-anchor="start" x="602.06" y="-118.2" font-family="Arial" font-size="14.00">    </text>
<text text-anchor="start" x="633.18" y="-118.2" font-family="Arial" font-size="14.00" fill="#666666">[table]</text>
<polygon fill="none" stroke="black" points="529.1,-74 529.1,-104.8 678.31,-104.8 678.31,-74 529.1,-74"/>
<text text-anchor="start" x="536.1" y="-86.2" font-family="Arial" font-size="14.00">id </text>
<text text-anchor="start" x="550.88" y="-86.2" font-family="Arial" font-size="14.00" fill="#666666">[INTEGER]</text>
<polygon fill="none" stroke="black" points="529.1,-43.2 529.1,-74 678.31,-74 678.31,-43.2 529.1,-43.2"/>
<text text-anchor="start" x="536.1" y="-55.4" font-family="Arial" font-size="14.00">name </text>
<text text-anchor="start" x="575.01" y="-55.4" font-family="Arial" font-size="14.00" fill="#666666">[TEXT]</text>
</g>
<!-- software_title&#45;&gt;franchise -->
<g id="edge3" class="edge">
<title>software_title:franchise_id&#45;&gt;franchise:id</title>
<path fill="none" stroke="black" d="M604.6,-254.87C611.89,-217.45 661.62,-225.79 678.31,-183.6 693.72,-144.67 721.18,-89.4 679.31,-89.4"/>
<polygon fill="black" stroke="black" points="604.63,-254.51 599.25,-264.06 604.15,-259.82 603.77,-264.13 603.77,-264.13 603.77,-264.13 604.15,-259.82 608.22,-264.87 604.63,-254.51"/>
<text text-anchor="start" x="26.06" y="-274.8" font-family="Arial" font-size="10.00">FOREIGN KEY (franchise_id) REFERENCES franchise (id) ON UPDATE NO ACTION ON DELETE NO ACTION MATCH NONE</text>
</g>
<!-- release_software_title -->
<g id="node2" class="node">
<title>release_software_title</title>
<polygon fill="#efefef" stroke="none" points="615.12,-580.8 615.12,-616.4 856.29,-616.4 856.29,-580.8 615.12,-580.8"/>
<polygon fill="none" stroke="black" points="615.12,-580.8 615.12,-616.4 856.29,-616.4 856.29,-580.8 615.12,-580.8"/>
<text text-anchor="start" x="622.12" y="-594.2" font-family="Arial Bold" font-size="18.00">release_software_title</text>
<text text-anchor="start" x="780.04" y="-594.2" font-family="Arial" font-size="14.00">    </text>
<text text-anchor="start" x="811.16" y="-594.2" font-family="Arial" font-size="14.00" fill="#666666">[table]</text>
<polygon fill="none" stroke="black" points="615.12,-550 615.12,-580.8 856.29,-580.8 856.29,-550 615.12,-550"/>
<text text-anchor="start" x="622.12" y="-562.2" font-family="Arial" font-size="14.00">release_id </text>
<text text-anchor="start" x="690.61" y="-562.2" font-family="Arial" font-size="14.00" fill="#666666">[INTEGER]</text>
<polygon fill="none" stroke="black" points="615.12,-519.2 615.12,-550 856.29,-550 856.29,-519.2 615.12,-519.2"/>
<text text-anchor="start" x="622.12" y="-531.4" font-family="Arial" font-size="14.00">software_title_id </text>
<text text-anchor="start" x="727.17" y="-531.4" font-family="Arial" font-size="14.00" fill="#666666">[INTEGER]</text>
</g>
<!-- release_software_title&#45;&gt;software_title -->
<g id="edge1" class="edge">
<title>release_software_title:software_title_id&#45;&gt;software_title:id</title>
<path fill="none" stroke="black" d="M604.26,-531.85C592.29,-522.92 603.15,-494.19 615.12,-476 636.48,-443.53 673.57,-472.55 694.82,-440 718.43,-403.83 739.02,-342.8 695.82,-342.8"/>
<polygon fill="black" stroke="black" points="604.16,-531.83 612.59,-538.85 609.3,-533.26 613.47,-534.42 613.47,-534.42 613.47,-534.42 609.3,-533.26 615,-530.18 604.16,-531.83"/>
<text text-anchor="start" x="7" y="-544.6" font-family="Arial" font-size="10.00">FOREIGN KEY (software_title_id) REFERENCES software_title (id) ON UPDATE NO ACTION ON DELETE CASCADE MATCH NONE</text>
</g>
<!-- release -->
<g id="node3" class="node">
<title>release</title>
<polygon fill="#efefef" stroke="none" points="802.1,-342.8 802.1,-378.4 935.31,-378.4 935.31,-342.8 802.1,-342.8"/>
<polygon fill="none" stroke="black" points="802.1,-342.8 802.1,-378.4 935.31,-378.4 935.31,-342.8 802.1,-342.8"/>
<text text-anchor="start" x="809.1" y="-356.2" font-family="Arial Bold" font-size="18.00">release</text>
<text text-anchor="start" x="859.06" y="-356.2" font-family="Arial" font-size="14.00">    </text>
<text text-anchor="start" x="890.17" y="-356.2" font-family="Arial" font-size="14.00" fill="#666666">[table]</text>
<polygon fill="none" stroke="black" points="802.1,-312 802.1,-342.8 935.31,-342.8 935.31,-312 802.1,-312"/>
<text text-anchor="start" x="809.1" y="-324.2" font-family="Arial" font-size="14.00">id </text>
<text text-anchor="start" x="823.89" y="-324.2" font-family="Arial" font-size="14.00" fill="#666666">[INTEGER]</text>
<polygon fill="none" stroke="black" points="802.1,-281.2 802.1,-312 935.31,-312 935.31,-281.2 802.1,-281.2"/>
<text text-anchor="start" x="809.1" y="-293.4" font-family="Arial" font-size="14.00">name </text>
<text text-anchor="start" x="848.01" y="-293.4" font-family="Arial" font-size="14.00" fill="#666666">[TEXT]</text>
</g>
<!-- release_software_title&#45;&gt;release -->
<g id="edge2" class="edge">
<title>release_software_title:release_id&#45;&gt;release:id</title>
<path fill="none" stroke="black" d="M867.47,-563.84C891.98,-554.85 870.11,-508.92 856.29,-476 843.09,-444.53 815.3,-453.07 802.1,-421.6 785.91,-382.99 759.23,-327.4 801.1,-327.4"/>
<polygon fill="black" stroke="black" points="867.51,-563.83 856.94,-560.9 862.24,-564.64 857.96,-565.3 857.96,-565.3 857.96,-565.3 862.24,-564.64 858.31,-569.8 867.51,-563.83"/>
<text text-anchor="start" x="864.29" y="-575.4" font-family="Arial" font-size="10.00">FOREIGN KEY (release_id) REFERENCES release (id) ON UPDATE NO ACTION ON DELETE CASCADE MATCH NONE</text>
</g>
</g>
</svg>
