<?xml version="1.0" encoding="UTF-8" standalone="no"?>
<!DOCTYPE svg PUBLIC "-//W3C//DTD SVG 1.1//EN"
 "http://www.w3.org/Graphics/SVG/1.1/DTD/svg11.dtd">
<!-- Generated by graphviz version 12.1.2 (20240928.0832)
 -->
<!-- Title: software_title Pages: 1 -->
<svg width="1427pt" height="668pt"
 viewBox="0.00 0.00 1427.17 667.60" xmlns="http://www.w3.org/2000/svg" xmlns:xlink="http://www.w3.org/1999/xlink">
<g id="graph0" class="graph" transform="scale(1 1) rotate(0) translate(4 663.6)">
<title>software_title</title>
<polygon fill="white" stroke="none" points="-4,4 -4,-663.6 1423.17,-663.6 1423.17,4 -4,4"/>
<!-- software_title -->
<g id="node1" class="node">
<title>software_title</title>
<polygon fill="#efefef" stroke="none" points="499.6,-358.2 499.6,-393.8 681.82,-393.8 681.82,-358.2 499.6,-358.2"/>
<polygon fill="none" stroke="black" points="499.6,-358.2 499.6,-393.8 681.82,-393.8 681.82,-358.2 499.6,-358.2"/>
<text text-anchor="start" x="506.6" y="-371.6" font-family="Arial Bold" font-size="18.00">software_title</text>
<text text-anchor="start" x="605.56" y="-371.6" font-family="Arial" font-size="14.00">    </text>
<text text-anchor="start" x="636.68" y="-371.6" font-family="Arial" font-size="14.00" fill="#666666">[table]</text>
<polygon fill="none" stroke="black" points="499.6,-327.4 499.6,-358.2 681.82,-358.2 681.82,-327.4 499.6,-327.4"/>
<text text-anchor="start" x="506.6" y="-339.6" font-family="Arial" font-size="14.00">id </text>
<text text-anchor="start" x="521.38" y="-339.6" font-family="Arial" font-size="14.00" fill="#666666">[INTEGER]</text>
<polygon fill="none" stroke="black" points="499.6,-296.6 499.6,-327.4 681.82,-327.4 681.82,-296.6 499.6,-296.6"/>
<text text-anchor="start" x="506.6" y="-308.8" font-family="Arial" font-size="14.00">name </text>
<text text-anchor="start" x="545.51" y="-308.8" font-family="Arial" font-size="14.00" fill="#666666">[TEXT]</text>
<polygon fill="none" stroke="black" points="499.6,-265.8 499.6,-296.6 681.82,-296.6 681.82,-265.8 499.6,-265.8"/>
<text text-anchor="start" x="506.6" y="-278" font-family="Arial" font-size="14.00">franchise_id </text>
<text text-anchor="start" x="585.97" y="-278" font-family="Arial" font-size="14.00" fill="#666666">[INTEGER]</text>
<polygon fill="none" stroke="black" stroke-width="3" points="498.1,-264.3 498.1,-395.3 683.32,-395.3 683.32,-264.3 498.1,-264.3"/>
</g>
<!-- franchise -->
<g id="node4" class="node">
<title>franchise</title>
<polygon fill="#efefef" stroke="none" points="516.1,-104.8 516.1,-140.4 665.31,-140.4 665.31,-104.8 516.1,-104.8"/>
<polygon fill="none" stroke="black" points="516.1,-104.8 516.1,-140.4 665.31,-140.4 665.31,-104.8 516.1,-104.8"/>
<text text-anchor="start" x="523.1" y="-118.2" font-family="Arial Bold" font-size="18.00">franchise</text>
<text text-anchor="start" x="589.06" y="-118.2" font-family="Arial" font-size="14.00">    </text>
<text text-anchor="start" x="620.18" y="-118.2" font-family="Arial" font-size="14.00" fill="#666666">[table]</text>
<polygon fill="none" stroke="black" points="516.1,-74 516.1,-104.8 665.31,-104.8 665.31,-74 516.1,-74"/>
<text text-anchor="start" x="523.1" y="-86.2" font-family="Arial" font-size="14.00">id </text>
<text text-anchor="start" x="537.88" y="-86.2" font-family="Arial" font-size="14.00" fill="#666666">[INTEGER]</text>
<polygon fill="none" stroke="black" points="516.1,-43.2 516.1,-74 665.31,-74 665.31,-43.2 516.1,-43.2"/>
<text text-anchor="start" x="523.1" y="-55.4" font-family="Arial" font-size="14.00">name </text>
<text text-anchor="start" x="562.01" y="-55.4" font-family="Arial" font-size="14.00" fill="#666666">[TEXT]</text>
</g>
<!-- software_title&#45;&gt;franchise -->
<g id="edge3" class="edge">
<title>software_title:franchise_id&#45;&gt;franchise:id</title>
<path fill="none" stroke="black" d="M591.6,-254.87C598.89,-217.45 648.62,-225.79 665.31,-183.6 680.72,-144.67 708.18,-89.4 666.31,-89.4"/>
<polygon fill="black" stroke="black" points="591.63,-254.51 586.25,-264.06 591.15,-259.82 590.77,-264.13 590.77,-264.13 590.77,-264.13 591.15,-259.82 595.22,-264.87 591.63,-254.51"/>
<text text-anchor="start" x="13.06" y="-274.8" font-family="Arial" font-size="10.00">FOREIGN KEY (franchise_id) REFERENCES franchise (id) ON UPDATE NO ACTION ON DELETE NO ACTION MATCH NONE</text>
</g>
<!-- release_software_title -->
<g id="node2" class="node">
<title>release_software_title</title>
<polygon fill="#efefef" stroke="none" points="615.12,-580.8 615.12,-616.4 856.29,-616.4 856.29,-580.8 615.12,-580.8"/>
<polygon fill="none" stroke="black" points="615.12,-580.8 615.12,-616.4 856.29,-616.4 856.29,-580.8 615.12,-580.8"/>
<text text-anchor="start" x="622.12" y="-594.2" font-family="Arial Bold" font-size="18.00">release_software_title</text>
<text text-anchor="start" x="780.04" y="-594.2" font-family="Arial" font-size="14.00">    </text>
<text text-anchor="start" x="811.16" y="-594.2" font-family="Arial" font-size="14.00" fill="#666666">[table]</text>
<polygon fill="none" stroke="black" points="615.12,-550 615.12,-580.8 856.29,-580.8 856.29,-550 615.12,-550"/>
<text text-anchor="start" x="622.12" y="-562.2" font-family="Arial" font-size="14.00">release_id </text>
<text text-anchor="start" x="690.61" y="-562.2" font-family="Arial" font-size="14.00" fill="#666666">[INTEGER]</text>
<polygon fill="none" stroke="black" points="615.12,-519.2 615.12,-550 856.29,-550 856.29,-519.2 615.12,-519.2"/>
<text text-anchor="start" x="622.12" y="-531.4" font-family="Arial" font-size="14.00">software_title_id </text>
<text text-anchor="start" x="727.17" y="-531.4" font-family="Arial" font-size="14.00" fill="#666666">[INTEGER]</text>
</g>
<!-- release_software_title&#45;&gt;software_title -->
<g id="edge1" class="edge">
<title>release_software_title:software_title_id&#45;&gt;software_title:id</title>
<path fill="none" stroke="black" d="M604.32,-531.89C592.5,-523.05 603.8,-494.6 615.12,-476 632.62,-447.22 664.41,-468.84 681.82,-440 704.14,-403.01 726.02,-342.8 682.82,-342.8"/>
<polygon fill="black" stroke="black" points="604.16,-531.84 612.59,-538.85 609.3,-533.27 613.47,-534.42 613.47,-534.42 613.47,-534.42 609.3,-533.27 615,-530.17 604.16,-531.84"/>
<text text-anchor="start" x="7" y="-544.6" font-family="Arial" font-size="10.00">FOREIGN KEY (software_title_id) REFERENCES software_title (id) ON UPDATE NO ACTION ON DELETE CASCADE MATCH NONE</text>
</g>
<!-- release -->
<g id="node3" class="node">
<title>release</title>
<polygon fill="#efefef" stroke="none" points="789.28,-358.2 789.28,-393.8 972.13,-393.8 972.13,-358.2 789.28,-358.2"/>
<polygon fill="none" stroke="black" points="789.28,-358.2 789.28,-393.8 972.13,-393.8 972.13,-358.2 789.28,-358.2"/>
<text text-anchor="start" x="821.1" y="-371.6" font-family="Arial Bold" font-size="18.00">release</text>
<text text-anchor="start" x="871.06" y="-371.6" font-family="Arial" font-size="14.00">    </text>
<text text-anchor="start" x="902.17" y="-371.6" font-family="Arial" font-size="14.00" fill="#666666">[table]</text>
<polygon fill="none" stroke="black" points="789.28,-327.4 789.28,-358.2 972.13,-358.2 972.13,-327.4 789.28,-327.4"/>
<text text-anchor="start" x="796.28" y="-339.6" font-family="Arial" font-size="14.00">id </text>
<text text-anchor="start" x="811.06" y="-339.6" font-family="Arial" font-size="14.00" fill="#666666">[INTEGER]</text>
<polygon fill="none" stroke="black" points="789.28,-296.6 789.28,-327.4 972.13,-327.4 972.13,-296.6 789.28,-296.6"/>
<text text-anchor="start" x="796.28" y="-308.8" font-family="Arial" font-size="14.00">name </text>
<text text-anchor="start" x="835.19" y="-308.8" font-family="Arial" font-size="14.00" fill="#666666">[TEXT]</text>
<polygon fill="none" stroke="black" points="789.28,-265.8 789.28,-296.6 972.13,-296.6 972.13,-265.8 789.28,-265.8"/>
<text text-anchor="start" x="796.28" y="-278" font-family="Arial" font-size="14.00">thumbnail_filename </text>
<text text-anchor="start" x="921.57" y="-278" font-family="Arial" font-size="14.00" fill="#666666">[TEXT]</text>
</g>
<!-- release_software_title&#45;&gt;release -->
<g id="edge2" class="edge">
<title>release_software_title:release_id&#45;&gt;release:id</title>
<path fill="none" stroke="black" d="M867.59,-563.78C892.83,-554.43 874.26,-506.85 856.29,-476 838.95,-446.22 806.62,-466.78 789.28,-437 768.21,-400.82 746.41,-342.8 788.28,-342.8"/>
<polygon fill="black" stroke="black" points="867.5,-563.79 856.92,-560.9 862.23,-564.62 857.95,-565.3 857.95,-565.3 857.95,-565.3 862.23,-564.62 858.33,-569.79 867.5,-563.79"/>
<text text-anchor="start" x="864.29" y="-575.4" font-family="Arial" font-size="10.00">FOREIGN KEY (release_id) REFERENCES release (id) ON UPDATE NO ACTION ON DELETE CASCADE MATCH NONE</text>
</g>
</g>
</svg>
