<?xml version="1.0" encoding="UTF-8" standalone="no"?>
<!DOCTYPE svg PUBLIC "-//W3C//DTD SVG 1.1//EN"
 "http://www.w3.org/Graphics/SVG/1.1/DTD/svg11.dtd">
<!-- Generated by graphviz version 12.1.2 (20240928.0832)
 -->
<!-- Title: system_libretro_core Pages: 1 -->
<svg width="1804pt" height="719pt"
 viewBox="0.00 0.00 1803.74 719.20" xmlns="http://www.w3.org/2000/svg" xmlns:xlink="http://www.w3.org/1999/xlink">
<g id="graph0" class="graph" transform="scale(1 1) rotate(0) translate(4 715.2)">
<title>system_libretro_core</title>
<polygon fill="white" stroke="none" points="-4,4 -4,-715.2 1799.74,-715.2 1799.74,4 -4,4"/>
<!-- system_libretro_core -->
<g id="node1" class="node">
<title>system_libretro_core</title>
<polygon fill="#efefef" stroke="none" points="323.42,-493.8 323.42,-529.4 558.62,-529.4 558.62,-493.8 323.42,-493.8"/>
<polygon fill="none" stroke="black" points="323.42,-493.8 323.42,-529.4 558.62,-529.4 558.62,-493.8 323.42,-493.8"/>
<text text-anchor="start" x="330.42" y="-507.2" font-family="Arial Bold" font-size="18.00">system_libretro_core</text>
<text text-anchor="start" x="482.37" y="-507.2" font-family="Arial" font-size="14.00">    </text>
<text text-anchor="start" x="513.49" y="-507.2" font-family="Arial" font-size="14.00" fill="#666666">[table]</text>
<polygon fill="none" stroke="black" points="323.42,-463 323.42,-493.8 558.62,-493.8 558.62,-463 323.42,-463"/>
<text text-anchor="start" x="330.42" y="-475.2" font-family="Arial" font-size="14.00">id </text>
<text text-anchor="start" x="345.2" y="-475.2" font-family="Arial" font-size="14.00" fill="#666666">[INTEGER]</text>
<polygon fill="none" stroke="black" points="323.42,-432.2 323.42,-463 558.62,-463 558.62,-432.2 323.42,-432.2"/>
<text text-anchor="start" x="330.42" y="-444.4" font-family="Arial" font-size="14.00">system_id </text>
<text text-anchor="start" x="397.33" y="-444.4" font-family="Arial" font-size="14.00" fill="#666666">[INTEGER]</text>
<polygon fill="none" stroke="black" points="323.42,-401.4 323.42,-432.2 558.62,-432.2 558.62,-401.4 323.42,-401.4"/>
<text text-anchor="start" x="330.42" y="-413.6" font-family="Arial" font-size="14.00">core_name </text>
<text text-anchor="start" x="404.35" y="-413.6" font-family="Arial" font-size="14.00" fill="#666666">[TEXT]</text>
<polygon fill="none" stroke="black" stroke-width="3" points="321.92,-399.9 321.92,-530.9 560.12,-530.9 560.12,-399.9 321.92,-399.9"/>
</g>
<!-- system -->
<g id="node2" class="node">
<title>system</title>
<polygon fill="#efefef" stroke="none" points="962.39,-104.8 962.39,-140.4 1095.65,-140.4 1095.65,-104.8 962.39,-104.8"/>
<polygon fill="none" stroke="black" points="962.39,-104.8 962.39,-140.4 1095.65,-140.4 1095.65,-104.8 962.39,-104.8"/>
<text text-anchor="start" x="969.39" y="-118.2" font-family="Arial Bold" font-size="18.00">system</text>
<text text-anchor="start" x="1019.39" y="-118.2" font-family="Arial" font-size="14.00">    </text>
<text text-anchor="start" x="1050.51" y="-118.2" font-family="Arial" font-size="14.00" fill="#666666">[table]</text>
<polygon fill="none" stroke="black" points="962.39,-74 962.39,-104.8 1095.65,-104.8 1095.65,-74 962.39,-74"/>
<text text-anchor="start" x="969.39" y="-86.2" font-family="Arial" font-size="14.00">id </text>
<text text-anchor="start" x="984.18" y="-86.2" font-family="Arial" font-size="14.00" fill="#666666">[INTEGER]</text>
<polygon fill="none" stroke="black" points="962.39,-43.2 962.39,-74 1095.65,-74 1095.65,-43.2 962.39,-43.2"/>
<text text-anchor="start" x="969.39" y="-55.4" font-family="Arial" font-size="14.00">name </text>
<text text-anchor="start" x="1008.3" y="-55.4" font-family="Arial" font-size="14.00" fill="#666666">[TEXT]</text>
</g>
<!-- system_libretro_core&#45;&gt;system -->
<g id="edge1" class="edge">
<title>system_libretro_core:system_id&#45;&gt;system:id</title>
<path fill="none" stroke="black" d="M569.8,-447.05C655.69,-437.15 547.5,-294.96 614.02,-219.6 723.13,-95.99 796.52,-89.4 961.39,-89.4"/>
<polygon fill="black" stroke="black" points="569.94,-447.05 559.72,-443.09 564.62,-447.33 560.29,-447.56 560.29,-447.56 560.29,-447.56 564.62,-447.33 560.2,-452.08 569.94,-447.05"/>
<text text-anchor="start" x="7" y="-457.6" font-family="Arial" font-size="10.00">FOREIGN KEY (system_id) REFERENCES system (id) ON UPDATE NO ACTION ON DELETE CASCADE MATCH NONE</text>
</g>
<!-- emulator -->
<g id="node3" class="node">
<title>emulator</title>
<polygon fill="#efefef" stroke="none" points="665.72,-540 665.72,-575.6 828.32,-575.6 828.32,-540 665.72,-540"/>
<polygon fill="none" stroke="black" points="665.72,-540 665.72,-575.6 828.32,-575.6 828.32,-540 665.72,-540"/>
<text text-anchor="start" x="680.41" y="-553.4" font-family="Arial Bold" font-size="18.00">emulator</text>
<text text-anchor="start" x="744.38" y="-553.4" font-family="Arial" font-size="14.00">    </text>
<text text-anchor="start" x="775.5" y="-553.4" font-family="Arial" font-size="14.00" fill="#666666">[table]</text>
<polygon fill="none" stroke="black" points="665.72,-509.2 665.72,-540 828.32,-540 828.32,-509.2 665.72,-509.2"/>
<text text-anchor="start" x="672.72" y="-521.4" font-family="Arial" font-size="14.00">id </text>
<text text-anchor="start" x="687.51" y="-521.4" font-family="Arial" font-size="14.00" fill="#666666">[INTEGER]</text>
<polygon fill="none" stroke="black" points="665.72,-478.4 665.72,-509.2 828.32,-509.2 828.32,-478.4 665.72,-478.4"/>
<text text-anchor="start" x="672.72" y="-490.6" font-family="Arial" font-size="14.00">name </text>
<text text-anchor="start" x="711.63" y="-490.6" font-family="Arial" font-size="14.00" fill="#666666">[TEXT]</text>
<polygon fill="none" stroke="black" points="665.72,-447.6 665.72,-478.4 828.32,-478.4 828.32,-447.6 665.72,-447.6"/>
<text text-anchor="start" x="672.72" y="-459.8" font-family="Arial" font-size="14.00">executable </text>
<text text-anchor="start" x="744.33" y="-459.8" font-family="Arial" font-size="14.00" fill="#666666">[TEXT]</text>
<polygon fill="none" stroke="black" points="665.72,-416.8 665.72,-447.6 828.32,-447.6 828.32,-416.8 665.72,-416.8"/>
<text text-anchor="start" x="672.72" y="-429" font-family="Arial" font-size="14.00">extract_files </text>
<text text-anchor="start" x="751.31" y="-429" font-family="Arial" font-size="14.00" fill="#666666">[INTEGER]</text>
<polygon fill="none" stroke="black" points="665.72,-386 665.72,-416.8 828.32,-416.8 828.32,-386 665.72,-386"/>
<text text-anchor="start" x="672.72" y="-398.2" font-family="Arial" font-size="14.00">arguments </text>
<text text-anchor="start" x="742.76" y="-398.2" font-family="Arial" font-size="14.00" fill="#666666">[TEXT]</text>
<polygon fill="none" stroke="black" points="665.72,-355.2 665.72,-386 828.32,-386 828.32,-355.2 665.72,-355.2"/>
<text text-anchor="start" x="672.72" y="-367.4" font-family="Arial" font-size="14.00">system_id </text>
<text text-anchor="start" x="739.63" y="-367.4" font-family="Arial" font-size="14.00" fill="#666666">[INTEGER]</text>
</g>
<!-- emulator&#45;&gt;system -->
<g id="edge2" class="edge">
<title>emulator:system_id&#45;&gt;system:id</title>
<path fill="none" stroke="black" d="M839.56,-369.89C895.25,-361.5 852.31,-280.35 881.02,-219.6 910.08,-158.12 893.39,-89.4 961.39,-89.4"/>
<polygon fill="black" stroke="black" points="839.63,-369.89 829.34,-366.09 834.3,-370.25 829.98,-370.55 829.98,-370.55 829.98,-370.55 834.3,-370.25 829.96,-375.07 839.63,-369.89"/>
<text text-anchor="start" x="836.32" y="-354.6" font-family="Arial" font-size="10.00">FOREIGN KEY (system_id) REFERENCES system (id) ON UPDATE NO ACTION ON DELETE CASCADE MATCH NONE</text>
</g>
<!-- release_system -->
<g id="node4" class="node">
<title>release_system</title>
<polygon fill="#efefef" stroke="none" points="932.91,-478.4 932.91,-514 1125.13,-514 1125.13,-478.4 932.91,-478.4"/>
<polygon fill="none" stroke="black" points="932.91,-478.4 932.91,-514 1125.13,-514 1125.13,-478.4 932.91,-478.4"/>
<text text-anchor="start" x="939.91" y="-491.8" font-family="Arial Bold" font-size="18.00">release_system</text>
<text text-anchor="start" x="1048.87" y="-491.8" font-family="Arial" font-size="14.00">    </text>
<text text-anchor="start" x="1079.99" y="-491.8" font-family="Arial" font-size="14.00" fill="#666666">[table]</text>
<polygon fill="none" stroke="black" points="932.91,-447.6 932.91,-478.4 1125.13,-478.4 1125.13,-447.6 932.91,-447.6"/>
<text text-anchor="start" x="939.91" y="-459.8" font-family="Arial" font-size="14.00">release_id </text>
<text text-anchor="start" x="1008.4" y="-459.8" font-family="Arial" font-size="14.00" fill="#666666">[INTEGER]</text>
<polygon fill="none" stroke="black" points="932.91,-416.8 932.91,-447.6 1125.13,-447.6 1125.13,-416.8 932.91,-416.8"/>
<text text-anchor="start" x="939.91" y="-429" font-family="Arial" font-size="14.00">system_id </text>
<text text-anchor="start" x="1006.82" y="-429" font-family="Arial" font-size="14.00" fill="#666666">[INTEGER]</text>
</g>
<!-- release_system&#45;&gt;system -->
<g id="edge3" class="edge">
<title>release_system:system_id&#45;&gt;system:id</title>
<path fill="none" stroke="black" d="M1029.34,-405.77C1038.53,-259.73 1241.47,-89.4 1096.65,-89.4"/>
<polygon fill="black" stroke="black" points="1029.35,-405.47 1024.53,-415.32 1029.18,-410.8 1029.04,-415.13 1029.04,-415.13 1029.04,-415.13 1029.18,-410.8 1033.53,-415.61 1029.35,-405.47"/>
<text text-anchor="start" x="1036.02" y="-425.8" font-family="Arial" font-size="10.00">FOREIGN KEY (system_id) REFERENCES system (id) ON UPDATE NO ACTION ON DELETE CASCADE MATCH NONE</text>
</g>
<!-- file_info_system -->
<g id="node5" class="node">
<title>file_info_system</title>
<polygon fill="#efefef" stroke="none" points="1229.9,-478.4 1229.9,-514 1434.14,-514 1434.14,-478.4 1229.9,-478.4"/>
<polygon fill="none" stroke="black" points="1229.9,-478.4 1229.9,-514 1434.14,-514 1434.14,-478.4 1229.9,-478.4"/>
<text text-anchor="start" x="1236.9" y="-491.8" font-family="Arial Bold" font-size="18.00">file_info_system</text>
<text text-anchor="start" x="1357.88" y="-491.8" font-family="Arial" font-size="14.00">    </text>
<text text-anchor="start" x="1389" y="-491.8" font-family="Arial" font-size="14.00" fill="#666666">[table]</text>
<polygon fill="none" stroke="black" points="1229.9,-447.6 1229.9,-478.4 1434.14,-478.4 1434.14,-447.6 1229.9,-447.6"/>
<text text-anchor="start" x="1236.9" y="-459.8" font-family="Arial" font-size="14.00">file_info_id </text>
<text text-anchor="start" x="1307.73" y="-459.8" font-family="Arial" font-size="14.00" fill="#666666">[INTEGER]</text>
<polygon fill="none" stroke="black" points="1229.9,-416.8 1229.9,-447.6 1434.14,-447.6 1434.14,-416.8 1229.9,-416.8"/>
<text text-anchor="start" x="1236.9" y="-429" font-family="Arial" font-size="14.00">system_id </text>
<text text-anchor="start" x="1303.81" y="-429" font-family="Arial" font-size="14.00" fill="#666666">[INTEGER]</text>
</g>
<!-- file_info_system&#45;&gt;system -->
<g id="edge4" class="edge">
<title>file_info_system:system_id&#45;&gt;system:id</title>
<path fill="none" stroke="black" d="M1218.8,-431.7C1137.63,-423.13 1213.16,-306 1177.02,-219.6 1150.78,-156.86 1164.65,-89.4 1096.65,-89.4"/>
<polygon fill="black" stroke="black" points="1218.58,-431.69 1228.35,-436.68 1223.91,-431.95 1228.23,-432.17 1228.23,-432.17 1228.23,-432.17 1223.91,-431.95 1228.79,-427.69 1218.58,-431.69"/>
<text text-anchor="start" x="1235.9" y="-442.2" font-family="Arial" font-size="10.00">FOREIGN KEY (system_id) REFERENCES system (id) ON UPDATE NO ACTION ON DELETE NO ACTION MATCH NONE</text>
</g>
<!-- dat_file -->
<g id="node6" class="node">
<title>dat_file</title>
<polygon fill="#efefef" stroke="none" points="1538.56,-632.4 1538.56,-668 1689.48,-668 1689.48,-632.4 1538.56,-632.4"/>
<polygon fill="none" stroke="black" points="1538.56,-632.4 1538.56,-668 1689.48,-668 1689.48,-632.4 1538.56,-632.4"/>
<text text-anchor="start" x="1551.91" y="-645.8" font-family="Arial Bold" font-size="18.00">dat_file</text>
<text text-anchor="start" x="1606.88" y="-645.8" font-family="Arial" font-size="14.00">    </text>
<text text-anchor="start" x="1638" y="-645.8" font-family="Arial" font-size="14.00" fill="#666666">[table]</text>
<polygon fill="none" stroke="black" points="1538.56,-601.6 1538.56,-632.4 1689.48,-632.4 1689.48,-601.6 1538.56,-601.6"/>
<text text-anchor="start" x="1545.56" y="-613.8" font-family="Arial" font-size="14.00">id </text>
<text text-anchor="start" x="1560.35" y="-613.8" font-family="Arial" font-size="14.00" fill="#666666">[INTEGER]</text>
<polygon fill="none" stroke="black" points="1538.56,-570.8 1538.56,-601.6 1689.48,-601.6 1689.48,-570.8 1538.56,-570.8"/>
<text text-anchor="start" x="1545.56" y="-583" font-family="Arial" font-size="14.00">dat_id </text>
<text text-anchor="start" x="1587.6" y="-583" font-family="Arial" font-size="14.00" fill="#666666">[INTEGER]</text>
<polygon fill="none" stroke="black" points="1538.56,-540 1538.56,-570.8 1689.48,-570.8 1689.48,-540 1538.56,-540"/>
<text text-anchor="start" x="1545.56" y="-552.2" font-family="Arial" font-size="14.00">name </text>
<text text-anchor="start" x="1584.47" y="-552.2" font-family="Arial" font-size="14.00" fill="#666666">[TEXT]</text>
<polygon fill="none" stroke="black" points="1538.56,-509.2 1538.56,-540 1689.48,-540 1689.48,-509.2 1538.56,-509.2"/>
<text text-anchor="start" x="1545.56" y="-521.4" font-family="Arial" font-size="14.00">description </text>
<text text-anchor="start" x="1617.15" y="-521.4" font-family="Arial" font-size="14.00" fill="#666666">[TEXT]</text>
<polygon fill="none" stroke="black" points="1538.56,-478.4 1538.56,-509.2 1689.48,-509.2 1689.48,-478.4 1538.56,-478.4"/>
<text text-anchor="start" x="1545.56" y="-490.6" font-family="Arial" font-size="14.00">version </text>
<text text-anchor="start" x="1594.58" y="-490.6" font-family="Arial" font-size="14.00" fill="#666666">[TEXT]</text>
<polygon fill="none" stroke="black" points="1538.56,-447.6 1538.56,-478.4 1689.48,-478.4 1689.48,-447.6 1538.56,-447.6"/>
<text text-anchor="start" x="1545.56" y="-459.8" font-family="Arial" font-size="14.00">date </text>
<text text-anchor="start" x="1576.7" y="-459.8" font-family="Arial" font-size="14.00" fill="#666666">[TEXT]</text>
<polygon fill="none" stroke="black" points="1538.56,-416.8 1538.56,-447.6 1689.48,-447.6 1689.48,-416.8 1538.56,-416.8"/>
<text text-anchor="start" x="1545.56" y="-429" font-family="Arial" font-size="14.00">author </text>
<text text-anchor="start" x="1589.15" y="-429" font-family="Arial" font-size="14.00" fill="#666666">[TEXT]</text>
<polygon fill="none" stroke="black" points="1538.56,-386 1538.56,-416.8 1689.48,-416.8 1689.48,-386 1538.56,-386"/>
<text text-anchor="start" x="1545.56" y="-398.2" font-family="Arial" font-size="14.00">homepage </text>
<text text-anchor="start" x="1615.62" y="-398.2" font-family="Arial" font-size="14.00" fill="#666666">[TEXT]</text>
<polygon fill="none" stroke="black" points="1538.56,-355.2 1538.56,-386 1689.48,-386 1689.48,-355.2 1538.56,-355.2"/>
<text text-anchor="start" x="1545.56" y="-367.4" font-family="Arial" font-size="14.00">url </text>
<text text-anchor="start" x="1565.01" y="-367.4" font-family="Arial" font-size="14.00" fill="#666666">[TEXT]</text>
<polygon fill="none" stroke="black" points="1538.56,-324.4 1538.56,-355.2 1689.48,-355.2 1689.48,-324.4 1538.56,-324.4"/>
<text text-anchor="start" x="1545.56" y="-336.6" font-family="Arial" font-size="14.00">subset </text>
<text text-anchor="start" x="1590.7" y="-336.6" font-family="Arial" font-size="14.00" fill="#666666">[TEXT]</text>
<polygon fill="none" stroke="black" points="1538.56,-293.6 1538.56,-324.4 1689.48,-324.4 1689.48,-293.6 1538.56,-293.6"/>
<text text-anchor="start" x="1545.56" y="-305.8" font-family="Arial" font-size="14.00">imported_at </text>
<text text-anchor="start" x="1623.38" y="-305.8" font-family="Arial" font-size="14.00" fill="#666666">[TEXT]</text>
<polygon fill="none" stroke="black" points="1538.56,-262.8 1538.56,-293.6 1689.48,-293.6 1689.48,-262.8 1538.56,-262.8"/>
<text text-anchor="start" x="1545.56" y="-275" font-family="Arial" font-size="14.00">system_id </text>
<text text-anchor="start" x="1612.47" y="-275" font-family="Arial" font-size="14.00" fill="#666666">[INTEGER]</text>
</g>
<!-- dat_file&#45;&gt;system -->
<g id="edge5" class="edge">
<title>dat_file:system_id&#45;&gt;system:id</title>
<path fill="none" stroke="black" d="M1527.45,-276.77C1505.08,-269.53 1511.64,-236.61 1486.02,-219.6 1334,-118.68 1279.12,-89.4 1096.65,-89.4"/>
<polygon fill="black" stroke="black" points="1527.33,-276.75 1536.6,-282.61 1532.61,-277.5 1536.9,-278.11 1536.9,-278.11 1536.9,-278.11 1532.61,-277.5 1537.86,-273.7 1527.33,-276.75"/>
<text text-anchor="start" x="984.94" y="-288.2" font-family="Arial" font-size="10.00">FOREIGN KEY (system_id) REFERENCES system (id) ON UPDATE NO ACTION ON DELETE CASCADE MATCH NONE</text>
</g>
</g>
</svg>
