<?xml version="1.0" encoding="UTF-8" standalone="no"?>
<!DOCTYPE svg PUBLIC "-//W3C//DTD SVG 1.1//EN"
 "http://www.w3.org/Graphics/SVG/1.1/DTD/svg11.dtd">
<!-- Generated by graphviz version 12.1.2 (20240928.0832)
 -->
<!-- Title: system Pages: 1 -->
<svg width="2305pt" height="1247pt"
 viewBox="0.00 0.00 2305.11 1246.80" xmlns="http://www.w3.org/2000/svg" xmlns:xlink="http://www.w3.org/1999/xlink">
<g id="graph0" class="graph" transform="scale(1 1) rotate(0) translate(4 1242.8)">
<title>system</title>
<polygon fill="white" stroke="none" points="-4,4 -4,-1242.8 2301.11,-1242.8 2301.11,4 -4,4"/>
<!-- system -->
<g id="node1" class="node">
<title>system</title>
<polygon fill="#efefef" stroke="none" points="941.15,-181.8 941.15,-217.4 1074.4,-217.4 1074.4,-181.8 941.15,-181.8"/>
<polygon fill="none" stroke="black" points="941.15,-181.8 941.15,-217.4 1074.4,-217.4 1074.4,-181.8 941.15,-181.8"/>
<text text-anchor="start" x="948.15" y="-195.2" font-family="Arial Bold" font-size="18.00">system</text>
<text text-anchor="start" x="998.15" y="-195.2" font-family="Arial" font-size="14.00">    </text>
<text text-anchor="start" x="1029.26" y="-195.2" font-family="Arial" font-size="14.00" fill="#666666">[table]</text>
<polygon fill="none" stroke="black" points="941.15,-151 941.15,-181.8 1074.4,-181.8 1074.4,-151 941.15,-151"/>
<text text-anchor="start" x="948.15" y="-163.2" font-family="Arial" font-size="14.00">id </text>
<text text-anchor="start" x="962.93" y="-163.2" font-family="Arial" font-size="14.00" fill="#666666">[INTEGER]</text>
<polygon fill="none" stroke="black" points="941.15,-120.2 941.15,-151 1074.4,-151 1074.4,-120.2 941.15,-120.2"/>
<text text-anchor="start" x="948.15" y="-132.4" font-family="Arial" font-size="14.00">name </text>
<text text-anchor="start" x="987.06" y="-132.4" font-family="Arial" font-size="14.00" fill="#666666">[TEXT]</text>
<polygon fill="none" stroke="black" stroke-width="3" points="939.65,-118.7 939.65,-218.9 1075.9,-218.9 1075.9,-118.7 939.65,-118.7"/>
</g>
<!-- emulator -->
<g id="node2" class="node">
<title>emulator</title>
<polygon fill="#efefef" stroke="none" points="665.48,-694 665.48,-729.6 828.07,-729.6 828.07,-694 665.48,-694"/>
<polygon fill="none" stroke="black" points="665.48,-694 665.48,-729.6 828.07,-729.6 828.07,-694 665.48,-694"/>
<text text-anchor="start" x="680.16" y="-707.4" font-family="Arial Bold" font-size="18.00">emulator</text>
<text text-anchor="start" x="744.13" y="-707.4" font-family="Arial" font-size="14.00">    </text>
<text text-anchor="start" x="775.25" y="-707.4" font-family="Arial" font-size="14.00" fill="#666666">[table]</text>
<polygon fill="none" stroke="black" points="665.48,-663.2 665.48,-694 828.07,-694 828.07,-663.2 665.48,-663.2"/>
<text text-anchor="start" x="672.48" y="-675.4" font-family="Arial" font-size="14.00">id </text>
<text text-anchor="start" x="687.26" y="-675.4" font-family="Arial" font-size="14.00" fill="#666666">[INTEGER]</text>
<polygon fill="none" stroke="black" points="665.48,-632.4 665.48,-663.2 828.07,-663.2 828.07,-632.4 665.48,-632.4"/>
<text text-anchor="start" x="672.48" y="-644.6" font-family="Arial" font-size="14.00">name </text>
<text text-anchor="start" x="711.39" y="-644.6" font-family="Arial" font-size="14.00" fill="#666666">[TEXT]</text>
<polygon fill="none" stroke="black" points="665.48,-601.6 665.48,-632.4 828.07,-632.4 828.07,-601.6 665.48,-601.6"/>
<text text-anchor="start" x="672.48" y="-613.8" font-family="Arial" font-size="14.00">executable </text>
<text text-anchor="start" x="744.08" y="-613.8" font-family="Arial" font-size="14.00" fill="#666666">[TEXT]</text>
<polygon fill="none" stroke="black" points="665.48,-570.8 665.48,-601.6 828.07,-601.6 828.07,-570.8 665.48,-570.8"/>
<text text-anchor="start" x="672.48" y="-583" font-family="Arial" font-size="14.00">extract_files </text>
<text text-anchor="start" x="751.06" y="-583" font-family="Arial" font-size="14.00" fill="#666666">[INTEGER]</text>
<polygon fill="none" stroke="black" points="665.48,-540 665.48,-570.8 828.07,-570.8 828.07,-540 665.48,-540"/>
<text text-anchor="start" x="672.48" y="-552.2" font-family="Arial" font-size="14.00">arguments </text>
<text text-anchor="start" x="742.51" y="-552.2" font-family="Arial" font-size="14.00" fill="#666666">[TEXT]</text>
<polygon fill="none" stroke="black" points="665.48,-509.2 665.48,-540 828.07,-540 828.07,-509.2 665.48,-509.2"/>
<text text-anchor="start" x="672.48" y="-521.4" font-family="Arial" font-size="14.00">system_id </text>
<text text-anchor="start" x="739.39" y="-521.4" font-family="Arial" font-size="14.00" fill="#666666">[INTEGER]</text>
</g>
<!-- emulator&#45;&gt;system -->
<g id="edge1" class="edge">
<title>emulator:system_id&#45;&gt;system:id</title>
<path fill="none" stroke="black" d="M837.9,-519.26C874.82,-474.7 901.49,-166.4 940.15,-166.4"/>
<polygon fill="black" stroke="black" points="837.91,-519.25 827.03,-520.58 833.35,-522.01 829.64,-524.25 829.64,-524.25 829.64,-524.25 833.35,-522.01 831.69,-528.28 837.91,-519.25"/>
<text text-anchor="start" x="276.45" y="-508.6" font-family="Arial" font-size="10.00">FOREIGN KEY (system_id) REFERENCES system (id) ON UPDATE NO ACTION ON DELETE CASCADE MATCH NONE</text>
</g>
<!-- release_system -->
<g id="node3" class="node">
<title>release_system</title>
<polygon fill="#efefef" stroke="none" points="368.67,-632.4 368.67,-668 560.88,-668 560.88,-632.4 368.67,-632.4"/>
<polygon fill="none" stroke="black" points="368.67,-632.4 368.67,-668 560.88,-668 560.88,-632.4 368.67,-632.4"/>
<text text-anchor="start" x="375.67" y="-645.8" font-family="Arial Bold" font-size="18.00">release_system</text>
<text text-anchor="start" x="484.63" y="-645.8" font-family="Arial" font-size="14.00">    </text>
<text text-anchor="start" x="515.74" y="-645.8" font-family="Arial" font-size="14.00" fill="#666666">[table]</text>
<polygon fill="none" stroke="black" points="368.67,-601.6 368.67,-632.4 560.88,-632.4 560.88,-601.6 368.67,-601.6"/>
<text text-anchor="start" x="375.67" y="-613.8" font-family="Arial" font-size="14.00">release_id </text>
<text text-anchor="start" x="444.16" y="-613.8" font-family="Arial" font-size="14.00" fill="#666666">[INTEGER]</text>
<polygon fill="none" stroke="black" points="368.67,-570.8 368.67,-601.6 560.88,-601.6 560.88,-570.8 368.67,-570.8"/>
<text text-anchor="start" x="375.67" y="-583" font-family="Arial" font-size="14.00">system_id </text>
<text text-anchor="start" x="442.58" y="-583" font-family="Arial" font-size="14.00" fill="#666666">[INTEGER]</text>
</g>
<!-- release_system&#45;&gt;system -->
<g id="edge2" class="edge">
<title>release_system:system_id&#45;&gt;system:id</title>
<path fill="none" stroke="black" d="M571.9,-585.66C651.79,-576.36 559.19,-449.7 613.77,-373.6 713.92,-233.99 768.33,-166.4 940.15,-166.4"/>
<polygon fill="black" stroke="black" points="572.2,-585.64 561.97,-581.69 566.87,-585.93 562.55,-586.16 562.55,-586.16 562.55,-586.16 566.87,-585.93 562.46,-590.68 572.2,-585.64"/>
<text text-anchor="start" x="9.26" y="-596.2" font-family="Arial" font-size="10.00">FOREIGN KEY (system_id) REFERENCES system (id) ON UPDATE NO ACTION ON DELETE CASCADE MATCH NONE</text>
</g>
<!-- release -->
<g id="node4" class="node">
<title>release</title>
<polygon fill="#efefef" stroke="none" points="373.35,-197.2 373.35,-232.8 556.2,-232.8 556.2,-197.2 373.35,-197.2"/>
<polygon fill="none" stroke="black" points="373.35,-197.2 373.35,-232.8 556.2,-232.8 556.2,-197.2 373.35,-197.2"/>
<text text-anchor="start" x="405.17" y="-210.6" font-family="Arial Bold" font-size="18.00">release</text>
<text text-anchor="start" x="455.13" y="-210.6" font-family="Arial" font-size="14.00">    </text>
<text text-anchor="start" x="486.24" y="-210.6" font-family="Arial" font-size="14.00" fill="#666666">[table]</text>
<polygon fill="none" stroke="black" points="373.35,-166.4 373.35,-197.2 556.2,-197.2 556.2,-166.4 373.35,-166.4"/>
<text text-anchor="start" x="380.35" y="-178.6" font-family="Arial" font-size="14.00">id </text>
<text text-anchor="start" x="395.13" y="-178.6" font-family="Arial" font-size="14.00" fill="#666666">[INTEGER]</text>
<polygon fill="none" stroke="black" points="373.35,-135.6 373.35,-166.4 556.2,-166.4 556.2,-135.6 373.35,-135.6"/>
<text text-anchor="start" x="380.35" y="-147.8" font-family="Arial" font-size="14.00">name </text>
<text text-anchor="start" x="419.26" y="-147.8" font-family="Arial" font-size="14.00" fill="#666666">[TEXT]</text>
<polygon fill="none" stroke="black" points="373.35,-104.8 373.35,-135.6 556.2,-135.6 556.2,-104.8 373.35,-104.8"/>
<text text-anchor="start" x="380.35" y="-117" font-family="Arial" font-size="14.00">thumbnail_filename </text>
<text text-anchor="start" x="505.64" y="-117" font-family="Arial" font-size="14.00" fill="#666666">[TEXT]</text>
</g>
<!-- release_system&#45;&gt;release -->
<g id="edge3" class="edge">
<title>release_system:release_id&#45;&gt;release:id</title>
<path fill="none" stroke="black" d="M570.57,-611.81C609.45,-562.71 602.44,-181.8 557.2,-181.8"/>
<polygon fill="black" stroke="black" points="570.75,-611.7 559.86,-612.96 566.17,-614.44 562.46,-616.66 562.46,-616.66 562.46,-616.66 566.17,-614.44 564.48,-620.69 570.75,-611.7"/>
<text text-anchor="start" x="7" y="-627" font-family="Arial" font-size="10.00">FOREIGN KEY (release_id) REFERENCES release (id) ON UPDATE NO ACTION ON DELETE CASCADE MATCH NONE</text>
</g>
<!-- file_info_system -->
<g id="node5" class="node">
<title>file_info_system</title>
<polygon fill="#efefef" stroke="none" points="1526.66,-632.4 1526.66,-668 1730.89,-668 1730.89,-632.4 1526.66,-632.4"/>
<polygon fill="none" stroke="black" points="1526.66,-632.4 1526.66,-668 1730.89,-668 1730.89,-632.4 1526.66,-632.4"/>
<text text-anchor="start" x="1533.66" y="-645.8" font-family="Arial Bold" font-size="18.00">file_info_system</text>
<text text-anchor="start" x="1654.64" y="-645.8" font-family="Arial" font-size="14.00">    </text>
<text text-anchor="start" x="1685.75" y="-645.8" font-family="Arial" font-size="14.00" fill="#666666">[table]</text>
<polygon fill="none" stroke="black" points="1526.66,-601.6 1526.66,-632.4 1730.89,-632.4 1730.89,-601.6 1526.66,-601.6"/>
<text text-anchor="start" x="1533.66" y="-613.8" font-family="Arial" font-size="14.00">file_info_id </text>
<text text-anchor="start" x="1604.48" y="-613.8" font-family="Arial" font-size="14.00" fill="#666666">[INTEGER]</text>
<polygon fill="none" stroke="black" points="1526.66,-570.8 1526.66,-601.6 1730.89,-601.6 1730.89,-570.8 1526.66,-570.8"/>
<text text-anchor="start" x="1533.66" y="-583" font-family="Arial" font-size="14.00">system_id </text>
<text text-anchor="start" x="1600.57" y="-583" font-family="Arial" font-size="14.00" fill="#666666">[INTEGER]</text>
</g>
<!-- file_info_system&#45;&gt;system -->
<g id="edge4" class="edge">
<title>file_info_system:system_id&#45;&gt;system:id</title>
<path fill="none" stroke="black" d="M1515.66,-585.65C1436.15,-576.18 1532.4,-447.3 1474.77,-373.6 1351.61,-216.07 1275.37,-166.4 1075.4,-166.4"/>
<polygon fill="black" stroke="black" points="1515.34,-585.63 1525.07,-590.67 1520.66,-585.92 1524.99,-586.16 1524.99,-586.16 1524.99,-586.16 1520.66,-585.92 1525.57,-581.69 1515.34,-585.63"/>
<text text-anchor="start" x="1532.66" y="-596.2" font-family="Arial" font-size="10.00">FOREIGN KEY (system_id) REFERENCES system (id) ON UPDATE NO ACTION ON DELETE NO ACTION MATCH NONE</text>
</g>
<!-- file_info -->
<g id="node6" class="node">
<title>file_info</title>
<polygon fill="#efefef" stroke="none" points="1527.24,-258.8 1527.24,-294.4 1730.31,-294.4 1730.31,-258.8 1527.24,-258.8"/>
<polygon fill="none" stroke="black" points="1527.24,-258.8 1527.24,-294.4 1730.31,-294.4 1730.31,-258.8 1527.24,-258.8"/>
<text text-anchor="start" x="1563.16" y="-272.2" font-family="Arial Bold" font-size="18.00">file_info</text>
<text text-anchor="start" x="1625.14" y="-272.2" font-family="Arial" font-size="14.00">    </text>
<text text-anchor="start" x="1656.25" y="-272.2" font-family="Arial" font-size="14.00" fill="#666666">[table]</text>
<polygon fill="none" stroke="black" points="1527.24,-228 1527.24,-258.8 1730.31,-258.8 1730.31,-228 1527.24,-228"/>
<text text-anchor="start" x="1534.24" y="-240.2" font-family="Arial" font-size="14.00">id </text>
<text text-anchor="start" x="1549.02" y="-240.2" font-family="Arial" font-size="14.00" fill="#666666">[INTEGER]</text>
<polygon fill="none" stroke="black" points="1527.24,-197.2 1527.24,-228 1730.31,-228 1730.31,-197.2 1527.24,-197.2"/>
<text text-anchor="start" x="1534.24" y="-209.4" font-family="Arial" font-size="14.00">sha1_checksum </text>
<text text-anchor="start" x="1639.29" y="-209.4" font-family="Arial" font-size="14.00" fill="#666666">[BLOB]</text>
<polygon fill="none" stroke="black" points="1527.24,-166.4 1527.24,-197.2 1730.31,-197.2 1730.31,-166.4 1527.24,-166.4"/>
<text text-anchor="start" x="1534.24" y="-178.6" font-family="Arial" font-size="14.00">file_size </text>
<text text-anchor="start" x="1588.71" y="-178.6" font-family="Arial" font-size="14.00" fill="#666666">[INTEGER]</text>
<polygon fill="none" stroke="black" points="1527.24,-135.6 1527.24,-166.4 1730.31,-166.4 1730.31,-135.6 1527.24,-135.6"/>
<text text-anchor="start" x="1534.24" y="-147.8" font-family="Arial" font-size="14.00">archive_file_name </text>
<text text-anchor="start" x="1651.75" y="-147.8" font-family="Arial" font-size="14.00" fill="#666666">[TEXT]</text>
<polygon fill="none" stroke="black" points="1527.24,-104.8 1527.24,-135.6 1730.31,-135.6 1730.31,-104.8 1527.24,-104.8"/>
<text text-anchor="start" x="1534.24" y="-117" font-family="Arial" font-size="14.00">file_type </text>
<text text-anchor="start" x="1590.27" y="-117" font-family="Arial" font-size="14.00" fill="#666666">[INTEGER]</text>
<polygon fill="none" stroke="black" points="1527.24,-74 1527.24,-104.8 1730.31,-104.8 1730.31,-74 1527.24,-74"/>
<text text-anchor="start" x="1534.24" y="-86.2" font-family="Arial" font-size="14.00">is_available </text>
<text text-anchor="start" x="1611.28" y="-86.2" font-family="Arial" font-size="14.00" fill="#666666">[INTEGER]</text>
<polygon fill="none" stroke="black" points="1527.24,-43.2 1527.24,-74 1730.31,-74 1730.31,-43.2 1527.24,-43.2"/>
<text text-anchor="start" x="1534.24" y="-55.4" font-family="Arial" font-size="14.00">cloud_sync_status </text>
<text text-anchor="start" x="1653.31" y="-55.4" font-family="Arial" font-size="14.00" fill="#666666">[INTEGER]</text>
</g>
<!-- file_info_system&#45;&gt;file_info -->
<g id="edge5" class="edge">
<title>file_info_system:file_info_id&#45;&gt;file_info:id</title>
<path fill="none" stroke="black" d="M1742.13,-614.99C1814.71,-585.58 1810.77,-243.4 1731.31,-243.4"/>
<polygon fill="black" stroke="black" points="1742.03,-615.01 1731.35,-612.52 1736.8,-616.04 1732.55,-616.87 1732.55,-616.87 1732.55,-616.87 1736.8,-616.04 1733.09,-621.35 1742.03,-615.01"/>
<text text-anchor="start" x="1738.89" y="-627" font-family="Arial" font-size="10.00">FOREIGN KEY (file_info_id) REFERENCES file_info (id) ON UPDATE NO ACTION ON DELETE CASCADE MATCH NONE</text>
</g>
<!-- dat_file -->
<g id="node7" class="node">
<title>dat_file</title>
<polygon fill="#efefef" stroke="none" points="932.32,-786.4 932.32,-822 1083.23,-822 1083.23,-786.4 932.32,-786.4"/>
<polygon fill="none" stroke="black" points="932.32,-786.4 932.32,-822 1083.23,-822 1083.23,-786.4 932.32,-786.4"/>
<text text-anchor="start" x="945.66" y="-799.8" font-family="Arial Bold" font-size="18.00">dat_file</text>
<text text-anchor="start" x="1000.63" y="-799.8" font-family="Arial" font-size="14.00">    </text>
<text text-anchor="start" x="1031.75" y="-799.8" font-family="Arial" font-size="14.00" fill="#666666">[table]</text>
<polygon fill="none" stroke="black" points="932.32,-755.6 932.32,-786.4 1083.23,-786.4 1083.23,-755.6 932.32,-755.6"/>
<text text-anchor="start" x="939.32" y="-767.8" font-family="Arial" font-size="14.00">id </text>
<text text-anchor="start" x="954.1" y="-767.8" font-family="Arial" font-size="14.00" fill="#666666">[INTEGER]</text>
<polygon fill="none" stroke="black" points="932.32,-724.8 932.32,-755.6 1083.23,-755.6 1083.23,-724.8 932.32,-724.8"/>
<text text-anchor="start" x="939.32" y="-737" font-family="Arial" font-size="14.00">dat_id </text>
<text text-anchor="start" x="981.35" y="-737" font-family="Arial" font-size="14.00" fill="#666666">[INTEGER]</text>
<polygon fill="none" stroke="black" points="932.32,-694 932.32,-724.8 1083.23,-724.8 1083.23,-694 932.32,-694"/>
<text text-anchor="start" x="939.32" y="-706.2" font-family="Arial" font-size="14.00">name </text>
<text text-anchor="start" x="978.23" y="-706.2" font-family="Arial" font-size="14.00" fill="#666666">[TEXT]</text>
<polygon fill="none" stroke="black" points="932.32,-663.2 932.32,-694 1083.23,-694 1083.23,-663.2 932.32,-663.2"/>
<text text-anchor="start" x="939.32" y="-675.4" font-family="Arial" font-size="14.00">description </text>
<text text-anchor="start" x="1010.91" y="-675.4" font-family="Arial" font-size="14.00" fill="#666666">[TEXT]</text>
<polygon fill="none" stroke="black" points="932.32,-632.4 932.32,-663.2 1083.23,-663.2 1083.23,-632.4 932.32,-632.4"/>
<text text-anchor="start" x="939.32" y="-644.6" font-family="Arial" font-size="14.00">version </text>
<text text-anchor="start" x="988.34" y="-644.6" font-family="Arial" font-size="14.00" fill="#666666">[TEXT]</text>
<polygon fill="none" stroke="black" points="932.32,-601.6 932.32,-632.4 1083.23,-632.4 1083.23,-601.6 932.32,-601.6"/>
<text text-anchor="start" x="939.32" y="-613.8" font-family="Arial" font-size="14.00">date </text>
<text text-anchor="start" x="970.45" y="-613.8" font-family="Arial" font-size="14.00" fill="#666666">[TEXT]</text>
<polygon fill="none" stroke="black" points="932.32,-570.8 932.32,-601.6 1083.23,-601.6 1083.23,-570.8 932.32,-570.8"/>
<text text-anchor="start" x="939.32" y="-583" font-family="Arial" font-size="14.00">author </text>
<text text-anchor="start" x="982.9" y="-583" font-family="Arial" font-size="14.00" fill="#666666">[TEXT]</text>
<polygon fill="none" stroke="black" points="932.32,-540 932.32,-570.8 1083.23,-570.8 1083.23,-540 932.32,-540"/>
<text text-anchor="start" x="939.32" y="-552.2" font-family="Arial" font-size="14.00">homepage </text>
<text text-anchor="start" x="1009.37" y="-552.2" font-family="Arial" font-size="14.00" fill="#666666">[TEXT]</text>
<polygon fill="none" stroke="black" points="932.32,-509.2 932.32,-540 1083.23,-540 1083.23,-509.2 932.32,-509.2"/>
<text text-anchor="start" x="939.32" y="-521.4" font-family="Arial" font-size="14.00">url </text>
<text text-anchor="start" x="958.76" y="-521.4" font-family="Arial" font-size="14.00" fill="#666666">[TEXT]</text>
<polygon fill="none" stroke="black" points="932.32,-478.4 932.32,-509.2 1083.23,-509.2 1083.23,-478.4 932.32,-478.4"/>
<text text-anchor="start" x="939.32" y="-490.6" font-family="Arial" font-size="14.00">subset </text>
<text text-anchor="start" x="984.45" y="-490.6" font-family="Arial" font-size="14.00" fill="#666666">[TEXT]</text>
<polygon fill="none" stroke="black" points="932.32,-447.6 932.32,-478.4 1083.23,-478.4 1083.23,-447.6 932.32,-447.6"/>
<text text-anchor="start" x="939.32" y="-459.8" font-family="Arial" font-size="14.00">imported_at </text>
<text text-anchor="start" x="1017.14" y="-459.8" font-family="Arial" font-size="14.00" fill="#666666">[TEXT]</text>
<polygon fill="none" stroke="black" points="932.32,-416.8 932.32,-447.6 1083.23,-447.6 1083.23,-416.8 932.32,-416.8"/>
<text text-anchor="start" x="939.32" y="-429" font-family="Arial" font-size="14.00">system_id </text>
<text text-anchor="start" x="1006.23" y="-429" font-family="Arial" font-size="14.00" fill="#666666">[INTEGER]</text>
</g>
<!-- dat_file&#45;&gt;system -->
<g id="edge6" class="edge">
<title>dat_file:system_id&#45;&gt;system:id</title>
<path fill="none" stroke="black" d="M1008.23,-405.66C1018.21,-293.18 1186.88,-166.4 1075.4,-166.4"/>
<polygon fill="black" stroke="black" points="1008.24,-405.48 1003.29,-415.26 1008,-410.81 1007.8,-415.13 1007.8,-415.13 1007.8,-415.13 1008,-410.81 1012.28,-415.67 1008.24,-405.48"/>
<text text-anchor="start" x="1014.77" y="-425.8" font-family="Arial" font-size="10.00">FOREIGN KEY (system_id) REFERENCES system (id) ON UPDATE NO ACTION ON DELETE CASCADE MATCH NONE</text>
</g>
<!-- dat_game -->
<g id="node8" class="node">
<title>dat_game</title>
<polygon fill="#efefef" stroke="none" points="781.16,-1160 781.16,-1195.6 934.39,-1195.6 934.39,-1160 781.16,-1160"/>
<polygon fill="none" stroke="black" points="781.16,-1160 781.16,-1195.6 934.39,-1195.6 934.39,-1160 781.16,-1160"/>
<text text-anchor="start" x="788.16" y="-1173.4" font-family="Arial Bold" font-size="18.00">dat_game</text>
<text text-anchor="start" x="858.13" y="-1173.4" font-family="Arial" font-size="14.00">    </text>
<text text-anchor="start" x="889.25" y="-1173.4" font-family="Arial" font-size="14.00" fill="#666666">[table]</text>
<polygon fill="none" stroke="black" points="781.16,-1129.2 781.16,-1160 934.39,-1160 934.39,-1129.2 781.16,-1129.2"/>
<text text-anchor="start" x="788.16" y="-1141.4" font-family="Arial" font-size="14.00">id </text>
<text text-anchor="start" x="802.95" y="-1141.4" font-family="Arial" font-size="14.00" fill="#666666">[INTEGER]</text>
<polygon fill="none" stroke="black" points="781.16,-1098.4 781.16,-1129.2 934.39,-1129.2 934.39,-1098.4 781.16,-1098.4"/>
<text text-anchor="start" x="788.16" y="-1110.6" font-family="Arial" font-size="14.00">dat_file_id </text>
<text text-anchor="start" x="855.88" y="-1110.6" font-family="Arial" font-size="14.00" fill="#666666">[INTEGER]</text>
<polygon fill="none" stroke="black" points="781.16,-1067.6 781.16,-1098.4 934.39,-1098.4 934.39,-1067.6 781.16,-1067.6"/>
<text text-anchor="start" x="788.16" y="-1079.8" font-family="Arial" font-size="14.00">name </text>
<text text-anchor="start" x="827.07" y="-1079.8" font-family="Arial" font-size="14.00" fill="#666666">[TEXT]</text>
<polygon fill="none" stroke="black" points="781.16,-1036.8 781.16,-1067.6 934.39,-1067.6 934.39,-1036.8 781.16,-1036.8"/>
<text text-anchor="start" x="788.16" y="-1049" font-family="Arial" font-size="14.00">game_id </text>
<text text-anchor="start" x="845.75" y="-1049" font-family="Arial" font-size="14.00" fill="#666666">[TEXT]</text>
<polygon fill="none" stroke="black" points="781.16,-1006 781.16,-1036.8 934.39,-1036.8 934.39,-1006 781.16,-1006"/>
<text text-anchor="start" x="788.16" y="-1018.2" font-family="Arial" font-size="14.00">description </text>
<text text-anchor="start" x="859.75" y="-1018.2" font-family="Arial" font-size="14.00" fill="#666666">[TEXT]</text>
<polygon fill="none" stroke="black" points="781.16,-975.2 781.16,-1006 934.39,-1006 934.39,-975.2 781.16,-975.2"/>
<text text-anchor="start" x="788.16" y="-987.4" font-family="Arial" font-size="14.00">cloneof </text>
<text text-anchor="start" x="837.2" y="-987.4" font-family="Arial" font-size="14.00" fill="#666666">[TEXT]</text>
<polygon fill="none" stroke="black" points="781.16,-944.4 781.16,-975.2 934.39,-975.2 934.39,-944.4 781.16,-944.4"/>
<text text-anchor="start" x="788.16" y="-956.6" font-family="Arial" font-size="14.00">cloneofid </text>
<text text-anchor="start" x="848.09" y="-956.6" font-family="Arial" font-size="14.00" fill="#666666">[TEXT]</text>
</g>
<!-- dat_game&#45;&gt;dat_file -->
<g id="edge7" class="edge">
<title>dat_game:dat_file_id&#45;&gt;dat_file:id</title>
<path fill="none" stroke="black" d="M945.68,-1113.35C1038.71,-1104.66 935.95,-971.97 932.32,-865.2 930.89,-823.36 889.45,-771 931.32,-771"/>
<polygon fill="black" stroke="black" points="945.71,-1113.35 935.52,-1109.29 940.38,-1113.58 936.06,-1113.77 936.06,-1113.77 936.06,-1113.77 940.38,-1113.58 935.92,-1118.28 945.71,-1113.35"/>
<text text-anchor="start" x="381.61" y="-1123.8" font-family="Arial" font-size="10.00">FOREIGN KEY (dat_file_id) REFERENCES dat_file (id) ON UPDATE NO ACTION ON DELETE CASCADE MATCH NONE</text>
</g>
<!-- file_set_dat_file_link -->
<g id="node9" class="node">
<title>file_set_dat_file_link</title>
<polygon fill="#efefef" stroke="none" points="1039.17,-1083 1039.17,-1118.6 1276.38,-1118.6 1276.38,-1083 1039.17,-1083"/>
<polygon fill="none" stroke="black" points="1039.17,-1083 1039.17,-1118.6 1276.38,-1118.6 1276.38,-1083 1039.17,-1083"/>
<text text-anchor="start" x="1046.17" y="-1096.4" font-family="Arial Bold" font-size="18.00">file_set_dat_file_link</text>
<text text-anchor="start" x="1200.13" y="-1096.4" font-family="Arial" font-size="14.00">    </text>
<text text-anchor="start" x="1231.24" y="-1096.4" font-family="Arial" font-size="14.00" fill="#666666">[table]</text>
<polygon fill="none" stroke="black" points="1039.17,-1052.2 1039.17,-1083 1276.38,-1083 1276.38,-1052.2 1039.17,-1052.2"/>
<text text-anchor="start" x="1046.17" y="-1064.4" font-family="Arial" font-size="14.00">file_set_id </text>
<text text-anchor="start" x="1113.1" y="-1064.4" font-family="Arial" font-size="14.00" fill="#666666">[INTEGER]</text>
<polygon fill="none" stroke="black" points="1039.17,-1021.4 1039.17,-1052.2 1276.38,-1052.2 1276.38,-1021.4 1039.17,-1021.4"/>
<text text-anchor="start" x="1046.17" y="-1033.6" font-family="Arial" font-size="14.00">dat_file_id </text>
<text text-anchor="start" x="1113.88" y="-1033.6" font-family="Arial" font-size="14.00" fill="#666666">[INTEGER]</text>
</g>
<!-- file_set_dat_file_link&#45;&gt;dat_file -->
<g id="edge8" class="edge">
<title>file_set_dat_file_link:dat_file_id&#45;&gt;dat_file:id</title>
<path fill="none" stroke="black" d="M1027.81,-1035.99C936.28,-1019.94 1200.26,-771 1084.23,-771"/>
<polygon fill="black" stroke="black" points="1027.86,-1035.99 1037.48,-1041.26 1033.18,-1036.41 1037.5,-1036.75 1037.5,-1036.75 1037.5,-1036.75 1033.18,-1036.41 1038.19,-1032.29 1027.86,-1035.99"/>
<text text-anchor="start" x="484.39" y="-1046.8" font-family="Arial" font-size="10.00">FOREIGN KEY (dat_file_id) REFERENCES dat_file (id) ON UPDATE NO ACTION ON DELETE CASCADE MATCH NONE</text>
</g>
<!-- system_libretro_core -->
<g id="node10" class="node">
<title>system_libretro_core</title>
<polygon fill="#efefef" stroke="none" points="1187.17,-647.8 1187.17,-683.4 1422.38,-683.4 1422.38,-647.8 1187.17,-647.8"/>
<polygon fill="none" stroke="black" points="1187.17,-647.8 1187.17,-683.4 1422.38,-683.4 1422.38,-647.8 1187.17,-647.8"/>
<text text-anchor="start" x="1194.17" y="-661.2" font-family="Arial Bold" font-size="18.00">system_libretro_core</text>
<text text-anchor="start" x="1346.12" y="-661.2" font-family="Arial" font-size="14.00">    </text>
<text text-anchor="start" x="1377.24" y="-661.2" font-family="Arial" font-size="14.00" fill="#666666">[table]</text>
<polygon fill="none" stroke="black" points="1187.17,-617 1187.17,-647.8 1422.38,-647.8 1422.38,-617 1187.17,-617"/>
<text text-anchor="start" x="1194.17" y="-629.2" font-family="Arial" font-size="14.00">id </text>
<text text-anchor="start" x="1208.96" y="-629.2" font-family="Arial" font-size="14.00" fill="#666666">[INTEGER]</text>
<polygon fill="none" stroke="black" points="1187.17,-586.2 1187.17,-617 1422.38,-617 1422.38,-586.2 1187.17,-586.2"/>
<text text-anchor="start" x="1194.17" y="-598.4" font-family="Arial" font-size="14.00">system_id </text>
<text text-anchor="start" x="1261.08" y="-598.4" font-family="Arial" font-size="14.00" fill="#666666">[INTEGER]</text>
<polygon fill="none" stroke="black" points="1187.17,-555.4 1187.17,-586.2 1422.38,-586.2 1422.38,-555.4 1187.17,-555.4"/>
<text text-anchor="start" x="1194.17" y="-567.6" font-family="Arial" font-size="14.00">core_name </text>
<text text-anchor="start" x="1268.1" y="-567.6" font-family="Arial" font-size="14.00" fill="#666666">[TEXT]</text>
</g>
<!-- system_libretro_core&#45;&gt;system -->
<g id="edge9" class="edge">
<title>system_libretro_core:system_id&#45;&gt;system:id</title>
<path fill="none" stroke="black" d="M1176.17,-599.07C1136.16,-577.24 1147.73,-420.34 1135.77,-373.6 1111.99,-280.68 1171.32,-166.4 1075.4,-166.4"/>
<polygon fill="black" stroke="black" points="1176.15,-599.06 1184.74,-605.88 1181.32,-600.37 1185.52,-601.44 1185.52,-601.44 1185.52,-601.44 1181.32,-600.37 1186.95,-597.16 1176.15,-599.06"/>
<text text-anchor="start" x="913.36" y="-585.6" font-family="Arial" font-size="10.00">FOREIGN KEY (system_id) REFERENCES system (id) ON UPDATE NO ACTION ON DELETE CASCADE MATCH NONE</text>
</g>
</g>
</svg>
