<?xml version="1.0" encoding="UTF-8" standalone="no"?>
<!DOCTYPE svg PUBLIC "-//W3C//DTD SVG 1.1//EN"
 "http://www.w3.org/Graphics/SVG/1.1/DTD/svg11.dtd">
<!-- Generated by graphviz version 12.1.2 (20240928.0832)
 -->
<!-- Title: system Pages: 1 -->
<svg width="2305pt" height="1216pt"
 viewBox="0.00 0.00 2305.11 1216.00" xmlns="http://www.w3.org/2000/svg" xmlns:xlink="http://www.w3.org/1999/xlink">
<g id="graph0" class="graph" transform="scale(1 1) rotate(0) translate(4 1212)">
<title>system</title>
<polygon fill="white" stroke="none" points="-4,4 -4,-1212 2301.11,-1212 2301.11,4 -4,4"/>
<!-- system -->
<g id="node1" class="node">
<title>system</title>
<polygon fill="#efefef" stroke="none" points="941.15,-166.4 941.15,-202 1074.4,-202 1074.4,-166.4 941.15,-166.4"/>
<polygon fill="none" stroke="black" points="941.15,-166.4 941.15,-202 1074.4,-202 1074.4,-166.4 941.15,-166.4"/>
<text text-anchor="start" x="948.15" y="-179.8" font-family="Arial Bold" font-size="18.00">system</text>
<text text-anchor="start" x="998.15" y="-179.8" font-family="Arial" font-size="14.00">    </text>
<text text-anchor="start" x="1029.26" y="-179.8" font-family="Arial" font-size="14.00" fill="#666666">[table]</text>
<polygon fill="none" stroke="black" points="941.15,-135.6 941.15,-166.4 1074.4,-166.4 1074.4,-135.6 941.15,-135.6"/>
<text text-anchor="start" x="948.15" y="-147.8" font-family="Arial" font-size="14.00">id </text>
<text text-anchor="start" x="962.93" y="-147.8" font-family="Arial" font-size="14.00" fill="#666666">[INTEGER]</text>
<polygon fill="none" stroke="black" points="941.15,-104.8 941.15,-135.6 1074.4,-135.6 1074.4,-104.8 941.15,-104.8"/>
<text text-anchor="start" x="948.15" y="-117" font-family="Arial" font-size="14.00">name </text>
<text text-anchor="start" x="987.06" y="-117" font-family="Arial" font-size="14.00" fill="#666666">[TEXT]</text>
<polygon fill="none" stroke="black" stroke-width="3" points="939.65,-103.3 939.65,-203.5 1075.9,-203.5 1075.9,-103.3 939.65,-103.3"/>
</g>
<!-- emulator -->
<g id="node2" class="node">
<title>emulator</title>
<polygon fill="#efefef" stroke="none" points="665.48,-663.2 665.48,-698.8 828.07,-698.8 828.07,-663.2 665.48,-663.2"/>
<polygon fill="none" stroke="black" points="665.48,-663.2 665.48,-698.8 828.07,-698.8 828.07,-663.2 665.48,-663.2"/>
<text text-anchor="start" x="680.16" y="-676.6" font-family="Arial Bold" font-size="18.00">emulator</text>
<text text-anchor="start" x="744.13" y="-676.6" font-family="Arial" font-size="14.00">    </text>
<text text-anchor="start" x="775.25" y="-676.6" font-family="Arial" font-size="14.00" fill="#666666">[table]</text>
<polygon fill="none" stroke="black" points="665.48,-632.4 665.48,-663.2 828.07,-663.2 828.07,-632.4 665.48,-632.4"/>
<text text-anchor="start" x="672.48" y="-644.6" font-family="Arial" font-size="14.00">id </text>
<text text-anchor="start" x="687.26" y="-644.6" font-family="Arial" font-size="14.00" fill="#666666">[INTEGER]</text>
<polygon fill="none" stroke="black" points="665.48,-601.6 665.48,-632.4 828.07,-632.4 828.07,-601.6 665.48,-601.6"/>
<text text-anchor="start" x="672.48" y="-613.8" font-family="Arial" font-size="14.00">name </text>
<text text-anchor="start" x="711.39" y="-613.8" font-family="Arial" font-size="14.00" fill="#666666">[TEXT]</text>
<polygon fill="none" stroke="black" points="665.48,-570.8 665.48,-601.6 828.07,-601.6 828.07,-570.8 665.48,-570.8"/>
<text text-anchor="start" x="672.48" y="-583" font-family="Arial" font-size="14.00">executable </text>
<text text-anchor="start" x="744.08" y="-583" font-family="Arial" font-size="14.00" fill="#666666">[TEXT]</text>
<polygon fill="none" stroke="black" points="665.48,-540 665.48,-570.8 828.07,-570.8 828.07,-540 665.48,-540"/>
<text text-anchor="start" x="672.48" y="-552.2" font-family="Arial" font-size="14.00">extract_files </text>
<text text-anchor="start" x="751.06" y="-552.2" font-family="Arial" font-size="14.00" fill="#666666">[INTEGER]</text>
<polygon fill="none" stroke="black" points="665.48,-509.2 665.48,-540 828.07,-540 828.07,-509.2 665.48,-509.2"/>
<text text-anchor="start" x="672.48" y="-521.4" font-family="Arial" font-size="14.00">arguments </text>
<text text-anchor="start" x="742.51" y="-521.4" font-family="Arial" font-size="14.00" fill="#666666">[TEXT]</text>
<polygon fill="none" stroke="black" points="665.48,-478.4 665.48,-509.2 828.07,-509.2 828.07,-478.4 665.48,-478.4"/>
<text text-anchor="start" x="672.48" y="-490.6" font-family="Arial" font-size="14.00">system_id </text>
<text text-anchor="start" x="739.39" y="-490.6" font-family="Arial" font-size="14.00" fill="#666666">[INTEGER]</text>
</g>
<!-- emulator&#45;&gt;system -->
<g id="edge1" class="edge">
<title>emulator:system_id&#45;&gt;system:id</title>
<path fill="none" stroke="black" d="M835.63,-486C861.44,-434.97 921.93,-151 940.15,-151"/>
<polygon fill="black" stroke="black" points="835.72,-485.89 825.84,-490.65 832.29,-489.97 829.5,-493.29 829.5,-493.29 829.5,-493.29 832.29,-489.97 832.73,-496.44 835.72,-485.89"/>
<text text-anchor="start" x="276.45" y="-477.8" font-family="Arial" font-size="10.00">FOREIGN KEY (system_id) REFERENCES system (id) ON UPDATE NO ACTION ON DELETE CASCADE MATCH NONE</text>
</g>
<!-- release_system -->
<g id="node3" class="node">
<title>release_system</title>
<polygon fill="#efefef" stroke="none" points="368.67,-601.6 368.67,-637.2 560.88,-637.2 560.88,-601.6 368.67,-601.6"/>
<polygon fill="none" stroke="black" points="368.67,-601.6 368.67,-637.2 560.88,-637.2 560.88,-601.6 368.67,-601.6"/>
<text text-anchor="start" x="375.67" y="-615" font-family="Arial Bold" font-size="18.00">release_system</text>
<text text-anchor="start" x="484.63" y="-615" font-family="Arial" font-size="14.00">    </text>
<text text-anchor="start" x="515.74" y="-615" font-family="Arial" font-size="14.00" fill="#666666">[table]</text>
<polygon fill="none" stroke="black" points="368.67,-570.8 368.67,-601.6 560.88,-601.6 560.88,-570.8 368.67,-570.8"/>
<text text-anchor="start" x="375.67" y="-583" font-family="Arial" font-size="14.00">release_id </text>
<text text-anchor="start" x="444.16" y="-583" font-family="Arial" font-size="14.00" fill="#666666">[INTEGER]</text>
<polygon fill="none" stroke="black" points="368.67,-540 368.67,-570.8 560.88,-570.8 560.88,-540 368.67,-540"/>
<text text-anchor="start" x="375.67" y="-552.2" font-family="Arial" font-size="14.00">system_id </text>
<text text-anchor="start" x="442.58" y="-552.2" font-family="Arial" font-size="14.00" fill="#666666">[INTEGER]</text>
</g>
<!-- release_system&#45;&gt;system -->
<g id="edge2" class="edge">
<title>release_system:system_id&#45;&gt;system:id</title>
<path fill="none" stroke="black" d="M571.9,-554.85C651.69,-545.49 557.89,-417.95 613.77,-342.8 714.18,-207.79 771.9,-151 940.15,-151"/>
<polygon fill="black" stroke="black" points="572.2,-554.84 561.97,-550.89 566.87,-555.13 562.55,-555.36 562.55,-555.36 562.55,-555.36 566.87,-555.13 562.46,-559.88 572.2,-554.84"/>
<text text-anchor="start" x="9.26" y="-565.4" font-family="Arial" font-size="10.00">FOREIGN KEY (system_id) REFERENCES system (id) ON UPDATE NO ACTION ON DELETE CASCADE MATCH NONE</text>
</g>
<!-- release -->
<g id="node4" class="node">
<title>release</title>
<polygon fill="#efefef" stroke="none" points="373.35,-181.8 373.35,-217.4 556.2,-217.4 556.2,-181.8 373.35,-181.8"/>
<polygon fill="none" stroke="black" points="373.35,-181.8 373.35,-217.4 556.2,-217.4 556.2,-181.8 373.35,-181.8"/>
<text text-anchor="start" x="405.17" y="-195.2" font-family="Arial Bold" font-size="18.00">release</text>
<text text-anchor="start" x="455.13" y="-195.2" font-family="Arial" font-size="14.00">    </text>
<text text-anchor="start" x="486.24" y="-195.2" font-family="Arial" font-size="14.00" fill="#666666">[table]</text>
<polygon fill="none" stroke="black" points="373.35,-151 373.35,-181.8 556.2,-181.8 556.2,-151 373.35,-151"/>
<text text-anchor="start" x="380.35" y="-163.2" font-family="Arial" font-size="14.00">id </text>
<text text-anchor="start" x="395.13" y="-163.2" font-family="Arial" font-size="14.00" fill="#666666">[INTEGER]</text>
<polygon fill="none" stroke="black" points="373.35,-120.2 373.35,-151 556.2,-151 556.2,-120.2 373.35,-120.2"/>
<text text-anchor="start" x="380.35" y="-132.4" font-family="Arial" font-size="14.00">name </text>
<text text-anchor="start" x="419.26" y="-132.4" font-family="Arial" font-size="14.00" fill="#666666">[TEXT]</text>
<polygon fill="none" stroke="black" points="373.35,-89.4 373.35,-120.2 556.2,-120.2 556.2,-89.4 373.35,-89.4"/>
<text text-anchor="start" x="380.35" y="-101.6" font-family="Arial" font-size="14.00">thumbnail_filename </text>
<text text-anchor="start" x="505.64" y="-101.6" font-family="Arial" font-size="14.00" fill="#666666">[TEXT]</text>
</g>
<!-- release_system&#45;&gt;release -->
<g id="edge3" class="edge">
<title>release_system:release_id&#45;&gt;release:id</title>
<path fill="none" stroke="black" d="M570.5,-580.89C607.72,-532.3 600.75,-166.4 557.2,-166.4"/>
<polygon fill="black" stroke="black" points="570.68,-580.78 559.81,-582.19 566.14,-583.58 562.45,-585.85 562.45,-585.85 562.45,-585.85 566.14,-583.58 564.53,-589.86 570.68,-580.78"/>
<text text-anchor="start" x="7" y="-596.2" font-family="Arial" font-size="10.00">FOREIGN KEY (release_id) REFERENCES release (id) ON UPDATE NO ACTION ON DELETE CASCADE MATCH NONE</text>
</g>
<!-- file_info_system -->
<g id="node5" class="node">
<title>file_info_system</title>
<polygon fill="#efefef" stroke="none" points="1526.66,-601.6 1526.66,-637.2 1730.89,-637.2 1730.89,-601.6 1526.66,-601.6"/>
<polygon fill="none" stroke="black" points="1526.66,-601.6 1526.66,-637.2 1730.89,-637.2 1730.89,-601.6 1526.66,-601.6"/>
<text text-anchor="start" x="1533.66" y="-615" font-family="Arial Bold" font-size="18.00">file_info_system</text>
<text text-anchor="start" x="1654.64" y="-615" font-family="Arial" font-size="14.00">    </text>
<text text-anchor="start" x="1685.75" y="-615" font-family="Arial" font-size="14.00" fill="#666666">[table]</text>
<polygon fill="none" stroke="black" points="1526.66,-570.8 1526.66,-601.6 1730.89,-601.6 1730.89,-570.8 1526.66,-570.8"/>
<text text-anchor="start" x="1533.66" y="-583" font-family="Arial" font-size="14.00">file_info_id </text>
<text text-anchor="start" x="1604.48" y="-583" font-family="Arial" font-size="14.00" fill="#666666">[INTEGER]</text>
<polygon fill="none" stroke="black" points="1526.66,-540 1526.66,-570.8 1730.89,-570.8 1730.89,-540 1526.66,-540"/>
<text text-anchor="start" x="1533.66" y="-552.2" font-family="Arial" font-size="14.00">system_id </text>
<text text-anchor="start" x="1600.57" y="-552.2" font-family="Arial" font-size="14.00" fill="#666666">[INTEGER]</text>
</g>
<!-- file_info_system&#45;&gt;system -->
<g id="edge4" class="edge">
<title>file_info_system:system_id&#45;&gt;system:id</title>
<path fill="none" stroke="black" d="M1515.67,-554.84C1436.23,-545.32 1533.53,-415.6 1474.77,-342.8 1351.12,-189.57 1272.31,-151 1075.4,-151"/>
<polygon fill="black" stroke="black" points="1515.34,-554.83 1525.07,-559.87 1520.66,-555.12 1524.99,-555.36 1524.99,-555.36 1524.99,-555.36 1520.66,-555.12 1525.57,-550.89 1515.34,-554.83"/>
<text text-anchor="start" x="1532.66" y="-565.4" font-family="Arial" font-size="10.00">FOREIGN KEY (system_id) REFERENCES system (id) ON UPDATE NO ACTION ON DELETE NO ACTION MATCH NONE</text>
</g>
<!-- file_info -->
<g id="node6" class="node">
<title>file_info</title>
<polygon fill="#efefef" stroke="none" points="1541.24,-228 1541.24,-263.6 1716.31,-263.6 1716.31,-228 1541.24,-228"/>
<polygon fill="none" stroke="black" points="1541.24,-228 1541.24,-263.6 1716.31,-263.6 1716.31,-228 1541.24,-228"/>
<text text-anchor="start" x="1563.16" y="-241.4" font-family="Arial Bold" font-size="18.00">file_info</text>
<text text-anchor="start" x="1625.14" y="-241.4" font-family="Arial" font-size="14.00">    </text>
<text text-anchor="start" x="1656.25" y="-241.4" font-family="Arial" font-size="14.00" fill="#666666">[table]</text>
<polygon fill="none" stroke="black" points="1541.24,-197.2 1541.24,-228 1716.31,-228 1716.31,-197.2 1541.24,-197.2"/>
<text text-anchor="start" x="1548.24" y="-209.4" font-family="Arial" font-size="14.00">id </text>
<text text-anchor="start" x="1563.03" y="-209.4" font-family="Arial" font-size="14.00" fill="#666666">[INTEGER]</text>
<polygon fill="none" stroke="black" points="1541.24,-166.4 1541.24,-197.2 1716.31,-197.2 1716.31,-166.4 1541.24,-166.4"/>
<text text-anchor="start" x="1548.24" y="-178.6" font-family="Arial" font-size="14.00">sha1_checksum </text>
<text text-anchor="start" x="1653.29" y="-178.6" font-family="Arial" font-size="14.00" fill="#666666">[BLOB]</text>
<polygon fill="none" stroke="black" points="1541.24,-135.6 1541.24,-166.4 1716.31,-166.4 1716.31,-135.6 1541.24,-135.6"/>
<text text-anchor="start" x="1548.24" y="-147.8" font-family="Arial" font-size="14.00">file_size </text>
<text text-anchor="start" x="1602.71" y="-147.8" font-family="Arial" font-size="14.00" fill="#666666">[INTEGER]</text>
<polygon fill="none" stroke="black" points="1541.24,-104.8 1541.24,-135.6 1716.31,-135.6 1716.31,-104.8 1541.24,-104.8"/>
<text text-anchor="start" x="1548.24" y="-117" font-family="Arial" font-size="14.00">archive_file_name </text>
<text text-anchor="start" x="1665.75" y="-117" font-family="Arial" font-size="14.00" fill="#666666">[TEXT]</text>
<polygon fill="none" stroke="black" points="1541.24,-74 1541.24,-104.8 1716.31,-104.8 1716.31,-74 1541.24,-74"/>
<text text-anchor="start" x="1548.24" y="-86.2" font-family="Arial" font-size="14.00">file_type </text>
<text text-anchor="start" x="1604.27" y="-86.2" font-family="Arial" font-size="14.00" fill="#666666">[INTEGER]</text>
<polygon fill="none" stroke="black" points="1541.24,-43.2 1541.24,-74 1716.31,-74 1716.31,-43.2 1541.24,-43.2"/>
<text text-anchor="start" x="1548.24" y="-55.4" font-family="Arial" font-size="14.00">is_available </text>
<text text-anchor="start" x="1625.29" y="-55.4" font-family="Arial" font-size="14.00" fill="#666666">[INTEGER]</text>
</g>
<!-- file_info_system&#45;&gt;file_info -->
<g id="edge5" class="edge">
<title>file_info_system:file_info_id&#45;&gt;file_info:id</title>
<path fill="none" stroke="black" d="M1742.06,-584.19C1813.6,-554.78 1796.82,-212.6 1717.31,-212.6"/>
<polygon fill="black" stroke="black" points="1742.03,-584.2 1731.35,-581.72 1736.8,-585.23 1732.55,-586.07 1732.55,-586.07 1732.55,-586.07 1736.8,-585.23 1733.09,-590.55 1742.03,-584.2"/>
<text text-anchor="start" x="1738.89" y="-596.2" font-family="Arial" font-size="10.00">FOREIGN KEY (file_info_id) REFERENCES file_info (id) ON UPDATE NO ACTION ON DELETE CASCADE MATCH NONE</text>
</g>
<!-- dat_file -->
<g id="node7" class="node">
<title>dat_file</title>
<polygon fill="#efefef" stroke="none" points="932.32,-755.6 932.32,-791.2 1083.23,-791.2 1083.23,-755.6 932.32,-755.6"/>
<polygon fill="none" stroke="black" points="932.32,-755.6 932.32,-791.2 1083.23,-791.2 1083.23,-755.6 932.32,-755.6"/>
<text text-anchor="start" x="945.66" y="-769" font-family="Arial Bold" font-size="18.00">dat_file</text>
<text text-anchor="start" x="1000.63" y="-769" font-family="Arial" font-size="14.00">    </text>
<text text-anchor="start" x="1031.75" y="-769" font-family="Arial" font-size="14.00" fill="#666666">[table]</text>
<polygon fill="none" stroke="black" points="932.32,-724.8 932.32,-755.6 1083.23,-755.6 1083.23,-724.8 932.32,-724.8"/>
<text text-anchor="start" x="939.32" y="-737" font-family="Arial" font-size="14.00">id </text>
<text text-anchor="start" x="954.1" y="-737" font-family="Arial" font-size="14.00" fill="#666666">[INTEGER]</text>
<polygon fill="none" stroke="black" points="932.32,-694 932.32,-724.8 1083.23,-724.8 1083.23,-694 932.32,-694"/>
<text text-anchor="start" x="939.32" y="-706.2" font-family="Arial" font-size="14.00">dat_id </text>
<text text-anchor="start" x="981.35" y="-706.2" font-family="Arial" font-size="14.00" fill="#666666">[INTEGER]</text>
<polygon fill="none" stroke="black" points="932.32,-663.2 932.32,-694 1083.23,-694 1083.23,-663.2 932.32,-663.2"/>
<text text-anchor="start" x="939.32" y="-675.4" font-family="Arial" font-size="14.00">name </text>
<text text-anchor="start" x="978.23" y="-675.4" font-family="Arial" font-size="14.00" fill="#666666">[TEXT]</text>
<polygon fill="none" stroke="black" points="932.32,-632.4 932.32,-663.2 1083.23,-663.2 1083.23,-632.4 932.32,-632.4"/>
<text text-anchor="start" x="939.32" y="-644.6" font-family="Arial" font-size="14.00">description </text>
<text text-anchor="start" x="1010.91" y="-644.6" font-family="Arial" font-size="14.00" fill="#666666">[TEXT]</text>
<polygon fill="none" stroke="black" points="932.32,-601.6 932.32,-632.4 1083.23,-632.4 1083.23,-601.6 932.32,-601.6"/>
<text text-anchor="start" x="939.32" y="-613.8" font-family="Arial" font-size="14.00">version </text>
<text text-anchor="start" x="988.34" y="-613.8" font-family="Arial" font-size="14.00" fill="#666666">[TEXT]</text>
<polygon fill="none" stroke="black" points="932.32,-570.8 932.32,-601.6 1083.23,-601.6 1083.23,-570.8 932.32,-570.8"/>
<text text-anchor="start" x="939.32" y="-583" font-family="Arial" font-size="14.00">date </text>
<text text-anchor="start" x="970.45" y="-583" font-family="Arial" font-size="14.00" fill="#666666">[TEXT]</text>
<polygon fill="none" stroke="black" points="932.32,-540 932.32,-570.8 1083.23,-570.8 1083.23,-540 932.32,-540"/>
<text text-anchor="start" x="939.32" y="-552.2" font-family="Arial" font-size="14.00">author </text>
<text text-anchor="start" x="982.9" y="-552.2" font-family="Arial" font-size="14.00" fill="#666666">[TEXT]</text>
<polygon fill="none" stroke="black" points="932.32,-509.2 932.32,-540 1083.23,-540 1083.23,-509.2 932.32,-509.2"/>
<text text-anchor="start" x="939.32" y="-521.4" font-family="Arial" font-size="14.00">homepage </text>
<text text-anchor="start" x="1009.37" y="-521.4" font-family="Arial" font-size="14.00" fill="#666666">[TEXT]</text>
<polygon fill="none" stroke="black" points="932.32,-478.4 932.32,-509.2 1083.23,-509.2 1083.23,-478.4 932.32,-478.4"/>
<text text-anchor="start" x="939.32" y="-490.6" font-family="Arial" font-size="14.00">url </text>
<text text-anchor="start" x="958.76" y="-490.6" font-family="Arial" font-size="14.00" fill="#666666">[TEXT]</text>
<polygon fill="none" stroke="black" points="932.32,-447.6 932.32,-478.4 1083.23,-478.4 1083.23,-447.6 932.32,-447.6"/>
<text text-anchor="start" x="939.32" y="-459.8" font-family="Arial" font-size="14.00">subset </text>
<text text-anchor="start" x="984.45" y="-459.8" font-family="Arial" font-size="14.00" fill="#666666">[TEXT]</text>
<polygon fill="none" stroke="black" points="932.32,-416.8 932.32,-447.6 1083.23,-447.6 1083.23,-416.8 932.32,-416.8"/>
<text text-anchor="start" x="939.32" y="-429" font-family="Arial" font-size="14.00">imported_at </text>
<text text-anchor="start" x="1017.14" y="-429" font-family="Arial" font-size="14.00" fill="#666666">[TEXT]</text>
<polygon fill="none" stroke="black" points="932.32,-386 932.32,-416.8 1083.23,-416.8 1083.23,-386 932.32,-386"/>
<text text-anchor="start" x="939.32" y="-398.2" font-family="Arial" font-size="14.00">system_id </text>
<text text-anchor="start" x="1006.23" y="-398.2" font-family="Arial" font-size="14.00" fill="#666666">[INTEGER]</text>
</g>
<!-- dat_file&#45;&gt;system -->
<g id="edge6" class="edge">
<title>dat_file:system_id&#45;&gt;system:id</title>
<path fill="none" stroke="black" d="M1008.19,-374.82C1013.06,-316.84 1059.69,-310.55 1074.4,-248.2 1084.33,-206.15 1118.6,-151 1075.4,-151"/>
<polygon fill="black" stroke="black" points="1008.19,-374.67 1003.29,-384.48 1007.98,-380 1007.8,-384.33 1007.8,-384.33 1007.8,-384.33 1007.98,-380 1012.28,-384.85 1008.19,-374.67"/>
<text text-anchor="start" x="1014.77" y="-395" font-family="Arial" font-size="10.00">FOREIGN KEY (system_id) REFERENCES system (id) ON UPDATE NO ACTION ON DELETE CASCADE MATCH NONE</text>
</g>
<!-- dat_game -->
<g id="node8" class="node">
<title>dat_game</title>
<polygon fill="#efefef" stroke="none" points="781.16,-1129.2 781.16,-1164.8 934.39,-1164.8 934.39,-1129.2 781.16,-1129.2"/>
<polygon fill="none" stroke="black" points="781.16,-1129.2 781.16,-1164.8 934.39,-1164.8 934.39,-1129.2 781.16,-1129.2"/>
<text text-anchor="start" x="788.16" y="-1142.6" font-family="Arial Bold" font-size="18.00">dat_game</text>
<text text-anchor="start" x="858.13" y="-1142.6" font-family="Arial" font-size="14.00">    </text>
<text text-anchor="start" x="889.25" y="-1142.6" font-family="Arial" font-size="14.00" fill="#666666">[table]</text>
<polygon fill="none" stroke="black" points="781.16,-1098.4 781.16,-1129.2 934.39,-1129.2 934.39,-1098.4 781.16,-1098.4"/>
<text text-anchor="start" x="788.16" y="-1110.6" font-family="Arial" font-size="14.00">id </text>
<text text-anchor="start" x="802.95" y="-1110.6" font-family="Arial" font-size="14.00" fill="#666666">[INTEGER]</text>
<polygon fill="none" stroke="black" points="781.16,-1067.6 781.16,-1098.4 934.39,-1098.4 934.39,-1067.6 781.16,-1067.6"/>
<text text-anchor="start" x="788.16" y="-1079.8" font-family="Arial" font-size="14.00">dat_file_id </text>
<text text-anchor="start" x="855.88" y="-1079.8" font-family="Arial" font-size="14.00" fill="#666666">[INTEGER]</text>
<polygon fill="none" stroke="black" points="781.16,-1036.8 781.16,-1067.6 934.39,-1067.6 934.39,-1036.8 781.16,-1036.8"/>
<text text-anchor="start" x="788.16" y="-1049" font-family="Arial" font-size="14.00">name </text>
<text text-anchor="start" x="827.07" y="-1049" font-family="Arial" font-size="14.00" fill="#666666">[TEXT]</text>
<polygon fill="none" stroke="black" points="781.16,-1006 781.16,-1036.8 934.39,-1036.8 934.39,-1006 781.16,-1006"/>
<text text-anchor="start" x="788.16" y="-1018.2" font-family="Arial" font-size="14.00">game_id </text>
<text text-anchor="start" x="845.75" y="-1018.2" font-family="Arial" font-size="14.00" fill="#666666">[TEXT]</text>
<polygon fill="none" stroke="black" points="781.16,-975.2 781.16,-1006 934.39,-1006 934.39,-975.2 781.16,-975.2"/>
<text text-anchor="start" x="788.16" y="-987.4" font-family="Arial" font-size="14.00">description </text>
<text text-anchor="start" x="859.75" y="-987.4" font-family="Arial" font-size="14.00" fill="#666666">[TEXT]</text>
<polygon fill="none" stroke="black" points="781.16,-944.4 781.16,-975.2 934.39,-975.2 934.39,-944.4 781.16,-944.4"/>
<text text-anchor="start" x="788.16" y="-956.6" font-family="Arial" font-size="14.00">cloneof </text>
<text text-anchor="start" x="837.2" y="-956.6" font-family="Arial" font-size="14.00" fill="#666666">[TEXT]</text>
<polygon fill="none" stroke="black" points="781.16,-913.6 781.16,-944.4 934.39,-944.4 934.39,-913.6 781.16,-913.6"/>
<text text-anchor="start" x="788.16" y="-925.8" font-family="Arial" font-size="14.00">cloneofid </text>
<text text-anchor="start" x="848.09" y="-925.8" font-family="Arial" font-size="14.00" fill="#666666">[TEXT]</text>
</g>
<!-- dat_game&#45;&gt;dat_file -->
<g id="edge7" class="edge">
<title>dat_game:dat_file_id&#45;&gt;dat_file:id</title>
<path fill="none" stroke="black" d="M945.68,-1082.55C1038.71,-1073.86 935.95,-941.17 932.32,-834.4 930.89,-792.56 889.45,-740.2 931.32,-740.2"/>
<polygon fill="black" stroke="black" points="945.71,-1082.55 935.52,-1078.49 940.38,-1082.78 936.06,-1082.97 936.06,-1082.97 936.06,-1082.97 940.38,-1082.78 935.92,-1087.48 945.71,-1082.55"/>
<text text-anchor="start" x="381.61" y="-1093" font-family="Arial" font-size="10.00">FOREIGN KEY (dat_file_id) REFERENCES dat_file (id) ON UPDATE NO ACTION ON DELETE CASCADE MATCH NONE</text>
</g>
<!-- file_set_dat_file_link -->
<g id="node9" class="node">
<title>file_set_dat_file_link</title>
<polygon fill="#efefef" stroke="none" points="1039.17,-1052.2 1039.17,-1087.8 1276.38,-1087.8 1276.38,-1052.2 1039.17,-1052.2"/>
<polygon fill="none" stroke="black" points="1039.17,-1052.2 1039.17,-1087.8 1276.38,-1087.8 1276.38,-1052.2 1039.17,-1052.2"/>
<text text-anchor="start" x="1046.17" y="-1065.6" font-family="Arial Bold" font-size="18.00">file_set_dat_file_link</text>
<text text-anchor="start" x="1200.13" y="-1065.6" font-family="Arial" font-size="14.00">    </text>
<text text-anchor="start" x="1231.24" y="-1065.6" font-family="Arial" font-size="14.00" fill="#666666">[table]</text>
<polygon fill="none" stroke="black" points="1039.17,-1021.4 1039.17,-1052.2 1276.38,-1052.2 1276.38,-1021.4 1039.17,-1021.4"/>
<text text-anchor="start" x="1046.17" y="-1033.6" font-family="Arial" font-size="14.00">file_set_id </text>
<text text-anchor="start" x="1113.1" y="-1033.6" font-family="Arial" font-size="14.00" fill="#666666">[INTEGER]</text>
<polygon fill="none" stroke="black" points="1039.17,-990.6 1039.17,-1021.4 1276.38,-1021.4 1276.38,-990.6 1039.17,-990.6"/>
<text text-anchor="start" x="1046.17" y="-1002.8" font-family="Arial" font-size="14.00">dat_file_id </text>
<text text-anchor="start" x="1113.88" y="-1002.8" font-family="Arial" font-size="14.00" fill="#666666">[INTEGER]</text>
</g>
<!-- file_set_dat_file_link&#45;&gt;dat_file -->
<g id="edge8" class="edge">
<title>file_set_dat_file_link:dat_file_id&#45;&gt;dat_file:id</title>
<path fill="none" stroke="black" d="M1027.81,-1005.19C936.28,-989.14 1200.26,-740.2 1084.23,-740.2"/>
<polygon fill="black" stroke="black" points="1027.86,-1005.19 1037.48,-1010.46 1033.18,-1005.61 1037.5,-1005.95 1037.5,-1005.95 1037.5,-1005.95 1033.18,-1005.61 1038.19,-1001.49 1027.86,-1005.19"/>
<text text-anchor="start" x="484.39" y="-1016" font-family="Arial" font-size="10.00">FOREIGN KEY (dat_file_id) REFERENCES dat_file (id) ON UPDATE NO ACTION ON DELETE CASCADE MATCH NONE</text>
</g>
<!-- system_libretro_core -->
<g id="node10" class="node">
<title>system_libretro_core</title>
<polygon fill="#efefef" stroke="none" points="1187.17,-617 1187.17,-652.6 1422.38,-652.6 1422.38,-617 1187.17,-617"/>
<polygon fill="none" stroke="black" points="1187.17,-617 1187.17,-652.6 1422.38,-652.6 1422.38,-617 1187.17,-617"/>
<text text-anchor="start" x="1194.17" y="-630.4" font-family="Arial Bold" font-size="18.00">system_libretro_core</text>
<text text-anchor="start" x="1346.12" y="-630.4" font-family="Arial" font-size="14.00">    </text>
<text text-anchor="start" x="1377.24" y="-630.4" font-family="Arial" font-size="14.00" fill="#666666">[table]</text>
<polygon fill="none" stroke="black" points="1187.17,-586.2 1187.17,-617 1422.38,-617 1422.38,-586.2 1187.17,-586.2"/>
<text text-anchor="start" x="1194.17" y="-598.4" font-family="Arial" font-size="14.00">id </text>
<text text-anchor="start" x="1208.96" y="-598.4" font-family="Arial" font-size="14.00" fill="#666666">[INTEGER]</text>
<polygon fill="none" stroke="black" points="1187.17,-555.4 1187.17,-586.2 1422.38,-586.2 1422.38,-555.4 1187.17,-555.4"/>
<text text-anchor="start" x="1194.17" y="-567.6" font-family="Arial" font-size="14.00">system_id </text>
<text text-anchor="start" x="1261.08" y="-567.6" font-family="Arial" font-size="14.00" fill="#666666">[INTEGER]</text>
<polygon fill="none" stroke="black" points="1187.17,-524.6 1187.17,-555.4 1422.38,-555.4 1422.38,-524.6 1187.17,-524.6"/>
<text text-anchor="start" x="1194.17" y="-536.8" font-family="Arial" font-size="14.00">core_name </text>
<text text-anchor="start" x="1268.1" y="-536.8" font-family="Arial" font-size="14.00" fill="#666666">[TEXT]</text>
</g>
<!-- system_libretro_core&#45;&gt;system -->
<g id="edge9" class="edge">
<title>system_libretro_core:system_id&#45;&gt;system:id</title>
<path fill="none" stroke="black" d="M1176.18,-568.27C1136.24,-546.42 1148.23,-389.4 1135.77,-342.8 1112.69,-256.46 1164.77,-151 1075.4,-151"/>
<polygon fill="black" stroke="black" points="1176.15,-568.26 1184.74,-575.08 1181.32,-569.57 1185.52,-570.64 1185.52,-570.64 1185.52,-570.64 1181.32,-569.57 1186.95,-566.36 1176.15,-568.26"/>
<text text-anchor="start" x="913.36" y="-554.8" font-family="Arial" font-size="10.00">FOREIGN KEY (system_id) REFERENCES system (id) ON UPDATE NO ACTION ON DELETE CASCADE MATCH NONE</text>
</g>
</g>
</svg>
