<?xml version="1.0" encoding="UTF-8" standalone="no"?>
<!DOCTYPE svg PUBLIC "-//W3C//DTD SVG 1.1//EN"
 "http://www.w3.org/Graphics/SVG/1.1/DTD/svg11.dtd">
<!-- Generated by graphviz version 12.1.2 (20240928.0832)
 -->
<!-- Title: system Pages: 1 -->
<svg width="1711pt" height="627pt"
 viewBox="0.00 0.00 1711.11 626.80" xmlns="http://www.w3.org/2000/svg" xmlns:xlink="http://www.w3.org/1999/xlink">
<g id="graph0" class="graph" transform="scale(1 1) rotate(0) translate(4 622.8)">
<title>system</title>
<polygon fill="white" stroke="none" points="-4,4 -4,-622.8 1707.11,-622.8 1707.11,4 -4,4"/>
<!-- system -->
<g id="node1" class="node">
<title>system</title>
<polygon fill="#efefef" stroke="none" points="680.15,-151 680.15,-186.6 813.4,-186.6 813.4,-151 680.15,-151"/>
<polygon fill="none" stroke="black" points="680.15,-151 680.15,-186.6 813.4,-186.6 813.4,-151 680.15,-151"/>
<text text-anchor="start" x="687.15" y="-164.4" font-family="Arial Bold" font-size="18.00">system</text>
<text text-anchor="start" x="737.15" y="-164.4" font-family="Arial" font-size="14.00">    </text>
<text text-anchor="start" x="768.26" y="-164.4" font-family="Arial" font-size="14.00" fill="#666666">[table]</text>
<polygon fill="none" stroke="black" points="680.15,-120.2 680.15,-151 813.4,-151 813.4,-120.2 680.15,-120.2"/>
<text text-anchor="start" x="687.15" y="-132.4" font-family="Arial" font-size="14.00">id </text>
<text text-anchor="start" x="701.93" y="-132.4" font-family="Arial" font-size="14.00" fill="#666666">[INTEGER]</text>
<polygon fill="none" stroke="black" points="680.15,-89.4 680.15,-120.2 813.4,-120.2 813.4,-89.4 680.15,-89.4"/>
<text text-anchor="start" x="687.15" y="-101.6" font-family="Arial" font-size="14.00">name </text>
<text text-anchor="start" x="726.06" y="-101.6" font-family="Arial" font-size="14.00" fill="#666666">[TEXT]</text>
<polygon fill="none" stroke="black" stroke-width="3" points="678.65,-87.9 678.65,-188.1 814.9,-188.1 814.9,-87.9 678.65,-87.9"/>
</g>
<!-- emulator -->
<g id="node2" class="node">
<title>emulator</title>
<polygon fill="#efefef" stroke="none" points="665.48,-540 665.48,-575.6 828.07,-575.6 828.07,-540 665.48,-540"/>
<polygon fill="none" stroke="black" points="665.48,-540 665.48,-575.6 828.07,-575.6 828.07,-540 665.48,-540"/>
<text text-anchor="start" x="680.16" y="-553.4" font-family="Arial Bold" font-size="18.00">emulator</text>
<text text-anchor="start" x="744.13" y="-553.4" font-family="Arial" font-size="14.00">    </text>
<text text-anchor="start" x="775.25" y="-553.4" font-family="Arial" font-size="14.00" fill="#666666">[table]</text>
<polygon fill="none" stroke="black" points="665.48,-509.2 665.48,-540 828.07,-540 828.07,-509.2 665.48,-509.2"/>
<text text-anchor="start" x="672.48" y="-521.4" font-family="Arial" font-size="14.00">id </text>
<text text-anchor="start" x="687.26" y="-521.4" font-family="Arial" font-size="14.00" fill="#666666">[INTEGER]</text>
<polygon fill="none" stroke="black" points="665.48,-478.4 665.48,-509.2 828.07,-509.2 828.07,-478.4 665.48,-478.4"/>
<text text-anchor="start" x="672.48" y="-490.6" font-family="Arial" font-size="14.00">name </text>
<text text-anchor="start" x="711.39" y="-490.6" font-family="Arial" font-size="14.00" fill="#666666">[TEXT]</text>
<polygon fill="none" stroke="black" points="665.48,-447.6 665.48,-478.4 828.07,-478.4 828.07,-447.6 665.48,-447.6"/>
<text text-anchor="start" x="672.48" y="-459.8" font-family="Arial" font-size="14.00">executable </text>
<text text-anchor="start" x="744.08" y="-459.8" font-family="Arial" font-size="14.00" fill="#666666">[TEXT]</text>
<polygon fill="none" stroke="black" points="665.48,-416.8 665.48,-447.6 828.07,-447.6 828.07,-416.8 665.48,-416.8"/>
<text text-anchor="start" x="672.48" y="-429" font-family="Arial" font-size="14.00">extract_files </text>
<text text-anchor="start" x="751.06" y="-429" font-family="Arial" font-size="14.00" fill="#666666">[INTEGER]</text>
<polygon fill="none" stroke="black" points="665.48,-386 665.48,-416.8 828.07,-416.8 828.07,-386 665.48,-386"/>
<text text-anchor="start" x="672.48" y="-398.2" font-family="Arial" font-size="14.00">arguments </text>
<text text-anchor="start" x="742.51" y="-398.2" font-family="Arial" font-size="14.00" fill="#666666">[TEXT]</text>
<polygon fill="none" stroke="black" points="665.48,-355.2 665.48,-386 828.07,-386 828.07,-355.2 665.48,-355.2"/>
<text text-anchor="start" x="672.48" y="-367.4" font-family="Arial" font-size="14.00">system_id </text>
<text text-anchor="start" x="739.39" y="-367.4" font-family="Arial" font-size="14.00" fill="#666666">[INTEGER]</text>
</g>
<!-- emulator&#45;&gt;system -->
<g id="edge1" class="edge">
<title>emulator:system_id&#45;&gt;system:id</title>
<path fill="none" stroke="black" d="M747.28,-343.99C752.63,-292.41 798.72,-288.85 813.4,-232.8 824.35,-191.01 857.6,-135.6 814.4,-135.6"/>
<polygon fill="black" stroke="black" points="747.29,-343.88 742.3,-353.64 747.02,-349.21 746.81,-353.53 746.81,-353.53 746.81,-353.53 747.02,-349.21 751.29,-354.09 747.29,-343.88"/>
<text text-anchor="start" x="753.77" y="-338.2" font-family="Arial" font-size="10.00">FOREIGN KEY (system_id) REFERENCES system (id) ON UPDATE NO ACTION ON DELETE CASCADE MATCH NONE</text>
</g>
<!-- release_system -->
<g id="node3" class="node">
<title>release_system</title>
<polygon fill="#efefef" stroke="none" points="368.67,-478.4 368.67,-514 560.88,-514 560.88,-478.4 368.67,-478.4"/>
<polygon fill="none" stroke="black" points="368.67,-478.4 368.67,-514 560.88,-514 560.88,-478.4 368.67,-478.4"/>
<text text-anchor="start" x="375.67" y="-491.8" font-family="Arial Bold" font-size="18.00">release_system</text>
<text text-anchor="start" x="484.63" y="-491.8" font-family="Arial" font-size="14.00">    </text>
<text text-anchor="start" x="515.74" y="-491.8" font-family="Arial" font-size="14.00" fill="#666666">[table]</text>
<polygon fill="none" stroke="black" points="368.67,-447.6 368.67,-478.4 560.88,-478.4 560.88,-447.6 368.67,-447.6"/>
<text text-anchor="start" x="375.67" y="-459.8" font-family="Arial" font-size="14.00">release_id </text>
<text text-anchor="start" x="444.16" y="-459.8" font-family="Arial" font-size="14.00" fill="#666666">[INTEGER]</text>
<polygon fill="none" stroke="black" points="368.67,-416.8 368.67,-447.6 560.88,-447.6 560.88,-416.8 368.67,-416.8"/>
<text text-anchor="start" x="375.67" y="-429" font-family="Arial" font-size="14.00">system_id </text>
<text text-anchor="start" x="442.58" y="-429" font-family="Arial" font-size="14.00" fill="#666666">[INTEGER]</text>
</g>
<!-- release_system&#45;&gt;system -->
<g id="edge2" class="edge">
<title>release_system:system_id&#45;&gt;system:id</title>
<path fill="none" stroke="black" d="M570.59,-426.8C604.68,-386.6 646.55,-135.6 679.15,-135.6"/>
<polygon fill="black" stroke="black" points="570.66,-426.75 559.79,-428.2 566.13,-429.57 562.45,-431.85 562.45,-431.85 562.45,-431.85 566.13,-429.57 564.54,-435.85 570.66,-426.75"/>
<text text-anchor="start" x="9.26" y="-442.2" font-family="Arial" font-size="10.00">FOREIGN KEY (system_id) REFERENCES system (id) ON UPDATE NO ACTION ON DELETE CASCADE MATCH NONE</text>
</g>
<!-- release -->
<g id="node4" class="node">
<title>release</title>
<polygon fill="#efefef" stroke="none" points="398.17,-151 398.17,-186.6 531.38,-186.6 531.38,-151 398.17,-151"/>
<polygon fill="none" stroke="black" points="398.17,-151 398.17,-186.6 531.38,-186.6 531.38,-151 398.17,-151"/>
<text text-anchor="start" x="405.17" y="-164.4" font-family="Arial Bold" font-size="18.00">release</text>
<text text-anchor="start" x="455.13" y="-164.4" font-family="Arial" font-size="14.00">    </text>
<text text-anchor="start" x="486.24" y="-164.4" font-family="Arial" font-size="14.00" fill="#666666">[table]</text>
<polygon fill="none" stroke="black" points="398.17,-120.2 398.17,-151 531.38,-151 531.38,-120.2 398.17,-120.2"/>
<text text-anchor="start" x="405.17" y="-132.4" font-family="Arial" font-size="14.00">id </text>
<text text-anchor="start" x="419.95" y="-132.4" font-family="Arial" font-size="14.00" fill="#666666">[INTEGER]</text>
<polygon fill="none" stroke="black" points="398.17,-89.4 398.17,-120.2 531.38,-120.2 531.38,-89.4 398.17,-89.4"/>
<text text-anchor="start" x="405.17" y="-101.6" font-family="Arial" font-size="14.00">name </text>
<text text-anchor="start" x="444.08" y="-101.6" font-family="Arial" font-size="14.00" fill="#666666">[TEXT]</text>
</g>
<!-- release_system&#45;&gt;release -->
<g id="edge3" class="edge">
<title>release_system:release_id&#45;&gt;release:id</title>
<path fill="none" stroke="black" d="M571.85,-460.73C631.95,-431.81 601.86,-135.6 532.38,-135.6"/>
<polygon fill="black" stroke="black" points="571.96,-460.71 561.21,-458.54 566.76,-461.89 562.53,-462.85 562.53,-462.85 562.53,-462.85 566.76,-461.89 563.2,-467.31 571.96,-460.71"/>
<text text-anchor="start" x="7" y="-473" font-family="Arial" font-size="10.00">FOREIGN KEY (release_id) REFERENCES release (id) ON UPDATE NO ACTION ON DELETE CASCADE MATCH NONE</text>
</g>
<!-- file_info_system -->
<g id="node5" class="node">
<title>file_info_system</title>
<polygon fill="#efefef" stroke="none" points="932.66,-478.4 932.66,-514 1136.89,-514 1136.89,-478.4 932.66,-478.4"/>
<polygon fill="none" stroke="black" points="932.66,-478.4 932.66,-514 1136.89,-514 1136.89,-478.4 932.66,-478.4"/>
<text text-anchor="start" x="939.66" y="-491.8" font-family="Arial Bold" font-size="18.00">file_info_system</text>
<text text-anchor="start" x="1060.64" y="-491.8" font-family="Arial" font-size="14.00">    </text>
<text text-anchor="start" x="1091.75" y="-491.8" font-family="Arial" font-size="14.00" fill="#666666">[table]</text>
<polygon fill="none" stroke="black" points="932.66,-447.6 932.66,-478.4 1136.89,-478.4 1136.89,-447.6 932.66,-447.6"/>
<text text-anchor="start" x="939.66" y="-459.8" font-family="Arial" font-size="14.00">file_info_id </text>
<text text-anchor="start" x="1010.48" y="-459.8" font-family="Arial" font-size="14.00" fill="#666666">[INTEGER]</text>
<polygon fill="none" stroke="black" points="932.66,-416.8 932.66,-447.6 1136.89,-447.6 1136.89,-416.8 932.66,-416.8"/>
<text text-anchor="start" x="939.66" y="-429" font-family="Arial" font-size="14.00">system_id </text>
<text text-anchor="start" x="1006.57" y="-429" font-family="Arial" font-size="14.00" fill="#666666">[INTEGER]</text>
</g>
<!-- file_info_system&#45;&gt;system -->
<g id="edge4" class="edge">
<title>file_info_system:system_id&#45;&gt;system:id</title>
<path fill="none" stroke="black" d="M922.94,-426.8C888.86,-386.6 847,-135.6 814.4,-135.6"/>
<polygon fill="black" stroke="black" points="922.87,-426.75 929,-435.85 927.41,-429.57 931.09,-431.85 931.09,-431.85 931.09,-431.85 927.41,-429.57 933.74,-428.2 922.87,-426.75"/>
<text text-anchor="start" x="938.66" y="-442.2" font-family="Arial" font-size="10.00">FOREIGN KEY (system_id) REFERENCES system (id) ON UPDATE NO ACTION ON DELETE NO ACTION MATCH NONE</text>
</g>
<!-- file_info -->
<g id="node6" class="node">
<title>file_info</title>
<polygon fill="#efefef" stroke="none" points="947.24,-197.2 947.24,-232.8 1122.31,-232.8 1122.31,-197.2 947.24,-197.2"/>
<polygon fill="none" stroke="black" points="947.24,-197.2 947.24,-232.8 1122.31,-232.8 1122.31,-197.2 947.24,-197.2"/>
<text text-anchor="start" x="969.16" y="-210.6" font-family="Arial Bold" font-size="18.00">file_info</text>
<text text-anchor="start" x="1031.14" y="-210.6" font-family="Arial" font-size="14.00">    </text>
<text text-anchor="start" x="1062.25" y="-210.6" font-family="Arial" font-size="14.00" fill="#666666">[table]</text>
<polygon fill="none" stroke="black" points="947.24,-166.4 947.24,-197.2 1122.31,-197.2 1122.31,-166.4 947.24,-166.4"/>
<text text-anchor="start" x="954.24" y="-178.6" font-family="Arial" font-size="14.00">id </text>
<text text-anchor="start" x="969.03" y="-178.6" font-family="Arial" font-size="14.00" fill="#666666">[INTEGER]</text>
<polygon fill="none" stroke="black" points="947.24,-135.6 947.24,-166.4 1122.31,-166.4 1122.31,-135.6 947.24,-135.6"/>
<text text-anchor="start" x="954.24" y="-147.8" font-family="Arial" font-size="14.00">sha1_checksum </text>
<text text-anchor="start" x="1059.29" y="-147.8" font-family="Arial" font-size="14.00" fill="#666666">[BLOB]</text>
<polygon fill="none" stroke="black" points="947.24,-104.8 947.24,-135.6 1122.31,-135.6 1122.31,-104.8 947.24,-104.8"/>
<text text-anchor="start" x="954.24" y="-117" font-family="Arial" font-size="14.00">file_size </text>
<text text-anchor="start" x="1008.71" y="-117" font-family="Arial" font-size="14.00" fill="#666666">[INTEGER]</text>
<polygon fill="none" stroke="black" points="947.24,-74 947.24,-104.8 1122.31,-104.8 1122.31,-74 947.24,-74"/>
<text text-anchor="start" x="954.24" y="-86.2" font-family="Arial" font-size="14.00">archive_file_name </text>
<text text-anchor="start" x="1071.75" y="-86.2" font-family="Arial" font-size="14.00" fill="#666666">[TEXT]</text>
<polygon fill="none" stroke="black" points="947.24,-43.2 947.24,-74 1122.31,-74 1122.31,-43.2 947.24,-43.2"/>
<text text-anchor="start" x="954.24" y="-55.4" font-family="Arial" font-size="14.00">file_type </text>
<text text-anchor="start" x="1010.27" y="-55.4" font-family="Arial" font-size="14.00" fill="#666666">[INTEGER]</text>
</g>
<!-- file_info_system&#45;&gt;file_info -->
<g id="edge5" class="edge">
<title>file_info_system:file_info_id&#45;&gt;file_info:id</title>
<path fill="none" stroke="black" d="M1147.79,-460.4C1198.66,-432.05 1182.34,-181.8 1123.31,-181.8"/>
<polygon fill="black" stroke="black" points="1147.89,-460.37 1137.07,-458.56 1142.73,-461.73 1138.54,-462.83 1138.54,-462.83 1138.54,-462.83 1142.73,-461.73 1139.36,-467.27 1147.89,-460.37"/>
<text text-anchor="start" x="1144.89" y="-473" font-family="Arial" font-size="10.00">FOREIGN KEY (file_info_id) REFERENCES file_info (id) ON UPDATE NO ACTION ON DELETE CASCADE MATCH NONE</text>
</g>
</g>
</svg>
