<?xml version="1.0" encoding="UTF-8" standalone="no"?>
<!DOCTYPE svg PUBLIC "-//W3C//DTD SVG 1.1//EN"
 "http://www.w3.org/Graphics/SVG/1.1/DTD/svg11.dtd">
<!-- Generated by graphviz version 12.1.2 (20240928.0832)
 -->
<!-- Title: system Pages: 1 -->
<svg width="2305pt" height="1185pt"
 viewBox="0.00 0.00 2305.11 1185.20" xmlns="http://www.w3.org/2000/svg" xmlns:xlink="http://www.w3.org/1999/xlink">
<g id="graph0" class="graph" transform="scale(1 1) rotate(0) translate(4 1181.2)">
<title>system</title>
<polygon fill="white" stroke="none" points="-4,4 -4,-1181.2 2301.11,-1181.2 2301.11,4 -4,4"/>
<!-- system -->
<g id="node1" class="node">
<title>system</title>
<polygon fill="#efefef" stroke="none" points="941.15,-151 941.15,-186.6 1074.4,-186.6 1074.4,-151 941.15,-151"/>
<polygon fill="none" stroke="black" points="941.15,-151 941.15,-186.6 1074.4,-186.6 1074.4,-151 941.15,-151"/>
<text text-anchor="start" x="948.15" y="-164.4" font-family="Arial Bold" font-size="18.00">system</text>
<text text-anchor="start" x="998.15" y="-164.4" font-family="Arial" font-size="14.00">    </text>
<text text-anchor="start" x="1029.26" y="-164.4" font-family="Arial" font-size="14.00" fill="#666666">[table]</text>
<polygon fill="none" stroke="black" points="941.15,-120.2 941.15,-151 1074.4,-151 1074.4,-120.2 941.15,-120.2"/>
<text text-anchor="start" x="948.15" y="-132.4" font-family="Arial" font-size="14.00">id </text>
<text text-anchor="start" x="962.93" y="-132.4" font-family="Arial" font-size="14.00" fill="#666666">[INTEGER]</text>
<polygon fill="none" stroke="black" points="941.15,-89.4 941.15,-120.2 1074.4,-120.2 1074.4,-89.4 941.15,-89.4"/>
<text text-anchor="start" x="948.15" y="-101.6" font-family="Arial" font-size="14.00">name </text>
<text text-anchor="start" x="987.06" y="-101.6" font-family="Arial" font-size="14.00" fill="#666666">[TEXT]</text>
<polygon fill="none" stroke="black" stroke-width="3" points="939.65,-87.9 939.65,-188.1 1075.9,-188.1 1075.9,-87.9 939.65,-87.9"/>
</g>
<!-- emulator -->
<g id="node2" class="node">
<title>emulator</title>
<polygon fill="#efefef" stroke="none" points="665.48,-632.4 665.48,-668 828.07,-668 828.07,-632.4 665.48,-632.4"/>
<polygon fill="none" stroke="black" points="665.48,-632.4 665.48,-668 828.07,-668 828.07,-632.4 665.48,-632.4"/>
<text text-anchor="start" x="680.16" y="-645.8" font-family="Arial Bold" font-size="18.00">emulator</text>
<text text-anchor="start" x="744.13" y="-645.8" font-family="Arial" font-size="14.00">    </text>
<text text-anchor="start" x="775.25" y="-645.8" font-family="Arial" font-size="14.00" fill="#666666">[table]</text>
<polygon fill="none" stroke="black" points="665.48,-601.6 665.48,-632.4 828.07,-632.4 828.07,-601.6 665.48,-601.6"/>
<text text-anchor="start" x="672.48" y="-613.8" font-family="Arial" font-size="14.00">id </text>
<text text-anchor="start" x="687.26" y="-613.8" font-family="Arial" font-size="14.00" fill="#666666">[INTEGER]</text>
<polygon fill="none" stroke="black" points="665.48,-570.8 665.48,-601.6 828.07,-601.6 828.07,-570.8 665.48,-570.8"/>
<text text-anchor="start" x="672.48" y="-583" font-family="Arial" font-size="14.00">name </text>
<text text-anchor="start" x="711.39" y="-583" font-family="Arial" font-size="14.00" fill="#666666">[TEXT]</text>
<polygon fill="none" stroke="black" points="665.48,-540 665.48,-570.8 828.07,-570.8 828.07,-540 665.48,-540"/>
<text text-anchor="start" x="672.48" y="-552.2" font-family="Arial" font-size="14.00">executable </text>
<text text-anchor="start" x="744.08" y="-552.2" font-family="Arial" font-size="14.00" fill="#666666">[TEXT]</text>
<polygon fill="none" stroke="black" points="665.48,-509.2 665.48,-540 828.07,-540 828.07,-509.2 665.48,-509.2"/>
<text text-anchor="start" x="672.48" y="-521.4" font-family="Arial" font-size="14.00">extract_files </text>
<text text-anchor="start" x="751.06" y="-521.4" font-family="Arial" font-size="14.00" fill="#666666">[INTEGER]</text>
<polygon fill="none" stroke="black" points="665.48,-478.4 665.48,-509.2 828.07,-509.2 828.07,-478.4 665.48,-478.4"/>
<text text-anchor="start" x="672.48" y="-490.6" font-family="Arial" font-size="14.00">arguments </text>
<text text-anchor="start" x="742.51" y="-490.6" font-family="Arial" font-size="14.00" fill="#666666">[TEXT]</text>
<polygon fill="none" stroke="black" points="665.48,-447.6 665.48,-478.4 828.07,-478.4 828.07,-447.6 665.48,-447.6"/>
<text text-anchor="start" x="672.48" y="-459.8" font-family="Arial" font-size="14.00">system_id </text>
<text text-anchor="start" x="739.39" y="-459.8" font-family="Arial" font-size="14.00" fill="#666666">[INTEGER]</text>
</g>
<!-- emulator&#45;&gt;system -->
<g id="edge1" class="edge">
<title>emulator:system_id&#45;&gt;system:id</title>
<path fill="none" stroke="black" d="M839.35,-462.31C895.53,-454.19 858.24,-375.51 879.77,-312 906.38,-233.52 857.28,-135.6 940.15,-135.6"/>
<polygon fill="black" stroke="black" points="839.38,-462.31 829.1,-458.49 834.06,-462.67 829.74,-462.96 829.74,-462.96 829.74,-462.96 834.06,-462.67 829.7,-467.47 839.38,-462.31"/>
<text text-anchor="start" x="276.45" y="-447" font-family="Arial" font-size="10.00">FOREIGN KEY (system_id) REFERENCES system (id) ON UPDATE NO ACTION ON DELETE CASCADE MATCH NONE</text>
</g>
<!-- release_system -->
<g id="node3" class="node">
<title>release_system</title>
<polygon fill="#efefef" stroke="none" points="368.67,-570.8 368.67,-606.4 560.88,-606.4 560.88,-570.8 368.67,-570.8"/>
<polygon fill="none" stroke="black" points="368.67,-570.8 368.67,-606.4 560.88,-606.4 560.88,-570.8 368.67,-570.8"/>
<text text-anchor="start" x="375.67" y="-584.2" font-family="Arial Bold" font-size="18.00">release_system</text>
<text text-anchor="start" x="484.63" y="-584.2" font-family="Arial" font-size="14.00">    </text>
<text text-anchor="start" x="515.74" y="-584.2" font-family="Arial" font-size="14.00" fill="#666666">[table]</text>
<polygon fill="none" stroke="black" points="368.67,-540 368.67,-570.8 560.88,-570.8 560.88,-540 368.67,-540"/>
<text text-anchor="start" x="375.67" y="-552.2" font-family="Arial" font-size="14.00">release_id </text>
<text text-anchor="start" x="444.16" y="-552.2" font-family="Arial" font-size="14.00" fill="#666666">[INTEGER]</text>
<polygon fill="none" stroke="black" points="368.67,-509.2 368.67,-540 560.88,-540 560.88,-509.2 368.67,-509.2"/>
<text text-anchor="start" x="375.67" y="-521.4" font-family="Arial" font-size="14.00">system_id </text>
<text text-anchor="start" x="442.58" y="-521.4" font-family="Arial" font-size="14.00" fill="#666666">[INTEGER]</text>
</g>
<!-- release_system&#45;&gt;system -->
<g id="edge2" class="edge">
<title>release_system:system_id&#45;&gt;system:id</title>
<path fill="none" stroke="black" d="M571.89,-524.05C651.59,-514.62 556.55,-386.14 613.77,-312 714.52,-181.47 775.26,-135.6 940.15,-135.6"/>
<polygon fill="black" stroke="black" points="572.2,-524.03 561.97,-520.09 566.87,-524.33 562.55,-524.56 562.55,-524.56 562.55,-524.56 566.87,-524.33 562.46,-529.07 572.2,-524.03"/>
<text text-anchor="start" x="9.26" y="-534.6" font-family="Arial" font-size="10.00">FOREIGN KEY (system_id) REFERENCES system (id) ON UPDATE NO ACTION ON DELETE CASCADE MATCH NONE</text>
</g>
<!-- release -->
<g id="node4" class="node">
<title>release</title>
<polygon fill="#efefef" stroke="none" points="373.35,-166.4 373.35,-202 556.2,-202 556.2,-166.4 373.35,-166.4"/>
<polygon fill="none" stroke="black" points="373.35,-166.4 373.35,-202 556.2,-202 556.2,-166.4 373.35,-166.4"/>
<text text-anchor="start" x="405.17" y="-179.8" font-family="Arial Bold" font-size="18.00">release</text>
<text text-anchor="start" x="455.13" y="-179.8" font-family="Arial" font-size="14.00">    </text>
<text text-anchor="start" x="486.24" y="-179.8" font-family="Arial" font-size="14.00" fill="#666666">[table]</text>
<polygon fill="none" stroke="black" points="373.35,-135.6 373.35,-166.4 556.2,-166.4 556.2,-135.6 373.35,-135.6"/>
<text text-anchor="start" x="380.35" y="-147.8" font-family="Arial" font-size="14.00">id </text>
<text text-anchor="start" x="395.13" y="-147.8" font-family="Arial" font-size="14.00" fill="#666666">[INTEGER]</text>
<polygon fill="none" stroke="black" points="373.35,-104.8 373.35,-135.6 556.2,-135.6 556.2,-104.8 373.35,-104.8"/>
<text text-anchor="start" x="380.35" y="-117" font-family="Arial" font-size="14.00">name </text>
<text text-anchor="start" x="419.26" y="-117" font-family="Arial" font-size="14.00" fill="#666666">[TEXT]</text>
<polygon fill="none" stroke="black" points="373.35,-74 373.35,-104.8 556.2,-104.8 556.2,-74 373.35,-74"/>
<text text-anchor="start" x="380.35" y="-86.2" font-family="Arial" font-size="14.00">thumbnail_filename </text>
<text text-anchor="start" x="505.64" y="-86.2" font-family="Arial" font-size="14.00" fill="#666666">[TEXT]</text>
</g>
<!-- release_system&#45;&gt;release -->
<g id="edge3" class="edge">
<title>release_system:release_id&#45;&gt;release:id</title>
<path fill="none" stroke="black" d="M570.4,-549.99C605.99,-502 599.07,-151 557.2,-151"/>
<polygon fill="black" stroke="black" points="570.61,-549.86 559.75,-551.42 566.1,-552.72 562.45,-555.04 562.45,-555.04 562.45,-555.04 566.1,-552.72 564.58,-559.02 570.61,-549.86"/>
<text text-anchor="start" x="7" y="-565.4" font-family="Arial" font-size="10.00">FOREIGN KEY (release_id) REFERENCES release (id) ON UPDATE NO ACTION ON DELETE CASCADE MATCH NONE</text>
</g>
<!-- file_info_system -->
<g id="node5" class="node">
<title>file_info_system</title>
<polygon fill="#efefef" stroke="none" points="1526.66,-570.8 1526.66,-606.4 1730.89,-606.4 1730.89,-570.8 1526.66,-570.8"/>
<polygon fill="none" stroke="black" points="1526.66,-570.8 1526.66,-606.4 1730.89,-606.4 1730.89,-570.8 1526.66,-570.8"/>
<text text-anchor="start" x="1533.66" y="-584.2" font-family="Arial Bold" font-size="18.00">file_info_system</text>
<text text-anchor="start" x="1654.64" y="-584.2" font-family="Arial" font-size="14.00">    </text>
<text text-anchor="start" x="1685.75" y="-584.2" font-family="Arial" font-size="14.00" fill="#666666">[table]</text>
<polygon fill="none" stroke="black" points="1526.66,-540 1526.66,-570.8 1730.89,-570.8 1730.89,-540 1526.66,-540"/>
<text text-anchor="start" x="1533.66" y="-552.2" font-family="Arial" font-size="14.00">file_info_id </text>
<text text-anchor="start" x="1604.48" y="-552.2" font-family="Arial" font-size="14.00" fill="#666666">[INTEGER]</text>
<polygon fill="none" stroke="black" points="1526.66,-509.2 1526.66,-540 1730.89,-540 1730.89,-509.2 1526.66,-509.2"/>
<text text-anchor="start" x="1533.66" y="-521.4" font-family="Arial" font-size="14.00">system_id </text>
<text text-anchor="start" x="1600.57" y="-521.4" font-family="Arial" font-size="14.00" fill="#666666">[INTEGER]</text>
</g>
<!-- file_info_system&#45;&gt;system -->
<g id="edge4" class="edge">
<title>file_info_system:system_id&#45;&gt;system:id</title>
<path fill="none" stroke="black" d="M1515.67,-524.04C1436.32,-514.45 1534.68,-383.86 1474.77,-312 1350.53,-162.95 1269.44,-135.6 1075.4,-135.6"/>
<polygon fill="black" stroke="black" points="1515.34,-524.02 1525.07,-529.07 1520.66,-524.32 1524.99,-524.56 1524.99,-524.56 1524.99,-524.56 1520.66,-524.32 1525.57,-520.09 1515.34,-524.02"/>
<text text-anchor="start" x="1532.66" y="-534.6" font-family="Arial" font-size="10.00">FOREIGN KEY (system_id) REFERENCES system (id) ON UPDATE NO ACTION ON DELETE NO ACTION MATCH NONE</text>
</g>
<!-- file_info -->
<g id="node6" class="node">
<title>file_info</title>
<polygon fill="#efefef" stroke="none" points="1541.24,-197.2 1541.24,-232.8 1716.31,-232.8 1716.31,-197.2 1541.24,-197.2"/>
<polygon fill="none" stroke="black" points="1541.24,-197.2 1541.24,-232.8 1716.31,-232.8 1716.31,-197.2 1541.24,-197.2"/>
<text text-anchor="start" x="1563.16" y="-210.6" font-family="Arial Bold" font-size="18.00">file_info</text>
<text text-anchor="start" x="1625.14" y="-210.6" font-family="Arial" font-size="14.00">    </text>
<text text-anchor="start" x="1656.25" y="-210.6" font-family="Arial" font-size="14.00" fill="#666666">[table]</text>
<polygon fill="none" stroke="black" points="1541.24,-166.4 1541.24,-197.2 1716.31,-197.2 1716.31,-166.4 1541.24,-166.4"/>
<text text-anchor="start" x="1548.24" y="-178.6" font-family="Arial" font-size="14.00">id </text>
<text text-anchor="start" x="1563.03" y="-178.6" font-family="Arial" font-size="14.00" fill="#666666">[INTEGER]</text>
<polygon fill="none" stroke="black" points="1541.24,-135.6 1541.24,-166.4 1716.31,-166.4 1716.31,-135.6 1541.24,-135.6"/>
<text text-anchor="start" x="1548.24" y="-147.8" font-family="Arial" font-size="14.00">sha1_checksum </text>
<text text-anchor="start" x="1653.29" y="-147.8" font-family="Arial" font-size="14.00" fill="#666666">[BLOB]</text>
<polygon fill="none" stroke="black" points="1541.24,-104.8 1541.24,-135.6 1716.31,-135.6 1716.31,-104.8 1541.24,-104.8"/>
<text text-anchor="start" x="1548.24" y="-117" font-family="Arial" font-size="14.00">file_size </text>
<text text-anchor="start" x="1602.71" y="-117" font-family="Arial" font-size="14.00" fill="#666666">[INTEGER]</text>
<polygon fill="none" stroke="black" points="1541.24,-74 1541.24,-104.8 1716.31,-104.8 1716.31,-74 1541.24,-74"/>
<text text-anchor="start" x="1548.24" y="-86.2" font-family="Arial" font-size="14.00">archive_file_name </text>
<text text-anchor="start" x="1665.75" y="-86.2" font-family="Arial" font-size="14.00" fill="#666666">[TEXT]</text>
<polygon fill="none" stroke="black" points="1541.24,-43.2 1541.24,-74 1716.31,-74 1716.31,-43.2 1541.24,-43.2"/>
<text text-anchor="start" x="1548.24" y="-55.4" font-family="Arial" font-size="14.00">file_type </text>
<text text-anchor="start" x="1604.27" y="-55.4" font-family="Arial" font-size="14.00" fill="#666666">[INTEGER]</text>
</g>
<!-- file_info_system&#45;&gt;file_info -->
<g id="edge5" class="edge">
<title>file_info_system:file_info_id&#45;&gt;file_info:id</title>
<path fill="none" stroke="black" d="M1742.06,-553.39C1813.6,-523.98 1796.82,-181.8 1717.31,-181.8"/>
<polygon fill="black" stroke="black" points="1742.03,-553.4 1731.35,-550.92 1736.8,-554.43 1732.55,-555.27 1732.55,-555.27 1732.55,-555.27 1736.8,-554.43 1733.09,-559.75 1742.03,-553.4"/>
<text text-anchor="start" x="1738.89" y="-565.4" font-family="Arial" font-size="10.00">FOREIGN KEY (file_info_id) REFERENCES file_info (id) ON UPDATE NO ACTION ON DELETE CASCADE MATCH NONE</text>
</g>
<!-- dat_file -->
<g id="node7" class="node">
<title>dat_file</title>
<polygon fill="#efefef" stroke="none" points="932.32,-724.8 932.32,-760.4 1083.23,-760.4 1083.23,-724.8 932.32,-724.8"/>
<polygon fill="none" stroke="black" points="932.32,-724.8 932.32,-760.4 1083.23,-760.4 1083.23,-724.8 932.32,-724.8"/>
<text text-anchor="start" x="945.66" y="-738.2" font-family="Arial Bold" font-size="18.00">dat_file</text>
<text text-anchor="start" x="1000.63" y="-738.2" font-family="Arial" font-size="14.00">    </text>
<text text-anchor="start" x="1031.75" y="-738.2" font-family="Arial" font-size="14.00" fill="#666666">[table]</text>
<polygon fill="none" stroke="black" points="932.32,-694 932.32,-724.8 1083.23,-724.8 1083.23,-694 932.32,-694"/>
<text text-anchor="start" x="939.32" y="-706.2" font-family="Arial" font-size="14.00">id </text>
<text text-anchor="start" x="954.1" y="-706.2" font-family="Arial" font-size="14.00" fill="#666666">[INTEGER]</text>
<polygon fill="none" stroke="black" points="932.32,-663.2 932.32,-694 1083.23,-694 1083.23,-663.2 932.32,-663.2"/>
<text text-anchor="start" x="939.32" y="-675.4" font-family="Arial" font-size="14.00">dat_id </text>
<text text-anchor="start" x="981.35" y="-675.4" font-family="Arial" font-size="14.00" fill="#666666">[INTEGER]</text>
<polygon fill="none" stroke="black" points="932.32,-632.4 932.32,-663.2 1083.23,-663.2 1083.23,-632.4 932.32,-632.4"/>
<text text-anchor="start" x="939.32" y="-644.6" font-family="Arial" font-size="14.00">name </text>
<text text-anchor="start" x="978.23" y="-644.6" font-family="Arial" font-size="14.00" fill="#666666">[TEXT]</text>
<polygon fill="none" stroke="black" points="932.32,-601.6 932.32,-632.4 1083.23,-632.4 1083.23,-601.6 932.32,-601.6"/>
<text text-anchor="start" x="939.32" y="-613.8" font-family="Arial" font-size="14.00">description </text>
<text text-anchor="start" x="1010.91" y="-613.8" font-family="Arial" font-size="14.00" fill="#666666">[TEXT]</text>
<polygon fill="none" stroke="black" points="932.32,-570.8 932.32,-601.6 1083.23,-601.6 1083.23,-570.8 932.32,-570.8"/>
<text text-anchor="start" x="939.32" y="-583" font-family="Arial" font-size="14.00">version </text>
<text text-anchor="start" x="988.34" y="-583" font-family="Arial" font-size="14.00" fill="#666666">[TEXT]</text>
<polygon fill="none" stroke="black" points="932.32,-540 932.32,-570.8 1083.23,-570.8 1083.23,-540 932.32,-540"/>
<text text-anchor="start" x="939.32" y="-552.2" font-family="Arial" font-size="14.00">date </text>
<text text-anchor="start" x="970.45" y="-552.2" font-family="Arial" font-size="14.00" fill="#666666">[TEXT]</text>
<polygon fill="none" stroke="black" points="932.32,-509.2 932.32,-540 1083.23,-540 1083.23,-509.2 932.32,-509.2"/>
<text text-anchor="start" x="939.32" y="-521.4" font-family="Arial" font-size="14.00">author </text>
<text text-anchor="start" x="982.9" y="-521.4" font-family="Arial" font-size="14.00" fill="#666666">[TEXT]</text>
<polygon fill="none" stroke="black" points="932.32,-478.4 932.32,-509.2 1083.23,-509.2 1083.23,-478.4 932.32,-478.4"/>
<text text-anchor="start" x="939.32" y="-490.6" font-family="Arial" font-size="14.00">homepage </text>
<text text-anchor="start" x="1009.37" y="-490.6" font-family="Arial" font-size="14.00" fill="#666666">[TEXT]</text>
<polygon fill="none" stroke="black" points="932.32,-447.6 932.32,-478.4 1083.23,-478.4 1083.23,-447.6 932.32,-447.6"/>
<text text-anchor="start" x="939.32" y="-459.8" font-family="Arial" font-size="14.00">url </text>
<text text-anchor="start" x="958.76" y="-459.8" font-family="Arial" font-size="14.00" fill="#666666">[TEXT]</text>
<polygon fill="none" stroke="black" points="932.32,-416.8 932.32,-447.6 1083.23,-447.6 1083.23,-416.8 932.32,-416.8"/>
<text text-anchor="start" x="939.32" y="-429" font-family="Arial" font-size="14.00">subset </text>
<text text-anchor="start" x="984.45" y="-429" font-family="Arial" font-size="14.00" fill="#666666">[TEXT]</text>
<polygon fill="none" stroke="black" points="932.32,-386 932.32,-416.8 1083.23,-416.8 1083.23,-386 932.32,-386"/>
<text text-anchor="start" x="939.32" y="-398.2" font-family="Arial" font-size="14.00">imported_at </text>
<text text-anchor="start" x="1017.14" y="-398.2" font-family="Arial" font-size="14.00" fill="#666666">[TEXT]</text>
<polygon fill="none" stroke="black" points="932.32,-355.2 932.32,-386 1083.23,-386 1083.23,-355.2 932.32,-355.2"/>
<text text-anchor="start" x="939.32" y="-367.4" font-family="Arial" font-size="14.00">system_id </text>
<text text-anchor="start" x="1006.23" y="-367.4" font-family="Arial" font-size="14.00" fill="#666666">[INTEGER]</text>
</g>
<!-- dat_file&#45;&gt;system -->
<g id="edge6" class="edge">
<title>dat_file:system_id&#45;&gt;system:id</title>
<path fill="none" stroke="black" d="M1008.28,-343.99C1013.63,-292.41 1059.72,-288.85 1074.4,-232.8 1085.35,-191.01 1118.6,-135.6 1075.4,-135.6"/>
<polygon fill="black" stroke="black" points="1008.29,-343.88 1003.3,-353.64 1008.02,-349.21 1007.81,-353.53 1007.81,-353.53 1007.81,-353.53 1008.02,-349.21 1012.29,-354.09 1008.29,-343.88"/>
<text text-anchor="start" x="1014.77" y="-364.2" font-family="Arial" font-size="10.00">FOREIGN KEY (system_id) REFERENCES system (id) ON UPDATE NO ACTION ON DELETE CASCADE MATCH NONE</text>
</g>
<!-- dat_game -->
<g id="node8" class="node">
<title>dat_game</title>
<polygon fill="#efefef" stroke="none" points="781.16,-1098.4 781.16,-1134 934.39,-1134 934.39,-1098.4 781.16,-1098.4"/>
<polygon fill="none" stroke="black" points="781.16,-1098.4 781.16,-1134 934.39,-1134 934.39,-1098.4 781.16,-1098.4"/>
<text text-anchor="start" x="788.16" y="-1111.8" font-family="Arial Bold" font-size="18.00">dat_game</text>
<text text-anchor="start" x="858.13" y="-1111.8" font-family="Arial" font-size="14.00">    </text>
<text text-anchor="start" x="889.25" y="-1111.8" font-family="Arial" font-size="14.00" fill="#666666">[table]</text>
<polygon fill="none" stroke="black" points="781.16,-1067.6 781.16,-1098.4 934.39,-1098.4 934.39,-1067.6 781.16,-1067.6"/>
<text text-anchor="start" x="788.16" y="-1079.8" font-family="Arial" font-size="14.00">id </text>
<text text-anchor="start" x="802.95" y="-1079.8" font-family="Arial" font-size="14.00" fill="#666666">[INTEGER]</text>
<polygon fill="none" stroke="black" points="781.16,-1036.8 781.16,-1067.6 934.39,-1067.6 934.39,-1036.8 781.16,-1036.8"/>
<text text-anchor="start" x="788.16" y="-1049" font-family="Arial" font-size="14.00">dat_file_id </text>
<text text-anchor="start" x="855.88" y="-1049" font-family="Arial" font-size="14.00" fill="#666666">[INTEGER]</text>
<polygon fill="none" stroke="black" points="781.16,-1006 781.16,-1036.8 934.39,-1036.8 934.39,-1006 781.16,-1006"/>
<text text-anchor="start" x="788.16" y="-1018.2" font-family="Arial" font-size="14.00">name </text>
<text text-anchor="start" x="827.07" y="-1018.2" font-family="Arial" font-size="14.00" fill="#666666">[TEXT]</text>
<polygon fill="none" stroke="black" points="781.16,-975.2 781.16,-1006 934.39,-1006 934.39,-975.2 781.16,-975.2"/>
<text text-anchor="start" x="788.16" y="-987.4" font-family="Arial" font-size="14.00">game_id </text>
<text text-anchor="start" x="845.75" y="-987.4" font-family="Arial" font-size="14.00" fill="#666666">[TEXT]</text>
<polygon fill="none" stroke="black" points="781.16,-944.4 781.16,-975.2 934.39,-975.2 934.39,-944.4 781.16,-944.4"/>
<text text-anchor="start" x="788.16" y="-956.6" font-family="Arial" font-size="14.00">description </text>
<text text-anchor="start" x="859.75" y="-956.6" font-family="Arial" font-size="14.00" fill="#666666">[TEXT]</text>
<polygon fill="none" stroke="black" points="781.16,-913.6 781.16,-944.4 934.39,-944.4 934.39,-913.6 781.16,-913.6"/>
<text text-anchor="start" x="788.16" y="-925.8" font-family="Arial" font-size="14.00">cloneof </text>
<text text-anchor="start" x="837.2" y="-925.8" font-family="Arial" font-size="14.00" fill="#666666">[TEXT]</text>
<polygon fill="none" stroke="black" points="781.16,-882.8 781.16,-913.6 934.39,-913.6 934.39,-882.8 781.16,-882.8"/>
<text text-anchor="start" x="788.16" y="-895" font-family="Arial" font-size="14.00">cloneofid </text>
<text text-anchor="start" x="848.09" y="-895" font-family="Arial" font-size="14.00" fill="#666666">[TEXT]</text>
</g>
<!-- dat_game&#45;&gt;dat_file -->
<g id="edge7" class="edge">
<title>dat_game:dat_file_id&#45;&gt;dat_file:id</title>
<path fill="none" stroke="black" d="M945.68,-1051.75C1038.71,-1043.06 935.95,-910.37 932.32,-803.6 930.89,-761.76 889.45,-709.4 931.32,-709.4"/>
<polygon fill="black" stroke="black" points="945.71,-1051.75 935.52,-1047.69 940.38,-1051.98 936.06,-1052.17 936.06,-1052.17 936.06,-1052.17 940.38,-1051.98 935.92,-1056.68 945.71,-1051.75"/>
<text text-anchor="start" x="381.61" y="-1062.2" font-family="Arial" font-size="10.00">FOREIGN KEY (dat_file_id) REFERENCES dat_file (id) ON UPDATE NO ACTION ON DELETE CASCADE MATCH NONE</text>
</g>
<!-- file_set_dat_file_link -->
<g id="node9" class="node">
<title>file_set_dat_file_link</title>
<polygon fill="#efefef" stroke="none" points="1039.17,-1021.4 1039.17,-1057 1276.38,-1057 1276.38,-1021.4 1039.17,-1021.4"/>
<polygon fill="none" stroke="black" points="1039.17,-1021.4 1039.17,-1057 1276.38,-1057 1276.38,-1021.4 1039.17,-1021.4"/>
<text text-anchor="start" x="1046.17" y="-1034.8" font-family="Arial Bold" font-size="18.00">file_set_dat_file_link</text>
<text text-anchor="start" x="1200.13" y="-1034.8" font-family="Arial" font-size="14.00">    </text>
<text text-anchor="start" x="1231.24" y="-1034.8" font-family="Arial" font-size="14.00" fill="#666666">[table]</text>
<polygon fill="none" stroke="black" points="1039.17,-990.6 1039.17,-1021.4 1276.38,-1021.4 1276.38,-990.6 1039.17,-990.6"/>
<text text-anchor="start" x="1046.17" y="-1002.8" font-family="Arial" font-size="14.00">file_set_id </text>
<text text-anchor="start" x="1113.1" y="-1002.8" font-family="Arial" font-size="14.00" fill="#666666">[INTEGER]</text>
<polygon fill="none" stroke="black" points="1039.17,-959.8 1039.17,-990.6 1276.38,-990.6 1276.38,-959.8 1039.17,-959.8"/>
<text text-anchor="start" x="1046.17" y="-972" font-family="Arial" font-size="14.00">dat_file_id </text>
<text text-anchor="start" x="1113.88" y="-972" font-family="Arial" font-size="14.00" fill="#666666">[INTEGER]</text>
</g>
<!-- file_set_dat_file_link&#45;&gt;dat_file -->
<g id="edge8" class="edge">
<title>file_set_dat_file_link:dat_file_id&#45;&gt;dat_file:id</title>
<path fill="none" stroke="black" d="M1027.81,-974.39C936.28,-958.34 1200.26,-709.4 1084.23,-709.4"/>
<polygon fill="black" stroke="black" points="1027.86,-974.39 1037.48,-979.66 1033.18,-974.81 1037.5,-975.15 1037.5,-975.15 1037.5,-975.15 1033.18,-974.81 1038.19,-970.69 1027.86,-974.39"/>
<text text-anchor="start" x="1045.17" y="-985.2" font-family="Arial" font-size="10.00">FOREIGN KEY (dat_file_id) REFERENCES dat_file (id) ON UPDATE NO ACTION ON DELETE CASCADE MATCH NONE</text>
</g>
<!-- system_libretro_core -->
<g id="node10" class="node">
<title>system_libretro_core</title>
<polygon fill="#efefef" stroke="none" points="1187.17,-586.2 1187.17,-621.8 1422.38,-621.8 1422.38,-586.2 1187.17,-586.2"/>
<polygon fill="none" stroke="black" points="1187.17,-586.2 1187.17,-621.8 1422.38,-621.8 1422.38,-586.2 1187.17,-586.2"/>
<text text-anchor="start" x="1194.17" y="-599.6" font-family="Arial Bold" font-size="18.00">system_libretro_core</text>
<text text-anchor="start" x="1346.12" y="-599.6" font-family="Arial" font-size="14.00">    </text>
<text text-anchor="start" x="1377.24" y="-599.6" font-family="Arial" font-size="14.00" fill="#666666">[table]</text>
<polygon fill="none" stroke="black" points="1187.17,-555.4 1187.17,-586.2 1422.38,-586.2 1422.38,-555.4 1187.17,-555.4"/>
<text text-anchor="start" x="1194.17" y="-567.6" font-family="Arial" font-size="14.00">id </text>
<text text-anchor="start" x="1208.96" y="-567.6" font-family="Arial" font-size="14.00" fill="#666666">[INTEGER]</text>
<polygon fill="none" stroke="black" points="1187.17,-524.6 1187.17,-555.4 1422.38,-555.4 1422.38,-524.6 1187.17,-524.6"/>
<text text-anchor="start" x="1194.17" y="-536.8" font-family="Arial" font-size="14.00">system_id </text>
<text text-anchor="start" x="1261.08" y="-536.8" font-family="Arial" font-size="14.00" fill="#666666">[INTEGER]</text>
<polygon fill="none" stroke="black" points="1187.17,-493.8 1187.17,-524.6 1422.38,-524.6 1422.38,-493.8 1187.17,-493.8"/>
<text text-anchor="start" x="1194.17" y="-506" font-family="Arial" font-size="14.00">core_name </text>
<text text-anchor="start" x="1268.1" y="-506" font-family="Arial" font-size="14.00" fill="#666666">[TEXT]</text>
</g>
<!-- system_libretro_core&#45;&gt;system -->
<g id="edge9" class="edge">
<title>system_libretro_core:system_id&#45;&gt;system:id</title>
<path fill="none" stroke="black" d="M1176.19,-537.47C1136.32,-515.6 1148.81,-358.45 1135.77,-312 1113.38,-232.22 1158.27,-135.6 1075.4,-135.6"/>
<polygon fill="black" stroke="black" points="1176.15,-537.46 1184.74,-544.28 1181.32,-538.77 1185.52,-539.84 1185.52,-539.84 1185.52,-539.84 1181.32,-538.77 1186.95,-535.56 1176.15,-537.46"/>
<text text-anchor="start" x="913.36" y="-524" font-family="Arial" font-size="10.00">FOREIGN KEY (system_id) REFERENCES system (id) ON UPDATE NO ACTION ON DELETE CASCADE MATCH NONE</text>
</g>
</g>
</svg>
