<?xml version="1.0" encoding="UTF-8" standalone="no"?>
<!DOCTYPE svg PUBLIC "-//W3C//DTD SVG 1.1//EN"
 "http://www.w3.org/Graphics/SVG/1.1/DTD/svg11.dtd">
<!-- Generated by graphviz version 12.1.2 (20240928.0832)
 -->
<!-- Title: file_info_system Pages: 1 -->
<svg width="2110pt" height="627pt"
 viewBox="0.00 0.00 2110.34 626.80" xmlns="http://www.w3.org/2000/svg" xmlns:xlink="http://www.w3.org/1999/xlink">
<g id="graph0" class="graph" transform="scale(1 1) rotate(0) translate(4 622.8)">
<title>file_info_system</title>
<polygon fill="white" stroke="none" points="-4,4 -4,-622.8 2106.34,-622.8 2106.34,4 -4,4"/>
<!-- file_info_system -->
<g id="node1" class="node">
<title>file_info_system</title>
<polygon fill="#efefef" stroke="none" points="964.71,-478.4 964.71,-514 1168.94,-514 1168.94,-478.4 964.71,-478.4"/>
<polygon fill="none" stroke="black" points="964.71,-478.4 964.71,-514 1168.94,-514 1168.94,-478.4 964.71,-478.4"/>
<text text-anchor="start" x="971.71" y="-491.8" font-family="Arial Bold" font-size="18.00">file_info_system</text>
<text text-anchor="start" x="1092.69" y="-491.8" font-family="Arial" font-size="14.00">    </text>
<text text-anchor="start" x="1123.81" y="-491.8" font-family="Arial" font-size="14.00" fill="#666666">[table]</text>
<polygon fill="none" stroke="black" points="964.71,-447.6 964.71,-478.4 1168.94,-478.4 1168.94,-447.6 964.71,-447.6"/>
<text text-anchor="start" x="971.71" y="-459.8" font-family="Arial" font-size="14.00">file_info_id </text>
<text text-anchor="start" x="1042.53" y="-459.8" font-family="Arial" font-size="14.00" fill="#666666">[INTEGER]</text>
<polygon fill="none" stroke="black" points="964.71,-416.8 964.71,-447.6 1168.94,-447.6 1168.94,-416.8 964.71,-416.8"/>
<text text-anchor="start" x="971.71" y="-429" font-family="Arial" font-size="14.00">system_id </text>
<text text-anchor="start" x="1038.62" y="-429" font-family="Arial" font-size="14.00" fill="#666666">[INTEGER]</text>
<polygon fill="none" stroke="black" stroke-width="3" points="963.21,-415.3 963.21,-515.5 1170.44,-515.5 1170.44,-415.3 963.21,-415.3"/>
</g>
<!-- file_info -->
<g id="node2" class="node">
<title>file_info</title>
<polygon fill="#efefef" stroke="none" points="679.29,-197.2 679.29,-232.8 854.36,-232.8 854.36,-197.2 679.29,-197.2"/>
<polygon fill="none" stroke="black" points="679.29,-197.2 679.29,-232.8 854.36,-232.8 854.36,-197.2 679.29,-197.2"/>
<text text-anchor="start" x="701.21" y="-210.6" font-family="Arial Bold" font-size="18.00">file_info</text>
<text text-anchor="start" x="763.19" y="-210.6" font-family="Arial" font-size="14.00">    </text>
<text text-anchor="start" x="794.3" y="-210.6" font-family="Arial" font-size="14.00" fill="#666666">[table]</text>
<polygon fill="none" stroke="black" points="679.29,-166.4 679.29,-197.2 854.36,-197.2 854.36,-166.4 679.29,-166.4"/>
<text text-anchor="start" x="686.29" y="-178.6" font-family="Arial" font-size="14.00">id </text>
<text text-anchor="start" x="701.08" y="-178.6" font-family="Arial" font-size="14.00" fill="#666666">[INTEGER]</text>
<polygon fill="none" stroke="black" points="679.29,-135.6 679.29,-166.4 854.36,-166.4 854.36,-135.6 679.29,-135.6"/>
<text text-anchor="start" x="686.29" y="-147.8" font-family="Arial" font-size="14.00">sha1_checksum </text>
<text text-anchor="start" x="791.35" y="-147.8" font-family="Arial" font-size="14.00" fill="#666666">[BLOB]</text>
<polygon fill="none" stroke="black" points="679.29,-104.8 679.29,-135.6 854.36,-135.6 854.36,-104.8 679.29,-104.8"/>
<text text-anchor="start" x="686.29" y="-117" font-family="Arial" font-size="14.00">file_size </text>
<text text-anchor="start" x="740.76" y="-117" font-family="Arial" font-size="14.00" fill="#666666">[INTEGER]</text>
<polygon fill="none" stroke="black" points="679.29,-74 679.29,-104.8 854.36,-104.8 854.36,-74 679.29,-74"/>
<text text-anchor="start" x="686.29" y="-86.2" font-family="Arial" font-size="14.00">archive_file_name </text>
<text text-anchor="start" x="803.8" y="-86.2" font-family="Arial" font-size="14.00" fill="#666666">[TEXT]</text>
<polygon fill="none" stroke="black" points="679.29,-43.2 679.29,-74 854.36,-74 854.36,-43.2 679.29,-43.2"/>
<text text-anchor="start" x="686.29" y="-55.4" font-family="Arial" font-size="14.00">file_type </text>
<text text-anchor="start" x="742.32" y="-55.4" font-family="Arial" font-size="14.00" fill="#666666">[INTEGER]</text>
</g>
<!-- file_info_system&#45;&gt;file_info -->
<g id="edge1" class="edge">
<title>file_info_system:file_info_id&#45;&gt;file_info:id</title>
<path fill="none" stroke="black" d="M953.36,-462.31C896.81,-454.13 934.2,-374.94 909.82,-312 887.17,-253.51 918.08,-181.8 855.36,-181.8"/>
<polygon fill="black" stroke="black" points="953.39,-462.31 963.07,-467.47 958.72,-462.67 963.04,-462.96 963.04,-462.96 963.04,-462.96 958.72,-462.67 963.67,-458.49 953.39,-462.31"/>
<text text-anchor="start" x="970.71" y="-473" font-family="Arial" font-size="10.00">FOREIGN KEY (file_info_id) REFERENCES file_info (id) ON UPDATE NO ACTION ON DELETE CASCADE MATCH NONE</text>
</g>
<!-- system -->
<g id="node5" class="node">
<title>system</title>
<polygon fill="#efefef" stroke="none" points="1291.2,-151 1291.2,-186.6 1424.45,-186.6 1424.45,-151 1291.2,-151"/>
<polygon fill="none" stroke="black" points="1291.2,-151 1291.2,-186.6 1424.45,-186.6 1424.45,-151 1291.2,-151"/>
<text text-anchor="start" x="1298.2" y="-164.4" font-family="Arial Bold" font-size="18.00">system</text>
<text text-anchor="start" x="1348.2" y="-164.4" font-family="Arial" font-size="14.00">    </text>
<text text-anchor="start" x="1379.31" y="-164.4" font-family="Arial" font-size="14.00" fill="#666666">[table]</text>
<polygon fill="none" stroke="black" points="1291.2,-120.2 1291.2,-151 1424.45,-151 1424.45,-120.2 1291.2,-120.2"/>
<text text-anchor="start" x="1298.2" y="-132.4" font-family="Arial" font-size="14.00">id </text>
<text text-anchor="start" x="1312.98" y="-132.4" font-family="Arial" font-size="14.00" fill="#666666">[INTEGER]</text>
<polygon fill="none" stroke="black" points="1291.2,-89.4 1291.2,-120.2 1424.45,-120.2 1424.45,-89.4 1291.2,-89.4"/>
<text text-anchor="start" x="1298.2" y="-101.6" font-family="Arial" font-size="14.00">name </text>
<text text-anchor="start" x="1337.11" y="-101.6" font-family="Arial" font-size="14.00" fill="#666666">[TEXT]</text>
</g>
<!-- file_info_system&#45;&gt;system -->
<g id="edge4" class="edge">
<title>file_info_system:system_id&#45;&gt;system:id</title>
<path fill="none" stroke="black" d="M1178.73,-426.8C1213.29,-386.6 1257.48,-135.6 1290.2,-135.6"/>
<polygon fill="black" stroke="black" points="1178.75,-426.79 1167.87,-428.19 1174.2,-429.58 1170.51,-431.85 1170.51,-431.85 1170.51,-431.85 1174.2,-429.58 1172.58,-435.86 1178.75,-426.79"/>
<text text-anchor="start" x="1176.94" y="-442.2" font-family="Arial" font-size="10.00">FOREIGN KEY (system_id) REFERENCES system (id) ON UPDATE NO ACTION ON DELETE NO ACTION MATCH NONE</text>
</g>
<!-- file_set_file_info -->
<g id="node3" class="node">
<title>file_set_file_info</title>
<polygon fill="#efefef" stroke="none" points="364.22,-493.8 364.22,-529.4 571.43,-529.4 571.43,-493.8 364.22,-493.8"/>
<polygon fill="none" stroke="black" points="364.22,-493.8 364.22,-529.4 571.43,-529.4 571.43,-493.8 364.22,-493.8"/>
<text text-anchor="start" x="371.22" y="-507.2" font-family="Arial Bold" font-size="18.00">file_set_file_info</text>
<text text-anchor="start" x="495.18" y="-507.2" font-family="Arial" font-size="14.00">    </text>
<text text-anchor="start" x="526.29" y="-507.2" font-family="Arial" font-size="14.00" fill="#666666">[table]</text>
<polygon fill="none" stroke="black" points="364.22,-463 364.22,-493.8 571.43,-493.8 571.43,-463 364.22,-463"/>
<text text-anchor="start" x="371.22" y="-475.2" font-family="Arial" font-size="14.00">file_set_id </text>
<text text-anchor="start" x="438.15" y="-475.2" font-family="Arial" font-size="14.00" fill="#666666">[INTEGER]</text>
<polygon fill="none" stroke="black" points="364.22,-432.2 364.22,-463 571.43,-463 571.43,-432.2 364.22,-432.2"/>
<text text-anchor="start" x="371.22" y="-444.4" font-family="Arial" font-size="14.00">file_info_id </text>
<text text-anchor="start" x="442.04" y="-444.4" font-family="Arial" font-size="14.00" fill="#666666">[INTEGER]</text>
<polygon fill="none" stroke="black" points="364.22,-401.4 364.22,-432.2 571.43,-432.2 571.43,-401.4 364.22,-401.4"/>
<text text-anchor="start" x="371.22" y="-413.6" font-family="Arial" font-size="14.00">file_name </text>
<text text-anchor="start" x="435.81" y="-413.6" font-family="Arial" font-size="14.00" fill="#666666">[TEXT]</text>
</g>
<!-- file_set_file_info&#45;&gt;file_info -->
<g id="edge2" class="edge">
<title>file_set_file_info:file_info_id&#45;&gt;file_info:id</title>
<path fill="none" stroke="black" d="M582.75,-446.84C632.76,-438.78 601.36,-368.36 623.82,-312 647.05,-253.73 615.56,-181.8 678.29,-181.8"/>
<polygon fill="black" stroke="black" points="582.74,-446.84 572.43,-443.09 577.42,-447.23 573.1,-447.55 573.1,-447.55 573.1,-447.55 577.42,-447.23 573.1,-452.06 582.74,-446.84"/>
<text text-anchor="start" x="7" y="-457.6" font-family="Arial" font-size="10.00">FOREIGN KEY (file_info_id) REFERENCES file_info (id) ON UPDATE NO ACTION ON DELETE NO ACTION MATCH NONE</text>
</g>
<!-- file_sync_log -->
<g id="node4" class="node">
<title>file_sync_log</title>
<polygon fill="#efefef" stroke="none" points="676.21,-540 676.21,-575.6 857.44,-575.6 857.44,-540 676.21,-540"/>
<polygon fill="none" stroke="black" points="676.21,-540 676.21,-575.6 857.44,-575.6 857.44,-540 676.21,-540"/>
<text text-anchor="start" x="683.21" y="-553.4" font-family="Arial Bold" font-size="18.00">file_sync_log</text>
<text text-anchor="start" x="781.19" y="-553.4" font-family="Arial" font-size="14.00">    </text>
<text text-anchor="start" x="812.3" y="-553.4" font-family="Arial" font-size="14.00" fill="#666666">[table]</text>
<polygon fill="none" stroke="black" points="676.21,-509.2 676.21,-540 857.44,-540 857.44,-509.2 676.21,-509.2"/>
<text text-anchor="start" x="683.21" y="-521.4" font-family="Arial" font-size="14.00">id </text>
<text text-anchor="start" x="697.99" y="-521.4" font-family="Arial" font-size="14.00" fill="#666666">[INTEGER]</text>
<polygon fill="none" stroke="black" points="676.21,-478.4 676.21,-509.2 857.44,-509.2 857.44,-478.4 676.21,-478.4"/>
<text text-anchor="start" x="683.21" y="-490.6" font-family="Arial" font-size="14.00">file_info_id </text>
<text text-anchor="start" x="754.03" y="-490.6" font-family="Arial" font-size="14.00" fill="#666666">[INTEGER]</text>
<polygon fill="none" stroke="black" points="676.21,-447.6 676.21,-478.4 857.44,-478.4 857.44,-447.6 676.21,-447.6"/>
<text text-anchor="start" x="683.21" y="-459.8" font-family="Arial" font-size="14.00">sync_time </text>
<text text-anchor="start" x="750.12" y="-459.8" font-family="Arial" font-size="14.00" fill="#666666">[TIMESTAMP]</text>
<polygon fill="none" stroke="black" points="676.21,-416.8 676.21,-447.6 857.44,-447.6 857.44,-416.8 676.21,-416.8"/>
<text text-anchor="start" x="683.21" y="-429" font-family="Arial" font-size="14.00">status </text>
<text text-anchor="start" x="724.45" y="-429" font-family="Arial" font-size="14.00" fill="#666666">[INTEGER]</text>
<polygon fill="none" stroke="black" points="676.21,-386 676.21,-416.8 857.44,-416.8 857.44,-386 676.21,-386"/>
<text text-anchor="start" x="683.21" y="-398.2" font-family="Arial" font-size="14.00">message </text>
<text text-anchor="start" x="743.9" y="-398.2" font-family="Arial" font-size="14.00" fill="#666666">[TEXT]</text>
<polygon fill="none" stroke="black" points="676.21,-355.2 676.21,-386 857.44,-386 857.44,-355.2 676.21,-355.2"/>
<text text-anchor="start" x="683.21" y="-367.4" font-family="Arial" font-size="14.00">cloud_key </text>
<text text-anchor="start" x="750.14" y="-367.4" font-family="Arial" font-size="14.00" fill="#666666">[TEXT]</text>
</g>
<!-- file_sync_log&#45;&gt;file_info -->
<g id="edge3" class="edge">
<title>file_sync_log:file_info_id&#45;&gt;file_info:id</title>
<path fill="none" stroke="black" d="M868.45,-491.47C927.3,-462.92 921.17,-181.8 855.36,-181.8"/>
<polygon fill="black" stroke="black" points="868.51,-491.45 857.75,-489.34 863.31,-492.66 859.09,-493.65 859.09,-493.65 859.09,-493.65 863.31,-492.66 859.79,-498.11 868.51,-491.45"/>
<text text-anchor="start" x="293.01" y="-503.8" font-family="Arial" font-size="10.00">FOREIGN KEY (file_info_id) REFERENCES file_info (id) ON UPDATE NO ACTION ON DELETE NO ACTION MATCH NONE</text>
</g>
<!-- emulator -->
<g id="node6" class="node">
<title>emulator</title>
<polygon fill="#efefef" stroke="none" points="1276.53,-540 1276.53,-575.6 1439.12,-575.6 1439.12,-540 1276.53,-540"/>
<polygon fill="none" stroke="black" points="1276.53,-540 1276.53,-575.6 1439.12,-575.6 1439.12,-540 1276.53,-540"/>
<text text-anchor="start" x="1291.21" y="-553.4" font-family="Arial Bold" font-size="18.00">emulator</text>
<text text-anchor="start" x="1355.19" y="-553.4" font-family="Arial" font-size="14.00">    </text>
<text text-anchor="start" x="1386.3" y="-553.4" font-family="Arial" font-size="14.00" fill="#666666">[table]</text>
<polygon fill="none" stroke="black" points="1276.53,-509.2 1276.53,-540 1439.12,-540 1439.12,-509.2 1276.53,-509.2"/>
<text text-anchor="start" x="1283.53" y="-521.4" font-family="Arial" font-size="14.00">id </text>
<text text-anchor="start" x="1298.31" y="-521.4" font-family="Arial" font-size="14.00" fill="#666666">[INTEGER]</text>
<polygon fill="none" stroke="black" points="1276.53,-478.4 1276.53,-509.2 1439.12,-509.2 1439.12,-478.4 1276.53,-478.4"/>
<text text-anchor="start" x="1283.53" y="-490.6" font-family="Arial" font-size="14.00">name </text>
<text text-anchor="start" x="1322.44" y="-490.6" font-family="Arial" font-size="14.00" fill="#666666">[TEXT]</text>
<polygon fill="none" stroke="black" points="1276.53,-447.6 1276.53,-478.4 1439.12,-478.4 1439.12,-447.6 1276.53,-447.6"/>
<text text-anchor="start" x="1283.53" y="-459.8" font-family="Arial" font-size="14.00">executable </text>
<text text-anchor="start" x="1355.13" y="-459.8" font-family="Arial" font-size="14.00" fill="#666666">[TEXT]</text>
<polygon fill="none" stroke="black" points="1276.53,-416.8 1276.53,-447.6 1439.12,-447.6 1439.12,-416.8 1276.53,-416.8"/>
<text text-anchor="start" x="1283.53" y="-429" font-family="Arial" font-size="14.00">extract_files </text>
<text text-anchor="start" x="1362.11" y="-429" font-family="Arial" font-size="14.00" fill="#666666">[INTEGER]</text>
<polygon fill="none" stroke="black" points="1276.53,-386 1276.53,-416.8 1439.12,-416.8 1439.12,-386 1276.53,-386"/>
<text text-anchor="start" x="1283.53" y="-398.2" font-family="Arial" font-size="14.00">arguments </text>
<text text-anchor="start" x="1353.56" y="-398.2" font-family="Arial" font-size="14.00" fill="#666666">[TEXT]</text>
<polygon fill="none" stroke="black" points="1276.53,-355.2 1276.53,-386 1439.12,-386 1439.12,-355.2 1276.53,-355.2"/>
<text text-anchor="start" x="1283.53" y="-367.4" font-family="Arial" font-size="14.00">system_id </text>
<text text-anchor="start" x="1350.44" y="-367.4" font-family="Arial" font-size="14.00" fill="#666666">[INTEGER]</text>
</g>
<!-- emulator&#45;&gt;system -->
<g id="edge5" class="edge">
<title>emulator:system_id&#45;&gt;system:id</title>
<path fill="none" stroke="black" d="M1358.33,-343.79C1363.68,-291.17 1409.78,-286.99 1424.45,-229.8 1434.86,-189.24 1467.32,-135.6 1425.45,-135.6"/>
<polygon fill="black" stroke="black" points="1358.33,-343.88 1353.35,-353.65 1358.07,-349.21 1357.86,-353.53 1357.86,-353.53 1357.86,-353.53 1358.07,-349.21 1362.34,-354.09 1358.33,-343.88"/>
<text text-anchor="start" x="1364.82" y="-338.2" font-family="Arial" font-size="10.00">FOREIGN KEY (system_id) REFERENCES system (id) ON UPDATE NO ACTION ON DELETE CASCADE MATCH NONE</text>
</g>
<!-- release_system -->
<g id="node7" class="node">
<title>release_system</title>
<polygon fill="#efefef" stroke="none" points="1543.72,-478.4 1543.72,-514 1735.93,-514 1735.93,-478.4 1543.72,-478.4"/>
<polygon fill="none" stroke="black" points="1543.72,-478.4 1543.72,-514 1735.93,-514 1735.93,-478.4 1543.72,-478.4"/>
<text text-anchor="start" x="1550.72" y="-491.8" font-family="Arial Bold" font-size="18.00">release_system</text>
<text text-anchor="start" x="1659.68" y="-491.8" font-family="Arial" font-size="14.00">    </text>
<text text-anchor="start" x="1690.79" y="-491.8" font-family="Arial" font-size="14.00" fill="#666666">[table]</text>
<polygon fill="none" stroke="black" points="1543.72,-447.6 1543.72,-478.4 1735.93,-478.4 1735.93,-447.6 1543.72,-447.6"/>
<text text-anchor="start" x="1550.72" y="-459.8" font-family="Arial" font-size="14.00">release_id </text>
<text text-anchor="start" x="1619.21" y="-459.8" font-family="Arial" font-size="14.00" fill="#666666">[INTEGER]</text>
<polygon fill="none" stroke="black" points="1543.72,-416.8 1543.72,-447.6 1735.93,-447.6 1735.93,-416.8 1543.72,-416.8"/>
<text text-anchor="start" x="1550.72" y="-429" font-family="Arial" font-size="14.00">system_id </text>
<text text-anchor="start" x="1617.63" y="-429" font-family="Arial" font-size="14.00" fill="#666666">[INTEGER]</text>
</g>
<!-- release_system&#45;&gt;system -->
<g id="edge6" class="edge">
<title>release_system:system_id&#45;&gt;system:id</title>
<path fill="none" stroke="black" d="M1534.01,-426.8C1499.92,-386.6 1458.05,-135.6 1425.45,-135.6"/>
<polygon fill="black" stroke="black" points="1533.93,-426.75 1540.06,-435.85 1538.47,-429.57 1542.15,-431.85 1542.15,-431.85 1542.15,-431.85 1538.47,-429.57 1544.8,-428.2 1533.93,-426.75"/>
<text text-anchor="start" x="1549.72" y="-416.2" font-family="Arial" font-size="10.00">FOREIGN KEY (system_id) REFERENCES system (id) ON UPDATE NO ACTION ON DELETE CASCADE MATCH NONE</text>
</g>
</g>
</svg>
