<?xml version="1.0" encoding="UTF-8" standalone="no"?>
<!DOCTYPE svg PUBLIC "-//W3C//DTD SVG 1.1//EN"
 "http://www.w3.org/Graphics/SVG/1.1/DTD/svg11.dtd">
<!-- Generated by graphviz version 12.1.2 (20240928.0832)
 -->
<!-- Title: release_software_title Pages: 1 -->
<svg width="1707pt" height="668pt"
 viewBox="0.00 0.00 1707.40 667.60" xmlns="http://www.w3.org/2000/svg" xmlns:xlink="http://www.w3.org/1999/xlink">
<g id="graph0" class="graph" transform="scale(1 1) rotate(0) translate(4 663.6)">
<title>release_software_title</title>
<polygon fill="white" stroke="none" points="-4,4 -4,-663.6 1703.4,-663.6 1703.4,4 -4,4"/>
<!-- release_software_title -->
<g id="node1" class="node">
<title>release_software_title</title>
<polygon fill="#efefef" stroke="none" points="964.7,-577.8 964.7,-613.4 1205.87,-613.4 1205.87,-577.8 964.7,-577.8"/>
<polygon fill="none" stroke="black" points="964.7,-577.8 964.7,-613.4 1205.87,-613.4 1205.87,-577.8 964.7,-577.8"/>
<text text-anchor="start" x="971.7" y="-591.2" font-family="Arial Bold" font-size="18.00">release_software_title</text>
<text text-anchor="start" x="1129.62" y="-591.2" font-family="Arial" font-size="14.00">    </text>
<text text-anchor="start" x="1160.74" y="-591.2" font-family="Arial" font-size="14.00" fill="#666666">[table]</text>
<polygon fill="none" stroke="black" points="964.7,-547 964.7,-577.8 1205.87,-577.8 1205.87,-547 964.7,-547"/>
<text text-anchor="start" x="971.7" y="-559.2" font-family="Arial" font-size="14.00">release_id </text>
<text text-anchor="start" x="1040.19" y="-559.2" font-family="Arial" font-size="14.00" fill="#666666">[INTEGER]</text>
<polygon fill="none" stroke="black" points="964.7,-516.2 964.7,-547 1205.87,-547 1205.87,-516.2 964.7,-516.2"/>
<text text-anchor="start" x="971.7" y="-528.4" font-family="Arial" font-size="14.00">software_title_id </text>
<text text-anchor="start" x="1076.75" y="-528.4" font-family="Arial" font-size="14.00" fill="#666666">[INTEGER]</text>
<polygon fill="none" stroke="black" stroke-width="3" points="963.2,-514.7 963.2,-614.9 1207.37,-614.9 1207.37,-514.7 963.2,-514.7"/>
</g>
<!-- release -->
<g id="node2" class="node">
<title>release</title>
<polygon fill="#efefef" stroke="none" points="694.68,-339.8 694.68,-375.4 827.89,-375.4 827.89,-339.8 694.68,-339.8"/>
<polygon fill="none" stroke="black" points="694.68,-339.8 694.68,-375.4 827.89,-375.4 827.89,-339.8 694.68,-339.8"/>
<text text-anchor="start" x="701.68" y="-353.2" font-family="Arial Bold" font-size="18.00">release</text>
<text text-anchor="start" x="751.64" y="-353.2" font-family="Arial" font-size="14.00">    </text>
<text text-anchor="start" x="782.75" y="-353.2" font-family="Arial" font-size="14.00" fill="#666666">[table]</text>
<polygon fill="none" stroke="black" points="694.68,-309 694.68,-339.8 827.89,-339.8 827.89,-309 694.68,-309"/>
<text text-anchor="start" x="701.68" y="-321.2" font-family="Arial" font-size="14.00">id </text>
<text text-anchor="start" x="716.46" y="-321.2" font-family="Arial" font-size="14.00" fill="#666666">[INTEGER]</text>
<polygon fill="none" stroke="black" points="694.68,-278.2 694.68,-309 827.89,-309 827.89,-278.2 694.68,-278.2"/>
<text text-anchor="start" x="701.68" y="-290.4" font-family="Arial" font-size="14.00">name </text>
<text text-anchor="start" x="740.59" y="-290.4" font-family="Arial" font-size="14.00" fill="#666666">[TEXT]</text>
</g>
<!-- release_software_title&#45;&gt;release -->
<g id="edge1" class="edge">
<title>release_software_title:release_id&#45;&gt;release:id</title>
<path fill="none" stroke="black" d="M956.31,-555.28C927.84,-515.68 842.51,-324.4 828.89,-324.4"/>
<polygon fill="black" stroke="black" points="956.26,-555.23 960.33,-565.41 960.1,-558.93 963.21,-561.94 963.21,-561.94 963.21,-561.94 960.1,-558.93 966.58,-558.93 956.26,-555.23"/>
<text text-anchor="start" x="970.7" y="-572.4" font-family="Arial" font-size="10.00">FOREIGN KEY (release_id) REFERENCES release (id) ON UPDATE NO ACTION ON DELETE CASCADE MATCH NONE</text>
</g>
<!-- software_title -->
<g id="node5" class="node">
<title>software_title</title>
<polygon fill="#efefef" stroke="none" points="994.17,-355.2 994.17,-390.8 1176.39,-390.8 1176.39,-355.2 994.17,-355.2"/>
<polygon fill="none" stroke="black" points="994.17,-355.2 994.17,-390.8 1176.39,-390.8 1176.39,-355.2 994.17,-355.2"/>
<text text-anchor="start" x="1001.17" y="-368.6" font-family="Arial Bold" font-size="18.00">software_title</text>
<text text-anchor="start" x="1100.14" y="-368.6" font-family="Arial" font-size="14.00">    </text>
<text text-anchor="start" x="1131.26" y="-368.6" font-family="Arial" font-size="14.00" fill="#666666">[table]</text>
<polygon fill="none" stroke="black" points="994.17,-324.4 994.17,-355.2 1176.39,-355.2 1176.39,-324.4 994.17,-324.4"/>
<text text-anchor="start" x="1001.17" y="-336.6" font-family="Arial" font-size="14.00">id </text>
<text text-anchor="start" x="1015.96" y="-336.6" font-family="Arial" font-size="14.00" fill="#666666">[INTEGER]</text>
<polygon fill="none" stroke="black" points="994.17,-293.6 994.17,-324.4 1176.39,-324.4 1176.39,-293.6 994.17,-293.6"/>
<text text-anchor="start" x="1001.17" y="-305.8" font-family="Arial" font-size="14.00">name </text>
<text text-anchor="start" x="1040.08" y="-305.8" font-family="Arial" font-size="14.00" fill="#666666">[TEXT]</text>
<polygon fill="none" stroke="black" points="994.17,-262.8 994.17,-293.6 1176.39,-293.6 1176.39,-262.8 994.17,-262.8"/>
<text text-anchor="start" x="1001.17" y="-275" font-family="Arial" font-size="14.00">franchise_id </text>
<text text-anchor="start" x="1080.55" y="-275" font-family="Arial" font-size="14.00" fill="#666666">[INTEGER]</text>
</g>
<!-- release_software_title&#45;&gt;software_title -->
<g id="edge4" class="edge">
<title>release_software_title:software_title_id&#45;&gt;software_title:id</title>
<path fill="none" stroke="black" d="M1086.26,-504.84C1094.71,-463.76 1155.52,-479.91 1176.39,-434 1193.72,-395.89 1219.26,-339.8 1177.39,-339.8"/>
<polygon fill="black" stroke="black" points="1086.26,-504.91 1080.84,-514.44 1085.75,-510.22 1085.35,-514.53 1085.35,-514.53 1085.35,-514.53 1085.75,-510.22 1089.8,-515.29 1086.26,-504.91"/>
<text text-anchor="start" x="1092.28" y="-525.2" font-family="Arial" font-size="10.00">FOREIGN KEY (software_title_id) REFERENCES software_title (id) ON UPDATE NO ACTION ON DELETE CASCADE MATCH NONE</text>
</g>
<!-- release_file_set -->
<g id="node3" class="node">
<title>release_file_set</title>
<polygon fill="#efefef" stroke="none" points="365.69,-577.8 365.69,-613.4 560.88,-613.4 560.88,-577.8 365.69,-577.8"/>
<polygon fill="none" stroke="black" points="365.69,-577.8 365.69,-613.4 560.88,-613.4 560.88,-577.8 365.69,-577.8"/>
<text text-anchor="start" x="372.69" y="-591.2" font-family="Arial Bold" font-size="18.00">release_file_set</text>
<text text-anchor="start" x="484.63" y="-591.2" font-family="Arial" font-size="14.00">    </text>
<text text-anchor="start" x="515.74" y="-591.2" font-family="Arial" font-size="14.00" fill="#666666">[table]</text>
<polygon fill="none" stroke="black" points="365.69,-547 365.69,-577.8 560.88,-577.8 560.88,-547 365.69,-547"/>
<text text-anchor="start" x="372.69" y="-559.2" font-family="Arial" font-size="14.00">release_id </text>
<text text-anchor="start" x="441.18" y="-559.2" font-family="Arial" font-size="14.00" fill="#666666">[INTEGER]</text>
<polygon fill="none" stroke="black" points="365.69,-516.2 365.69,-547 560.88,-547 560.88,-516.2 365.69,-516.2"/>
<text text-anchor="start" x="372.69" y="-528.4" font-family="Arial" font-size="14.00">file_set_id </text>
<text text-anchor="start" x="439.62" y="-528.4" font-family="Arial" font-size="14.00" fill="#666666">[INTEGER]</text>
</g>
<!-- release_file_set&#45;&gt;release -->
<g id="edge2" class="edge">
<title>release_file_set:release_id&#45;&gt;release:id</title>
<path fill="none" stroke="black" d="M567.17,-553.65C591.6,-510.71 692.01,-324.4 693.68,-324.4"/>
<polygon fill="black" stroke="black" points="567.23,-553.56 558.2,-559.79 564.47,-558.12 562.23,-561.83 562.23,-561.83 562.23,-561.83 564.47,-558.12 565.9,-564.44 567.23,-553.56"/>
<text text-anchor="start" x="7" y="-572.4" font-family="Arial" font-size="10.00">FOREIGN KEY (release_id) REFERENCES release (id) ON UPDATE NO ACTION ON DELETE CASCADE MATCH NONE</text>
</g>
<!-- release_system -->
<g id="node4" class="node">
<title>release_system</title>
<polygon fill="#efefef" stroke="none" points="665.18,-577.8 665.18,-613.4 857.39,-613.4 857.39,-577.8 665.18,-577.8"/>
<polygon fill="none" stroke="black" points="665.18,-577.8 665.18,-613.4 857.39,-613.4 857.39,-577.8 665.18,-577.8"/>
<text text-anchor="start" x="672.18" y="-591.2" font-family="Arial Bold" font-size="18.00">release_system</text>
<text text-anchor="start" x="781.14" y="-591.2" font-family="Arial" font-size="14.00">    </text>
<text text-anchor="start" x="812.25" y="-591.2" font-family="Arial" font-size="14.00" fill="#666666">[table]</text>
<polygon fill="none" stroke="black" points="665.18,-547 665.18,-577.8 857.39,-577.8 857.39,-547 665.18,-547"/>
<text text-anchor="start" x="672.18" y="-559.2" font-family="Arial" font-size="14.00">release_id </text>
<text text-anchor="start" x="740.67" y="-559.2" font-family="Arial" font-size="14.00" fill="#666666">[INTEGER]</text>
<polygon fill="none" stroke="black" points="665.18,-516.2 665.18,-547 857.39,-547 857.39,-516.2 665.18,-516.2"/>
<text text-anchor="start" x="672.18" y="-528.4" font-family="Arial" font-size="14.00">system_id </text>
<text text-anchor="start" x="739.09" y="-528.4" font-family="Arial" font-size="14.00" fill="#666666">[INTEGER]</text>
</g>
<!-- release_system&#45;&gt;release -->
<g id="edge3" class="edge">
<title>release_system:release_id&#45;&gt;release:id</title>
<path fill="none" stroke="black" d="M867.93,-559.39C907.66,-531.84 878.65,-324.4 828.89,-324.4"/>
<polygon fill="black" stroke="black" points="868.25,-559.29 857.36,-558.01 863.16,-560.9 859.03,-562.2 859.03,-562.2 859.03,-562.2 863.16,-560.9 860.06,-566.59 868.25,-559.29"/>
<text text-anchor="start" x="865.39" y="-546.4" font-family="Arial" font-size="10.00">FOREIGN KEY (release_id) REFERENCES release (id) ON UPDATE NO ACTION ON DELETE CASCADE MATCH NONE</text>
</g>
<!-- franchise -->
<g id="node6" class="node">
<title>franchise</title>
<polygon fill="#efefef" stroke="none" points="1010.68,-104.8 1010.68,-140.4 1159.89,-140.4 1159.89,-104.8 1010.68,-104.8"/>
<polygon fill="none" stroke="black" points="1010.68,-104.8 1010.68,-140.4 1159.89,-140.4 1159.89,-104.8 1010.68,-104.8"/>
<text text-anchor="start" x="1017.68" y="-118.2" font-family="Arial Bold" font-size="18.00">franchise</text>
<text text-anchor="start" x="1083.64" y="-118.2" font-family="Arial" font-size="14.00">    </text>
<text text-anchor="start" x="1114.76" y="-118.2" font-family="Arial" font-size="14.00" fill="#666666">[table]</text>
<polygon fill="none" stroke="black" points="1010.68,-74 1010.68,-104.8 1159.89,-104.8 1159.89,-74 1010.68,-74"/>
<text text-anchor="start" x="1017.68" y="-86.2" font-family="Arial" font-size="14.00">id </text>
<text text-anchor="start" x="1032.46" y="-86.2" font-family="Arial" font-size="14.00" fill="#666666">[INTEGER]</text>
<polygon fill="none" stroke="black" points="1010.68,-43.2 1010.68,-74 1159.89,-74 1159.89,-43.2 1010.68,-43.2"/>
<text text-anchor="start" x="1017.68" y="-55.4" font-family="Arial" font-size="14.00">name </text>
<text text-anchor="start" x="1056.59" y="-55.4" font-family="Arial" font-size="14.00" fill="#666666">[TEXT]</text>
</g>
<!-- software_title&#45;&gt;franchise -->
<g id="edge5" class="edge">
<title>software_title:franchise_id&#45;&gt;franchise:id</title>
<path fill="none" stroke="black" d="M1086.27,-251.63C1093.88,-215.64 1143.21,-224.62 1159.89,-183.6 1175.67,-144.82 1202.76,-89.4 1160.89,-89.4"/>
<polygon fill="black" stroke="black" points="1086.29,-251.51 1080.84,-261.03 1085.77,-256.82 1085.35,-261.13 1085.35,-261.13 1085.35,-261.13 1085.77,-256.82 1089.8,-261.9 1086.29,-251.51"/>
<text text-anchor="start" x="1092.28" y="-271.8" font-family="Arial" font-size="10.00">FOREIGN KEY (franchise_id) REFERENCES franchise (id) ON UPDATE NO ACTION ON DELETE NO ACTION MATCH NONE</text>
</g>
</g>
</svg>
