<?xml version="1.0" encoding="UTF-8" standalone="no"?>
<!DOCTYPE svg PUBLIC "-//W3C//DTD SVG 1.1//EN"
 "http://www.w3.org/Graphics/SVG/1.1/DTD/svg11.dtd">
<!-- Generated by graphviz version 12.1.2 (20240928.0832)
 -->
<!-- Title: release Pages: 1 -->
<svg width="1849pt" height="504pt"
 viewBox="0.00 0.00 1848.77 503.60" xmlns="http://www.w3.org/2000/svg" xmlns:xlink="http://www.w3.org/1999/xlink">
<g id="graph0" class="graph" transform="scale(1 1) rotate(0) translate(4 499.6)">
<title>release</title>
<polygon fill="white" stroke="none" points="-4,4 -4,-499.6 1844.77,-499.6 1844.77,4 -4,4"/>
<!-- release -->
<g id="node1" class="node">
<title>release</title>
<polygon fill="#efefef" stroke="none" points="673.05,-151 673.05,-186.6 806.26,-186.6 806.26,-151 673.05,-151"/>
<polygon fill="none" stroke="black" points="673.05,-151 673.05,-186.6 806.26,-186.6 806.26,-151 673.05,-151"/>
<text text-anchor="start" x="680.05" y="-164.4" font-family="Arial Bold" font-size="18.00">release</text>
<text text-anchor="start" x="730.01" y="-164.4" font-family="Arial" font-size="14.00">    </text>
<text text-anchor="start" x="761.12" y="-164.4" font-family="Arial" font-size="14.00" fill="#666666">[table]</text>
<polygon fill="none" stroke="black" points="673.05,-120.2 673.05,-151 806.26,-151 806.26,-120.2 673.05,-120.2"/>
<text text-anchor="start" x="680.05" y="-132.4" font-family="Arial" font-size="14.00">id </text>
<text text-anchor="start" x="694.83" y="-132.4" font-family="Arial" font-size="14.00" fill="#666666">[INTEGER]</text>
<polygon fill="none" stroke="black" points="673.05,-89.4 673.05,-120.2 806.26,-120.2 806.26,-89.4 673.05,-89.4"/>
<text text-anchor="start" x="680.05" y="-101.6" font-family="Arial" font-size="14.00">name </text>
<text text-anchor="start" x="718.96" y="-101.6" font-family="Arial" font-size="14.00" fill="#666666">[TEXT]</text>
<polygon fill="none" stroke="black" stroke-width="3" points="671.55,-87.9 671.55,-188.1 807.76,-188.1 807.76,-87.9 671.55,-87.9"/>
</g>
<!-- release_file_set -->
<g id="node2" class="node">
<title>release_file_set</title>
<polygon fill="#efefef" stroke="none" points="462.06,-416.8 462.06,-452.4 657.25,-452.4 657.25,-416.8 462.06,-416.8"/>
<polygon fill="none" stroke="black" points="462.06,-416.8 462.06,-452.4 657.25,-452.4 657.25,-416.8 462.06,-416.8"/>
<text text-anchor="start" x="469.06" y="-430.2" font-family="Arial Bold" font-size="18.00">release_file_set</text>
<text text-anchor="start" x="581" y="-430.2" font-family="Arial" font-size="14.00">    </text>
<text text-anchor="start" x="612.11" y="-430.2" font-family="Arial" font-size="14.00" fill="#666666">[table]</text>
<polygon fill="none" stroke="black" points="462.06,-386 462.06,-416.8 657.25,-416.8 657.25,-386 462.06,-386"/>
<text text-anchor="start" x="469.06" y="-398.2" font-family="Arial" font-size="14.00">release_id </text>
<text text-anchor="start" x="537.55" y="-398.2" font-family="Arial" font-size="14.00" fill="#666666">[INTEGER]</text>
<polygon fill="none" stroke="black" points="462.06,-355.2 462.06,-386 657.25,-386 657.25,-355.2 462.06,-355.2"/>
<text text-anchor="start" x="469.06" y="-367.4" font-family="Arial" font-size="14.00">file_set_id </text>
<text text-anchor="start" x="535.99" y="-367.4" font-family="Arial" font-size="14.00" fill="#666666">[INTEGER]</text>
</g>
<!-- release_file_set&#45;&gt;release -->
<g id="edge1" class="edge">
<title>release_file_set:release_id&#45;&gt;release:id</title>
<path fill="none" stroke="black" d="M668.65,-400.59C762.54,-384.54 557.57,-135.6 672.05,-135.6"/>
<polygon fill="black" stroke="black" points="668.55,-400.6 658.23,-396.89 663.24,-401.01 658.92,-401.35 658.92,-401.35 658.92,-401.35 663.24,-401.01 658.93,-405.86 668.55,-400.6"/>
<text text-anchor="start" x="103.37" y="-411.4" font-family="Arial" font-size="10.00">FOREIGN KEY (release_id) REFERENCES release (id) ON UPDATE NO ACTION ON DELETE CASCADE MATCH NONE</text>
</g>
<!-- file_set -->
<g id="node3" class="node">
<title>file_set</title>
<polygon fill="#efefef" stroke="none" points="425.63,-197.2 425.63,-232.8 565.67,-232.8 565.67,-197.2 425.63,-197.2"/>
<polygon fill="none" stroke="black" points="425.63,-197.2 425.63,-232.8 565.67,-232.8 565.67,-197.2 425.63,-197.2"/>
<text text-anchor="start" x="434.54" y="-210.6" font-family="Arial Bold" font-size="18.00">file_set</text>
<text text-anchor="start" x="487.52" y="-210.6" font-family="Arial" font-size="14.00">    </text>
<text text-anchor="start" x="518.63" y="-210.6" font-family="Arial" font-size="14.00" fill="#666666">[table]</text>
<polygon fill="none" stroke="black" points="425.63,-166.4 425.63,-197.2 565.67,-197.2 565.67,-166.4 425.63,-166.4"/>
<text text-anchor="start" x="432.63" y="-178.6" font-family="Arial" font-size="14.00">id </text>
<text text-anchor="start" x="447.42" y="-178.6" font-family="Arial" font-size="14.00" fill="#666666">[INTEGER]</text>
<polygon fill="none" stroke="black" points="425.63,-135.6 425.63,-166.4 565.67,-166.4 565.67,-135.6 425.63,-135.6"/>
<text text-anchor="start" x="432.63" y="-147.8" font-family="Arial" font-size="14.00">file_name </text>
<text text-anchor="start" x="497.23" y="-147.8" font-family="Arial" font-size="14.00" fill="#666666">[TEXT]</text>
<polygon fill="none" stroke="black" points="425.63,-104.8 425.63,-135.6 565.67,-135.6 565.67,-104.8 425.63,-104.8"/>
<text text-anchor="start" x="432.63" y="-117" font-family="Arial" font-size="14.00">file_type </text>
<text text-anchor="start" x="488.67" y="-117" font-family="Arial" font-size="14.00" fill="#666666">[INTEGER]</text>
<polygon fill="none" stroke="black" points="425.63,-74 425.63,-104.8 565.67,-104.8 565.67,-74 425.63,-74"/>
<text text-anchor="start" x="432.63" y="-86.2" font-family="Arial" font-size="14.00">name </text>
<text text-anchor="start" x="471.54" y="-86.2" font-family="Arial" font-size="14.00" fill="#666666">[TEXT]</text>
<polygon fill="none" stroke="black" points="425.63,-43.2 425.63,-74 565.67,-74 565.67,-43.2 425.63,-43.2"/>
<text text-anchor="start" x="432.63" y="-55.4" font-family="Arial" font-size="14.00">source </text>
<text text-anchor="start" x="478.54" y="-55.4" font-family="Arial" font-size="14.00" fill="#666666">[TEXT]</text>
</g>
<!-- release_file_set&#45;&gt;file_set -->
<g id="edge2" class="edge">
<title>release_file_set:file_set_id&#45;&gt;file_set:id</title>
<path fill="none" stroke="black" d="M560.1,-344.22C566.55,-269.47 640.07,-181.8 566.67,-181.8"/>
<polygon fill="black" stroke="black" points="560.11,-343.88 555.17,-353.67 559.88,-349.2 559.68,-353.53 559.68,-353.53 559.68,-353.53 559.88,-349.2 564.16,-354.07 560.11,-343.88"/>
<text text-anchor="start" x="7" y="-364.2" font-family="Arial" font-size="10.00">FOREIGN KEY (file_set_id) REFERENCES file_set (id) ON UPDATE NO ACTION ON DELETE CASCADE MATCH NONE</text>
</g>
<!-- release_system -->
<g id="node4" class="node">
<title>release_system</title>
<polygon fill="#efefef" stroke="none" points="793.55,-416.8 793.55,-452.4 985.76,-452.4 985.76,-416.8 793.55,-416.8"/>
<polygon fill="none" stroke="black" points="793.55,-416.8 793.55,-452.4 985.76,-452.4 985.76,-416.8 793.55,-416.8"/>
<text text-anchor="start" x="800.55" y="-430.2" font-family="Arial Bold" font-size="18.00">release_system</text>
<text text-anchor="start" x="909.51" y="-430.2" font-family="Arial" font-size="14.00">    </text>
<text text-anchor="start" x="940.62" y="-430.2" font-family="Arial" font-size="14.00" fill="#666666">[table]</text>
<polygon fill="none" stroke="black" points="793.55,-386 793.55,-416.8 985.76,-416.8 985.76,-386 793.55,-386"/>
<text text-anchor="start" x="800.55" y="-398.2" font-family="Arial" font-size="14.00">release_id </text>
<text text-anchor="start" x="869.04" y="-398.2" font-family="Arial" font-size="14.00" fill="#666666">[INTEGER]</text>
<polygon fill="none" stroke="black" points="793.55,-355.2 793.55,-386 985.76,-386 985.76,-355.2 793.55,-355.2"/>
<text text-anchor="start" x="800.55" y="-367.4" font-family="Arial" font-size="14.00">system_id </text>
<text text-anchor="start" x="867.46" y="-367.4" font-family="Arial" font-size="14.00" fill="#666666">[INTEGER]</text>
</g>
<!-- release_system&#45;&gt;release -->
<g id="edge3" class="edge">
<title>release_system:release_id&#45;&gt;release:id</title>
<path fill="none" stroke="black" d="M782.24,-400.59C690.05,-384.54 921.76,-135.6 807.26,-135.6"/>
<polygon fill="black" stroke="black" points="782.25,-400.59 791.86,-405.86 787.56,-401.01 791.88,-401.35 791.88,-401.35 791.88,-401.35 787.56,-401.01 792.57,-396.89 782.25,-400.59"/>
<text text-anchor="start" x="659.08" y="-385.4" font-family="Arial" font-size="10.00">FOREIGN KEY (release_id) REFERENCES release (id) ON UPDATE NO ACTION ON DELETE CASCADE MATCH NONE</text>
</g>
<!-- system -->
<g id="node5" class="node">
<title>system</title>
<polygon fill="#efefef" stroke="none" points="914.03,-151 914.03,-186.6 1047.28,-186.6 1047.28,-151 914.03,-151"/>
<polygon fill="none" stroke="black" points="914.03,-151 914.03,-186.6 1047.28,-186.6 1047.28,-151 914.03,-151"/>
<text text-anchor="start" x="921.03" y="-164.4" font-family="Arial Bold" font-size="18.00">system</text>
<text text-anchor="start" x="971.03" y="-164.4" font-family="Arial" font-size="14.00">    </text>
<text text-anchor="start" x="1002.14" y="-164.4" font-family="Arial" font-size="14.00" fill="#666666">[table]</text>
<polygon fill="none" stroke="black" points="914.03,-120.2 914.03,-151 1047.28,-151 1047.28,-120.2 914.03,-120.2"/>
<text text-anchor="start" x="921.03" y="-132.4" font-family="Arial" font-size="14.00">id </text>
<text text-anchor="start" x="935.81" y="-132.4" font-family="Arial" font-size="14.00" fill="#666666">[INTEGER]</text>
<polygon fill="none" stroke="black" points="914.03,-89.4 914.03,-120.2 1047.28,-120.2 1047.28,-89.4 914.03,-89.4"/>
<text text-anchor="start" x="921.03" y="-101.6" font-family="Arial" font-size="14.00">name </text>
<text text-anchor="start" x="959.94" y="-101.6" font-family="Arial" font-size="14.00" fill="#666666">[TEXT]</text>
</g>
<!-- release_system&#45;&gt;system -->
<g id="edge4" class="edge">
<title>release_system:system_id&#45;&gt;system:id</title>
<path fill="none" stroke="black" d="M996.58,-367.79C1006.97,-359.11 993.51,-332.13 985.76,-312 968.35,-266.75 931.29,-275.11 914.03,-229.8 899.12,-190.68 871.16,-135.6 913.03,-135.6"/>
<polygon fill="black" stroke="black" points="996.7,-367.75 985.84,-366.18 991.57,-369.22 987.4,-370.42 987.4,-370.42 987.4,-370.42 991.57,-369.22 988.32,-374.83 996.7,-367.75"/>
<text text-anchor="start" x="713.95" y="-354.6" font-family="Arial" font-size="10.00">FOREIGN KEY (system_id) REFERENCES system (id) ON UPDATE NO ACTION ON DELETE CASCADE MATCH NONE</text>
</g>
<!-- release_software_title -->
<g id="node6" class="node">
<title>release_software_title</title>
<polygon fill="#efefef" stroke="none" points="1106.07,-416.8 1106.07,-452.4 1347.24,-452.4 1347.24,-416.8 1106.07,-416.8"/>
<polygon fill="none" stroke="black" points="1106.07,-416.8 1106.07,-452.4 1347.24,-452.4 1347.24,-416.8 1106.07,-416.8"/>
<text text-anchor="start" x="1113.07" y="-430.2" font-family="Arial Bold" font-size="18.00">release_software_title</text>
<text text-anchor="start" x="1270.99" y="-430.2" font-family="Arial" font-size="14.00">    </text>
<text text-anchor="start" x="1302.1" y="-430.2" font-family="Arial" font-size="14.00" fill="#666666">[table]</text>
<polygon fill="none" stroke="black" points="1106.07,-386 1106.07,-416.8 1347.24,-416.8 1347.24,-386 1106.07,-386"/>
<text text-anchor="start" x="1113.07" y="-398.2" font-family="Arial" font-size="14.00">release_id </text>
<text text-anchor="start" x="1181.56" y="-398.2" font-family="Arial" font-size="14.00" fill="#666666">[INTEGER]</text>
<polygon fill="none" stroke="black" points="1106.07,-355.2 1106.07,-386 1347.24,-386 1347.24,-355.2 1106.07,-355.2"/>
<text text-anchor="start" x="1113.07" y="-367.4" font-family="Arial" font-size="14.00">software_title_id </text>
<text text-anchor="start" x="1218.12" y="-367.4" font-family="Arial" font-size="14.00" fill="#666666">[INTEGER]</text>
</g>
<!-- release_software_title&#45;&gt;release -->
<g id="edge5" class="edge">
<title>release_software_title:release_id&#45;&gt;release:id</title>
<path fill="none" stroke="black" d="M1094.69,-400.3C1058.71,-391.8 1076.44,-336.49 1037.65,-312 970.15,-269.37 922.64,-327.53 861.65,-276 810.54,-232.81 874.18,-135.6 807.26,-135.6"/>
<polygon fill="black" stroke="black" points="1094.79,-400.31 1104.26,-405.84 1100.09,-400.87 1104.4,-401.33 1104.4,-401.33 1104.4,-401.33 1100.09,-400.87 1105.21,-396.89 1094.79,-400.31"/>
<text text-anchor="start" x="1112.07" y="-411.4" font-family="Arial" font-size="10.00">FOREIGN KEY (release_id) REFERENCES release (id) ON UPDATE NO ACTION ON DELETE CASCADE MATCH NONE</text>
</g>
<!-- software_title -->
<g id="node7" class="node">
<title>software_title</title>
<polygon fill="#efefef" stroke="none" points="1151.54,-166.4 1151.54,-202 1333.76,-202 1333.76,-166.4 1151.54,-166.4"/>
<polygon fill="none" stroke="black" points="1151.54,-166.4 1151.54,-202 1333.76,-202 1333.76,-166.4 1151.54,-166.4"/>
<text text-anchor="start" x="1158.54" y="-179.8" font-family="Arial Bold" font-size="18.00">software_title</text>
<text text-anchor="start" x="1257.51" y="-179.8" font-family="Arial" font-size="14.00">    </text>
<text text-anchor="start" x="1288.63" y="-179.8" font-family="Arial" font-size="14.00" fill="#666666">[table]</text>
<polygon fill="none" stroke="black" points="1151.54,-135.6 1151.54,-166.4 1333.76,-166.4 1333.76,-135.6 1151.54,-135.6"/>
<text text-anchor="start" x="1158.54" y="-147.8" font-family="Arial" font-size="14.00">id </text>
<text text-anchor="start" x="1173.33" y="-147.8" font-family="Arial" font-size="14.00" fill="#666666">[INTEGER]</text>
<polygon fill="none" stroke="black" points="1151.54,-104.8 1151.54,-135.6 1333.76,-135.6 1333.76,-104.8 1151.54,-104.8"/>
<text text-anchor="start" x="1158.54" y="-117" font-family="Arial" font-size="14.00">name </text>
<text text-anchor="start" x="1197.45" y="-117" font-family="Arial" font-size="14.00" fill="#666666">[TEXT]</text>
<polygon fill="none" stroke="black" points="1151.54,-74 1151.54,-104.8 1333.76,-104.8 1333.76,-74 1151.54,-74"/>
<text text-anchor="start" x="1158.54" y="-86.2" font-family="Arial" font-size="14.00">franchise_id </text>
<text text-anchor="start" x="1237.92" y="-86.2" font-family="Arial" font-size="14.00" fill="#666666">[INTEGER]</text>
</g>
<!-- release_software_title&#45;&gt;software_title -->
<g id="edge6" class="edge">
<title>release_software_title:software_title_id&#45;&gt;software_title:id</title>
<path fill="none" stroke="black" d="M1226.01,-343.9C1219.64,-295.86 1168.21,-297.78 1151.54,-245.2 1138.89,-205.29 1108.68,-151 1150.54,-151"/>
<polygon fill="black" stroke="black" points="1226.01,-343.89 1222.14,-354.15 1226.34,-349.21 1226.61,-353.53 1226.61,-353.53 1226.61,-353.53 1226.34,-349.21 1231.12,-353.58 1226.01,-343.89"/>
<text text-anchor="start" x="1233.65" y="-364.2" font-family="Arial" font-size="10.00">FOREIGN KEY (software_title_id) REFERENCES software_title (id) ON UPDATE NO ACTION ON DELETE CASCADE MATCH NONE</text>
</g>
</g>
</svg>
