<?xml version="1.0" encoding="UTF-8" standalone="no"?>
<!DOCTYPE svg PUBLIC "-//W3C//DTD SVG 1.1//EN"
 "http://www.w3.org/Graphics/SVG/1.1/DTD/svg11.dtd">
<!-- Generated by graphviz version 2.43.0 (0)
 -->
<!-- Title: MassImport Pages: 1 -->
<svg width="1812pt" height="1564pt"
 viewBox="0.00 0.00 1812.00 1563.51" xmlns="http://www.w3.org/2000/svg" xmlns:xlink="http://www.w3.org/1999/xlink">
<g id="graph0" class="graph" transform="scale(1 1) rotate(0) translate(4 1559.51)">
<title>MassImport</title>
<polygon fill="white" stroke="transparent" points="-4,4 -4,-1559.51 1808,-1559.51 1808,4 -4,4"/>
<g id="clust1" class="cluster">
<title>cluster_ui</title>
<polygon fill="#e8f4f8" stroke="#4a90d9" points="8,-1210 8,-1547.51 489,-1547.51 489,-1210 8,-1210"/>
<text text-anchor="middle" x="248.5" y="-1533.11" font-family="Times,serif" font-size="13.00">relm4&#45;ui &#160;(GTK4 / relm4)</text>
</g>
<g id="clust2" class="cluster">
<title>cluster_service</title>
<polygon fill="#edf7ed" stroke="#4caf50" points="497,-8 497,-1310 1031,-1310 1031,-8 497,-8"/>
<text text-anchor="middle" x="764" y="-1295.6" font-family="Times,serif" font-size="13.00">service crate</text>
</g>
<g id="clust3" class="cluster">
<title>cluster_mass_pipeline</title>
<polygon fill="#f1f8f1" stroke="#81c784" points="623,-555 623,-1191 871,-1191 871,-555 623,-555"/>
<text text-anchor="middle" x="747" y="-1177.4" font-family="Times,serif" font-size="12.00">Pipeline&lt;DatFileMassImportContext&gt;</text>
</g>
<g id="clust4" class="cluster">
<title>cluster_add_pipeline</title>
<polygon fill="#f5f5ff" stroke="#7c4dff" points="770,-16 770,-526 978,-526 978,-16 770,-16"/>
<text text-anchor="middle" x="874" y="-512.4" font-family="Times,serif" font-size="12.00">Pipeline&lt;AddFileSetContext&gt;</text>
<text text-anchor="middle" x="874" y="-499.4" font-family="Times,serif" font-size="12.00">(called once per file set)</text>
</g>
<g id="clust5" class="cluster">
<title>cluster_infra</title>
<polygon fill="#fef9e7" stroke="#f39c12" points="1039,-12 1039,-116 1720,-116 1720,-12 1039,-12"/>
<text text-anchor="middle" x="1379.5" y="-101.6" font-family="Times,serif" font-size="13.00">Infrastructure</text>
</g>
<!-- ImportForm -->
<g id="node1" class="node">
<title>ImportForm</title>
<polygon fill="#b3d9f2" stroke="black" points="104.5,-1490.88 15.5,-1490.88 15.5,-1454.88 104.5,-1454.88 104.5,-1490.88"/>
<text text-anchor="middle" x="60" y="-1476.08" font-family="Helvetica,sans-Serif" font-size="11.00">ImportForm</text>
<text text-anchor="middle" x="60" y="-1464.08" font-family="Helvetica,sans-Serif" font-size="11.00">(Component)</text>
</g>
<!-- StartImport -->
<g id="node2" class="node">
<title>StartImport</title>
<ellipse fill="#d0eaf8" stroke="black" cx="102" cy="-1380.63" rx="56.64" ry="22.76"/>
<text text-anchor="middle" x="102" y="-1383.83" font-family="Helvetica,sans-Serif" font-size="11.00">StartImport</text>
<text text-anchor="middle" x="102" y="-1371.83" font-family="Helvetica,sans-Serif" font-size="11.00">(msg)</text>
</g>
<!-- ImportForm&#45;&gt;StartImport -->
<g id="edge12" class="edge">
<title>ImportForm&#45;&gt;StartImport</title>
<path fill="none" stroke="black" d="M68.1,-1454.48C73.64,-1442.58 81.13,-1426.47 87.67,-1412.43"/>
<polygon fill="black" stroke="black" points="90.95,-1413.66 92,-1403.12 84.61,-1410.71 90.95,-1413.66"/>
<text text-anchor="middle" x="110" y="-1424.25" font-family="Helvetica,sans-Serif" font-size="10.00">user clicks</text>
</g>
<!-- MassImportInput -->
<g id="node3" class="node">
<title>MassImportInput</title>
<polygon fill="#fffbe6" stroke="black" points="174,-1262 24,-1262 24,-1218 180,-1218 180,-1256 174,-1262"/>
<polyline fill="none" stroke="black" points="174,-1262 174,-1256 "/>
<polyline fill="none" stroke="black" points="180,-1256 174,-1256 "/>
<text text-anchor="middle" x="102" y="-1249.2" font-family="Helvetica,sans-Serif" font-size="11.00">MassImportInput</text>
<text text-anchor="middle" x="102" y="-1237.2" font-family="Helvetica,sans-Serif" font-size="11.00">{source_path, file_type,</text>
<text text-anchor="middle" x="102" y="-1225.2" font-family="Helvetica,sans-Serif" font-size="11.00">dat_file_path, system_id}</text>
</g>
<!-- StartImport&#45;&gt;MassImportInput -->
<g id="edge13" class="edge">
<title>StartImport&#45;&gt;MassImportInput</title>
<path fill="none" stroke="black" d="M102,-1357.97C102,-1334.94 102,-1298.32 102,-1272.19"/>
<polygon fill="black" stroke="black" points="105.5,-1272.05 102,-1262.05 98.5,-1272.05 105.5,-1272.05"/>
<text text-anchor="middle" x="117" y="-1326.5" font-family="Helvetica,sans-Serif" font-size="10.00">builds</text>
</g>
<!-- MassImportService -->
<g id="node6" class="node">
<title>MassImportService</title>
<polygon fill="#b2dfdb" stroke="black" points="627,-1258 505,-1258 505,-1222 627,-1222 627,-1258"/>
<text text-anchor="middle" x="566" y="-1243.2" font-family="Helvetica,sans-Serif" font-size="11.00">MassImportService</text>
<text text-anchor="middle" x="566" y="-1231.2" font-family="Helvetica,sans-Serif" font-size="11.00">import_with_dat()</text>
</g>
<!-- StartImport&#45;&gt;MassImportService -->
<g id="edge14" class="edge">
<title>StartImport&#45;&gt;MassImportService</title>
<path fill="none" stroke="black" d="M136.34,-1362.43C167.87,-1347.59 216.34,-1327.15 261,-1318 286.27,-1312.82 469.2,-1319.95 493,-1310 514.92,-1300.84 534.19,-1281.88 547.42,-1266.15"/>
<polygon fill="black" stroke="black" points="550.2,-1268.27 553.76,-1258.29 544.76,-1263.87 550.2,-1268.27"/>
<text text-anchor="middle" x="317.5" y="-1326.5" font-family="Helvetica,sans-Serif" font-size="10.00">calls import_with_dat()</text>
</g>
<!-- StartImport&#45;&gt;MassImportService -->
<g id="edge15" class="edge">
<title>StartImport&#45;&gt;MassImportService</title>
<path fill="none" stroke="#888888" stroke-dasharray="5,2" d="M158.11,-1377.47C214.11,-1373.93 301.97,-1364.6 374,-1340 392.83,-1333.57 394.03,-1324.01 413,-1318 447.07,-1307.21 460.5,-1324.85 493,-1310 514.48,-1300.19 533.66,-1281.46 546.96,-1265.98"/>
<polygon fill="#888888" stroke="#888888" points="549.68,-1268.18 553.36,-1258.25 544.29,-1263.72 549.68,-1268.18"/>
<text text-anchor="middle" x="449.5" y="-1332" font-family="Helvetica,sans-Serif" font-size="10.00">progress_tx</text>
<text text-anchor="middle" x="449.5" y="-1321" font-family="Helvetica,sans-Serif" font-size="10.00">(flume Sender)</text>
</g>
<!-- SyncEvent -->
<g id="node4" class="node">
<title>SyncEvent</title>
<ellipse fill="#d0eaf8" stroke="black" cx="286" cy="-1472.88" rx="84.71" ry="22.76"/>
<text text-anchor="middle" x="286" y="-1476.08" font-family="Helvetica,sans-Serif" font-size="11.00">ProcessSyncEvent</text>
<text text-anchor="middle" x="286" y="-1464.08" font-family="Helvetica,sans-Serif" font-size="11.00">(progress channel)</text>
</g>
<!-- SyncEvent&#45;&gt;ImportForm -->
<g id="edge17" class="edge">
<title>SyncEvent&#45;&gt;ImportForm</title>
<path fill="none" stroke="#888888" stroke-dasharray="5,2" d="M200.73,-1472.88C172,-1472.88 140.72,-1472.88 114.96,-1472.88"/>
<polygon fill="#888888" stroke="#888888" points="114.65,-1469.38 104.65,-1472.88 114.65,-1476.38 114.65,-1469.38"/>
<text text-anchor="middle" x="152.82" y="-1478.88" font-family="Helvetica,sans-Serif" font-size="10.00">progress update</text>
</g>
<!-- ImportResults -->
<g id="node5" class="node">
<title>ImportResults</title>
<polygon fill="#b3d9f2" stroke="black" points="481.5,-1490.88 388.5,-1490.88 388.5,-1454.88 481.5,-1454.88 481.5,-1490.88"/>
<text text-anchor="middle" x="435" y="-1476.08" font-family="Helvetica,sans-Serif" font-size="11.00">ImportResults</text>
<text text-anchor="middle" x="435" y="-1464.08" font-family="Helvetica,sans-Serif" font-size="11.00">(Component)</text>
</g>
<!-- MassImportService&#45;&gt;ImportResults -->
<g id="edge18" class="edge">
<title>MassImportService&#45;&gt;ImportResults</title>
<path fill="none" stroke="black" d="M556.22,-1258.24C533.47,-1298.34 476.88,-1398.07 449.84,-1445.73"/>
<polygon fill="black" stroke="black" points="446.74,-1444.1 444.85,-1454.53 452.83,-1447.56 446.74,-1444.1"/>
<text text-anchor="middle" x="560" y="-1383.63" font-family="Helvetica,sans-Serif" font-size="10.00">DatFileMassImportResult</text>
<text text-anchor="middle" x="560" y="-1372.63" font-family="Helvetica,sans-Serif" font-size="10.00">(on completion)</text>
</g>
<!-- S1 -->
<g id="node7" class="node">
<title>S1</title>
<polygon fill="#ffffff" stroke="black" points="842.5,-1141 713.5,-1141 713.5,-1105 842.5,-1105 842.5,-1141"/>
<text text-anchor="middle" x="778" y="-1126.2" font-family="Helvetica,sans-Serif" font-size="11.00">1. ImportDatFileStep</text>
<text text-anchor="middle" x="778" y="-1114.2" font-family="Helvetica,sans-Serif" font-size="11.00">parse DAT file</text>
</g>
<!-- MassImportService&#45;&gt;S1 -->
<g id="edge19" class="edge">
<title>MassImportService&#45;&gt;S1</title>
<path fill="none" stroke="black" d="M588.02,-1221.94C598.11,-1214.47 610.38,-1205.87 622,-1199 656.34,-1178.69 697.02,-1159.27 728.23,-1145.28"/>
<polygon fill="black" stroke="black" points="729.87,-1148.38 737.59,-1141.12 727.03,-1141.99 729.87,-1148.38"/>
</g>
<!-- S2 -->
<g id="node8" class="node">
<title>S2</title>
<polygon fill="#ffffff" stroke="black" points="863,-1068 693,-1068 693,-1032 863,-1032 863,-1068"/>
<text text-anchor="middle" x="778" y="-1053.2" font-family="Helvetica,sans-Serif" font-size="11.00">2. CheckExistingDatFileStep</text>
<text text-anchor="middle" x="778" y="-1041.2" font-family="Helvetica,sans-Serif" font-size="11.00">look up DAT in DB</text>
</g>
<!-- S1&#45;&gt;S2 -->
<g id="edge1" class="edge">
<title>S1&#45;&gt;S2</title>
<path fill="none" stroke="black" d="M778,-1104.81C778,-1096.79 778,-1087.05 778,-1078.07"/>
<polygon fill="black" stroke="black" points="781.5,-1078.03 778,-1068.03 774.5,-1078.03 781.5,-1078.03"/>
</g>
<!-- DatParser -->
<g id="node24" class="node">
<title>DatParser</title>
<polygon fill="#fdebd0" stroke="black" points="1712,-60 1602,-60 1602,-56 1598,-56 1598,-52 1602,-52 1602,-32 1598,-32 1598,-28 1602,-28 1602,-24 1712,-24 1712,-60"/>
<polyline fill="none" stroke="black" points="1602,-56 1606,-56 1606,-52 1602,-52 "/>
<polyline fill="none" stroke="black" points="1602,-32 1606,-32 1606,-28 1602,-28 "/>
<text text-anchor="middle" x="1657" y="-45.2" font-family="Helvetica,sans-Serif" font-size="11.00">DatFileParserOps</text>
<text text-anchor="middle" x="1657" y="-33.2" font-family="Helvetica,sans-Serif" font-size="11.00">parse_dat_file()</text>
</g>
<!-- S1&#45;&gt;DatParser -->
<g id="edge20" class="edge">
<title>S1&#45;&gt;DatParser</title>
<path fill="none" stroke="black" stroke-dasharray="5,2" d="M842.84,-1120.14C1045.73,-1113.89 1655,-1091.74 1655,-1051 1655,-1051 1655,-1051 1655,-192 1655,-149.6 1655.82,-100.43 1656.41,-70.53"/>
<polygon fill="black" stroke="black" points="1659.91,-70.5 1656.61,-60.43 1652.91,-70.36 1659.91,-70.5"/>
<text text-anchor="middle" x="1693" y="-661.5" font-family="Helvetica,sans-Serif" font-size="10.00">parse_dat_file()</text>
</g>
<!-- S3 -->
<g id="node9" class="node">
<title>S3</title>
<polygon fill="#ffffff" stroke="black" points="852,-974 730,-974 730,-938 852,-938 852,-974"/>
<text text-anchor="middle" x="791" y="-959.2" font-family="Helvetica,sans-Serif" font-size="11.00">3. StoreDatFileStep</text>
<text text-anchor="middle" x="791" y="-947.2" font-family="Helvetica,sans-Serif" font-size="11.00">write DAT to DB</text>
</g>
<!-- S2&#45;&gt;S3 -->
<g id="edge2" class="edge">
<title>S2&#45;&gt;S3</title>
<path fill="none" stroke="black" d="M780.45,-1031.7C782.33,-1018.33 784.98,-999.59 787.15,-984.22"/>
<polygon fill="black" stroke="black" points="790.63,-984.62 788.57,-974.23 783.7,-983.64 790.63,-984.62"/>
</g>
<!-- RepoDB -->
<g id="node27" class="node">
<title>RepoDB</title>
<path fill="#f9e4b7" stroke="black" d="M1336.5,-60C1336.5,-62.21 1300.42,-64 1256,-64 1211.58,-64 1175.5,-62.21 1175.5,-60 1175.5,-60 1175.5,-24 1175.5,-24 1175.5,-21.79 1211.58,-20 1256,-20 1300.42,-20 1336.5,-21.79 1336.5,-24 1336.5,-24 1336.5,-60 1336.5,-60"/>
<path fill="none" stroke="black" d="M1336.5,-60C1336.5,-57.79 1300.42,-56 1256,-56 1211.58,-56 1175.5,-57.79 1175.5,-60"/>
<text text-anchor="middle" x="1256" y="-45.2" font-family="Helvetica,sans-Serif" font-size="11.00">RepositoryManager</text>
<text text-anchor="middle" x="1256" y="-33.2" font-family="Helvetica,sans-Serif" font-size="11.00">→ SQLite (database crate)</text>
</g>
<!-- S2&#45;&gt;RepoDB -->
<g id="edge21" class="edge">
<title>S2&#45;&gt;RepoDB</title>
<path fill="none" stroke="black" stroke-dasharray="5,2" d="M863.08,-1047.29C1059.13,-1042.2 1526,-1023.16 1526,-957 1526,-957 1526,-957 1526,-192 1526,-105.16 1420.46,-160.68 1346,-116 1324.65,-103.19 1302.91,-85.71 1286.15,-71.06"/>
<polygon fill="black" stroke="black" points="1288.14,-68.15 1278.34,-64.13 1283.5,-73.39 1288.14,-68.15"/>
<text text-anchor="middle" x="1582" y="-620" font-family="Helvetica,sans-Serif" font-size="10.00">check_dat_file_exists()</text>
</g>
<!-- S4 -->
<g id="node10" class="node">
<title>S4</title>
<polygon fill="#ffffff" stroke="black" points="859,-901 723,-901 723,-865 859,-865 859,-901"/>
<text text-anchor="middle" x="791" y="-886.2" font-family="Helvetica,sans-Serif" font-size="11.00">4. ReadFilesStep</text>
<text text-anchor="middle" x="791" y="-874.2" font-family="Helvetica,sans-Serif" font-size="11.00">scan source directory</text>
</g>
<!-- S3&#45;&gt;S4 -->
<g id="edge3" class="edge">
<title>S3&#45;&gt;S4</title>
<path fill="none" stroke="black" d="M791,-937.81C791,-929.79 791,-920.05 791,-911.07"/>
<polygon fill="black" stroke="black" points="794.5,-911.03 791,-901.03 787.5,-911.03 794.5,-911.03"/>
</g>
<!-- DatFileService -->
<g id="node21" class="node">
<title>DatFileService</title>
<polygon fill="#b2dfdb" stroke="black" points="997.5,-901 898.5,-901 898.5,-865 997.5,-865 997.5,-901"/>
<text text-anchor="middle" x="948" y="-886.2" font-family="Helvetica,sans-Serif" font-size="11.00">DatFileService</text>
<text text-anchor="middle" x="948" y="-874.2" font-family="Helvetica,sans-Serif" font-size="11.00">store_dat_file()</text>
</g>
<!-- S3&#45;&gt;DatFileService -->
<g id="edge22" class="edge">
<title>S3&#45;&gt;DatFileService</title>
<path fill="none" stroke="black" stroke-dasharray="5,2" d="M828.61,-937.99C850.29,-928.19 877.76,-915.77 900.88,-905.31"/>
<polygon fill="black" stroke="black" points="902.49,-908.42 910.16,-901.11 899.6,-902.05 902.49,-908.42"/>
</g>
<!-- S5 -->
<g id="node11" class="node">
<title>S5</title>
<polygon fill="#ffffff" stroke="black" points="863,-828 709,-828 709,-792 863,-792 863,-828"/>
<text text-anchor="middle" x="786" y="-813.2" font-family="Helvetica,sans-Serif" font-size="11.00">5. ReadFileMetadataStep</text>
<text text-anchor="middle" x="786" y="-801.2" font-family="Helvetica,sans-Serif" font-size="11.00">read SHA1 / file size</text>
</g>
<!-- S4&#45;&gt;S5 -->
<g id="edge4" class="edge">
<title>S4&#45;&gt;S5</title>
<path fill="none" stroke="black" d="M789.79,-864.81C789.22,-856.79 788.54,-847.05 787.91,-838.07"/>
<polygon fill="black" stroke="black" points="791.39,-837.76 787.2,-828.03 784.41,-838.25 791.39,-837.76"/>
</g>
<!-- FileSystem -->
<g id="node23" class="node">
<title>FileSystem</title>
<polygon fill="#fdebd0" stroke="black" points="1584,-60 1581,-64 1560,-64 1557,-60 1486,-60 1486,-24 1584,-24 1584,-60"/>
<text text-anchor="middle" x="1535" y="-45.2" font-family="Helvetica,sans-Serif" font-size="11.00">FileSystemOps</text>
<text text-anchor="middle" x="1535" y="-33.2" font-family="Helvetica,sans-Serif" font-size="11.00">read_dir()</text>
</g>
<!-- S4&#45;&gt;FileSystem -->
<g id="edge24" class="edge">
<title>S4&#45;&gt;FileSystem</title>
<path fill="none" stroke="black" stroke-dasharray="5,2" d="M859.17,-865.65C860.45,-865.42 861.73,-865.21 863,-865 929.07,-854.28 1463,-877.94 1463,-811 1463,-811 1463,-811 1463,-192 1463,-144.61 1492.89,-96.44 1514.15,-68.16"/>
<polygon fill="black" stroke="black" points="1517.08,-70.1 1520.43,-60.05 1511.54,-65.81 1517.08,-70.1"/>
<text text-anchor="middle" x="1487" y="-537" font-family="Helvetica,sans-Serif" font-size="10.00">read_dir()</text>
</g>
<!-- S6 -->
<g id="node12" class="node">
<title>S6</title>
<polygon fill="#ffffff" stroke="black" points="863,-755 695,-755 695,-719 863,-719 863,-755"/>
<text text-anchor="middle" x="779" y="-740.2" font-family="Helvetica,sans-Serif" font-size="11.00">6. FilterExistingFileSetsStep</text>
<text text-anchor="middle" x="779" y="-728.2" font-family="Helvetica,sans-Serif" font-size="11.00">check which files are new</text>
</g>
<!-- S5&#45;&gt;S6 -->
<g id="edge5" class="edge">
<title>S5&#45;&gt;S6</title>
<path fill="none" stroke="black" d="M784.31,-791.81C783.51,-783.79 782.55,-774.05 781.67,-765.07"/>
<polygon fill="black" stroke="black" points="785.14,-764.64 780.68,-755.03 778.18,-765.32 785.14,-764.64"/>
</g>
<!-- MetaReader -->
<g id="node25" class="node">
<title>MetaReader</title>
<polygon fill="#fdebd0" stroke="black" points="1467.5,-60 1354.5,-60 1354.5,-56 1350.5,-56 1350.5,-52 1354.5,-52 1354.5,-32 1350.5,-32 1350.5,-28 1354.5,-28 1354.5,-24 1467.5,-24 1467.5,-60"/>
<polyline fill="none" stroke="black" points="1354.5,-56 1358.5,-56 1358.5,-52 1354.5,-52 "/>
<polyline fill="none" stroke="black" points="1354.5,-32 1358.5,-32 1358.5,-28 1354.5,-28 "/>
<text text-anchor="middle" x="1411" y="-45.2" font-family="Helvetica,sans-Serif" font-size="11.00">MetadataReader</text>
<text text-anchor="middle" x="1411" y="-33.2" font-family="Helvetica,sans-Serif" font-size="11.00">(SHA1 + file size)</text>
</g>
<!-- S5&#45;&gt;MetaReader -->
<g id="edge25" class="edge">
<title>S5&#45;&gt;MetaReader</title>
<path fill="none" stroke="black" stroke-dasharray="5,2" d="M863.25,-807.33C1020.07,-802.9 1361,-787.57 1361,-738 1361,-738 1361,-738 1361,-192 1361,-147.14 1381.62,-98.44 1396.38,-69.34"/>
<polygon fill="black" stroke="black" points="1399.6,-70.74 1401.12,-60.26 1393.39,-67.5 1399.6,-70.74"/>
<text text-anchor="middle" x="1398" y="-429.5" font-family="Helvetica,sans-Serif" font-size="10.00">read SHA1/size</text>
</g>
<!-- S7 -->
<g id="node13" class="node">
<title>S7</title>
<polygon fill="#ffffff" stroke="black" points="840,-682 706,-682 706,-646 840,-646 840,-682"/>
<text text-anchor="middle" x="773" y="-667.2" font-family="Helvetica,sans-Serif" font-size="11.00">7. ImportFileSetsStep</text>
<text text-anchor="middle" x="773" y="-655.2" font-family="Helvetica,sans-Serif" font-size="11.00">create new file sets</text>
</g>
<!-- S6&#45;&gt;S7 -->
<g id="edge6" class="edge">
<title>S6&#45;&gt;S7</title>
<path fill="none" stroke="black" d="M777.55,-718.81C776.87,-710.79 776.05,-701.05 775.29,-692.07"/>
<polygon fill="black" stroke="black" points="778.77,-691.7 774.44,-682.03 771.79,-692.29 778.77,-691.7"/>
</g>
<!-- DatGameStatus -->
<g id="node22" class="node">
<title>DatGameStatus</title>
<polygon fill="#b2dfdb" stroke="black" points="1023,-682 879,-682 879,-646 1023,-646 1023,-682"/>
<text text-anchor="middle" x="951" y="-667.2" font-family="Helvetica,sans-Serif" font-size="11.00">DatGameStatusService</text>
<text text-anchor="middle" x="951" y="-655.2" font-family="Helvetica,sans-Serif" font-size="11.00">check game status</text>
</g>
<!-- S6&#45;&gt;DatGameStatus -->
<g id="edge26" class="edge">
<title>S6&#45;&gt;DatGameStatus</title>
<path fill="none" stroke="black" stroke-dasharray="5,2" d="M820.2,-718.99C844.17,-709.1 874.58,-696.54 900.05,-686.03"/>
<polygon fill="black" stroke="black" points="901.63,-689.16 909.54,-682.11 898.96,-682.69 901.63,-689.16"/>
</g>
<!-- S7&#45;&gt;SyncEvent -->
<g id="edge16" class="edge">
<title>S7&#45;&gt;SyncEvent</title>
<path fill="none" stroke="#888888" stroke-dasharray="5,2" d="M840.22,-681.32C841.49,-681.56 842.75,-681.78 844,-682 1025.71,-713.65 1545.93,-635.61 1669,-773 1762.11,-876.95 1752.14,-974.91 1669,-1087 1380.42,-1476.05 1096.33,-1287.36 626,-1403.25 517.92,-1429.89 488.92,-1427.33 380,-1450.25 372.76,-1451.78 365.23,-1453.42 357.71,-1455.09"/>
<polygon fill="#888888" stroke="#888888" points="356.86,-1451.7 347.87,-1457.3 358.39,-1458.53 356.86,-1451.7"/>
<text text-anchor="middle" x="1763" y="-1006" font-family="Helvetica,sans-Serif" font-size="10.00">sender_tx.send()</text>
<text text-anchor="middle" x="1763" y="-995" font-family="Helvetica,sans-Serif" font-size="10.00">per file set</text>
</g>
<!-- S8 -->
<g id="node14" class="node">
<title>S8</title>
<polygon fill="#ffffff" stroke="black" points="862.5,-599 683.5,-599 683.5,-563 862.5,-563 862.5,-599"/>
<text text-anchor="middle" x="773" y="-584.2" font-family="Helvetica,sans-Serif" font-size="11.00">8. HandleExistingFileSetsStep</text>
<text text-anchor="middle" x="773" y="-572.2" font-family="Helvetica,sans-Serif" font-size="11.00">link existing file sets to DAT</text>
</g>
<!-- S7&#45;&gt;S8 -->
<g id="edge7" class="edge">
<title>S7&#45;&gt;S8</title>
<path fill="none" stroke="black" d="M773,-645.82C773,-635.19 773,-621.31 773,-609.2"/>
<polygon fill="black" stroke="black" points="776.5,-609.15 773,-599.15 769.5,-609.15 776.5,-609.15"/>
</g>
<!-- FileImportService -->
<g id="node15" class="node">
<title>FileImportService</title>
<polygon fill="#b2dfdb" stroke="black" points="615.5,-599 504.5,-599 504.5,-563 615.5,-563 615.5,-599"/>
<text text-anchor="middle" x="560" y="-584.2" font-family="Helvetica,sans-Serif" font-size="11.00">FileImportService</text>
<text text-anchor="middle" x="560" y="-572.2" font-family="Helvetica,sans-Serif" font-size="11.00">create_file_set()</text>
</g>
<!-- S7&#45;&gt;FileImportService -->
<g id="edge28" class="edge">
<title>S7&#45;&gt;FileImportService</title>
<path fill="none" stroke="black" stroke-dasharray="5,2" d="M728.09,-645.92C694.95,-633.32 649.7,-616.11 614.49,-602.72"/>
<polygon fill="black" stroke="black" points="615.44,-599.34 604.85,-599.06 612.95,-605.88 615.44,-599.34"/>
<text text-anchor="middle" x="705" y="-620" font-family="Helvetica,sans-Serif" font-size="10.00">per file set</text>
</g>
<!-- S8&#45;&gt;RepoDB -->
<g id="edge29" class="edge">
<title>S8&#45;&gt;RepoDB</title>
<path fill="none" stroke="black" stroke-dasharray="5,2" d="M862.77,-576.86C927.45,-572.97 1007.9,-564.31 1035,-545 1129.37,-477.75 1064.83,-388.35 1152,-312 1170.4,-295.89 1187.86,-312.37 1204,-294 1211.27,-285.73 1238.4,-140.13 1250.32,-74.56"/>
<polygon fill="black" stroke="black" points="1253.82,-74.86 1252.16,-64.39 1246.93,-73.61 1253.82,-74.86"/>
<text text-anchor="middle" x="1197" y="-315" font-family="Helvetica,sans-Serif" font-size="10.00">link file set to DAT</text>
</g>
<!-- A1 -->
<g id="node16" class="node">
<title>A1</title>
<polygon fill="#ede7f6" stroke="black" points="969.5,-450 780.5,-450 780.5,-414 969.5,-414 969.5,-450"/>
<text text-anchor="middle" x="875" y="-435.2" font-family="Helvetica,sans-Serif" font-size="11.00">1. CheckExistingFilesStep</text>
<text text-anchor="middle" x="875" y="-423.2" font-family="Helvetica,sans-Serif" font-size="11.00">check if files already in storage</text>
</g>
<!-- FileImportService&#45;&gt;A1 -->
<g id="edge30" class="edge">
<title>FileImportService&#45;&gt;A1</title>
<path fill="none" stroke="black" d="M596.44,-562.99C654.05,-536.11 766.08,-483.83 829.1,-454.42"/>
<polygon fill="black" stroke="black" points="830.82,-457.48 838.4,-450.08 827.86,-451.14 830.82,-457.48"/>
</g>
<!-- A2 -->
<g id="node17" class="node">
<title>A2</title>
<polygon fill="#ede7f6" stroke="black" points="967,-377 799,-377 799,-341 967,-341 967,-377"/>
<text text-anchor="middle" x="883" y="-362.2" font-family="Helvetica,sans-Serif" font-size="11.00">2. CheckExistingFileSetStep</text>
<text text-anchor="middle" x="883" y="-350.2" font-family="Helvetica,sans-Serif" font-size="11.00">check if file set in DB</text>
</g>
<!-- A1&#45;&gt;A2 -->
<g id="edge8" class="edge">
<title>A1&#45;&gt;A2</title>
<path fill="none" stroke="black" d="M876.94,-413.81C877.84,-405.79 878.94,-396.05 879.95,-387.07"/>
<polygon fill="black" stroke="black" points="883.44,-387.36 881.08,-377.03 876.48,-386.57 883.44,-387.36"/>
</g>
<!-- A1&#45;&gt;RepoDB -->
<g id="edge31" class="edge">
<title>A1&#45;&gt;RepoDB</title>
<path fill="none" stroke="black" stroke-dasharray="5,2" d="M912.27,-413.83C931.92,-404.11 956.01,-391.09 976,-377 1040.28,-331.67 1041.64,-301.76 1107,-258 1122.53,-247.6 1131.6,-253.03 1145,-240 1186.47,-199.68 1175.23,-174.18 1204,-124 1213.94,-106.67 1225.93,-87.86 1235.9,-72.74"/>
<polygon fill="black" stroke="black" points="1238.88,-74.56 1241.5,-64.3 1233.05,-70.69 1238.88,-74.56"/>
<text text-anchor="middle" x="1155.5" y="-273.5" font-family="Helvetica,sans-Serif" font-size="10.00">check files by SHA1</text>
</g>
<!-- A3 -->
<g id="node18" class="node">
<title>A3</title>
<polygon fill="#ede7f6" stroke="black" points="954,-294 812,-294 812,-258 954,-258 954,-294"/>
<text text-anchor="middle" x="883" y="-279.2" font-family="Helvetica,sans-Serif" font-size="11.00">3. ImportFilesStep</text>
<text text-anchor="middle" x="883" y="-267.2" font-family="Helvetica,sans-Serif" font-size="11.00">copy files to output dir</text>
</g>
<!-- A2&#45;&gt;A3 -->
<g id="edge9" class="edge">
<title>A2&#45;&gt;A3</title>
<path fill="none" stroke="black" d="M883,-340.82C883,-330.19 883,-316.31 883,-304.2"/>
<polygon fill="black" stroke="black" points="886.5,-304.15 883,-294.15 879.5,-304.15 886.5,-304.15"/>
</g>
<!-- A2&#45;&gt;RepoDB -->
<g id="edge32" class="edge">
<title>A2&#45;&gt;RepoDB</title>
<path fill="none" stroke="black" stroke-dasharray="5,2" d="M904.36,-340.81C945.46,-307.82 1032.82,-238.07 1048,-229 1065.08,-218.79 1073.86,-223.92 1089,-211 1123.98,-181.16 1109.29,-152.97 1145,-124 1152.76,-117.71 1157.35,-120.99 1166,-116 1187.72,-103.48 1209.62,-85.86 1226.38,-71.06"/>
<polygon fill="black" stroke="black" points="1229.07,-73.34 1234.17,-64.06 1224.39,-68.14 1229.07,-73.34"/>
<text text-anchor="middle" x="1096.5" y="-232" font-family="Helvetica,sans-Serif" font-size="10.00">check file set exists</text>
</g>
<!-- A4 -->
<g id="node19" class="node">
<title>A4</title>
<polygon fill="#ede7f6" stroke="black" points="970,-211 778,-211 778,-175 970,-175 970,-211"/>
<text text-anchor="middle" x="874" y="-196.2" font-family="Helvetica,sans-Serif" font-size="11.00">4. CreateFileSetToDatabaseStep</text>
<text text-anchor="middle" x="874" y="-184.2" font-family="Helvetica,sans-Serif" font-size="11.00">insert file_set + release</text>
</g>
<!-- A3&#45;&gt;A4 -->
<g id="edge10" class="edge">
<title>A3&#45;&gt;A4</title>
<path fill="none" stroke="black" d="M881.09,-257.82C879.91,-247.19 878.37,-233.31 877.02,-221.2"/>
<polygon fill="black" stroke="black" points="880.49,-220.71 875.91,-211.15 873.53,-221.48 880.49,-220.71"/>
</g>
<!-- FileStorage -->
<g id="node26" class="node">
<title>FileStorage</title>
<polygon fill="#fdebd0" stroke="black" points="1157,-60 1154,-64 1133,-64 1130,-60 1047,-60 1047,-24 1157,-24 1157,-60"/>
<text text-anchor="middle" x="1102" y="-45.2" font-family="Helvetica,sans-Serif" font-size="11.00">FileImportOps</text>
<text text-anchor="middle" x="1102" y="-33.2" font-family="Helvetica,sans-Serif" font-size="11.00">copy files to disk</text>
</g>
<!-- A3&#45;&gt;FileStorage -->
<g id="edge33" class="edge">
<title>A3&#45;&gt;FileStorage</title>
<path fill="none" stroke="black" stroke-dasharray="5,2" d="M917.98,-257.82C937.88,-246.67 962.13,-230.57 979,-211 1006.91,-178.63 995.3,-158.89 1020,-124 1035,-102.81 1055.86,-82.29 1072.79,-67.2"/>
<polygon fill="black" stroke="black" points="1075.51,-69.47 1080.74,-60.25 1070.91,-64.2 1075.51,-69.47"/>
<text text-anchor="middle" x="1041.5" y="-190.5" font-family="Helvetica,sans-Serif" font-size="10.00">copy to output dir</text>
</g>
<!-- A5 -->
<g id="node20" class="node">
<title>A5</title>
<polygon fill="#ede7f6" stroke="black" points="970.5,-60 801.5,-60 801.5,-24 970.5,-24 970.5,-60"/>
<text text-anchor="middle" x="886" y="-45.2" font-family="Helvetica,sans-Serif" font-size="11.00">5. AddFileSetItemTypesStep</text>
<text text-anchor="middle" x="886" y="-33.2" font-family="Helvetica,sans-Serif" font-size="11.00">associate item types</text>
</g>
<!-- A4&#45;&gt;A5 -->
<g id="edge11" class="edge">
<title>A4&#45;&gt;A5</title>
<path fill="none" stroke="black" d="M875.38,-174.91C877.44,-149.33 881.34,-100.86 883.8,-70.33"/>
<polygon fill="black" stroke="black" points="887.29,-70.6 884.6,-60.35 880.31,-70.04 887.29,-70.6"/>
</g>
<!-- A4&#45;&gt;RepoDB -->
<g id="edge34" class="edge">
<title>A4&#45;&gt;RepoDB</title>
<path fill="none" stroke="black" stroke-dasharray="5,2" d="M887.18,-174.95C901.05,-158.51 924.5,-134.59 951,-124 995.39,-106.25 1121.24,-132.81 1166,-116 1190.83,-106.67 1213.95,-87.6 1230.54,-71.29"/>
<polygon fill="black" stroke="black" points="1233.16,-73.61 1237.68,-64.03 1228.17,-68.7 1233.16,-73.61"/>
<text text-anchor="middle" x="984.5" y="-149" font-family="Helvetica,sans-Serif" font-size="10.00">insert file_set</text>
<text text-anchor="middle" x="984.5" y="-138" font-family="Helvetica,sans-Serif" font-size="10.00">release</text>
<text text-anchor="middle" x="984.5" y="-127" font-family="Helvetica,sans-Serif" font-size="10.00">software_title</text>
</g>
<!-- A5&#45;&gt;RepoDB -->
<g id="edge35" class="edge">
<title>A5&#45;&gt;RepoDB</title>
<path fill="none" stroke="black" stroke-dasharray="5,2" d="M907.84,-60.15C933.36,-80.06 977.75,-110.82 1022,-123 1083.78,-140 1107.04,-141.08 1166,-116 1189.89,-105.84 1212.45,-87.27 1229,-71.27"/>
<polygon fill="black" stroke="black" points="1231.55,-73.68 1236.17,-64.14 1226.61,-68.71 1231.55,-73.68"/>
<text text-anchor="middle" x="1064" y="-138" font-family="Helvetica,sans-Serif" font-size="10.00">insert item types</text>
</g>
<!-- DatFileService&#45;&gt;RepoDB -->
<g id="edge23" class="edge">
<title>DatFileService&#45;&gt;RepoDB</title>
<path fill="none" stroke="black" stroke-dasharray="5,2" d="M997.72,-882.04C1093.67,-880.77 1295,-870.95 1295,-811 1295,-811 1295,-811 1295,-192 1295,-149.96 1280.29,-103.36 1268.94,-73.65"/>
<polygon fill="black" stroke="black" points="1272.16,-72.28 1265.24,-64.26 1265.65,-74.84 1272.16,-72.28"/>
<text text-anchor="middle" x="1320.5" y="-537" font-family="Helvetica,sans-Serif" font-size="10.00">insert DAT</text>
</g>
<!-- DatGameStatus&#45;&gt;RepoDB -->
<g id="edge27" class="edge">
<title>DatGameStatus&#45;&gt;RepoDB</title>
<path fill="none" stroke="black" stroke-dasharray="5,2" d="M1023.15,-653.47C1095.73,-641.81 1197,-618.93 1197,-582 1197,-582 1197,-582 1197,-395 1197,-370.21 1196.01,-360.75 1211,-341 1220.63,-328.31 1233.71,-336.6 1242,-323 1289.95,-244.32 1274.64,-128.9 1263.41,-74.1"/>
<polygon fill="black" stroke="black" points="1266.82,-73.33 1261.31,-64.28 1259.98,-74.79 1266.82,-73.33"/>
<text text-anchor="middle" x="1246" y="-356.5" font-family="Helvetica,sans-Serif" font-size="10.00">query file sets</text>
</g>
</g>
</svg>
