<?xml version="1.0" encoding="UTF-8" standalone="no"?>
<!DOCTYPE svg PUBLIC "-//W3C//DTD SVG 1.1//EN"
 "http://www.w3.org/Graphics/SVG/1.1/DTD/svg11.dtd">
<!-- Generated by graphviz version 2.43.0 (0)
 -->
<!-- Title: MassImport Pages: 1 -->
<svg width="2694pt" height="2025pt"
 viewBox="0.00 0.00 2694.00 2024.51" xmlns="http://www.w3.org/2000/svg" xmlns:xlink="http://www.w3.org/1999/xlink">
<g id="graph0" class="graph" transform="scale(1 1) rotate(0) translate(4 2020.51)">
<title>MassImport</title>
<polygon fill="white" stroke="transparent" points="-4,4 -4,-2020.51 2690,-2020.51 2690,4 -4,4"/>
<g id="clust1" class="cluster">
<title>cluster_ui</title>
<polygon fill="#e8f4f8" stroke="#4a90d9" points="8,-1671 8,-2008.51 489,-2008.51 489,-1671 8,-1671"/>
<text text-anchor="middle" x="248.5" y="-1994.11" font-family="Times,serif" font-size="13.00">relm4&#45;ui &#160;(GTK4 / relm4)</text>
</g>
<g id="clust2" class="cluster">
<title>cluster_service</title>
<polygon fill="#edf7ed" stroke="#4caf50" points="497,-8 497,-1771 1932,-1771 1932,-8 497,-8"/>
<text text-anchor="middle" x="1214.5" y="-1756.6" font-family="Times,serif" font-size="13.00">service crate</text>
</g>
<g id="clust3" class="cluster">
<title>cluster_mass_pipeline</title>
<polygon fill="#f1f8f1" stroke="#81c784" points="1524,-1094 1524,-1652 1772,-1652 1772,-1094 1524,-1094"/>
<text text-anchor="middle" x="1648" y="-1638.4" font-family="Times,serif" font-size="12.00">Pipeline&lt;DatFileMassImportContext&gt;</text>
</g>
<g id="clust4" class="cluster">
<title>cluster_handlers</title>
<polygon fill="#f0fff0" stroke="#43a047" points="505,-786 505,-1054 1717,-1054 1717,-786 505,-786"/>
<text text-anchor="middle" x="1111" y="-1040.4" font-family="Times,serif" font-size="12.00">RouteAndProcessFileSetsStep — handlers</text>
</g>
<g id="clust5" class="cluster">
<title>cluster_add_pipeline</title>
<polygon fill="#f5f5ff" stroke="#7c4dff" points="1052,-149 1052,-655 1280,-655 1280,-149 1052,-149"/>
<text text-anchor="middle" x="1166" y="-641.4" font-family="Times,serif" font-size="12.00">Pipeline&lt;AddFileSetContext&gt;</text>
<text text-anchor="middle" x="1166" y="-628.4" font-family="Times,serif" font-size="12.00">(new file sets)</text>
</g>
<g id="clust6" class="cluster">
<title>cluster_update_pipeline</title>
<polygon fill="#fff8f0" stroke="#e65100" points="1288,-16 1288,-651 1556,-651 1556,-16 1288,-16"/>
<text text-anchor="middle" x="1422" y="-637.4" font-family="Times,serif" font-size="12.00">Pipeline&lt;UpdateFileSetContext&gt;</text>
<text text-anchor="middle" x="1422" y="-624.4" font-family="Times,serif" font-size="12.00">(complete missing files)</text>
</g>
<g id="clust7" class="cluster">
<title>cluster_infra</title>
<polygon fill="#fef9e7" stroke="#f39c12" points="1940,-16 1940,-120 2621,-120 2621,-16 1940,-16"/>
<text text-anchor="middle" x="2280.5" y="-105.6" font-family="Times,serif" font-size="13.00">Infrastructure</text>
</g>
<!-- ImportForm -->
<g id="node1" class="node">
<title>ImportForm</title>
<polygon fill="#b3d9f2" stroke="black" points="104.5,-1951.88 15.5,-1951.88 15.5,-1915.88 104.5,-1915.88 104.5,-1951.88"/>
<text text-anchor="middle" x="60" y="-1937.08" font-family="Helvetica,sans-Serif" font-size="11.00">ImportForm</text>
<text text-anchor="middle" x="60" y="-1925.08" font-family="Helvetica,sans-Serif" font-size="11.00">(Component)</text>
</g>
<!-- StartImport -->
<g id="node2" class="node">
<title>StartImport</title>
<ellipse fill="#d0eaf8" stroke="black" cx="102" cy="-1841.63" rx="56.64" ry="22.76"/>
<text text-anchor="middle" x="102" y="-1844.83" font-family="Helvetica,sans-Serif" font-size="11.00">StartImport</text>
<text text-anchor="middle" x="102" y="-1832.83" font-family="Helvetica,sans-Serif" font-size="11.00">(msg)</text>
</g>
<!-- ImportForm&#45;&gt;StartImport -->
<g id="edge16" class="edge">
<title>ImportForm&#45;&gt;StartImport</title>
<path fill="none" stroke="black" d="M68.1,-1915.48C73.64,-1903.58 81.13,-1887.47 87.67,-1873.43"/>
<polygon fill="black" stroke="black" points="90.95,-1874.66 92,-1864.12 84.61,-1871.71 90.95,-1874.66"/>
<text text-anchor="middle" x="110" y="-1885.25" font-family="Helvetica,sans-Serif" font-size="10.00">user clicks</text>
</g>
<!-- MassImportInput -->
<g id="node3" class="node">
<title>MassImportInput</title>
<polygon fill="#fffbe6" stroke="black" points="174,-1723 24,-1723 24,-1679 180,-1679 180,-1717 174,-1723"/>
<polyline fill="none" stroke="black" points="174,-1723 174,-1717 "/>
<polyline fill="none" stroke="black" points="180,-1717 174,-1717 "/>
<text text-anchor="middle" x="102" y="-1710.2" font-family="Helvetica,sans-Serif" font-size="11.00">MassImportInput</text>
<text text-anchor="middle" x="102" y="-1698.2" font-family="Helvetica,sans-Serif" font-size="11.00">{source_path, file_type,</text>
<text text-anchor="middle" x="102" y="-1686.2" font-family="Helvetica,sans-Serif" font-size="11.00">dat_file_path, system_id}</text>
</g>
<!-- StartImport&#45;&gt;MassImportInput -->
<g id="edge17" class="edge">
<title>StartImport&#45;&gt;MassImportInput</title>
<path fill="none" stroke="black" d="M102,-1818.97C102,-1795.94 102,-1759.32 102,-1733.19"/>
<polygon fill="black" stroke="black" points="105.5,-1733.05 102,-1723.05 98.5,-1733.05 105.5,-1733.05"/>
<text text-anchor="middle" x="117" y="-1787.5" font-family="Helvetica,sans-Serif" font-size="10.00">builds</text>
</g>
<!-- MassImportService -->
<g id="node6" class="node">
<title>MassImportService</title>
<polygon fill="#b2dfdb" stroke="black" points="627,-1719 505,-1719 505,-1683 627,-1683 627,-1719"/>
<text text-anchor="middle" x="566" y="-1704.2" font-family="Helvetica,sans-Serif" font-size="11.00">MassImportService</text>
<text text-anchor="middle" x="566" y="-1692.2" font-family="Helvetica,sans-Serif" font-size="11.00">import_with_dat()</text>
</g>
<!-- StartImport&#45;&gt;MassImportService -->
<g id="edge18" class="edge">
<title>StartImport&#45;&gt;MassImportService</title>
<path fill="none" stroke="black" d="M136.34,-1823.43C167.87,-1808.59 216.34,-1788.15 261,-1779 286.27,-1773.82 469.2,-1780.95 493,-1771 514.92,-1761.84 534.19,-1742.88 547.42,-1727.15"/>
<polygon fill="black" stroke="black" points="550.2,-1729.27 553.76,-1719.29 544.76,-1724.87 550.2,-1729.27"/>
<text text-anchor="middle" x="317.5" y="-1787.5" font-family="Helvetica,sans-Serif" font-size="10.00">calls import_with_dat()</text>
</g>
<!-- StartImport&#45;&gt;MassImportService -->
<g id="edge19" class="edge">
<title>StartImport&#45;&gt;MassImportService</title>
<path fill="none" stroke="#888888" stroke-dasharray="5,2" d="M158.11,-1838.47C214.11,-1834.93 301.97,-1825.6 374,-1801 392.83,-1794.57 394.03,-1785.01 413,-1779 447.07,-1768.21 460.5,-1785.85 493,-1771 514.48,-1761.19 533.66,-1742.46 546.96,-1726.98"/>
<polygon fill="#888888" stroke="#888888" points="549.68,-1729.18 553.36,-1719.25 544.29,-1724.72 549.68,-1729.18"/>
<text text-anchor="middle" x="449.5" y="-1793" font-family="Helvetica,sans-Serif" font-size="10.00">progress_tx</text>
<text text-anchor="middle" x="449.5" y="-1782" font-family="Helvetica,sans-Serif" font-size="10.00">(flume Sender)</text>
</g>
<!-- SyncEvent -->
<g id="node4" class="node">
<title>SyncEvent</title>
<ellipse fill="#d0eaf8" stroke="black" cx="286" cy="-1933.88" rx="84.71" ry="22.76"/>
<text text-anchor="middle" x="286" y="-1937.08" font-family="Helvetica,sans-Serif" font-size="11.00">ProcessSyncEvent</text>
<text text-anchor="middle" x="286" y="-1925.08" font-family="Helvetica,sans-Serif" font-size="11.00">(progress channel)</text>
</g>
<!-- SyncEvent&#45;&gt;ImportForm -->
<g id="edge21" class="edge">
<title>SyncEvent&#45;&gt;ImportForm</title>
<path fill="none" stroke="#888888" stroke-dasharray="5,2" d="M200.73,-1933.88C172,-1933.88 140.72,-1933.88 114.96,-1933.88"/>
<polygon fill="#888888" stroke="#888888" points="114.65,-1930.38 104.65,-1933.88 114.65,-1937.38 114.65,-1930.38"/>
<text text-anchor="middle" x="152.82" y="-1939.88" font-family="Helvetica,sans-Serif" font-size="10.00">progress update</text>
</g>
<!-- ImportResults -->
<g id="node5" class="node">
<title>ImportResults</title>
<polygon fill="#b3d9f2" stroke="black" points="481.5,-1951.88 388.5,-1951.88 388.5,-1915.88 481.5,-1915.88 481.5,-1951.88"/>
<text text-anchor="middle" x="435" y="-1937.08" font-family="Helvetica,sans-Serif" font-size="11.00">ImportResults</text>
<text text-anchor="middle" x="435" y="-1925.08" font-family="Helvetica,sans-Serif" font-size="11.00">(Component)</text>
</g>
<!-- MassImportService&#45;&gt;ImportResults -->
<g id="edge22" class="edge">
<title>MassImportService&#45;&gt;ImportResults</title>
<path fill="none" stroke="black" d="M556.22,-1719.24C533.47,-1759.34 476.88,-1859.07 449.84,-1906.73"/>
<polygon fill="black" stroke="black" points="446.74,-1905.1 444.85,-1915.53 452.83,-1908.56 446.74,-1905.1"/>
<text text-anchor="middle" x="560" y="-1844.63" font-family="Helvetica,sans-Serif" font-size="10.00">DatFileMassImportResult</text>
<text text-anchor="middle" x="560" y="-1833.63" font-family="Helvetica,sans-Serif" font-size="10.00">(on completion)</text>
</g>
<!-- S1 -->
<g id="node7" class="node">
<title>S1</title>
<polygon fill="#ffffff" stroke="black" points="1743.5,-1602 1614.5,-1602 1614.5,-1566 1743.5,-1566 1743.5,-1602"/>
<text text-anchor="middle" x="1679" y="-1587.2" font-family="Helvetica,sans-Serif" font-size="11.00">1. ImportDatFileStep</text>
<text text-anchor="middle" x="1679" y="-1575.2" font-family="Helvetica,sans-Serif" font-size="11.00">parse DAT file</text>
</g>
<!-- MassImportService&#45;&gt;S1 -->
<g id="edge23" class="edge">
<title>MassImportService&#45;&gt;S1</title>
<path fill="none" stroke="black" d="M584.44,-1682.86C594.71,-1674.41 608.17,-1664.98 622,-1660 803.07,-1594.82 1394.16,-1586.08 1604.15,-1585.07"/>
<polygon fill="black" stroke="black" points="1604.47,-1588.57 1614.45,-1585.02 1604.44,-1581.57 1604.47,-1588.57"/>
</g>
<!-- S2 -->
<g id="node8" class="node">
<title>S2</title>
<polygon fill="#ffffff" stroke="black" points="1764,-1529 1594,-1529 1594,-1493 1764,-1493 1764,-1529"/>
<text text-anchor="middle" x="1679" y="-1514.2" font-family="Helvetica,sans-Serif" font-size="11.00">2. CheckExistingDatFileStep</text>
<text text-anchor="middle" x="1679" y="-1502.2" font-family="Helvetica,sans-Serif" font-size="11.00">look up DAT in DB</text>
</g>
<!-- S1&#45;&gt;S2 -->
<g id="edge1" class="edge">
<title>S1&#45;&gt;S2</title>
<path fill="none" stroke="black" d="M1679,-1565.81C1679,-1557.79 1679,-1548.05 1679,-1539.07"/>
<polygon fill="black" stroke="black" points="1682.5,-1539.03 1679,-1529.03 1675.5,-1539.03 1682.5,-1539.03"/>
</g>
<!-- DatParser -->
<g id="node34" class="node">
<title>DatParser</title>
<polygon fill="#fdebd0" stroke="black" points="2613,-64 2503,-64 2503,-60 2499,-60 2499,-56 2503,-56 2503,-36 2499,-36 2499,-32 2503,-32 2503,-28 2613,-28 2613,-64"/>
<polyline fill="none" stroke="black" points="2503,-60 2507,-60 2507,-56 2503,-56 "/>
<polyline fill="none" stroke="black" points="2503,-36 2507,-36 2507,-32 2503,-32 "/>
<text text-anchor="middle" x="2558" y="-49.2" font-family="Helvetica,sans-Serif" font-size="11.00">DatFileParserOps</text>
<text text-anchor="middle" x="2558" y="-37.2" font-family="Helvetica,sans-Serif" font-size="11.00">parse_dat_file()</text>
</g>
<!-- S1&#45;&gt;DatParser -->
<g id="edge24" class="edge">
<title>S1&#45;&gt;DatParser</title>
<path fill="none" stroke="black" stroke-dasharray="5,2" d="M1743.64,-1581.04C1943.64,-1574.55 2539,-1551.89 2539,-1512 2539,-1512 2539,-1512 2539,-178 2539,-141.85 2546.18,-100.65 2551.71,-74.27"/>
<polygon fill="black" stroke="black" points="2555.18,-74.77 2553.88,-64.26 2548.34,-73.29 2555.18,-74.77"/>
<text text-anchor="middle" x="2577" y="-908.5" font-family="Helvetica,sans-Serif" font-size="10.00">parse_dat_file()</text>
</g>
<!-- S3 -->
<g id="node9" class="node">
<title>S3</title>
<polygon fill="#ffffff" stroke="black" points="1761.5,-1446 1628.5,-1446 1628.5,-1402 1761.5,-1402 1761.5,-1446"/>
<text text-anchor="middle" x="1695" y="-1433.2" font-family="Helvetica,sans-Serif" font-size="11.00">3. StoreDatFileStep</text>
<text text-anchor="middle" x="1695" y="-1421.2" font-family="Helvetica,sans-Serif" font-size="11.00">write DAT to DB</text>
<text text-anchor="middle" x="1695" y="-1409.2" font-family="Helvetica,sans-Serif" font-size="11.00">[skip: already exists]</text>
</g>
<!-- S2&#45;&gt;S3 -->
<g id="edge2" class="edge">
<title>S2&#45;&gt;S3</title>
<path fill="none" stroke="black" d="M1682.24,-1492.8C1684.22,-1482.26 1686.82,-1468.47 1689.15,-1456.07"/>
<polygon fill="black" stroke="black" points="1692.62,-1456.56 1691.03,-1446.09 1685.74,-1455.27 1692.62,-1456.56"/>
</g>
<!-- RepoDB -->
<g id="node37" class="node">
<title>RepoDB</title>
<path fill="#f9e4b7" stroke="black" d="M2237.5,-64C2237.5,-66.21 2201.42,-68 2157,-68 2112.58,-68 2076.5,-66.21 2076.5,-64 2076.5,-64 2076.5,-28 2076.5,-28 2076.5,-25.79 2112.58,-24 2157,-24 2201.42,-24 2237.5,-25.79 2237.5,-28 2237.5,-28 2237.5,-64 2237.5,-64"/>
<path fill="none" stroke="black" d="M2237.5,-64C2237.5,-61.79 2201.42,-60 2157,-60 2112.58,-60 2076.5,-61.79 2076.5,-64"/>
<text text-anchor="middle" x="2157" y="-49.2" font-family="Helvetica,sans-Serif" font-size="11.00">RepositoryManager</text>
<text text-anchor="middle" x="2157" y="-37.2" font-family="Helvetica,sans-Serif" font-size="11.00">→ SQLite (database crate)</text>
</g>
<!-- S2&#45;&gt;RepoDB -->
<g id="edge25" class="edge">
<title>S2&#45;&gt;RepoDB</title>
<path fill="none" stroke="black" stroke-dasharray="5,2" d="M1764.09,-1506.24C1925.9,-1497.93 2262,-1474.7 2262,-1425 2262,-1425 2262,-1425 2262,-910 2262,-802.11 2295,-777.39 2295,-669.5 2295,-669.5 2295,-669.5 2295,-178 2295,-150.35 2277.63,-147.47 2258,-128 2253.71,-123.74 2251.79,-123.68 2247,-120 2227.94,-105.36 2207.08,-88.49 2190.24,-74.65"/>
<polygon fill="black" stroke="black" points="2192.26,-71.79 2182.32,-68.13 2187.81,-77.19 2192.26,-71.79"/>
<text text-anchor="middle" x="2335" y="-835.5" font-family="Helvetica,sans-Serif" font-size="10.00">check_dat_file_exists()</text>
</g>
<!-- S4 -->
<g id="node10" class="node">
<title>S4</title>
<polygon fill="#ffffff" stroke="black" points="1763,-1365 1627,-1365 1627,-1329 1763,-1329 1763,-1365"/>
<text text-anchor="middle" x="1695" y="-1350.2" font-family="Helvetica,sans-Serif" font-size="11.00">4. ReadFilesStep</text>
<text text-anchor="middle" x="1695" y="-1338.2" font-family="Helvetica,sans-Serif" font-size="11.00">scan source directory</text>
</g>
<!-- S3&#45;&gt;S4 -->
<g id="edge3" class="edge">
<title>S3&#45;&gt;S4</title>
<path fill="none" stroke="black" d="M1695,-1401.71C1695,-1393.46 1695,-1383.91 1695,-1375.17"/>
<polygon fill="black" stroke="black" points="1698.5,-1375.06 1695,-1365.06 1691.5,-1375.06 1698.5,-1375.06"/>
</g>
<!-- DatFileService -->
<g id="node31" class="node">
<title>DatFileService</title>
<polygon fill="#b2dfdb" stroke="black" points="1901.5,-1365 1802.5,-1365 1802.5,-1329 1901.5,-1329 1901.5,-1365"/>
<text text-anchor="middle" x="1852" y="-1350.2" font-family="Helvetica,sans-Serif" font-size="11.00">DatFileService</text>
<text text-anchor="middle" x="1852" y="-1338.2" font-family="Helvetica,sans-Serif" font-size="11.00">store_dat_file()</text>
</g>
<!-- S3&#45;&gt;DatFileService -->
<g id="edge26" class="edge">
<title>S3&#45;&gt;DatFileService</title>
<path fill="none" stroke="black" stroke-dasharray="5,2" d="M1739.15,-1401.91C1760.4,-1391.76 1785.84,-1379.61 1807.18,-1369.41"/>
<polygon fill="black" stroke="black" points="1808.84,-1372.5 1816.36,-1365.03 1805.82,-1366.18 1808.84,-1372.5"/>
</g>
<!-- S5 -->
<g id="node11" class="node">
<title>S5</title>
<polygon fill="#ffffff" stroke="black" points="1764,-1292 1610,-1292 1610,-1256 1764,-1256 1764,-1292"/>
<text text-anchor="middle" x="1687" y="-1277.2" font-family="Helvetica,sans-Serif" font-size="11.00">5. ReadFileMetadataStep</text>
<text text-anchor="middle" x="1687" y="-1265.2" font-family="Helvetica,sans-Serif" font-size="11.00">read SHA1 / file size</text>
</g>
<!-- S4&#45;&gt;S5 -->
<g id="edge4" class="edge">
<title>S4&#45;&gt;S5</title>
<path fill="none" stroke="black" d="M1693.06,-1328.81C1692.16,-1320.79 1691.06,-1311.05 1690.05,-1302.07"/>
<polygon fill="black" stroke="black" points="1693.52,-1301.57 1688.92,-1292.03 1686.56,-1302.36 1693.52,-1301.57"/>
</g>
<!-- FileSystem -->
<g id="node33" class="node">
<title>FileSystem</title>
<polygon fill="#fdebd0" stroke="black" points="2485,-64 2482,-68 2461,-68 2458,-64 2387,-64 2387,-28 2485,-28 2485,-64"/>
<text text-anchor="middle" x="2436" y="-49.2" font-family="Helvetica,sans-Serif" font-size="11.00">FileSystemOps</text>
<text text-anchor="middle" x="2436" y="-37.2" font-family="Helvetica,sans-Serif" font-size="11.00">read_dir()</text>
</g>
<!-- S4&#45;&gt;FileSystem -->
<g id="edge28" class="edge">
<title>S4&#45;&gt;FileSystem</title>
<path fill="none" stroke="black" stroke-dasharray="5,2" d="M1763.18,-1329.71C1764.46,-1329.47 1765.74,-1329.23 1767,-1329 1813.18,-1320.6 2186,-1321.94 2186,-1275 2186,-1275 2186,-1275 2186,-1164 2186,-1094.23 2255.31,-1109.19 2298,-1054 2385.32,-941.12 2440,-908.71 2440,-766 2440,-766 2440,-766 2440,-178 2440,-142.2 2438.49,-100.93 2437.32,-74.43"/>
<polygon fill="black" stroke="black" points="2440.82,-74.2 2436.87,-64.37 2433.83,-74.52 2440.82,-74.2"/>
<text text-anchor="middle" x="2464" y="-711.5" font-family="Helvetica,sans-Serif" font-size="10.00">read_dir()</text>
</g>
<!-- S6 -->
<g id="node12" class="node">
<title>S6</title>
<polygon fill="#ffffff" stroke="black" points="1764,-1219 1554,-1219 1554,-1183 1764,-1183 1764,-1219"/>
<text text-anchor="middle" x="1659" y="-1204.2" font-family="Helvetica,sans-Serif" font-size="11.00">6. CategorizeFileSetsForImportStep</text>
<text text-anchor="middle" x="1659" y="-1192.2" font-family="Helvetica,sans-Serif" font-size="11.00">classify each DAT game via DB</text>
</g>
<!-- S5&#45;&gt;S6 -->
<g id="edge5" class="edge">
<title>S5&#45;&gt;S6</title>
<path fill="none" stroke="black" d="M1680.22,-1255.81C1676.99,-1247.62 1673.05,-1237.62 1669.44,-1228.48"/>
<polygon fill="black" stroke="black" points="1672.64,-1227.05 1665.72,-1219.03 1666.13,-1229.62 1672.64,-1227.05"/>
</g>
<!-- MetaReader -->
<g id="node35" class="node">
<title>MetaReader</title>
<polygon fill="#fdebd0" stroke="black" points="2368.5,-64 2255.5,-64 2255.5,-60 2251.5,-60 2251.5,-56 2255.5,-56 2255.5,-36 2251.5,-36 2251.5,-32 2255.5,-32 2255.5,-28 2368.5,-28 2368.5,-64"/>
<polyline fill="none" stroke="black" points="2255.5,-60 2259.5,-60 2259.5,-56 2255.5,-56 "/>
<polyline fill="none" stroke="black" points="2255.5,-36 2259.5,-36 2259.5,-32 2255.5,-32 "/>
<text text-anchor="middle" x="2312" y="-49.2" font-family="Helvetica,sans-Serif" font-size="11.00">MetadataReader</text>
<text text-anchor="middle" x="2312" y="-37.2" font-family="Helvetica,sans-Serif" font-size="11.00">(SHA1 + file size)</text>
</g>
<!-- S5&#45;&gt;MetaReader -->
<g id="edge29" class="edge">
<title>S5&#45;&gt;MetaReader</title>
<path fill="none" stroke="black" stroke-dasharray="5,2" d="M1764.03,-1257.6C1916.39,-1222.39 2252.3,-1119.98 2378,-882 2397.93,-844.27 2382.86,-828.39 2378,-786 2372.18,-735.23 2358.03,-724.74 2352,-674 2345.91,-622.8 2351,-609.56 2351,-558 2351,-558 2351,-558 2351,-178 2351,-140.55 2336.17,-99.48 2324.81,-73.49"/>
<polygon fill="black" stroke="black" points="2327.96,-71.98 2320.66,-64.31 2321.58,-74.86 2327.96,-71.98"/>
<text text-anchor="middle" x="2389" y="-666" font-family="Helvetica,sans-Serif" font-size="10.00">read SHA1/size</text>
</g>
<!-- S7 -->
<g id="node13" class="node">
<title>S7</title>
<polygon fill="#ffffff" stroke="black" points="1726,-1146 1532,-1146 1532,-1102 1726,-1102 1726,-1146"/>
<text text-anchor="middle" x="1629" y="-1133.2" font-family="Helvetica,sans-Serif" font-size="11.00">7. RouteAndProcessFileSetsStep</text>
<text text-anchor="middle" x="1629" y="-1121.2" font-family="Helvetica,sans-Serif" font-size="11.00">route each game to handler</text>
<text text-anchor="middle" x="1629" y="-1109.2" font-family="Helvetica,sans-Serif" font-size="11.00">send progress event per game</text>
</g>
<!-- S6&#45;&gt;S7 -->
<g id="edge6" class="edge">
<title>S6&#45;&gt;S7</title>
<path fill="none" stroke="black" d="M1652.19,-1182.98C1648.96,-1174.9 1644.99,-1164.98 1641.26,-1155.65"/>
<polygon fill="black" stroke="black" points="1644.46,-1154.23 1637.5,-1146.24 1637.96,-1156.83 1644.46,-1154.23"/>
</g>
<!-- DatGameStatus -->
<g id="node32" class="node">
<title>DatGameStatus</title>
<polygon fill="#b2dfdb" stroke="black" points="1924,-1142 1780,-1142 1780,-1106 1924,-1106 1924,-1142"/>
<text text-anchor="middle" x="1852" y="-1127.2" font-family="Helvetica,sans-Serif" font-size="11.00">DatGameStatusService</text>
<text text-anchor="middle" x="1852" y="-1115.2" font-family="Helvetica,sans-Serif" font-size="11.00">classify game status</text>
</g>
<!-- S6&#45;&gt;DatGameStatus -->
<g id="edge30" class="edge">
<title>S6&#45;&gt;DatGameStatus</title>
<path fill="none" stroke="black" stroke-dasharray="5,2" d="M1702.79,-1182.98C1731.2,-1171.94 1768.38,-1157.49 1798.53,-1145.78"/>
<polygon fill="black" stroke="black" points="1799.99,-1148.97 1808.04,-1142.08 1797.46,-1142.44 1799.99,-1148.97"/>
</g>
<!-- S7&#45;&gt;SyncEvent -->
<g id="edge20" class="edge">
<title>S7&#45;&gt;SyncEvent</title>
<path fill="none" stroke="#888888" stroke-dasharray="5,2" d="M1726.26,-1145.4C1727.52,-1145.6 1728.76,-1145.8 1730,-1146 1911.72,-1174.87 2430.25,-1099.93 2553,-1237 2645.21,-1339.97 2642.32,-1442.51 2553,-1548 2236.63,-1921.64 860.23,-1815.96 380,-1911.25 372.63,-1912.72 364.96,-1914.33 357.32,-1916"/>
<polygon fill="#888888" stroke="#888888" points="356.33,-1912.63 347.32,-1918.21 357.84,-1919.47 356.33,-1912.63"/>
<text text-anchor="middle" x="2645.5" y="-1467" font-family="Helvetica,sans-Serif" font-size="10.00">send() per game</text>
</g>
<!-- H1 -->
<g id="node14" class="node">
<title>H1</title>
<polygon fill="#c8e6c9" stroke="black" points="718,-1004 513,-972 718,-940 923,-972 718,-1004"/>
<text text-anchor="middle" x="718" y="-975.2" font-family="Helvetica,sans-Serif" font-size="11.00">handle_new_file_set</text>
<text text-anchor="middle" x="718" y="-963.2" font-family="Helvetica,sans-Serif" font-size="11.00">→ Success / SuccessWithWarnings</text>
</g>
<!-- S7&#45;&gt;H1 -->
<g id="edge32" class="edge">
<title>S7&#45;&gt;H1</title>
<path fill="none" stroke="black" d="M1531.84,-1121.49C1395.92,-1117.55 1142.07,-1103.54 932,-1054 878.26,-1041.33 819.79,-1018.54 777.57,-1000.35"/>
<polygon fill="black" stroke="black" points="778.85,-997.09 768.28,-996.31 776.06,-1003.51 778.85,-997.09"/>
<text text-anchor="middle" x="1111.5" y="-1070.5" font-family="Helvetica,sans-Serif" font-size="10.00">NonExisting</text>
</g>
<!-- H2 -->
<g id="node15" class="node">
<title>H2</title>
<polygon fill="#c8e6c9" stroke="black" points="1097,-1004 941,-972 1097,-940 1253,-972 1097,-1004"/>
<text text-anchor="middle" x="1097" y="-975.2" font-family="Helvetica,sans-Serif" font-size="11.00">handle_already_complete</text>
<text text-anchor="middle" x="1097" y="-963.2" font-family="Helvetica,sans-Serif" font-size="11.00">→ AlreadyExists</text>
</g>
<!-- S7&#45;&gt;H2 -->
<g id="edge33" class="edge">
<title>S7&#45;&gt;H2</title>
<path fill="none" stroke="black" d="M1531.81,-1113.05C1456.57,-1103.38 1350.6,-1085.42 1262,-1054 1221.62,-1039.68 1178.22,-1018.11 1146.07,-1000.82"/>
<polygon fill="black" stroke="black" points="1147.34,-997.53 1136.89,-995.84 1144.01,-1003.69 1147.34,-997.53"/>
<text text-anchor="middle" x="1449.5" y="-1076" font-family="Helvetica,sans-Serif" font-size="10.00">ExistingWithReleaseAndLinkedToDat</text>
<text text-anchor="middle" x="1449.5" y="-1065" font-family="Helvetica,sans-Serif" font-size="10.00">(no missing files)</text>
</g>
<!-- H3 -->
<g id="node16" class="node">
<title>H3</title>
<polygon fill="#c8e6c9" stroke="black" points="1490,-1004 1271,-972 1490,-940 1709,-972 1490,-1004"/>
<text text-anchor="middle" x="1490" y="-975.2" font-family="Helvetica,sans-Serif" font-size="11.00">handle_link_existing_to_dat</text>
<text text-anchor="middle" x="1490" y="-963.2" font-family="Helvetica,sans-Serif" font-size="11.00">→ link + optionally complete missing</text>
</g>
<!-- S7&#45;&gt;H3 -->
<g id="edge34" class="edge">
<title>S7&#45;&gt;H3</title>
<path fill="none" stroke="black" d="M1609.38,-1101.83C1586.78,-1077.44 1549.3,-1037 1522.37,-1007.93"/>
<polygon fill="black" stroke="black" points="1524.78,-1005.38 1515.41,-1000.43 1519.64,-1010.14 1524.78,-1005.38"/>
<text text-anchor="middle" x="1702" y="-1070.5" font-family="Helvetica,sans-Serif" font-size="10.00">ExistingWithoutReleaseAndWithoutLinkToDat</text>
</g>
<!-- H4 -->
<g id="node17" class="node">
<title>H4</title>
<polygon fill="#c8e6c9" stroke="black" points="1243,-882 1038,-838 1243,-794 1448,-838 1243,-882"/>
<text text-anchor="middle" x="1243" y="-847.2" font-family="Helvetica,sans-Serif" font-size="11.00">complete_missing_files</text>
<text text-anchor="middle" x="1243" y="-835.2" font-family="Helvetica,sans-Serif" font-size="11.00">→ Success / SuccessWithWarnings</text>
<text text-anchor="middle" x="1243" y="-823.2" font-family="Helvetica,sans-Serif" font-size="11.00"> &#160;&#160;/ StillMissingFiles</text>
</g>
<!-- S7&#45;&gt;H4 -->
<g id="edge35" class="edge">
<title>S7&#45;&gt;H4</title>
<path fill="none" stroke="black" d="M1696.54,-1101.96C1707.64,-1098.98 1719.09,-1096.19 1730,-1094 1748.87,-1090.22 1803.21,-1098.37 1816,-1084 1861.52,-1032.88 2031.69,-1104.62 1757,-900 1729.78,-879.72 1485.66,-886.43 1452,-882 1418.05,-877.53 1381.37,-870.68 1348.35,-863.75"/>
<polygon fill="black" stroke="black" points="1348.74,-860.26 1338.23,-861.61 1347.29,-867.11 1348.74,-860.26"/>
<text text-anchor="middle" x="1998.5" y="-975" font-family="Helvetica,sans-Serif" font-size="10.00">ExistingWithReleaseAndLinkedToDat</text>
<text text-anchor="middle" x="1998.5" y="-964" font-family="Helvetica,sans-Serif" font-size="10.00">(has missing files)</text>
</g>
<!-- FileImportService -->
<g id="node18" class="node">
<title>FileImportService</title>
<polygon fill="#b2dfdb" stroke="black" points="1412.5,-736 1301.5,-736 1301.5,-692 1412.5,-692 1412.5,-736"/>
<text text-anchor="middle" x="1357" y="-723.2" font-family="Helvetica,sans-Serif" font-size="11.00">FileImportService</text>
<text text-anchor="middle" x="1357" y="-711.2" font-family="Helvetica,sans-Serif" font-size="11.00">create_file_set()</text>
<text text-anchor="middle" x="1357" y="-699.2" font-family="Helvetica,sans-Serif" font-size="11.00">update_file_set()</text>
</g>
<!-- H1&#45;&gt;FileImportService -->
<g id="edge37" class="edge">
<title>H1&#45;&gt;FileImportService</title>
<path fill="none" stroke="black" stroke-dasharray="5,2" d="M814.16,-954.99C850.93,-949.42 893.32,-943.65 932,-940 1111.82,-923.03 1160.44,-955.1 1338,-922 1392.85,-911.78 1420.74,-924.41 1457,-882 1494.33,-838.33 1508.65,-800.56 1475,-754 1462.67,-736.94 1442.61,-727.22 1422.49,-721.72"/>
<polygon fill="black" stroke="black" points="1423.19,-718.29 1412.65,-719.35 1421.55,-725.1 1423.19,-718.29"/>
<text text-anchor="middle" x="1532.5" y="-835.5" font-family="Helvetica,sans-Serif" font-size="10.00">create_file_set()</text>
</g>
<!-- H3&#45;&gt;H4 -->
<g id="edge36" class="edge">
<title>H3&#45;&gt;H4</title>
<path fill="none" stroke="black" stroke-dasharray="5,2" d="M1371.29,-957.25C1324.61,-949.5 1278.28,-938.07 1262,-922 1253.78,-913.89 1248.81,-903 1245.87,-891.78"/>
<polygon fill="black" stroke="black" points="1249.27,-890.96 1243.77,-881.9 1242.42,-892.41 1249.27,-890.96"/>
<text text-anchor="middle" x="1298" y="-914" font-family="Helvetica,sans-Serif" font-size="10.00">if missing files</text>
<text text-anchor="middle" x="1298" y="-903" font-family="Helvetica,sans-Serif" font-size="10.00">after linking</text>
</g>
<!-- FileSetService -->
<g id="node19" class="node">
<title>FileSetService</title>
<polygon fill="#b2dfdb" stroke="black" points="1910.5,-856 1739.5,-856 1739.5,-820 1910.5,-820 1910.5,-856"/>
<text text-anchor="middle" x="1825" y="-841.2" font-family="Helvetica,sans-Serif" font-size="11.00">FileSetService</text>
<text text-anchor="middle" x="1825" y="-829.2" font-family="Helvetica,sans-Serif" font-size="11.00">create_release_for_file_set()</text>
</g>
<!-- H3&#45;&gt;FileSetService -->
<g id="edge38" class="edge">
<title>H3&#45;&gt;FileSetService</title>
<path fill="none" stroke="black" stroke-dasharray="5,2" d="M1549.5,-948.53C1596.25,-930.77 1662.93,-905.19 1721,-882 1738.44,-875.03 1757.45,-867.24 1774.39,-860.21"/>
<polygon fill="black" stroke="black" points="1776.2,-863.25 1784.1,-856.18 1773.52,-856.79 1776.2,-863.25"/>
<text text-anchor="middle" x="1739.5" y="-908.5" font-family="Helvetica,sans-Serif" font-size="10.00">create_release_for_file_set()</text>
</g>
<!-- H4&#45;&gt;FileImportService -->
<g id="edge39" class="edge">
<title>H4&#45;&gt;FileImportService</title>
<path fill="none" stroke="black" stroke-dasharray="5,2" d="M1276.59,-801.06C1293.67,-782.77 1314.16,-760.85 1330.17,-743.71"/>
<polygon fill="black" stroke="black" points="1332.92,-745.89 1337.19,-736.2 1327.81,-741.12 1332.92,-745.89"/>
<text text-anchor="middle" x="1395.5" y="-768" font-family="Helvetica,sans-Serif" font-size="10.00">update_file_set()</text>
<text text-anchor="middle" x="1395.5" y="-757" font-family="Helvetica,sans-Serif" font-size="10.00">[skip: nothing newly available]</text>
</g>
<!-- A1 -->
<g id="node20" class="node">
<title>A1</title>
<polygon fill="#ede7f6" stroke="black" points="1271.5,-579 1078.5,-579 1078.5,-535 1271.5,-535 1271.5,-579"/>
<text text-anchor="middle" x="1175" y="-566.2" font-family="Helvetica,sans-Serif" font-size="11.00">1. CheckExistingFilesStep</text>
<text text-anchor="middle" x="1175" y="-554.2" font-family="Helvetica,sans-Serif" font-size="11.00">query file_info by SHA1</text>
<text text-anchor="middle" x="1175" y="-542.2" font-family="Helvetica,sans-Serif" font-size="11.00">(excludes already&#45;linked SHA1s)</text>
</g>
<!-- FileImportService&#45;&gt;A1 -->
<g id="edge41" class="edge">
<title>FileImportService&#45;&gt;A1</title>
<path fill="none" stroke="black" d="M1327.17,-691.84C1319.51,-686.19 1311.35,-679.99 1304,-674 1268.86,-645.39 1230.48,-610.35 1204.79,-586.31"/>
<polygon fill="black" stroke="black" points="1206.93,-583.52 1197.25,-579.23 1202.14,-588.62 1206.93,-583.52"/>
<text text-anchor="middle" x="1340" y="-666" font-family="Helvetica,sans-Serif" font-size="10.00">create_file_set</text>
</g>
<!-- U1 -->
<g id="node25" class="node">
<title>U1</title>
<polygon fill="#ffe0b2" stroke="black" points="1509,-575 1379,-575 1379,-539 1509,-539 1509,-575"/>
<text text-anchor="middle" x="1444" y="-560.2" font-family="Helvetica,sans-Serif" font-size="11.00">1. FetchFileSetStep</text>
<text text-anchor="middle" x="1444" y="-548.2" font-family="Helvetica,sans-Serif" font-size="11.00">load file set from DB</text>
</g>
<!-- FileImportService&#45;&gt;U1 -->
<g id="edge47" class="edge">
<title>FileImportService&#45;&gt;U1</title>
<path fill="none" stroke="black" d="M1368.91,-691.77C1384.69,-663.67 1412.48,-614.15 1429.47,-583.89"/>
<polygon fill="black" stroke="black" points="1432.53,-585.59 1434.37,-575.16 1426.42,-582.16 1432.53,-585.59"/>
<text text-anchor="middle" x="1419.5" y="-666" font-family="Helvetica,sans-Serif" font-size="10.00">update_file_set</text>
</g>
<!-- FileSetService&#45;&gt;RepoDB -->
<g id="edge40" class="edge">
<title>FileSetService&#45;&gt;RepoDB</title>
<path fill="none" stroke="black" stroke-dasharray="5,2" d="M1840.56,-819.92C1894.74,-759.2 2075.53,-545.92 2143,-332 2170.95,-243.38 2165.46,-131.62 2160.52,-78.2"/>
<polygon fill="black" stroke="black" points="2163.99,-77.63 2159.52,-68.02 2157.02,-78.32 2163.99,-77.63"/>
<text text-anchor="middle" x="2145.5" y="-426" font-family="Helvetica,sans-Serif" font-size="10.00">insert release</text>
<text text-anchor="middle" x="2145.5" y="-415" font-family="Helvetica,sans-Serif" font-size="10.00">+ dat link</text>
</g>
<!-- A2 -->
<g id="node21" class="node">
<title>A2</title>
<polygon fill="#ede7f6" stroke="black" points="1259,-488 1091,-488 1091,-452 1259,-452 1259,-488"/>
<text text-anchor="middle" x="1175" y="-473.2" font-family="Helvetica,sans-Serif" font-size="11.00">2. CheckExistingFileSetStep</text>
<text text-anchor="middle" x="1175" y="-461.2" font-family="Helvetica,sans-Serif" font-size="11.00">check if file set in DB</text>
</g>
<!-- A1&#45;&gt;A2 -->
<g id="edge7" class="edge">
<title>A1&#45;&gt;A2</title>
<path fill="none" stroke="black" d="M1175,-534.99C1175,-523.92 1175,-510.22 1175,-498.34"/>
<polygon fill="black" stroke="black" points="1178.5,-498.06 1175,-488.06 1171.5,-498.06 1178.5,-498.06"/>
</g>
<!-- A1&#45;&gt;RepoDB -->
<g id="edge42" class="edge">
<title>A1&#45;&gt;RepoDB</title>
<path fill="none" stroke="black" stroke-dasharray="5,2" d="M1271.56,-537.28C1275.76,-536.5 1279.92,-535.74 1284,-535 1538.87,-488.75 1628.52,-554.15 1858,-434 1916.64,-403.3 1898.01,-354.67 1955,-321 1998.41,-295.36 2028.32,-335.34 2067,-303 2094.82,-279.74 2108.97,-183.21 2121,-149 2129.42,-125.06 2138.99,-97.96 2146.14,-77.72"/>
<polygon fill="black" stroke="black" points="2149.51,-78.69 2149.54,-68.09 2142.91,-76.36 2149.51,-78.69"/>
<text text-anchor="middle" x="2012.5" y="-324" font-family="Helvetica,sans-Serif" font-size="10.00">query file_info by SHA1</text>
</g>
<!-- A3 -->
<g id="node22" class="node">
<title>A3</title>
<polygon fill="#ede7f6" stroke="black" points="1271.5,-394 1060.5,-394 1060.5,-350 1271.5,-350 1271.5,-394"/>
<text text-anchor="middle" x="1166" y="-381.2" font-family="Helvetica,sans-Serif" font-size="11.00">3. ImportFilesStep</text>
<text text-anchor="middle" x="1166" y="-369.2" font-family="Helvetica,sans-Serif" font-size="11.00">copy files to output dir</text>
<text text-anchor="middle" x="1166" y="-357.2" font-family="Helvetica,sans-Serif" font-size="11.00">[skip: needs_file_info_upsert=false]</text>
</g>
<!-- A2&#45;&gt;A3 -->
<g id="edge8" class="edge">
<title>A2&#45;&gt;A3</title>
<path fill="none" stroke="black" d="M1173.39,-451.84C1172.16,-438.69 1170.42,-420.19 1168.95,-404.42"/>
<polygon fill="black" stroke="black" points="1172.39,-403.66 1167.97,-394.03 1165.42,-404.32 1172.39,-403.66"/>
</g>
<!-- A2&#45;&gt;RepoDB -->
<g id="edge43" class="edge">
<title>A2&#45;&gt;RepoDB</title>
<path fill="none" stroke="black" stroke-dasharray="5,2" d="M1259.23,-454.93C1337.56,-441.29 1457.29,-419.04 1560,-394 1654.96,-370.85 1687.39,-382.62 1771,-332 1786.33,-322.72 1787.1,-316.39 1799,-303 1815.79,-284.12 1813.02,-271.46 1835,-259 1882.68,-231.97 1911.56,-271.64 1957,-241 1996.31,-214.49 1976.6,-181.63 2011,-149 2031.34,-129.71 2043.55,-135.35 2067,-120 2087.54,-106.55 2108.95,-89.34 2125.73,-75"/>
<polygon fill="black" stroke="black" points="2128.29,-77.41 2133.57,-68.23 2123.72,-72.12 2128.29,-77.41"/>
<text text-anchor="middle" x="1883" y="-278.5" font-family="Helvetica,sans-Serif" font-size="10.00">check file set name</text>
</g>
<!-- A4 -->
<g id="node23" class="node">
<title>A4</title>
<polygon fill="#ede7f6" stroke="black" points="1272,-303 1080,-303 1080,-259 1272,-259 1272,-303"/>
<text text-anchor="middle" x="1176" y="-290.2" font-family="Helvetica,sans-Serif" font-size="11.00">4. CreateFileSetToDatabaseStep</text>
<text text-anchor="middle" x="1176" y="-278.2" font-family="Helvetica,sans-Serif" font-size="11.00">insert file_set, file_info,</text>
<text text-anchor="middle" x="1176" y="-266.2" font-family="Helvetica,sans-Serif" font-size="11.00">release, software_title</text>
</g>
<!-- A3&#45;&gt;A4 -->
<g id="edge9" class="edge">
<title>A3&#45;&gt;A4</title>
<path fill="none" stroke="black" d="M1168.37,-349.91C1169.59,-339.01 1171.11,-325.5 1172.47,-313.41"/>
<polygon fill="black" stroke="black" points="1175.97,-313.58 1173.61,-303.25 1169.02,-312.8 1175.97,-313.58"/>
</g>
<!-- FileStorage -->
<g id="node36" class="node">
<title>FileStorage</title>
<polygon fill="#fdebd0" stroke="black" points="2058,-64 2055,-68 2034,-68 2031,-64 1948,-64 1948,-28 2058,-28 2058,-64"/>
<text text-anchor="middle" x="2003" y="-49.2" font-family="Helvetica,sans-Serif" font-size="11.00">FileImportOps</text>
<text text-anchor="middle" x="2003" y="-37.2" font-family="Helvetica,sans-Serif" font-size="11.00">copy files to disk</text>
</g>
<!-- A3&#45;&gt;FileStorage -->
<g id="edge44" class="edge">
<title>A3&#45;&gt;FileStorage</title>
<path fill="none" stroke="black" stroke-dasharray="5,2" d="M1271.82,-352.13C1275.93,-351.41 1280,-350.7 1284,-350 1406.59,-328.65 1441.47,-340.87 1560,-303 1641.8,-276.87 1651.79,-243.82 1734,-219 1790.26,-202.02 1813.5,-229.31 1865,-201 1891.53,-186.42 1888.96,-171.69 1909,-149 1932.75,-122.11 1960.69,-91.98 1979.9,-71.48"/>
<polygon fill="black" stroke="black" points="1982.51,-73.81 1986.81,-64.12 1977.41,-69.02 1982.51,-73.81"/>
<text text-anchor="middle" x="1777.5" y="-227.5" font-family="Helvetica,sans-Serif" font-size="10.00">copy to output dir</text>
</g>
<!-- A5 -->
<g id="node24" class="node">
<title>A5</title>
<polygon fill="#ede7f6" stroke="black" points="1269.5,-201 1100.5,-201 1100.5,-157 1269.5,-157 1269.5,-201"/>
<text text-anchor="middle" x="1185" y="-188.2" font-family="Helvetica,sans-Serif" font-size="11.00">5. AddFileSetItemTypesStep</text>
<text text-anchor="middle" x="1185" y="-176.2" font-family="Helvetica,sans-Serif" font-size="11.00">associate item types</text>
<text text-anchor="middle" x="1185" y="-164.2" font-family="Helvetica,sans-Serif" font-size="11.00">[skip: none specified]</text>
</g>
<!-- A4&#45;&gt;A5 -->
<g id="edge10" class="edge">
<title>A4&#45;&gt;A5</title>
<path fill="none" stroke="black" d="M1177.91,-258.79C1179.15,-245 1180.79,-226.78 1182.18,-211.34"/>
<polygon fill="black" stroke="black" points="1185.68,-211.45 1183.09,-201.18 1178.71,-210.82 1185.68,-211.45"/>
</g>
<!-- A4&#45;&gt;RepoDB -->
<g id="edge45" class="edge">
<title>A4&#45;&gt;RepoDB</title>
<path fill="none" stroke="black" stroke-dasharray="5,2" d="M1272.48,-260.72C1385.3,-238.08 1557.17,-203.32 1560,-201 1579.41,-185.09 1561.93,-164.06 1582,-149 1597.21,-137.58 1648.19,-141.83 1667,-139 1693.81,-134.97 1700.03,-130.77 1727,-128 1764.59,-124.14 2031.54,-133.05 2067,-120 2091.89,-110.84 2115.01,-91.76 2131.58,-75.41"/>
<polygon fill="black" stroke="black" points="2134.22,-77.72 2138.72,-68.13 2129.22,-72.82 2134.22,-77.72"/>
<text text-anchor="middle" x="1638" y="-182" font-family="Helvetica,sans-Serif" font-size="10.00">insert file_set, file_info</text>
<text text-anchor="middle" x="1638" y="-171" font-family="Helvetica,sans-Serif" font-size="10.00">release, software_title</text>
</g>
<!-- A5&#45;&gt;RepoDB -->
<g id="edge46" class="edge">
<title>A5&#45;&gt;RepoDB</title>
<path fill="none" stroke="black" stroke-dasharray="5,2" d="M1249.49,-156.95C1260.89,-153.85 1272.72,-151.02 1284,-149 1415.12,-125.47 1449.91,-133.77 1583,-128 1609.87,-126.84 2041.73,-129.2 2067,-120 2091.92,-110.93 2115.04,-91.85 2131.6,-75.47"/>
<polygon fill="black" stroke="black" points="2134.24,-77.77 2138.74,-68.18 2129.24,-72.88 2134.24,-77.77"/>
<text text-anchor="middle" x="1625" y="-131" font-family="Helvetica,sans-Serif" font-size="10.00">insert item types</text>
</g>
<!-- U2 -->
<g id="node26" class="node">
<title>U2</title>
<polygon fill="#ffe0b2" stroke="black" points="1527.5,-488 1360.5,-488 1360.5,-452 1527.5,-452 1527.5,-488"/>
<text text-anchor="middle" x="1444" y="-473.2" font-family="Helvetica,sans-Serif" font-size="11.00">2. FetchFilesInFileSetStep</text>
<text text-anchor="middle" x="1444" y="-461.2" font-family="Helvetica,sans-Serif" font-size="11.00">load linked file_info records</text>
</g>
<!-- U1&#45;&gt;U2 -->
<g id="edge11" class="edge">
<title>U1&#45;&gt;U2</title>
<path fill="none" stroke="black" d="M1444,-538.8C1444,-527.16 1444,-511.55 1444,-498.24"/>
<polygon fill="black" stroke="black" points="1447.5,-498.18 1444,-488.18 1440.5,-498.18 1447.5,-498.18"/>
</g>
<!-- U1&#45;&gt;RepoDB -->
<g id="edge48" class="edge">
<title>U1&#45;&gt;RepoDB</title>
<path fill="none" stroke="black" stroke-dasharray="5,2" d="M1509.14,-554.28C1638.69,-550.4 1919.45,-539.48 1957,-517 2045.65,-463.93 2023.95,-406.47 2082,-321 2087.54,-312.84 2090.87,-311.96 2095,-303 2113.5,-262.84 2139.43,-137.26 2151.01,-78.24"/>
<polygon fill="black" stroke="black" points="2154.45,-78.85 2152.93,-68.36 2147.58,-77.51 2154.45,-78.85"/>
<text text-anchor="middle" x="2112.5" y="-324" font-family="Helvetica,sans-Serif" font-size="10.00">fetch file set</text>
</g>
<!-- U3 -->
<g id="node27" class="node">
<title>U3</title>
<polygon fill="#ffe0b2" stroke="black" points="1547.5,-394 1296.5,-394 1296.5,-350 1547.5,-350 1547.5,-394"/>
<text text-anchor="middle" x="1422" y="-381.2" font-family="Helvetica,sans-Serif" font-size="11.00">3. UpdateFileInfoToDatabaseStep</text>
<text text-anchor="middle" x="1422" y="-369.2" font-family="Helvetica,sans-Serif" font-size="11.00">insert new file_info OR restore is_available</text>
<text text-anchor="middle" x="1422" y="-357.2" font-family="Helvetica,sans-Serif" font-size="11.00">[skip: needs_file_info_upsert=false]</text>
</g>
<!-- U2&#45;&gt;U3 -->
<g id="edge12" class="edge">
<title>U2&#45;&gt;U3</title>
<path fill="none" stroke="black" d="M1440.07,-451.84C1437.03,-438.56 1432.73,-419.84 1429.1,-403.97"/>
<polygon fill="black" stroke="black" points="1432.47,-403 1426.82,-394.03 1425.64,-404.56 1432.47,-403"/>
</g>
<!-- U2&#45;&gt;RepoDB -->
<g id="edge49" class="edge">
<title>U2&#45;&gt;RepoDB</title>
<path fill="none" stroke="black" stroke-dasharray="5,2" d="M1527.84,-469.34C1626.71,-468.4 1784.06,-462.29 1835,-434 1845.65,-428.09 1959.01,-268.19 1967,-259 1974.42,-250.46 1977.65,-249.61 1985,-241 2025.29,-193.8 2025.49,-174.12 2067,-128 2084.2,-108.9 2105.5,-89.56 2123.06,-74.58"/>
<polygon fill="black" stroke="black" points="2125.45,-77.14 2130.84,-68.01 2120.94,-71.79 2125.45,-77.14"/>
<text text-anchor="middle" x="2017" y="-278.5" font-family="Helvetica,sans-Serif" font-size="10.00">fetch linked file_info</text>
</g>
<!-- U4 -->
<g id="node28" class="node">
<title>U4</title>
<polygon fill="#ffe0b2" stroke="black" points="1528,-303 1364,-303 1364,-259 1528,-259 1528,-303"/>
<text text-anchor="middle" x="1446" y="-290.2" font-family="Helvetica,sans-Serif" font-size="11.00">4. UpdateFileSetFilesStep</text>
<text text-anchor="middle" x="1446" y="-278.2" font-family="Helvetica,sans-Serif" font-size="11.00">link new file_info to file set</text>
<text text-anchor="middle" x="1446" y="-266.2" font-family="Helvetica,sans-Serif" font-size="11.00">[skip: no new ids]</text>
</g>
<!-- U3&#45;&gt;U4 -->
<g id="edge13" class="edge">
<title>U3&#45;&gt;U4</title>
<path fill="none" stroke="black" d="M1427.69,-349.91C1430.65,-338.9 1434.34,-325.23 1437.63,-313.04"/>
<polygon fill="black" stroke="black" points="1441.05,-313.82 1440.27,-303.25 1434.29,-311.99 1441.05,-313.82"/>
</g>
<!-- U3&#45;&gt;RepoDB -->
<g id="edge50" class="edge">
<title>U3&#45;&gt;RepoDB</title>
<path fill="none" stroke="black" stroke-dasharray="5,2" d="M1547.88,-366.96C1625.95,-362.39 1717.55,-352.68 1751,-332 1784.03,-311.59 1771.87,-286.78 1799,-259 1808.82,-248.94 1814.11,-249.89 1825,-241 1835.96,-232.06 1835.76,-226.09 1848,-219 1872.46,-204.83 1886.29,-217.84 1909,-201 1940.19,-177.87 1923.51,-147.66 1957,-128 1978.14,-115.59 2044.21,-129.02 2067,-120 2091.49,-110.3 2114.48,-91.42 2131.09,-75.3"/>
<polygon fill="black" stroke="black" points="2133.66,-77.67 2138.25,-68.12 2128.71,-72.72 2133.66,-77.67"/>
<text text-anchor="middle" x="1902.5" y="-233" font-family="Helvetica,sans-Serif" font-size="10.00">insert file_info</text>
<text text-anchor="middle" x="1902.5" y="-222" font-family="Helvetica,sans-Serif" font-size="10.00">or update is_available</text>
</g>
<!-- U5 -->
<g id="node29" class="node">
<title>U5</title>
<polygon fill="#ffe0b2" stroke="black" points="1546,-201 1346,-201 1346,-157 1546,-157 1546,-201"/>
<text text-anchor="middle" x="1446" y="-188.2" font-family="Helvetica,sans-Serif" font-size="11.00">5. CollectDeletionCandidatesStep</text>
<text text-anchor="middle" x="1446" y="-176.2" font-family="Helvetica,sans-Serif" font-size="11.00">identify unlinked files</text>
<text text-anchor="middle" x="1446" y="-164.2" font-family="Helvetica,sans-Serif" font-size="11.00">[skip: no removals]</text>
</g>
<!-- U4&#45;&gt;U5 -->
<g id="edge14" class="edge">
<title>U4&#45;&gt;U5</title>
<path fill="none" stroke="black" d="M1446,-258.79C1446,-245 1446,-226.78 1446,-211.34"/>
<polygon fill="black" stroke="black" points="1449.5,-211.18 1446,-201.18 1442.5,-211.18 1449.5,-211.18"/>
</g>
<!-- U4&#45;&gt;RepoDB -->
<g id="edge51" class="edge">
<title>U4&#45;&gt;RepoDB</title>
<path fill="none" stroke="black" stroke-dasharray="5,2" d="M1528.25,-260.5C1550.4,-254.74 1574.25,-248.07 1596,-241 1642.31,-225.96 1660.48,-232.04 1698,-201 1727.55,-176.56 1710.66,-146.94 1744,-128 1775.21,-110.27 2033.32,-132.42 2067,-120 2091.88,-110.83 2115,-91.75 2131.58,-75.4"/>
<polygon fill="black" stroke="black" points="2134.21,-77.71 2138.71,-68.12 2129.21,-72.81 2134.21,-77.71"/>
<text text-anchor="middle" x="1792.5" y="-176.5" font-family="Helvetica,sans-Serif" font-size="10.00">insert file_set_file_info rows</text>
</g>
<!-- U6 -->
<g id="node30" class="node">
<title>U6</title>
<polygon fill="#ffe0b2" stroke="black" points="1548,-68 1370,-68 1370,-24 1548,-24 1548,-68"/>
<text text-anchor="middle" x="1459" y="-55.2" font-family="Helvetica,sans-Serif" font-size="11.00">6. UnlinkFilesFromFileSetStep</text>
<text text-anchor="middle" x="1459" y="-43.2" font-family="Helvetica,sans-Serif" font-size="11.00">remove from file_set_file_info</text>
<text text-anchor="middle" x="1459" y="-31.2" font-family="Helvetica,sans-Serif" font-size="11.00">[skip: no removals]</text>
</g>
<!-- U5&#45;&gt;U6 -->
<g id="edge15" class="edge">
<title>U5&#45;&gt;U6</title>
<path fill="none" stroke="black" d="M1448.09,-156.95C1450.19,-135.78 1453.45,-102.89 1455.87,-78.59"/>
<polygon fill="black" stroke="black" points="1459.37,-78.73 1456.87,-68.43 1452.4,-78.04 1459.37,-78.73"/>
</g>
<!-- U6&#45;&gt;RepoDB -->
<g id="edge52" class="edge">
<title>U6&#45;&gt;RepoDB</title>
<path fill="none" stroke="black" stroke-dasharray="5,2" d="M1548.15,-66.48C1693.2,-98.17 1973.5,-152.15 2067,-119 2091.5,-110.31 2114.2,-91.8 2130.67,-75.59"/>
<polygon fill="black" stroke="black" points="2133.27,-77.93 2137.78,-68.35 2128.28,-73.03 2133.27,-77.93"/>
<text text-anchor="middle" x="1815" y="-131" font-family="Helvetica,sans-Serif" font-size="10.00">delete file_set_file_info rows</text>
</g>
<!-- DatFileService&#45;&gt;RepoDB -->
<g id="edge27" class="edge">
<title>DatFileService&#45;&gt;RepoDB</title>
<path fill="none" stroke="black" stroke-dasharray="5,2" d="M1901.59,-1346.14C1985.46,-1345.53 2150.96,-1340.5 2200,-1311 2216.48,-1301.09 2224,-1294.23 2224,-1275 2224,-1275 2224,-1275 2224,-1164 2224,-954.21 2217.92,-901.45 2230,-692 2234.5,-613.94 2240.23,-594.8 2248,-517 2252.12,-475.68 2257,-465.53 2257,-424 2257,-424 2257,-424 2257,-178 2257,-135.5 2223.34,-98.22 2195.07,-74.41"/>
<polygon fill="black" stroke="black" points="2197.24,-71.66 2187.27,-68.05 2192.82,-77.08 2197.24,-71.66"/>
<text text-anchor="middle" x="2255.5" y="-711.5" font-family="Helvetica,sans-Serif" font-size="10.00">insert DAT</text>
</g>
<!-- DatGameStatus&#45;&gt;RepoDB -->
<g id="edge31" class="edge">
<title>DatGameStatus&#45;&gt;RepoDB</title>
<path fill="none" stroke="black" stroke-dasharray="5,2" d="M1924.17,-1117.48C1975.91,-1110.18 2044.56,-1093.24 2092,-1054 2123.09,-1028.28 2133,-1013.35 2133,-973 2133,-973 2133,-973 2133,-556 2133,-533.77 2127.45,-527.24 2134,-506 2145.26,-469.48 2166.05,-469.17 2181,-434 2191.88,-408.4 2195,-400.82 2195,-373 2195,-373 2195,-373 2195,-178 2195,-142.51 2181.98,-103.68 2171.18,-77.59"/>
<polygon fill="black" stroke="black" points="2174.33,-76.06 2167.18,-68.24 2167.9,-78.81 2174.33,-76.06"/>
<text text-anchor="middle" x="2191" y="-509" font-family="Helvetica,sans-Serif" font-size="10.00">query file sets by SHA1</text>
</g>
</g>
</svg>
